G75*
%MOIN*%
%OFA0B0*%
%FSLAX25Y25*%
%IPPOS*%
%LPD*%
%AMOC8*
5,1,8,0,0,1.08239X$1,22.5*
%
%ADD10C,0.00000*%
%ADD11C,0.05937*%
%ADD12C,0.05200*%
%ADD13R,0.07000X0.07000*%
%ADD14C,0.07000*%
%ADD15C,0.10039*%
%ADD16C,0.09900*%
%ADD17C,0.01600*%
%ADD18C,0.02400*%
%ADD19C,0.02400*%
D10*
X0011800Y0016800D02*
X0011800Y0287076D01*
X0230501Y0287076D01*
X0230501Y0016800D01*
X0011800Y0016800D01*
D11*
X0021800Y0033831D02*
X0021800Y0039769D01*
X0031800Y0039769D02*
X0031800Y0033831D01*
X0041800Y0033831D02*
X0041800Y0039769D01*
X0041800Y0068831D02*
X0041800Y0074769D01*
X0031800Y0074769D02*
X0031800Y0068831D01*
X0021800Y0068831D02*
X0021800Y0074769D01*
X0191800Y0143831D02*
X0191800Y0149769D01*
X0201800Y0149769D02*
X0201800Y0143831D01*
X0211800Y0143831D02*
X0211800Y0149769D01*
X0211800Y0178831D02*
X0211800Y0184769D01*
X0201800Y0184769D02*
X0201800Y0178831D01*
X0191800Y0178831D02*
X0191800Y0184769D01*
D12*
X0167000Y0186800D02*
X0161800Y0186800D01*
X0161800Y0176800D02*
X0167000Y0176800D01*
X0167000Y0166800D02*
X0161800Y0166800D01*
X0161800Y0156800D02*
X0167000Y0156800D01*
X0167000Y0146800D02*
X0161800Y0146800D01*
X0161800Y0136800D02*
X0167000Y0136800D01*
X0167000Y0126800D02*
X0161800Y0126800D01*
X0161800Y0116800D02*
X0167000Y0116800D01*
X0161800Y0104400D02*
X0161800Y0099200D01*
X0151800Y0099200D02*
X0151800Y0104400D01*
X0141800Y0104400D02*
X0141800Y0099200D01*
X0131800Y0099200D02*
X0131800Y0104400D01*
X0121800Y0104400D02*
X0121800Y0099200D01*
X0111800Y0099200D02*
X0111800Y0104400D01*
X0101800Y0104400D02*
X0101800Y0099200D01*
X0091800Y0099200D02*
X0091800Y0104400D01*
X0081800Y0104400D02*
X0081800Y0099200D01*
X0066800Y0099200D02*
X0066800Y0104400D01*
X0056800Y0104400D02*
X0056800Y0099200D01*
X0046800Y0099200D02*
X0046800Y0104400D01*
X0036800Y0104400D02*
X0036800Y0099200D01*
X0026800Y0099200D02*
X0026800Y0104400D01*
X0026600Y0116800D02*
X0031800Y0116800D01*
X0031800Y0126800D02*
X0026600Y0126800D01*
X0026600Y0136800D02*
X0031800Y0136800D01*
X0031800Y0146800D02*
X0026600Y0146800D01*
X0026600Y0156800D02*
X0031800Y0156800D01*
X0031800Y0166800D02*
X0026600Y0166800D01*
X0026600Y0176800D02*
X0031800Y0176800D01*
X0031800Y0186800D02*
X0026600Y0186800D01*
X0026800Y0204200D02*
X0026800Y0209400D01*
X0036800Y0209400D02*
X0036800Y0204200D01*
X0046800Y0204200D02*
X0046800Y0209400D01*
X0056800Y0209400D02*
X0056800Y0204200D01*
X0066800Y0204200D02*
X0066800Y0209400D01*
X0081800Y0209400D02*
X0081800Y0204200D01*
X0091800Y0204200D02*
X0091800Y0209400D01*
X0101800Y0209400D02*
X0101800Y0204200D01*
X0111800Y0204200D02*
X0111800Y0209400D01*
X0121800Y0209400D02*
X0121800Y0204200D01*
X0131800Y0204200D02*
X0131800Y0209400D01*
X0141800Y0209400D02*
X0141800Y0204200D01*
X0151800Y0204200D02*
X0151800Y0209400D01*
X0161800Y0209400D02*
X0161800Y0204200D01*
X0131800Y0186800D02*
X0126600Y0186800D01*
X0117000Y0186800D02*
X0111800Y0186800D01*
X0111800Y0176800D02*
X0117000Y0176800D01*
X0126600Y0176800D02*
X0131800Y0176800D01*
X0131800Y0166800D02*
X0126600Y0166800D01*
X0117000Y0166800D02*
X0111800Y0166800D01*
X0111800Y0156800D02*
X0117000Y0156800D01*
X0126600Y0156800D02*
X0131800Y0156800D01*
X0131800Y0146800D02*
X0126600Y0146800D01*
X0117000Y0146800D02*
X0111800Y0146800D01*
X0111800Y0136800D02*
X0117000Y0136800D01*
X0126600Y0136800D02*
X0131800Y0136800D01*
X0131800Y0126800D02*
X0126600Y0126800D01*
X0117000Y0126800D02*
X0111800Y0126800D01*
X0111800Y0116800D02*
X0117000Y0116800D01*
X0126600Y0116800D02*
X0131800Y0116800D01*
X0081800Y0116800D02*
X0076600Y0116800D01*
X0076600Y0126800D02*
X0081800Y0126800D01*
X0081800Y0136800D02*
X0076600Y0136800D01*
X0067000Y0136800D02*
X0061800Y0136800D01*
X0061800Y0126800D02*
X0067000Y0126800D01*
X0067000Y0116800D02*
X0061800Y0116800D01*
X0061800Y0146800D02*
X0067000Y0146800D01*
X0067000Y0156800D02*
X0061800Y0156800D01*
X0061800Y0166800D02*
X0067000Y0166800D01*
X0076600Y0166800D02*
X0081800Y0166800D01*
X0081800Y0156800D02*
X0076600Y0156800D01*
X0076600Y0146800D02*
X0081800Y0146800D01*
X0081800Y0176800D02*
X0076600Y0176800D01*
X0076600Y0186800D02*
X0081800Y0186800D01*
X0067000Y0186800D02*
X0061800Y0186800D01*
X0061800Y0176800D02*
X0067000Y0176800D01*
D13*
X0081800Y0026800D03*
D14*
X0091800Y0026800D03*
X0101800Y0026800D03*
X0111800Y0026800D03*
X0121800Y0026800D03*
X0131800Y0026800D03*
X0141800Y0026800D03*
X0151800Y0026800D03*
X0161800Y0026800D03*
X0171800Y0026800D03*
X0181800Y0026800D03*
X0191800Y0026800D03*
X0201800Y0026800D03*
X0211800Y0026800D03*
X0221800Y0026800D03*
X0221800Y0086800D03*
X0211800Y0086800D03*
X0201800Y0086800D03*
X0191800Y0086800D03*
X0181800Y0086800D03*
X0171800Y0086800D03*
X0161800Y0086800D03*
X0151800Y0086800D03*
X0141800Y0086800D03*
X0131800Y0086800D03*
X0121800Y0086800D03*
X0111800Y0086800D03*
X0101800Y0086800D03*
X0091800Y0086800D03*
X0081800Y0086800D03*
D15*
X0075028Y0261780D02*
X0075028Y0271820D01*
X0059438Y0271820D02*
X0059438Y0261780D01*
X0043847Y0261780D02*
X0043847Y0271820D01*
X0028257Y0271820D02*
X0028257Y0261780D01*
X0090619Y0261780D02*
X0090619Y0271820D01*
X0106209Y0271820D02*
X0106209Y0261780D01*
X0121800Y0261780D02*
X0121800Y0271820D01*
X0137391Y0271820D02*
X0137391Y0261780D01*
X0152981Y0261780D02*
X0152981Y0271820D01*
X0168572Y0271820D02*
X0168572Y0261780D01*
X0184162Y0261780D02*
X0184162Y0271820D01*
X0199753Y0271820D02*
X0199753Y0261780D01*
X0215343Y0261780D02*
X0215343Y0271820D01*
D16*
X0215400Y0236750D02*
X0215400Y0226850D01*
X0199800Y0226850D02*
X0199800Y0236750D01*
X0184200Y0236750D02*
X0184200Y0226850D01*
X0168600Y0226850D02*
X0168600Y0236750D01*
X0153000Y0236750D02*
X0153000Y0226850D01*
X0137400Y0226850D02*
X0137400Y0236750D01*
X0121800Y0236750D02*
X0121800Y0226850D01*
X0106200Y0226850D02*
X0106200Y0236750D01*
X0090600Y0236750D02*
X0090600Y0226850D01*
X0075000Y0226850D02*
X0075000Y0236750D01*
X0059400Y0236750D02*
X0059400Y0226850D01*
X0043800Y0226850D02*
X0043800Y0236750D01*
X0028200Y0236750D02*
X0028200Y0226850D01*
D17*
X0031075Y0221168D02*
X0039600Y0221168D01*
X0039600Y0222070D02*
X0039600Y0219000D01*
X0023389Y0219000D01*
X0022100Y0217711D01*
X0014600Y0210211D01*
X0014600Y0135889D01*
X0015889Y0134600D01*
X0023182Y0134600D01*
X0023209Y0134534D01*
X0024334Y0133409D01*
X0025804Y0132800D01*
X0032596Y0132800D01*
X0034066Y0133409D01*
X0035191Y0134534D01*
X0035800Y0136004D01*
X0035800Y0137596D01*
X0035191Y0139066D01*
X0034066Y0140191D01*
X0032596Y0140800D01*
X0025804Y0140800D01*
X0024334Y0140191D01*
X0023209Y0139066D01*
X0023182Y0139000D01*
X0019000Y0139000D01*
X0019000Y0151489D01*
X0022100Y0148389D01*
X0022100Y0145889D01*
X0023035Y0144953D01*
X0023209Y0144534D01*
X0024334Y0143409D01*
X0025804Y0142800D01*
X0032596Y0142800D01*
X0034066Y0143409D01*
X0035191Y0144534D01*
X0035800Y0146004D01*
X0035800Y0147596D01*
X0035191Y0149066D01*
X0034066Y0150191D01*
X0032596Y0150800D01*
X0025911Y0150800D01*
X0025211Y0151500D01*
X0021500Y0155211D01*
X0021500Y0188389D01*
X0032711Y0199600D01*
X0034000Y0200889D01*
X0034000Y0201343D01*
X0034534Y0200809D01*
X0036004Y0200200D01*
X0037100Y0200200D01*
X0037100Y0180777D01*
X0037096Y0180773D01*
X0036700Y0179817D01*
X0036700Y0178783D01*
X0037096Y0177827D01*
X0037827Y0177096D01*
X0038646Y0176757D01*
X0032661Y0170773D01*
X0032596Y0170800D01*
X0025804Y0170800D01*
X0024334Y0170191D01*
X0023209Y0169066D01*
X0022600Y0167596D01*
X0022600Y0166004D01*
X0023209Y0164534D01*
X0024334Y0163409D01*
X0025804Y0162800D01*
X0032596Y0162800D01*
X0034066Y0163409D01*
X0035191Y0164534D01*
X0035800Y0166004D01*
X0035800Y0167596D01*
X0035773Y0167661D01*
X0054000Y0185889D01*
X0054000Y0195889D01*
X0057711Y0199600D01*
X0057711Y0199600D01*
X0058817Y0200706D01*
X0059066Y0200809D01*
X0060191Y0201934D01*
X0060800Y0203404D01*
X0060800Y0210196D01*
X0060191Y0211666D01*
X0059066Y0212791D01*
X0057596Y0213400D01*
X0056004Y0213400D01*
X0054534Y0212791D01*
X0053409Y0211666D01*
X0052800Y0210196D01*
X0052800Y0203404D01*
X0053409Y0201934D01*
X0053616Y0201727D01*
X0049600Y0197711D01*
X0049600Y0187711D01*
X0041843Y0179954D01*
X0041504Y0180773D01*
X0041500Y0180777D01*
X0041500Y0202711D01*
X0040800Y0203411D01*
X0040800Y0210196D01*
X0040191Y0211666D01*
X0039757Y0212100D01*
X0042100Y0212100D01*
X0042100Y0210889D01*
X0042800Y0210189D01*
X0042800Y0203404D01*
X0043409Y0201934D01*
X0044534Y0200809D01*
X0046004Y0200200D01*
X0047596Y0200200D01*
X0049066Y0200809D01*
X0050191Y0201934D01*
X0050800Y0203404D01*
X0050800Y0210196D01*
X0050191Y0211666D01*
X0049066Y0212791D01*
X0047596Y0213400D01*
X0046500Y0213400D01*
X0046500Y0215211D01*
X0045211Y0216500D01*
X0044000Y0216500D01*
X0044000Y0220500D01*
X0045063Y0220500D01*
X0047397Y0221467D01*
X0049183Y0223253D01*
X0050150Y0225587D01*
X0050150Y0238013D01*
X0049183Y0240347D01*
X0047397Y0242133D01*
X0045063Y0243100D01*
X0044000Y0243100D01*
X0044000Y0255361D01*
X0045124Y0255361D01*
X0047484Y0256338D01*
X0049290Y0258144D01*
X0050267Y0260503D01*
X0050267Y0273097D01*
X0049290Y0275456D01*
X0047484Y0277262D01*
X0045124Y0278239D01*
X0042570Y0278239D01*
X0040211Y0277262D01*
X0038405Y0275456D01*
X0037428Y0273097D01*
X0037428Y0260503D01*
X0038405Y0258144D01*
X0039600Y0256949D01*
X0039600Y0241530D01*
X0038417Y0240347D01*
X0037450Y0238013D01*
X0037450Y0225587D01*
X0038417Y0223253D01*
X0039600Y0222070D01*
X0038903Y0222766D02*
X0033097Y0222766D01*
X0033583Y0223253D02*
X0034550Y0225587D01*
X0034550Y0238013D01*
X0033583Y0240347D01*
X0031797Y0242133D01*
X0031500Y0242256D01*
X0031500Y0256175D01*
X0031893Y0256338D01*
X0033699Y0258144D01*
X0034676Y0260503D01*
X0034676Y0273097D01*
X0033699Y0275456D01*
X0031893Y0277262D01*
X0029534Y0278239D01*
X0026980Y0278239D01*
X0024620Y0277262D01*
X0022814Y0275456D01*
X0021837Y0273097D01*
X0021837Y0260503D01*
X0022814Y0258144D01*
X0024620Y0256338D01*
X0026980Y0255361D01*
X0027100Y0255361D01*
X0027100Y0243100D01*
X0026937Y0243100D01*
X0024603Y0242133D01*
X0022817Y0240347D01*
X0021850Y0238013D01*
X0021850Y0225587D01*
X0022817Y0223253D01*
X0024603Y0221467D01*
X0026937Y0220500D01*
X0029463Y0220500D01*
X0031797Y0221467D01*
X0033583Y0223253D01*
X0034044Y0224365D02*
X0037956Y0224365D01*
X0037450Y0225963D02*
X0034550Y0225963D01*
X0034550Y0227562D02*
X0037450Y0227562D01*
X0037450Y0229160D02*
X0034550Y0229160D01*
X0034550Y0230759D02*
X0037450Y0230759D01*
X0037450Y0232357D02*
X0034550Y0232357D01*
X0034550Y0233956D02*
X0037450Y0233956D01*
X0037450Y0235554D02*
X0034550Y0235554D01*
X0034550Y0237153D02*
X0037450Y0237153D01*
X0037756Y0238751D02*
X0034244Y0238751D01*
X0033580Y0240350D02*
X0038420Y0240350D01*
X0039600Y0241948D02*
X0031982Y0241948D01*
X0031500Y0243547D02*
X0039600Y0243547D01*
X0039600Y0245145D02*
X0031500Y0245145D01*
X0031500Y0246744D02*
X0039600Y0246744D01*
X0039600Y0248342D02*
X0031500Y0248342D01*
X0031500Y0249941D02*
X0039600Y0249941D01*
X0039600Y0251539D02*
X0031500Y0251539D01*
X0031500Y0253138D02*
X0039600Y0253138D01*
X0039600Y0254737D02*
X0031500Y0254737D01*
X0031886Y0256335D02*
X0039600Y0256335D01*
X0038615Y0257934D02*
X0033489Y0257934D01*
X0034274Y0259532D02*
X0037830Y0259532D01*
X0037428Y0261131D02*
X0034676Y0261131D01*
X0034676Y0262729D02*
X0037428Y0262729D01*
X0037428Y0264328D02*
X0034676Y0264328D01*
X0034676Y0265926D02*
X0037428Y0265926D01*
X0037428Y0267525D02*
X0034676Y0267525D01*
X0034676Y0269123D02*
X0037428Y0269123D01*
X0037428Y0270722D02*
X0034676Y0270722D01*
X0034676Y0272320D02*
X0037428Y0272320D01*
X0037768Y0273919D02*
X0034336Y0273919D01*
X0033638Y0275517D02*
X0038466Y0275517D01*
X0040064Y0277116D02*
X0032040Y0277116D01*
X0024474Y0277116D02*
X0013600Y0277116D01*
X0013600Y0278714D02*
X0083103Y0278714D01*
X0081504Y0277116D02*
X0078811Y0277116D01*
X0078665Y0277262D02*
X0076305Y0278239D01*
X0073751Y0278239D01*
X0071392Y0277262D01*
X0069586Y0275456D01*
X0068609Y0273097D01*
X0068609Y0260503D01*
X0069586Y0258144D01*
X0071392Y0256338D01*
X0072100Y0256045D01*
X0072100Y0242422D01*
X0071403Y0242133D01*
X0069617Y0240347D01*
X0068650Y0238013D01*
X0068650Y0225587D01*
X0069617Y0223253D01*
X0071403Y0221467D01*
X0072100Y0221178D01*
X0072100Y0199000D01*
X0060889Y0199000D01*
X0059600Y0197711D01*
X0056289Y0194400D01*
X0056283Y0194400D01*
X0055327Y0194004D01*
X0054596Y0193273D01*
X0054200Y0192317D01*
X0054200Y0191283D01*
X0054596Y0190327D01*
X0055327Y0189596D01*
X0056283Y0189200D01*
X0057317Y0189200D01*
X0058273Y0189596D01*
X0059004Y0190327D01*
X0059400Y0191283D01*
X0059400Y0191289D01*
X0062711Y0194600D01*
X0075211Y0194600D01*
X0076500Y0195889D01*
X0076500Y0198989D01*
X0084600Y0190889D01*
X0084600Y0189657D01*
X0084066Y0190191D01*
X0082596Y0190800D01*
X0075804Y0190800D01*
X0074334Y0190191D01*
X0073209Y0189066D01*
X0072600Y0187596D01*
X0072600Y0186004D01*
X0073209Y0184534D01*
X0074334Y0183409D01*
X0075804Y0182800D01*
X0082596Y0182800D01*
X0084066Y0183409D01*
X0084600Y0183943D01*
X0084600Y0182711D01*
X0082661Y0180773D01*
X0082596Y0180800D01*
X0075804Y0180800D01*
X0074334Y0180191D01*
X0073209Y0179066D01*
X0072600Y0177596D01*
X0072600Y0176004D01*
X0073209Y0174534D01*
X0074334Y0173409D01*
X0075804Y0172800D01*
X0082596Y0172800D01*
X0084066Y0173409D01*
X0085191Y0174534D01*
X0085800Y0176004D01*
X0085800Y0177596D01*
X0085773Y0177661D01*
X0087100Y0178989D01*
X0087100Y0162111D01*
X0086900Y0162311D01*
X0086900Y0162317D01*
X0086504Y0163273D01*
X0085773Y0164004D01*
X0084987Y0164330D01*
X0085191Y0164534D01*
X0085800Y0166004D01*
X0085800Y0167596D01*
X0085191Y0169066D01*
X0084066Y0170191D01*
X0082596Y0170800D01*
X0075804Y0170800D01*
X0074334Y0170191D01*
X0074000Y0169857D01*
X0074000Y0172711D01*
X0072711Y0174000D01*
X0071500Y0175211D01*
X0071500Y0177711D01*
X0070565Y0178647D01*
X0070391Y0179066D01*
X0069266Y0180191D01*
X0067796Y0180800D01*
X0061004Y0180800D01*
X0059534Y0180191D01*
X0058409Y0179066D01*
X0057800Y0177596D01*
X0057800Y0176004D01*
X0058409Y0174534D01*
X0059534Y0173409D01*
X0061004Y0172800D01*
X0067689Y0172800D01*
X0069600Y0170889D01*
X0069600Y0169857D01*
X0069266Y0170191D01*
X0067796Y0170800D01*
X0061004Y0170800D01*
X0059534Y0170191D01*
X0058409Y0169066D01*
X0057800Y0167596D01*
X0057800Y0166477D01*
X0056900Y0165577D01*
X0056900Y0178223D01*
X0061477Y0182800D01*
X0067796Y0182800D01*
X0069266Y0183409D01*
X0070391Y0184534D01*
X0071000Y0186004D01*
X0071000Y0187596D01*
X0070391Y0189066D01*
X0069266Y0190191D01*
X0067796Y0190800D01*
X0061004Y0190800D01*
X0059534Y0190191D01*
X0058409Y0189066D01*
X0057800Y0187596D01*
X0057800Y0186477D01*
X0052827Y0181504D01*
X0052096Y0180773D01*
X0051700Y0179817D01*
X0051700Y0140377D01*
X0039596Y0128273D01*
X0039200Y0127317D01*
X0039200Y0114400D01*
X0035057Y0114400D01*
X0035191Y0114534D01*
X0035800Y0116004D01*
X0035800Y0117596D01*
X0035191Y0119066D01*
X0034066Y0120191D01*
X0032596Y0120800D01*
X0025804Y0120800D01*
X0024334Y0120191D01*
X0023209Y0119066D01*
X0022600Y0117596D01*
X0022600Y0116004D01*
X0023209Y0114534D01*
X0023472Y0114271D01*
X0022827Y0114004D01*
X0022096Y0113273D01*
X0017096Y0108273D01*
X0016700Y0107317D01*
X0016700Y0093783D01*
X0017096Y0092827D01*
X0017827Y0092096D01*
X0019200Y0090723D01*
X0019200Y0078346D01*
X0018097Y0077243D01*
X0017431Y0075637D01*
X0017431Y0067963D01*
X0018097Y0066357D01*
X0019200Y0065253D01*
X0019200Y0043346D01*
X0018097Y0042243D01*
X0017431Y0040637D01*
X0017431Y0032963D01*
X0018097Y0031357D01*
X0019325Y0030128D01*
X0020931Y0029463D01*
X0022669Y0029463D01*
X0024275Y0030128D01*
X0025503Y0031357D01*
X0026168Y0032963D01*
X0026168Y0040637D01*
X0025503Y0042243D01*
X0024400Y0043346D01*
X0024400Y0065253D01*
X0025503Y0066357D01*
X0026168Y0067963D01*
X0026168Y0075637D01*
X0025503Y0077243D01*
X0024400Y0078346D01*
X0024400Y0092317D01*
X0024004Y0093273D01*
X0021900Y0095377D01*
X0021900Y0105723D01*
X0025377Y0109200D01*
X0042317Y0109200D01*
X0043273Y0109596D01*
X0044004Y0110327D01*
X0044400Y0111283D01*
X0044400Y0125723D01*
X0044423Y0125746D01*
X0044596Y0125327D01*
X0044600Y0125323D01*
X0044600Y0107818D01*
X0044534Y0107791D01*
X0043409Y0106666D01*
X0042800Y0105196D01*
X0042800Y0098404D01*
X0043409Y0096934D01*
X0044534Y0095809D01*
X0046004Y0095200D01*
X0047596Y0095200D01*
X0049066Y0095809D01*
X0050191Y0096934D01*
X0050800Y0098404D01*
X0050800Y0105196D01*
X0050191Y0106666D01*
X0049066Y0107791D01*
X0049000Y0107818D01*
X0049000Y0125323D01*
X0049004Y0125327D01*
X0049400Y0126283D01*
X0049400Y0127317D01*
X0049004Y0128273D01*
X0048273Y0129004D01*
X0047854Y0129177D01*
X0049423Y0130746D01*
X0049596Y0130327D01*
X0050327Y0129596D01*
X0051283Y0129200D01*
X0051289Y0129200D01*
X0052100Y0128389D01*
X0052100Y0105889D01*
X0052800Y0105189D01*
X0052800Y0098404D01*
X0053409Y0096934D01*
X0054534Y0095809D01*
X0056004Y0095200D01*
X0057596Y0095200D01*
X0059066Y0095809D01*
X0059373Y0096116D01*
X0122100Y0033389D01*
X0123389Y0032100D01*
X0137100Y0032100D01*
X0137100Y0030889D01*
X0138030Y0029959D01*
X0137646Y0029576D01*
X0136900Y0027775D01*
X0136900Y0025825D01*
X0137646Y0024024D01*
X0139024Y0022646D01*
X0140825Y0021900D01*
X0142775Y0021900D01*
X0144576Y0022646D01*
X0145954Y0024024D01*
X0146700Y0025825D01*
X0146700Y0027775D01*
X0145954Y0029576D01*
X0144576Y0030954D01*
X0142775Y0031700D01*
X0142511Y0031700D01*
X0141500Y0032711D01*
X0141500Y0035211D01*
X0140211Y0036500D01*
X0125211Y0036500D01*
X0079094Y0082617D01*
X0080825Y0081900D01*
X0082775Y0081900D01*
X0084576Y0082646D01*
X0085954Y0084024D01*
X0086619Y0085630D01*
X0086630Y0085559D01*
X0086888Y0084766D01*
X0087267Y0084022D01*
X0087757Y0083347D01*
X0088347Y0082757D01*
X0089022Y0082267D01*
X0089766Y0081888D01*
X0090559Y0081630D01*
X0091383Y0081500D01*
X0091700Y0081500D01*
X0091700Y0086700D01*
X0091900Y0086700D01*
X0091900Y0081500D01*
X0092217Y0081500D01*
X0093041Y0081630D01*
X0093834Y0081888D01*
X0094578Y0082267D01*
X0095240Y0082748D01*
X0102100Y0075889D01*
X0103389Y0074600D01*
X0220211Y0074600D01*
X0221500Y0075889D01*
X0221500Y0080889D01*
X0222511Y0081900D01*
X0222775Y0081900D01*
X0224576Y0082646D01*
X0225954Y0084024D01*
X0226700Y0085825D01*
X0226700Y0087775D01*
X0225954Y0089576D01*
X0224576Y0090954D01*
X0222775Y0091700D01*
X0222511Y0091700D01*
X0221500Y0092711D01*
X0221500Y0112711D01*
X0220211Y0114000D01*
X0196900Y0137311D01*
X0196900Y0137317D01*
X0196504Y0138273D01*
X0195773Y0139004D01*
X0194817Y0139400D01*
X0193783Y0139400D01*
X0192827Y0139004D01*
X0192096Y0138273D01*
X0191757Y0137454D01*
X0186500Y0142711D01*
X0186500Y0220930D01*
X0187797Y0221467D01*
X0189583Y0223253D01*
X0190550Y0225587D01*
X0190550Y0238013D01*
X0189583Y0240347D01*
X0187797Y0242133D01*
X0185463Y0243100D01*
X0184000Y0243100D01*
X0184000Y0255361D01*
X0185439Y0255361D01*
X0187799Y0256338D01*
X0189605Y0258144D01*
X0190582Y0260503D01*
X0190582Y0273097D01*
X0189605Y0275456D01*
X0187799Y0277262D01*
X0185439Y0278239D01*
X0182885Y0278239D01*
X0180526Y0277262D01*
X0178720Y0275456D01*
X0177743Y0273097D01*
X0177743Y0260503D01*
X0178720Y0258144D01*
X0179600Y0257264D01*
X0179600Y0241130D01*
X0178817Y0240347D01*
X0177850Y0238013D01*
X0177850Y0225587D01*
X0178817Y0223253D01*
X0180419Y0221651D01*
X0179817Y0221900D01*
X0178783Y0221900D01*
X0177827Y0221504D01*
X0177096Y0220773D01*
X0176700Y0219817D01*
X0176700Y0218783D01*
X0177096Y0217827D01*
X0177100Y0217823D01*
X0177100Y0215211D01*
X0165800Y0203911D01*
X0165800Y0210196D01*
X0165191Y0211666D01*
X0164066Y0212791D01*
X0162596Y0213400D01*
X0161004Y0213400D01*
X0159534Y0212791D01*
X0158409Y0211666D01*
X0157800Y0210196D01*
X0157800Y0203404D01*
X0158409Y0201934D01*
X0158616Y0201727D01*
X0146289Y0189400D01*
X0146283Y0189400D01*
X0145327Y0189004D01*
X0144596Y0188273D01*
X0144200Y0187317D01*
X0144200Y0186283D01*
X0144596Y0185327D01*
X0145327Y0184596D01*
X0146041Y0184300D01*
X0145327Y0184004D01*
X0144596Y0183273D01*
X0144200Y0182317D01*
X0144200Y0181283D01*
X0144596Y0180327D01*
X0145327Y0179596D01*
X0146283Y0179200D01*
X0147317Y0179200D01*
X0148273Y0179596D01*
X0149004Y0180327D01*
X0149400Y0181283D01*
X0149400Y0181289D01*
X0180211Y0212100D01*
X0181500Y0213389D01*
X0181500Y0217823D01*
X0181504Y0217827D01*
X0181900Y0218783D01*
X0181900Y0219817D01*
X0181504Y0220773D01*
X0180957Y0221320D01*
X0182100Y0220847D01*
X0182100Y0144611D01*
X0177454Y0149257D01*
X0178273Y0149596D01*
X0179004Y0150327D01*
X0179400Y0151283D01*
X0179400Y0152317D01*
X0179004Y0153273D01*
X0179000Y0153277D01*
X0179000Y0177711D01*
X0177711Y0179000D01*
X0170418Y0179000D01*
X0170391Y0179066D01*
X0169266Y0180191D01*
X0167796Y0180800D01*
X0161004Y0180800D01*
X0159534Y0180191D01*
X0158409Y0179066D01*
X0157800Y0177596D01*
X0157800Y0176004D01*
X0158409Y0174534D01*
X0159534Y0173409D01*
X0161004Y0172800D01*
X0167796Y0172800D01*
X0169266Y0173409D01*
X0170391Y0174534D01*
X0170418Y0174600D01*
X0174600Y0174600D01*
X0174600Y0153277D01*
X0174596Y0153273D01*
X0174257Y0152454D01*
X0171500Y0155211D01*
X0171500Y0157711D01*
X0170565Y0158647D01*
X0170391Y0159066D01*
X0169266Y0160191D01*
X0167796Y0160800D01*
X0161004Y0160800D01*
X0159534Y0160191D01*
X0158409Y0159066D01*
X0157800Y0157596D01*
X0157800Y0156004D01*
X0158409Y0154534D01*
X0159534Y0153409D01*
X0161004Y0152800D01*
X0167689Y0152800D01*
X0176146Y0144343D01*
X0175327Y0144004D01*
X0174596Y0143273D01*
X0174200Y0142317D01*
X0174200Y0141283D01*
X0174596Y0140327D01*
X0175327Y0139596D01*
X0176283Y0139200D01*
X0176289Y0139200D01*
X0177100Y0138389D01*
X0177100Y0090889D01*
X0178030Y0089959D01*
X0177646Y0089576D01*
X0176900Y0087775D01*
X0176900Y0085825D01*
X0177646Y0084024D01*
X0179024Y0082646D01*
X0180825Y0081900D01*
X0182775Y0081900D01*
X0184576Y0082646D01*
X0185954Y0084024D01*
X0186700Y0085825D01*
X0186700Y0087775D01*
X0185983Y0089506D01*
X0187100Y0088389D01*
X0187138Y0088350D01*
X0186900Y0087775D01*
X0186900Y0085825D01*
X0187646Y0084024D01*
X0189024Y0082646D01*
X0190825Y0081900D01*
X0192775Y0081900D01*
X0194576Y0082646D01*
X0194600Y0082670D01*
X0194600Y0081500D01*
X0112711Y0081500D01*
X0112311Y0081900D01*
X0112775Y0081900D01*
X0114576Y0082646D01*
X0115954Y0084024D01*
X0116700Y0085825D01*
X0116700Y0087775D01*
X0115954Y0089576D01*
X0114576Y0090954D01*
X0112775Y0091700D01*
X0110825Y0091700D01*
X0109024Y0090954D01*
X0109000Y0090930D01*
X0109000Y0096343D01*
X0109534Y0095809D01*
X0111004Y0095200D01*
X0112596Y0095200D01*
X0114066Y0095809D01*
X0115191Y0096934D01*
X0115800Y0098404D01*
X0115800Y0105196D01*
X0115191Y0106666D01*
X0114066Y0107791D01*
X0112596Y0108400D01*
X0111004Y0108400D01*
X0109534Y0107791D01*
X0109000Y0107257D01*
X0109000Y0110211D01*
X0107711Y0111500D01*
X0106500Y0112711D01*
X0106500Y0122711D01*
X0096900Y0132311D01*
X0096900Y0132317D01*
X0096504Y0133273D01*
X0095773Y0134004D01*
X0094817Y0134400D01*
X0093783Y0134400D01*
X0092827Y0134004D01*
X0092096Y0133273D01*
X0091700Y0132317D01*
X0091700Y0131283D01*
X0092096Y0130327D01*
X0092827Y0129596D01*
X0093783Y0129200D01*
X0093789Y0129200D01*
X0102100Y0120889D01*
X0102100Y0110889D01*
X0104600Y0108389D01*
X0104600Y0107257D01*
X0104066Y0107791D01*
X0102596Y0108400D01*
X0101004Y0108400D01*
X0099534Y0107791D01*
X0098409Y0106666D01*
X0097800Y0105196D01*
X0097800Y0100911D01*
X0097100Y0100211D01*
X0097100Y0097711D01*
X0095889Y0096500D01*
X0094600Y0095211D01*
X0094600Y0091317D01*
X0094578Y0091333D01*
X0093834Y0091712D01*
X0093041Y0091969D01*
X0092217Y0092100D01*
X0091900Y0092100D01*
X0091900Y0086900D01*
X0091700Y0086900D01*
X0091700Y0092100D01*
X0091383Y0092100D01*
X0090559Y0091969D01*
X0089766Y0091712D01*
X0089022Y0091333D01*
X0088347Y0090843D01*
X0087757Y0090253D01*
X0087267Y0089578D01*
X0086888Y0088834D01*
X0086630Y0088041D01*
X0086619Y0087970D01*
X0085954Y0089576D01*
X0084576Y0090954D01*
X0082775Y0091700D01*
X0080825Y0091700D01*
X0080250Y0091462D01*
X0076500Y0095211D01*
X0076500Y0105889D01*
X0080211Y0109600D01*
X0090211Y0109600D01*
X0091500Y0110889D01*
X0091500Y0148989D01*
X0091700Y0148789D01*
X0091700Y0148783D01*
X0092096Y0147827D01*
X0092827Y0147096D01*
X0093783Y0146700D01*
X0094817Y0146700D01*
X0095773Y0147096D01*
X0096504Y0147827D01*
X0096900Y0148783D01*
X0096900Y0149817D01*
X0096504Y0150773D01*
X0095773Y0151504D01*
X0094817Y0151900D01*
X0094811Y0151900D01*
X0094000Y0152711D01*
X0094000Y0190889D01*
X0094257Y0191146D01*
X0094596Y0190327D01*
X0095327Y0189596D01*
X0096041Y0189300D01*
X0095327Y0189004D01*
X0094596Y0188273D01*
X0094200Y0187317D01*
X0094200Y0186283D01*
X0094596Y0185327D01*
X0095327Y0184596D01*
X0096041Y0184300D01*
X0095327Y0184004D01*
X0094596Y0183273D01*
X0094200Y0182317D01*
X0094200Y0181283D01*
X0094596Y0180327D01*
X0095327Y0179596D01*
X0096283Y0179200D01*
X0097317Y0179200D01*
X0098273Y0179596D01*
X0099004Y0180327D01*
X0099400Y0181283D01*
X0099400Y0181289D01*
X0112711Y0194600D01*
X0114000Y0195889D01*
X0114000Y0200782D01*
X0114066Y0200809D01*
X0114600Y0201343D01*
X0114600Y0198389D01*
X0115889Y0197100D01*
X0119600Y0193389D01*
X0119600Y0189857D01*
X0119266Y0190191D01*
X0117796Y0190800D01*
X0111004Y0190800D01*
X0109534Y0190191D01*
X0108409Y0189066D01*
X0107800Y0187596D01*
X0107800Y0186477D01*
X0102827Y0181504D01*
X0102096Y0180773D01*
X0101700Y0179817D01*
X0101700Y0133783D01*
X0102096Y0132827D01*
X0102827Y0132096D01*
X0107800Y0127123D01*
X0107800Y0126004D01*
X0108409Y0124534D01*
X0109534Y0123409D01*
X0111004Y0122800D01*
X0117796Y0122800D01*
X0119266Y0123409D01*
X0119600Y0123743D01*
X0119600Y0123389D01*
X0122100Y0120889D01*
X0123389Y0119600D01*
X0123743Y0119600D01*
X0123209Y0119066D01*
X0122600Y0117596D01*
X0122600Y0116004D01*
X0123209Y0114534D01*
X0124334Y0113409D01*
X0125804Y0112800D01*
X0132596Y0112800D01*
X0134066Y0113409D01*
X0135191Y0114534D01*
X0135800Y0116004D01*
X0135800Y0117596D01*
X0135191Y0119066D01*
X0134657Y0119600D01*
X0139600Y0119600D01*
X0139600Y0107818D01*
X0139534Y0107791D01*
X0138409Y0106666D01*
X0137800Y0105196D01*
X0137800Y0098404D01*
X0138409Y0096934D01*
X0139534Y0095809D01*
X0141004Y0095200D01*
X0142596Y0095200D01*
X0144066Y0095809D01*
X0144373Y0096116D01*
X0147100Y0093389D01*
X0147100Y0090889D01*
X0148030Y0089959D01*
X0147646Y0089576D01*
X0146900Y0087775D01*
X0146900Y0085825D01*
X0147646Y0084024D01*
X0149024Y0082646D01*
X0150825Y0081900D01*
X0152775Y0081900D01*
X0154576Y0082646D01*
X0155954Y0084024D01*
X0156700Y0085825D01*
X0156700Y0087775D01*
X0155954Y0089576D01*
X0154576Y0090954D01*
X0152775Y0091700D01*
X0152511Y0091700D01*
X0151500Y0092711D01*
X0151500Y0095200D01*
X0152596Y0095200D01*
X0154066Y0095809D01*
X0154373Y0096116D01*
X0157100Y0093389D01*
X0157100Y0090889D01*
X0158030Y0089959D01*
X0157646Y0089576D01*
X0156900Y0087775D01*
X0156900Y0085825D01*
X0157646Y0084024D01*
X0159024Y0082646D01*
X0160825Y0081900D01*
X0162775Y0081900D01*
X0164576Y0082646D01*
X0165954Y0084024D01*
X0166700Y0085825D01*
X0166700Y0087775D01*
X0165954Y0089576D01*
X0164576Y0090954D01*
X0162775Y0091700D01*
X0162511Y0091700D01*
X0161500Y0092711D01*
X0161500Y0095200D01*
X0162596Y0095200D01*
X0164066Y0095809D01*
X0165191Y0096934D01*
X0165800Y0098404D01*
X0165800Y0099600D01*
X0167100Y0099600D01*
X0167100Y0090889D01*
X0168030Y0089959D01*
X0167646Y0089576D01*
X0166900Y0087775D01*
X0166900Y0085825D01*
X0167646Y0084024D01*
X0169024Y0082646D01*
X0170825Y0081900D01*
X0172775Y0081900D01*
X0174576Y0082646D01*
X0175954Y0084024D01*
X0176700Y0085825D01*
X0176700Y0087775D01*
X0175954Y0089576D01*
X0174576Y0090954D01*
X0172775Y0091700D01*
X0172511Y0091700D01*
X0171500Y0092711D01*
X0171500Y0102711D01*
X0170211Y0104000D01*
X0165800Y0104000D01*
X0165800Y0105196D01*
X0165191Y0106666D01*
X0164066Y0107791D01*
X0163817Y0107894D01*
X0162711Y0109000D01*
X0156500Y0115211D01*
X0156500Y0125323D01*
X0156504Y0125327D01*
X0156900Y0126283D01*
X0156900Y0127317D01*
X0156504Y0128273D01*
X0155773Y0129004D01*
X0154817Y0129400D01*
X0153783Y0129400D01*
X0152827Y0129004D01*
X0152096Y0128273D01*
X0151700Y0127317D01*
X0151700Y0126283D01*
X0152096Y0125327D01*
X0152100Y0125323D01*
X0152100Y0113389D01*
X0158616Y0106873D01*
X0158409Y0106666D01*
X0157800Y0105196D01*
X0157800Y0098911D01*
X0155800Y0100911D01*
X0155800Y0105196D01*
X0155191Y0106666D01*
X0154066Y0107791D01*
X0152596Y0108400D01*
X0151500Y0108400D01*
X0151500Y0160323D01*
X0151504Y0160327D01*
X0151700Y0160800D01*
X0151700Y0133783D01*
X0152096Y0132827D01*
X0152827Y0132096D01*
X0157800Y0127123D01*
X0157800Y0126004D01*
X0158409Y0124534D01*
X0159534Y0123409D01*
X0161004Y0122800D01*
X0167796Y0122800D01*
X0169266Y0123409D01*
X0170391Y0124534D01*
X0171000Y0126004D01*
X0171000Y0127596D01*
X0170391Y0129066D01*
X0169266Y0130191D01*
X0167796Y0130800D01*
X0161477Y0130800D01*
X0156900Y0135377D01*
X0156900Y0138223D01*
X0161477Y0142800D01*
X0167796Y0142800D01*
X0169266Y0143409D01*
X0170391Y0144534D01*
X0171000Y0146004D01*
X0171000Y0147596D01*
X0170391Y0149066D01*
X0169266Y0150191D01*
X0167796Y0150800D01*
X0161004Y0150800D01*
X0159534Y0150191D01*
X0158409Y0149066D01*
X0157800Y0147596D01*
X0157800Y0146477D01*
X0156900Y0145577D01*
X0156900Y0158223D01*
X0161477Y0162800D01*
X0167796Y0162800D01*
X0169266Y0163409D01*
X0170391Y0164534D01*
X0171000Y0166004D01*
X0171000Y0167596D01*
X0170391Y0169066D01*
X0169266Y0170191D01*
X0167796Y0170800D01*
X0161004Y0170800D01*
X0159534Y0170191D01*
X0158409Y0169066D01*
X0157800Y0167596D01*
X0157800Y0166477D01*
X0156900Y0165577D01*
X0156900Y0178223D01*
X0161477Y0182800D01*
X0167796Y0182800D01*
X0169266Y0183409D01*
X0170391Y0184534D01*
X0171000Y0186004D01*
X0171000Y0187596D01*
X0170391Y0189066D01*
X0169266Y0190191D01*
X0167796Y0190800D01*
X0161004Y0190800D01*
X0159534Y0190191D01*
X0158409Y0189066D01*
X0157800Y0187596D01*
X0157800Y0186477D01*
X0152827Y0181504D01*
X0152096Y0180773D01*
X0151700Y0179817D01*
X0151700Y0162800D01*
X0151504Y0163273D01*
X0150773Y0164004D01*
X0149817Y0164400D01*
X0148783Y0164400D01*
X0147827Y0164004D01*
X0147096Y0163273D01*
X0146700Y0162317D01*
X0146700Y0161283D01*
X0147096Y0160327D01*
X0147100Y0160323D01*
X0147100Y0105889D01*
X0147800Y0105189D01*
X0147800Y0098911D01*
X0145800Y0100911D01*
X0145800Y0105196D01*
X0145191Y0106666D01*
X0144066Y0107791D01*
X0144000Y0107818D01*
X0144000Y0122711D01*
X0142711Y0124000D01*
X0134657Y0124000D01*
X0135191Y0124534D01*
X0135800Y0126004D01*
X0135800Y0127596D01*
X0135773Y0127661D01*
X0140211Y0132100D01*
X0141500Y0133389D01*
X0141500Y0166489D01*
X0141700Y0166289D01*
X0141700Y0166283D01*
X0142096Y0165327D01*
X0142827Y0164596D01*
X0143783Y0164200D01*
X0144817Y0164200D01*
X0145773Y0164596D01*
X0146504Y0165327D01*
X0146900Y0166283D01*
X0146900Y0167317D01*
X0146504Y0168273D01*
X0145773Y0169004D01*
X0144817Y0169400D01*
X0144811Y0169400D01*
X0144000Y0170211D01*
X0144000Y0190889D01*
X0152711Y0199600D01*
X0153817Y0200706D01*
X0154066Y0200809D01*
X0155191Y0201934D01*
X0155800Y0203404D01*
X0155800Y0210196D01*
X0155191Y0211666D01*
X0154066Y0212791D01*
X0152596Y0213400D01*
X0151004Y0213400D01*
X0149534Y0212791D01*
X0148409Y0211666D01*
X0147800Y0210196D01*
X0147800Y0203404D01*
X0148409Y0201934D01*
X0148616Y0201727D01*
X0141500Y0194611D01*
X0141500Y0195211D01*
X0134984Y0201727D01*
X0135191Y0201934D01*
X0135800Y0203404D01*
X0135800Y0210196D01*
X0135191Y0211666D01*
X0134066Y0212791D01*
X0132596Y0213400D01*
X0131004Y0213400D01*
X0129534Y0212791D01*
X0129000Y0212257D01*
X0129000Y0213389D01*
X0130211Y0214600D01*
X0152711Y0214600D01*
X0154000Y0215889D01*
X0154000Y0220500D01*
X0154263Y0220500D01*
X0156597Y0221467D01*
X0158383Y0223253D01*
X0159350Y0225587D01*
X0159350Y0238013D01*
X0158383Y0240347D01*
X0156597Y0242133D01*
X0156500Y0242173D01*
X0156500Y0256289D01*
X0156618Y0256338D01*
X0158423Y0258144D01*
X0159401Y0260503D01*
X0159401Y0273097D01*
X0158423Y0275456D01*
X0156618Y0277262D01*
X0154258Y0278239D01*
X0151704Y0278239D01*
X0149345Y0277262D01*
X0147539Y0275456D01*
X0146561Y0273097D01*
X0146561Y0260503D01*
X0147539Y0258144D01*
X0149345Y0256338D01*
X0151704Y0255361D01*
X0152100Y0255361D01*
X0152100Y0243100D01*
X0151737Y0243100D01*
X0149403Y0242133D01*
X0147617Y0240347D01*
X0146650Y0238013D01*
X0146650Y0225587D01*
X0147617Y0223253D01*
X0149403Y0221467D01*
X0149600Y0221385D01*
X0149600Y0219000D01*
X0128389Y0219000D01*
X0127100Y0217711D01*
X0124600Y0215211D01*
X0124600Y0212257D01*
X0124066Y0212791D01*
X0122596Y0213400D01*
X0121004Y0213400D01*
X0119534Y0212791D01*
X0119000Y0212257D01*
X0119000Y0220889D01*
X0119175Y0221064D01*
X0120537Y0220500D01*
X0123063Y0220500D01*
X0125397Y0221467D01*
X0127183Y0223253D01*
X0128150Y0225587D01*
X0128150Y0238013D01*
X0127183Y0240347D01*
X0125397Y0242133D01*
X0123063Y0243100D01*
X0121500Y0243100D01*
X0121500Y0255361D01*
X0123077Y0255361D01*
X0125436Y0256338D01*
X0127242Y0258144D01*
X0128220Y0260503D01*
X0128220Y0273097D01*
X0127242Y0275456D01*
X0125436Y0277262D01*
X0123077Y0278239D01*
X0120523Y0278239D01*
X0118164Y0277262D01*
X0116358Y0275456D01*
X0115380Y0273097D01*
X0115380Y0260503D01*
X0116358Y0258144D01*
X0117100Y0257402D01*
X0117100Y0241030D01*
X0116417Y0240347D01*
X0115450Y0238013D01*
X0115450Y0225587D01*
X0116043Y0224155D01*
X0114600Y0222711D01*
X0114600Y0212257D01*
X0114066Y0212791D01*
X0112596Y0213400D01*
X0111004Y0213400D01*
X0109534Y0212791D01*
X0109000Y0212257D01*
X0109000Y0215211D01*
X0106500Y0217711D01*
X0105211Y0219000D01*
X0090889Y0219000D01*
X0089600Y0217711D01*
X0089600Y0212818D01*
X0089534Y0212791D01*
X0088409Y0211666D01*
X0087800Y0210196D01*
X0087800Y0203404D01*
X0088409Y0201934D01*
X0089534Y0200809D01*
X0091004Y0200200D01*
X0092596Y0200200D01*
X0094066Y0200809D01*
X0095191Y0201934D01*
X0095800Y0203404D01*
X0095800Y0210196D01*
X0095191Y0211666D01*
X0094066Y0212791D01*
X0094000Y0212818D01*
X0094000Y0214600D01*
X0103389Y0214600D01*
X0104600Y0213389D01*
X0104600Y0212257D01*
X0104066Y0212791D01*
X0102596Y0213400D01*
X0101004Y0213400D01*
X0099534Y0212791D01*
X0098409Y0211666D01*
X0097800Y0210196D01*
X0097800Y0203404D01*
X0098409Y0201934D01*
X0098616Y0201727D01*
X0091500Y0194611D01*
X0091500Y0195211D01*
X0084984Y0201727D01*
X0085191Y0201934D01*
X0085800Y0203404D01*
X0085800Y0210196D01*
X0085191Y0211666D01*
X0084066Y0212791D01*
X0082596Y0213400D01*
X0081004Y0213400D01*
X0079534Y0212791D01*
X0079000Y0212257D01*
X0079000Y0213389D01*
X0082711Y0217100D01*
X0084000Y0218389D01*
X0084000Y0273389D01*
X0084547Y0273935D01*
X0084199Y0273097D01*
X0084199Y0260503D01*
X0085177Y0258144D01*
X0086982Y0256338D01*
X0089342Y0255361D01*
X0089600Y0255361D01*
X0089600Y0243100D01*
X0089337Y0243100D01*
X0087003Y0242133D01*
X0085217Y0240347D01*
X0084250Y0238013D01*
X0084250Y0225587D01*
X0085217Y0223253D01*
X0087003Y0221467D01*
X0089337Y0220500D01*
X0091863Y0220500D01*
X0094197Y0221467D01*
X0095983Y0223253D01*
X0096950Y0225587D01*
X0096950Y0238013D01*
X0095983Y0240347D01*
X0094197Y0242133D01*
X0094000Y0242215D01*
X0094000Y0256232D01*
X0094255Y0256338D01*
X0096061Y0258144D01*
X0097039Y0260503D01*
X0097039Y0273097D01*
X0096061Y0275456D01*
X0094255Y0277262D01*
X0091896Y0278239D01*
X0089342Y0278239D01*
X0088503Y0277892D01*
X0090211Y0279600D01*
X0212100Y0279600D01*
X0212100Y0277425D01*
X0211707Y0277262D01*
X0209901Y0275456D01*
X0208924Y0273097D01*
X0208924Y0260503D01*
X0209901Y0258144D01*
X0211707Y0256338D01*
X0212100Y0256175D01*
X0212100Y0242256D01*
X0211803Y0242133D01*
X0210017Y0240347D01*
X0209050Y0238013D01*
X0209050Y0225587D01*
X0210017Y0223253D01*
X0211803Y0221467D01*
X0214137Y0220500D01*
X0216663Y0220500D01*
X0218997Y0221467D01*
X0220783Y0223253D01*
X0221750Y0225587D01*
X0221750Y0238013D01*
X0220783Y0240347D01*
X0218997Y0242133D01*
X0216663Y0243100D01*
X0216500Y0243100D01*
X0216500Y0255361D01*
X0216620Y0255361D01*
X0218980Y0256338D01*
X0220786Y0258144D01*
X0221763Y0260503D01*
X0221763Y0273097D01*
X0220786Y0275456D01*
X0218980Y0277262D01*
X0216620Y0278239D01*
X0216500Y0278239D01*
X0216500Y0282711D01*
X0215211Y0284000D01*
X0088389Y0284000D01*
X0087100Y0282711D01*
X0080158Y0275769D01*
X0078665Y0277262D01*
X0081800Y0274300D02*
X0089300Y0281800D01*
X0214300Y0281800D01*
X0214300Y0266800D01*
X0215343Y0266800D01*
X0214300Y0266800D02*
X0214300Y0231800D01*
X0215400Y0231800D01*
X0221444Y0238751D02*
X0228701Y0238751D01*
X0228701Y0237153D02*
X0221750Y0237153D01*
X0221750Y0235554D02*
X0228701Y0235554D01*
X0228701Y0233956D02*
X0221750Y0233956D01*
X0221750Y0232357D02*
X0228701Y0232357D01*
X0228701Y0230759D02*
X0221750Y0230759D01*
X0221750Y0229160D02*
X0228701Y0229160D01*
X0228701Y0227562D02*
X0221750Y0227562D01*
X0221750Y0225963D02*
X0228701Y0225963D01*
X0228701Y0224365D02*
X0221244Y0224365D01*
X0220297Y0222766D02*
X0228701Y0222766D01*
X0228701Y0221168D02*
X0218275Y0221168D01*
X0212525Y0221168D02*
X0202675Y0221168D01*
X0203397Y0221467D02*
X0205183Y0223253D01*
X0206150Y0225587D01*
X0206150Y0238013D01*
X0205183Y0240347D01*
X0204000Y0241530D01*
X0204000Y0256949D01*
X0205195Y0258144D01*
X0206172Y0260503D01*
X0206172Y0273097D01*
X0205195Y0275456D01*
X0203389Y0277262D01*
X0201030Y0278239D01*
X0198476Y0278239D01*
X0196116Y0277262D01*
X0194310Y0275456D01*
X0193333Y0273097D01*
X0193333Y0260503D01*
X0194310Y0258144D01*
X0196116Y0256338D01*
X0198476Y0255361D01*
X0199600Y0255361D01*
X0199600Y0243100D01*
X0198537Y0243100D01*
X0196203Y0242133D01*
X0194417Y0240347D01*
X0193450Y0238013D01*
X0193450Y0225587D01*
X0194417Y0223253D01*
X0196203Y0221467D01*
X0198537Y0220500D01*
X0201063Y0220500D01*
X0203397Y0221467D01*
X0204697Y0222766D02*
X0210503Y0222766D01*
X0209556Y0224365D02*
X0205644Y0224365D01*
X0206150Y0225963D02*
X0209050Y0225963D01*
X0209050Y0227562D02*
X0206150Y0227562D01*
X0206150Y0229160D02*
X0209050Y0229160D01*
X0209050Y0230759D02*
X0206150Y0230759D01*
X0206150Y0232357D02*
X0209050Y0232357D01*
X0209050Y0233956D02*
X0206150Y0233956D01*
X0206150Y0235554D02*
X0209050Y0235554D01*
X0209050Y0237153D02*
X0206150Y0237153D01*
X0205844Y0238751D02*
X0209356Y0238751D01*
X0210020Y0240350D02*
X0205180Y0240350D01*
X0204000Y0241948D02*
X0211618Y0241948D01*
X0212100Y0243547D02*
X0204000Y0243547D01*
X0204000Y0245145D02*
X0212100Y0245145D01*
X0212100Y0246744D02*
X0204000Y0246744D01*
X0204000Y0248342D02*
X0212100Y0248342D01*
X0212100Y0249941D02*
X0204000Y0249941D01*
X0204000Y0251539D02*
X0212100Y0251539D01*
X0212100Y0253138D02*
X0204000Y0253138D01*
X0204000Y0254737D02*
X0212100Y0254737D01*
X0211714Y0256335D02*
X0204000Y0256335D01*
X0204985Y0257934D02*
X0210111Y0257934D01*
X0209326Y0259532D02*
X0205770Y0259532D01*
X0206172Y0261131D02*
X0208924Y0261131D01*
X0208924Y0262729D02*
X0206172Y0262729D01*
X0206172Y0264328D02*
X0208924Y0264328D01*
X0208924Y0265926D02*
X0206172Y0265926D01*
X0206172Y0267525D02*
X0208924Y0267525D01*
X0208924Y0269123D02*
X0206172Y0269123D01*
X0206172Y0270722D02*
X0208924Y0270722D01*
X0208924Y0272320D02*
X0206172Y0272320D01*
X0205832Y0273919D02*
X0209264Y0273919D01*
X0209962Y0275517D02*
X0205134Y0275517D01*
X0203536Y0277116D02*
X0211560Y0277116D01*
X0212100Y0278714D02*
X0089325Y0278714D01*
X0086300Y0281911D02*
X0013600Y0281911D01*
X0013600Y0280313D02*
X0084701Y0280313D01*
X0087898Y0283510D02*
X0013600Y0283510D01*
X0013600Y0285108D02*
X0228701Y0285108D01*
X0228701Y0285276D02*
X0228701Y0018600D01*
X0201500Y0018600D01*
X0201500Y0020889D01*
X0202511Y0021900D01*
X0202775Y0021900D01*
X0204576Y0022646D01*
X0205954Y0024024D01*
X0206700Y0025825D01*
X0206700Y0027775D01*
X0205954Y0029576D01*
X0204576Y0030954D01*
X0202775Y0031700D01*
X0200825Y0031700D01*
X0199024Y0030954D01*
X0197646Y0029576D01*
X0196900Y0027775D01*
X0196900Y0025825D01*
X0197646Y0024024D01*
X0198030Y0023641D01*
X0197100Y0022711D01*
X0197100Y0021500D01*
X0077711Y0021500D01*
X0034139Y0065072D01*
X0034275Y0065128D01*
X0035503Y0066357D01*
X0036168Y0067963D01*
X0036168Y0075637D01*
X0035503Y0077243D01*
X0034275Y0078472D01*
X0032669Y0079137D01*
X0030931Y0079137D01*
X0029325Y0078472D01*
X0028097Y0077243D01*
X0027431Y0075637D01*
X0027431Y0067963D01*
X0028097Y0066357D01*
X0029325Y0065128D01*
X0029600Y0065014D01*
X0029600Y0063389D01*
X0074389Y0018600D01*
X0013600Y0018600D01*
X0013600Y0285276D01*
X0228701Y0285276D01*
X0228701Y0283510D02*
X0215702Y0283510D01*
X0216500Y0281911D02*
X0228701Y0281911D01*
X0228701Y0280313D02*
X0216500Y0280313D01*
X0216500Y0278714D02*
X0228701Y0278714D01*
X0228701Y0277116D02*
X0219126Y0277116D01*
X0220725Y0275517D02*
X0228701Y0275517D01*
X0228701Y0273919D02*
X0221423Y0273919D01*
X0221763Y0272320D02*
X0228701Y0272320D01*
X0228701Y0270722D02*
X0221763Y0270722D01*
X0221763Y0269123D02*
X0228701Y0269123D01*
X0228701Y0267525D02*
X0221763Y0267525D01*
X0221763Y0265926D02*
X0228701Y0265926D01*
X0228701Y0264328D02*
X0221763Y0264328D01*
X0221763Y0262729D02*
X0228701Y0262729D01*
X0228701Y0261131D02*
X0221763Y0261131D01*
X0221361Y0259532D02*
X0228701Y0259532D01*
X0228701Y0257934D02*
X0220575Y0257934D01*
X0218973Y0256335D02*
X0228701Y0256335D01*
X0228701Y0254737D02*
X0216500Y0254737D01*
X0216500Y0253138D02*
X0228701Y0253138D01*
X0228701Y0251539D02*
X0216500Y0251539D01*
X0216500Y0249941D02*
X0228701Y0249941D01*
X0228701Y0248342D02*
X0216500Y0248342D01*
X0216500Y0246744D02*
X0228701Y0246744D01*
X0228701Y0245145D02*
X0216500Y0245145D01*
X0216500Y0243547D02*
X0228701Y0243547D01*
X0228701Y0241948D02*
X0219182Y0241948D01*
X0220780Y0240350D02*
X0228701Y0240350D01*
X0228701Y0219569D02*
X0186500Y0219569D01*
X0186500Y0217971D02*
X0228701Y0217971D01*
X0228701Y0216372D02*
X0186500Y0216372D01*
X0186500Y0214774D02*
X0228701Y0214774D01*
X0228701Y0213175D02*
X0186500Y0213175D01*
X0186500Y0211577D02*
X0228701Y0211577D01*
X0228701Y0209978D02*
X0186500Y0209978D01*
X0186500Y0208380D02*
X0228701Y0208380D01*
X0228701Y0206781D02*
X0186500Y0206781D01*
X0186500Y0205183D02*
X0228701Y0205183D01*
X0228701Y0203584D02*
X0186500Y0203584D01*
X0186500Y0201986D02*
X0228701Y0201986D01*
X0228701Y0200387D02*
X0186500Y0200387D01*
X0186500Y0198789D02*
X0228701Y0198789D01*
X0228701Y0197190D02*
X0186500Y0197190D01*
X0186500Y0195592D02*
X0228701Y0195592D01*
X0228701Y0193993D02*
X0186500Y0193993D01*
X0186500Y0192395D02*
X0228701Y0192395D01*
X0228701Y0190796D02*
X0186500Y0190796D01*
X0186500Y0189198D02*
X0210000Y0189198D01*
X0209970Y0189188D02*
X0209301Y0188847D01*
X0208694Y0188406D01*
X0208163Y0187875D01*
X0207722Y0187268D01*
X0207381Y0186599D01*
X0207149Y0185885D01*
X0207031Y0185144D01*
X0207031Y0181984D01*
X0211616Y0181984D01*
X0211616Y0181616D01*
X0211984Y0181616D01*
X0211984Y0174063D01*
X0212175Y0174063D01*
X0212917Y0174180D01*
X0213630Y0174412D01*
X0214299Y0174753D01*
X0214906Y0175194D01*
X0215437Y0175725D01*
X0215878Y0176332D01*
X0216219Y0177001D01*
X0216451Y0177715D01*
X0216568Y0178456D01*
X0216568Y0181616D01*
X0211984Y0181616D01*
X0211984Y0181984D01*
X0216568Y0181984D01*
X0216568Y0185144D01*
X0216451Y0185885D01*
X0216219Y0186599D01*
X0215878Y0187268D01*
X0215437Y0187875D01*
X0214906Y0188406D01*
X0214299Y0188847D01*
X0213630Y0189188D01*
X0212917Y0189420D01*
X0212175Y0189537D01*
X0211984Y0189537D01*
X0211984Y0181984D01*
X0211616Y0181984D01*
X0211616Y0189537D01*
X0211425Y0189537D01*
X0210683Y0189420D01*
X0209970Y0189188D01*
X0211616Y0189198D02*
X0211984Y0189198D01*
X0211984Y0187599D02*
X0211616Y0187599D01*
X0211616Y0186001D02*
X0211984Y0186001D01*
X0211984Y0184402D02*
X0211616Y0184402D01*
X0211616Y0182803D02*
X0211984Y0182803D01*
X0211616Y0181616D02*
X0207031Y0181616D01*
X0207031Y0178456D01*
X0207149Y0177715D01*
X0207381Y0177001D01*
X0207722Y0176332D01*
X0208163Y0175725D01*
X0208694Y0175194D01*
X0209301Y0174753D01*
X0209970Y0174412D01*
X0210683Y0174180D01*
X0211425Y0174063D01*
X0211616Y0174063D01*
X0211616Y0181616D01*
X0211616Y0181205D02*
X0211984Y0181205D01*
X0211984Y0179606D02*
X0211616Y0179606D01*
X0211616Y0178008D02*
X0211984Y0178008D01*
X0211984Y0176409D02*
X0211616Y0176409D01*
X0211616Y0174811D02*
X0211984Y0174811D01*
X0214379Y0174811D02*
X0228701Y0174811D01*
X0228701Y0176409D02*
X0215918Y0176409D01*
X0216497Y0178008D02*
X0228701Y0178008D01*
X0228701Y0179606D02*
X0216568Y0179606D01*
X0216568Y0181205D02*
X0228701Y0181205D01*
X0228701Y0182803D02*
X0216568Y0182803D01*
X0216568Y0184402D02*
X0228701Y0184402D01*
X0228701Y0186001D02*
X0216414Y0186001D01*
X0215638Y0187599D02*
X0228701Y0187599D01*
X0228701Y0189198D02*
X0213600Y0189198D01*
X0207962Y0187599D02*
X0205147Y0187599D01*
X0205503Y0187243D02*
X0204275Y0188472D01*
X0202669Y0189137D01*
X0200931Y0189137D01*
X0199325Y0188472D01*
X0198097Y0187243D01*
X0197431Y0185637D01*
X0197431Y0177963D01*
X0198097Y0176357D01*
X0199200Y0175253D01*
X0199200Y0153347D01*
X0198097Y0152243D01*
X0197431Y0150637D01*
X0197431Y0142963D01*
X0198097Y0141357D01*
X0199325Y0140128D01*
X0200931Y0139463D01*
X0202669Y0139463D01*
X0204275Y0140128D01*
X0205503Y0141357D01*
X0206168Y0142963D01*
X0206168Y0150637D01*
X0205503Y0152243D01*
X0204400Y0153347D01*
X0204400Y0175253D01*
X0205503Y0176357D01*
X0206168Y0177963D01*
X0206168Y0185637D01*
X0205503Y0187243D01*
X0206018Y0186001D02*
X0207186Y0186001D01*
X0207031Y0184402D02*
X0206168Y0184402D01*
X0206168Y0182803D02*
X0207031Y0182803D01*
X0207031Y0181205D02*
X0206168Y0181205D01*
X0206168Y0179606D02*
X0207031Y0179606D01*
X0207102Y0178008D02*
X0206168Y0178008D01*
X0205525Y0176409D02*
X0207682Y0176409D01*
X0209221Y0174811D02*
X0204400Y0174811D01*
X0204400Y0173212D02*
X0228701Y0173212D01*
X0228701Y0171614D02*
X0204400Y0171614D01*
X0204400Y0170015D02*
X0228701Y0170015D01*
X0228701Y0168417D02*
X0204400Y0168417D01*
X0204400Y0166818D02*
X0228701Y0166818D01*
X0228701Y0165220D02*
X0204400Y0165220D01*
X0204400Y0163621D02*
X0228701Y0163621D01*
X0228701Y0162023D02*
X0204400Y0162023D01*
X0204400Y0160424D02*
X0228701Y0160424D01*
X0228701Y0158826D02*
X0204400Y0158826D01*
X0204400Y0157227D02*
X0228701Y0157227D01*
X0228701Y0155629D02*
X0204400Y0155629D01*
X0204400Y0154030D02*
X0209661Y0154030D01*
X0209970Y0154188D02*
X0209301Y0153847D01*
X0208694Y0153406D01*
X0208163Y0152875D01*
X0207722Y0152268D01*
X0207381Y0151599D01*
X0207149Y0150885D01*
X0207031Y0150144D01*
X0207031Y0146984D01*
X0211616Y0146984D01*
X0211616Y0146616D01*
X0211984Y0146616D01*
X0211984Y0139063D01*
X0212175Y0139063D01*
X0212917Y0139180D01*
X0213630Y0139412D01*
X0214299Y0139753D01*
X0214906Y0140194D01*
X0215437Y0140725D01*
X0215878Y0141332D01*
X0216219Y0142001D01*
X0216451Y0142715D01*
X0216568Y0143456D01*
X0216568Y0146616D01*
X0211984Y0146616D01*
X0211984Y0146984D01*
X0216568Y0146984D01*
X0216568Y0150144D01*
X0216451Y0150885D01*
X0216219Y0151599D01*
X0215878Y0152268D01*
X0215437Y0152875D01*
X0214906Y0153406D01*
X0214299Y0153847D01*
X0213630Y0154188D01*
X0212917Y0154420D01*
X0212175Y0154537D01*
X0211984Y0154537D01*
X0211984Y0146984D01*
X0211616Y0146984D01*
X0211616Y0154537D01*
X0211425Y0154537D01*
X0210683Y0154420D01*
X0209970Y0154188D01*
X0211616Y0154030D02*
X0211984Y0154030D01*
X0211984Y0152432D02*
X0211616Y0152432D01*
X0211616Y0150833D02*
X0211984Y0150833D01*
X0211984Y0149235D02*
X0211616Y0149235D01*
X0211616Y0147636D02*
X0211984Y0147636D01*
X0211616Y0146616D02*
X0207031Y0146616D01*
X0207031Y0143456D01*
X0207149Y0142715D01*
X0207381Y0142001D01*
X0207722Y0141332D01*
X0208163Y0140725D01*
X0208694Y0140194D01*
X0209301Y0139753D01*
X0209970Y0139412D01*
X0210683Y0139180D01*
X0211425Y0139063D01*
X0211616Y0139063D01*
X0211616Y0146616D01*
X0211616Y0146038D02*
X0211984Y0146038D01*
X0211984Y0144439D02*
X0211616Y0144439D01*
X0211616Y0142841D02*
X0211984Y0142841D01*
X0211984Y0141242D02*
X0211616Y0141242D01*
X0211616Y0139644D02*
X0211984Y0139644D01*
X0214084Y0139644D02*
X0228701Y0139644D01*
X0228701Y0141242D02*
X0215813Y0141242D01*
X0216471Y0142841D02*
X0228701Y0142841D01*
X0228701Y0144439D02*
X0216568Y0144439D01*
X0216568Y0146038D02*
X0228701Y0146038D01*
X0228701Y0147636D02*
X0216568Y0147636D01*
X0216568Y0149235D02*
X0228701Y0149235D01*
X0228701Y0150833D02*
X0216459Y0150833D01*
X0215759Y0152432D02*
X0228701Y0152432D01*
X0228701Y0154030D02*
X0213939Y0154030D01*
X0207841Y0152432D02*
X0205315Y0152432D01*
X0206087Y0150833D02*
X0207141Y0150833D01*
X0207031Y0149235D02*
X0206168Y0149235D01*
X0206168Y0147636D02*
X0207031Y0147636D01*
X0207031Y0146038D02*
X0206168Y0146038D01*
X0206168Y0144439D02*
X0207031Y0144439D01*
X0207129Y0142841D02*
X0206118Y0142841D01*
X0205389Y0141242D02*
X0207787Y0141242D01*
X0209515Y0139644D02*
X0203105Y0139644D01*
X0200495Y0139644D02*
X0193105Y0139644D01*
X0192669Y0139463D02*
X0194275Y0140128D01*
X0195503Y0141357D01*
X0196168Y0142963D01*
X0196168Y0150637D01*
X0195503Y0152243D01*
X0194275Y0153472D01*
X0194000Y0153586D01*
X0194000Y0175014D01*
X0194275Y0175128D01*
X0195503Y0176357D01*
X0196168Y0177963D01*
X0196168Y0185637D01*
X0195503Y0187243D01*
X0194275Y0188472D01*
X0192669Y0189137D01*
X0190931Y0189137D01*
X0189325Y0188472D01*
X0188097Y0187243D01*
X0187431Y0185637D01*
X0187431Y0177963D01*
X0188097Y0176357D01*
X0189325Y0175128D01*
X0189600Y0175014D01*
X0189600Y0153586D01*
X0189325Y0153472D01*
X0188097Y0152243D01*
X0187431Y0150637D01*
X0187431Y0142963D01*
X0188097Y0141357D01*
X0189325Y0140128D01*
X0190931Y0139463D01*
X0192669Y0139463D01*
X0192002Y0138045D02*
X0191166Y0138045D01*
X0190495Y0139644D02*
X0189568Y0139644D01*
X0188211Y0141242D02*
X0187969Y0141242D01*
X0187482Y0142841D02*
X0186500Y0142841D01*
X0186500Y0144439D02*
X0187431Y0144439D01*
X0187431Y0146038D02*
X0186500Y0146038D01*
X0186500Y0147636D02*
X0187431Y0147636D01*
X0187431Y0149235D02*
X0186500Y0149235D01*
X0186500Y0150833D02*
X0187513Y0150833D01*
X0188285Y0152432D02*
X0186500Y0152432D01*
X0186500Y0154030D02*
X0189600Y0154030D01*
X0189600Y0155629D02*
X0186500Y0155629D01*
X0186500Y0157227D02*
X0189600Y0157227D01*
X0189600Y0158826D02*
X0186500Y0158826D01*
X0186500Y0160424D02*
X0189600Y0160424D01*
X0189600Y0162023D02*
X0186500Y0162023D01*
X0186500Y0163621D02*
X0189600Y0163621D01*
X0189600Y0165220D02*
X0186500Y0165220D01*
X0186500Y0166818D02*
X0189600Y0166818D01*
X0189600Y0168417D02*
X0186500Y0168417D01*
X0186500Y0170015D02*
X0189600Y0170015D01*
X0189600Y0171614D02*
X0186500Y0171614D01*
X0186500Y0173212D02*
X0189600Y0173212D01*
X0189600Y0174811D02*
X0186500Y0174811D01*
X0186500Y0176409D02*
X0188075Y0176409D01*
X0187431Y0178008D02*
X0186500Y0178008D01*
X0186500Y0179606D02*
X0187431Y0179606D01*
X0187431Y0181205D02*
X0186500Y0181205D01*
X0186500Y0182803D02*
X0187431Y0182803D01*
X0187431Y0184402D02*
X0186500Y0184402D01*
X0186500Y0186001D02*
X0187582Y0186001D01*
X0188453Y0187599D02*
X0186500Y0187599D01*
X0182100Y0187599D02*
X0170999Y0187599D01*
X0170998Y0186001D02*
X0182100Y0186001D01*
X0182100Y0184402D02*
X0170259Y0184402D01*
X0167804Y0182803D02*
X0182100Y0182803D01*
X0182100Y0181205D02*
X0159882Y0181205D01*
X0158950Y0179606D02*
X0158283Y0179606D01*
X0157971Y0178008D02*
X0156900Y0178008D01*
X0156900Y0176409D02*
X0157800Y0176409D01*
X0158294Y0174811D02*
X0156900Y0174811D01*
X0156900Y0173212D02*
X0160009Y0173212D01*
X0156900Y0171614D02*
X0174600Y0171614D01*
X0174600Y0173212D02*
X0168791Y0173212D01*
X0169441Y0170015D02*
X0174600Y0170015D01*
X0174600Y0168417D02*
X0170660Y0168417D01*
X0171000Y0166818D02*
X0174600Y0166818D01*
X0174600Y0165220D02*
X0170675Y0165220D01*
X0169478Y0163621D02*
X0174600Y0163621D01*
X0174600Y0162023D02*
X0160700Y0162023D01*
X0160097Y0160424D02*
X0159101Y0160424D01*
X0158310Y0158826D02*
X0157503Y0158826D01*
X0157800Y0157227D02*
X0156900Y0157227D01*
X0156900Y0155629D02*
X0157956Y0155629D01*
X0158913Y0154030D02*
X0156900Y0154030D01*
X0156900Y0152432D02*
X0168057Y0152432D01*
X0169300Y0154300D02*
X0169300Y0156800D01*
X0161800Y0156800D01*
X0156900Y0150833D02*
X0169655Y0150833D01*
X0170222Y0149235D02*
X0171254Y0149235D01*
X0170983Y0147636D02*
X0172852Y0147636D01*
X0174451Y0146038D02*
X0171000Y0146038D01*
X0170296Y0144439D02*
X0176049Y0144439D01*
X0174417Y0142841D02*
X0167894Y0142841D01*
X0167796Y0140800D02*
X0169266Y0140191D01*
X0170391Y0139066D01*
X0171000Y0137596D01*
X0171000Y0136004D01*
X0170391Y0134534D01*
X0169266Y0133409D01*
X0167796Y0132800D01*
X0161004Y0132800D01*
X0159534Y0133409D01*
X0158409Y0134534D01*
X0157800Y0136004D01*
X0157800Y0137596D01*
X0158409Y0139066D01*
X0159534Y0140191D01*
X0161004Y0140800D01*
X0167796Y0140800D01*
X0169813Y0139644D02*
X0175279Y0139644D01*
X0174217Y0141242D02*
X0159919Y0141242D01*
X0158987Y0139644D02*
X0158321Y0139644D01*
X0157986Y0138045D02*
X0156900Y0138045D01*
X0156900Y0136447D02*
X0157800Y0136447D01*
X0157429Y0134848D02*
X0158279Y0134848D01*
X0159027Y0133250D02*
X0159919Y0133250D01*
X0160626Y0131651D02*
X0177100Y0131651D01*
X0177100Y0130053D02*
X0169404Y0130053D01*
X0170644Y0128454D02*
X0177100Y0128454D01*
X0177100Y0126856D02*
X0171000Y0126856D01*
X0170690Y0125257D02*
X0177100Y0125257D01*
X0177100Y0123659D02*
X0169515Y0123659D01*
X0168613Y0120462D02*
X0177100Y0120462D01*
X0177100Y0122060D02*
X0156500Y0122060D01*
X0156500Y0120462D02*
X0160187Y0120462D01*
X0159534Y0120191D02*
X0158409Y0119066D01*
X0157800Y0117596D01*
X0157800Y0116004D01*
X0158409Y0114534D01*
X0159534Y0113409D01*
X0161004Y0112800D01*
X0167796Y0112800D01*
X0169266Y0113409D01*
X0170391Y0114534D01*
X0171000Y0116004D01*
X0171000Y0117596D01*
X0170391Y0119066D01*
X0169266Y0120191D01*
X0167796Y0120800D01*
X0161004Y0120800D01*
X0159534Y0120191D01*
X0158325Y0118863D02*
X0156500Y0118863D01*
X0156500Y0117265D02*
X0157800Y0117265D01*
X0157940Y0115666D02*
X0156500Y0115666D01*
X0157644Y0114068D02*
X0158876Y0114068D01*
X0159242Y0112469D02*
X0177100Y0112469D01*
X0177100Y0110870D02*
X0160841Y0110870D01*
X0162439Y0109272D02*
X0177100Y0109272D01*
X0177100Y0107673D02*
X0164183Y0107673D01*
X0165436Y0106075D02*
X0177100Y0106075D01*
X0177100Y0104476D02*
X0165800Y0104476D01*
X0169300Y0101800D02*
X0169300Y0091800D01*
X0171800Y0089300D01*
X0171800Y0086800D01*
X0172803Y0091688D02*
X0177100Y0091688D01*
X0177100Y0093287D02*
X0171500Y0093287D01*
X0171500Y0094885D02*
X0177100Y0094885D01*
X0177100Y0096484D02*
X0171500Y0096484D01*
X0171500Y0098082D02*
X0177100Y0098082D01*
X0177100Y0099681D02*
X0171500Y0099681D01*
X0171500Y0101279D02*
X0177100Y0101279D01*
X0177100Y0102878D02*
X0171333Y0102878D01*
X0169300Y0101800D02*
X0161800Y0101800D01*
X0161800Y0106800D01*
X0154300Y0114300D01*
X0154300Y0126800D01*
X0156900Y0126856D02*
X0157800Y0126856D01*
X0158110Y0125257D02*
X0156500Y0125257D01*
X0156500Y0123659D02*
X0159285Y0123659D01*
X0156469Y0128454D02*
X0156323Y0128454D01*
X0154870Y0130053D02*
X0151500Y0130053D01*
X0151500Y0131651D02*
X0153272Y0131651D01*
X0152827Y0132096D02*
X0152827Y0132096D01*
X0151921Y0133250D02*
X0151500Y0133250D01*
X0151500Y0134848D02*
X0151700Y0134848D01*
X0151700Y0136447D02*
X0151500Y0136447D01*
X0151500Y0138045D02*
X0151700Y0138045D01*
X0151700Y0139644D02*
X0151500Y0139644D01*
X0151500Y0141242D02*
X0151700Y0141242D01*
X0151700Y0142841D02*
X0151500Y0142841D01*
X0151500Y0144439D02*
X0151700Y0144439D01*
X0151700Y0146038D02*
X0151500Y0146038D01*
X0151500Y0147636D02*
X0151700Y0147636D01*
X0151700Y0149235D02*
X0151500Y0149235D01*
X0151500Y0150833D02*
X0151700Y0150833D01*
X0151700Y0152432D02*
X0151500Y0152432D01*
X0151500Y0154030D02*
X0151700Y0154030D01*
X0151700Y0155629D02*
X0151500Y0155629D01*
X0151500Y0157227D02*
X0151700Y0157227D01*
X0151700Y0158826D02*
X0151500Y0158826D01*
X0151544Y0160424D02*
X0151700Y0160424D01*
X0149300Y0161800D02*
X0149300Y0106800D01*
X0151800Y0104300D01*
X0151800Y0101800D01*
X0159300Y0094300D01*
X0159300Y0091800D01*
X0161800Y0089300D01*
X0161800Y0086800D01*
X0165440Y0090090D02*
X0167899Y0090090D01*
X0167197Y0088491D02*
X0166403Y0088491D01*
X0166700Y0086893D02*
X0166900Y0086893D01*
X0167120Y0085294D02*
X0166480Y0085294D01*
X0165625Y0083696D02*
X0167975Y0083696D01*
X0170349Y0082097D02*
X0163251Y0082097D01*
X0160349Y0082097D02*
X0153251Y0082097D01*
X0155625Y0083696D02*
X0157975Y0083696D01*
X0157120Y0085294D02*
X0156480Y0085294D01*
X0156700Y0086893D02*
X0156900Y0086893D01*
X0157197Y0088491D02*
X0156403Y0088491D01*
X0155440Y0090090D02*
X0157899Y0090090D01*
X0157100Y0091688D02*
X0152803Y0091688D01*
X0151500Y0093287D02*
X0157100Y0093287D01*
X0155603Y0094885D02*
X0151500Y0094885D01*
X0149300Y0094300D02*
X0149300Y0091800D01*
X0151800Y0089300D01*
X0151800Y0086800D01*
X0146900Y0086893D02*
X0146700Y0086893D01*
X0146700Y0087775D02*
X0145954Y0089576D01*
X0144576Y0090954D01*
X0142775Y0091700D01*
X0140825Y0091700D01*
X0140250Y0091462D01*
X0134984Y0096727D01*
X0135191Y0096934D01*
X0135800Y0098404D01*
X0135800Y0105196D01*
X0135191Y0106666D01*
X0134066Y0107791D01*
X0132596Y0108400D01*
X0131004Y0108400D01*
X0129534Y0107791D01*
X0128409Y0106666D01*
X0127800Y0105196D01*
X0127800Y0098404D01*
X0128409Y0096934D01*
X0129534Y0095809D01*
X0129783Y0095706D01*
X0130889Y0094600D01*
X0134506Y0090983D01*
X0132775Y0091700D01*
X0130825Y0091700D01*
X0129024Y0090954D01*
X0127646Y0089576D01*
X0126900Y0087775D01*
X0126900Y0085825D01*
X0127646Y0084024D01*
X0129024Y0082646D01*
X0130825Y0081900D01*
X0132775Y0081900D01*
X0134576Y0082646D01*
X0135954Y0084024D01*
X0136700Y0085825D01*
X0136700Y0087775D01*
X0135983Y0089506D01*
X0137138Y0088350D01*
X0136900Y0087775D01*
X0136900Y0085825D01*
X0137646Y0084024D01*
X0139024Y0082646D01*
X0140825Y0081900D01*
X0142775Y0081900D01*
X0144576Y0082646D01*
X0145954Y0084024D01*
X0146700Y0085825D01*
X0146700Y0087775D01*
X0146403Y0088491D02*
X0147197Y0088491D01*
X0147899Y0090090D02*
X0145440Y0090090D01*
X0147100Y0091688D02*
X0142803Y0091688D01*
X0140797Y0091688D02*
X0140023Y0091688D01*
X0138424Y0093287D02*
X0147100Y0093287D01*
X0145603Y0094885D02*
X0136826Y0094885D01*
X0135227Y0096484D02*
X0138859Y0096484D01*
X0137933Y0098082D02*
X0135667Y0098082D01*
X0135800Y0099681D02*
X0137800Y0099681D01*
X0137800Y0101279D02*
X0135800Y0101279D01*
X0135800Y0102878D02*
X0137800Y0102878D01*
X0137800Y0104476D02*
X0135800Y0104476D01*
X0135436Y0106075D02*
X0138164Y0106075D01*
X0139417Y0107673D02*
X0134183Y0107673D01*
X0129417Y0107673D02*
X0124183Y0107673D01*
X0124066Y0107791D02*
X0122596Y0108400D01*
X0121004Y0108400D01*
X0119534Y0107791D01*
X0118409Y0106666D01*
X0117800Y0105196D01*
X0117800Y0098404D01*
X0118409Y0096934D01*
X0119534Y0095809D01*
X0121004Y0095200D01*
X0122596Y0095200D01*
X0124066Y0095809D01*
X0125191Y0096934D01*
X0125800Y0098404D01*
X0125800Y0105196D01*
X0125191Y0106666D01*
X0124066Y0107791D01*
X0125436Y0106075D02*
X0128164Y0106075D01*
X0127800Y0104476D02*
X0125800Y0104476D01*
X0125800Y0102878D02*
X0127800Y0102878D01*
X0127800Y0101279D02*
X0125800Y0101279D01*
X0125800Y0099681D02*
X0127800Y0099681D01*
X0127933Y0098082D02*
X0125667Y0098082D01*
X0124741Y0096484D02*
X0128859Y0096484D01*
X0130603Y0094885D02*
X0109000Y0094885D01*
X0109000Y0093287D02*
X0132202Y0093287D01*
X0132803Y0091688D02*
X0133800Y0091688D01*
X0130797Y0091688D02*
X0122803Y0091688D01*
X0122775Y0091700D02*
X0120825Y0091700D01*
X0119024Y0090954D01*
X0117646Y0089576D01*
X0116900Y0087775D01*
X0116900Y0085825D01*
X0117646Y0084024D01*
X0119024Y0082646D01*
X0120825Y0081900D01*
X0122775Y0081900D01*
X0124576Y0082646D01*
X0125954Y0084024D01*
X0126700Y0085825D01*
X0126700Y0087775D01*
X0125954Y0089576D01*
X0124576Y0090954D01*
X0122775Y0091700D01*
X0120797Y0091688D02*
X0112803Y0091688D01*
X0110797Y0091688D02*
X0109000Y0091688D01*
X0106800Y0084300D02*
X0111800Y0079300D01*
X0196800Y0079300D01*
X0196800Y0129300D01*
X0184300Y0141800D01*
X0184300Y0231800D01*
X0184200Y0231800D01*
X0181800Y0231800D01*
X0181800Y0266800D01*
X0184162Y0266800D01*
X0178083Y0273919D02*
X0174651Y0273919D01*
X0174991Y0273097D02*
X0174014Y0275456D01*
X0172208Y0277262D01*
X0169849Y0278239D01*
X0167295Y0278239D01*
X0164935Y0277262D01*
X0163129Y0275456D01*
X0162152Y0273097D01*
X0162152Y0260503D01*
X0163129Y0258144D01*
X0164935Y0256338D01*
X0167100Y0255441D01*
X0167100Y0243002D01*
X0165003Y0242133D01*
X0163217Y0240347D01*
X0162250Y0238013D01*
X0162250Y0225587D01*
X0163217Y0223253D01*
X0165003Y0221467D01*
X0167337Y0220500D01*
X0169863Y0220500D01*
X0172197Y0221467D01*
X0173983Y0223253D01*
X0174950Y0225587D01*
X0174950Y0238013D01*
X0173983Y0240347D01*
X0172197Y0242133D01*
X0171500Y0242422D01*
X0171500Y0256045D01*
X0172208Y0256338D01*
X0174014Y0258144D01*
X0174991Y0260503D01*
X0174991Y0273097D01*
X0174991Y0272320D02*
X0177743Y0272320D01*
X0177743Y0270722D02*
X0174991Y0270722D01*
X0174991Y0269123D02*
X0177743Y0269123D01*
X0177743Y0267525D02*
X0174991Y0267525D01*
X0174991Y0265926D02*
X0177743Y0265926D01*
X0177743Y0264328D02*
X0174991Y0264328D01*
X0174991Y0262729D02*
X0177743Y0262729D01*
X0177743Y0261131D02*
X0174991Y0261131D01*
X0174589Y0259532D02*
X0178145Y0259532D01*
X0178930Y0257934D02*
X0173804Y0257934D01*
X0172201Y0256335D02*
X0179600Y0256335D01*
X0179600Y0254737D02*
X0171500Y0254737D01*
X0171500Y0253138D02*
X0179600Y0253138D01*
X0179600Y0251539D02*
X0171500Y0251539D01*
X0171500Y0249941D02*
X0179600Y0249941D01*
X0179600Y0248342D02*
X0171500Y0248342D01*
X0171500Y0246744D02*
X0179600Y0246744D01*
X0179600Y0245145D02*
X0171500Y0245145D01*
X0171500Y0243547D02*
X0179600Y0243547D01*
X0179600Y0241948D02*
X0172382Y0241948D01*
X0173980Y0240350D02*
X0178820Y0240350D01*
X0178156Y0238751D02*
X0174644Y0238751D01*
X0174950Y0237153D02*
X0177850Y0237153D01*
X0177850Y0235554D02*
X0174950Y0235554D01*
X0174950Y0233956D02*
X0177850Y0233956D01*
X0177850Y0232357D02*
X0174950Y0232357D01*
X0174950Y0230759D02*
X0177850Y0230759D01*
X0177850Y0229160D02*
X0174950Y0229160D01*
X0174950Y0227562D02*
X0177850Y0227562D01*
X0177850Y0225963D02*
X0174950Y0225963D01*
X0174444Y0224365D02*
X0178356Y0224365D01*
X0179303Y0222766D02*
X0173497Y0222766D01*
X0171475Y0221168D02*
X0177491Y0221168D01*
X0176700Y0219569D02*
X0154000Y0219569D01*
X0154000Y0217971D02*
X0177036Y0217971D01*
X0177100Y0216372D02*
X0154000Y0216372D01*
X0152885Y0214774D02*
X0176662Y0214774D01*
X0175064Y0213175D02*
X0163138Y0213175D01*
X0165228Y0211577D02*
X0173465Y0211577D01*
X0171867Y0209978D02*
X0165800Y0209978D01*
X0165800Y0208380D02*
X0170268Y0208380D01*
X0168670Y0206781D02*
X0165800Y0206781D01*
X0165800Y0205183D02*
X0167071Y0205183D01*
X0170097Y0201986D02*
X0182100Y0201986D01*
X0182100Y0203584D02*
X0171695Y0203584D01*
X0173294Y0205183D02*
X0182100Y0205183D01*
X0182100Y0206781D02*
X0174892Y0206781D01*
X0176491Y0208380D02*
X0182100Y0208380D01*
X0182100Y0209978D02*
X0178089Y0209978D01*
X0179688Y0211577D02*
X0182100Y0211577D01*
X0182100Y0213175D02*
X0181286Y0213175D01*
X0181500Y0214774D02*
X0182100Y0214774D01*
X0182100Y0216372D02*
X0181500Y0216372D01*
X0181564Y0217971D02*
X0182100Y0217971D01*
X0182100Y0219569D02*
X0181900Y0219569D01*
X0181325Y0221168D02*
X0181109Y0221168D01*
X0179300Y0219300D02*
X0179300Y0214300D01*
X0146800Y0181800D01*
X0144401Y0182803D02*
X0144000Y0182803D01*
X0144000Y0181205D02*
X0144232Y0181205D01*
X0144000Y0179606D02*
X0145317Y0179606D01*
X0144000Y0178008D02*
X0151700Y0178008D01*
X0151700Y0179606D02*
X0148283Y0179606D01*
X0149368Y0181205D02*
X0152528Y0181205D01*
X0154127Y0182803D02*
X0150915Y0182803D01*
X0152513Y0184402D02*
X0155725Y0184402D01*
X0157324Y0186001D02*
X0154112Y0186001D01*
X0155710Y0187599D02*
X0157801Y0187599D01*
X0157309Y0189198D02*
X0158541Y0189198D01*
X0158907Y0190796D02*
X0160995Y0190796D01*
X0160506Y0192395D02*
X0182100Y0192395D01*
X0182100Y0193993D02*
X0162104Y0193993D01*
X0163703Y0195592D02*
X0182100Y0195592D01*
X0182100Y0197190D02*
X0165301Y0197190D01*
X0166900Y0198789D02*
X0182100Y0198789D01*
X0182100Y0200387D02*
X0168498Y0200387D01*
X0161800Y0201800D02*
X0161800Y0206800D01*
X0158372Y0211577D02*
X0155228Y0211577D01*
X0155800Y0209978D02*
X0157800Y0209978D01*
X0157800Y0208380D02*
X0155800Y0208380D01*
X0155800Y0206781D02*
X0157800Y0206781D01*
X0157800Y0205183D02*
X0155800Y0205183D01*
X0155800Y0203584D02*
X0157800Y0203584D01*
X0158388Y0201986D02*
X0155212Y0201986D01*
X0153498Y0200387D02*
X0157276Y0200387D01*
X0155677Y0198789D02*
X0151900Y0198789D01*
X0150301Y0197190D02*
X0154079Y0197190D01*
X0152480Y0195592D02*
X0148703Y0195592D01*
X0147104Y0193993D02*
X0150882Y0193993D01*
X0149283Y0192395D02*
X0145506Y0192395D01*
X0144000Y0190796D02*
X0147685Y0190796D01*
X0145794Y0189198D02*
X0144000Y0189198D01*
X0144000Y0187599D02*
X0144317Y0187599D01*
X0144317Y0186001D02*
X0144000Y0186001D01*
X0144000Y0184402D02*
X0145795Y0184402D01*
X0146800Y0186800D02*
X0161800Y0201800D01*
X0151800Y0201800D02*
X0151800Y0206800D01*
X0147800Y0206781D02*
X0145800Y0206781D01*
X0145800Y0205183D02*
X0147800Y0205183D01*
X0147800Y0203584D02*
X0145800Y0203584D01*
X0145800Y0203404D02*
X0145800Y0210196D01*
X0145191Y0211666D01*
X0144066Y0212791D01*
X0142596Y0213400D01*
X0141004Y0213400D01*
X0139534Y0212791D01*
X0138409Y0211666D01*
X0137800Y0210196D01*
X0137800Y0203404D01*
X0138409Y0201934D01*
X0139534Y0200809D01*
X0141004Y0200200D01*
X0142596Y0200200D01*
X0144066Y0200809D01*
X0145191Y0201934D01*
X0145800Y0203404D01*
X0145212Y0201986D02*
X0148388Y0201986D01*
X0147276Y0200387D02*
X0143047Y0200387D01*
X0140553Y0200387D02*
X0136324Y0200387D01*
X0135212Y0201986D02*
X0138388Y0201986D01*
X0137800Y0203584D02*
X0135800Y0203584D01*
X0135800Y0205183D02*
X0137800Y0205183D01*
X0137800Y0206781D02*
X0135800Y0206781D01*
X0135800Y0208380D02*
X0137800Y0208380D01*
X0137800Y0209978D02*
X0135800Y0209978D01*
X0135228Y0211577D02*
X0138372Y0211577D01*
X0140462Y0213175D02*
X0133138Y0213175D01*
X0130462Y0213175D02*
X0129000Y0213175D01*
X0126800Y0214300D02*
X0129300Y0216800D01*
X0151800Y0216800D01*
X0151800Y0231800D01*
X0153000Y0231800D01*
X0154300Y0231800D01*
X0154300Y0266800D01*
X0152981Y0266800D01*
X0146561Y0267525D02*
X0143810Y0267525D01*
X0143810Y0269123D02*
X0146561Y0269123D01*
X0146561Y0270722D02*
X0143810Y0270722D01*
X0143810Y0272320D02*
X0146561Y0272320D01*
X0146902Y0273919D02*
X0143470Y0273919D01*
X0143810Y0273097D02*
X0142833Y0275456D01*
X0141027Y0277262D01*
X0138668Y0278239D01*
X0136114Y0278239D01*
X0133754Y0277262D01*
X0131948Y0275456D01*
X0130971Y0273097D01*
X0130971Y0260503D01*
X0131948Y0258144D01*
X0133754Y0256338D01*
X0136114Y0255361D01*
X0137100Y0255361D01*
X0137100Y0243100D01*
X0136137Y0243100D01*
X0133803Y0242133D01*
X0132017Y0240347D01*
X0131050Y0238013D01*
X0131050Y0225587D01*
X0132017Y0223253D01*
X0133803Y0221467D01*
X0136137Y0220500D01*
X0138663Y0220500D01*
X0140997Y0221467D01*
X0142783Y0223253D01*
X0143750Y0225587D01*
X0143750Y0238013D01*
X0142783Y0240347D01*
X0141500Y0241630D01*
X0141500Y0256811D01*
X0142833Y0258144D01*
X0143810Y0260503D01*
X0143810Y0273097D01*
X0142772Y0275517D02*
X0147600Y0275517D01*
X0149198Y0277116D02*
X0141173Y0277116D01*
X0133608Y0277116D02*
X0125583Y0277116D01*
X0127181Y0275517D02*
X0132009Y0275517D01*
X0131311Y0273919D02*
X0127879Y0273919D01*
X0128220Y0272320D02*
X0130971Y0272320D01*
X0130971Y0270722D02*
X0128220Y0270722D01*
X0128220Y0269123D02*
X0130971Y0269123D01*
X0130971Y0267525D02*
X0128220Y0267525D01*
X0128220Y0265926D02*
X0130971Y0265926D01*
X0130971Y0264328D02*
X0128220Y0264328D01*
X0128220Y0262729D02*
X0130971Y0262729D01*
X0130971Y0261131D02*
X0128220Y0261131D01*
X0127817Y0259532D02*
X0131373Y0259532D01*
X0132159Y0257934D02*
X0127032Y0257934D01*
X0125429Y0256335D02*
X0133761Y0256335D01*
X0137100Y0254737D02*
X0121500Y0254737D01*
X0121500Y0253138D02*
X0137100Y0253138D01*
X0137100Y0251539D02*
X0121500Y0251539D01*
X0121500Y0249941D02*
X0137100Y0249941D01*
X0137100Y0248342D02*
X0121500Y0248342D01*
X0121500Y0246744D02*
X0137100Y0246744D01*
X0137100Y0245145D02*
X0121500Y0245145D01*
X0121500Y0243547D02*
X0137100Y0243547D01*
X0133618Y0241948D02*
X0125582Y0241948D01*
X0127180Y0240350D02*
X0132020Y0240350D01*
X0131356Y0238751D02*
X0127844Y0238751D01*
X0128150Y0237153D02*
X0131050Y0237153D01*
X0131050Y0235554D02*
X0128150Y0235554D01*
X0128150Y0233956D02*
X0131050Y0233956D01*
X0131050Y0232357D02*
X0128150Y0232357D01*
X0128150Y0230759D02*
X0131050Y0230759D01*
X0131050Y0229160D02*
X0128150Y0229160D01*
X0128150Y0227562D02*
X0131050Y0227562D01*
X0131050Y0225963D02*
X0128150Y0225963D01*
X0127644Y0224365D02*
X0131556Y0224365D01*
X0132503Y0222766D02*
X0126697Y0222766D01*
X0124675Y0221168D02*
X0134525Y0221168D01*
X0140275Y0221168D02*
X0149600Y0221168D01*
X0149600Y0219569D02*
X0119000Y0219569D01*
X0119000Y0217971D02*
X0127359Y0217971D01*
X0125761Y0216372D02*
X0119000Y0216372D01*
X0119000Y0214774D02*
X0124600Y0214774D01*
X0124600Y0213175D02*
X0123138Y0213175D01*
X0120462Y0213175D02*
X0119000Y0213175D01*
X0114600Y0213175D02*
X0113138Y0213175D01*
X0114600Y0214774D02*
X0109000Y0214774D01*
X0109000Y0213175D02*
X0110462Y0213175D01*
X0107839Y0216372D02*
X0114600Y0216372D01*
X0114600Y0217971D02*
X0106241Y0217971D01*
X0104300Y0216800D02*
X0106800Y0214300D01*
X0106800Y0201800D01*
X0096800Y0191800D01*
X0094402Y0190796D02*
X0094000Y0190796D01*
X0094000Y0189198D02*
X0095794Y0189198D01*
X0094317Y0187599D02*
X0094000Y0187599D01*
X0094000Y0186001D02*
X0094317Y0186001D01*
X0094000Y0184402D02*
X0095795Y0184402D01*
X0094401Y0182803D02*
X0094000Y0182803D01*
X0094000Y0181205D02*
X0094232Y0181205D01*
X0094000Y0179606D02*
X0095317Y0179606D01*
X0094000Y0178008D02*
X0101700Y0178008D01*
X0101700Y0179606D02*
X0098283Y0179606D01*
X0099368Y0181205D02*
X0102528Y0181205D01*
X0104127Y0182803D02*
X0100915Y0182803D01*
X0102513Y0184402D02*
X0105725Y0184402D01*
X0107324Y0186001D02*
X0104112Y0186001D01*
X0105710Y0187599D02*
X0107801Y0187599D01*
X0107309Y0189198D02*
X0108541Y0189198D01*
X0108907Y0190796D02*
X0110995Y0190796D01*
X0110506Y0192395D02*
X0119600Y0192395D01*
X0119600Y0190796D02*
X0117805Y0190796D01*
X0118996Y0193993D02*
X0112104Y0193993D01*
X0113703Y0195592D02*
X0117397Y0195592D01*
X0115799Y0197190D02*
X0114000Y0197190D01*
X0114000Y0198789D02*
X0114600Y0198789D01*
X0114600Y0200387D02*
X0114000Y0200387D01*
X0116800Y0199300D02*
X0116800Y0221800D01*
X0119300Y0224300D01*
X0121800Y0231800D01*
X0121800Y0226800D01*
X0119300Y0224300D01*
X0119300Y0264300D01*
X0121800Y0266800D01*
X0115380Y0267525D02*
X0112629Y0267525D01*
X0112629Y0269123D02*
X0115380Y0269123D01*
X0115380Y0270722D02*
X0112629Y0270722D01*
X0112629Y0272320D02*
X0115380Y0272320D01*
X0115721Y0273919D02*
X0112289Y0273919D01*
X0112629Y0273097D02*
X0111652Y0275456D01*
X0109846Y0277262D01*
X0107486Y0278239D01*
X0104932Y0278239D01*
X0102573Y0277262D01*
X0100767Y0275456D01*
X0099790Y0273097D01*
X0099790Y0260503D01*
X0100767Y0258144D01*
X0102100Y0256811D01*
X0102100Y0241630D01*
X0100817Y0240347D01*
X0099850Y0238013D01*
X0099850Y0225587D01*
X0100817Y0223253D01*
X0102603Y0221467D01*
X0104937Y0220500D01*
X0107463Y0220500D01*
X0109797Y0221467D01*
X0111583Y0223253D01*
X0112550Y0225587D01*
X0112550Y0238013D01*
X0111583Y0240347D01*
X0109797Y0242133D01*
X0107463Y0243100D01*
X0106500Y0243100D01*
X0106500Y0255361D01*
X0107486Y0255361D01*
X0109846Y0256338D01*
X0111652Y0258144D01*
X0112629Y0260503D01*
X0112629Y0273097D01*
X0111591Y0275517D02*
X0116419Y0275517D01*
X0118017Y0277116D02*
X0109992Y0277116D01*
X0102427Y0277116D02*
X0094402Y0277116D01*
X0096000Y0275517D02*
X0100828Y0275517D01*
X0100130Y0273919D02*
X0096698Y0273919D01*
X0097039Y0272320D02*
X0099790Y0272320D01*
X0099790Y0270722D02*
X0097039Y0270722D01*
X0097039Y0269123D02*
X0099790Y0269123D01*
X0099790Y0267525D02*
X0097039Y0267525D01*
X0097039Y0265926D02*
X0099790Y0265926D01*
X0099790Y0264328D02*
X0097039Y0264328D01*
X0097039Y0262729D02*
X0099790Y0262729D01*
X0099790Y0261131D02*
X0097039Y0261131D01*
X0096636Y0259532D02*
X0100192Y0259532D01*
X0100977Y0257934D02*
X0095851Y0257934D01*
X0094248Y0256335D02*
X0102100Y0256335D01*
X0102100Y0254737D02*
X0094000Y0254737D01*
X0094000Y0253138D02*
X0102100Y0253138D01*
X0102100Y0251539D02*
X0094000Y0251539D01*
X0094000Y0249941D02*
X0102100Y0249941D01*
X0102100Y0248342D02*
X0094000Y0248342D01*
X0094000Y0246744D02*
X0102100Y0246744D01*
X0102100Y0245145D02*
X0094000Y0245145D01*
X0094000Y0243547D02*
X0102100Y0243547D01*
X0102100Y0241948D02*
X0094382Y0241948D01*
X0095980Y0240350D02*
X0100820Y0240350D01*
X0100156Y0238751D02*
X0096644Y0238751D01*
X0096950Y0237153D02*
X0099850Y0237153D01*
X0099850Y0235554D02*
X0096950Y0235554D01*
X0096950Y0233956D02*
X0099850Y0233956D01*
X0099850Y0232357D02*
X0096950Y0232357D01*
X0096950Y0230759D02*
X0099850Y0230759D01*
X0099850Y0229160D02*
X0096950Y0229160D01*
X0096950Y0227562D02*
X0099850Y0227562D01*
X0099850Y0225963D02*
X0096950Y0225963D01*
X0096444Y0224365D02*
X0100356Y0224365D01*
X0101303Y0222766D02*
X0095497Y0222766D01*
X0093475Y0221168D02*
X0103325Y0221168D01*
X0104300Y0216800D02*
X0091800Y0216800D01*
X0091800Y0206800D01*
X0087800Y0206781D02*
X0085800Y0206781D01*
X0085800Y0205183D02*
X0087800Y0205183D01*
X0087800Y0203584D02*
X0085800Y0203584D01*
X0085212Y0201986D02*
X0088388Y0201986D01*
X0086324Y0200387D02*
X0090553Y0200387D01*
X0093047Y0200387D02*
X0097276Y0200387D01*
X0098388Y0201986D02*
X0095212Y0201986D01*
X0095800Y0203584D02*
X0097800Y0203584D01*
X0097800Y0205183D02*
X0095800Y0205183D01*
X0095800Y0206781D02*
X0097800Y0206781D01*
X0097800Y0208380D02*
X0095800Y0208380D01*
X0095800Y0209978D02*
X0097800Y0209978D01*
X0098372Y0211577D02*
X0095228Y0211577D01*
X0094000Y0213175D02*
X0100462Y0213175D01*
X0103138Y0213175D02*
X0104600Y0213175D01*
X0101800Y0206800D02*
X0101800Y0201800D01*
X0091800Y0191800D01*
X0091800Y0151800D01*
X0094300Y0149300D01*
X0096900Y0149235D02*
X0101700Y0149235D01*
X0101700Y0150833D02*
X0096444Y0150833D01*
X0094279Y0152432D02*
X0101700Y0152432D01*
X0101700Y0154030D02*
X0094000Y0154030D01*
X0094000Y0155629D02*
X0101700Y0155629D01*
X0101700Y0157227D02*
X0094000Y0157227D01*
X0094000Y0158826D02*
X0101700Y0158826D01*
X0101700Y0160424D02*
X0094000Y0160424D01*
X0094000Y0162023D02*
X0101700Y0162023D01*
X0101700Y0163621D02*
X0094000Y0163621D01*
X0094000Y0165220D02*
X0101700Y0165220D01*
X0101700Y0166818D02*
X0094000Y0166818D01*
X0094000Y0168417D02*
X0101700Y0168417D01*
X0101700Y0170015D02*
X0094000Y0170015D01*
X0094000Y0171614D02*
X0101700Y0171614D01*
X0101700Y0173212D02*
X0094000Y0173212D01*
X0094000Y0174811D02*
X0101700Y0174811D01*
X0101700Y0176409D02*
X0094000Y0176409D01*
X0096800Y0181800D02*
X0111800Y0196800D01*
X0111800Y0206800D01*
X0116800Y0199300D02*
X0121800Y0194300D01*
X0121800Y0141800D01*
X0124300Y0139300D01*
X0124300Y0136800D01*
X0131800Y0136800D01*
X0138164Y0130053D02*
X0147100Y0130053D01*
X0147100Y0131651D02*
X0139762Y0131651D01*
X0141361Y0133250D02*
X0147100Y0133250D01*
X0147100Y0134848D02*
X0141500Y0134848D01*
X0141500Y0136447D02*
X0147100Y0136447D01*
X0147100Y0138045D02*
X0141500Y0138045D01*
X0141500Y0139644D02*
X0147100Y0139644D01*
X0147100Y0141242D02*
X0141500Y0141242D01*
X0141500Y0142841D02*
X0147100Y0142841D01*
X0147100Y0144439D02*
X0141500Y0144439D01*
X0141500Y0146038D02*
X0147100Y0146038D01*
X0147100Y0147636D02*
X0141500Y0147636D01*
X0141500Y0149235D02*
X0147100Y0149235D01*
X0147100Y0150833D02*
X0141500Y0150833D01*
X0141500Y0152432D02*
X0147100Y0152432D01*
X0147100Y0154030D02*
X0141500Y0154030D01*
X0141500Y0155629D02*
X0147100Y0155629D01*
X0147100Y0157227D02*
X0141500Y0157227D01*
X0141500Y0158826D02*
X0147100Y0158826D01*
X0147056Y0160424D02*
X0141500Y0160424D01*
X0141500Y0162023D02*
X0146700Y0162023D01*
X0147444Y0163621D02*
X0141500Y0163621D01*
X0141500Y0165220D02*
X0142203Y0165220D01*
X0144300Y0166800D02*
X0141800Y0169300D01*
X0141800Y0191800D01*
X0151800Y0201800D01*
X0147800Y0208380D02*
X0145800Y0208380D01*
X0145800Y0209978D02*
X0147800Y0209978D01*
X0148372Y0211577D02*
X0145228Y0211577D01*
X0143138Y0213175D02*
X0150462Y0213175D01*
X0153138Y0213175D02*
X0160462Y0213175D01*
X0155875Y0221168D02*
X0165725Y0221168D01*
X0163703Y0222766D02*
X0157897Y0222766D01*
X0158844Y0224365D02*
X0162756Y0224365D01*
X0162250Y0225963D02*
X0159350Y0225963D01*
X0159350Y0227562D02*
X0162250Y0227562D01*
X0162250Y0229160D02*
X0159350Y0229160D01*
X0159350Y0230759D02*
X0162250Y0230759D01*
X0162250Y0232357D02*
X0159350Y0232357D01*
X0159350Y0233956D02*
X0162250Y0233956D01*
X0162250Y0235554D02*
X0159350Y0235554D01*
X0159350Y0237153D02*
X0162250Y0237153D01*
X0162556Y0238751D02*
X0159044Y0238751D01*
X0158380Y0240350D02*
X0163220Y0240350D01*
X0164818Y0241948D02*
X0156782Y0241948D01*
X0156500Y0243547D02*
X0167100Y0243547D01*
X0167100Y0245145D02*
X0156500Y0245145D01*
X0156500Y0246744D02*
X0167100Y0246744D01*
X0167100Y0248342D02*
X0156500Y0248342D01*
X0156500Y0249941D02*
X0167100Y0249941D01*
X0167100Y0251539D02*
X0156500Y0251539D01*
X0156500Y0253138D02*
X0167100Y0253138D01*
X0167100Y0254737D02*
X0156500Y0254737D01*
X0156610Y0256335D02*
X0164942Y0256335D01*
X0163340Y0257934D02*
X0158213Y0257934D01*
X0158998Y0259532D02*
X0162554Y0259532D01*
X0162152Y0261131D02*
X0159401Y0261131D01*
X0159401Y0262729D02*
X0162152Y0262729D01*
X0162152Y0264328D02*
X0159401Y0264328D01*
X0159401Y0265926D02*
X0162152Y0265926D01*
X0162152Y0267525D02*
X0159401Y0267525D01*
X0159401Y0269123D02*
X0162152Y0269123D01*
X0162152Y0270722D02*
X0159401Y0270722D01*
X0159401Y0272320D02*
X0162152Y0272320D01*
X0162492Y0273919D02*
X0159060Y0273919D01*
X0158362Y0275517D02*
X0163190Y0275517D01*
X0164789Y0277116D02*
X0156764Y0277116D01*
X0146561Y0265926D02*
X0143810Y0265926D01*
X0143810Y0264328D02*
X0146561Y0264328D01*
X0146561Y0262729D02*
X0143810Y0262729D01*
X0143810Y0261131D02*
X0146561Y0261131D01*
X0146964Y0259532D02*
X0143408Y0259532D01*
X0142623Y0257934D02*
X0147749Y0257934D01*
X0149352Y0256335D02*
X0141500Y0256335D01*
X0141500Y0254737D02*
X0152100Y0254737D01*
X0152100Y0253138D02*
X0141500Y0253138D01*
X0141500Y0251539D02*
X0152100Y0251539D01*
X0152100Y0249941D02*
X0141500Y0249941D01*
X0141500Y0248342D02*
X0152100Y0248342D01*
X0152100Y0246744D02*
X0141500Y0246744D01*
X0141500Y0245145D02*
X0152100Y0245145D01*
X0152100Y0243547D02*
X0141500Y0243547D01*
X0141500Y0241948D02*
X0149218Y0241948D01*
X0147620Y0240350D02*
X0142780Y0240350D01*
X0143444Y0238751D02*
X0146956Y0238751D01*
X0146650Y0237153D02*
X0143750Y0237153D01*
X0143750Y0235554D02*
X0146650Y0235554D01*
X0146650Y0233956D02*
X0143750Y0233956D01*
X0143750Y0232357D02*
X0146650Y0232357D01*
X0146650Y0230759D02*
X0143750Y0230759D01*
X0143750Y0229160D02*
X0146650Y0229160D01*
X0146650Y0227562D02*
X0143750Y0227562D01*
X0143750Y0225963D02*
X0146650Y0225963D01*
X0147156Y0224365D02*
X0143244Y0224365D01*
X0142297Y0222766D02*
X0148103Y0222766D01*
X0139300Y0231800D02*
X0137400Y0231800D01*
X0139300Y0231800D02*
X0139300Y0266800D01*
X0137391Y0266800D01*
X0117100Y0256335D02*
X0109839Y0256335D01*
X0111441Y0257934D02*
X0116568Y0257934D01*
X0115783Y0259532D02*
X0112227Y0259532D01*
X0112629Y0261131D02*
X0115380Y0261131D01*
X0115380Y0262729D02*
X0112629Y0262729D01*
X0112629Y0264328D02*
X0115380Y0264328D01*
X0115380Y0265926D02*
X0112629Y0265926D01*
X0106209Y0266800D02*
X0104300Y0266800D01*
X0104300Y0231800D01*
X0106200Y0231800D01*
X0112044Y0224365D02*
X0115956Y0224365D01*
X0115450Y0225963D02*
X0112550Y0225963D01*
X0112550Y0227562D02*
X0115450Y0227562D01*
X0115450Y0229160D02*
X0112550Y0229160D01*
X0112550Y0230759D02*
X0115450Y0230759D01*
X0115450Y0232357D02*
X0112550Y0232357D01*
X0112550Y0233956D02*
X0115450Y0233956D01*
X0115450Y0235554D02*
X0112550Y0235554D01*
X0112550Y0237153D02*
X0115450Y0237153D01*
X0115756Y0238751D02*
X0112244Y0238751D01*
X0111580Y0240350D02*
X0116420Y0240350D01*
X0117100Y0241948D02*
X0109982Y0241948D01*
X0106500Y0243547D02*
X0117100Y0243547D01*
X0117100Y0245145D02*
X0106500Y0245145D01*
X0106500Y0246744D02*
X0117100Y0246744D01*
X0117100Y0248342D02*
X0106500Y0248342D01*
X0106500Y0249941D02*
X0117100Y0249941D01*
X0117100Y0251539D02*
X0106500Y0251539D01*
X0106500Y0253138D02*
X0117100Y0253138D01*
X0117100Y0254737D02*
X0106500Y0254737D01*
X0091800Y0266800D02*
X0090619Y0266800D01*
X0091800Y0266800D02*
X0091800Y0231800D01*
X0090600Y0231800D01*
X0084250Y0232357D02*
X0084000Y0232357D01*
X0084000Y0230759D02*
X0084250Y0230759D01*
X0084250Y0229160D02*
X0084000Y0229160D01*
X0084000Y0227562D02*
X0084250Y0227562D01*
X0084250Y0225963D02*
X0084000Y0225963D01*
X0084000Y0224365D02*
X0084756Y0224365D01*
X0084000Y0222766D02*
X0085703Y0222766D01*
X0084000Y0221168D02*
X0087725Y0221168D01*
X0089859Y0217971D02*
X0083582Y0217971D01*
X0084000Y0219569D02*
X0114600Y0219569D01*
X0114600Y0221168D02*
X0109075Y0221168D01*
X0111097Y0222766D02*
X0114655Y0222766D01*
X0126800Y0214300D02*
X0126800Y0201800D01*
X0136800Y0191800D01*
X0136800Y0181800D01*
X0131800Y0176800D01*
X0134300Y0171800D02*
X0136800Y0169300D01*
X0136800Y0151800D01*
X0131800Y0146800D01*
X0139300Y0134300D02*
X0139300Y0194300D01*
X0131800Y0201800D01*
X0131800Y0206800D01*
X0137923Y0198789D02*
X0145677Y0198789D01*
X0144079Y0197190D02*
X0139521Y0197190D01*
X0141120Y0195592D02*
X0142480Y0195592D01*
X0144000Y0176409D02*
X0151700Y0176409D01*
X0151700Y0174811D02*
X0144000Y0174811D01*
X0144000Y0173212D02*
X0151700Y0173212D01*
X0151700Y0171614D02*
X0144000Y0171614D01*
X0144196Y0170015D02*
X0151700Y0170015D01*
X0151700Y0168417D02*
X0146360Y0168417D01*
X0146900Y0166818D02*
X0151700Y0166818D01*
X0151700Y0165220D02*
X0146397Y0165220D01*
X0151156Y0163621D02*
X0151700Y0163621D01*
X0156900Y0166818D02*
X0157800Y0166818D01*
X0158140Y0168417D02*
X0156900Y0168417D01*
X0156900Y0170015D02*
X0159359Y0170015D01*
X0161800Y0176800D02*
X0176800Y0176800D01*
X0176800Y0151800D01*
X0179214Y0150833D02*
X0182100Y0150833D01*
X0182100Y0149235D02*
X0177476Y0149235D01*
X0179075Y0147636D02*
X0182100Y0147636D01*
X0182100Y0146038D02*
X0180674Y0146038D01*
X0181800Y0141800D02*
X0181800Y0096800D01*
X0189300Y0089300D01*
X0191800Y0089300D01*
X0191800Y0086800D01*
X0187975Y0083696D02*
X0185625Y0083696D01*
X0186480Y0085294D02*
X0187120Y0085294D01*
X0186900Y0086893D02*
X0186700Y0086893D01*
X0186403Y0088491D02*
X0186997Y0088491D01*
X0181800Y0089300D02*
X0181800Y0086800D01*
X0181800Y0089300D02*
X0179300Y0091800D01*
X0179300Y0139300D01*
X0176800Y0141800D01*
X0177100Y0138045D02*
X0170814Y0138045D01*
X0171000Y0136447D02*
X0177100Y0136447D01*
X0177100Y0134848D02*
X0170521Y0134848D01*
X0168881Y0133250D02*
X0177100Y0133250D01*
X0181800Y0141800D02*
X0169300Y0154300D01*
X0171500Y0155629D02*
X0174600Y0155629D01*
X0174600Y0157227D02*
X0171500Y0157227D01*
X0170490Y0158826D02*
X0174600Y0158826D01*
X0174600Y0160424D02*
X0168703Y0160424D01*
X0172681Y0154030D02*
X0174600Y0154030D01*
X0179000Y0154030D02*
X0182100Y0154030D01*
X0182100Y0152432D02*
X0179353Y0152432D01*
X0179000Y0155629D02*
X0182100Y0155629D01*
X0182100Y0157227D02*
X0179000Y0157227D01*
X0179000Y0158826D02*
X0182100Y0158826D01*
X0182100Y0160424D02*
X0179000Y0160424D01*
X0179000Y0162023D02*
X0182100Y0162023D01*
X0182100Y0163621D02*
X0179000Y0163621D01*
X0179000Y0165220D02*
X0182100Y0165220D01*
X0182100Y0166818D02*
X0179000Y0166818D01*
X0179000Y0168417D02*
X0182100Y0168417D01*
X0182100Y0170015D02*
X0179000Y0170015D01*
X0179000Y0171614D02*
X0182100Y0171614D01*
X0182100Y0173212D02*
X0179000Y0173212D01*
X0179000Y0174811D02*
X0182100Y0174811D01*
X0182100Y0176409D02*
X0179000Y0176409D01*
X0178703Y0178008D02*
X0182100Y0178008D01*
X0182100Y0179606D02*
X0169850Y0179606D01*
X0170259Y0189198D02*
X0182100Y0189198D01*
X0182100Y0190796D02*
X0167805Y0190796D01*
X0191800Y0181800D02*
X0191800Y0146800D01*
X0196168Y0146038D02*
X0197431Y0146038D01*
X0197431Y0147636D02*
X0196168Y0147636D01*
X0196168Y0149235D02*
X0197431Y0149235D01*
X0197513Y0150833D02*
X0196087Y0150833D01*
X0195315Y0152432D02*
X0198285Y0152432D01*
X0199200Y0154030D02*
X0194000Y0154030D01*
X0194000Y0155629D02*
X0199200Y0155629D01*
X0199200Y0157227D02*
X0194000Y0157227D01*
X0194000Y0158826D02*
X0199200Y0158826D01*
X0199200Y0160424D02*
X0194000Y0160424D01*
X0194000Y0162023D02*
X0199200Y0162023D01*
X0199200Y0163621D02*
X0194000Y0163621D01*
X0194000Y0165220D02*
X0199200Y0165220D01*
X0199200Y0166818D02*
X0194000Y0166818D01*
X0194000Y0168417D02*
X0199200Y0168417D01*
X0199200Y0170015D02*
X0194000Y0170015D01*
X0194000Y0171614D02*
X0199200Y0171614D01*
X0199200Y0173212D02*
X0194000Y0173212D01*
X0194000Y0174811D02*
X0199200Y0174811D01*
X0198075Y0176409D02*
X0195525Y0176409D01*
X0196168Y0178008D02*
X0197431Y0178008D01*
X0197431Y0179606D02*
X0196168Y0179606D01*
X0196168Y0181205D02*
X0197431Y0181205D01*
X0197431Y0182803D02*
X0196168Y0182803D01*
X0196168Y0184402D02*
X0197431Y0184402D01*
X0197582Y0186001D02*
X0196018Y0186001D01*
X0195147Y0187599D02*
X0198453Y0187599D01*
X0196925Y0221168D02*
X0187075Y0221168D01*
X0189097Y0222766D02*
X0194903Y0222766D01*
X0193956Y0224365D02*
X0190044Y0224365D01*
X0190550Y0225963D02*
X0193450Y0225963D01*
X0193450Y0227562D02*
X0190550Y0227562D01*
X0190550Y0229160D02*
X0193450Y0229160D01*
X0193450Y0230759D02*
X0190550Y0230759D01*
X0190550Y0232357D02*
X0193450Y0232357D01*
X0193450Y0233956D02*
X0190550Y0233956D01*
X0190550Y0235554D02*
X0193450Y0235554D01*
X0193450Y0237153D02*
X0190550Y0237153D01*
X0190244Y0238751D02*
X0193756Y0238751D01*
X0194420Y0240350D02*
X0189580Y0240350D01*
X0187982Y0241948D02*
X0196018Y0241948D01*
X0199600Y0243547D02*
X0184000Y0243547D01*
X0184000Y0245145D02*
X0199600Y0245145D01*
X0199600Y0246744D02*
X0184000Y0246744D01*
X0184000Y0248342D02*
X0199600Y0248342D01*
X0199600Y0249941D02*
X0184000Y0249941D01*
X0184000Y0251539D02*
X0199600Y0251539D01*
X0199600Y0253138D02*
X0184000Y0253138D01*
X0184000Y0254737D02*
X0199600Y0254737D01*
X0196123Y0256335D02*
X0187792Y0256335D01*
X0189394Y0257934D02*
X0194521Y0257934D01*
X0193735Y0259532D02*
X0190180Y0259532D01*
X0190582Y0261131D02*
X0193333Y0261131D01*
X0193333Y0262729D02*
X0190582Y0262729D01*
X0190582Y0264328D02*
X0193333Y0264328D01*
X0193333Y0265926D02*
X0190582Y0265926D01*
X0190582Y0267525D02*
X0193333Y0267525D01*
X0193333Y0269123D02*
X0190582Y0269123D01*
X0190582Y0270722D02*
X0193333Y0270722D01*
X0193333Y0272320D02*
X0190582Y0272320D01*
X0190241Y0273919D02*
X0193674Y0273919D01*
X0194371Y0275517D02*
X0189544Y0275517D01*
X0187945Y0277116D02*
X0195970Y0277116D01*
X0199753Y0266800D02*
X0201800Y0266800D01*
X0201800Y0231800D01*
X0199800Y0231800D01*
X0169300Y0231800D02*
X0168600Y0231800D01*
X0169300Y0231800D02*
X0169300Y0266800D01*
X0168572Y0266800D01*
X0173953Y0275517D02*
X0178781Y0275517D01*
X0180379Y0277116D02*
X0172354Y0277116D01*
X0106800Y0196800D02*
X0096800Y0186800D01*
X0092480Y0195592D02*
X0091120Y0195592D01*
X0089300Y0194300D02*
X0081800Y0201800D01*
X0081800Y0206800D01*
X0085228Y0211577D02*
X0088372Y0211577D01*
X0087800Y0209978D02*
X0085800Y0209978D01*
X0085800Y0208380D02*
X0087800Y0208380D01*
X0089600Y0213175D02*
X0083138Y0213175D01*
X0080462Y0213175D02*
X0079000Y0213175D01*
X0080385Y0214774D02*
X0089600Y0214774D01*
X0089600Y0216372D02*
X0081984Y0216372D01*
X0081800Y0219300D02*
X0081800Y0274300D01*
X0084530Y0273919D02*
X0084540Y0273919D01*
X0084199Y0272320D02*
X0084000Y0272320D01*
X0084000Y0270722D02*
X0084199Y0270722D01*
X0084199Y0269123D02*
X0084000Y0269123D01*
X0084000Y0267525D02*
X0084199Y0267525D01*
X0084199Y0265926D02*
X0084000Y0265926D01*
X0084000Y0264328D02*
X0084199Y0264328D01*
X0084199Y0262729D02*
X0084000Y0262729D01*
X0084000Y0261131D02*
X0084199Y0261131D01*
X0084000Y0259532D02*
X0084602Y0259532D01*
X0084000Y0257934D02*
X0085387Y0257934D01*
X0084000Y0256335D02*
X0086990Y0256335D01*
X0089600Y0254737D02*
X0084000Y0254737D01*
X0084000Y0253138D02*
X0089600Y0253138D01*
X0089600Y0251539D02*
X0084000Y0251539D01*
X0084000Y0249941D02*
X0089600Y0249941D01*
X0089600Y0248342D02*
X0084000Y0248342D01*
X0084000Y0246744D02*
X0089600Y0246744D01*
X0089600Y0245145D02*
X0084000Y0245145D01*
X0084000Y0243547D02*
X0089600Y0243547D01*
X0086818Y0241948D02*
X0084000Y0241948D01*
X0084000Y0240350D02*
X0085220Y0240350D01*
X0084556Y0238751D02*
X0084000Y0238751D01*
X0084000Y0237153D02*
X0084250Y0237153D01*
X0084250Y0235554D02*
X0084000Y0235554D01*
X0084000Y0233956D02*
X0084250Y0233956D01*
X0075000Y0231800D02*
X0074300Y0231800D01*
X0074300Y0266800D01*
X0075028Y0266800D01*
X0068609Y0267525D02*
X0065857Y0267525D01*
X0065857Y0269123D02*
X0068609Y0269123D01*
X0068609Y0270722D02*
X0065857Y0270722D01*
X0065857Y0272320D02*
X0068609Y0272320D01*
X0068949Y0273919D02*
X0065517Y0273919D01*
X0065857Y0273097D02*
X0064880Y0275456D01*
X0063074Y0277262D01*
X0060715Y0278239D01*
X0058161Y0278239D01*
X0055801Y0277262D01*
X0053995Y0275456D01*
X0053018Y0273097D01*
X0053018Y0260503D01*
X0053995Y0258144D01*
X0055801Y0256338D01*
X0058161Y0255361D01*
X0059600Y0255361D01*
X0059600Y0243100D01*
X0058137Y0243100D01*
X0055803Y0242133D01*
X0054017Y0240347D01*
X0053050Y0238013D01*
X0053050Y0225587D01*
X0054017Y0223253D01*
X0055803Y0221467D01*
X0058137Y0220500D01*
X0060663Y0220500D01*
X0062997Y0221467D01*
X0064783Y0223253D01*
X0065750Y0225587D01*
X0065750Y0238013D01*
X0064783Y0240347D01*
X0064000Y0241130D01*
X0064000Y0257264D01*
X0064880Y0258144D01*
X0065857Y0260503D01*
X0065857Y0273097D01*
X0064819Y0275517D02*
X0069647Y0275517D01*
X0071246Y0277116D02*
X0063221Y0277116D01*
X0055655Y0277116D02*
X0047630Y0277116D01*
X0049229Y0275517D02*
X0054056Y0275517D01*
X0053359Y0273919D02*
X0049926Y0273919D01*
X0050267Y0272320D02*
X0053018Y0272320D01*
X0053018Y0270722D02*
X0050267Y0270722D01*
X0050267Y0269123D02*
X0053018Y0269123D01*
X0053018Y0267525D02*
X0050267Y0267525D01*
X0050267Y0265926D02*
X0053018Y0265926D01*
X0053018Y0264328D02*
X0050267Y0264328D01*
X0050267Y0262729D02*
X0053018Y0262729D01*
X0053018Y0261131D02*
X0050267Y0261131D01*
X0049865Y0259532D02*
X0053420Y0259532D01*
X0054206Y0257934D02*
X0049079Y0257934D01*
X0047477Y0256335D02*
X0055808Y0256335D01*
X0059600Y0254737D02*
X0044000Y0254737D01*
X0044000Y0253138D02*
X0059600Y0253138D01*
X0059600Y0251539D02*
X0044000Y0251539D01*
X0044000Y0249941D02*
X0059600Y0249941D01*
X0059600Y0248342D02*
X0044000Y0248342D01*
X0044000Y0246744D02*
X0059600Y0246744D01*
X0059600Y0245145D02*
X0044000Y0245145D01*
X0044000Y0243547D02*
X0059600Y0243547D01*
X0055618Y0241948D02*
X0047582Y0241948D01*
X0049180Y0240350D02*
X0054020Y0240350D01*
X0053356Y0238751D02*
X0049844Y0238751D01*
X0050150Y0237153D02*
X0053050Y0237153D01*
X0053050Y0235554D02*
X0050150Y0235554D01*
X0050150Y0233956D02*
X0053050Y0233956D01*
X0053050Y0232357D02*
X0050150Y0232357D01*
X0050150Y0230759D02*
X0053050Y0230759D01*
X0053050Y0229160D02*
X0050150Y0229160D01*
X0050150Y0227562D02*
X0053050Y0227562D01*
X0053050Y0225963D02*
X0050150Y0225963D01*
X0049644Y0224365D02*
X0053556Y0224365D01*
X0054503Y0222766D02*
X0048697Y0222766D01*
X0046675Y0221168D02*
X0056525Y0221168D01*
X0062275Y0221168D02*
X0072100Y0221168D01*
X0072100Y0219569D02*
X0044000Y0219569D01*
X0044000Y0217971D02*
X0072100Y0217971D01*
X0072100Y0216372D02*
X0045339Y0216372D01*
X0046500Y0214774D02*
X0072100Y0214774D01*
X0072100Y0213175D02*
X0068138Y0213175D01*
X0067596Y0213400D02*
X0066004Y0213400D01*
X0064534Y0212791D01*
X0063409Y0211666D01*
X0062800Y0210196D01*
X0062800Y0203404D01*
X0063409Y0201934D01*
X0064534Y0200809D01*
X0066004Y0200200D01*
X0067596Y0200200D01*
X0069066Y0200809D01*
X0070191Y0201934D01*
X0070800Y0203404D01*
X0070800Y0210196D01*
X0070191Y0211666D01*
X0069066Y0212791D01*
X0067596Y0213400D01*
X0065462Y0213175D02*
X0058138Y0213175D01*
X0060228Y0211577D02*
X0063372Y0211577D01*
X0062800Y0209978D02*
X0060800Y0209978D01*
X0060800Y0208380D02*
X0062800Y0208380D01*
X0062800Y0206781D02*
X0060800Y0206781D01*
X0060800Y0205183D02*
X0062800Y0205183D01*
X0062800Y0203584D02*
X0060800Y0203584D01*
X0060212Y0201986D02*
X0063388Y0201986D01*
X0065553Y0200387D02*
X0058498Y0200387D01*
X0056800Y0201800D02*
X0056800Y0206800D01*
X0052800Y0206781D02*
X0050800Y0206781D01*
X0050800Y0205183D02*
X0052800Y0205183D01*
X0052800Y0203584D02*
X0050800Y0203584D01*
X0050212Y0201986D02*
X0053388Y0201986D01*
X0052276Y0200387D02*
X0048047Y0200387D01*
X0045553Y0200387D02*
X0041500Y0200387D01*
X0041500Y0198789D02*
X0050677Y0198789D01*
X0049600Y0197190D02*
X0041500Y0197190D01*
X0041500Y0195592D02*
X0049600Y0195592D01*
X0049600Y0193993D02*
X0041500Y0193993D01*
X0041500Y0192395D02*
X0049600Y0192395D01*
X0049600Y0190796D02*
X0041500Y0190796D01*
X0041500Y0189198D02*
X0049600Y0189198D01*
X0049488Y0187599D02*
X0041500Y0187599D01*
X0041500Y0186001D02*
X0047889Y0186001D01*
X0046291Y0184402D02*
X0041500Y0184402D01*
X0041500Y0182803D02*
X0044692Y0182803D01*
X0043094Y0181205D02*
X0041500Y0181205D01*
X0039300Y0179300D02*
X0039300Y0201800D01*
X0036800Y0204300D01*
X0036800Y0206800D01*
X0040800Y0206781D02*
X0042800Y0206781D01*
X0042800Y0205183D02*
X0040800Y0205183D01*
X0040800Y0203584D02*
X0042800Y0203584D01*
X0043388Y0201986D02*
X0041500Y0201986D01*
X0037100Y0198789D02*
X0031900Y0198789D01*
X0033498Y0200387D02*
X0035553Y0200387D01*
X0037100Y0197190D02*
X0030301Y0197190D01*
X0028703Y0195592D02*
X0037100Y0195592D01*
X0037100Y0193993D02*
X0027104Y0193993D01*
X0025506Y0192395D02*
X0037100Y0192395D01*
X0037100Y0190796D02*
X0032605Y0190796D01*
X0032596Y0190800D02*
X0025804Y0190800D01*
X0024334Y0190191D01*
X0023209Y0189066D01*
X0022600Y0187596D01*
X0022600Y0186004D01*
X0023209Y0184534D01*
X0024334Y0183409D01*
X0025804Y0182800D01*
X0032596Y0182800D01*
X0034066Y0183409D01*
X0035191Y0184534D01*
X0035800Y0186004D01*
X0035800Y0187596D01*
X0035191Y0189066D01*
X0034066Y0190191D01*
X0032596Y0190800D01*
X0035059Y0189198D02*
X0037100Y0189198D01*
X0037100Y0187599D02*
X0035799Y0187599D01*
X0035798Y0186001D02*
X0037100Y0186001D01*
X0037100Y0184402D02*
X0035059Y0184402D01*
X0037100Y0182803D02*
X0032604Y0182803D01*
X0032596Y0180800D02*
X0025804Y0180800D01*
X0024334Y0180191D01*
X0023209Y0179066D01*
X0022600Y0177596D01*
X0022600Y0176004D01*
X0023209Y0174534D01*
X0024334Y0173409D01*
X0025804Y0172800D01*
X0032596Y0172800D01*
X0034066Y0173409D01*
X0035191Y0174534D01*
X0035800Y0176004D01*
X0035800Y0177596D01*
X0035191Y0179066D01*
X0034066Y0180191D01*
X0032596Y0180800D01*
X0034650Y0179606D02*
X0036700Y0179606D01*
X0037021Y0178008D02*
X0035629Y0178008D01*
X0035800Y0176409D02*
X0038298Y0176409D01*
X0036700Y0174811D02*
X0035306Y0174811D01*
X0035101Y0173212D02*
X0033591Y0173212D01*
X0033503Y0171614D02*
X0021500Y0171614D01*
X0021500Y0173212D02*
X0024809Y0173212D01*
X0023094Y0174811D02*
X0021500Y0174811D01*
X0021500Y0176409D02*
X0022600Y0176409D01*
X0022771Y0178008D02*
X0021500Y0178008D01*
X0021500Y0179606D02*
X0023750Y0179606D01*
X0021500Y0181205D02*
X0037100Y0181205D01*
X0042922Y0174811D02*
X0051700Y0174811D01*
X0051700Y0176409D02*
X0044521Y0176409D01*
X0046119Y0178008D02*
X0051700Y0178008D01*
X0051700Y0179606D02*
X0047718Y0179606D01*
X0049316Y0181205D02*
X0052528Y0181205D01*
X0054127Y0182803D02*
X0050915Y0182803D01*
X0052513Y0184402D02*
X0055725Y0184402D01*
X0057324Y0186001D02*
X0054000Y0186001D01*
X0054000Y0187599D02*
X0057801Y0187599D01*
X0058541Y0189198D02*
X0054000Y0189198D01*
X0054000Y0190796D02*
X0054402Y0190796D01*
X0054232Y0192395D02*
X0054000Y0192395D01*
X0054000Y0193993D02*
X0055316Y0193993D01*
X0054000Y0195592D02*
X0057480Y0195592D01*
X0059079Y0197190D02*
X0055301Y0197190D01*
X0056900Y0198789D02*
X0060677Y0198789D01*
X0061800Y0196800D02*
X0074300Y0196800D01*
X0074300Y0231800D01*
X0068650Y0232357D02*
X0065750Y0232357D01*
X0065750Y0230759D02*
X0068650Y0230759D01*
X0068650Y0229160D02*
X0065750Y0229160D01*
X0065750Y0227562D02*
X0068650Y0227562D01*
X0068650Y0225963D02*
X0065750Y0225963D01*
X0065244Y0224365D02*
X0069156Y0224365D01*
X0070103Y0222766D02*
X0064297Y0222766D01*
X0061800Y0231800D02*
X0059400Y0231800D01*
X0061800Y0231800D02*
X0061800Y0266800D01*
X0059438Y0266800D01*
X0065857Y0265926D02*
X0068609Y0265926D01*
X0068609Y0264328D02*
X0065857Y0264328D01*
X0065857Y0262729D02*
X0068609Y0262729D01*
X0068609Y0261131D02*
X0065857Y0261131D01*
X0065455Y0259532D02*
X0069011Y0259532D01*
X0069796Y0257934D02*
X0064670Y0257934D01*
X0064000Y0256335D02*
X0071399Y0256335D01*
X0072100Y0254737D02*
X0064000Y0254737D01*
X0064000Y0253138D02*
X0072100Y0253138D01*
X0072100Y0251539D02*
X0064000Y0251539D01*
X0064000Y0249941D02*
X0072100Y0249941D01*
X0072100Y0248342D02*
X0064000Y0248342D01*
X0064000Y0246744D02*
X0072100Y0246744D01*
X0072100Y0245145D02*
X0064000Y0245145D01*
X0064000Y0243547D02*
X0072100Y0243547D01*
X0071218Y0241948D02*
X0064000Y0241948D01*
X0064780Y0240350D02*
X0069620Y0240350D01*
X0068956Y0238751D02*
X0065444Y0238751D01*
X0065750Y0237153D02*
X0068650Y0237153D01*
X0068650Y0235554D02*
X0065750Y0235554D01*
X0065750Y0233956D02*
X0068650Y0233956D01*
X0081800Y0219300D02*
X0076800Y0214300D01*
X0076800Y0201800D01*
X0086800Y0191800D01*
X0086800Y0181800D01*
X0081800Y0176800D01*
X0083591Y0173212D02*
X0087100Y0173212D01*
X0087100Y0171614D02*
X0074000Y0171614D01*
X0074000Y0170015D02*
X0074159Y0170015D01*
X0071800Y0171800D02*
X0071800Y0106800D01*
X0066800Y0101800D01*
X0074300Y0106800D02*
X0074300Y0094300D01*
X0081800Y0086800D01*
X0080797Y0091688D02*
X0080023Y0091688D01*
X0078424Y0093287D02*
X0094600Y0093287D01*
X0094600Y0094885D02*
X0082685Y0094885D01*
X0082830Y0094908D02*
X0082146Y0094800D01*
X0081800Y0094800D01*
X0081800Y0101800D01*
X0086200Y0101800D01*
X0086200Y0104746D01*
X0086092Y0105430D01*
X0085878Y0106089D01*
X0085563Y0106706D01*
X0085156Y0107266D01*
X0084666Y0107756D01*
X0084106Y0108163D01*
X0083489Y0108478D01*
X0082830Y0108692D01*
X0082146Y0108800D01*
X0081800Y0108800D01*
X0081800Y0101800D01*
X0081800Y0101800D01*
X0081800Y0101800D01*
X0086200Y0101800D01*
X0086200Y0098854D01*
X0086092Y0098170D01*
X0085878Y0097511D01*
X0085563Y0096894D01*
X0085156Y0096334D01*
X0084666Y0095844D01*
X0084106Y0095437D01*
X0083489Y0095122D01*
X0082830Y0094908D01*
X0081800Y0094885D02*
X0081800Y0094885D01*
X0081800Y0094800D02*
X0081800Y0101800D01*
X0081800Y0101800D01*
X0081800Y0101800D01*
X0077400Y0101800D01*
X0077400Y0104746D01*
X0077508Y0105430D01*
X0077722Y0106089D01*
X0078037Y0106706D01*
X0078444Y0107266D01*
X0078934Y0107756D01*
X0079494Y0108163D01*
X0080111Y0108478D01*
X0080770Y0108692D01*
X0081454Y0108800D01*
X0081800Y0108800D01*
X0081800Y0101800D01*
X0077400Y0101800D01*
X0077400Y0098854D01*
X0077508Y0098170D01*
X0077722Y0097511D01*
X0078037Y0096894D01*
X0078444Y0096334D01*
X0078934Y0095844D01*
X0079494Y0095437D01*
X0080111Y0095122D01*
X0080770Y0094908D01*
X0081454Y0094800D01*
X0081800Y0094800D01*
X0080915Y0094885D02*
X0076826Y0094885D01*
X0076500Y0096484D02*
X0078335Y0096484D01*
X0077537Y0098082D02*
X0076500Y0098082D01*
X0076500Y0099681D02*
X0077400Y0099681D01*
X0077400Y0101279D02*
X0076500Y0101279D01*
X0076500Y0102878D02*
X0077400Y0102878D01*
X0077400Y0104476D02*
X0076500Y0104476D01*
X0076686Y0106075D02*
X0077718Y0106075D01*
X0078285Y0107673D02*
X0078851Y0107673D01*
X0079883Y0109272D02*
X0103717Y0109272D01*
X0104183Y0107673D02*
X0104600Y0107673D01*
X0106800Y0109300D02*
X0104300Y0111800D01*
X0104300Y0121800D01*
X0094300Y0131800D01*
X0092370Y0130053D02*
X0091500Y0130053D01*
X0091500Y0131651D02*
X0091700Y0131651D01*
X0091500Y0133250D02*
X0092086Y0133250D01*
X0091500Y0134848D02*
X0101700Y0134848D01*
X0101700Y0136447D02*
X0091500Y0136447D01*
X0091500Y0138045D02*
X0101700Y0138045D01*
X0101700Y0139644D02*
X0091500Y0139644D01*
X0091500Y0141242D02*
X0101700Y0141242D01*
X0101700Y0142841D02*
X0091500Y0142841D01*
X0091500Y0144439D02*
X0101700Y0144439D01*
X0101700Y0146038D02*
X0091500Y0146038D01*
X0091500Y0147636D02*
X0092287Y0147636D01*
X0096313Y0147636D02*
X0101700Y0147636D01*
X0111800Y0136800D02*
X0119300Y0136800D01*
X0119300Y0134300D01*
X0121800Y0131800D01*
X0121800Y0124300D01*
X0124300Y0121800D01*
X0141800Y0121800D01*
X0141800Y0101800D01*
X0149300Y0094300D01*
X0147800Y0099681D02*
X0147030Y0099681D01*
X0147800Y0101279D02*
X0145800Y0101279D01*
X0145800Y0102878D02*
X0147800Y0102878D01*
X0147800Y0104476D02*
X0145800Y0104476D01*
X0145436Y0106075D02*
X0147100Y0106075D01*
X0147100Y0107673D02*
X0144183Y0107673D01*
X0144000Y0109272D02*
X0147100Y0109272D01*
X0147100Y0110870D02*
X0144000Y0110870D01*
X0144000Y0112469D02*
X0147100Y0112469D01*
X0147100Y0114068D02*
X0144000Y0114068D01*
X0144000Y0115666D02*
X0147100Y0115666D01*
X0147100Y0117265D02*
X0144000Y0117265D01*
X0144000Y0118863D02*
X0147100Y0118863D01*
X0147100Y0120462D02*
X0144000Y0120462D01*
X0144000Y0122060D02*
X0147100Y0122060D01*
X0147100Y0123659D02*
X0143053Y0123659D01*
X0147100Y0125257D02*
X0135490Y0125257D01*
X0135800Y0126856D02*
X0147100Y0126856D01*
X0147100Y0128454D02*
X0136565Y0128454D01*
X0131800Y0126800D02*
X0139300Y0134300D01*
X0151500Y0128454D02*
X0152277Y0128454D01*
X0151700Y0126856D02*
X0151500Y0126856D01*
X0151500Y0125257D02*
X0152100Y0125257D01*
X0152100Y0123659D02*
X0151500Y0123659D01*
X0151500Y0122060D02*
X0152100Y0122060D01*
X0152100Y0120462D02*
X0151500Y0120462D01*
X0151500Y0118863D02*
X0152100Y0118863D01*
X0152100Y0117265D02*
X0151500Y0117265D01*
X0151500Y0115666D02*
X0152100Y0115666D01*
X0152100Y0114068D02*
X0151500Y0114068D01*
X0151500Y0112469D02*
X0153020Y0112469D01*
X0151500Y0110870D02*
X0154618Y0110870D01*
X0156217Y0109272D02*
X0151500Y0109272D01*
X0154183Y0107673D02*
X0157815Y0107673D01*
X0158164Y0106075D02*
X0155436Y0106075D01*
X0155800Y0104476D02*
X0157800Y0104476D01*
X0157800Y0102878D02*
X0155800Y0102878D01*
X0155800Y0101279D02*
X0157800Y0101279D01*
X0157800Y0099681D02*
X0157030Y0099681D01*
X0161500Y0094885D02*
X0167100Y0094885D01*
X0167100Y0093287D02*
X0161500Y0093287D01*
X0162803Y0091688D02*
X0167100Y0091688D01*
X0167100Y0096484D02*
X0164741Y0096484D01*
X0165667Y0098082D02*
X0167100Y0098082D01*
X0175440Y0090090D02*
X0177899Y0090090D01*
X0177197Y0088491D02*
X0176403Y0088491D01*
X0176700Y0086893D02*
X0176900Y0086893D01*
X0177120Y0085294D02*
X0176480Y0085294D01*
X0175625Y0083696D02*
X0177975Y0083696D01*
X0180349Y0082097D02*
X0173251Y0082097D01*
X0183251Y0082097D02*
X0190349Y0082097D01*
X0193251Y0082097D02*
X0194600Y0082097D01*
X0186800Y0106800D02*
X0191800Y0111800D01*
X0177100Y0114068D02*
X0169924Y0114068D01*
X0170860Y0115666D02*
X0177100Y0115666D01*
X0177100Y0117265D02*
X0171000Y0117265D01*
X0170475Y0118863D02*
X0177100Y0118863D01*
X0194300Y0136800D02*
X0219300Y0111800D01*
X0219300Y0091800D01*
X0221800Y0089300D01*
X0221800Y0086800D01*
X0221800Y0084300D01*
X0219300Y0081800D01*
X0219300Y0076800D01*
X0104300Y0076800D01*
X0096800Y0084300D01*
X0096800Y0094300D01*
X0099300Y0096800D01*
X0099300Y0099300D01*
X0101800Y0101800D01*
X0097800Y0101279D02*
X0095800Y0101279D01*
X0095800Y0099681D02*
X0097100Y0099681D01*
X0097100Y0098082D02*
X0095667Y0098082D01*
X0095800Y0098404D02*
X0095800Y0105196D01*
X0095191Y0106666D01*
X0094066Y0107791D01*
X0092596Y0108400D01*
X0091004Y0108400D01*
X0089534Y0107791D01*
X0088409Y0106666D01*
X0087800Y0105196D01*
X0087800Y0098404D01*
X0088409Y0096934D01*
X0089534Y0095809D01*
X0091004Y0095200D01*
X0092596Y0095200D01*
X0094066Y0095809D01*
X0095191Y0096934D01*
X0095800Y0098404D01*
X0095873Y0096484D02*
X0094741Y0096484D01*
X0094600Y0091688D02*
X0093880Y0091688D01*
X0091900Y0091688D02*
X0091700Y0091688D01*
X0091700Y0090090D02*
X0091900Y0090090D01*
X0091900Y0088491D02*
X0091700Y0088491D01*
X0091700Y0085294D02*
X0091900Y0085294D01*
X0091900Y0083696D02*
X0091700Y0083696D01*
X0091700Y0082097D02*
X0091900Y0082097D01*
X0094245Y0082097D02*
X0095891Y0082097D01*
X0097490Y0080499D02*
X0081212Y0080499D01*
X0080349Y0082097D02*
X0079614Y0082097D01*
X0076588Y0078900D02*
X0072811Y0078900D01*
X0074410Y0077302D02*
X0078187Y0077302D01*
X0079785Y0075703D02*
X0076008Y0075703D01*
X0077607Y0074105D02*
X0081384Y0074105D01*
X0082983Y0072506D02*
X0079205Y0072506D01*
X0080804Y0070908D02*
X0084581Y0070908D01*
X0086180Y0069309D02*
X0082402Y0069309D01*
X0084001Y0067711D02*
X0087778Y0067711D01*
X0089377Y0066112D02*
X0085599Y0066112D01*
X0087198Y0064514D02*
X0090975Y0064514D01*
X0092574Y0062915D02*
X0088796Y0062915D01*
X0090395Y0061317D02*
X0094172Y0061317D01*
X0095771Y0059718D02*
X0091993Y0059718D01*
X0093592Y0058120D02*
X0097369Y0058120D01*
X0098968Y0056521D02*
X0095190Y0056521D01*
X0096789Y0054923D02*
X0100566Y0054923D01*
X0102165Y0053324D02*
X0098387Y0053324D01*
X0099986Y0051726D02*
X0103763Y0051726D01*
X0105362Y0050127D02*
X0101584Y0050127D01*
X0103183Y0048529D02*
X0106960Y0048529D01*
X0108559Y0046930D02*
X0104781Y0046930D01*
X0106380Y0045332D02*
X0110157Y0045332D01*
X0111756Y0043733D02*
X0107978Y0043733D01*
X0109577Y0042134D02*
X0113354Y0042134D01*
X0114953Y0040536D02*
X0111175Y0040536D01*
X0112774Y0038937D02*
X0116551Y0038937D01*
X0118150Y0037339D02*
X0114372Y0037339D01*
X0115971Y0035740D02*
X0119748Y0035740D01*
X0121347Y0034142D02*
X0117569Y0034142D01*
X0119168Y0032543D02*
X0122945Y0032543D01*
X0122775Y0031700D02*
X0120825Y0031700D01*
X0120250Y0031462D01*
X0059000Y0092711D01*
X0057711Y0094000D01*
X0039000Y0094000D01*
X0039000Y0095782D01*
X0039066Y0095809D01*
X0040191Y0096934D01*
X0040800Y0098404D01*
X0040800Y0105196D01*
X0040191Y0106666D01*
X0039066Y0107791D01*
X0037596Y0108400D01*
X0036004Y0108400D01*
X0034534Y0107791D01*
X0033409Y0106666D01*
X0032800Y0105196D01*
X0032800Y0098404D01*
X0033409Y0096934D01*
X0034534Y0095809D01*
X0034600Y0095782D01*
X0034600Y0090889D01*
X0035889Y0089600D01*
X0055889Y0089600D01*
X0113749Y0031739D01*
X0113041Y0031969D01*
X0112217Y0032100D01*
X0111900Y0032100D01*
X0111900Y0026900D01*
X0111700Y0026900D01*
X0111700Y0032100D01*
X0111383Y0032100D01*
X0110559Y0031969D01*
X0109766Y0031712D01*
X0109022Y0031333D01*
X0108347Y0030843D01*
X0107757Y0030253D01*
X0107267Y0029578D01*
X0106888Y0028834D01*
X0106630Y0028041D01*
X0106619Y0027970D01*
X0105954Y0029576D01*
X0104576Y0030954D01*
X0102775Y0031700D01*
X0100825Y0031700D01*
X0099024Y0030954D01*
X0097646Y0029576D01*
X0096900Y0027775D01*
X0096900Y0025825D01*
X0097646Y0024024D01*
X0099024Y0022646D01*
X0100825Y0021900D01*
X0102775Y0021900D01*
X0104576Y0022646D01*
X0105954Y0024024D01*
X0106619Y0025630D01*
X0106630Y0025559D01*
X0106888Y0024766D01*
X0107267Y0024022D01*
X0107757Y0023347D01*
X0108347Y0022757D01*
X0109022Y0022267D01*
X0109766Y0021888D01*
X0110559Y0021630D01*
X0111383Y0021500D01*
X0111700Y0021500D01*
X0111700Y0026700D01*
X0111900Y0026700D01*
X0111900Y0021500D01*
X0112217Y0021500D01*
X0113041Y0021630D01*
X0113834Y0021888D01*
X0114578Y0022267D01*
X0115253Y0022757D01*
X0115843Y0023347D01*
X0116333Y0024022D01*
X0116712Y0024766D01*
X0116969Y0025559D01*
X0116981Y0025630D01*
X0117646Y0024024D01*
X0119024Y0022646D01*
X0120825Y0021900D01*
X0122775Y0021900D01*
X0124576Y0022646D01*
X0125954Y0024024D01*
X0126700Y0025825D01*
X0126700Y0027775D01*
X0125954Y0029576D01*
X0124576Y0030954D01*
X0122775Y0031700D01*
X0124585Y0030945D02*
X0129015Y0030945D01*
X0129024Y0030954D02*
X0127646Y0029576D01*
X0126900Y0027775D01*
X0126900Y0025825D01*
X0127646Y0024024D01*
X0129024Y0022646D01*
X0130825Y0021900D01*
X0132775Y0021900D01*
X0134576Y0022646D01*
X0135954Y0024024D01*
X0136700Y0025825D01*
X0136700Y0027775D01*
X0135954Y0029576D01*
X0134576Y0030954D01*
X0132775Y0031700D01*
X0130825Y0031700D01*
X0129024Y0030954D01*
X0127551Y0029346D02*
X0126049Y0029346D01*
X0126700Y0027748D02*
X0126900Y0027748D01*
X0126900Y0026149D02*
X0126700Y0026149D01*
X0126172Y0024551D02*
X0127428Y0024551D01*
X0128718Y0022952D02*
X0124882Y0022952D01*
X0121800Y0026800D02*
X0056800Y0091800D01*
X0036800Y0091800D01*
X0036800Y0101800D01*
X0040800Y0101279D02*
X0042800Y0101279D01*
X0042800Y0099681D02*
X0040800Y0099681D01*
X0040667Y0098082D02*
X0042933Y0098082D01*
X0043859Y0096484D02*
X0039741Y0096484D01*
X0039000Y0094885D02*
X0060603Y0094885D01*
X0062202Y0093287D02*
X0058424Y0093287D01*
X0060023Y0091688D02*
X0063800Y0091688D01*
X0065399Y0090090D02*
X0061621Y0090090D01*
X0063220Y0088491D02*
X0066997Y0088491D01*
X0068596Y0086893D02*
X0064818Y0086893D01*
X0066417Y0085294D02*
X0070194Y0085294D01*
X0071793Y0083696D02*
X0068015Y0083696D01*
X0069614Y0082097D02*
X0073391Y0082097D01*
X0074990Y0080499D02*
X0071212Y0080499D01*
X0069785Y0075703D02*
X0046480Y0075703D01*
X0046451Y0075885D02*
X0046219Y0076599D01*
X0045878Y0077268D01*
X0045437Y0077875D01*
X0044906Y0078406D01*
X0044299Y0078847D01*
X0043630Y0079188D01*
X0042917Y0079420D01*
X0042175Y0079537D01*
X0041984Y0079537D01*
X0041984Y0071984D01*
X0046568Y0071984D01*
X0046568Y0075144D01*
X0046451Y0075885D01*
X0045854Y0077302D02*
X0068187Y0077302D01*
X0066588Y0078900D02*
X0044194Y0078900D01*
X0041984Y0078900D02*
X0041616Y0078900D01*
X0041616Y0079537D02*
X0041425Y0079537D01*
X0040683Y0079420D01*
X0039970Y0079188D01*
X0039301Y0078847D01*
X0038694Y0078406D01*
X0038163Y0077875D01*
X0037722Y0077268D01*
X0037381Y0076599D01*
X0037149Y0075885D01*
X0037031Y0075144D01*
X0037031Y0071984D01*
X0041616Y0071984D01*
X0041616Y0071616D01*
X0041984Y0071616D01*
X0041984Y0064063D01*
X0042175Y0064063D01*
X0042917Y0064180D01*
X0043630Y0064412D01*
X0044299Y0064753D01*
X0044906Y0065194D01*
X0045437Y0065725D01*
X0045878Y0066332D01*
X0046219Y0067001D01*
X0046451Y0067715D01*
X0046568Y0068456D01*
X0046568Y0071616D01*
X0041984Y0071616D01*
X0041984Y0071984D01*
X0041616Y0071984D01*
X0041616Y0079537D01*
X0041616Y0077302D02*
X0041984Y0077302D01*
X0041984Y0075703D02*
X0041616Y0075703D01*
X0041616Y0074105D02*
X0041984Y0074105D01*
X0041984Y0072506D02*
X0041616Y0072506D01*
X0041616Y0071616D02*
X0037031Y0071616D01*
X0037031Y0068456D01*
X0037149Y0067715D01*
X0037381Y0067001D01*
X0037722Y0066332D01*
X0038163Y0065725D01*
X0038694Y0065194D01*
X0039301Y0064753D01*
X0039970Y0064412D01*
X0040683Y0064180D01*
X0041425Y0064063D01*
X0041616Y0064063D01*
X0041616Y0071616D01*
X0041616Y0070908D02*
X0041984Y0070908D01*
X0041984Y0069309D02*
X0041616Y0069309D01*
X0041616Y0067711D02*
X0041984Y0067711D01*
X0041984Y0066112D02*
X0041616Y0066112D01*
X0041616Y0064514D02*
X0041984Y0064514D01*
X0043829Y0064514D02*
X0080975Y0064514D01*
X0079377Y0066112D02*
X0045718Y0066112D01*
X0046450Y0067711D02*
X0077778Y0067711D01*
X0076180Y0069309D02*
X0046568Y0069309D01*
X0046568Y0070908D02*
X0074581Y0070908D01*
X0072983Y0072506D02*
X0046568Y0072506D01*
X0046568Y0074105D02*
X0071384Y0074105D01*
X0064990Y0080499D02*
X0024400Y0080499D01*
X0024400Y0082097D02*
X0063391Y0082097D01*
X0061793Y0083696D02*
X0024400Y0083696D01*
X0024400Y0085294D02*
X0060194Y0085294D01*
X0058596Y0086893D02*
X0024400Y0086893D01*
X0024400Y0088491D02*
X0056997Y0088491D01*
X0053859Y0096484D02*
X0049741Y0096484D01*
X0050667Y0098082D02*
X0052933Y0098082D01*
X0052800Y0099681D02*
X0050800Y0099681D01*
X0050800Y0101279D02*
X0052800Y0101279D01*
X0052800Y0102878D02*
X0050800Y0102878D01*
X0050800Y0104476D02*
X0052800Y0104476D01*
X0052100Y0106075D02*
X0050436Y0106075D01*
X0049183Y0107673D02*
X0052100Y0107673D01*
X0052100Y0109272D02*
X0049000Y0109272D01*
X0049000Y0110870D02*
X0052100Y0110870D01*
X0052100Y0112469D02*
X0049000Y0112469D01*
X0049000Y0114068D02*
X0052100Y0114068D01*
X0052100Y0115666D02*
X0049000Y0115666D01*
X0049000Y0117265D02*
X0052100Y0117265D01*
X0052100Y0118863D02*
X0049000Y0118863D01*
X0049000Y0120462D02*
X0052100Y0120462D01*
X0052100Y0122060D02*
X0049000Y0122060D01*
X0049000Y0123659D02*
X0052100Y0123659D01*
X0052100Y0125257D02*
X0049000Y0125257D01*
X0049400Y0126856D02*
X0052100Y0126856D01*
X0052035Y0128454D02*
X0048823Y0128454D01*
X0048730Y0130053D02*
X0049870Y0130053D01*
X0051800Y0131800D02*
X0054300Y0129300D01*
X0054300Y0106800D01*
X0056800Y0104300D01*
X0056800Y0101800D01*
X0124300Y0034300D01*
X0139300Y0034300D01*
X0139300Y0031800D01*
X0141800Y0029300D01*
X0141800Y0026800D01*
X0144882Y0022952D02*
X0148718Y0022952D01*
X0149024Y0022646D02*
X0150825Y0021900D01*
X0152775Y0021900D01*
X0154576Y0022646D01*
X0155954Y0024024D01*
X0156700Y0025825D01*
X0156700Y0027775D01*
X0155954Y0029576D01*
X0154576Y0030954D01*
X0152775Y0031700D01*
X0150825Y0031700D01*
X0149024Y0030954D01*
X0147646Y0029576D01*
X0146900Y0027775D01*
X0146900Y0025825D01*
X0147646Y0024024D01*
X0149024Y0022646D01*
X0147428Y0024551D02*
X0146172Y0024551D01*
X0146700Y0026149D02*
X0146900Y0026149D01*
X0146900Y0027748D02*
X0146700Y0027748D01*
X0146049Y0029346D02*
X0147551Y0029346D01*
X0149015Y0030945D02*
X0144585Y0030945D01*
X0141668Y0032543D02*
X0228701Y0032543D01*
X0228701Y0030945D02*
X0224585Y0030945D01*
X0224576Y0030954D02*
X0222775Y0031700D01*
X0220825Y0031700D01*
X0219024Y0030954D01*
X0217646Y0029576D01*
X0216900Y0027775D01*
X0216900Y0025825D01*
X0217646Y0024024D01*
X0219024Y0022646D01*
X0220825Y0021900D01*
X0222775Y0021900D01*
X0224576Y0022646D01*
X0225954Y0024024D01*
X0226700Y0025825D01*
X0226700Y0027775D01*
X0225954Y0029576D01*
X0224576Y0030954D01*
X0226049Y0029346D02*
X0228701Y0029346D01*
X0228701Y0027748D02*
X0226700Y0027748D01*
X0226700Y0026149D02*
X0228701Y0026149D01*
X0228701Y0024551D02*
X0226172Y0024551D01*
X0224882Y0022952D02*
X0228701Y0022952D01*
X0228701Y0021354D02*
X0201965Y0021354D01*
X0201500Y0019755D02*
X0228701Y0019755D01*
X0218718Y0022952D02*
X0214882Y0022952D01*
X0214576Y0022646D02*
X0215954Y0024024D01*
X0216700Y0025825D01*
X0216700Y0027775D01*
X0215954Y0029576D01*
X0214576Y0030954D01*
X0212775Y0031700D01*
X0210825Y0031700D01*
X0209024Y0030954D01*
X0207646Y0029576D01*
X0206900Y0027775D01*
X0206900Y0025825D01*
X0207646Y0024024D01*
X0209024Y0022646D01*
X0210825Y0021900D01*
X0212775Y0021900D01*
X0214576Y0022646D01*
X0216172Y0024551D02*
X0217428Y0024551D01*
X0216900Y0026149D02*
X0216700Y0026149D01*
X0216700Y0027748D02*
X0216900Y0027748D01*
X0217551Y0029346D02*
X0216049Y0029346D01*
X0214585Y0030945D02*
X0219015Y0030945D01*
X0209015Y0030945D02*
X0204585Y0030945D01*
X0206049Y0029346D02*
X0207551Y0029346D01*
X0206900Y0027748D02*
X0206700Y0027748D01*
X0206700Y0026149D02*
X0206900Y0026149D01*
X0207428Y0024551D02*
X0206172Y0024551D01*
X0204882Y0022952D02*
X0208718Y0022952D01*
X0201800Y0024300D02*
X0201800Y0026800D01*
X0201800Y0024300D02*
X0199300Y0021800D01*
X0199300Y0019300D01*
X0076800Y0019300D01*
X0031800Y0064300D01*
X0031800Y0071800D01*
X0036168Y0072506D02*
X0037031Y0072506D01*
X0037031Y0070908D02*
X0036168Y0070908D01*
X0036168Y0069309D02*
X0037031Y0069309D01*
X0037150Y0067711D02*
X0036064Y0067711D01*
X0035259Y0066112D02*
X0037881Y0066112D01*
X0039771Y0064514D02*
X0034698Y0064514D01*
X0036296Y0062915D02*
X0082574Y0062915D01*
X0084172Y0061317D02*
X0037895Y0061317D01*
X0039493Y0059718D02*
X0085771Y0059718D01*
X0087369Y0058120D02*
X0041092Y0058120D01*
X0042690Y0056521D02*
X0088968Y0056521D01*
X0090566Y0054923D02*
X0044289Y0054923D01*
X0045887Y0053324D02*
X0092165Y0053324D01*
X0093763Y0051726D02*
X0047486Y0051726D01*
X0049084Y0050127D02*
X0095362Y0050127D01*
X0096960Y0048529D02*
X0050683Y0048529D01*
X0052281Y0046930D02*
X0098559Y0046930D01*
X0100157Y0045332D02*
X0053880Y0045332D01*
X0055478Y0043733D02*
X0101756Y0043733D01*
X0103354Y0042134D02*
X0057077Y0042134D01*
X0058675Y0040536D02*
X0104953Y0040536D01*
X0106551Y0038937D02*
X0060274Y0038937D01*
X0061872Y0037339D02*
X0108150Y0037339D01*
X0109748Y0035740D02*
X0063471Y0035740D01*
X0065069Y0034142D02*
X0111347Y0034142D01*
X0112945Y0032543D02*
X0066668Y0032543D01*
X0068266Y0030945D02*
X0076965Y0030945D01*
X0076900Y0030880D02*
X0076900Y0022720D01*
X0077720Y0021900D01*
X0085880Y0021900D01*
X0086700Y0022720D01*
X0086700Y0030880D01*
X0085880Y0031700D01*
X0077720Y0031700D01*
X0076900Y0030880D01*
X0076900Y0029346D02*
X0069865Y0029346D01*
X0071463Y0027748D02*
X0076900Y0027748D01*
X0076900Y0026149D02*
X0073062Y0026149D01*
X0074660Y0024551D02*
X0076900Y0024551D01*
X0076900Y0022952D02*
X0076259Y0022952D01*
X0073233Y0019755D02*
X0013600Y0019755D01*
X0013600Y0021354D02*
X0071635Y0021354D01*
X0070036Y0022952D02*
X0013600Y0022952D01*
X0013600Y0024551D02*
X0068438Y0024551D01*
X0066839Y0026149D02*
X0013600Y0026149D01*
X0013600Y0027748D02*
X0065241Y0027748D01*
X0063642Y0029346D02*
X0043427Y0029346D01*
X0043630Y0029412D02*
X0044299Y0029753D01*
X0044906Y0030194D01*
X0045437Y0030725D01*
X0045878Y0031332D01*
X0046219Y0032001D01*
X0046451Y0032715D01*
X0046568Y0033456D01*
X0046568Y0036616D01*
X0041984Y0036616D01*
X0041984Y0029063D01*
X0042175Y0029063D01*
X0042917Y0029180D01*
X0043630Y0029412D01*
X0041984Y0029346D02*
X0041616Y0029346D01*
X0041616Y0029063D02*
X0041616Y0036616D01*
X0041984Y0036616D01*
X0041984Y0036984D01*
X0046568Y0036984D01*
X0046568Y0040144D01*
X0046451Y0040885D01*
X0046219Y0041599D01*
X0045878Y0042268D01*
X0045437Y0042875D01*
X0044906Y0043406D01*
X0044299Y0043847D01*
X0043630Y0044188D01*
X0042917Y0044420D01*
X0042175Y0044537D01*
X0041984Y0044537D01*
X0041984Y0036984D01*
X0041616Y0036984D01*
X0041616Y0036616D01*
X0037031Y0036616D01*
X0037031Y0033456D01*
X0037149Y0032715D01*
X0037381Y0032001D01*
X0037722Y0031332D01*
X0038163Y0030725D01*
X0038694Y0030194D01*
X0039301Y0029753D01*
X0039970Y0029412D01*
X0040683Y0029180D01*
X0041425Y0029063D01*
X0041616Y0029063D01*
X0040172Y0029346D02*
X0013600Y0029346D01*
X0013600Y0030945D02*
X0018509Y0030945D01*
X0017605Y0032543D02*
X0013600Y0032543D01*
X0013600Y0034142D02*
X0017431Y0034142D01*
X0017431Y0035740D02*
X0013600Y0035740D01*
X0013600Y0037339D02*
X0017431Y0037339D01*
X0017431Y0038937D02*
X0013600Y0038937D01*
X0013600Y0040536D02*
X0017431Y0040536D01*
X0018052Y0042134D02*
X0013600Y0042134D01*
X0013600Y0043733D02*
X0019200Y0043733D01*
X0019200Y0045332D02*
X0013600Y0045332D01*
X0013600Y0046930D02*
X0019200Y0046930D01*
X0019200Y0048529D02*
X0013600Y0048529D01*
X0013600Y0050127D02*
X0019200Y0050127D01*
X0019200Y0051726D02*
X0013600Y0051726D01*
X0013600Y0053324D02*
X0019200Y0053324D01*
X0019200Y0054923D02*
X0013600Y0054923D01*
X0013600Y0056521D02*
X0019200Y0056521D01*
X0019200Y0058120D02*
X0013600Y0058120D01*
X0013600Y0059718D02*
X0019200Y0059718D01*
X0019200Y0061317D02*
X0013600Y0061317D01*
X0013600Y0062915D02*
X0019200Y0062915D01*
X0019200Y0064514D02*
X0013600Y0064514D01*
X0013600Y0066112D02*
X0018341Y0066112D01*
X0017536Y0067711D02*
X0013600Y0067711D01*
X0013600Y0069309D02*
X0017431Y0069309D01*
X0017431Y0070908D02*
X0013600Y0070908D01*
X0013600Y0072506D02*
X0017431Y0072506D01*
X0017431Y0074105D02*
X0013600Y0074105D01*
X0013600Y0075703D02*
X0017459Y0075703D01*
X0018155Y0077302D02*
X0013600Y0077302D01*
X0013600Y0078900D02*
X0019200Y0078900D01*
X0019200Y0080499D02*
X0013600Y0080499D01*
X0013600Y0082097D02*
X0019200Y0082097D01*
X0019200Y0083696D02*
X0013600Y0083696D01*
X0013600Y0085294D02*
X0019200Y0085294D01*
X0019200Y0086893D02*
X0013600Y0086893D01*
X0013600Y0088491D02*
X0019200Y0088491D01*
X0019200Y0090090D02*
X0013600Y0090090D01*
X0013600Y0091688D02*
X0018235Y0091688D01*
X0016905Y0093287D02*
X0013600Y0093287D01*
X0013600Y0094885D02*
X0016700Y0094885D01*
X0016700Y0096484D02*
X0013600Y0096484D01*
X0013600Y0098082D02*
X0016700Y0098082D01*
X0016700Y0099681D02*
X0013600Y0099681D01*
X0013600Y0101279D02*
X0016700Y0101279D01*
X0016700Y0102878D02*
X0013600Y0102878D01*
X0013600Y0104476D02*
X0016700Y0104476D01*
X0016700Y0106075D02*
X0013600Y0106075D01*
X0013600Y0107673D02*
X0016848Y0107673D01*
X0018095Y0109272D02*
X0013600Y0109272D01*
X0013600Y0110870D02*
X0019694Y0110870D01*
X0021292Y0112469D02*
X0013600Y0112469D01*
X0013600Y0114068D02*
X0022980Y0114068D01*
X0022740Y0115666D02*
X0013600Y0115666D01*
X0013600Y0117265D02*
X0022600Y0117265D01*
X0023125Y0118863D02*
X0013600Y0118863D01*
X0013600Y0120462D02*
X0024987Y0120462D01*
X0025804Y0122800D02*
X0024334Y0123409D01*
X0023209Y0124534D01*
X0022600Y0126004D01*
X0022600Y0127596D01*
X0023209Y0129066D01*
X0024334Y0130191D01*
X0025804Y0130800D01*
X0032596Y0130800D01*
X0034066Y0130191D01*
X0035191Y0129066D01*
X0035800Y0127596D01*
X0035800Y0126004D01*
X0035191Y0124534D01*
X0034066Y0123409D01*
X0032596Y0122800D01*
X0025804Y0122800D01*
X0024085Y0123659D02*
X0013600Y0123659D01*
X0013600Y0125257D02*
X0022910Y0125257D01*
X0022600Y0126856D02*
X0013600Y0126856D01*
X0013600Y0128454D02*
X0022956Y0128454D01*
X0024196Y0130053D02*
X0013600Y0130053D01*
X0013600Y0131651D02*
X0042974Y0131651D01*
X0041376Y0130053D02*
X0034204Y0130053D01*
X0035444Y0128454D02*
X0039777Y0128454D01*
X0039200Y0126856D02*
X0035800Y0126856D01*
X0035490Y0125257D02*
X0039200Y0125257D01*
X0039200Y0123659D02*
X0034315Y0123659D01*
X0033413Y0120462D02*
X0039200Y0120462D01*
X0039200Y0122060D02*
X0013600Y0122060D01*
X0013600Y0133250D02*
X0024719Y0133250D01*
X0023787Y0139644D02*
X0019000Y0139644D01*
X0019000Y0141242D02*
X0051700Y0141242D01*
X0051700Y0142841D02*
X0032694Y0142841D01*
X0035096Y0144439D02*
X0051700Y0144439D01*
X0051700Y0146038D02*
X0035800Y0146038D01*
X0035783Y0147636D02*
X0051700Y0147636D01*
X0051700Y0149235D02*
X0035022Y0149235D01*
X0031800Y0146800D02*
X0024300Y0146800D01*
X0024300Y0149300D01*
X0019300Y0154300D01*
X0019300Y0189300D01*
X0031800Y0201800D01*
X0031800Y0211800D01*
X0034300Y0214300D01*
X0044300Y0214300D01*
X0044300Y0211800D01*
X0046800Y0209300D01*
X0046800Y0206800D01*
X0050800Y0208380D02*
X0052800Y0208380D01*
X0052800Y0209978D02*
X0050800Y0209978D01*
X0050228Y0211577D02*
X0053372Y0211577D01*
X0055462Y0213175D02*
X0048138Y0213175D01*
X0042800Y0209978D02*
X0040800Y0209978D01*
X0040800Y0208380D02*
X0042800Y0208380D01*
X0042100Y0211577D02*
X0040228Y0211577D01*
X0041800Y0216800D02*
X0041800Y0231800D01*
X0043800Y0231800D01*
X0041800Y0231800D02*
X0041800Y0266800D01*
X0043847Y0266800D01*
X0029300Y0266800D02*
X0028257Y0266800D01*
X0029300Y0266800D02*
X0029300Y0231800D01*
X0028200Y0231800D01*
X0022156Y0238751D02*
X0013600Y0238751D01*
X0013600Y0237153D02*
X0021850Y0237153D01*
X0021850Y0235554D02*
X0013600Y0235554D01*
X0013600Y0233956D02*
X0021850Y0233956D01*
X0021850Y0232357D02*
X0013600Y0232357D01*
X0013600Y0230759D02*
X0021850Y0230759D01*
X0021850Y0229160D02*
X0013600Y0229160D01*
X0013600Y0227562D02*
X0021850Y0227562D01*
X0021850Y0225963D02*
X0013600Y0225963D01*
X0013600Y0224365D02*
X0022356Y0224365D01*
X0023303Y0222766D02*
X0013600Y0222766D01*
X0013600Y0221168D02*
X0025325Y0221168D01*
X0022359Y0217971D02*
X0013600Y0217971D01*
X0013600Y0219569D02*
X0039600Y0219569D01*
X0041800Y0216800D02*
X0024300Y0216800D01*
X0016800Y0209300D01*
X0016800Y0136800D01*
X0031800Y0136800D01*
X0034613Y0139644D02*
X0050967Y0139644D01*
X0049368Y0138045D02*
X0035614Y0138045D01*
X0035800Y0136447D02*
X0047770Y0136447D01*
X0046171Y0134848D02*
X0035321Y0134848D01*
X0033681Y0133250D02*
X0044573Y0133250D01*
X0046800Y0126800D02*
X0046800Y0101800D01*
X0042800Y0102878D02*
X0040800Y0102878D01*
X0040800Y0104476D02*
X0042800Y0104476D01*
X0043164Y0106075D02*
X0040436Y0106075D01*
X0039183Y0107673D02*
X0044417Y0107673D01*
X0044600Y0109272D02*
X0042491Y0109272D01*
X0044229Y0110870D02*
X0044600Y0110870D01*
X0044600Y0112469D02*
X0044400Y0112469D01*
X0044400Y0114068D02*
X0044600Y0114068D01*
X0044600Y0115666D02*
X0044400Y0115666D01*
X0044400Y0117265D02*
X0044600Y0117265D01*
X0044600Y0118863D02*
X0044400Y0118863D01*
X0044400Y0120462D02*
X0044600Y0120462D01*
X0044600Y0122060D02*
X0044400Y0122060D01*
X0044400Y0123659D02*
X0044600Y0123659D01*
X0044600Y0125257D02*
X0044400Y0125257D01*
X0039200Y0118863D02*
X0035275Y0118863D01*
X0035800Y0117265D02*
X0039200Y0117265D01*
X0039200Y0115666D02*
X0035660Y0115666D01*
X0034417Y0107673D02*
X0029749Y0107673D01*
X0029666Y0107756D02*
X0029106Y0108163D01*
X0028489Y0108478D01*
X0027830Y0108692D01*
X0027146Y0108800D01*
X0026800Y0108800D01*
X0026800Y0101800D01*
X0031200Y0101800D01*
X0031200Y0104746D01*
X0031092Y0105430D01*
X0030878Y0106089D01*
X0030563Y0106706D01*
X0030156Y0107266D01*
X0029666Y0107756D01*
X0030882Y0106075D02*
X0033164Y0106075D01*
X0032800Y0104476D02*
X0031200Y0104476D01*
X0031200Y0102878D02*
X0032800Y0102878D01*
X0032800Y0101279D02*
X0031200Y0101279D01*
X0031200Y0101800D02*
X0031200Y0098854D01*
X0031092Y0098170D01*
X0030878Y0097511D01*
X0030563Y0096894D01*
X0030156Y0096334D01*
X0029666Y0095844D01*
X0029106Y0095437D01*
X0028489Y0095122D01*
X0027830Y0094908D01*
X0027146Y0094800D01*
X0026800Y0094800D01*
X0026800Y0101800D01*
X0026800Y0101800D01*
X0026800Y0101800D01*
X0031200Y0101800D01*
X0031200Y0099681D02*
X0032800Y0099681D01*
X0032933Y0098082D02*
X0031063Y0098082D01*
X0030265Y0096484D02*
X0033859Y0096484D01*
X0034600Y0094885D02*
X0027685Y0094885D01*
X0026800Y0094885D02*
X0026800Y0094885D01*
X0026800Y0094800D02*
X0026800Y0101800D01*
X0026800Y0101800D01*
X0026800Y0101800D01*
X0022400Y0101800D01*
X0022400Y0104746D01*
X0022508Y0105430D01*
X0022722Y0106089D01*
X0023037Y0106706D01*
X0023444Y0107266D01*
X0023934Y0107756D01*
X0024494Y0108163D01*
X0025111Y0108478D01*
X0025770Y0108692D01*
X0026454Y0108800D01*
X0026800Y0108800D01*
X0026800Y0101800D01*
X0022400Y0101800D01*
X0022400Y0098854D01*
X0022508Y0098170D01*
X0022722Y0097511D01*
X0023037Y0096894D01*
X0023444Y0096334D01*
X0023934Y0095844D01*
X0024494Y0095437D01*
X0025111Y0095122D01*
X0025770Y0094908D01*
X0026454Y0094800D01*
X0026800Y0094800D01*
X0025915Y0094885D02*
X0022392Y0094885D01*
X0021900Y0096484D02*
X0023335Y0096484D01*
X0022537Y0098082D02*
X0021900Y0098082D01*
X0021900Y0099681D02*
X0022400Y0099681D01*
X0022400Y0101279D02*
X0021900Y0101279D01*
X0021900Y0102878D02*
X0022400Y0102878D01*
X0022400Y0104476D02*
X0021900Y0104476D01*
X0022252Y0106075D02*
X0022718Y0106075D01*
X0023850Y0107673D02*
X0023851Y0107673D01*
X0026800Y0107673D02*
X0026800Y0107673D01*
X0026800Y0106075D02*
X0026800Y0106075D01*
X0026800Y0104476D02*
X0026800Y0104476D01*
X0026800Y0102878D02*
X0026800Y0102878D01*
X0026800Y0101279D02*
X0026800Y0101279D01*
X0026800Y0099681D02*
X0026800Y0099681D01*
X0026800Y0098082D02*
X0026800Y0098082D01*
X0026800Y0096484D02*
X0026800Y0096484D01*
X0023990Y0093287D02*
X0034600Y0093287D01*
X0034600Y0091688D02*
X0024400Y0091688D01*
X0024400Y0090090D02*
X0035399Y0090090D01*
X0033240Y0078900D02*
X0039406Y0078900D01*
X0037746Y0077302D02*
X0035445Y0077302D01*
X0036141Y0075703D02*
X0037120Y0075703D01*
X0037031Y0074105D02*
X0036168Y0074105D01*
X0030360Y0078900D02*
X0024400Y0078900D01*
X0025445Y0077302D02*
X0028155Y0077302D01*
X0027459Y0075703D02*
X0026141Y0075703D01*
X0026168Y0074105D02*
X0027431Y0074105D01*
X0027431Y0072506D02*
X0026168Y0072506D01*
X0026168Y0070908D02*
X0027431Y0070908D01*
X0027431Y0069309D02*
X0026168Y0069309D01*
X0026064Y0067711D02*
X0027536Y0067711D01*
X0028341Y0066112D02*
X0025259Y0066112D01*
X0024400Y0064514D02*
X0029600Y0064514D01*
X0030074Y0062915D02*
X0024400Y0062915D01*
X0024400Y0061317D02*
X0031672Y0061317D01*
X0033271Y0059718D02*
X0024400Y0059718D01*
X0024400Y0058120D02*
X0034869Y0058120D01*
X0036468Y0056521D02*
X0024400Y0056521D01*
X0024400Y0054923D02*
X0038066Y0054923D01*
X0039665Y0053324D02*
X0024400Y0053324D01*
X0024400Y0051726D02*
X0041263Y0051726D01*
X0042862Y0050127D02*
X0024400Y0050127D01*
X0024400Y0048529D02*
X0044460Y0048529D01*
X0046059Y0046930D02*
X0024400Y0046930D01*
X0024400Y0045332D02*
X0047657Y0045332D01*
X0049256Y0043733D02*
X0044456Y0043733D01*
X0045946Y0042134D02*
X0050854Y0042134D01*
X0052453Y0040536D02*
X0046506Y0040536D01*
X0046568Y0038937D02*
X0054051Y0038937D01*
X0055650Y0037339D02*
X0046568Y0037339D01*
X0046568Y0035740D02*
X0057248Y0035740D01*
X0058847Y0034142D02*
X0046568Y0034142D01*
X0046395Y0032543D02*
X0060445Y0032543D01*
X0062044Y0030945D02*
X0045597Y0030945D01*
X0041984Y0030945D02*
X0041616Y0030945D01*
X0041616Y0032543D02*
X0041984Y0032543D01*
X0041984Y0034142D02*
X0041616Y0034142D01*
X0041616Y0035740D02*
X0041984Y0035740D01*
X0041616Y0036984D02*
X0037031Y0036984D01*
X0037031Y0040144D01*
X0037149Y0040885D01*
X0037381Y0041599D01*
X0037722Y0042268D01*
X0038163Y0042875D01*
X0038694Y0043406D01*
X0039301Y0043847D01*
X0039970Y0044188D01*
X0040683Y0044420D01*
X0041425Y0044537D01*
X0041616Y0044537D01*
X0041616Y0036984D01*
X0041616Y0037339D02*
X0041984Y0037339D01*
X0041984Y0038937D02*
X0041616Y0038937D01*
X0041616Y0040536D02*
X0041984Y0040536D01*
X0041984Y0042134D02*
X0041616Y0042134D01*
X0041616Y0043733D02*
X0041984Y0043733D01*
X0039144Y0043733D02*
X0033644Y0043733D01*
X0034275Y0043472D02*
X0032669Y0044137D01*
X0030931Y0044137D01*
X0029325Y0043472D01*
X0028097Y0042243D01*
X0027431Y0040637D01*
X0027431Y0032963D01*
X0028097Y0031357D01*
X0029325Y0030128D01*
X0030931Y0029463D01*
X0032669Y0029463D01*
X0034275Y0030128D01*
X0035503Y0031357D01*
X0036168Y0032963D01*
X0036168Y0040637D01*
X0035503Y0042243D01*
X0034275Y0043472D01*
X0035548Y0042134D02*
X0037654Y0042134D01*
X0037094Y0040536D02*
X0036168Y0040536D01*
X0036168Y0038937D02*
X0037031Y0038937D01*
X0037031Y0037339D02*
X0036168Y0037339D01*
X0036168Y0035740D02*
X0037031Y0035740D01*
X0037031Y0034142D02*
X0036168Y0034142D01*
X0035995Y0032543D02*
X0037205Y0032543D01*
X0038003Y0030945D02*
X0035091Y0030945D01*
X0028509Y0030945D02*
X0025091Y0030945D01*
X0025995Y0032543D02*
X0027605Y0032543D01*
X0027431Y0034142D02*
X0026168Y0034142D01*
X0026168Y0035740D02*
X0027431Y0035740D01*
X0027431Y0037339D02*
X0026168Y0037339D01*
X0026168Y0038937D02*
X0027431Y0038937D01*
X0027431Y0040536D02*
X0026168Y0040536D01*
X0025548Y0042134D02*
X0028052Y0042134D01*
X0029956Y0043733D02*
X0024400Y0043733D01*
X0074300Y0106800D02*
X0079300Y0111800D01*
X0089300Y0111800D01*
X0089300Y0194300D01*
X0089521Y0197190D02*
X0094079Y0197190D01*
X0095677Y0198789D02*
X0087923Y0198789D01*
X0083094Y0192395D02*
X0060506Y0192395D01*
X0060995Y0190796D02*
X0059198Y0190796D01*
X0056800Y0191800D02*
X0061800Y0196800D01*
X0062104Y0193993D02*
X0081496Y0193993D01*
X0079897Y0195592D02*
X0076203Y0195592D01*
X0076500Y0197190D02*
X0078299Y0197190D01*
X0076700Y0198789D02*
X0076500Y0198789D01*
X0072100Y0200387D02*
X0068047Y0200387D01*
X0070212Y0201986D02*
X0072100Y0201986D01*
X0072100Y0203584D02*
X0070800Y0203584D01*
X0070800Y0205183D02*
X0072100Y0205183D01*
X0072100Y0206781D02*
X0070800Y0206781D01*
X0070800Y0208380D02*
X0072100Y0208380D01*
X0072100Y0209978D02*
X0070800Y0209978D01*
X0070228Y0211577D02*
X0072100Y0211577D01*
X0056800Y0201800D02*
X0051800Y0196800D01*
X0051800Y0186800D01*
X0031800Y0166800D01*
X0035800Y0166818D02*
X0051700Y0166818D01*
X0051700Y0165220D02*
X0035475Y0165220D01*
X0034278Y0163621D02*
X0051700Y0163621D01*
X0051700Y0162023D02*
X0021500Y0162023D01*
X0021500Y0163621D02*
X0024122Y0163621D01*
X0022925Y0165220D02*
X0021500Y0165220D01*
X0021500Y0166818D02*
X0022600Y0166818D01*
X0022940Y0168417D02*
X0021500Y0168417D01*
X0021500Y0170015D02*
X0024159Y0170015D01*
X0025804Y0160800D02*
X0024334Y0160191D01*
X0023209Y0159066D01*
X0022600Y0157596D01*
X0022600Y0156004D01*
X0023209Y0154534D01*
X0024334Y0153409D01*
X0025804Y0152800D01*
X0032596Y0152800D01*
X0034066Y0153409D01*
X0035191Y0154534D01*
X0035800Y0156004D01*
X0035800Y0157596D01*
X0035191Y0159066D01*
X0034066Y0160191D01*
X0032596Y0160800D01*
X0025804Y0160800D01*
X0024897Y0160424D02*
X0021500Y0160424D01*
X0021500Y0158826D02*
X0023110Y0158826D01*
X0022600Y0157227D02*
X0021500Y0157227D01*
X0021500Y0155629D02*
X0022756Y0155629D01*
X0022681Y0154030D02*
X0023713Y0154030D01*
X0024279Y0152432D02*
X0051700Y0152432D01*
X0051700Y0154030D02*
X0034687Y0154030D01*
X0035644Y0155629D02*
X0051700Y0155629D01*
X0051700Y0157227D02*
X0035800Y0157227D01*
X0035290Y0158826D02*
X0051700Y0158826D01*
X0051700Y0160424D02*
X0033503Y0160424D01*
X0036528Y0168417D02*
X0051700Y0168417D01*
X0051700Y0170015D02*
X0038127Y0170015D01*
X0039725Y0171614D02*
X0051700Y0171614D01*
X0051700Y0173212D02*
X0041324Y0173212D01*
X0025796Y0182803D02*
X0021500Y0182803D01*
X0021500Y0184402D02*
X0023341Y0184402D01*
X0022602Y0186001D02*
X0021500Y0186001D01*
X0021500Y0187599D02*
X0022601Y0187599D01*
X0022309Y0189198D02*
X0023341Y0189198D01*
X0023907Y0190796D02*
X0025795Y0190796D01*
X0014600Y0190796D02*
X0013600Y0190796D01*
X0013600Y0189198D02*
X0014600Y0189198D01*
X0014600Y0187599D02*
X0013600Y0187599D01*
X0013600Y0186001D02*
X0014600Y0186001D01*
X0014600Y0184402D02*
X0013600Y0184402D01*
X0013600Y0182803D02*
X0014600Y0182803D01*
X0014600Y0181205D02*
X0013600Y0181205D01*
X0013600Y0179606D02*
X0014600Y0179606D01*
X0014600Y0178008D02*
X0013600Y0178008D01*
X0013600Y0176409D02*
X0014600Y0176409D01*
X0014600Y0174811D02*
X0013600Y0174811D01*
X0013600Y0173212D02*
X0014600Y0173212D01*
X0014600Y0171614D02*
X0013600Y0171614D01*
X0013600Y0170015D02*
X0014600Y0170015D01*
X0014600Y0168417D02*
X0013600Y0168417D01*
X0013600Y0166818D02*
X0014600Y0166818D01*
X0014600Y0165220D02*
X0013600Y0165220D01*
X0013600Y0163621D02*
X0014600Y0163621D01*
X0014600Y0162023D02*
X0013600Y0162023D01*
X0013600Y0160424D02*
X0014600Y0160424D01*
X0014600Y0158826D02*
X0013600Y0158826D01*
X0013600Y0157227D02*
X0014600Y0157227D01*
X0014600Y0155629D02*
X0013600Y0155629D01*
X0013600Y0154030D02*
X0014600Y0154030D01*
X0014600Y0152432D02*
X0013600Y0152432D01*
X0013600Y0150833D02*
X0014600Y0150833D01*
X0014600Y0149235D02*
X0013600Y0149235D01*
X0013600Y0147636D02*
X0014600Y0147636D01*
X0014600Y0146038D02*
X0013600Y0146038D01*
X0013600Y0144439D02*
X0014600Y0144439D01*
X0014600Y0142841D02*
X0013600Y0142841D01*
X0013600Y0141242D02*
X0014600Y0141242D01*
X0014600Y0139644D02*
X0013600Y0139644D01*
X0013600Y0138045D02*
X0014600Y0138045D01*
X0014600Y0136447D02*
X0013600Y0136447D01*
X0013600Y0134848D02*
X0015641Y0134848D01*
X0019000Y0142841D02*
X0025706Y0142841D01*
X0023304Y0144439D02*
X0019000Y0144439D01*
X0019000Y0146038D02*
X0022100Y0146038D01*
X0022100Y0147636D02*
X0019000Y0147636D01*
X0019000Y0149235D02*
X0021254Y0149235D01*
X0019655Y0150833D02*
X0019000Y0150833D01*
X0025211Y0151500D02*
X0025211Y0151500D01*
X0025878Y0150833D02*
X0051700Y0150833D01*
X0056900Y0166818D02*
X0057800Y0166818D01*
X0058140Y0168417D02*
X0056900Y0168417D01*
X0056900Y0170015D02*
X0059359Y0170015D01*
X0056900Y0171614D02*
X0068875Y0171614D01*
X0069441Y0170015D02*
X0069600Y0170015D01*
X0071800Y0171800D02*
X0069300Y0174300D01*
X0069300Y0176800D01*
X0061800Y0176800D01*
X0058950Y0179606D02*
X0058283Y0179606D01*
X0057971Y0178008D02*
X0056900Y0178008D01*
X0056900Y0176409D02*
X0057800Y0176409D01*
X0058294Y0174811D02*
X0056900Y0174811D01*
X0056900Y0173212D02*
X0060009Y0173212D01*
X0059882Y0181205D02*
X0083094Y0181205D01*
X0082604Y0182803D02*
X0084600Y0182803D01*
X0086119Y0178008D02*
X0087100Y0178008D01*
X0087100Y0176409D02*
X0085800Y0176409D01*
X0085306Y0174811D02*
X0087100Y0174811D01*
X0087100Y0170015D02*
X0084241Y0170015D01*
X0085460Y0168417D02*
X0087100Y0168417D01*
X0087100Y0166818D02*
X0085800Y0166818D01*
X0085475Y0165220D02*
X0087100Y0165220D01*
X0087100Y0163621D02*
X0086156Y0163621D01*
X0084300Y0161800D02*
X0086800Y0159300D01*
X0086800Y0131800D01*
X0081800Y0126800D01*
X0091500Y0126856D02*
X0096133Y0126856D01*
X0094535Y0128454D02*
X0091500Y0128454D01*
X0091500Y0125257D02*
X0097732Y0125257D01*
X0099330Y0123659D02*
X0091500Y0123659D01*
X0091500Y0122060D02*
X0100929Y0122060D01*
X0102100Y0120462D02*
X0091500Y0120462D01*
X0091500Y0118863D02*
X0102100Y0118863D01*
X0102100Y0117265D02*
X0091500Y0117265D01*
X0091500Y0115666D02*
X0102100Y0115666D01*
X0102100Y0114068D02*
X0091500Y0114068D01*
X0091500Y0112469D02*
X0102100Y0112469D01*
X0102118Y0110870D02*
X0091482Y0110870D01*
X0089417Y0107673D02*
X0084749Y0107673D01*
X0085882Y0106075D02*
X0088164Y0106075D01*
X0087800Y0104476D02*
X0086200Y0104476D01*
X0086200Y0102878D02*
X0087800Y0102878D01*
X0087800Y0101279D02*
X0086200Y0101279D01*
X0086200Y0099681D02*
X0087800Y0099681D01*
X0087933Y0098082D02*
X0086063Y0098082D01*
X0085265Y0096484D02*
X0088859Y0096484D01*
X0089720Y0091688D02*
X0082803Y0091688D01*
X0085440Y0090090D02*
X0087639Y0090090D01*
X0086777Y0088491D02*
X0086403Y0088491D01*
X0086480Y0085294D02*
X0086716Y0085294D01*
X0087504Y0083696D02*
X0085625Y0083696D01*
X0083251Y0082097D02*
X0089355Y0082097D01*
X0084410Y0077302D02*
X0100687Y0077302D01*
X0099088Y0078900D02*
X0082811Y0078900D01*
X0086008Y0075703D02*
X0102285Y0075703D01*
X0106800Y0084300D02*
X0106800Y0109300D01*
X0108341Y0110870D02*
X0139600Y0110870D01*
X0139600Y0109272D02*
X0109000Y0109272D01*
X0109000Y0107673D02*
X0109417Y0107673D01*
X0107711Y0111500D02*
X0107711Y0111500D01*
X0106742Y0112469D02*
X0139600Y0112469D01*
X0139600Y0114068D02*
X0134724Y0114068D01*
X0135660Y0115666D02*
X0139600Y0115666D01*
X0139600Y0117265D02*
X0135800Y0117265D01*
X0135275Y0118863D02*
X0139600Y0118863D01*
X0131800Y0101800D02*
X0131800Y0096800D01*
X0141800Y0086800D01*
X0145625Y0083696D02*
X0147975Y0083696D01*
X0147120Y0085294D02*
X0146480Y0085294D01*
X0143251Y0082097D02*
X0150349Y0082097D01*
X0140349Y0082097D02*
X0133251Y0082097D01*
X0135625Y0083696D02*
X0137975Y0083696D01*
X0137120Y0085294D02*
X0136480Y0085294D01*
X0136700Y0086893D02*
X0136900Y0086893D01*
X0136997Y0088491D02*
X0136403Y0088491D01*
X0130349Y0082097D02*
X0123251Y0082097D01*
X0125625Y0083696D02*
X0127975Y0083696D01*
X0127120Y0085294D02*
X0126480Y0085294D01*
X0126700Y0086893D02*
X0126900Y0086893D01*
X0127197Y0088491D02*
X0126403Y0088491D01*
X0125440Y0090090D02*
X0128160Y0090090D01*
X0120349Y0082097D02*
X0113251Y0082097D01*
X0115625Y0083696D02*
X0117975Y0083696D01*
X0117120Y0085294D02*
X0116480Y0085294D01*
X0116700Y0086893D02*
X0116900Y0086893D01*
X0117197Y0088491D02*
X0116403Y0088491D01*
X0115440Y0090090D02*
X0118160Y0090090D01*
X0118859Y0096484D02*
X0114741Y0096484D01*
X0115667Y0098082D02*
X0117933Y0098082D01*
X0117800Y0099681D02*
X0115800Y0099681D01*
X0115800Y0101279D02*
X0117800Y0101279D01*
X0117800Y0102878D02*
X0115800Y0102878D01*
X0115800Y0104476D02*
X0117800Y0104476D01*
X0118164Y0106075D02*
X0115436Y0106075D01*
X0114183Y0107673D02*
X0119417Y0107673D01*
X0117796Y0112800D02*
X0119266Y0113409D01*
X0120391Y0114534D01*
X0121000Y0116004D01*
X0121000Y0117596D01*
X0120391Y0119066D01*
X0119266Y0120191D01*
X0117796Y0120800D01*
X0111004Y0120800D01*
X0109534Y0120191D01*
X0108409Y0119066D01*
X0107800Y0117596D01*
X0107800Y0116004D01*
X0108409Y0114534D01*
X0109534Y0113409D01*
X0111004Y0112800D01*
X0117796Y0112800D01*
X0119924Y0114068D02*
X0123676Y0114068D01*
X0122740Y0115666D02*
X0120860Y0115666D01*
X0121000Y0117265D02*
X0122600Y0117265D01*
X0123125Y0118863D02*
X0120475Y0118863D01*
X0118613Y0120462D02*
X0122527Y0120462D01*
X0120929Y0122060D02*
X0106500Y0122060D01*
X0106500Y0120462D02*
X0110187Y0120462D01*
X0108325Y0118863D02*
X0106500Y0118863D01*
X0106500Y0117265D02*
X0107800Y0117265D01*
X0107940Y0115666D02*
X0106500Y0115666D01*
X0106500Y0114068D02*
X0108876Y0114068D01*
X0109285Y0123659D02*
X0105553Y0123659D01*
X0103954Y0125257D02*
X0108110Y0125257D01*
X0107800Y0126856D02*
X0102356Y0126856D01*
X0100757Y0128454D02*
X0106469Y0128454D01*
X0104870Y0130053D02*
X0099159Y0130053D01*
X0097560Y0131651D02*
X0103272Y0131651D01*
X0101921Y0133250D02*
X0096514Y0133250D01*
X0094183Y0107673D02*
X0099417Y0107673D01*
X0098164Y0106075D02*
X0095436Y0106075D01*
X0095800Y0104476D02*
X0097800Y0104476D01*
X0097800Y0102878D02*
X0095800Y0102878D01*
X0081800Y0102878D02*
X0081800Y0102878D01*
X0081800Y0104476D02*
X0081800Y0104476D01*
X0081800Y0106075D02*
X0081800Y0106075D01*
X0081800Y0107673D02*
X0081800Y0107673D01*
X0081800Y0101279D02*
X0081800Y0101279D01*
X0081800Y0099681D02*
X0081800Y0099681D01*
X0081800Y0098082D02*
X0081800Y0098082D01*
X0081800Y0096484D02*
X0081800Y0096484D01*
X0087607Y0074105D02*
X0228701Y0074105D01*
X0228701Y0075703D02*
X0221315Y0075703D01*
X0221500Y0077302D02*
X0228701Y0077302D01*
X0228701Y0078900D02*
X0221500Y0078900D01*
X0221500Y0080499D02*
X0228701Y0080499D01*
X0228701Y0082097D02*
X0223251Y0082097D01*
X0225625Y0083696D02*
X0228701Y0083696D01*
X0228701Y0085294D02*
X0226480Y0085294D01*
X0226700Y0086893D02*
X0228701Y0086893D01*
X0228701Y0088491D02*
X0226403Y0088491D01*
X0225440Y0090090D02*
X0228701Y0090090D01*
X0228701Y0091688D02*
X0222803Y0091688D01*
X0221500Y0093287D02*
X0228701Y0093287D01*
X0228701Y0094885D02*
X0221500Y0094885D01*
X0221500Y0096484D02*
X0228701Y0096484D01*
X0228701Y0098082D02*
X0221500Y0098082D01*
X0221500Y0099681D02*
X0228701Y0099681D01*
X0228701Y0101279D02*
X0221500Y0101279D01*
X0221500Y0102878D02*
X0228701Y0102878D01*
X0228701Y0104476D02*
X0221500Y0104476D01*
X0221500Y0106075D02*
X0228701Y0106075D01*
X0228701Y0107673D02*
X0221500Y0107673D01*
X0221500Y0109272D02*
X0228701Y0109272D01*
X0228701Y0110870D02*
X0221500Y0110870D01*
X0221500Y0112469D02*
X0228701Y0112469D01*
X0228701Y0114068D02*
X0220144Y0114068D01*
X0218545Y0115666D02*
X0228701Y0115666D01*
X0228701Y0117265D02*
X0216947Y0117265D01*
X0215348Y0118863D02*
X0228701Y0118863D01*
X0228701Y0120462D02*
X0213750Y0120462D01*
X0212151Y0122060D02*
X0228701Y0122060D01*
X0228701Y0123659D02*
X0210553Y0123659D01*
X0208954Y0125257D02*
X0228701Y0125257D01*
X0228701Y0126856D02*
X0207356Y0126856D01*
X0205757Y0128454D02*
X0228701Y0128454D01*
X0228701Y0130053D02*
X0204159Y0130053D01*
X0202560Y0131651D02*
X0228701Y0131651D01*
X0228701Y0133250D02*
X0200962Y0133250D01*
X0199363Y0134848D02*
X0228701Y0134848D01*
X0228701Y0136447D02*
X0197765Y0136447D01*
X0196598Y0138045D02*
X0228701Y0138045D01*
X0198211Y0141242D02*
X0195389Y0141242D01*
X0196118Y0142841D02*
X0197482Y0142841D01*
X0197431Y0144439D02*
X0196168Y0144439D01*
X0158578Y0149235D02*
X0156900Y0149235D01*
X0156900Y0147636D02*
X0157817Y0147636D01*
X0157361Y0146038D02*
X0156900Y0146038D01*
X0119600Y0123659D02*
X0119515Y0123659D01*
X0089205Y0072506D02*
X0228701Y0072506D01*
X0228701Y0070908D02*
X0090804Y0070908D01*
X0092402Y0069309D02*
X0228701Y0069309D01*
X0228701Y0067711D02*
X0094001Y0067711D01*
X0095599Y0066112D02*
X0228701Y0066112D01*
X0228701Y0064514D02*
X0097198Y0064514D01*
X0098796Y0062915D02*
X0228701Y0062915D01*
X0228701Y0061317D02*
X0100395Y0061317D01*
X0101993Y0059718D02*
X0228701Y0059718D01*
X0228701Y0058120D02*
X0103592Y0058120D01*
X0105190Y0056521D02*
X0228701Y0056521D01*
X0228701Y0054923D02*
X0106789Y0054923D01*
X0108387Y0053324D02*
X0228701Y0053324D01*
X0228701Y0051726D02*
X0109986Y0051726D01*
X0111584Y0050127D02*
X0228701Y0050127D01*
X0228701Y0048529D02*
X0113183Y0048529D01*
X0114781Y0046930D02*
X0228701Y0046930D01*
X0228701Y0045332D02*
X0116380Y0045332D01*
X0117978Y0043733D02*
X0228701Y0043733D01*
X0228701Y0042134D02*
X0119577Y0042134D01*
X0121175Y0040536D02*
X0228701Y0040536D01*
X0228701Y0038937D02*
X0122774Y0038937D01*
X0124372Y0037339D02*
X0228701Y0037339D01*
X0228701Y0035740D02*
X0140971Y0035740D01*
X0141500Y0034142D02*
X0228701Y0034142D01*
X0199015Y0030945D02*
X0194585Y0030945D01*
X0194576Y0030954D02*
X0192775Y0031700D01*
X0190825Y0031700D01*
X0189024Y0030954D01*
X0187646Y0029576D01*
X0186900Y0027775D01*
X0186900Y0025825D01*
X0187646Y0024024D01*
X0189024Y0022646D01*
X0190825Y0021900D01*
X0192775Y0021900D01*
X0194576Y0022646D01*
X0195954Y0024024D01*
X0196700Y0025825D01*
X0196700Y0027775D01*
X0195954Y0029576D01*
X0194576Y0030954D01*
X0196049Y0029346D02*
X0197551Y0029346D01*
X0196900Y0027748D02*
X0196700Y0027748D01*
X0196700Y0026149D02*
X0196900Y0026149D01*
X0197428Y0024551D02*
X0196172Y0024551D01*
X0197341Y0022952D02*
X0194882Y0022952D01*
X0188718Y0022952D02*
X0184882Y0022952D01*
X0184576Y0022646D02*
X0185954Y0024024D01*
X0186700Y0025825D01*
X0186700Y0027775D01*
X0185954Y0029576D01*
X0184576Y0030954D01*
X0182775Y0031700D01*
X0180825Y0031700D01*
X0179024Y0030954D01*
X0177646Y0029576D01*
X0176900Y0027775D01*
X0176900Y0025825D01*
X0177646Y0024024D01*
X0179024Y0022646D01*
X0180825Y0021900D01*
X0182775Y0021900D01*
X0184576Y0022646D01*
X0186172Y0024551D02*
X0187428Y0024551D01*
X0186900Y0026149D02*
X0186700Y0026149D01*
X0186700Y0027748D02*
X0186900Y0027748D01*
X0187551Y0029346D02*
X0186049Y0029346D01*
X0184585Y0030945D02*
X0189015Y0030945D01*
X0179015Y0030945D02*
X0174585Y0030945D01*
X0174576Y0030954D02*
X0172775Y0031700D01*
X0170825Y0031700D01*
X0169024Y0030954D01*
X0167646Y0029576D01*
X0166900Y0027775D01*
X0166900Y0025825D01*
X0167646Y0024024D01*
X0169024Y0022646D01*
X0170825Y0021900D01*
X0172775Y0021900D01*
X0174576Y0022646D01*
X0175954Y0024024D01*
X0176700Y0025825D01*
X0176700Y0027775D01*
X0175954Y0029576D01*
X0174576Y0030954D01*
X0176049Y0029346D02*
X0177551Y0029346D01*
X0176900Y0027748D02*
X0176700Y0027748D01*
X0176700Y0026149D02*
X0176900Y0026149D01*
X0177428Y0024551D02*
X0176172Y0024551D01*
X0174882Y0022952D02*
X0178718Y0022952D01*
X0168718Y0022952D02*
X0164882Y0022952D01*
X0164576Y0022646D02*
X0165954Y0024024D01*
X0166700Y0025825D01*
X0166700Y0027775D01*
X0165954Y0029576D01*
X0164576Y0030954D01*
X0162775Y0031700D01*
X0160825Y0031700D01*
X0159024Y0030954D01*
X0157646Y0029576D01*
X0156900Y0027775D01*
X0156900Y0025825D01*
X0157646Y0024024D01*
X0159024Y0022646D01*
X0160825Y0021900D01*
X0162775Y0021900D01*
X0164576Y0022646D01*
X0166172Y0024551D02*
X0167428Y0024551D01*
X0166900Y0026149D02*
X0166700Y0026149D01*
X0166700Y0027748D02*
X0166900Y0027748D01*
X0167551Y0029346D02*
X0166049Y0029346D01*
X0164585Y0030945D02*
X0169015Y0030945D01*
X0159015Y0030945D02*
X0154585Y0030945D01*
X0156049Y0029346D02*
X0157551Y0029346D01*
X0156900Y0027748D02*
X0156700Y0027748D01*
X0156700Y0026149D02*
X0156900Y0026149D01*
X0157428Y0024551D02*
X0156172Y0024551D01*
X0154882Y0022952D02*
X0158718Y0022952D01*
X0138718Y0022952D02*
X0134882Y0022952D01*
X0136172Y0024551D02*
X0137428Y0024551D01*
X0136900Y0026149D02*
X0136700Y0026149D01*
X0136700Y0027748D02*
X0136900Y0027748D01*
X0137551Y0029346D02*
X0136049Y0029346D01*
X0137100Y0030945D02*
X0134585Y0030945D01*
X0118718Y0022952D02*
X0115448Y0022952D01*
X0116602Y0024551D02*
X0117428Y0024551D01*
X0111900Y0024551D02*
X0111700Y0024551D01*
X0111700Y0026149D02*
X0111900Y0026149D01*
X0111900Y0027748D02*
X0111700Y0027748D01*
X0111700Y0029346D02*
X0111900Y0029346D01*
X0111900Y0030945D02*
X0111700Y0030945D01*
X0108488Y0030945D02*
X0104585Y0030945D01*
X0106049Y0029346D02*
X0107149Y0029346D01*
X0106998Y0024551D02*
X0106172Y0024551D01*
X0104882Y0022952D02*
X0108152Y0022952D01*
X0111700Y0022952D02*
X0111900Y0022952D01*
X0098718Y0022952D02*
X0094882Y0022952D01*
X0094576Y0022646D02*
X0095954Y0024024D01*
X0096700Y0025825D01*
X0096700Y0027775D01*
X0095954Y0029576D01*
X0094576Y0030954D01*
X0092775Y0031700D01*
X0090825Y0031700D01*
X0089024Y0030954D01*
X0087646Y0029576D01*
X0086900Y0027775D01*
X0086900Y0025825D01*
X0087646Y0024024D01*
X0089024Y0022646D01*
X0090825Y0021900D01*
X0092775Y0021900D01*
X0094576Y0022646D01*
X0096172Y0024551D02*
X0097428Y0024551D01*
X0096900Y0026149D02*
X0096700Y0026149D01*
X0096700Y0027748D02*
X0096900Y0027748D01*
X0097551Y0029346D02*
X0096049Y0029346D01*
X0094585Y0030945D02*
X0099015Y0030945D01*
X0089015Y0030945D02*
X0086635Y0030945D01*
X0086700Y0029346D02*
X0087551Y0029346D01*
X0086900Y0027748D02*
X0086700Y0027748D01*
X0086700Y0026149D02*
X0086900Y0026149D01*
X0086700Y0024551D02*
X0087428Y0024551D01*
X0086700Y0022952D02*
X0088718Y0022952D01*
X0074809Y0173212D02*
X0073499Y0173212D01*
X0073094Y0174811D02*
X0071900Y0174811D01*
X0071500Y0176409D02*
X0072600Y0176409D01*
X0072771Y0178008D02*
X0071203Y0178008D01*
X0069850Y0179606D02*
X0073750Y0179606D01*
X0075796Y0182803D02*
X0067804Y0182803D01*
X0070259Y0184402D02*
X0073341Y0184402D01*
X0072602Y0186001D02*
X0070998Y0186001D01*
X0070999Y0187599D02*
X0072601Y0187599D01*
X0073341Y0189198D02*
X0070259Y0189198D01*
X0067805Y0190796D02*
X0075795Y0190796D01*
X0082605Y0190796D02*
X0084600Y0190796D01*
X0027100Y0243547D02*
X0013600Y0243547D01*
X0013600Y0245145D02*
X0027100Y0245145D01*
X0027100Y0246744D02*
X0013600Y0246744D01*
X0013600Y0248342D02*
X0027100Y0248342D01*
X0027100Y0249941D02*
X0013600Y0249941D01*
X0013600Y0251539D02*
X0027100Y0251539D01*
X0027100Y0253138D02*
X0013600Y0253138D01*
X0013600Y0254737D02*
X0027100Y0254737D01*
X0024627Y0256335D02*
X0013600Y0256335D01*
X0013600Y0257934D02*
X0023025Y0257934D01*
X0022239Y0259532D02*
X0013600Y0259532D01*
X0013600Y0261131D02*
X0021837Y0261131D01*
X0021837Y0262729D02*
X0013600Y0262729D01*
X0013600Y0264328D02*
X0021837Y0264328D01*
X0021837Y0265926D02*
X0013600Y0265926D01*
X0013600Y0267525D02*
X0021837Y0267525D01*
X0021837Y0269123D02*
X0013600Y0269123D01*
X0013600Y0270722D02*
X0021837Y0270722D01*
X0021837Y0272320D02*
X0013600Y0272320D01*
X0013600Y0273919D02*
X0022177Y0273919D01*
X0022875Y0275517D02*
X0013600Y0275517D01*
X0013600Y0241948D02*
X0024418Y0241948D01*
X0022820Y0240350D02*
X0013600Y0240350D01*
X0013600Y0216372D02*
X0020761Y0216372D01*
X0019162Y0214774D02*
X0013600Y0214774D01*
X0013600Y0213175D02*
X0017564Y0213175D01*
X0015965Y0211577D02*
X0013600Y0211577D01*
X0013600Y0209978D02*
X0014600Y0209978D01*
X0014600Y0208380D02*
X0013600Y0208380D01*
X0013600Y0206781D02*
X0014600Y0206781D01*
X0014600Y0205183D02*
X0013600Y0205183D01*
X0013600Y0203584D02*
X0014600Y0203584D01*
X0014600Y0201986D02*
X0013600Y0201986D01*
X0013600Y0200387D02*
X0014600Y0200387D01*
X0014600Y0198789D02*
X0013600Y0198789D01*
X0013600Y0197190D02*
X0014600Y0197190D01*
X0014600Y0195592D02*
X0013600Y0195592D01*
X0013600Y0193993D02*
X0014600Y0193993D01*
X0014600Y0192395D02*
X0013600Y0192395D01*
D18*
X0039300Y0179300D03*
X0056800Y0191800D03*
X0084300Y0161800D03*
X0094300Y0149300D03*
X0094300Y0131800D03*
X0096800Y0181800D03*
X0096800Y0186800D03*
X0096800Y0191800D03*
X0106800Y0196800D03*
X0134300Y0171800D03*
X0144300Y0166800D03*
X0149300Y0161800D03*
X0146800Y0181800D03*
X0146800Y0186800D03*
X0176800Y0151800D03*
X0176800Y0141800D03*
X0194300Y0136800D03*
X0191800Y0111800D03*
X0186800Y0106800D03*
X0154300Y0126800D03*
X0179300Y0219300D03*
X0051800Y0131800D03*
X0046800Y0126800D03*
D19*
X0041800Y0126800D02*
X0054300Y0139300D01*
X0054300Y0159300D01*
X0054300Y0179300D01*
X0061800Y0186800D01*
X0061800Y0166800D02*
X0054300Y0159300D01*
X0061800Y0146800D02*
X0054300Y0139300D01*
X0054300Y0134300D01*
X0061800Y0126800D01*
X0041800Y0126800D02*
X0041800Y0111800D01*
X0024300Y0111800D01*
X0019300Y0106800D01*
X0019300Y0094300D01*
X0021800Y0091800D01*
X0021800Y0071800D01*
X0021800Y0036800D01*
X0111800Y0126800D02*
X0104300Y0134300D01*
X0104300Y0139300D01*
X0104300Y0159300D01*
X0104300Y0179300D01*
X0111800Y0186800D01*
X0111800Y0166800D02*
X0104300Y0159300D01*
X0111800Y0146800D02*
X0104300Y0139300D01*
X0154300Y0139300D02*
X0154300Y0134300D01*
X0161800Y0126800D01*
X0154300Y0139300D02*
X0154300Y0159300D01*
X0154300Y0179300D01*
X0161800Y0186800D01*
X0161800Y0166800D02*
X0154300Y0159300D01*
X0161800Y0146800D02*
X0154300Y0139300D01*
X0201800Y0146800D02*
X0201800Y0181800D01*
M02*
