%
M48
M72
T01C0.01200
T02C0.03200
T03C0.03600
T04C0.03937
T05C0.06600
T06C0.06693
%
T01
X46800Y126800
X51800Y131800
X84300Y161800
X94300Y149300
X94300Y131800
X96800Y181800
X96800Y186800
X96800Y191800
X106800Y196800
X134300Y171800
X144300Y166800
X149300Y161800
X146800Y181800
X146800Y186800
X176800Y151800
X176800Y141800
X194300Y136800
X191800Y111800
X186800Y106800
X154300Y126800
X179300Y219300
X56800Y191800
X39300Y179300
T02
X26800Y206800
X36800Y206800
X46800Y206800
X56800Y206800
X66800Y206800
X81800Y206800
X91800Y206800
X101800Y206800
X111800Y206800
X121800Y206800
X131800Y206800
X141800Y206800
X151800Y206800
X161800Y206800
X161800Y186800
X161800Y176800
X161800Y166800
X161800Y156800
X161800Y146800
X161800Y136800
X161800Y126800
X161800Y116800
X161800Y101800
X151800Y101800
X141800Y101800
X131800Y101800
X121800Y101800
X111800Y101800
X101800Y101800
X91800Y101800
X81800Y101800
X81800Y116800
X81800Y126800
X81800Y136800
X81800Y146800
X81800Y156800
X81800Y166800
X81800Y176800
X81800Y186800
X61800Y186800
X61800Y176800
X61800Y166800
X61800Y156800
X61800Y146800
X61800Y136800
X61800Y126800
X61800Y116800
X56800Y101800
X46800Y101800
X36800Y101800
X26800Y101800
X31800Y116800
X31800Y126800
X31800Y136800
X31800Y146800
X31800Y156800
X31800Y166800
X31800Y176800
X31800Y186800
X66800Y101800
X111800Y116800
X111800Y126800
X111800Y136800
X111800Y146800
X111800Y156800
X111800Y166800
X111800Y176800
X111800Y186800
X131800Y186800
X131800Y176800
X131800Y166800
X131800Y156800
X131800Y146800
X131800Y136800
X131800Y126800
X131800Y116800
T03
X81800Y26800
X91800Y26800
X101800Y26800
X111800Y26800
X121800Y26800
X131800Y26800
X141800Y26800
X151800Y26800
X161800Y26800
X171800Y26800
X181800Y26800
X191800Y26800
X201800Y26800
X211800Y26800
X221800Y26800
X221800Y86800
X211800Y86800
X201800Y86800
X191800Y86800
X181800Y86800
X171800Y86800
X161800Y86800
X151800Y86800
X141800Y86800
X131800Y86800
X121800Y86800
X111800Y86800
X101800Y86800
X91800Y86800
X81800Y86800
T04
X21800Y36800
X31800Y36800
X41800Y36800
X41800Y71800
X31800Y71800
X21800Y71800
X191800Y146800
X201800Y146800
X211800Y146800
X211800Y181800
X201800Y181800
X191800Y181800
T05
X28200Y231800
X43800Y231800
X59400Y231800
X75000Y231800
X90600Y231800
X106200Y231800
X121800Y231800
X137400Y231800
X153000Y231800
X168600Y231800
X184200Y231800
X199800Y231800
X215400Y231800
T06
X28257Y266800
X43847Y266800
X59438Y266800
X75028Y266800
X90619Y266800
X106209Y266800
X121800Y266800
X137391Y266800
X152981Y266800
X168572Y266800
X184162Y266800
X199753Y266800
X215343Y266800
M30
