G75*
%MOIN*%
%OFA0B0*%
%FSLAX25Y25*%
%IPPOS*%
%LPD*%
%AMOC8*
5,1,8,0,0,1.08239X$1,22.5*
%
%ADD10C,0.00000*%
%ADD11C,0.06337*%
%ADD12C,0.05600*%
%ADD13R,0.07400X0.07400*%
%ADD14C,0.07400*%
%ADD15C,0.10439*%
%ADD16C,0.10300*%
D10*
X0011800Y0016800D02*
X0011800Y0287076D01*
X0230501Y0287076D01*
X0230501Y0016800D01*
X0011800Y0016800D01*
D11*
X0021800Y0033831D02*
X0021800Y0039769D01*
X0031800Y0039769D02*
X0031800Y0033831D01*
X0041800Y0033831D02*
X0041800Y0039769D01*
X0041800Y0068831D02*
X0041800Y0074769D01*
X0031800Y0074769D02*
X0031800Y0068831D01*
X0021800Y0068831D02*
X0021800Y0074769D01*
X0191800Y0143831D02*
X0191800Y0149769D01*
X0201800Y0149769D02*
X0201800Y0143831D01*
X0211800Y0143831D02*
X0211800Y0149769D01*
X0211800Y0178831D02*
X0211800Y0184769D01*
X0201800Y0184769D02*
X0201800Y0178831D01*
X0191800Y0178831D02*
X0191800Y0184769D01*
D12*
X0167000Y0186800D02*
X0161800Y0186800D01*
X0161800Y0176800D02*
X0167000Y0176800D01*
X0167000Y0166800D02*
X0161800Y0166800D01*
X0161800Y0156800D02*
X0167000Y0156800D01*
X0167000Y0146800D02*
X0161800Y0146800D01*
X0161800Y0136800D02*
X0167000Y0136800D01*
X0167000Y0126800D02*
X0161800Y0126800D01*
X0161800Y0116800D02*
X0167000Y0116800D01*
X0161800Y0104400D02*
X0161800Y0099200D01*
X0151800Y0099200D02*
X0151800Y0104400D01*
X0141800Y0104400D02*
X0141800Y0099200D01*
X0131800Y0099200D02*
X0131800Y0104400D01*
X0121800Y0104400D02*
X0121800Y0099200D01*
X0111800Y0099200D02*
X0111800Y0104400D01*
X0101800Y0104400D02*
X0101800Y0099200D01*
X0091800Y0099200D02*
X0091800Y0104400D01*
X0081800Y0104400D02*
X0081800Y0099200D01*
X0066800Y0099200D02*
X0066800Y0104400D01*
X0056800Y0104400D02*
X0056800Y0099200D01*
X0046800Y0099200D02*
X0046800Y0104400D01*
X0036800Y0104400D02*
X0036800Y0099200D01*
X0026800Y0099200D02*
X0026800Y0104400D01*
X0026600Y0116800D02*
X0031800Y0116800D01*
X0031800Y0126800D02*
X0026600Y0126800D01*
X0026600Y0136800D02*
X0031800Y0136800D01*
X0031800Y0146800D02*
X0026600Y0146800D01*
X0026600Y0156800D02*
X0031800Y0156800D01*
X0031800Y0166800D02*
X0026600Y0166800D01*
X0026600Y0176800D02*
X0031800Y0176800D01*
X0031800Y0186800D02*
X0026600Y0186800D01*
X0026800Y0204200D02*
X0026800Y0209400D01*
X0036800Y0209400D02*
X0036800Y0204200D01*
X0046800Y0204200D02*
X0046800Y0209400D01*
X0056800Y0209400D02*
X0056800Y0204200D01*
X0066800Y0204200D02*
X0066800Y0209400D01*
X0081800Y0209400D02*
X0081800Y0204200D01*
X0091800Y0204200D02*
X0091800Y0209400D01*
X0101800Y0209400D02*
X0101800Y0204200D01*
X0111800Y0204200D02*
X0111800Y0209400D01*
X0121800Y0209400D02*
X0121800Y0204200D01*
X0131800Y0204200D02*
X0131800Y0209400D01*
X0141800Y0209400D02*
X0141800Y0204200D01*
X0151800Y0204200D02*
X0151800Y0209400D01*
X0161800Y0209400D02*
X0161800Y0204200D01*
X0131800Y0186800D02*
X0126600Y0186800D01*
X0117000Y0186800D02*
X0111800Y0186800D01*
X0111800Y0176800D02*
X0117000Y0176800D01*
X0126600Y0176800D02*
X0131800Y0176800D01*
X0131800Y0166800D02*
X0126600Y0166800D01*
X0117000Y0166800D02*
X0111800Y0166800D01*
X0111800Y0156800D02*
X0117000Y0156800D01*
X0126600Y0156800D02*
X0131800Y0156800D01*
X0131800Y0146800D02*
X0126600Y0146800D01*
X0117000Y0146800D02*
X0111800Y0146800D01*
X0111800Y0136800D02*
X0117000Y0136800D01*
X0126600Y0136800D02*
X0131800Y0136800D01*
X0131800Y0126800D02*
X0126600Y0126800D01*
X0117000Y0126800D02*
X0111800Y0126800D01*
X0111800Y0116800D02*
X0117000Y0116800D01*
X0126600Y0116800D02*
X0131800Y0116800D01*
X0081800Y0116800D02*
X0076600Y0116800D01*
X0076600Y0126800D02*
X0081800Y0126800D01*
X0081800Y0136800D02*
X0076600Y0136800D01*
X0067000Y0136800D02*
X0061800Y0136800D01*
X0061800Y0126800D02*
X0067000Y0126800D01*
X0067000Y0116800D02*
X0061800Y0116800D01*
X0061800Y0146800D02*
X0067000Y0146800D01*
X0067000Y0156800D02*
X0061800Y0156800D01*
X0061800Y0166800D02*
X0067000Y0166800D01*
X0076600Y0166800D02*
X0081800Y0166800D01*
X0081800Y0156800D02*
X0076600Y0156800D01*
X0076600Y0146800D02*
X0081800Y0146800D01*
X0081800Y0176800D02*
X0076600Y0176800D01*
X0076600Y0186800D02*
X0081800Y0186800D01*
X0067000Y0186800D02*
X0061800Y0186800D01*
X0061800Y0176800D02*
X0067000Y0176800D01*
D13*
X0081800Y0026800D03*
D14*
X0091800Y0026800D03*
X0101800Y0026800D03*
X0111800Y0026800D03*
X0121800Y0026800D03*
X0131800Y0026800D03*
X0141800Y0026800D03*
X0151800Y0026800D03*
X0161800Y0026800D03*
X0171800Y0026800D03*
X0181800Y0026800D03*
X0191800Y0026800D03*
X0201800Y0026800D03*
X0211800Y0026800D03*
X0221800Y0026800D03*
X0221800Y0086800D03*
X0211800Y0086800D03*
X0201800Y0086800D03*
X0191800Y0086800D03*
X0181800Y0086800D03*
X0171800Y0086800D03*
X0161800Y0086800D03*
X0151800Y0086800D03*
X0141800Y0086800D03*
X0131800Y0086800D03*
X0121800Y0086800D03*
X0111800Y0086800D03*
X0101800Y0086800D03*
X0091800Y0086800D03*
X0081800Y0086800D03*
D15*
X0075028Y0261780D02*
X0075028Y0271820D01*
X0059438Y0271820D02*
X0059438Y0261780D01*
X0043847Y0261780D02*
X0043847Y0271820D01*
X0028257Y0271820D02*
X0028257Y0261780D01*
X0090619Y0261780D02*
X0090619Y0271820D01*
X0106209Y0271820D02*
X0106209Y0261780D01*
X0121800Y0261780D02*
X0121800Y0271820D01*
X0137391Y0271820D02*
X0137391Y0261780D01*
X0152981Y0261780D02*
X0152981Y0271820D01*
X0168572Y0271820D02*
X0168572Y0261780D01*
X0184162Y0261780D02*
X0184162Y0271820D01*
X0199753Y0271820D02*
X0199753Y0261780D01*
X0215343Y0261780D02*
X0215343Y0271820D01*
D16*
X0215400Y0236750D02*
X0215400Y0226850D01*
X0199800Y0226850D02*
X0199800Y0236750D01*
X0184200Y0236750D02*
X0184200Y0226850D01*
X0168600Y0226850D02*
X0168600Y0236750D01*
X0153000Y0236750D02*
X0153000Y0226850D01*
X0137400Y0226850D02*
X0137400Y0236750D01*
X0121800Y0236750D02*
X0121800Y0226850D01*
X0106200Y0226850D02*
X0106200Y0236750D01*
X0090600Y0236750D02*
X0090600Y0226850D01*
X0075000Y0226850D02*
X0075000Y0236750D01*
X0059400Y0236750D02*
X0059400Y0226850D01*
X0043800Y0226850D02*
X0043800Y0236750D01*
X0028200Y0236750D02*
X0028200Y0226850D01*
M02*
