G75*
%MOIN*%
%OFA0B0*%
%FSLAX25Y25*%
%IPPOS*%
%LPD*%
%AMOC8*
5,1,8,0,0,1.08239X$1,22.5*
%
%ADD10C,0.00000*%
%ADD11C,0.00300*%
%ADD12C,0.00400*%
%ADD13C,0.00600*%
%ADD14C,0.00500*%
%ADD15C,0.01600*%
%ADD16C,0.01000*%
%ADD17C,0.00800*%
%ADD18C,0.01200*%
%ADD19R,0.04000X0.04000*%
D10*
X0011800Y0016800D02*
X0011800Y0287076D01*
X0230501Y0287076D01*
X0230501Y0016800D01*
X0011800Y0016800D01*
X0066800Y0021800D02*
X0236800Y0021800D01*
X0236800Y0091800D01*
X0066800Y0091800D01*
X0066800Y0021800D01*
D11*
X0043650Y0020633D02*
X0039947Y0020633D01*
X0043650Y0023102D01*
X0039947Y0023102D01*
X0039947Y0024316D02*
X0039947Y0026168D01*
X0040564Y0026785D01*
X0043033Y0026785D01*
X0043650Y0026168D01*
X0043650Y0024316D01*
X0039947Y0024316D01*
X0040564Y0019419D02*
X0039947Y0018802D01*
X0039947Y0017567D01*
X0040564Y0016950D01*
X0043033Y0016950D01*
X0043650Y0017567D01*
X0043650Y0018802D01*
X0043033Y0019419D01*
X0041798Y0019419D01*
X0041798Y0018184D01*
X0033650Y0022567D02*
X0033033Y0021950D01*
X0033650Y0022567D02*
X0033650Y0023802D01*
X0033033Y0024419D01*
X0032416Y0024419D01*
X0031798Y0023802D01*
X0031798Y0022567D01*
X0031181Y0021950D01*
X0030564Y0021950D01*
X0029947Y0022567D01*
X0029947Y0023802D01*
X0030564Y0024419D01*
X0029947Y0025633D02*
X0029947Y0026868D01*
X0029947Y0026250D02*
X0033650Y0026250D01*
X0033650Y0025633D02*
X0033650Y0026868D01*
X0033033Y0028089D02*
X0030564Y0028089D01*
X0029947Y0028706D01*
X0029947Y0029940D01*
X0030564Y0030557D01*
X0031798Y0030557D02*
X0031798Y0029323D01*
X0031798Y0030557D02*
X0033033Y0030557D01*
X0033650Y0029940D01*
X0033650Y0028706D01*
X0033033Y0028089D01*
X0070845Y0056950D02*
X0072058Y0058163D01*
X0070845Y0059377D01*
X0074485Y0059377D01*
X0073878Y0060575D02*
X0071451Y0060575D01*
X0070845Y0061182D01*
X0070845Y0062395D01*
X0071451Y0063002D01*
X0073878Y0063002D01*
X0074485Y0062395D01*
X0074485Y0061182D01*
X0073878Y0060575D01*
X0074485Y0056950D02*
X0070845Y0056950D01*
X0070845Y0064200D02*
X0070845Y0066020D01*
X0071451Y0066627D01*
X0073878Y0066627D01*
X0074485Y0066020D01*
X0074485Y0064200D01*
X0070845Y0064200D01*
X0070845Y0067825D02*
X0073878Y0067825D01*
X0074485Y0068432D01*
X0074485Y0069645D01*
X0073878Y0070252D01*
X0070845Y0070252D01*
X0070845Y0071451D02*
X0074485Y0071451D01*
X0074485Y0073877D01*
X0074485Y0075076D02*
X0074485Y0077502D01*
X0074485Y0076289D02*
X0070845Y0076289D01*
X0072058Y0075076D01*
X0189947Y0121868D02*
X0193650Y0121868D01*
X0193650Y0123102D02*
X0193650Y0120633D01*
X0191798Y0119419D02*
X0191798Y0116950D01*
X0190564Y0118184D02*
X0193033Y0118184D01*
X0191181Y0120633D02*
X0189947Y0121868D01*
X0190564Y0124316D02*
X0189947Y0124933D01*
X0189947Y0126168D01*
X0190564Y0126785D01*
X0191181Y0126785D01*
X0193650Y0124316D01*
X0193650Y0126785D01*
X0192416Y0127999D02*
X0193650Y0129234D01*
X0192416Y0130468D01*
X0189947Y0130468D01*
X0189947Y0127999D02*
X0192416Y0127999D01*
X0199947Y0126260D02*
X0202416Y0126260D01*
X0203650Y0125026D01*
X0202416Y0123792D01*
X0199947Y0123792D01*
X0199947Y0122577D02*
X0199947Y0120108D01*
X0201798Y0120108D01*
X0201181Y0121343D01*
X0201181Y0121960D01*
X0201798Y0122577D01*
X0203033Y0122577D01*
X0203650Y0121960D01*
X0203650Y0120726D01*
X0203033Y0120108D01*
X0201798Y0118894D02*
X0201798Y0116425D01*
X0200564Y0117660D02*
X0203033Y0117660D01*
X0209947Y0117567D02*
X0210564Y0116950D01*
X0213033Y0116950D01*
X0213650Y0117567D01*
X0213650Y0118802D01*
X0213033Y0119419D01*
X0211798Y0119419D01*
X0211798Y0118184D01*
X0210564Y0119419D02*
X0209947Y0118802D01*
X0209947Y0117567D01*
X0209947Y0120633D02*
X0213650Y0123102D01*
X0209947Y0123102D01*
X0209947Y0124316D02*
X0209947Y0126168D01*
X0210564Y0126785D01*
X0213033Y0126785D01*
X0213650Y0126168D01*
X0213650Y0124316D01*
X0209947Y0124316D01*
X0209947Y0120633D02*
X0213650Y0120633D01*
D12*
X0204135Y0162000D02*
X0202934Y0163201D01*
X0203534Y0163201D02*
X0201733Y0163201D01*
X0201733Y0162000D02*
X0201733Y0165603D01*
X0203534Y0165603D01*
X0204135Y0165003D01*
X0204135Y0163802D01*
X0203534Y0163201D01*
X0205416Y0163802D02*
X0207818Y0163802D01*
X0200451Y0165603D02*
X0198049Y0165603D01*
X0198049Y0162000D01*
X0200451Y0162000D01*
X0199250Y0163802D02*
X0198049Y0163802D01*
X0196768Y0162000D02*
X0196768Y0165603D01*
X0194366Y0165603D02*
X0194366Y0162000D01*
X0195567Y0163201D01*
X0196768Y0162000D01*
X0193085Y0162601D02*
X0193085Y0165003D01*
X0192485Y0165603D01*
X0191284Y0165603D01*
X0190683Y0165003D01*
X0190683Y0162601D01*
X0191284Y0162000D01*
X0192485Y0162000D01*
X0193085Y0162601D01*
X0189402Y0163802D02*
X0188802Y0163201D01*
X0187000Y0163201D01*
X0187000Y0162000D02*
X0187000Y0165603D01*
X0188802Y0165603D01*
X0189402Y0165003D01*
X0189402Y0163802D01*
X0191284Y0197000D02*
X0192485Y0197000D01*
X0193085Y0197601D01*
X0193085Y0200003D01*
X0192485Y0200603D01*
X0191284Y0200603D01*
X0190683Y0200003D01*
X0190683Y0197601D01*
X0191284Y0197000D01*
X0189402Y0198802D02*
X0188802Y0198201D01*
X0187000Y0198201D01*
X0187000Y0197000D02*
X0187000Y0200603D01*
X0188802Y0200603D01*
X0189402Y0200003D01*
X0189402Y0198802D01*
X0194366Y0200603D02*
X0194366Y0197000D01*
X0195567Y0198201D01*
X0196768Y0197000D01*
X0196768Y0200603D01*
X0198049Y0200603D02*
X0198049Y0197000D01*
X0200451Y0197000D01*
X0201733Y0197000D02*
X0201733Y0200603D01*
X0203534Y0200603D01*
X0204135Y0200003D01*
X0204135Y0198802D01*
X0203534Y0198201D01*
X0201733Y0198201D01*
X0202934Y0198201D02*
X0204135Y0197000D01*
X0200451Y0200603D02*
X0198049Y0200603D01*
X0198049Y0198802D02*
X0199250Y0198802D01*
X0034135Y0087000D02*
X0031733Y0087000D01*
X0032934Y0087000D02*
X0032934Y0090603D01*
X0031733Y0089402D01*
X0030451Y0088802D02*
X0028049Y0088802D01*
X0026768Y0090003D02*
X0026168Y0090603D01*
X0024366Y0090603D01*
X0024366Y0087000D01*
X0026168Y0087000D01*
X0026768Y0087601D01*
X0026768Y0090003D01*
X0023085Y0090603D02*
X0020683Y0090603D01*
X0020683Y0087000D01*
X0023085Y0087000D01*
X0021884Y0088802D02*
X0020683Y0088802D01*
X0019402Y0087000D02*
X0017000Y0087000D01*
X0017000Y0090603D01*
X0017000Y0055603D02*
X0017000Y0052000D01*
X0019402Y0052000D01*
X0020683Y0052000D02*
X0020683Y0055603D01*
X0023085Y0055603D01*
X0024366Y0055603D02*
X0024366Y0052000D01*
X0026168Y0052000D01*
X0026768Y0052601D01*
X0026768Y0055003D01*
X0026168Y0055603D01*
X0024366Y0055603D01*
X0023085Y0052000D02*
X0020683Y0052000D01*
X0020683Y0053802D02*
X0021884Y0053802D01*
X0028049Y0053802D02*
X0030451Y0053802D01*
X0031733Y0055003D02*
X0032333Y0055603D01*
X0033534Y0055603D01*
X0034135Y0055003D01*
X0034135Y0054402D01*
X0031733Y0052000D01*
X0034135Y0052000D01*
X0022565Y0027371D02*
X0019496Y0027371D01*
X0019496Y0024302D02*
X0022565Y0024302D01*
X0024100Y0025837D01*
X0022565Y0027371D01*
X0021798Y0022767D02*
X0023333Y0022767D01*
X0024100Y0022000D01*
X0024100Y0020465D01*
X0023333Y0019698D01*
X0021798Y0019698D02*
X0021031Y0021233D01*
X0021031Y0022000D01*
X0021798Y0022767D01*
X0019496Y0022767D02*
X0019496Y0019698D01*
X0021798Y0019698D01*
X0021798Y0018163D02*
X0021798Y0015094D01*
X0020263Y0016629D02*
X0023333Y0016629D01*
X0017447Y0249500D02*
X0018214Y0250267D01*
X0018214Y0251035D01*
X0017447Y0251802D01*
X0013610Y0251802D01*
X0013610Y0251035D02*
X0013610Y0252569D01*
X0015145Y0254104D02*
X0013610Y0255639D01*
X0018214Y0255639D01*
X0018214Y0257173D02*
X0018214Y0254104D01*
X0018214Y0258708D02*
X0015145Y0261777D01*
X0014378Y0261777D01*
X0013610Y0261010D01*
X0013610Y0259475D01*
X0014378Y0258708D01*
X0018214Y0258708D02*
X0018214Y0261777D01*
X0017447Y0263312D02*
X0015912Y0263312D01*
X0015912Y0265614D01*
X0016680Y0266381D01*
X0017447Y0266381D01*
X0018214Y0265614D01*
X0018214Y0264079D01*
X0017447Y0263312D01*
X0015912Y0263312D02*
X0014378Y0264846D01*
X0013610Y0266381D01*
X0015912Y0267916D02*
X0015912Y0270985D01*
X0017447Y0272520D02*
X0018214Y0273287D01*
X0018214Y0274054D01*
X0017447Y0274822D01*
X0013610Y0274822D01*
X0013610Y0275589D02*
X0013610Y0274054D01*
X0015145Y0277124D02*
X0013610Y0278658D01*
X0018214Y0278658D01*
X0018214Y0277124D02*
X0018214Y0280193D01*
X0018214Y0281727D02*
X0018214Y0284797D01*
X0018214Y0286331D02*
X0018214Y0289401D01*
X0018214Y0287866D02*
X0013610Y0287866D01*
X0015145Y0286331D01*
X0013610Y0283262D02*
X0018214Y0283262D01*
X0015145Y0281727D02*
X0013610Y0283262D01*
D13*
X0021800Y0211800D02*
X0031800Y0211800D01*
X0031800Y0201800D01*
X0071800Y0201800D01*
X0071800Y0211800D01*
X0031800Y0211800D01*
X0029300Y0209300D01*
X0029300Y0204300D02*
X0031800Y0201800D01*
X0021800Y0201800D01*
X0024300Y0204300D01*
X0021800Y0201800D02*
X0021800Y0211800D01*
X0024300Y0209300D01*
X0035300Y0191800D02*
X0042800Y0191800D01*
X0042802Y0191674D01*
X0042808Y0191549D01*
X0042818Y0191424D01*
X0042832Y0191299D01*
X0042849Y0191174D01*
X0042871Y0191050D01*
X0042896Y0190927D01*
X0042926Y0190805D01*
X0042959Y0190684D01*
X0042996Y0190564D01*
X0043036Y0190445D01*
X0043081Y0190328D01*
X0043129Y0190211D01*
X0043181Y0190097D01*
X0043236Y0189984D01*
X0043295Y0189873D01*
X0043357Y0189764D01*
X0043423Y0189657D01*
X0043492Y0189552D01*
X0043564Y0189449D01*
X0043639Y0189348D01*
X0043718Y0189250D01*
X0043800Y0189155D01*
X0043884Y0189062D01*
X0043972Y0188972D01*
X0044062Y0188884D01*
X0044155Y0188800D01*
X0044250Y0188718D01*
X0044348Y0188639D01*
X0044449Y0188564D01*
X0044552Y0188492D01*
X0044657Y0188423D01*
X0044764Y0188357D01*
X0044873Y0188295D01*
X0044984Y0188236D01*
X0045097Y0188181D01*
X0045211Y0188129D01*
X0045328Y0188081D01*
X0045445Y0188036D01*
X0045564Y0187996D01*
X0045684Y0187959D01*
X0045805Y0187926D01*
X0045927Y0187896D01*
X0046050Y0187871D01*
X0046174Y0187849D01*
X0046299Y0187832D01*
X0046424Y0187818D01*
X0046549Y0187808D01*
X0046674Y0187802D01*
X0046800Y0187800D01*
X0046926Y0187802D01*
X0047051Y0187808D01*
X0047176Y0187818D01*
X0047301Y0187832D01*
X0047426Y0187849D01*
X0047550Y0187871D01*
X0047673Y0187896D01*
X0047795Y0187926D01*
X0047916Y0187959D01*
X0048036Y0187996D01*
X0048155Y0188036D01*
X0048272Y0188081D01*
X0048389Y0188129D01*
X0048503Y0188181D01*
X0048616Y0188236D01*
X0048727Y0188295D01*
X0048836Y0188357D01*
X0048943Y0188423D01*
X0049048Y0188492D01*
X0049151Y0188564D01*
X0049252Y0188639D01*
X0049350Y0188718D01*
X0049445Y0188800D01*
X0049538Y0188884D01*
X0049628Y0188972D01*
X0049716Y0189062D01*
X0049800Y0189155D01*
X0049882Y0189250D01*
X0049961Y0189348D01*
X0050036Y0189449D01*
X0050108Y0189552D01*
X0050177Y0189657D01*
X0050243Y0189764D01*
X0050305Y0189873D01*
X0050364Y0189984D01*
X0050419Y0190097D01*
X0050471Y0190211D01*
X0050519Y0190328D01*
X0050564Y0190445D01*
X0050604Y0190564D01*
X0050641Y0190684D01*
X0050674Y0190805D01*
X0050704Y0190927D01*
X0050729Y0191050D01*
X0050751Y0191174D01*
X0050768Y0191299D01*
X0050782Y0191424D01*
X0050792Y0191549D01*
X0050798Y0191674D01*
X0050800Y0191800D01*
X0058300Y0191800D01*
X0058300Y0111800D01*
X0035300Y0111800D01*
X0035300Y0191800D01*
X0076800Y0201800D02*
X0086800Y0201800D01*
X0166800Y0201800D01*
X0166800Y0211800D01*
X0086800Y0211800D01*
X0076800Y0211800D01*
X0079300Y0209300D01*
X0076800Y0211800D02*
X0076800Y0201800D01*
X0079300Y0204300D01*
X0084300Y0204300D02*
X0086800Y0201800D01*
X0086800Y0211800D01*
X0084300Y0209300D01*
X0085300Y0191800D02*
X0092800Y0191800D01*
X0092802Y0191674D01*
X0092808Y0191549D01*
X0092818Y0191424D01*
X0092832Y0191299D01*
X0092849Y0191174D01*
X0092871Y0191050D01*
X0092896Y0190927D01*
X0092926Y0190805D01*
X0092959Y0190684D01*
X0092996Y0190564D01*
X0093036Y0190445D01*
X0093081Y0190328D01*
X0093129Y0190211D01*
X0093181Y0190097D01*
X0093236Y0189984D01*
X0093295Y0189873D01*
X0093357Y0189764D01*
X0093423Y0189657D01*
X0093492Y0189552D01*
X0093564Y0189449D01*
X0093639Y0189348D01*
X0093718Y0189250D01*
X0093800Y0189155D01*
X0093884Y0189062D01*
X0093972Y0188972D01*
X0094062Y0188884D01*
X0094155Y0188800D01*
X0094250Y0188718D01*
X0094348Y0188639D01*
X0094449Y0188564D01*
X0094552Y0188492D01*
X0094657Y0188423D01*
X0094764Y0188357D01*
X0094873Y0188295D01*
X0094984Y0188236D01*
X0095097Y0188181D01*
X0095211Y0188129D01*
X0095328Y0188081D01*
X0095445Y0188036D01*
X0095564Y0187996D01*
X0095684Y0187959D01*
X0095805Y0187926D01*
X0095927Y0187896D01*
X0096050Y0187871D01*
X0096174Y0187849D01*
X0096299Y0187832D01*
X0096424Y0187818D01*
X0096549Y0187808D01*
X0096674Y0187802D01*
X0096800Y0187800D01*
X0096926Y0187802D01*
X0097051Y0187808D01*
X0097176Y0187818D01*
X0097301Y0187832D01*
X0097426Y0187849D01*
X0097550Y0187871D01*
X0097673Y0187896D01*
X0097795Y0187926D01*
X0097916Y0187959D01*
X0098036Y0187996D01*
X0098155Y0188036D01*
X0098272Y0188081D01*
X0098389Y0188129D01*
X0098503Y0188181D01*
X0098616Y0188236D01*
X0098727Y0188295D01*
X0098836Y0188357D01*
X0098943Y0188423D01*
X0099048Y0188492D01*
X0099151Y0188564D01*
X0099252Y0188639D01*
X0099350Y0188718D01*
X0099445Y0188800D01*
X0099538Y0188884D01*
X0099628Y0188972D01*
X0099716Y0189062D01*
X0099800Y0189155D01*
X0099882Y0189250D01*
X0099961Y0189348D01*
X0100036Y0189449D01*
X0100108Y0189552D01*
X0100177Y0189657D01*
X0100243Y0189764D01*
X0100305Y0189873D01*
X0100364Y0189984D01*
X0100419Y0190097D01*
X0100471Y0190211D01*
X0100519Y0190328D01*
X0100564Y0190445D01*
X0100604Y0190564D01*
X0100641Y0190684D01*
X0100674Y0190805D01*
X0100704Y0190927D01*
X0100729Y0191050D01*
X0100751Y0191174D01*
X0100768Y0191299D01*
X0100782Y0191424D01*
X0100792Y0191549D01*
X0100798Y0191674D01*
X0100800Y0191800D01*
X0108300Y0191800D01*
X0108300Y0111800D01*
X0085300Y0111800D01*
X0085300Y0191800D01*
X0105600Y0205368D02*
X0106668Y0204300D01*
X0107735Y0204300D01*
X0108803Y0205368D01*
X0108803Y0210705D01*
X0109870Y0210705D02*
X0107735Y0210705D01*
X0112045Y0208570D02*
X0114181Y0210705D01*
X0114181Y0204300D01*
X0116316Y0204300D02*
X0112045Y0204300D01*
X0118491Y0204300D02*
X0122761Y0208570D01*
X0122761Y0209638D01*
X0121694Y0210705D01*
X0119559Y0210705D01*
X0118491Y0209638D01*
X0118491Y0204300D02*
X0122761Y0204300D01*
X0124936Y0205368D02*
X0124936Y0207503D01*
X0128139Y0207503D01*
X0129207Y0206435D01*
X0129207Y0205368D01*
X0128139Y0204300D01*
X0126004Y0204300D01*
X0124936Y0205368D01*
X0124936Y0207503D02*
X0127072Y0209638D01*
X0129207Y0210705D01*
X0135652Y0210705D02*
X0131382Y0204300D01*
X0137827Y0205368D02*
X0138895Y0204300D01*
X0139963Y0204300D01*
X0141030Y0205368D01*
X0141030Y0210705D01*
X0139963Y0210705D02*
X0142098Y0210705D01*
X0144273Y0208570D02*
X0146408Y0210705D01*
X0146408Y0204300D01*
X0144273Y0204300D02*
X0148543Y0204300D01*
X0150718Y0204300D02*
X0154989Y0204300D01*
X0152854Y0204300D02*
X0152854Y0210705D01*
X0150718Y0208570D01*
X0157164Y0208570D02*
X0159299Y0210705D01*
X0159299Y0204300D01*
X0157164Y0204300D02*
X0161434Y0204300D01*
X0158300Y0191800D02*
X0150800Y0191800D01*
X0150798Y0191674D01*
X0150792Y0191549D01*
X0150782Y0191424D01*
X0150768Y0191299D01*
X0150751Y0191174D01*
X0150729Y0191050D01*
X0150704Y0190927D01*
X0150674Y0190805D01*
X0150641Y0190684D01*
X0150604Y0190564D01*
X0150564Y0190445D01*
X0150519Y0190328D01*
X0150471Y0190211D01*
X0150419Y0190097D01*
X0150364Y0189984D01*
X0150305Y0189873D01*
X0150243Y0189764D01*
X0150177Y0189657D01*
X0150108Y0189552D01*
X0150036Y0189449D01*
X0149961Y0189348D01*
X0149882Y0189250D01*
X0149800Y0189155D01*
X0149716Y0189062D01*
X0149628Y0188972D01*
X0149538Y0188884D01*
X0149445Y0188800D01*
X0149350Y0188718D01*
X0149252Y0188639D01*
X0149151Y0188564D01*
X0149048Y0188492D01*
X0148943Y0188423D01*
X0148836Y0188357D01*
X0148727Y0188295D01*
X0148616Y0188236D01*
X0148503Y0188181D01*
X0148389Y0188129D01*
X0148272Y0188081D01*
X0148155Y0188036D01*
X0148036Y0187996D01*
X0147916Y0187959D01*
X0147795Y0187926D01*
X0147673Y0187896D01*
X0147550Y0187871D01*
X0147426Y0187849D01*
X0147301Y0187832D01*
X0147176Y0187818D01*
X0147051Y0187808D01*
X0146926Y0187802D01*
X0146800Y0187800D01*
X0146674Y0187802D01*
X0146549Y0187808D01*
X0146424Y0187818D01*
X0146299Y0187832D01*
X0146174Y0187849D01*
X0146050Y0187871D01*
X0145927Y0187896D01*
X0145805Y0187926D01*
X0145684Y0187959D01*
X0145564Y0187996D01*
X0145445Y0188036D01*
X0145328Y0188081D01*
X0145211Y0188129D01*
X0145097Y0188181D01*
X0144984Y0188236D01*
X0144873Y0188295D01*
X0144764Y0188357D01*
X0144657Y0188423D01*
X0144552Y0188492D01*
X0144449Y0188564D01*
X0144348Y0188639D01*
X0144250Y0188718D01*
X0144155Y0188800D01*
X0144062Y0188884D01*
X0143972Y0188972D01*
X0143884Y0189062D01*
X0143800Y0189155D01*
X0143718Y0189250D01*
X0143639Y0189348D01*
X0143564Y0189449D01*
X0143492Y0189552D01*
X0143423Y0189657D01*
X0143357Y0189764D01*
X0143295Y0189873D01*
X0143236Y0189984D01*
X0143181Y0190097D01*
X0143129Y0190211D01*
X0143081Y0190328D01*
X0143036Y0190445D01*
X0142996Y0190564D01*
X0142959Y0190684D01*
X0142926Y0190805D01*
X0142896Y0190927D01*
X0142871Y0191050D01*
X0142849Y0191174D01*
X0142832Y0191299D01*
X0142818Y0191424D01*
X0142808Y0191549D01*
X0142802Y0191674D01*
X0142800Y0191800D01*
X0135300Y0191800D01*
X0135300Y0111800D01*
X0158300Y0111800D01*
X0158300Y0191800D01*
X0177100Y0207100D02*
X0177100Y0213505D01*
X0180303Y0213505D01*
X0181370Y0212438D01*
X0181370Y0210303D01*
X0180303Y0209235D01*
X0177100Y0209235D01*
X0183545Y0207100D02*
X0185681Y0207100D01*
X0184613Y0207100D02*
X0184613Y0213505D01*
X0183545Y0213505D02*
X0185681Y0213505D01*
X0187842Y0213505D02*
X0192113Y0207100D01*
X0192113Y0213505D01*
X0194288Y0213505D02*
X0197491Y0213505D01*
X0198558Y0212438D01*
X0198558Y0208168D01*
X0197491Y0207100D01*
X0194288Y0207100D01*
X0194288Y0213505D01*
X0187842Y0213505D02*
X0187842Y0207100D01*
X0200733Y0208168D02*
X0201801Y0207100D01*
X0203936Y0207100D01*
X0205004Y0208168D01*
X0205004Y0213505D01*
X0207179Y0213505D02*
X0209314Y0213505D01*
X0208247Y0213505D02*
X0208247Y0207100D01*
X0209314Y0207100D02*
X0207179Y0207100D01*
X0211476Y0207100D02*
X0211476Y0213505D01*
X0215746Y0207100D01*
X0215746Y0213505D01*
X0217921Y0212438D02*
X0217921Y0208168D01*
X0218989Y0207100D01*
X0221124Y0207100D01*
X0222192Y0208168D01*
X0222192Y0212438D01*
X0221124Y0213505D01*
X0218989Y0213505D01*
X0217921Y0212438D01*
X0200733Y0213505D02*
X0200733Y0208168D01*
X0166800Y0106800D02*
X0086800Y0106800D01*
X0076800Y0106800D01*
X0079300Y0104300D01*
X0076800Y0106800D02*
X0076800Y0096800D01*
X0086800Y0096800D01*
X0166800Y0096800D01*
X0166800Y0106800D01*
X0172100Y0103505D02*
X0172100Y0099235D01*
X0174235Y0097100D01*
X0176370Y0099235D01*
X0176370Y0103505D01*
X0178545Y0102438D02*
X0179613Y0103505D01*
X0181748Y0103505D01*
X0182816Y0102438D01*
X0178545Y0098168D01*
X0179613Y0097100D01*
X0181748Y0097100D01*
X0182816Y0098168D01*
X0182816Y0102438D01*
X0178545Y0102438D02*
X0178545Y0098168D01*
X0184991Y0098168D02*
X0186059Y0098168D01*
X0186059Y0097100D01*
X0184991Y0097100D01*
X0184991Y0098168D01*
X0188214Y0098168D02*
X0189281Y0097100D01*
X0191416Y0097100D01*
X0192484Y0098168D01*
X0192484Y0099235D01*
X0191416Y0100303D01*
X0190349Y0100303D01*
X0191416Y0100303D02*
X0192484Y0101370D01*
X0192484Y0102438D01*
X0191416Y0103505D01*
X0189281Y0103505D01*
X0188214Y0102438D01*
X0194659Y0100303D02*
X0194659Y0098168D01*
X0195727Y0097100D01*
X0198930Y0097100D01*
X0198930Y0101370D02*
X0195727Y0101370D01*
X0194659Y0100303D01*
X0207550Y0103505D02*
X0207550Y0097100D01*
X0209685Y0099235D01*
X0211821Y0097100D01*
X0211821Y0103505D01*
X0213996Y0103505D02*
X0217198Y0103505D01*
X0218266Y0102438D01*
X0218266Y0100303D01*
X0217198Y0099235D01*
X0213996Y0099235D01*
X0213996Y0097100D02*
X0213996Y0103505D01*
X0220441Y0102438D02*
X0220441Y0098168D01*
X0221509Y0097100D01*
X0223644Y0097100D01*
X0224712Y0098168D01*
X0224712Y0102438D02*
X0223644Y0103505D01*
X0221509Y0103505D01*
X0220441Y0102438D01*
X0086800Y0106800D02*
X0086800Y0096800D01*
X0084300Y0099300D01*
X0084300Y0104300D02*
X0086800Y0106800D01*
X0079300Y0099300D02*
X0076800Y0096800D01*
X0071800Y0096800D02*
X0031800Y0096800D01*
X0031800Y0106800D01*
X0021800Y0106800D01*
X0024300Y0104300D01*
X0021800Y0106800D02*
X0021800Y0096800D01*
X0031800Y0096800D01*
X0029300Y0099300D01*
X0029300Y0104300D02*
X0031800Y0106800D01*
X0071800Y0106800D01*
X0071800Y0096800D01*
X0061500Y0097649D02*
X0061500Y0094446D01*
X0055095Y0094446D01*
X0057230Y0094446D02*
X0057230Y0097649D01*
X0058297Y0098716D01*
X0060432Y0098716D01*
X0061500Y0097649D01*
X0060432Y0100891D02*
X0059365Y0101959D01*
X0059365Y0105162D01*
X0058297Y0105162D02*
X0057230Y0104094D01*
X0057230Y0101959D01*
X0060432Y0100891D02*
X0061500Y0101959D01*
X0061500Y0105162D01*
X0058297Y0105162D01*
X0055095Y0107337D02*
X0055095Y0108405D01*
X0061500Y0108405D01*
X0061500Y0109472D02*
X0061500Y0107337D01*
X0061500Y0111634D02*
X0061500Y0113769D01*
X0061500Y0112702D02*
X0055095Y0112702D01*
X0055095Y0111634D01*
X0058297Y0092271D02*
X0061500Y0092271D01*
X0061500Y0088000D02*
X0057230Y0088000D01*
X0057230Y0091203D01*
X0058297Y0092271D01*
X0061500Y0085839D02*
X0061500Y0083703D01*
X0061500Y0084771D02*
X0057230Y0084771D01*
X0057230Y0083703D01*
X0055095Y0084771D02*
X0054027Y0084771D01*
X0056162Y0081528D02*
X0058297Y0081528D01*
X0059365Y0080461D01*
X0059365Y0077258D01*
X0061500Y0077258D02*
X0055095Y0077258D01*
X0055095Y0080461D01*
X0056162Y0081528D01*
X0057230Y0068644D02*
X0057230Y0067576D01*
X0059365Y0065441D01*
X0061500Y0065441D02*
X0057230Y0065441D01*
X0058297Y0063266D02*
X0057230Y0062198D01*
X0057230Y0060063D01*
X0058297Y0058996D01*
X0060432Y0058996D01*
X0061500Y0060063D01*
X0061500Y0062198D01*
X0060432Y0063266D01*
X0058297Y0063266D01*
X0057230Y0056821D02*
X0057230Y0053618D01*
X0058297Y0052550D01*
X0059365Y0053618D01*
X0059365Y0055753D01*
X0060432Y0056821D01*
X0061500Y0055753D01*
X0061500Y0052550D01*
X0060432Y0050375D02*
X0059365Y0049307D01*
X0059365Y0047172D01*
X0058297Y0046105D01*
X0057230Y0047172D01*
X0057230Y0050375D01*
X0060432Y0050375D02*
X0061500Y0049307D01*
X0061500Y0046105D01*
X0059365Y0043930D02*
X0059365Y0039659D01*
X0060432Y0039659D02*
X0058297Y0039659D01*
X0057230Y0040727D01*
X0057230Y0042862D01*
X0058297Y0043930D01*
X0059365Y0043930D01*
X0061500Y0042862D02*
X0061500Y0040727D01*
X0060432Y0039659D01*
X0058297Y0037497D02*
X0058297Y0035362D01*
X0058297Y0033187D02*
X0057230Y0032119D01*
X0057230Y0029984D01*
X0058297Y0028917D01*
X0060432Y0028917D01*
X0061500Y0029984D01*
X0061500Y0032119D01*
X0060432Y0033187D01*
X0058297Y0033187D01*
X0056162Y0036430D02*
X0055095Y0037497D01*
X0056162Y0036430D02*
X0061500Y0036430D01*
X0057230Y0026748D02*
X0057230Y0025681D01*
X0059365Y0023545D01*
X0061500Y0023545D02*
X0057230Y0023545D01*
X0058297Y0021370D02*
X0059365Y0020303D01*
X0059365Y0017100D01*
X0061500Y0017100D02*
X0055095Y0017100D01*
X0055095Y0020303D01*
X0056162Y0021370D01*
X0058297Y0021370D01*
X0021800Y0096800D02*
X0024300Y0099300D01*
D14*
X0011800Y0091800D02*
X0011800Y0016800D01*
X0051800Y0016800D01*
X0051800Y0091800D01*
X0011800Y0091800D01*
X0032050Y0108550D02*
X0032050Y0113054D01*
X0034302Y0113054D01*
X0035053Y0112303D01*
X0035053Y0110802D01*
X0034302Y0110051D01*
X0032050Y0110051D01*
X0033551Y0110051D02*
X0035053Y0108550D01*
X0036654Y0108550D02*
X0036654Y0113054D01*
X0039656Y0108550D01*
X0039656Y0113054D01*
X0041258Y0112303D02*
X0042008Y0113054D01*
X0043510Y0113054D01*
X0044260Y0112303D01*
X0044260Y0111553D01*
X0041258Y0108550D01*
X0044260Y0108550D01*
X0087050Y0109550D02*
X0087050Y0114054D01*
X0089302Y0114054D01*
X0090053Y0113303D01*
X0090053Y0111802D01*
X0089302Y0111051D01*
X0087050Y0111051D01*
X0088551Y0111051D02*
X0090053Y0109550D01*
X0091654Y0109550D02*
X0091654Y0114054D01*
X0094656Y0109550D01*
X0094656Y0114054D01*
X0096258Y0111802D02*
X0099260Y0111802D01*
X0100862Y0110301D02*
X0101612Y0109550D01*
X0102363Y0109550D01*
X0103114Y0110301D01*
X0103114Y0114054D01*
X0103864Y0114054D02*
X0102363Y0114054D01*
X0105466Y0111802D02*
X0107718Y0111802D01*
X0108468Y0111051D01*
X0108468Y0110301D01*
X0107718Y0109550D01*
X0106216Y0109550D01*
X0105466Y0110301D01*
X0105466Y0111802D01*
X0106967Y0113303D01*
X0108468Y0114054D01*
X0110070Y0111802D02*
X0113072Y0111802D01*
X0114674Y0113303D02*
X0114674Y0110301D01*
X0115424Y0109550D01*
X0116925Y0109550D01*
X0117676Y0110301D01*
X0117676Y0113303D01*
X0116925Y0114054D01*
X0115424Y0114054D01*
X0114674Y0113303D01*
X0181800Y0111800D02*
X0181800Y0201800D01*
X0221800Y0201800D01*
X0221800Y0111800D01*
X0147010Y0193550D02*
X0147010Y0198054D01*
X0144758Y0195802D01*
X0147760Y0195802D01*
X0143156Y0198054D02*
X0140154Y0195051D01*
X0140905Y0195802D02*
X0143156Y0193550D01*
X0140154Y0193550D02*
X0140154Y0198054D01*
X0138553Y0197303D02*
X0138553Y0194301D01*
X0137802Y0193550D01*
X0136301Y0193550D01*
X0135550Y0194301D01*
X0135550Y0197303D01*
X0136301Y0198054D01*
X0137802Y0198054D01*
X0138553Y0197303D01*
X0116175Y0214550D02*
X0114674Y0214550D01*
X0115424Y0214550D02*
X0115424Y0219054D01*
X0114674Y0219054D02*
X0116175Y0219054D01*
X0113072Y0216802D02*
X0110070Y0216802D01*
X0108468Y0216051D02*
X0107718Y0216802D01*
X0105466Y0216802D01*
X0105466Y0215301D01*
X0106216Y0214550D01*
X0107718Y0214550D01*
X0108468Y0215301D01*
X0108468Y0216051D01*
X0106967Y0218303D02*
X0105466Y0216802D01*
X0106967Y0218303D02*
X0108468Y0219054D01*
X0103864Y0219054D02*
X0102363Y0219054D01*
X0103114Y0219054D02*
X0103114Y0215301D01*
X0102363Y0214550D01*
X0101612Y0214550D01*
X0100862Y0215301D01*
X0099260Y0216802D02*
X0096258Y0216802D01*
X0094656Y0214550D02*
X0094656Y0219054D01*
X0091654Y0219054D02*
X0094656Y0214550D01*
X0091654Y0214550D02*
X0091654Y0219054D01*
X0090053Y0218303D02*
X0090053Y0216802D01*
X0089302Y0216051D01*
X0087050Y0216051D01*
X0087050Y0214550D02*
X0087050Y0219054D01*
X0089302Y0219054D01*
X0090053Y0218303D01*
X0088551Y0216051D02*
X0090053Y0214550D01*
X0090154Y0198054D02*
X0091655Y0198054D01*
X0090905Y0198054D02*
X0090905Y0193550D01*
X0091655Y0193550D02*
X0090154Y0193550D01*
X0088553Y0194301D02*
X0088553Y0197303D01*
X0087802Y0198054D01*
X0086301Y0198054D01*
X0085550Y0197303D01*
X0085550Y0194301D01*
X0086301Y0193550D01*
X0087802Y0193550D01*
X0088553Y0194301D01*
X0093223Y0195802D02*
X0096226Y0195802D01*
X0097827Y0197303D02*
X0098578Y0198054D01*
X0100079Y0198054D01*
X0100830Y0197303D01*
X0100830Y0196553D01*
X0097827Y0193550D01*
X0100830Y0193550D01*
X0050830Y0193550D02*
X0047827Y0193550D01*
X0049328Y0193550D02*
X0049328Y0198054D01*
X0047827Y0196553D01*
X0046226Y0195802D02*
X0043223Y0195802D01*
X0041655Y0198054D02*
X0040154Y0198054D01*
X0040905Y0198054D02*
X0040905Y0193550D01*
X0041655Y0193550D02*
X0040154Y0193550D01*
X0038553Y0194301D02*
X0038553Y0197303D01*
X0037802Y0198054D01*
X0036301Y0198054D01*
X0035550Y0197303D01*
X0035550Y0194301D01*
X0036301Y0193550D01*
X0037802Y0193550D01*
X0038553Y0194301D01*
X0039656Y0213550D02*
X0039656Y0218054D01*
X0041258Y0216553D02*
X0042759Y0218054D01*
X0042759Y0213550D01*
X0041258Y0213550D02*
X0044260Y0213550D01*
X0039656Y0213550D02*
X0036654Y0218054D01*
X0036654Y0213550D01*
X0035053Y0213550D02*
X0033551Y0215051D01*
X0034302Y0215051D02*
X0032050Y0215051D01*
X0032050Y0213550D02*
X0032050Y0218054D01*
X0034302Y0218054D01*
X0035053Y0217303D01*
X0035053Y0215802D01*
X0034302Y0215051D01*
D15*
X0020700Y0216800D02*
X0020700Y0246800D01*
X0020700Y0256800D01*
X0223200Y0256800D01*
X0223200Y0246800D01*
X0223200Y0216800D01*
X0020700Y0216800D01*
X0181800Y0111800D02*
X0221800Y0111800D01*
D16*
X0216800Y0134300D02*
X0186800Y0134300D01*
X0186800Y0151800D01*
X0216800Y0151800D01*
X0216800Y0134300D01*
X0216800Y0151800D02*
X0216800Y0159300D01*
X0186800Y0159300D01*
X0186800Y0151800D01*
X0186800Y0169300D02*
X0186800Y0186800D01*
X0216800Y0186800D01*
X0216800Y0169300D01*
X0186800Y0169300D01*
X0186800Y0186800D02*
X0186800Y0194300D01*
X0216800Y0194300D01*
X0216800Y0186800D01*
X0046800Y0084300D02*
X0046800Y0076800D01*
X0016800Y0076800D01*
X0016800Y0084300D01*
X0046800Y0084300D01*
X0046800Y0076800D02*
X0046800Y0059300D01*
X0016800Y0059300D01*
X0016800Y0076800D01*
X0016800Y0049300D02*
X0016800Y0041800D01*
X0046800Y0041800D01*
X0046800Y0024300D01*
X0016800Y0024300D01*
X0016800Y0041800D01*
X0016800Y0049300D02*
X0046800Y0049300D01*
X0046800Y0041800D01*
D17*
X0021150Y0247804D02*
X0222548Y0247804D01*
X0222548Y0286288D01*
X0215461Y0286288D01*
X0215461Y0276741D01*
X0028237Y0276741D01*
X0028237Y0286288D01*
X0021150Y0286288D01*
X0021150Y0247804D01*
X0028237Y0286288D02*
X0215461Y0286288D01*
D18*
X0223200Y0246800D02*
X0020700Y0246800D01*
D19*
X0028200Y0231800D03*
X0043800Y0231800D03*
X0059400Y0231800D03*
X0075000Y0231800D03*
X0090600Y0231800D03*
X0106200Y0231800D03*
X0121800Y0231800D03*
X0137400Y0231800D03*
X0153000Y0231800D03*
X0168600Y0231800D03*
X0184200Y0231800D03*
X0199800Y0231800D03*
X0215400Y0231800D03*
M02*
