G75*
%MOIN*%
%OFA0B0*%
%FSLAX25Y25*%
%IPPOS*%
%LPD*%
%AMOC8*
5,1,8,0,0,1.08239X$1,22.5*
%
%ADD10C,0.00000*%
%ADD11C,0.05200*%
%ADD12C,0.01000*%
%ADD13C,0.01600*%
D10*
X0011800Y0011800D02*
X0011800Y0106761D01*
X0160501Y0106761D01*
X0160501Y0011800D01*
X0011800Y0011800D01*
D11*
X0031800Y0019200D02*
X0031800Y0024400D01*
X0041800Y0024400D02*
X0041800Y0019200D01*
X0051800Y0019200D02*
X0051800Y0024400D01*
X0061800Y0024400D02*
X0061800Y0019200D01*
X0071800Y0019200D02*
X0071800Y0024400D01*
X0081800Y0024400D02*
X0081800Y0019200D01*
X0091800Y0019200D02*
X0091800Y0024400D01*
X0101800Y0024400D02*
X0101800Y0019200D01*
X0111800Y0019200D02*
X0111800Y0024400D01*
X0121800Y0024400D02*
X0121800Y0019200D01*
X0131800Y0019200D02*
X0131800Y0024400D01*
X0141800Y0024400D02*
X0141800Y0019200D01*
X0141800Y0034200D02*
X0141800Y0039400D01*
X0131800Y0039400D02*
X0131800Y0034200D01*
X0121800Y0034200D02*
X0121800Y0039400D01*
X0111800Y0039400D02*
X0111800Y0034200D01*
X0101800Y0034200D02*
X0101800Y0039400D01*
X0091800Y0039400D02*
X0091800Y0034200D01*
X0081800Y0034200D02*
X0081800Y0039400D01*
X0071800Y0039400D02*
X0071800Y0034200D01*
X0061800Y0034200D02*
X0061800Y0039400D01*
X0051800Y0039400D02*
X0051800Y0034200D01*
X0041800Y0034200D02*
X0041800Y0039400D01*
X0031800Y0039400D02*
X0031800Y0034200D01*
X0021800Y0034200D02*
X0021800Y0039400D01*
X0031800Y0079200D02*
X0031800Y0084400D01*
X0041800Y0084400D02*
X0041800Y0079200D01*
X0051800Y0079200D02*
X0051800Y0084400D01*
X0061800Y0084400D02*
X0061800Y0079200D01*
X0071800Y0079200D02*
X0071800Y0084400D01*
X0081800Y0084400D02*
X0081800Y0079200D01*
X0091800Y0079200D02*
X0091800Y0084400D01*
X0101800Y0084400D02*
X0101800Y0079200D01*
X0111800Y0079200D02*
X0111800Y0084400D01*
X0121800Y0084400D02*
X0121800Y0079200D01*
X0131800Y0079200D02*
X0131800Y0084400D01*
X0141800Y0084400D02*
X0141800Y0079200D01*
X0141800Y0094200D02*
X0141800Y0099400D01*
X0131800Y0099400D02*
X0131800Y0094200D01*
X0121800Y0094200D02*
X0121800Y0099400D01*
X0111800Y0099400D02*
X0111800Y0094200D01*
X0101800Y0094200D02*
X0101800Y0099400D01*
X0091800Y0099400D02*
X0091800Y0094200D01*
X0081800Y0094200D02*
X0081800Y0099400D01*
X0071800Y0099400D02*
X0071800Y0094200D01*
X0061800Y0094200D02*
X0061800Y0099400D01*
X0051800Y0099400D02*
X0051800Y0094200D01*
X0041800Y0094200D02*
X0041800Y0099400D01*
X0031800Y0099400D02*
X0031800Y0094200D01*
X0021800Y0094200D02*
X0021800Y0099400D01*
X0151800Y0099400D02*
X0151800Y0094200D01*
X0151800Y0039400D02*
X0151800Y0034200D01*
D12*
X0141800Y0034300D02*
X0141800Y0036800D01*
X0141800Y0034300D02*
X0134300Y0026800D01*
X0134300Y0024300D01*
X0131800Y0021800D01*
X0124300Y0024300D02*
X0124300Y0026800D01*
X0131800Y0034300D01*
X0131800Y0036800D01*
X0121800Y0036800D02*
X0121800Y0034300D01*
X0114300Y0026800D01*
X0114300Y0024300D01*
X0111800Y0021800D01*
X0104300Y0024300D02*
X0104300Y0026800D01*
X0111800Y0034300D01*
X0111800Y0036800D01*
X0101800Y0036800D02*
X0101800Y0034300D01*
X0094300Y0026800D01*
X0094300Y0024300D01*
X0091800Y0021800D01*
X0084300Y0024300D02*
X0084300Y0026800D01*
X0091800Y0034300D01*
X0091800Y0036800D01*
X0081800Y0036800D02*
X0081800Y0034300D01*
X0074300Y0026800D01*
X0074300Y0024300D01*
X0071800Y0021800D01*
X0064300Y0024300D02*
X0064300Y0026800D01*
X0071800Y0034300D01*
X0071800Y0036800D01*
X0061800Y0036800D02*
X0061800Y0034300D01*
X0054300Y0026800D01*
X0054300Y0024300D01*
X0051800Y0021800D01*
X0044300Y0024300D02*
X0044300Y0026800D01*
X0051800Y0034300D01*
X0051800Y0036800D01*
X0041800Y0036800D02*
X0041800Y0034300D01*
X0034300Y0026800D01*
X0034300Y0024300D01*
X0031800Y0021800D01*
X0041800Y0021800D02*
X0044300Y0024300D01*
X0061800Y0021800D02*
X0064300Y0024300D01*
X0081800Y0021800D02*
X0084300Y0024300D01*
X0101800Y0021800D02*
X0104300Y0024300D01*
X0121800Y0021800D02*
X0124300Y0024300D01*
X0121800Y0081800D02*
X0124300Y0084300D01*
X0124300Y0086800D01*
X0131800Y0094300D01*
X0131800Y0096800D01*
X0121800Y0096800D02*
X0121800Y0094300D01*
X0114300Y0086800D01*
X0114300Y0084300D01*
X0111800Y0081800D01*
X0104300Y0084300D02*
X0104300Y0086800D01*
X0111800Y0094300D01*
X0111800Y0096800D01*
X0101800Y0096800D02*
X0101800Y0094300D01*
X0094300Y0086800D01*
X0094300Y0084300D01*
X0091800Y0081800D01*
X0084300Y0084300D02*
X0084300Y0086800D01*
X0091800Y0094300D01*
X0091800Y0096800D01*
X0081800Y0096800D02*
X0081800Y0094300D01*
X0074300Y0086800D01*
X0074300Y0084300D01*
X0071800Y0081800D01*
X0081800Y0081800D02*
X0084300Y0084300D01*
X0101800Y0081800D02*
X0104300Y0084300D01*
X0131800Y0081800D02*
X0134300Y0084300D01*
X0134300Y0086800D01*
X0141800Y0094300D01*
X0141800Y0096800D01*
X0149300Y0091800D02*
X0151800Y0094300D01*
X0151800Y0096800D01*
X0149300Y0091800D02*
X0149300Y0089300D01*
X0141800Y0081800D01*
X0061800Y0094300D02*
X0061800Y0096800D01*
X0061800Y0094300D02*
X0054300Y0086800D01*
X0054300Y0084300D01*
X0051800Y0081800D01*
X0044300Y0084300D02*
X0044300Y0086800D01*
X0051800Y0094300D01*
X0051800Y0096800D01*
X0044300Y0084300D02*
X0041800Y0081800D01*
X0031800Y0081800D02*
X0031800Y0084300D01*
X0024300Y0091800D01*
X0024300Y0094300D01*
X0021800Y0096800D01*
D13*
X0026000Y0096521D02*
X0027600Y0096521D01*
X0027600Y0094923D02*
X0026400Y0094923D01*
X0026400Y0095170D02*
X0026000Y0095570D01*
X0026000Y0100235D01*
X0025361Y0101779D01*
X0025179Y0101961D01*
X0028421Y0101961D01*
X0028239Y0101779D01*
X0027600Y0100235D01*
X0027600Y0093365D01*
X0028239Y0091821D01*
X0029421Y0090639D01*
X0030965Y0090000D01*
X0032635Y0090000D01*
X0034179Y0090639D01*
X0035361Y0091821D01*
X0036000Y0093365D01*
X0036000Y0100235D01*
X0035361Y0101779D01*
X0035179Y0101961D01*
X0038421Y0101961D01*
X0038239Y0101779D01*
X0037600Y0100235D01*
X0037600Y0093365D01*
X0038239Y0091821D01*
X0039421Y0090639D01*
X0040965Y0090000D01*
X0042635Y0090000D01*
X0044179Y0090639D01*
X0045361Y0091821D01*
X0046000Y0093365D01*
X0046000Y0100235D01*
X0045361Y0101779D01*
X0045179Y0101961D01*
X0048421Y0101961D01*
X0048239Y0101779D01*
X0047600Y0100235D01*
X0047600Y0093365D01*
X0047686Y0093156D01*
X0042985Y0088455D01*
X0042635Y0088600D01*
X0040965Y0088600D01*
X0039421Y0087961D01*
X0038239Y0086779D01*
X0037600Y0085235D01*
X0037600Y0078365D01*
X0038239Y0076821D01*
X0039421Y0075639D01*
X0040965Y0075000D01*
X0042635Y0075000D01*
X0044179Y0075639D01*
X0045361Y0076821D01*
X0046000Y0078365D01*
X0046000Y0083030D01*
X0046400Y0083430D01*
X0046400Y0085930D01*
X0050615Y0090145D01*
X0050965Y0090000D01*
X0052635Y0090000D01*
X0054179Y0090639D01*
X0055361Y0091821D01*
X0056000Y0093365D01*
X0056000Y0100235D01*
X0055361Y0101779D01*
X0055179Y0101961D01*
X0058421Y0101961D01*
X0058239Y0101779D01*
X0057600Y0100235D01*
X0057600Y0093365D01*
X0057686Y0093156D01*
X0052985Y0088455D01*
X0052635Y0088600D01*
X0050965Y0088600D01*
X0049421Y0087961D01*
X0048239Y0086779D01*
X0047600Y0085235D01*
X0047600Y0078365D01*
X0048239Y0076821D01*
X0049421Y0075639D01*
X0050965Y0075000D01*
X0052635Y0075000D01*
X0054179Y0075639D01*
X0055361Y0076821D01*
X0056000Y0078365D01*
X0056000Y0083030D01*
X0056400Y0083430D01*
X0056400Y0085930D01*
X0060615Y0090145D01*
X0060965Y0090000D01*
X0062635Y0090000D01*
X0064179Y0090639D01*
X0065361Y0091821D01*
X0066000Y0093365D01*
X0066000Y0100235D01*
X0065361Y0101779D01*
X0065179Y0101961D01*
X0068222Y0101961D01*
X0068037Y0101706D01*
X0067722Y0101089D01*
X0067508Y0100430D01*
X0067400Y0099746D01*
X0067400Y0096800D01*
X0071800Y0096800D01*
X0076200Y0096800D01*
X0076200Y0099746D01*
X0076092Y0100430D01*
X0075878Y0101089D01*
X0075563Y0101706D01*
X0075378Y0101961D01*
X0078421Y0101961D01*
X0078239Y0101779D01*
X0077600Y0100235D01*
X0077600Y0093365D01*
X0077686Y0093156D01*
X0072985Y0088455D01*
X0072635Y0088600D01*
X0070965Y0088600D01*
X0069421Y0087961D01*
X0068239Y0086779D01*
X0067600Y0085235D01*
X0067600Y0078365D01*
X0068239Y0076821D01*
X0069421Y0075639D01*
X0070965Y0075000D01*
X0072635Y0075000D01*
X0074179Y0075639D01*
X0075361Y0076821D01*
X0076000Y0078365D01*
X0076000Y0083030D01*
X0076400Y0083430D01*
X0076400Y0085930D01*
X0080615Y0090145D01*
X0080965Y0090000D01*
X0082635Y0090000D01*
X0084179Y0090639D01*
X0085361Y0091821D01*
X0086000Y0093365D01*
X0086000Y0100235D01*
X0085361Y0101779D01*
X0085179Y0101961D01*
X0088421Y0101961D01*
X0088239Y0101779D01*
X0087600Y0100235D01*
X0087600Y0093365D01*
X0087686Y0093156D01*
X0082985Y0088455D01*
X0082635Y0088600D01*
X0080965Y0088600D01*
X0079421Y0087961D01*
X0078239Y0086779D01*
X0077600Y0085235D01*
X0077600Y0078365D01*
X0078239Y0076821D01*
X0079421Y0075639D01*
X0080965Y0075000D01*
X0082635Y0075000D01*
X0084179Y0075639D01*
X0085361Y0076821D01*
X0086000Y0078365D01*
X0086000Y0083030D01*
X0086400Y0083430D01*
X0086400Y0085930D01*
X0090615Y0090145D01*
X0090965Y0090000D01*
X0092635Y0090000D01*
X0094179Y0090639D01*
X0095361Y0091821D01*
X0096000Y0093365D01*
X0096000Y0100235D01*
X0095361Y0101779D01*
X0095179Y0101961D01*
X0098421Y0101961D01*
X0098239Y0101779D01*
X0097600Y0100235D01*
X0097600Y0093365D01*
X0097686Y0093156D01*
X0092985Y0088455D01*
X0092635Y0088600D01*
X0090965Y0088600D01*
X0089421Y0087961D01*
X0088239Y0086779D01*
X0087600Y0085235D01*
X0087600Y0078365D01*
X0088239Y0076821D01*
X0089421Y0075639D01*
X0090965Y0075000D01*
X0092635Y0075000D01*
X0094179Y0075639D01*
X0095361Y0076821D01*
X0096000Y0078365D01*
X0096000Y0083030D01*
X0096400Y0083430D01*
X0096400Y0085930D01*
X0100615Y0090145D01*
X0100965Y0090000D01*
X0102635Y0090000D01*
X0104179Y0090639D01*
X0105361Y0091821D01*
X0106000Y0093365D01*
X0106000Y0100235D01*
X0105361Y0101779D01*
X0105179Y0101961D01*
X0108421Y0101961D01*
X0108239Y0101779D01*
X0107600Y0100235D01*
X0107600Y0093365D01*
X0107686Y0093156D01*
X0102985Y0088455D01*
X0102635Y0088600D01*
X0100965Y0088600D01*
X0099421Y0087961D01*
X0098239Y0086779D01*
X0097600Y0085235D01*
X0097600Y0078365D01*
X0098239Y0076821D01*
X0099421Y0075639D01*
X0100965Y0075000D01*
X0102635Y0075000D01*
X0104179Y0075639D01*
X0105361Y0076821D01*
X0106000Y0078365D01*
X0106000Y0083030D01*
X0106400Y0083430D01*
X0106400Y0085930D01*
X0110615Y0090145D01*
X0110965Y0090000D01*
X0112635Y0090000D01*
X0114179Y0090639D01*
X0115361Y0091821D01*
X0116000Y0093365D01*
X0116000Y0100235D01*
X0115361Y0101779D01*
X0115179Y0101961D01*
X0118421Y0101961D01*
X0118239Y0101779D01*
X0117600Y0100235D01*
X0117600Y0093365D01*
X0117686Y0093156D01*
X0112985Y0088455D01*
X0112635Y0088600D01*
X0110965Y0088600D01*
X0109421Y0087961D01*
X0108239Y0086779D01*
X0107600Y0085235D01*
X0107600Y0078365D01*
X0108239Y0076821D01*
X0109421Y0075639D01*
X0110965Y0075000D01*
X0112635Y0075000D01*
X0114179Y0075639D01*
X0115361Y0076821D01*
X0116000Y0078365D01*
X0116000Y0083030D01*
X0116400Y0083430D01*
X0116400Y0085930D01*
X0120615Y0090145D01*
X0120965Y0090000D01*
X0122635Y0090000D01*
X0124179Y0090639D01*
X0125361Y0091821D01*
X0126000Y0093365D01*
X0126000Y0100235D01*
X0125361Y0101779D01*
X0125179Y0101961D01*
X0128421Y0101961D01*
X0128239Y0101779D01*
X0127600Y0100235D01*
X0127600Y0093365D01*
X0127686Y0093156D01*
X0122985Y0088455D01*
X0122635Y0088600D01*
X0120965Y0088600D01*
X0119421Y0087961D01*
X0118239Y0086779D01*
X0117600Y0085235D01*
X0117600Y0078365D01*
X0118239Y0076821D01*
X0119421Y0075639D01*
X0120965Y0075000D01*
X0122635Y0075000D01*
X0124179Y0075639D01*
X0125361Y0076821D01*
X0126000Y0078365D01*
X0126000Y0083030D01*
X0126400Y0083430D01*
X0126400Y0085930D01*
X0130615Y0090145D01*
X0130965Y0090000D01*
X0132635Y0090000D01*
X0134179Y0090639D01*
X0135361Y0091821D01*
X0136000Y0093365D01*
X0136000Y0100235D01*
X0135361Y0101779D01*
X0135179Y0101961D01*
X0138421Y0101961D01*
X0138239Y0101779D01*
X0137600Y0100235D01*
X0137600Y0093365D01*
X0137686Y0093156D01*
X0132985Y0088455D01*
X0132635Y0088600D01*
X0130965Y0088600D01*
X0129421Y0087961D01*
X0128239Y0086779D01*
X0127600Y0085235D01*
X0127600Y0078365D01*
X0128239Y0076821D01*
X0129421Y0075639D01*
X0130965Y0075000D01*
X0132635Y0075000D01*
X0134179Y0075639D01*
X0135361Y0076821D01*
X0136000Y0078365D01*
X0136000Y0083030D01*
X0136400Y0083430D01*
X0136400Y0085930D01*
X0140615Y0090145D01*
X0140965Y0090000D01*
X0142635Y0090000D01*
X0144179Y0090639D01*
X0145361Y0091821D01*
X0146000Y0093365D01*
X0146000Y0100235D01*
X0145361Y0101779D01*
X0145179Y0101961D01*
X0148421Y0101961D01*
X0148239Y0101779D01*
X0147600Y0100235D01*
X0147600Y0093365D01*
X0147686Y0093156D01*
X0147200Y0092670D01*
X0147200Y0090170D01*
X0144585Y0087555D01*
X0144179Y0087961D01*
X0142635Y0088600D01*
X0140965Y0088600D01*
X0139421Y0087961D01*
X0138239Y0086779D01*
X0137600Y0085235D01*
X0137600Y0078365D01*
X0138239Y0076821D01*
X0139421Y0075639D01*
X0140965Y0075000D01*
X0142635Y0075000D01*
X0144179Y0075639D01*
X0145361Y0076821D01*
X0146000Y0078365D01*
X0146000Y0083030D01*
X0151400Y0088430D01*
X0151400Y0090000D01*
X0152635Y0090000D01*
X0154179Y0090639D01*
X0155361Y0091821D01*
X0155701Y0092642D01*
X0155701Y0041436D01*
X0155563Y0041706D01*
X0155156Y0042266D01*
X0154666Y0042756D01*
X0154106Y0043163D01*
X0153489Y0043478D01*
X0152830Y0043692D01*
X0152146Y0043800D01*
X0151800Y0043800D01*
X0151800Y0036800D01*
X0151800Y0036800D01*
X0151800Y0029800D01*
X0152146Y0029800D01*
X0152830Y0029908D01*
X0153489Y0030122D01*
X0154106Y0030437D01*
X0154666Y0030844D01*
X0155156Y0031334D01*
X0155563Y0031894D01*
X0155701Y0032164D01*
X0155701Y0016600D01*
X0145350Y0016600D01*
X0145563Y0016894D01*
X0145878Y0017511D01*
X0146092Y0018170D01*
X0146200Y0018854D01*
X0146200Y0021800D01*
X0146200Y0024746D01*
X0146092Y0025430D01*
X0145878Y0026089D01*
X0145563Y0026706D01*
X0145156Y0027266D01*
X0144666Y0027756D01*
X0144106Y0028163D01*
X0143489Y0028478D01*
X0142830Y0028692D01*
X0142146Y0028800D01*
X0141800Y0028800D01*
X0141800Y0021800D01*
X0141800Y0021800D01*
X0146200Y0021800D01*
X0141800Y0021800D01*
X0141800Y0021800D01*
X0141800Y0021800D01*
X0137400Y0021800D01*
X0137400Y0024746D01*
X0137508Y0025430D01*
X0137722Y0026089D01*
X0138037Y0026706D01*
X0138444Y0027266D01*
X0138934Y0027756D01*
X0139494Y0028163D01*
X0140111Y0028478D01*
X0140770Y0028692D01*
X0141454Y0028800D01*
X0141800Y0028800D01*
X0141800Y0021800D01*
X0137400Y0021800D01*
X0137400Y0018854D01*
X0137508Y0018170D01*
X0137722Y0017511D01*
X0138037Y0016894D01*
X0138250Y0016600D01*
X0135140Y0016600D01*
X0135361Y0016821D01*
X0136000Y0018365D01*
X0136000Y0023030D01*
X0136400Y0023430D01*
X0136400Y0025930D01*
X0140615Y0030145D01*
X0140965Y0030000D01*
X0142635Y0030000D01*
X0144179Y0030639D01*
X0145361Y0031821D01*
X0146000Y0033365D01*
X0146000Y0040235D01*
X0145361Y0041779D01*
X0144179Y0042961D01*
X0142635Y0043600D01*
X0140965Y0043600D01*
X0139421Y0042961D01*
X0138239Y0041779D01*
X0137600Y0040235D01*
X0137600Y0033365D01*
X0137686Y0033156D01*
X0132985Y0028455D01*
X0132635Y0028600D01*
X0130965Y0028600D01*
X0129421Y0027961D01*
X0128239Y0026779D01*
X0127600Y0025235D01*
X0127600Y0018365D01*
X0128239Y0016821D01*
X0128460Y0016600D01*
X0125140Y0016600D01*
X0125361Y0016821D01*
X0126000Y0018365D01*
X0126000Y0023030D01*
X0126400Y0023430D01*
X0126400Y0025930D01*
X0130615Y0030145D01*
X0130965Y0030000D01*
X0132635Y0030000D01*
X0134179Y0030639D01*
X0135361Y0031821D01*
X0136000Y0033365D01*
X0136000Y0040235D01*
X0135361Y0041779D01*
X0134179Y0042961D01*
X0132635Y0043600D01*
X0130965Y0043600D01*
X0129421Y0042961D01*
X0128239Y0041779D01*
X0127600Y0040235D01*
X0127600Y0033365D01*
X0127686Y0033156D01*
X0122985Y0028455D01*
X0122635Y0028600D01*
X0120965Y0028600D01*
X0119421Y0027961D01*
X0118239Y0026779D01*
X0117600Y0025235D01*
X0117600Y0018365D01*
X0118239Y0016821D01*
X0118460Y0016600D01*
X0115140Y0016600D01*
X0115361Y0016821D01*
X0116000Y0018365D01*
X0116000Y0023030D01*
X0116400Y0023430D01*
X0116400Y0025930D01*
X0120615Y0030145D01*
X0120965Y0030000D01*
X0122635Y0030000D01*
X0124179Y0030639D01*
X0125361Y0031821D01*
X0126000Y0033365D01*
X0126000Y0040235D01*
X0125361Y0041779D01*
X0124179Y0042961D01*
X0122635Y0043600D01*
X0120965Y0043600D01*
X0119421Y0042961D01*
X0118239Y0041779D01*
X0117600Y0040235D01*
X0117600Y0033365D01*
X0117686Y0033156D01*
X0112985Y0028455D01*
X0112635Y0028600D01*
X0110965Y0028600D01*
X0109421Y0027961D01*
X0108239Y0026779D01*
X0107600Y0025235D01*
X0107600Y0018365D01*
X0108239Y0016821D01*
X0108460Y0016600D01*
X0105140Y0016600D01*
X0105361Y0016821D01*
X0106000Y0018365D01*
X0106000Y0023030D01*
X0106400Y0023430D01*
X0106400Y0025930D01*
X0110615Y0030145D01*
X0110965Y0030000D01*
X0112635Y0030000D01*
X0114179Y0030639D01*
X0115361Y0031821D01*
X0116000Y0033365D01*
X0116000Y0040235D01*
X0115361Y0041779D01*
X0114179Y0042961D01*
X0112635Y0043600D01*
X0110965Y0043600D01*
X0109421Y0042961D01*
X0108239Y0041779D01*
X0107600Y0040235D01*
X0107600Y0033365D01*
X0107686Y0033156D01*
X0102985Y0028455D01*
X0102635Y0028600D01*
X0100965Y0028600D01*
X0099421Y0027961D01*
X0098239Y0026779D01*
X0097600Y0025235D01*
X0097600Y0018365D01*
X0098239Y0016821D01*
X0098460Y0016600D01*
X0095140Y0016600D01*
X0095361Y0016821D01*
X0096000Y0018365D01*
X0096000Y0023030D01*
X0096400Y0023430D01*
X0096400Y0025930D01*
X0100615Y0030145D01*
X0100965Y0030000D01*
X0102635Y0030000D01*
X0104179Y0030639D01*
X0105361Y0031821D01*
X0106000Y0033365D01*
X0106000Y0040235D01*
X0105361Y0041779D01*
X0104179Y0042961D01*
X0102635Y0043600D01*
X0100965Y0043600D01*
X0099421Y0042961D01*
X0098239Y0041779D01*
X0097600Y0040235D01*
X0097600Y0033365D01*
X0097686Y0033156D01*
X0092985Y0028455D01*
X0092635Y0028600D01*
X0090965Y0028600D01*
X0089421Y0027961D01*
X0088239Y0026779D01*
X0087600Y0025235D01*
X0087600Y0018365D01*
X0088239Y0016821D01*
X0088460Y0016600D01*
X0085140Y0016600D01*
X0085361Y0016821D01*
X0086000Y0018365D01*
X0086000Y0023030D01*
X0086400Y0023430D01*
X0086400Y0025930D01*
X0090615Y0030145D01*
X0090965Y0030000D01*
X0092635Y0030000D01*
X0094179Y0030639D01*
X0095361Y0031821D01*
X0096000Y0033365D01*
X0096000Y0040235D01*
X0095361Y0041779D01*
X0094179Y0042961D01*
X0092635Y0043600D01*
X0090965Y0043600D01*
X0089421Y0042961D01*
X0088239Y0041779D01*
X0087600Y0040235D01*
X0087600Y0033365D01*
X0087686Y0033156D01*
X0082985Y0028455D01*
X0082635Y0028600D01*
X0080965Y0028600D01*
X0079421Y0027961D01*
X0078239Y0026779D01*
X0077600Y0025235D01*
X0077600Y0018365D01*
X0078239Y0016821D01*
X0078460Y0016600D01*
X0075140Y0016600D01*
X0075361Y0016821D01*
X0076000Y0018365D01*
X0076000Y0023030D01*
X0076400Y0023430D01*
X0076400Y0025930D01*
X0080615Y0030145D01*
X0080965Y0030000D01*
X0082635Y0030000D01*
X0084179Y0030639D01*
X0085361Y0031821D01*
X0086000Y0033365D01*
X0086000Y0040235D01*
X0085361Y0041779D01*
X0084179Y0042961D01*
X0082635Y0043600D01*
X0080965Y0043600D01*
X0079421Y0042961D01*
X0078239Y0041779D01*
X0077600Y0040235D01*
X0077600Y0033365D01*
X0077686Y0033156D01*
X0072985Y0028455D01*
X0072635Y0028600D01*
X0070965Y0028600D01*
X0069421Y0027961D01*
X0068239Y0026779D01*
X0067600Y0025235D01*
X0067600Y0018365D01*
X0068239Y0016821D01*
X0068460Y0016600D01*
X0065140Y0016600D01*
X0065361Y0016821D01*
X0066000Y0018365D01*
X0066000Y0023030D01*
X0066400Y0023430D01*
X0066400Y0025930D01*
X0070615Y0030145D01*
X0070965Y0030000D01*
X0072635Y0030000D01*
X0074179Y0030639D01*
X0075361Y0031821D01*
X0076000Y0033365D01*
X0076000Y0040235D01*
X0075361Y0041779D01*
X0074179Y0042961D01*
X0072635Y0043600D01*
X0070965Y0043600D01*
X0069421Y0042961D01*
X0068239Y0041779D01*
X0067600Y0040235D01*
X0067600Y0033365D01*
X0067686Y0033156D01*
X0062985Y0028455D01*
X0062635Y0028600D01*
X0060965Y0028600D01*
X0059421Y0027961D01*
X0058239Y0026779D01*
X0057600Y0025235D01*
X0057600Y0018365D01*
X0058239Y0016821D01*
X0058460Y0016600D01*
X0055140Y0016600D01*
X0055361Y0016821D01*
X0056000Y0018365D01*
X0056000Y0023030D01*
X0056400Y0023430D01*
X0056400Y0025930D01*
X0060615Y0030145D01*
X0060965Y0030000D01*
X0062635Y0030000D01*
X0064179Y0030639D01*
X0065361Y0031821D01*
X0066000Y0033365D01*
X0066000Y0040235D01*
X0065361Y0041779D01*
X0064179Y0042961D01*
X0062635Y0043600D01*
X0060965Y0043600D01*
X0059421Y0042961D01*
X0058239Y0041779D01*
X0057600Y0040235D01*
X0057600Y0033365D01*
X0057686Y0033156D01*
X0052985Y0028455D01*
X0052635Y0028600D01*
X0050965Y0028600D01*
X0049421Y0027961D01*
X0048239Y0026779D01*
X0047600Y0025235D01*
X0047600Y0018365D01*
X0048239Y0016821D01*
X0048460Y0016600D01*
X0045140Y0016600D01*
X0045361Y0016821D01*
X0046000Y0018365D01*
X0046000Y0023030D01*
X0046400Y0023430D01*
X0046400Y0025930D01*
X0050615Y0030145D01*
X0050965Y0030000D01*
X0052635Y0030000D01*
X0054179Y0030639D01*
X0055361Y0031821D01*
X0056000Y0033365D01*
X0056000Y0040235D01*
X0055361Y0041779D01*
X0054179Y0042961D01*
X0052635Y0043600D01*
X0050965Y0043600D01*
X0049421Y0042961D01*
X0048239Y0041779D01*
X0047600Y0040235D01*
X0047600Y0033365D01*
X0047686Y0033156D01*
X0042985Y0028455D01*
X0042635Y0028600D01*
X0040965Y0028600D01*
X0039421Y0027961D01*
X0038239Y0026779D01*
X0037600Y0025235D01*
X0037600Y0018365D01*
X0038239Y0016821D01*
X0038460Y0016600D01*
X0035140Y0016600D01*
X0035361Y0016821D01*
X0036000Y0018365D01*
X0036000Y0023030D01*
X0036400Y0023430D01*
X0036400Y0025930D01*
X0040615Y0030145D01*
X0040965Y0030000D01*
X0042635Y0030000D01*
X0044179Y0030639D01*
X0045361Y0031821D01*
X0046000Y0033365D01*
X0046000Y0040235D01*
X0045361Y0041779D01*
X0044179Y0042961D01*
X0042635Y0043600D01*
X0040965Y0043600D01*
X0039421Y0042961D01*
X0038239Y0041779D01*
X0037600Y0040235D01*
X0037600Y0033365D01*
X0037686Y0033156D01*
X0032985Y0028455D01*
X0032635Y0028600D01*
X0030965Y0028600D01*
X0029421Y0027961D01*
X0028239Y0026779D01*
X0027600Y0025235D01*
X0027600Y0018365D01*
X0028239Y0016821D01*
X0028460Y0016600D01*
X0016600Y0016600D01*
X0016600Y0101961D01*
X0018421Y0101961D01*
X0018239Y0101779D01*
X0017600Y0100235D01*
X0017600Y0093365D01*
X0018239Y0091821D01*
X0019421Y0090639D01*
X0020965Y0090000D01*
X0022635Y0090000D01*
X0022985Y0090145D01*
X0027686Y0085444D01*
X0027600Y0085235D01*
X0027600Y0078365D01*
X0028239Y0076821D01*
X0029421Y0075639D01*
X0030965Y0075000D01*
X0032635Y0075000D01*
X0034179Y0075639D01*
X0035361Y0076821D01*
X0036000Y0078365D01*
X0036000Y0085235D01*
X0035361Y0086779D01*
X0034179Y0087961D01*
X0032635Y0088600D01*
X0030965Y0088600D01*
X0030615Y0088455D01*
X0026400Y0092670D01*
X0026400Y0095170D01*
X0026400Y0093324D02*
X0027617Y0093324D01*
X0027344Y0091726D02*
X0028335Y0091726D01*
X0028943Y0090127D02*
X0030658Y0090127D01*
X0030541Y0088529D02*
X0030792Y0088529D01*
X0032808Y0088529D02*
X0040792Y0088529D01*
X0040658Y0090127D02*
X0032942Y0090127D01*
X0035265Y0091726D02*
X0038335Y0091726D01*
X0037617Y0093324D02*
X0035983Y0093324D01*
X0036000Y0094923D02*
X0037600Y0094923D01*
X0037600Y0096521D02*
X0036000Y0096521D01*
X0036000Y0098120D02*
X0037600Y0098120D01*
X0037600Y0099718D02*
X0036000Y0099718D01*
X0035552Y0101317D02*
X0038048Y0101317D01*
X0045552Y0101317D02*
X0048048Y0101317D01*
X0047600Y0099718D02*
X0046000Y0099718D01*
X0046000Y0098120D02*
X0047600Y0098120D01*
X0047600Y0096521D02*
X0046000Y0096521D01*
X0046000Y0094923D02*
X0047600Y0094923D01*
X0047617Y0093324D02*
X0045983Y0093324D01*
X0046256Y0091726D02*
X0045265Y0091726D01*
X0044657Y0090127D02*
X0042942Y0090127D01*
X0043059Y0088529D02*
X0042808Y0088529D01*
X0038390Y0086930D02*
X0035210Y0086930D01*
X0035960Y0085332D02*
X0037640Y0085332D01*
X0037600Y0083733D02*
X0036000Y0083733D01*
X0036000Y0082134D02*
X0037600Y0082134D01*
X0037600Y0080536D02*
X0036000Y0080536D01*
X0036000Y0078937D02*
X0037600Y0078937D01*
X0038025Y0077339D02*
X0035575Y0077339D01*
X0034280Y0075740D02*
X0039320Y0075740D01*
X0044280Y0075740D02*
X0049320Y0075740D01*
X0048025Y0077339D02*
X0045575Y0077339D01*
X0046000Y0078937D02*
X0047600Y0078937D01*
X0047600Y0080536D02*
X0046000Y0080536D01*
X0046000Y0082134D02*
X0047600Y0082134D01*
X0047600Y0083733D02*
X0046400Y0083733D01*
X0046400Y0085332D02*
X0047640Y0085332D01*
X0047400Y0086930D02*
X0048390Y0086930D01*
X0048998Y0088529D02*
X0050792Y0088529D01*
X0050658Y0090127D02*
X0050597Y0090127D01*
X0052942Y0090127D02*
X0054657Y0090127D01*
X0053059Y0088529D02*
X0052808Y0088529D01*
X0055265Y0091726D02*
X0056256Y0091726D01*
X0055983Y0093324D02*
X0057617Y0093324D01*
X0057600Y0094923D02*
X0056000Y0094923D01*
X0056000Y0096521D02*
X0057600Y0096521D01*
X0057600Y0098120D02*
X0056000Y0098120D01*
X0056000Y0099718D02*
X0057600Y0099718D01*
X0058048Y0101317D02*
X0055552Y0101317D01*
X0065552Y0101317D02*
X0067838Y0101317D01*
X0067400Y0099718D02*
X0066000Y0099718D01*
X0066000Y0098120D02*
X0067400Y0098120D01*
X0067400Y0096800D02*
X0067400Y0093854D01*
X0067508Y0093170D01*
X0067722Y0092511D01*
X0068037Y0091894D01*
X0068444Y0091334D01*
X0068934Y0090844D01*
X0069494Y0090437D01*
X0070111Y0090122D01*
X0070770Y0089908D01*
X0071454Y0089800D01*
X0071800Y0089800D01*
X0072146Y0089800D01*
X0072830Y0089908D01*
X0073489Y0090122D01*
X0074106Y0090437D01*
X0074666Y0090844D01*
X0075156Y0091334D01*
X0075563Y0091894D01*
X0075878Y0092511D01*
X0076092Y0093170D01*
X0076200Y0093854D01*
X0076200Y0096800D01*
X0071800Y0096800D01*
X0071800Y0096800D01*
X0071800Y0089800D01*
X0071800Y0096800D01*
X0071800Y0096800D01*
X0071800Y0096800D01*
X0067400Y0096800D01*
X0067400Y0096521D02*
X0066000Y0096521D01*
X0066000Y0094923D02*
X0067400Y0094923D01*
X0067484Y0093324D02*
X0065983Y0093324D01*
X0065265Y0091726D02*
X0068159Y0091726D01*
X0070102Y0090127D02*
X0062942Y0090127D01*
X0062635Y0088600D02*
X0060965Y0088600D01*
X0059421Y0087961D01*
X0058239Y0086779D01*
X0057600Y0085235D01*
X0057600Y0078365D01*
X0058239Y0076821D01*
X0059421Y0075639D01*
X0060965Y0075000D01*
X0062635Y0075000D01*
X0064179Y0075639D01*
X0065361Y0076821D01*
X0066000Y0078365D01*
X0066000Y0085235D01*
X0065361Y0086779D01*
X0064179Y0087961D01*
X0062635Y0088600D01*
X0062808Y0088529D02*
X0070792Y0088529D01*
X0071800Y0090127D02*
X0071800Y0090127D01*
X0073498Y0090127D02*
X0074657Y0090127D01*
X0073059Y0088529D02*
X0072808Y0088529D01*
X0068390Y0086930D02*
X0065210Y0086930D01*
X0065960Y0085332D02*
X0067640Y0085332D01*
X0067600Y0083733D02*
X0066000Y0083733D01*
X0066000Y0082134D02*
X0067600Y0082134D01*
X0067600Y0080536D02*
X0066000Y0080536D01*
X0066000Y0078937D02*
X0067600Y0078937D01*
X0068025Y0077339D02*
X0065575Y0077339D01*
X0064280Y0075740D02*
X0069320Y0075740D01*
X0074280Y0075740D02*
X0079320Y0075740D01*
X0078025Y0077339D02*
X0075575Y0077339D01*
X0076000Y0078937D02*
X0077600Y0078937D01*
X0077600Y0080536D02*
X0076000Y0080536D01*
X0076000Y0082134D02*
X0077600Y0082134D01*
X0077600Y0083733D02*
X0076400Y0083733D01*
X0076400Y0085332D02*
X0077640Y0085332D01*
X0077400Y0086930D02*
X0078390Y0086930D01*
X0078998Y0088529D02*
X0080792Y0088529D01*
X0080658Y0090127D02*
X0080597Y0090127D01*
X0082942Y0090127D02*
X0084657Y0090127D01*
X0083059Y0088529D02*
X0082808Y0088529D01*
X0085265Y0091726D02*
X0086256Y0091726D01*
X0085983Y0093324D02*
X0087617Y0093324D01*
X0087600Y0094923D02*
X0086000Y0094923D01*
X0086000Y0096521D02*
X0087600Y0096521D01*
X0087600Y0098120D02*
X0086000Y0098120D01*
X0086000Y0099718D02*
X0087600Y0099718D01*
X0088048Y0101317D02*
X0085552Y0101317D01*
X0078048Y0101317D02*
X0075762Y0101317D01*
X0076200Y0099718D02*
X0077600Y0099718D01*
X0077600Y0098120D02*
X0076200Y0098120D01*
X0076200Y0096521D02*
X0077600Y0096521D01*
X0077600Y0094923D02*
X0076200Y0094923D01*
X0076116Y0093324D02*
X0077617Y0093324D01*
X0076256Y0091726D02*
X0075441Y0091726D01*
X0071800Y0091726D02*
X0071800Y0091726D01*
X0071800Y0093324D02*
X0071800Y0093324D01*
X0071800Y0094923D02*
X0071800Y0094923D01*
X0071800Y0096521D02*
X0071800Y0096521D01*
X0060658Y0090127D02*
X0060597Y0090127D01*
X0060792Y0088529D02*
X0058998Y0088529D01*
X0058390Y0086930D02*
X0057400Y0086930D01*
X0057640Y0085332D02*
X0056400Y0085332D01*
X0056400Y0083733D02*
X0057600Y0083733D01*
X0057600Y0082134D02*
X0056000Y0082134D01*
X0056000Y0080536D02*
X0057600Y0080536D01*
X0057600Y0078937D02*
X0056000Y0078937D01*
X0055575Y0077339D02*
X0058025Y0077339D01*
X0059320Y0075740D02*
X0054280Y0075740D01*
X0029320Y0075740D02*
X0016600Y0075740D01*
X0016600Y0074142D02*
X0155701Y0074142D01*
X0155701Y0075740D02*
X0144280Y0075740D01*
X0145575Y0077339D02*
X0155701Y0077339D01*
X0155701Y0078937D02*
X0146000Y0078937D01*
X0146000Y0080536D02*
X0155701Y0080536D01*
X0155701Y0082134D02*
X0146000Y0082134D01*
X0146703Y0083733D02*
X0155701Y0083733D01*
X0155701Y0085332D02*
X0148301Y0085332D01*
X0149900Y0086930D02*
X0155701Y0086930D01*
X0155701Y0088529D02*
X0151400Y0088529D01*
X0152942Y0090127D02*
X0155701Y0090127D01*
X0155701Y0091726D02*
X0155265Y0091726D01*
X0147617Y0093324D02*
X0145983Y0093324D01*
X0145265Y0091726D02*
X0147200Y0091726D01*
X0147157Y0090127D02*
X0142942Y0090127D01*
X0142808Y0088529D02*
X0145559Y0088529D01*
X0140792Y0088529D02*
X0138998Y0088529D01*
X0138390Y0086930D02*
X0137400Y0086930D01*
X0137640Y0085332D02*
X0136400Y0085332D01*
X0136400Y0083733D02*
X0137600Y0083733D01*
X0137600Y0082134D02*
X0136000Y0082134D01*
X0136000Y0080536D02*
X0137600Y0080536D01*
X0137600Y0078937D02*
X0136000Y0078937D01*
X0135575Y0077339D02*
X0138025Y0077339D01*
X0139320Y0075740D02*
X0134280Y0075740D01*
X0129320Y0075740D02*
X0124280Y0075740D01*
X0125575Y0077339D02*
X0128025Y0077339D01*
X0127600Y0078937D02*
X0126000Y0078937D01*
X0126000Y0080536D02*
X0127600Y0080536D01*
X0127600Y0082134D02*
X0126000Y0082134D01*
X0126400Y0083733D02*
X0127600Y0083733D01*
X0127640Y0085332D02*
X0126400Y0085332D01*
X0127400Y0086930D02*
X0128390Y0086930D01*
X0128998Y0088529D02*
X0130792Y0088529D01*
X0130658Y0090127D02*
X0130597Y0090127D01*
X0132942Y0090127D02*
X0134657Y0090127D01*
X0133059Y0088529D02*
X0132808Y0088529D01*
X0135265Y0091726D02*
X0136256Y0091726D01*
X0135983Y0093324D02*
X0137617Y0093324D01*
X0137600Y0094923D02*
X0136000Y0094923D01*
X0136000Y0096521D02*
X0137600Y0096521D01*
X0137600Y0098120D02*
X0136000Y0098120D01*
X0136000Y0099718D02*
X0137600Y0099718D01*
X0138048Y0101317D02*
X0135552Y0101317D01*
X0128048Y0101317D02*
X0125552Y0101317D01*
X0126000Y0099718D02*
X0127600Y0099718D01*
X0127600Y0098120D02*
X0126000Y0098120D01*
X0126000Y0096521D02*
X0127600Y0096521D01*
X0127600Y0094923D02*
X0126000Y0094923D01*
X0125983Y0093324D02*
X0127617Y0093324D01*
X0126256Y0091726D02*
X0125265Y0091726D01*
X0124657Y0090127D02*
X0122942Y0090127D01*
X0123059Y0088529D02*
X0122808Y0088529D01*
X0120792Y0088529D02*
X0118998Y0088529D01*
X0118390Y0086930D02*
X0117400Y0086930D01*
X0117640Y0085332D02*
X0116400Y0085332D01*
X0116400Y0083733D02*
X0117600Y0083733D01*
X0117600Y0082134D02*
X0116000Y0082134D01*
X0116000Y0080536D02*
X0117600Y0080536D01*
X0117600Y0078937D02*
X0116000Y0078937D01*
X0115575Y0077339D02*
X0118025Y0077339D01*
X0119320Y0075740D02*
X0114280Y0075740D01*
X0109320Y0075740D02*
X0104280Y0075740D01*
X0105575Y0077339D02*
X0108025Y0077339D01*
X0107600Y0078937D02*
X0106000Y0078937D01*
X0106000Y0080536D02*
X0107600Y0080536D01*
X0107600Y0082134D02*
X0106000Y0082134D01*
X0106400Y0083733D02*
X0107600Y0083733D01*
X0107640Y0085332D02*
X0106400Y0085332D01*
X0107400Y0086930D02*
X0108390Y0086930D01*
X0108998Y0088529D02*
X0110792Y0088529D01*
X0110658Y0090127D02*
X0110597Y0090127D01*
X0112808Y0088529D02*
X0113059Y0088529D01*
X0112942Y0090127D02*
X0114657Y0090127D01*
X0115265Y0091726D02*
X0116256Y0091726D01*
X0115983Y0093324D02*
X0117617Y0093324D01*
X0117600Y0094923D02*
X0116000Y0094923D01*
X0116000Y0096521D02*
X0117600Y0096521D01*
X0117600Y0098120D02*
X0116000Y0098120D01*
X0116000Y0099718D02*
X0117600Y0099718D01*
X0118048Y0101317D02*
X0115552Y0101317D01*
X0108048Y0101317D02*
X0105552Y0101317D01*
X0106000Y0099718D02*
X0107600Y0099718D01*
X0107600Y0098120D02*
X0106000Y0098120D01*
X0106000Y0096521D02*
X0107600Y0096521D01*
X0107600Y0094923D02*
X0106000Y0094923D01*
X0105983Y0093324D02*
X0107617Y0093324D01*
X0106256Y0091726D02*
X0105265Y0091726D01*
X0104657Y0090127D02*
X0102942Y0090127D01*
X0103059Y0088529D02*
X0102808Y0088529D01*
X0100792Y0088529D02*
X0098998Y0088529D01*
X0098390Y0086930D02*
X0097400Y0086930D01*
X0097640Y0085332D02*
X0096400Y0085332D01*
X0096400Y0083733D02*
X0097600Y0083733D01*
X0097600Y0082134D02*
X0096000Y0082134D01*
X0096000Y0080536D02*
X0097600Y0080536D01*
X0097600Y0078937D02*
X0096000Y0078937D01*
X0095575Y0077339D02*
X0098025Y0077339D01*
X0099320Y0075740D02*
X0094280Y0075740D01*
X0089320Y0075740D02*
X0084280Y0075740D01*
X0085575Y0077339D02*
X0088025Y0077339D01*
X0087600Y0078937D02*
X0086000Y0078937D01*
X0086000Y0080536D02*
X0087600Y0080536D01*
X0087600Y0082134D02*
X0086000Y0082134D01*
X0086400Y0083733D02*
X0087600Y0083733D01*
X0087640Y0085332D02*
X0086400Y0085332D01*
X0087400Y0086930D02*
X0088390Y0086930D01*
X0088998Y0088529D02*
X0090792Y0088529D01*
X0090658Y0090127D02*
X0090597Y0090127D01*
X0092942Y0090127D02*
X0094657Y0090127D01*
X0093059Y0088529D02*
X0092808Y0088529D01*
X0095265Y0091726D02*
X0096256Y0091726D01*
X0095983Y0093324D02*
X0097617Y0093324D01*
X0097600Y0094923D02*
X0096000Y0094923D01*
X0096000Y0096521D02*
X0097600Y0096521D01*
X0097600Y0098120D02*
X0096000Y0098120D01*
X0096000Y0099718D02*
X0097600Y0099718D01*
X0098048Y0101317D02*
X0095552Y0101317D01*
X0100597Y0090127D02*
X0100658Y0090127D01*
X0120597Y0090127D02*
X0120658Y0090127D01*
X0140597Y0090127D02*
X0140658Y0090127D01*
X0146000Y0094923D02*
X0147600Y0094923D01*
X0147600Y0096521D02*
X0146000Y0096521D01*
X0146000Y0098120D02*
X0147600Y0098120D01*
X0147600Y0099718D02*
X0146000Y0099718D01*
X0145552Y0101317D02*
X0148048Y0101317D01*
X0155701Y0072543D02*
X0016600Y0072543D01*
X0016600Y0070945D02*
X0155701Y0070945D01*
X0155701Y0069346D02*
X0016600Y0069346D01*
X0016600Y0067748D02*
X0155701Y0067748D01*
X0155701Y0066149D02*
X0016600Y0066149D01*
X0016600Y0064551D02*
X0155701Y0064551D01*
X0155701Y0062952D02*
X0016600Y0062952D01*
X0016600Y0061354D02*
X0155701Y0061354D01*
X0155701Y0059755D02*
X0016600Y0059755D01*
X0016600Y0058157D02*
X0155701Y0058157D01*
X0155701Y0056558D02*
X0016600Y0056558D01*
X0016600Y0054960D02*
X0155701Y0054960D01*
X0155701Y0053361D02*
X0016600Y0053361D01*
X0016600Y0051763D02*
X0155701Y0051763D01*
X0155701Y0050164D02*
X0016600Y0050164D01*
X0016600Y0048566D02*
X0155701Y0048566D01*
X0155701Y0046967D02*
X0016600Y0046967D01*
X0016600Y0045369D02*
X0155701Y0045369D01*
X0155701Y0043770D02*
X0152334Y0043770D01*
X0151800Y0043770D02*
X0151800Y0043770D01*
X0151800Y0043800D02*
X0151454Y0043800D01*
X0150770Y0043692D01*
X0150111Y0043478D01*
X0149494Y0043163D01*
X0148934Y0042756D01*
X0148444Y0042266D01*
X0148037Y0041706D01*
X0147722Y0041089D01*
X0147508Y0040430D01*
X0147400Y0039746D01*
X0147400Y0036800D01*
X0151800Y0036800D01*
X0151800Y0036800D01*
X0151800Y0036800D01*
X0151800Y0043800D01*
X0151266Y0043770D02*
X0032334Y0043770D01*
X0032146Y0043800D02*
X0032830Y0043692D01*
X0033489Y0043478D01*
X0034106Y0043163D01*
X0034666Y0042756D01*
X0035156Y0042266D01*
X0035563Y0041706D01*
X0035878Y0041089D01*
X0036092Y0040430D01*
X0036200Y0039746D01*
X0036200Y0036800D01*
X0031800Y0036800D01*
X0031800Y0036800D01*
X0031800Y0036800D01*
X0031800Y0043800D01*
X0032146Y0043800D01*
X0031800Y0043800D02*
X0031454Y0043800D01*
X0030770Y0043692D01*
X0030111Y0043478D01*
X0029494Y0043163D01*
X0028934Y0042756D01*
X0028444Y0042266D01*
X0028037Y0041706D01*
X0027722Y0041089D01*
X0027508Y0040430D01*
X0027400Y0039746D01*
X0027400Y0036800D01*
X0031800Y0036800D01*
X0036200Y0036800D01*
X0036200Y0033854D01*
X0036092Y0033170D01*
X0035878Y0032511D01*
X0035563Y0031894D01*
X0035156Y0031334D01*
X0034666Y0030844D01*
X0034106Y0030437D01*
X0033489Y0030122D01*
X0032830Y0029908D01*
X0032146Y0029800D01*
X0031800Y0029800D01*
X0031800Y0036800D01*
X0031800Y0036800D01*
X0031800Y0036800D01*
X0031800Y0043800D01*
X0031800Y0043770D02*
X0031800Y0043770D01*
X0031266Y0043770D02*
X0016600Y0043770D01*
X0016600Y0042172D02*
X0018632Y0042172D01*
X0018239Y0041779D02*
X0017600Y0040235D01*
X0017600Y0033365D01*
X0018239Y0031821D01*
X0019421Y0030639D01*
X0020965Y0030000D01*
X0022635Y0030000D01*
X0024179Y0030639D01*
X0025361Y0031821D01*
X0026000Y0033365D01*
X0026000Y0040235D01*
X0025361Y0041779D01*
X0024179Y0042961D01*
X0022635Y0043600D01*
X0020965Y0043600D01*
X0019421Y0042961D01*
X0018239Y0041779D01*
X0017740Y0040573D02*
X0016600Y0040573D01*
X0016600Y0038975D02*
X0017600Y0038975D01*
X0017600Y0037376D02*
X0016600Y0037376D01*
X0016600Y0035778D02*
X0017600Y0035778D01*
X0017600Y0034179D02*
X0016600Y0034179D01*
X0016600Y0032581D02*
X0017925Y0032581D01*
X0019078Y0030982D02*
X0016600Y0030982D01*
X0016600Y0029384D02*
X0033914Y0029384D01*
X0031800Y0029800D02*
X0031800Y0036800D01*
X0027400Y0036800D01*
X0027400Y0033854D01*
X0027508Y0033170D01*
X0027722Y0032511D01*
X0028037Y0031894D01*
X0028444Y0031334D01*
X0028934Y0030844D01*
X0029494Y0030437D01*
X0030111Y0030122D01*
X0030770Y0029908D01*
X0031454Y0029800D01*
X0031800Y0029800D01*
X0031800Y0030982D02*
X0031800Y0030982D01*
X0031800Y0032581D02*
X0031800Y0032581D01*
X0031800Y0034179D02*
X0031800Y0034179D01*
X0031800Y0035778D02*
X0031800Y0035778D01*
X0031800Y0037376D02*
X0031800Y0037376D01*
X0031800Y0038975D02*
X0031800Y0038975D01*
X0031800Y0040573D02*
X0031800Y0040573D01*
X0031800Y0042172D02*
X0031800Y0042172D01*
X0028375Y0042172D02*
X0024968Y0042172D01*
X0025860Y0040573D02*
X0027555Y0040573D01*
X0027400Y0038975D02*
X0026000Y0038975D01*
X0026000Y0037376D02*
X0027400Y0037376D01*
X0027400Y0035778D02*
X0026000Y0035778D01*
X0026000Y0034179D02*
X0027400Y0034179D01*
X0027700Y0032581D02*
X0025675Y0032581D01*
X0024522Y0030982D02*
X0028795Y0030982D01*
X0029245Y0027785D02*
X0016600Y0027785D01*
X0016600Y0026187D02*
X0027994Y0026187D01*
X0027600Y0024588D02*
X0016600Y0024588D01*
X0016600Y0022990D02*
X0027600Y0022990D01*
X0027600Y0021391D02*
X0016600Y0021391D01*
X0016600Y0019793D02*
X0027600Y0019793D01*
X0027671Y0018194D02*
X0016600Y0018194D01*
X0035929Y0018194D02*
X0037671Y0018194D01*
X0037600Y0019793D02*
X0036000Y0019793D01*
X0036000Y0021391D02*
X0037600Y0021391D01*
X0037600Y0022990D02*
X0036000Y0022990D01*
X0036400Y0024588D02*
X0037600Y0024588D01*
X0037994Y0026187D02*
X0036656Y0026187D01*
X0038255Y0027785D02*
X0039245Y0027785D01*
X0039853Y0029384D02*
X0043914Y0029384D01*
X0044522Y0030982D02*
X0045512Y0030982D01*
X0045675Y0032581D02*
X0047111Y0032581D01*
X0047600Y0034179D02*
X0046000Y0034179D01*
X0046000Y0035778D02*
X0047600Y0035778D01*
X0047600Y0037376D02*
X0046000Y0037376D01*
X0046000Y0038975D02*
X0047600Y0038975D01*
X0047740Y0040573D02*
X0045860Y0040573D01*
X0044968Y0042172D02*
X0048632Y0042172D01*
X0054968Y0042172D02*
X0058632Y0042172D01*
X0057740Y0040573D02*
X0055860Y0040573D01*
X0056000Y0038975D02*
X0057600Y0038975D01*
X0057600Y0037376D02*
X0056000Y0037376D01*
X0056000Y0035778D02*
X0057600Y0035778D01*
X0057600Y0034179D02*
X0056000Y0034179D01*
X0055675Y0032581D02*
X0057111Y0032581D01*
X0055512Y0030982D02*
X0054522Y0030982D01*
X0053914Y0029384D02*
X0049853Y0029384D01*
X0049245Y0027785D02*
X0048255Y0027785D01*
X0047994Y0026187D02*
X0046656Y0026187D01*
X0046400Y0024588D02*
X0047600Y0024588D01*
X0047600Y0022990D02*
X0046000Y0022990D01*
X0046000Y0021391D02*
X0047600Y0021391D01*
X0047600Y0019793D02*
X0046000Y0019793D01*
X0045929Y0018194D02*
X0047671Y0018194D01*
X0055929Y0018194D02*
X0057671Y0018194D01*
X0057600Y0019793D02*
X0056000Y0019793D01*
X0056000Y0021391D02*
X0057600Y0021391D01*
X0057600Y0022990D02*
X0056000Y0022990D01*
X0056400Y0024588D02*
X0057600Y0024588D01*
X0057994Y0026187D02*
X0056656Y0026187D01*
X0058255Y0027785D02*
X0059245Y0027785D01*
X0059853Y0029384D02*
X0063914Y0029384D01*
X0064522Y0030982D02*
X0065512Y0030982D01*
X0065675Y0032581D02*
X0067111Y0032581D01*
X0067600Y0034179D02*
X0066000Y0034179D01*
X0066000Y0035778D02*
X0067600Y0035778D01*
X0067600Y0037376D02*
X0066000Y0037376D01*
X0066000Y0038975D02*
X0067600Y0038975D01*
X0067740Y0040573D02*
X0065860Y0040573D01*
X0064968Y0042172D02*
X0068632Y0042172D01*
X0074968Y0042172D02*
X0078632Y0042172D01*
X0077740Y0040573D02*
X0075860Y0040573D01*
X0076000Y0038975D02*
X0077600Y0038975D01*
X0077600Y0037376D02*
X0076000Y0037376D01*
X0076000Y0035778D02*
X0077600Y0035778D01*
X0077600Y0034179D02*
X0076000Y0034179D01*
X0075675Y0032581D02*
X0077111Y0032581D01*
X0075512Y0030982D02*
X0074522Y0030982D01*
X0073914Y0029384D02*
X0069853Y0029384D01*
X0069245Y0027785D02*
X0068255Y0027785D01*
X0067994Y0026187D02*
X0066656Y0026187D01*
X0066400Y0024588D02*
X0067600Y0024588D01*
X0067600Y0022990D02*
X0066000Y0022990D01*
X0066000Y0021391D02*
X0067600Y0021391D01*
X0067600Y0019793D02*
X0066000Y0019793D01*
X0065929Y0018194D02*
X0067671Y0018194D01*
X0075929Y0018194D02*
X0077671Y0018194D01*
X0077600Y0019793D02*
X0076000Y0019793D01*
X0076000Y0021391D02*
X0077600Y0021391D01*
X0077600Y0022990D02*
X0076000Y0022990D01*
X0076400Y0024588D02*
X0077600Y0024588D01*
X0077994Y0026187D02*
X0076656Y0026187D01*
X0078255Y0027785D02*
X0079245Y0027785D01*
X0079853Y0029384D02*
X0083914Y0029384D01*
X0084522Y0030982D02*
X0085512Y0030982D01*
X0085675Y0032581D02*
X0087111Y0032581D01*
X0087600Y0034179D02*
X0086000Y0034179D01*
X0086000Y0035778D02*
X0087600Y0035778D01*
X0087600Y0037376D02*
X0086000Y0037376D01*
X0086000Y0038975D02*
X0087600Y0038975D01*
X0087740Y0040573D02*
X0085860Y0040573D01*
X0084968Y0042172D02*
X0088632Y0042172D01*
X0094968Y0042172D02*
X0098632Y0042172D01*
X0097740Y0040573D02*
X0095860Y0040573D01*
X0096000Y0038975D02*
X0097600Y0038975D01*
X0097600Y0037376D02*
X0096000Y0037376D01*
X0096000Y0035778D02*
X0097600Y0035778D01*
X0097600Y0034179D02*
X0096000Y0034179D01*
X0095675Y0032581D02*
X0097111Y0032581D01*
X0095512Y0030982D02*
X0094522Y0030982D01*
X0093914Y0029384D02*
X0089853Y0029384D01*
X0089245Y0027785D02*
X0088255Y0027785D01*
X0087994Y0026187D02*
X0086656Y0026187D01*
X0086400Y0024588D02*
X0087600Y0024588D01*
X0087600Y0022990D02*
X0086000Y0022990D01*
X0086000Y0021391D02*
X0087600Y0021391D01*
X0087600Y0019793D02*
X0086000Y0019793D01*
X0085929Y0018194D02*
X0087671Y0018194D01*
X0095929Y0018194D02*
X0097671Y0018194D01*
X0097600Y0019793D02*
X0096000Y0019793D01*
X0096000Y0021391D02*
X0097600Y0021391D01*
X0097600Y0022990D02*
X0096000Y0022990D01*
X0096400Y0024588D02*
X0097600Y0024588D01*
X0097994Y0026187D02*
X0096656Y0026187D01*
X0098255Y0027785D02*
X0099245Y0027785D01*
X0099853Y0029384D02*
X0103914Y0029384D01*
X0104522Y0030982D02*
X0105512Y0030982D01*
X0105675Y0032581D02*
X0107111Y0032581D01*
X0107600Y0034179D02*
X0106000Y0034179D01*
X0106000Y0035778D02*
X0107600Y0035778D01*
X0107600Y0037376D02*
X0106000Y0037376D01*
X0106000Y0038975D02*
X0107600Y0038975D01*
X0107740Y0040573D02*
X0105860Y0040573D01*
X0104968Y0042172D02*
X0108632Y0042172D01*
X0114968Y0042172D02*
X0118632Y0042172D01*
X0117740Y0040573D02*
X0115860Y0040573D01*
X0116000Y0038975D02*
X0117600Y0038975D01*
X0117600Y0037376D02*
X0116000Y0037376D01*
X0116000Y0035778D02*
X0117600Y0035778D01*
X0117600Y0034179D02*
X0116000Y0034179D01*
X0115675Y0032581D02*
X0117111Y0032581D01*
X0115512Y0030982D02*
X0114522Y0030982D01*
X0113914Y0029384D02*
X0109853Y0029384D01*
X0109245Y0027785D02*
X0108255Y0027785D01*
X0107994Y0026187D02*
X0106656Y0026187D01*
X0106400Y0024588D02*
X0107600Y0024588D01*
X0107600Y0022990D02*
X0106000Y0022990D01*
X0106000Y0021391D02*
X0107600Y0021391D01*
X0107600Y0019793D02*
X0106000Y0019793D01*
X0105929Y0018194D02*
X0107671Y0018194D01*
X0115929Y0018194D02*
X0117671Y0018194D01*
X0117600Y0019793D02*
X0116000Y0019793D01*
X0116000Y0021391D02*
X0117600Y0021391D01*
X0117600Y0022990D02*
X0116000Y0022990D01*
X0116400Y0024588D02*
X0117600Y0024588D01*
X0117994Y0026187D02*
X0116656Y0026187D01*
X0118255Y0027785D02*
X0119245Y0027785D01*
X0119853Y0029384D02*
X0123914Y0029384D01*
X0124522Y0030982D02*
X0125512Y0030982D01*
X0125675Y0032581D02*
X0127111Y0032581D01*
X0127600Y0034179D02*
X0126000Y0034179D01*
X0126000Y0035778D02*
X0127600Y0035778D01*
X0127600Y0037376D02*
X0126000Y0037376D01*
X0126000Y0038975D02*
X0127600Y0038975D01*
X0127740Y0040573D02*
X0125860Y0040573D01*
X0124968Y0042172D02*
X0128632Y0042172D01*
X0134968Y0042172D02*
X0138632Y0042172D01*
X0137740Y0040573D02*
X0135860Y0040573D01*
X0136000Y0038975D02*
X0137600Y0038975D01*
X0137600Y0037376D02*
X0136000Y0037376D01*
X0136000Y0035778D02*
X0137600Y0035778D01*
X0137600Y0034179D02*
X0136000Y0034179D01*
X0135675Y0032581D02*
X0137111Y0032581D01*
X0135512Y0030982D02*
X0134522Y0030982D01*
X0133914Y0029384D02*
X0129853Y0029384D01*
X0129245Y0027785D02*
X0128255Y0027785D01*
X0127994Y0026187D02*
X0126656Y0026187D01*
X0126400Y0024588D02*
X0127600Y0024588D01*
X0127600Y0022990D02*
X0126000Y0022990D01*
X0126000Y0021391D02*
X0127600Y0021391D01*
X0127600Y0019793D02*
X0126000Y0019793D01*
X0125929Y0018194D02*
X0127671Y0018194D01*
X0135929Y0018194D02*
X0137504Y0018194D01*
X0137400Y0019793D02*
X0136000Y0019793D01*
X0136000Y0021391D02*
X0137400Y0021391D01*
X0137400Y0022990D02*
X0136000Y0022990D01*
X0136400Y0024588D02*
X0137400Y0024588D01*
X0137772Y0026187D02*
X0136656Y0026187D01*
X0138255Y0027785D02*
X0138973Y0027785D01*
X0139853Y0029384D02*
X0155701Y0029384D01*
X0155701Y0027785D02*
X0144627Y0027785D01*
X0145828Y0026187D02*
X0155701Y0026187D01*
X0155701Y0024588D02*
X0146200Y0024588D01*
X0146200Y0022990D02*
X0155701Y0022990D01*
X0155701Y0021391D02*
X0146200Y0021391D01*
X0146200Y0019793D02*
X0155701Y0019793D01*
X0155701Y0018194D02*
X0146095Y0018194D01*
X0141800Y0022990D02*
X0141800Y0022990D01*
X0141800Y0024588D02*
X0141800Y0024588D01*
X0141800Y0026187D02*
X0141800Y0026187D01*
X0141800Y0027785D02*
X0141800Y0027785D01*
X0144522Y0030982D02*
X0148795Y0030982D01*
X0148934Y0030844D02*
X0149494Y0030437D01*
X0150111Y0030122D01*
X0150770Y0029908D01*
X0151454Y0029800D01*
X0151800Y0029800D01*
X0151800Y0036800D01*
X0147400Y0036800D01*
X0147400Y0033854D01*
X0147508Y0033170D01*
X0147722Y0032511D01*
X0148037Y0031894D01*
X0148444Y0031334D01*
X0148934Y0030844D01*
X0147700Y0032581D02*
X0145675Y0032581D01*
X0146000Y0034179D02*
X0147400Y0034179D01*
X0147400Y0035778D02*
X0146000Y0035778D01*
X0146000Y0037376D02*
X0147400Y0037376D01*
X0147400Y0038975D02*
X0146000Y0038975D01*
X0145860Y0040573D02*
X0147555Y0040573D01*
X0148375Y0042172D02*
X0144968Y0042172D01*
X0151800Y0042172D02*
X0151800Y0042172D01*
X0151800Y0040573D02*
X0151800Y0040573D01*
X0151800Y0038975D02*
X0151800Y0038975D01*
X0151800Y0037376D02*
X0151800Y0037376D01*
X0151800Y0035778D02*
X0151800Y0035778D01*
X0151800Y0034179D02*
X0151800Y0034179D01*
X0151800Y0032581D02*
X0151800Y0032581D01*
X0151800Y0030982D02*
X0151800Y0030982D01*
X0154805Y0030982D02*
X0155701Y0030982D01*
X0155701Y0042172D02*
X0155225Y0042172D01*
X0038632Y0042172D02*
X0035225Y0042172D01*
X0036045Y0040573D02*
X0037740Y0040573D01*
X0037600Y0038975D02*
X0036200Y0038975D01*
X0036200Y0037376D02*
X0037600Y0037376D01*
X0037600Y0035778D02*
X0036200Y0035778D01*
X0036200Y0034179D02*
X0037600Y0034179D01*
X0037111Y0032581D02*
X0035900Y0032581D01*
X0035512Y0030982D02*
X0034805Y0030982D01*
X0028025Y0077339D02*
X0016600Y0077339D01*
X0016600Y0078937D02*
X0027600Y0078937D01*
X0027600Y0080536D02*
X0016600Y0080536D01*
X0016600Y0082134D02*
X0027600Y0082134D01*
X0027600Y0083733D02*
X0016600Y0083733D01*
X0016600Y0085332D02*
X0027640Y0085332D01*
X0026200Y0086930D02*
X0016600Y0086930D01*
X0016600Y0088529D02*
X0024602Y0088529D01*
X0023003Y0090127D02*
X0022942Y0090127D01*
X0020658Y0090127D02*
X0016600Y0090127D01*
X0016600Y0091726D02*
X0018335Y0091726D01*
X0017617Y0093324D02*
X0016600Y0093324D01*
X0016600Y0094923D02*
X0017600Y0094923D01*
X0017600Y0096521D02*
X0016600Y0096521D01*
X0016600Y0098120D02*
X0017600Y0098120D01*
X0017600Y0099718D02*
X0016600Y0099718D01*
X0016600Y0101317D02*
X0018048Y0101317D01*
X0025552Y0101317D02*
X0028048Y0101317D01*
X0027600Y0099718D02*
X0026000Y0099718D01*
X0026000Y0098120D02*
X0027600Y0098120D01*
M02*
