G75*
%MOIN*%
%OFA0B0*%
%FSLAX25Y25*%
%IPPOS*%
%LPD*%
%AMOC8*
5,1,8,0,0,1.08239X$1,22.5*
%
%ADD10C,0.00000*%
%ADD11C,0.06000*%
D10*
X0011800Y0011800D02*
X0011800Y0106761D01*
X0160501Y0106761D01*
X0160501Y0011800D01*
X0011800Y0011800D01*
D11*
X0031800Y0019200D02*
X0031800Y0024400D01*
X0041800Y0024400D02*
X0041800Y0019200D01*
X0051800Y0019200D02*
X0051800Y0024400D01*
X0061800Y0024400D02*
X0061800Y0019200D01*
X0071800Y0019200D02*
X0071800Y0024400D01*
X0081800Y0024400D02*
X0081800Y0019200D01*
X0091800Y0019200D02*
X0091800Y0024400D01*
X0101800Y0024400D02*
X0101800Y0019200D01*
X0111800Y0019200D02*
X0111800Y0024400D01*
X0121800Y0024400D02*
X0121800Y0019200D01*
X0131800Y0019200D02*
X0131800Y0024400D01*
X0141800Y0024400D02*
X0141800Y0019200D01*
X0141800Y0034200D02*
X0141800Y0039400D01*
X0131800Y0039400D02*
X0131800Y0034200D01*
X0121800Y0034200D02*
X0121800Y0039400D01*
X0111800Y0039400D02*
X0111800Y0034200D01*
X0101800Y0034200D02*
X0101800Y0039400D01*
X0091800Y0039400D02*
X0091800Y0034200D01*
X0081800Y0034200D02*
X0081800Y0039400D01*
X0071800Y0039400D02*
X0071800Y0034200D01*
X0061800Y0034200D02*
X0061800Y0039400D01*
X0051800Y0039400D02*
X0051800Y0034200D01*
X0041800Y0034200D02*
X0041800Y0039400D01*
X0031800Y0039400D02*
X0031800Y0034200D01*
X0021800Y0034200D02*
X0021800Y0039400D01*
X0031800Y0079200D02*
X0031800Y0084400D01*
X0041800Y0084400D02*
X0041800Y0079200D01*
X0051800Y0079200D02*
X0051800Y0084400D01*
X0061800Y0084400D02*
X0061800Y0079200D01*
X0071800Y0079200D02*
X0071800Y0084400D01*
X0081800Y0084400D02*
X0081800Y0079200D01*
X0091800Y0079200D02*
X0091800Y0084400D01*
X0101800Y0084400D02*
X0101800Y0079200D01*
X0111800Y0079200D02*
X0111800Y0084400D01*
X0121800Y0084400D02*
X0121800Y0079200D01*
X0131800Y0079200D02*
X0131800Y0084400D01*
X0141800Y0084400D02*
X0141800Y0079200D01*
X0141800Y0094200D02*
X0141800Y0099400D01*
X0131800Y0099400D02*
X0131800Y0094200D01*
X0121800Y0094200D02*
X0121800Y0099400D01*
X0111800Y0099400D02*
X0111800Y0094200D01*
X0101800Y0094200D02*
X0101800Y0099400D01*
X0091800Y0099400D02*
X0091800Y0094200D01*
X0081800Y0094200D02*
X0081800Y0099400D01*
X0071800Y0099400D02*
X0071800Y0094200D01*
X0061800Y0094200D02*
X0061800Y0099400D01*
X0051800Y0099400D02*
X0051800Y0094200D01*
X0041800Y0094200D02*
X0041800Y0099400D01*
X0031800Y0099400D02*
X0031800Y0094200D01*
X0021800Y0094200D02*
X0021800Y0099400D01*
X0151800Y0099400D02*
X0151800Y0094200D01*
X0151800Y0039400D02*
X0151800Y0034200D01*
M02*
