%
M48
M72
T01C0.03200
%
T01
X31800Y21800
X41800Y21800
X51800Y21800
X61800Y21800
X71800Y21800
X81800Y21800
X91800Y21800
X101800Y21800
X111800Y21800
X121800Y21800
X131800Y21800
X141800Y21800
X141800Y36800
X131800Y36800
X121800Y36800
X111800Y36800
X101800Y36800
X91800Y36800
X81800Y36800
X71800Y36800
X61800Y36800
X51800Y36800
X41800Y36800
X31800Y36800
X21800Y36800
X31800Y81800
X41800Y81800
X51800Y81800
X61800Y81800
X71800Y81800
X81800Y81800
X91800Y81800
X101800Y81800
X111800Y81800
X121800Y81800
X131800Y81800
X141800Y81800
X141800Y96800
X131800Y96800
X121800Y96800
X111800Y96800
X101800Y96800
X91800Y96800
X81800Y96800
X71800Y96800
X61800Y96800
X51800Y96800
X41800Y96800
X31800Y96800
X21800Y96800
X151800Y96800
X151800Y36800
M30
