G75*
%MOIN*%
%OFA0B0*%
%FSLAX25Y25*%
%IPPOS*%
%LPD*%
%AMOC8*
5,1,8,0,0,1.08239X$1,22.5*
%
%ADD10C,0.00000*%
%ADD11C,0.06000*%
%ADD12C,0.10039*%
%ADD13C,0.05937*%
%ADD14C,0.10000*%
%ADD15C,0.03200*%
D10*
X0001000Y0001000D02*
X0001200Y0176576D01*
X0099901Y0176576D01*
X0099901Y0001300D01*
X0001000Y0001000D01*
X0098213Y0001300D02*
X0098213Y0176576D01*
X0196914Y0176576D01*
X0196914Y0001300D01*
X0098213Y0001300D01*
X0195006Y0001370D02*
X0195006Y0176646D01*
X0293707Y0176646D01*
X0293707Y0001370D01*
X0195006Y0001370D01*
X0291809Y0001370D02*
X0291809Y0176646D01*
X0390510Y0176646D01*
X0390510Y0001370D01*
X0291809Y0001370D01*
D11*
X0308935Y0100929D02*
X0308935Y0106929D01*
X0318935Y0106929D02*
X0318935Y0100929D01*
X0328935Y0100929D02*
X0328935Y0106929D01*
X0232132Y0106929D02*
X0232132Y0100929D01*
X0222132Y0100929D02*
X0222132Y0106929D01*
X0212132Y0106929D02*
X0212132Y0100929D01*
X0135339Y0100859D02*
X0135339Y0106859D01*
X0125339Y0106859D02*
X0125339Y0100859D01*
X0115339Y0100859D02*
X0115339Y0106859D01*
X0038326Y0106859D02*
X0038326Y0100859D01*
X0028326Y0100859D02*
X0028326Y0106859D01*
X0018326Y0106859D02*
X0018326Y0100859D01*
D12*
X0024468Y0140217D02*
X0024468Y0150257D01*
X0040058Y0150257D02*
X0040058Y0140217D01*
X0055649Y0140217D02*
X0055649Y0150257D01*
X0008877Y0150257D02*
X0008877Y0140217D01*
X0105890Y0140217D02*
X0105890Y0150257D01*
X0121481Y0150257D02*
X0121481Y0140217D01*
X0137071Y0140217D02*
X0137071Y0150257D01*
X0152662Y0150257D02*
X0152662Y0140217D01*
X0202683Y0140287D02*
X0202683Y0150327D01*
X0218274Y0150327D02*
X0218274Y0140287D01*
X0233864Y0140287D02*
X0233864Y0150327D01*
X0249455Y0150327D02*
X0249455Y0140287D01*
X0299486Y0140287D02*
X0299486Y0150327D01*
X0315077Y0150327D02*
X0315077Y0140287D01*
X0330667Y0140287D02*
X0330667Y0150327D01*
X0346258Y0150327D02*
X0346258Y0140287D01*
X0346258Y0038516D02*
X0346258Y0028476D01*
X0330667Y0028476D02*
X0330667Y0038516D01*
X0315077Y0038516D02*
X0315077Y0028476D01*
X0299486Y0028476D02*
X0299486Y0038516D01*
X0249455Y0038516D02*
X0249455Y0028476D01*
X0233864Y0028476D02*
X0233864Y0038516D01*
X0218274Y0038516D02*
X0218274Y0028476D01*
X0202683Y0028476D02*
X0202683Y0038516D01*
X0152662Y0038446D02*
X0152662Y0028406D01*
X0137071Y0028406D02*
X0137071Y0038446D01*
X0121481Y0038446D02*
X0121481Y0028406D01*
X0105890Y0028406D02*
X0105890Y0038446D01*
X0055649Y0038446D02*
X0055649Y0028406D01*
X0040058Y0028406D02*
X0040058Y0038446D01*
X0024468Y0038446D02*
X0024468Y0028406D01*
X0008877Y0028406D02*
X0008877Y0038446D01*
D13*
X0084137Y0139450D02*
X0090074Y0139450D01*
X0090074Y0149450D02*
X0084137Y0149450D01*
X0084137Y0159450D02*
X0090074Y0159450D01*
X0181150Y0159450D02*
X0187087Y0159450D01*
X0187087Y0149450D02*
X0181150Y0149450D01*
X0181150Y0139450D02*
X0187087Y0139450D01*
X0277943Y0139520D02*
X0283880Y0139520D01*
X0283880Y0149520D02*
X0277943Y0149520D01*
X0277943Y0159520D02*
X0283880Y0159520D01*
X0374746Y0159520D02*
X0380683Y0159520D01*
X0380683Y0149520D02*
X0374746Y0149520D01*
X0374746Y0139520D02*
X0380683Y0139520D01*
D14*
X0377518Y0097488D02*
X0367518Y0097488D01*
X0367518Y0077488D02*
X0377518Y0077488D01*
X0377518Y0035488D02*
X0367518Y0035488D01*
X0367518Y0015488D02*
X0377518Y0015488D01*
X0280715Y0015488D02*
X0270715Y0015488D01*
X0270715Y0035488D02*
X0280715Y0035488D01*
X0280715Y0077488D02*
X0270715Y0077488D01*
X0270715Y0097488D02*
X0280715Y0097488D01*
X0183922Y0097418D02*
X0173922Y0097418D01*
X0173922Y0077418D02*
X0183922Y0077418D01*
X0183922Y0035418D02*
X0173922Y0035418D01*
X0173922Y0015418D02*
X0183922Y0015418D01*
X0086909Y0015418D02*
X0076909Y0015418D01*
X0076909Y0035418D02*
X0086909Y0035418D01*
X0086909Y0077418D02*
X0076909Y0077418D01*
X0076909Y0097418D02*
X0086909Y0097418D01*
D15*
X0125550Y0099363D02*
X0125339Y0103859D01*
X0125550Y0103900D01*
X0121613Y0144700D01*
X0121481Y0145237D01*
X0121613Y0145300D01*
X0137381Y0170911D01*
X0184013Y0170911D01*
X0184119Y0159450D01*
X0171413Y0139900D02*
X0160519Y0162606D01*
X0142707Y0162606D01*
X0137213Y0145300D01*
X0137071Y0145237D01*
X0136613Y0144700D01*
X0135750Y0135963D01*
X0135750Y0105869D01*
X0135339Y0103859D01*
X0135750Y0101331D01*
X0136613Y0098500D01*
X0136613Y0033700D01*
X0137071Y0033426D01*
X0121613Y0033700D02*
X0121481Y0033426D01*
X0121613Y0033700D02*
X0125550Y0099363D01*
X0039600Y0098500D02*
X0038737Y0101331D01*
X0038326Y0103859D01*
X0038737Y0105869D01*
X0038737Y0135963D01*
X0039600Y0144700D01*
X0040058Y0145237D01*
X0040200Y0145300D01*
X0045694Y0162606D01*
X0063506Y0162606D01*
X0074400Y0139900D01*
X0087000Y0139900D01*
X0087106Y0139450D01*
X0106013Y0144700D02*
X0105890Y0145237D01*
X0106013Y0144700D02*
X0106013Y0033700D01*
X0105890Y0033426D01*
X0152662Y0033426D02*
X0152813Y0033700D01*
X0152813Y0144700D01*
X0152662Y0145237D01*
X0171413Y0139900D02*
X0184013Y0139900D01*
X0184119Y0139450D01*
X0202806Y0144770D02*
X0202683Y0145307D01*
X0202806Y0144770D02*
X0202806Y0033770D01*
X0202683Y0033496D01*
X0218274Y0033496D02*
X0218406Y0033770D01*
X0222343Y0099433D01*
X0222132Y0103929D01*
X0222343Y0103970D01*
X0218406Y0144770D01*
X0218274Y0145307D01*
X0218406Y0145370D01*
X0234174Y0170981D01*
X0280806Y0170981D01*
X0280911Y0159520D01*
X0268206Y0139970D02*
X0257311Y0162676D01*
X0239500Y0162676D01*
X0234006Y0145370D01*
X0233864Y0145307D01*
X0233406Y0144770D01*
X0232543Y0136033D01*
X0232543Y0105939D01*
X0232132Y0103929D01*
X0232543Y0101402D01*
X0233406Y0098570D01*
X0233406Y0033770D01*
X0233864Y0033496D01*
X0249455Y0033496D02*
X0249606Y0033770D01*
X0249606Y0144770D01*
X0249455Y0145307D01*
X0268206Y0139970D02*
X0280806Y0139970D01*
X0280911Y0139520D01*
X0299609Y0144770D02*
X0299486Y0145307D01*
X0299609Y0144770D02*
X0299609Y0033770D01*
X0299486Y0033496D01*
X0315077Y0033496D02*
X0315209Y0033770D01*
X0319146Y0099433D01*
X0318935Y0103929D01*
X0319146Y0103970D01*
X0315209Y0144770D01*
X0315077Y0145307D01*
X0315209Y0145370D01*
X0330977Y0170981D01*
X0377609Y0170981D01*
X0377714Y0159520D01*
X0365009Y0139970D02*
X0354114Y0162676D01*
X0336303Y0162676D01*
X0330809Y0145370D01*
X0330667Y0145307D01*
X0330209Y0144770D01*
X0329346Y0136033D01*
X0329346Y0105939D01*
X0328935Y0103929D01*
X0329346Y0101402D01*
X0330209Y0098570D01*
X0330209Y0033770D01*
X0330667Y0033496D01*
X0346258Y0033496D02*
X0346409Y0033770D01*
X0346409Y0144770D01*
X0346258Y0145307D01*
X0365009Y0139970D02*
X0377609Y0139970D01*
X0377714Y0139520D01*
X0087106Y0159450D02*
X0087000Y0170911D01*
X0040369Y0170911D01*
X0024600Y0145300D01*
X0024468Y0145237D01*
X0024600Y0144700D01*
X0028537Y0103900D01*
X0028326Y0103859D01*
X0028537Y0099363D01*
X0024600Y0033700D01*
X0024468Y0033426D01*
X0039600Y0033700D02*
X0040058Y0033426D01*
X0039600Y0033700D02*
X0039600Y0098500D01*
X0055800Y0144700D02*
X0055649Y0145237D01*
X0055800Y0144700D02*
X0055800Y0033700D01*
X0055649Y0033426D01*
X0009000Y0033700D02*
X0008877Y0033426D01*
X0009000Y0033700D02*
X0009000Y0144700D01*
X0008877Y0145237D01*
M02*
