G75*
%MOIN*%
%OFA0B0*%
%FSLAX25Y25*%
%IPPOS*%
%LPD*%
%AMOC8*
5,1,8,0,0,1.08239X$1,22.5*
%
%ADD10C,0.00000*%
%ADD11C,0.06000*%
%ADD12C,0.10039*%
%ADD13C,0.05937*%
%ADD14C,0.10000*%
%ADD15C,0.03200*%
D10*
X0001000Y0001000D02*
X0001200Y0176576D01*
X0099901Y0176576D01*
X0099901Y0001300D01*
X0001000Y0001000D01*
X0098213Y0001300D02*
X0098213Y0176576D01*
X0196914Y0176576D01*
X0196914Y0001300D01*
X0098213Y0001300D01*
X0195006Y0001370D02*
X0195006Y0176646D01*
X0293707Y0176646D01*
X0293707Y0001370D01*
X0195006Y0001370D01*
X0291809Y0001370D02*
X0291809Y0176646D01*
X0390510Y0176646D01*
X0390510Y0001370D01*
X0291809Y0001370D01*
D11*
X0308935Y0100929D02*
X0308935Y0106929D01*
X0318935Y0106929D02*
X0318935Y0100929D01*
X0328935Y0100929D02*
X0328935Y0106929D01*
X0232132Y0106929D02*
X0232132Y0100929D01*
X0222132Y0100929D02*
X0222132Y0106929D01*
X0212132Y0106929D02*
X0212132Y0100929D01*
X0135339Y0100859D02*
X0135339Y0106859D01*
X0125339Y0106859D02*
X0125339Y0100859D01*
X0115339Y0100859D02*
X0115339Y0106859D01*
X0038326Y0106859D02*
X0038326Y0100859D01*
X0028326Y0100859D02*
X0028326Y0106859D01*
X0018326Y0106859D02*
X0018326Y0100859D01*
D12*
X0024468Y0140217D02*
X0024468Y0150257D01*
X0040058Y0150257D02*
X0040058Y0140217D01*
X0055649Y0140217D02*
X0055649Y0150257D01*
X0008877Y0150257D02*
X0008877Y0140217D01*
X0105890Y0140217D02*
X0105890Y0150257D01*
X0121481Y0150257D02*
X0121481Y0140217D01*
X0137071Y0140217D02*
X0137071Y0150257D01*
X0152662Y0150257D02*
X0152662Y0140217D01*
X0202683Y0140287D02*
X0202683Y0150327D01*
X0218274Y0150327D02*
X0218274Y0140287D01*
X0233864Y0140287D02*
X0233864Y0150327D01*
X0249455Y0150327D02*
X0249455Y0140287D01*
X0299486Y0140287D02*
X0299486Y0150327D01*
X0315077Y0150327D02*
X0315077Y0140287D01*
X0330667Y0140287D02*
X0330667Y0150327D01*
X0346258Y0150327D02*
X0346258Y0140287D01*
X0346258Y0038516D02*
X0346258Y0028476D01*
X0330667Y0028476D02*
X0330667Y0038516D01*
X0315077Y0038516D02*
X0315077Y0028476D01*
X0299486Y0028476D02*
X0299486Y0038516D01*
X0249455Y0038516D02*
X0249455Y0028476D01*
X0233864Y0028476D02*
X0233864Y0038516D01*
X0218274Y0038516D02*
X0218274Y0028476D01*
X0202683Y0028476D02*
X0202683Y0038516D01*
X0152662Y0038446D02*
X0152662Y0028406D01*
X0137071Y0028406D02*
X0137071Y0038446D01*
X0121481Y0038446D02*
X0121481Y0028406D01*
X0105890Y0028406D02*
X0105890Y0038446D01*
X0055649Y0038446D02*
X0055649Y0028406D01*
X0040058Y0028406D02*
X0040058Y0038446D01*
X0024468Y0038446D02*
X0024468Y0028406D01*
X0008877Y0028406D02*
X0008877Y0038446D01*
D13*
X0084137Y0139450D02*
X0090074Y0139450D01*
X0090074Y0149450D02*
X0084137Y0149450D01*
X0084137Y0159450D02*
X0090074Y0159450D01*
X0181150Y0159450D02*
X0187087Y0159450D01*
X0187087Y0149450D02*
X0181150Y0149450D01*
X0181150Y0139450D02*
X0187087Y0139450D01*
X0277943Y0139520D02*
X0283880Y0139520D01*
X0283880Y0149520D02*
X0277943Y0149520D01*
X0277943Y0159520D02*
X0283880Y0159520D01*
X0374746Y0159520D02*
X0380683Y0159520D01*
X0380683Y0149520D02*
X0374746Y0149520D01*
X0374746Y0139520D02*
X0380683Y0139520D01*
D14*
X0377518Y0097488D02*
X0367518Y0097488D01*
X0367518Y0077488D02*
X0377518Y0077488D01*
X0377518Y0035488D02*
X0367518Y0035488D01*
X0367518Y0015488D02*
X0377518Y0015488D01*
X0280715Y0015488D02*
X0270715Y0015488D01*
X0270715Y0035488D02*
X0280715Y0035488D01*
X0280715Y0077488D02*
X0270715Y0077488D01*
X0270715Y0097488D02*
X0280715Y0097488D01*
X0183922Y0097418D02*
X0173922Y0097418D01*
X0173922Y0077418D02*
X0183922Y0077418D01*
X0183922Y0035418D02*
X0173922Y0035418D01*
X0173922Y0015418D02*
X0183922Y0015418D01*
X0086909Y0015418D02*
X0076909Y0015418D01*
X0076909Y0035418D02*
X0086909Y0035418D01*
X0086909Y0077418D02*
X0076909Y0077418D01*
X0076909Y0097418D02*
X0086909Y0097418D01*
D15*
X0083877Y0097757D02*
X0081909Y0097757D01*
X0081909Y0078072D01*
X0063883Y0066376D02*
X0063883Y0015700D01*
X0081909Y0015418D01*
X0081909Y0015080D02*
X0081909Y0034765D01*
X0063883Y0066376D02*
X0018337Y0066646D01*
X0018337Y0097394D01*
X0018326Y0103859D01*
X0077831Y0101669D02*
X0081600Y0097900D01*
X0081909Y0097418D01*
X0077831Y0101669D02*
X0077831Y0145637D01*
X0087000Y0148900D01*
X0087106Y0149450D01*
X0174844Y0145637D02*
X0174844Y0101669D01*
X0178613Y0097900D01*
X0178922Y0097418D01*
X0178922Y0097757D02*
X0178922Y0078072D01*
X0160896Y0066376D02*
X0160896Y0015700D01*
X0178922Y0015418D01*
X0178922Y0015080D02*
X0178922Y0034765D01*
X0160896Y0066376D02*
X0115350Y0066646D01*
X0115350Y0097394D01*
X0115339Y0103859D01*
X0178922Y0097757D02*
X0180890Y0097757D01*
X0212143Y0097464D02*
X0212132Y0103929D01*
X0212143Y0097464D02*
X0212143Y0066716D01*
X0257689Y0066446D01*
X0257689Y0015770D01*
X0275715Y0015488D01*
X0275715Y0015150D02*
X0275715Y0034835D01*
X0308946Y0066716D02*
X0354492Y0066446D01*
X0354492Y0015770D01*
X0372518Y0015488D01*
X0372518Y0015150D02*
X0372518Y0034835D01*
X0308946Y0066716D02*
X0308946Y0097464D01*
X0308935Y0103929D01*
X0277683Y0097827D02*
X0275715Y0097827D01*
X0275715Y0078142D01*
X0275715Y0097488D02*
X0275406Y0097970D01*
X0271637Y0101739D01*
X0271637Y0145707D01*
X0280806Y0148970D01*
X0280911Y0149520D01*
X0368440Y0145707D02*
X0368440Y0101739D01*
X0372209Y0097970D01*
X0372518Y0097488D01*
X0372518Y0097827D02*
X0372518Y0078142D01*
X0372518Y0097827D02*
X0374486Y0097827D01*
X0368440Y0145707D02*
X0377609Y0148970D01*
X0377714Y0149520D01*
X0184119Y0149450D02*
X0184013Y0148900D01*
X0174844Y0145637D01*
M02*
