%
M48
M72
T01C0.03937
T02C0.04000
T03C0.05200
T04C0.06693
%
T01
X280911Y139520
X280911Y149520
X280911Y159520
X184119Y159450
X184119Y149450
X184119Y139450
X87106Y139450
X87106Y149450
X87106Y159450
X377714Y159520
X377714Y149520
X377714Y139520
T02
X308935Y103929
X318935Y103929
X328935Y103929
X232132Y103929
X222132Y103929
X212132Y103929
X135339Y103859
X125339Y103859
X115339Y103859
X38326Y103859
X28326Y103859
X18326Y103859
T03
X275715Y97488
X275715Y77488
X275715Y35488
X275715Y15488
X178922Y15418
X178922Y35418
X178922Y77418
X178922Y97418
X81909Y97418
X81909Y77418
X81909Y35418
X81909Y15418
X372518Y15488
X372518Y35488
X372518Y77488
X372518Y97488
T04
X8877Y145237
X24468Y145237
X40058Y145237
X55649Y145237
X105890Y145237
X121481Y145237
X137071Y145237
X152662Y145237
X202683Y145307
X218274Y145307
X233864Y145307
X249455Y145307
X299486Y145307
X315077Y145307
X330667Y145307
X346258Y145307
X202683Y33496
X218274Y33496
X233864Y33496
X249455Y33496
X299486Y33496
X315077Y33496
X330667Y33496
X346258Y33496
X152662Y33426
X137071Y33426
X121481Y33426
X105890Y33426
X55649Y33426
X40058Y33426
X24468Y33426
X8877Y33426
M30
