G75*
%MOIN*%
%OFA0B0*%
%FSLAX25Y25*%
%IPPOS*%
%LPD*%
%AMOC8*
5,1,8,0,0,1.08239X$1,22.5*
%
%ADD10C,0.00000*%
%ADD11C,0.06800*%
%ADD12C,0.10839*%
%ADD13C,0.06737*%
%ADD14C,0.10800*%
D10*
X0001000Y0001000D02*
X0001200Y0176576D01*
X0099901Y0176576D01*
X0099901Y0001300D01*
X0001000Y0001000D01*
X0098213Y0001300D02*
X0098213Y0176576D01*
X0196914Y0176576D01*
X0196914Y0001300D01*
X0098213Y0001300D01*
X0195006Y0001370D02*
X0195006Y0176646D01*
X0293707Y0176646D01*
X0293707Y0001370D01*
X0195006Y0001370D01*
X0291809Y0001370D02*
X0291809Y0176646D01*
X0390510Y0176646D01*
X0390510Y0001370D01*
X0291809Y0001370D01*
D11*
X0308935Y0100929D02*
X0308935Y0106929D01*
X0318935Y0106929D02*
X0318935Y0100929D01*
X0328935Y0100929D02*
X0328935Y0106929D01*
X0232132Y0106929D02*
X0232132Y0100929D01*
X0222132Y0100929D02*
X0222132Y0106929D01*
X0212132Y0106929D02*
X0212132Y0100929D01*
X0135339Y0100859D02*
X0135339Y0106859D01*
X0125339Y0106859D02*
X0125339Y0100859D01*
X0115339Y0100859D02*
X0115339Y0106859D01*
X0038326Y0106859D02*
X0038326Y0100859D01*
X0028326Y0100859D02*
X0028326Y0106859D01*
X0018326Y0106859D02*
X0018326Y0100859D01*
D12*
X0024468Y0140217D02*
X0024468Y0150257D01*
X0040058Y0150257D02*
X0040058Y0140217D01*
X0055649Y0140217D02*
X0055649Y0150257D01*
X0008877Y0150257D02*
X0008877Y0140217D01*
X0105890Y0140217D02*
X0105890Y0150257D01*
X0121481Y0150257D02*
X0121481Y0140217D01*
X0137071Y0140217D02*
X0137071Y0150257D01*
X0152662Y0150257D02*
X0152662Y0140217D01*
X0202683Y0140287D02*
X0202683Y0150327D01*
X0218274Y0150327D02*
X0218274Y0140287D01*
X0233864Y0140287D02*
X0233864Y0150327D01*
X0249455Y0150327D02*
X0249455Y0140287D01*
X0299486Y0140287D02*
X0299486Y0150327D01*
X0315077Y0150327D02*
X0315077Y0140287D01*
X0330667Y0140287D02*
X0330667Y0150327D01*
X0346258Y0150327D02*
X0346258Y0140287D01*
X0346258Y0038516D02*
X0346258Y0028476D01*
X0330667Y0028476D02*
X0330667Y0038516D01*
X0315077Y0038516D02*
X0315077Y0028476D01*
X0299486Y0028476D02*
X0299486Y0038516D01*
X0249455Y0038516D02*
X0249455Y0028476D01*
X0233864Y0028476D02*
X0233864Y0038516D01*
X0218274Y0038516D02*
X0218274Y0028476D01*
X0202683Y0028476D02*
X0202683Y0038516D01*
X0152662Y0038446D02*
X0152662Y0028406D01*
X0137071Y0028406D02*
X0137071Y0038446D01*
X0121481Y0038446D02*
X0121481Y0028406D01*
X0105890Y0028406D02*
X0105890Y0038446D01*
X0055649Y0038446D02*
X0055649Y0028406D01*
X0040058Y0028406D02*
X0040058Y0038446D01*
X0024468Y0038446D02*
X0024468Y0028406D01*
X0008877Y0028406D02*
X0008877Y0038446D01*
D13*
X0084137Y0139450D02*
X0090074Y0139450D01*
X0090074Y0149450D02*
X0084137Y0149450D01*
X0084137Y0159450D02*
X0090074Y0159450D01*
X0181150Y0159450D02*
X0187087Y0159450D01*
X0187087Y0149450D02*
X0181150Y0149450D01*
X0181150Y0139450D02*
X0187087Y0139450D01*
X0277943Y0139520D02*
X0283880Y0139520D01*
X0283880Y0149520D02*
X0277943Y0149520D01*
X0277943Y0159520D02*
X0283880Y0159520D01*
X0374746Y0159520D02*
X0380683Y0159520D01*
X0380683Y0149520D02*
X0374746Y0149520D01*
X0374746Y0139520D02*
X0380683Y0139520D01*
D14*
X0377518Y0097488D02*
X0367518Y0097488D01*
X0367518Y0077488D02*
X0377518Y0077488D01*
X0377518Y0035488D02*
X0367518Y0035488D01*
X0367518Y0015488D02*
X0377518Y0015488D01*
X0280715Y0015488D02*
X0270715Y0015488D01*
X0270715Y0035488D02*
X0280715Y0035488D01*
X0280715Y0077488D02*
X0270715Y0077488D01*
X0270715Y0097488D02*
X0280715Y0097488D01*
X0183922Y0097418D02*
X0173922Y0097418D01*
X0173922Y0077418D02*
X0183922Y0077418D01*
X0183922Y0035418D02*
X0173922Y0035418D01*
X0173922Y0015418D02*
X0183922Y0015418D01*
X0086909Y0015418D02*
X0076909Y0015418D01*
X0076909Y0035418D02*
X0086909Y0035418D01*
X0086909Y0077418D02*
X0076909Y0077418D01*
X0076909Y0097418D02*
X0086909Y0097418D01*
M02*
