G75*
%MOIN*%
%OFA0B0*%
%FSLAX25Y25*%
%IPPOS*%
%LPD*%
%AMOC8*
5,1,8,0,0,1.08239X$1,22.5*
%
%ADD10C,0.00000*%
%ADD11C,0.01600*%
%ADD12C,0.01200*%
%ADD13C,0.00600*%
%ADD14R,0.04000X0.04000*%
D10*
X0003769Y0015385D02*
X0003769Y0356291D01*
X0296131Y0356133D01*
X0296052Y0015385D01*
X0003769Y0015385D01*
D11*
X0007197Y0016133D02*
X0007197Y0046133D01*
X0007197Y0056133D01*
X0147197Y0056133D01*
X0147197Y0046133D01*
X0147197Y0016133D01*
X0007197Y0016133D01*
X0007197Y0057472D02*
X0007197Y0087472D01*
X0007197Y0097472D01*
X0147197Y0097472D01*
X0147197Y0087472D01*
X0147197Y0057472D01*
X0007197Y0057472D01*
X0007000Y0102354D02*
X0007000Y0132354D01*
X0007000Y0142354D01*
X0147000Y0142354D01*
X0147000Y0132354D01*
X0147000Y0102354D01*
X0007000Y0102354D01*
X0007000Y0143889D02*
X0007000Y0173889D01*
X0007000Y0183889D01*
X0147000Y0183889D01*
X0147000Y0173889D01*
X0147000Y0143889D01*
X0007000Y0143889D01*
X0007000Y0187590D02*
X0007000Y0217590D01*
X0007000Y0227590D01*
X0147000Y0227590D01*
X0147000Y0217590D01*
X0147000Y0187590D01*
X0007000Y0187590D01*
X0007000Y0229125D02*
X0007000Y0259125D01*
X0007000Y0269125D01*
X0147000Y0269125D01*
X0147000Y0259125D01*
X0147000Y0229125D01*
X0007000Y0229125D01*
X0007000Y0272826D02*
X0007000Y0302826D01*
X0007000Y0312826D01*
X0147000Y0312826D01*
X0147000Y0302826D01*
X0147000Y0272826D01*
X0007000Y0272826D01*
X0007000Y0314362D02*
X0007000Y0344362D01*
X0007000Y0354362D01*
X0147000Y0354362D01*
X0147000Y0344362D01*
X0147000Y0314362D01*
X0007000Y0314362D01*
X0152276Y0313574D02*
X0152276Y0343574D01*
X0152276Y0353574D01*
X0292276Y0353574D01*
X0292276Y0343574D01*
X0292276Y0313574D01*
X0152276Y0313574D01*
X0152276Y0312039D02*
X0292276Y0312039D01*
X0292276Y0302039D01*
X0292276Y0272039D01*
X0152276Y0272039D01*
X0152276Y0302039D01*
X0152276Y0312039D01*
X0152472Y0269125D02*
X0292472Y0269125D01*
X0292472Y0259125D01*
X0292472Y0229125D01*
X0152472Y0229125D01*
X0152472Y0259125D01*
X0152472Y0269125D01*
X0152472Y0227590D02*
X0292472Y0227590D01*
X0292472Y0217590D01*
X0292472Y0187590D01*
X0152472Y0187590D01*
X0152472Y0217590D01*
X0152472Y0227590D01*
X0152079Y0183692D02*
X0292079Y0183692D01*
X0292079Y0173692D01*
X0292079Y0143692D01*
X0152079Y0143692D01*
X0152079Y0173692D01*
X0152079Y0183692D01*
X0152079Y0142157D02*
X0292079Y0142157D01*
X0292079Y0132157D01*
X0292079Y0102157D01*
X0152079Y0102157D01*
X0152079Y0132157D01*
X0152079Y0142157D01*
X0152079Y0098062D02*
X0292079Y0098062D01*
X0292079Y0088062D01*
X0292079Y0058062D01*
X0152079Y0058062D01*
X0152079Y0088062D01*
X0152079Y0098062D01*
X0152079Y0056527D02*
X0292079Y0056527D01*
X0292079Y0046527D01*
X0292079Y0016527D01*
X0152079Y0016527D01*
X0152079Y0046527D01*
X0152079Y0056527D01*
D12*
X0152079Y0046527D02*
X0292079Y0046527D01*
X0292079Y0088062D02*
X0152079Y0088062D01*
X0147197Y0087472D02*
X0007197Y0087472D01*
X0007197Y0046133D02*
X0147197Y0046133D01*
X0152079Y0132157D02*
X0292079Y0132157D01*
X0292079Y0173692D02*
X0152079Y0173692D01*
X0147000Y0173889D02*
X0007000Y0173889D01*
X0007000Y0132354D02*
X0147000Y0132354D01*
X0147000Y0217590D02*
X0007000Y0217590D01*
X0007000Y0259125D02*
X0147000Y0259125D01*
X0152472Y0259125D02*
X0292472Y0259125D01*
X0292472Y0217590D02*
X0152472Y0217590D01*
X0152276Y0302039D02*
X0292276Y0302039D01*
X0292276Y0343574D02*
X0152276Y0343574D01*
X0147000Y0344362D02*
X0007000Y0344362D01*
X0007000Y0302826D02*
X0147000Y0302826D01*
D13*
X0204676Y0302142D02*
X0205743Y0301074D01*
X0206811Y0301074D01*
X0207878Y0302142D01*
X0207878Y0307480D01*
X0206811Y0307480D02*
X0208946Y0307480D01*
X0211121Y0305345D02*
X0213256Y0307480D01*
X0213256Y0301074D01*
X0211121Y0301074D02*
X0215391Y0301074D01*
X0214324Y0265944D02*
X0212189Y0265944D01*
X0211121Y0264877D01*
X0208946Y0265944D02*
X0206811Y0265944D01*
X0207878Y0265944D02*
X0207878Y0260606D01*
X0206811Y0259539D01*
X0205743Y0259539D01*
X0204676Y0260606D01*
X0211121Y0259539D02*
X0215391Y0263809D01*
X0215391Y0264877D01*
X0214324Y0265944D01*
X0215391Y0259539D02*
X0211121Y0259539D01*
X0212386Y0223031D02*
X0214521Y0223031D01*
X0215588Y0221963D01*
X0215588Y0220896D01*
X0214521Y0219828D01*
X0215588Y0218761D01*
X0215588Y0217693D01*
X0214521Y0216625D01*
X0212386Y0216625D01*
X0211318Y0217693D01*
X0213453Y0219828D02*
X0214521Y0219828D01*
X0211318Y0221963D02*
X0212386Y0223031D01*
X0209143Y0223031D02*
X0207008Y0223031D01*
X0208075Y0223031D02*
X0208075Y0217693D01*
X0207008Y0216625D01*
X0205940Y0216625D01*
X0204872Y0217693D01*
X0207008Y0181495D02*
X0209143Y0181495D01*
X0208075Y0181495D02*
X0208075Y0176158D01*
X0207008Y0175090D01*
X0205940Y0175090D01*
X0204872Y0176158D01*
X0211318Y0178293D02*
X0215588Y0178293D01*
X0214521Y0181495D02*
X0214521Y0175090D01*
X0211318Y0178293D02*
X0214521Y0181495D01*
X0215195Y0137598D02*
X0210924Y0137598D01*
X0210924Y0134395D01*
X0213059Y0135463D01*
X0214127Y0135463D01*
X0215195Y0134395D01*
X0215195Y0132260D01*
X0214127Y0131192D01*
X0211992Y0131192D01*
X0210924Y0132260D01*
X0207681Y0132260D02*
X0207681Y0137598D01*
X0206614Y0137598D02*
X0208749Y0137598D01*
X0207681Y0132260D02*
X0206614Y0131192D01*
X0205546Y0131192D01*
X0204479Y0132260D01*
X0206614Y0096062D02*
X0208749Y0096062D01*
X0207681Y0096062D02*
X0207681Y0090725D01*
X0206614Y0089657D01*
X0205546Y0089657D01*
X0204479Y0090725D01*
X0210924Y0090725D02*
X0211992Y0089657D01*
X0214127Y0089657D01*
X0215195Y0090725D01*
X0215195Y0091792D01*
X0214127Y0092860D01*
X0210924Y0092860D01*
X0210924Y0090725D01*
X0210924Y0092860D02*
X0213059Y0094995D01*
X0215195Y0096062D01*
X0215195Y0051968D02*
X0210924Y0051968D01*
X0208749Y0051968D02*
X0206614Y0051968D01*
X0207681Y0051968D02*
X0207681Y0046630D01*
X0206614Y0045562D01*
X0205546Y0045562D01*
X0204479Y0046630D01*
X0210924Y0046630D02*
X0210924Y0045562D01*
X0210924Y0046630D02*
X0215195Y0050900D01*
X0215195Y0051968D01*
X0214127Y0010432D02*
X0215195Y0009365D01*
X0215195Y0008297D01*
X0214127Y0007230D01*
X0211992Y0007230D01*
X0210924Y0008297D01*
X0210924Y0009365D01*
X0211992Y0010432D01*
X0214127Y0010432D01*
X0214127Y0007230D02*
X0215195Y0006162D01*
X0215195Y0005095D01*
X0214127Y0004027D01*
X0211992Y0004027D01*
X0210924Y0005095D01*
X0210924Y0006162D01*
X0211992Y0007230D01*
X0208749Y0010432D02*
X0206614Y0010432D01*
X0207681Y0010432D02*
X0207681Y0005095D01*
X0206614Y0004027D01*
X0205546Y0004027D01*
X0204479Y0005095D01*
X0076758Y0004701D02*
X0076758Y0005768D01*
X0075691Y0006836D01*
X0072488Y0006836D01*
X0072488Y0004701D01*
X0073555Y0003633D01*
X0075691Y0003633D01*
X0076758Y0004701D01*
X0074623Y0008971D02*
X0072488Y0006836D01*
X0074623Y0008971D02*
X0076758Y0010039D01*
X0070313Y0003633D02*
X0066042Y0003633D01*
X0068177Y0003633D02*
X0068177Y0010039D01*
X0066042Y0007904D01*
X0063867Y0010039D02*
X0061732Y0010039D01*
X0062800Y0010039D02*
X0062800Y0004701D01*
X0061732Y0003633D01*
X0060664Y0003633D01*
X0059597Y0004701D01*
X0060664Y0044972D02*
X0059597Y0046039D01*
X0060664Y0044972D02*
X0061732Y0044972D01*
X0062800Y0046039D01*
X0062800Y0051377D01*
X0063867Y0051377D02*
X0061732Y0051377D01*
X0066042Y0049242D02*
X0068177Y0051377D01*
X0068177Y0044972D01*
X0066042Y0044972D02*
X0070313Y0044972D01*
X0072488Y0046039D02*
X0073555Y0044972D01*
X0075691Y0044972D01*
X0076758Y0046039D01*
X0076758Y0048175D01*
X0075691Y0049242D01*
X0074623Y0049242D01*
X0072488Y0048175D01*
X0072488Y0051377D01*
X0076758Y0051377D01*
X0075494Y0089854D02*
X0073359Y0089854D01*
X0072291Y0090921D01*
X0076561Y0095192D01*
X0076561Y0090921D01*
X0075494Y0089854D01*
X0072291Y0090921D02*
X0072291Y0095192D01*
X0073359Y0096259D01*
X0075494Y0096259D01*
X0076561Y0095192D01*
X0070116Y0089854D02*
X0065845Y0089854D01*
X0067981Y0089854D02*
X0067981Y0096259D01*
X0065845Y0094124D01*
X0063670Y0096259D02*
X0061535Y0096259D01*
X0062603Y0096259D02*
X0062603Y0090921D01*
X0061535Y0089854D01*
X0060468Y0089854D01*
X0059400Y0090921D01*
X0060468Y0131389D02*
X0059400Y0132457D01*
X0060468Y0131389D02*
X0061535Y0131389D01*
X0062603Y0132457D01*
X0062603Y0137795D01*
X0063670Y0137795D02*
X0061535Y0137795D01*
X0065845Y0136727D02*
X0065845Y0135660D01*
X0066913Y0134592D01*
X0070116Y0134592D01*
X0070116Y0132457D02*
X0070116Y0136727D01*
X0069048Y0137795D01*
X0066913Y0137795D01*
X0065845Y0136727D01*
X0065845Y0132457D02*
X0066913Y0131389D01*
X0069048Y0131389D01*
X0070116Y0132457D01*
X0070116Y0175090D02*
X0065845Y0175090D01*
X0067981Y0175090D02*
X0067981Y0181495D01*
X0065845Y0179360D01*
X0063670Y0181495D02*
X0061535Y0181495D01*
X0062603Y0181495D02*
X0062603Y0176158D01*
X0061535Y0175090D01*
X0060468Y0175090D01*
X0059400Y0176158D01*
X0072291Y0175090D02*
X0076561Y0179360D01*
X0076561Y0180428D01*
X0075494Y0181495D01*
X0073359Y0181495D01*
X0072291Y0180428D01*
X0072291Y0175090D02*
X0076561Y0175090D01*
X0076561Y0216625D02*
X0072291Y0216625D01*
X0074426Y0216625D02*
X0074426Y0223031D01*
X0072291Y0220896D01*
X0070116Y0216625D02*
X0065845Y0216625D01*
X0067981Y0216625D02*
X0067981Y0223031D01*
X0065845Y0220896D01*
X0063670Y0223031D02*
X0061535Y0223031D01*
X0062603Y0223031D02*
X0062603Y0217693D01*
X0061535Y0216625D01*
X0060468Y0216625D01*
X0059400Y0217693D01*
X0060468Y0260326D02*
X0059400Y0261394D01*
X0060468Y0260326D02*
X0061535Y0260326D01*
X0062603Y0261394D01*
X0062603Y0266732D01*
X0063670Y0266732D02*
X0061535Y0266732D01*
X0065845Y0264597D02*
X0067981Y0266732D01*
X0067981Y0260326D01*
X0070116Y0260326D02*
X0065845Y0260326D01*
X0072291Y0263529D02*
X0076561Y0263529D01*
X0075494Y0260326D02*
X0075494Y0266732D01*
X0072291Y0263529D01*
X0073359Y0301862D02*
X0072291Y0302929D01*
X0073359Y0301862D02*
X0075494Y0301862D01*
X0076561Y0302929D01*
X0076561Y0303997D01*
X0075494Y0305064D01*
X0074426Y0305064D01*
X0075494Y0305064D02*
X0076561Y0306132D01*
X0076561Y0307200D01*
X0075494Y0308267D01*
X0073359Y0308267D01*
X0072291Y0307200D01*
X0070116Y0301862D02*
X0065845Y0301862D01*
X0067981Y0301862D02*
X0067981Y0308267D01*
X0065845Y0306132D01*
X0063670Y0308267D02*
X0061535Y0308267D01*
X0062603Y0308267D02*
X0062603Y0302929D01*
X0061535Y0301862D01*
X0060468Y0301862D01*
X0059400Y0302929D01*
D14*
X0061200Y0287826D03*
X0045600Y0287826D03*
X0030000Y0287826D03*
X0014400Y0287826D03*
X0014400Y0329362D03*
X0030000Y0329362D03*
X0045600Y0329362D03*
X0061200Y0329362D03*
X0076800Y0329362D03*
X0092400Y0329362D03*
X0108000Y0329362D03*
X0123600Y0329362D03*
X0139200Y0329362D03*
X0159676Y0328574D03*
X0175276Y0328574D03*
X0190876Y0328574D03*
X0206476Y0328574D03*
X0222076Y0328574D03*
X0237676Y0328574D03*
X0253276Y0328574D03*
X0268876Y0328574D03*
X0284476Y0328574D03*
X0284476Y0287039D03*
X0268876Y0287039D03*
X0253276Y0287039D03*
X0237676Y0287039D03*
X0222076Y0287039D03*
X0206476Y0287039D03*
X0190876Y0287039D03*
X0175276Y0287039D03*
X0159676Y0287039D03*
X0139200Y0287826D03*
X0123600Y0287826D03*
X0108000Y0287826D03*
X0092400Y0287826D03*
X0076800Y0287826D03*
X0076800Y0244125D03*
X0061200Y0244125D03*
X0045600Y0244125D03*
X0030000Y0244125D03*
X0014400Y0244125D03*
X0014400Y0202590D03*
X0030000Y0202590D03*
X0045600Y0202590D03*
X0061200Y0202590D03*
X0076800Y0202590D03*
X0092400Y0202590D03*
X0108000Y0202590D03*
X0123600Y0202590D03*
X0139200Y0202590D03*
X0159872Y0202590D03*
X0175472Y0202590D03*
X0191072Y0202590D03*
X0206672Y0202590D03*
X0222272Y0202590D03*
X0237872Y0202590D03*
X0253472Y0202590D03*
X0269072Y0202590D03*
X0284672Y0202590D03*
X0284672Y0244125D03*
X0269072Y0244125D03*
X0253472Y0244125D03*
X0237872Y0244125D03*
X0222272Y0244125D03*
X0206672Y0244125D03*
X0191072Y0244125D03*
X0175472Y0244125D03*
X0159872Y0244125D03*
X0139200Y0244125D03*
X0123600Y0244125D03*
X0108000Y0244125D03*
X0092400Y0244125D03*
X0092400Y0158889D03*
X0076800Y0158889D03*
X0061200Y0158889D03*
X0045600Y0158889D03*
X0030000Y0158889D03*
X0014400Y0158889D03*
X0014400Y0117354D03*
X0030000Y0117354D03*
X0045600Y0117354D03*
X0061200Y0117354D03*
X0076800Y0117354D03*
X0092400Y0117354D03*
X0108000Y0117354D03*
X0123600Y0117354D03*
X0139200Y0117354D03*
X0159479Y0117157D03*
X0175079Y0117157D03*
X0190679Y0117157D03*
X0206279Y0117157D03*
X0221879Y0117157D03*
X0237479Y0117157D03*
X0253079Y0117157D03*
X0268679Y0117157D03*
X0284279Y0117157D03*
X0284279Y0158692D03*
X0268679Y0158692D03*
X0253079Y0158692D03*
X0237479Y0158692D03*
X0221879Y0158692D03*
X0206279Y0158692D03*
X0190679Y0158692D03*
X0175079Y0158692D03*
X0159479Y0158692D03*
X0139200Y0158889D03*
X0123600Y0158889D03*
X0108000Y0158889D03*
X0108197Y0072472D03*
X0123797Y0072472D03*
X0139397Y0072472D03*
X0159479Y0073062D03*
X0175079Y0073062D03*
X0190679Y0073062D03*
X0206279Y0073062D03*
X0221879Y0073062D03*
X0237479Y0073062D03*
X0253079Y0073062D03*
X0268679Y0073062D03*
X0284279Y0073062D03*
X0284279Y0031527D03*
X0268679Y0031527D03*
X0253079Y0031527D03*
X0237479Y0031527D03*
X0221879Y0031527D03*
X0206279Y0031527D03*
X0190679Y0031527D03*
X0175079Y0031527D03*
X0159479Y0031527D03*
X0139397Y0031133D03*
X0123797Y0031133D03*
X0108197Y0031133D03*
X0092597Y0031133D03*
X0076997Y0031133D03*
X0061397Y0031133D03*
X0045797Y0031133D03*
X0030197Y0031133D03*
X0014597Y0031133D03*
X0014597Y0072472D03*
X0030197Y0072472D03*
X0045797Y0072472D03*
X0061397Y0072472D03*
X0076997Y0072472D03*
X0092597Y0072472D03*
M02*
