G75*
%MOIN*%
%OFA0B0*%
%FSLAX25Y25*%
%IPPOS*%
%LPD*%
%AMOC8*
5,1,8,0,0,1.08239X$1,22.5*
%
%ADD10C,0.00000*%
%ADD11C,0.05937*%
%ADD12C,0.05200*%
%ADD13R,0.07000X0.07000*%
%ADD14C,0.07000*%
%ADD15C,0.09900*%
%ADD16C,0.10039*%
%ADD17C,0.01600*%
%ADD18C,0.02400*%
%ADD19C,0.02400*%
D10*
X0011800Y0011800D02*
X0011800Y0262076D01*
X0365501Y0262076D01*
X0365501Y0011800D01*
X0011800Y0011800D01*
D11*
X0284674Y0113635D02*
X0284674Y0119572D01*
X0294674Y0119572D02*
X0294674Y0113635D01*
X0304674Y0113635D02*
X0304674Y0119572D01*
X0334674Y0119572D02*
X0334674Y0113635D01*
X0344674Y0113635D02*
X0344674Y0119572D01*
X0354674Y0119572D02*
X0354674Y0113635D01*
X0353769Y0237650D02*
X0353769Y0243587D01*
X0343769Y0243587D02*
X0343769Y0237650D01*
X0333769Y0237650D02*
X0333769Y0243587D01*
X0303769Y0243587D02*
X0303769Y0237650D01*
X0293769Y0237650D02*
X0293769Y0243587D01*
X0283769Y0243587D02*
X0283769Y0237650D01*
D12*
X0179831Y0238929D02*
X0179831Y0233729D01*
X0169831Y0233729D02*
X0169831Y0238929D01*
X0159831Y0238929D02*
X0159831Y0233729D01*
X0149831Y0233729D02*
X0149831Y0238929D01*
X0139831Y0238929D02*
X0139831Y0233729D01*
X0129831Y0233729D02*
X0129831Y0238929D01*
X0119831Y0238929D02*
X0119831Y0233729D01*
X0109831Y0233729D02*
X0109831Y0238929D01*
X0105855Y0249909D02*
X0105855Y0255109D01*
X0095855Y0255109D02*
X0095855Y0249909D01*
X0085855Y0249909D02*
X0085855Y0255109D01*
X0075855Y0255109D02*
X0075855Y0249909D01*
X0065855Y0249909D02*
X0065855Y0255109D01*
X0055855Y0255109D02*
X0055855Y0249909D01*
X0059831Y0238929D02*
X0059831Y0233729D01*
X0049831Y0233729D02*
X0049831Y0238929D01*
X0039831Y0238929D02*
X0039831Y0233729D01*
X0029831Y0233729D02*
X0029831Y0238929D01*
X0019831Y0238929D02*
X0019831Y0233729D01*
X0019831Y0203729D02*
X0019831Y0198529D01*
X0029831Y0198529D02*
X0029831Y0203729D01*
X0039831Y0203729D02*
X0039831Y0198529D01*
X0049831Y0198529D02*
X0049831Y0203729D01*
X0059831Y0203729D02*
X0059831Y0198529D01*
X0069831Y0198529D02*
X0069831Y0203729D01*
X0079831Y0203729D02*
X0079831Y0198529D01*
X0089831Y0198529D02*
X0089831Y0203729D01*
X0090619Y0187510D02*
X0090619Y0182310D01*
X0080619Y0182310D02*
X0080619Y0187510D01*
X0070619Y0187510D02*
X0070619Y0182310D01*
X0060619Y0182310D02*
X0060619Y0187510D01*
X0059792Y0167117D02*
X0059792Y0161917D01*
X0059831Y0153496D02*
X0059831Y0148296D01*
X0049831Y0148296D02*
X0049831Y0153496D01*
X0039831Y0153496D02*
X0039831Y0148296D01*
X0029831Y0148296D02*
X0029831Y0153496D01*
X0019831Y0153496D02*
X0019831Y0148296D01*
X0019831Y0118296D02*
X0019831Y0113096D01*
X0029831Y0113096D02*
X0029831Y0118296D01*
X0039831Y0118296D02*
X0039831Y0113096D01*
X0049831Y0113096D02*
X0049831Y0118296D01*
X0059831Y0118296D02*
X0059831Y0113096D01*
X0069831Y0113096D02*
X0069831Y0118296D01*
X0079831Y0118296D02*
X0079831Y0113096D01*
X0089831Y0113096D02*
X0089831Y0118296D01*
X0109831Y0118296D02*
X0109831Y0113096D01*
X0119831Y0113096D02*
X0119831Y0118296D01*
X0129831Y0118296D02*
X0129831Y0113096D01*
X0139831Y0113096D02*
X0139831Y0118296D01*
X0149831Y0118296D02*
X0149831Y0113096D01*
X0159831Y0113096D02*
X0159831Y0118296D01*
X0169831Y0118296D02*
X0169831Y0113096D01*
X0179831Y0113096D02*
X0179831Y0118296D01*
X0179831Y0148296D02*
X0179831Y0153496D01*
X0169831Y0153496D02*
X0169831Y0148296D01*
X0159831Y0148296D02*
X0159831Y0153496D01*
X0149831Y0153496D02*
X0149831Y0148296D01*
X0139831Y0148296D02*
X0139831Y0153496D01*
X0129831Y0153496D02*
X0129831Y0148296D01*
X0119831Y0148296D02*
X0119831Y0153496D01*
X0109831Y0153496D02*
X0109831Y0148296D01*
X0109792Y0161917D02*
X0109792Y0167117D01*
X0099792Y0167117D02*
X0099792Y0161917D01*
X0089792Y0161917D02*
X0089792Y0167117D01*
X0079792Y0167117D02*
X0079792Y0161917D01*
X0079831Y0153496D02*
X0079831Y0148296D01*
X0089831Y0148296D02*
X0089831Y0153496D01*
X0069831Y0153496D02*
X0069831Y0148296D01*
X0069792Y0161917D02*
X0069792Y0167117D01*
X0100619Y0182310D02*
X0100619Y0187510D01*
X0110619Y0187510D02*
X0110619Y0182310D01*
X0120619Y0182310D02*
X0120619Y0187510D01*
X0130619Y0187510D02*
X0130619Y0182310D01*
X0140619Y0182310D02*
X0140619Y0187510D01*
X0139831Y0198529D02*
X0139831Y0203729D01*
X0129831Y0203729D02*
X0129831Y0198529D01*
X0119831Y0198529D02*
X0119831Y0203729D01*
X0109831Y0203729D02*
X0109831Y0198529D01*
X0149831Y0198529D02*
X0149831Y0203729D01*
X0159831Y0203729D02*
X0159831Y0198529D01*
X0169831Y0198529D02*
X0169831Y0203729D01*
X0179831Y0203729D02*
X0179831Y0198529D01*
X0139792Y0167117D02*
X0139792Y0161917D01*
X0129792Y0161917D02*
X0129792Y0167117D01*
X0119792Y0167117D02*
X0119792Y0161917D01*
X0119202Y0100896D02*
X0119202Y0095696D01*
X0129202Y0095696D02*
X0129202Y0100896D01*
X0139202Y0100896D02*
X0139202Y0095696D01*
X0109202Y0095696D02*
X0109202Y0100896D01*
X0099202Y0100896D02*
X0099202Y0095696D01*
X0089202Y0095696D02*
X0089202Y0100896D01*
X0079202Y0100896D02*
X0079202Y0095696D01*
X0069202Y0095696D02*
X0069202Y0100896D01*
X0059202Y0100896D02*
X0059202Y0095696D01*
X0069831Y0233729D02*
X0069831Y0238929D01*
X0079831Y0238929D02*
X0079831Y0233729D01*
X0089831Y0233729D02*
X0089831Y0238929D01*
X0115855Y0249909D02*
X0115855Y0255109D01*
X0125855Y0255109D02*
X0125855Y0249909D01*
X0135855Y0249909D02*
X0135855Y0255109D01*
D13*
X0214831Y0144635D03*
D14*
X0224831Y0144635D03*
X0234831Y0144635D03*
X0244831Y0144635D03*
X0254831Y0144635D03*
X0264831Y0144635D03*
X0274831Y0144635D03*
X0284831Y0144635D03*
X0294831Y0144635D03*
X0304831Y0144635D03*
X0314831Y0144635D03*
X0324831Y0144635D03*
X0334831Y0144635D03*
X0344831Y0144635D03*
X0354831Y0144635D03*
X0354831Y0204635D03*
X0344831Y0204635D03*
X0334831Y0204635D03*
X0324831Y0204635D03*
X0314831Y0204635D03*
X0304831Y0204635D03*
X0294831Y0204635D03*
X0284831Y0204635D03*
X0274831Y0204635D03*
X0264831Y0204635D03*
X0254831Y0204635D03*
X0244831Y0204635D03*
X0234831Y0204635D03*
X0224831Y0204635D03*
X0214831Y0204635D03*
D15*
X0212431Y0032459D02*
X0212431Y0022559D01*
X0228031Y0022559D02*
X0228031Y0032459D01*
X0243631Y0032459D02*
X0243631Y0022559D01*
X0259231Y0022559D02*
X0259231Y0032459D01*
X0274831Y0032459D02*
X0274831Y0022559D01*
X0290431Y0022559D02*
X0290431Y0032459D01*
X0306031Y0032459D02*
X0306031Y0022559D01*
X0321631Y0022559D02*
X0321631Y0032459D01*
X0337231Y0032459D02*
X0337231Y0022559D01*
X0166169Y0022559D02*
X0166169Y0032459D01*
X0150569Y0032459D02*
X0150569Y0022559D01*
X0134969Y0022559D02*
X0134969Y0032459D01*
X0119369Y0032459D02*
X0119369Y0022559D01*
X0103769Y0022559D02*
X0103769Y0032459D01*
X0088169Y0032459D02*
X0088169Y0022559D01*
X0072569Y0022559D02*
X0072569Y0032459D01*
X0056969Y0032459D02*
X0056969Y0022559D01*
X0041369Y0022559D02*
X0041369Y0032459D01*
D16*
X0041957Y0059930D02*
X0041957Y0069969D01*
X0057548Y0069969D02*
X0057548Y0059930D01*
X0073139Y0059930D02*
X0073139Y0069969D01*
X0088729Y0069969D02*
X0088729Y0059930D01*
X0104320Y0059930D02*
X0104320Y0069969D01*
X0119910Y0069969D02*
X0119910Y0059930D01*
X0135501Y0059930D02*
X0135501Y0069969D01*
X0151091Y0069969D02*
X0151091Y0059930D01*
X0166682Y0059930D02*
X0166682Y0069969D01*
X0213217Y0069969D02*
X0213217Y0059930D01*
X0228808Y0059930D02*
X0228808Y0069969D01*
X0244398Y0069969D02*
X0244398Y0059930D01*
X0259989Y0059930D02*
X0259989Y0069969D01*
X0275580Y0069969D02*
X0275580Y0059930D01*
X0291170Y0059930D02*
X0291170Y0069969D01*
X0306761Y0069969D02*
X0306761Y0059930D01*
X0322351Y0059930D02*
X0322351Y0069969D01*
X0337942Y0069969D02*
X0337942Y0059930D01*
D17*
X0344361Y0059755D02*
X0363701Y0059755D01*
X0363701Y0058157D02*
X0344156Y0058157D01*
X0344361Y0058653D02*
X0344361Y0071246D01*
X0343384Y0073606D01*
X0341578Y0075412D01*
X0339219Y0076389D01*
X0336665Y0076389D01*
X0334305Y0075412D01*
X0332499Y0073606D01*
X0331522Y0071246D01*
X0331522Y0058653D01*
X0332499Y0056293D01*
X0334305Y0054488D01*
X0336372Y0053632D01*
X0336372Y0038809D01*
X0335968Y0038809D01*
X0333635Y0037842D01*
X0331848Y0036056D01*
X0330881Y0033722D01*
X0330881Y0021296D01*
X0331848Y0018962D01*
X0333635Y0017175D01*
X0335968Y0016209D01*
X0338495Y0016209D01*
X0340828Y0017175D01*
X0342615Y0018962D01*
X0343581Y0021296D01*
X0343581Y0033722D01*
X0342615Y0036056D01*
X0340828Y0037842D01*
X0340772Y0037865D01*
X0340772Y0054153D01*
X0341578Y0054488D01*
X0343384Y0056293D01*
X0344361Y0058653D01*
X0343494Y0056558D02*
X0363701Y0056558D01*
X0363701Y0054960D02*
X0342050Y0054960D01*
X0340772Y0053361D02*
X0363701Y0053361D01*
X0363701Y0051763D02*
X0340772Y0051763D01*
X0340772Y0050164D02*
X0363701Y0050164D01*
X0363701Y0048566D02*
X0340772Y0048566D01*
X0340772Y0046967D02*
X0363701Y0046967D01*
X0363701Y0045369D02*
X0340772Y0045369D01*
X0340772Y0043770D02*
X0363701Y0043770D01*
X0363701Y0042172D02*
X0340772Y0042172D01*
X0340772Y0040573D02*
X0363701Y0040573D01*
X0363701Y0038975D02*
X0340772Y0038975D01*
X0341294Y0037376D02*
X0363701Y0037376D01*
X0363701Y0035778D02*
X0342730Y0035778D01*
X0343392Y0034179D02*
X0363701Y0034179D01*
X0363701Y0032581D02*
X0343581Y0032581D01*
X0343581Y0030982D02*
X0363701Y0030982D01*
X0363701Y0029384D02*
X0343581Y0029384D01*
X0343581Y0027785D02*
X0363701Y0027785D01*
X0363701Y0026187D02*
X0343581Y0026187D01*
X0343581Y0024588D02*
X0363701Y0024588D01*
X0363701Y0022990D02*
X0343581Y0022990D01*
X0343581Y0021391D02*
X0363701Y0021391D01*
X0363701Y0019793D02*
X0342959Y0019793D01*
X0341847Y0018194D02*
X0363701Y0018194D01*
X0363701Y0016596D02*
X0339429Y0016596D01*
X0335034Y0016596D02*
X0323829Y0016596D01*
X0322895Y0016209D02*
X0325228Y0017175D01*
X0327015Y0018962D01*
X0327981Y0021296D01*
X0327981Y0033722D01*
X0327015Y0036056D01*
X0325228Y0037842D01*
X0325024Y0037927D01*
X0325024Y0054088D01*
X0325988Y0054488D01*
X0327794Y0056293D01*
X0328771Y0058653D01*
X0328771Y0071246D01*
X0327794Y0073606D01*
X0325988Y0075412D01*
X0323628Y0076389D01*
X0321074Y0076389D01*
X0318715Y0075412D01*
X0316909Y0073606D01*
X0315931Y0071246D01*
X0315931Y0058653D01*
X0316909Y0056293D01*
X0318715Y0054488D01*
X0320624Y0053697D01*
X0320624Y0038809D01*
X0320368Y0038809D01*
X0318035Y0037842D01*
X0316248Y0036056D01*
X0315281Y0033722D01*
X0315281Y0021296D01*
X0316248Y0018962D01*
X0318035Y0017175D01*
X0320368Y0016209D01*
X0322895Y0016209D01*
X0319434Y0016596D02*
X0308229Y0016596D01*
X0307295Y0016209D02*
X0309628Y0017175D01*
X0311415Y0018962D01*
X0312381Y0021296D01*
X0312381Y0033722D01*
X0311415Y0036056D01*
X0309628Y0037842D01*
X0307307Y0038803D01*
X0307307Y0053510D01*
X0308038Y0053510D01*
X0310397Y0054488D01*
X0312203Y0056293D01*
X0313180Y0058653D01*
X0313180Y0071246D01*
X0312203Y0073606D01*
X0310397Y0075412D01*
X0308038Y0076389D01*
X0305484Y0076389D01*
X0305339Y0076329D01*
X0305339Y0079640D01*
X0304050Y0080929D01*
X0269645Y0080929D01*
X0269910Y0081193D01*
X0270305Y0082149D01*
X0270305Y0083183D01*
X0269910Y0084139D01*
X0269178Y0084870D01*
X0268223Y0085266D01*
X0268217Y0085266D01*
X0255332Y0098151D01*
X0255399Y0098179D01*
X0256130Y0098910D01*
X0256526Y0099865D01*
X0256526Y0100900D01*
X0256130Y0101855D01*
X0256126Y0101860D01*
X0256126Y0129679D01*
X0268300Y0129679D01*
X0267474Y0128853D01*
X0267474Y0105797D01*
X0267470Y0105792D01*
X0267074Y0104837D01*
X0267074Y0103802D01*
X0267470Y0102847D01*
X0268201Y0102116D01*
X0269157Y0101720D01*
X0270191Y0101720D01*
X0271147Y0102116D01*
X0271878Y0102847D01*
X0272274Y0103802D01*
X0272274Y0104837D01*
X0271878Y0105792D01*
X0271874Y0105797D01*
X0271874Y0125742D01*
X0274205Y0125742D01*
X0273380Y0124916D01*
X0273380Y0113671D01*
X0273375Y0113666D01*
X0272980Y0112711D01*
X0272980Y0111677D01*
X0273375Y0110721D01*
X0274107Y0109990D01*
X0275062Y0109594D01*
X0276097Y0109594D01*
X0277052Y0109990D01*
X0277784Y0110721D01*
X0278180Y0111677D01*
X0278180Y0112711D01*
X0277784Y0113666D01*
X0277780Y0113671D01*
X0277780Y0121805D01*
X0280871Y0121805D01*
X0280306Y0120441D01*
X0280306Y0112766D01*
X0280971Y0111160D01*
X0282199Y0109931D01*
X0283805Y0109266D01*
X0285543Y0109266D01*
X0287149Y0109931D01*
X0288377Y0111160D01*
X0289043Y0112766D01*
X0289043Y0120441D01*
X0288477Y0121805D01*
X0290871Y0121805D01*
X0290306Y0120441D01*
X0290306Y0112766D01*
X0290971Y0111160D01*
X0292199Y0109931D01*
X0293805Y0109266D01*
X0295543Y0109266D01*
X0297149Y0109931D01*
X0298377Y0111160D01*
X0299043Y0112766D01*
X0299043Y0120441D01*
X0298377Y0122046D01*
X0297149Y0123275D01*
X0296108Y0123706D01*
X0312641Y0140238D01*
X0313857Y0139735D01*
X0315806Y0139735D01*
X0317607Y0140481D01*
X0318986Y0141859D01*
X0319731Y0143660D01*
X0319731Y0145609D01*
X0318986Y0147410D01*
X0317607Y0148789D01*
X0315806Y0149535D01*
X0313857Y0149535D01*
X0312056Y0148789D01*
X0310677Y0147410D01*
X0309931Y0145609D01*
X0309931Y0143751D01*
X0309655Y0143475D01*
X0309731Y0143660D01*
X0309731Y0145609D01*
X0308986Y0147410D01*
X0307607Y0148789D01*
X0305806Y0149535D01*
X0303857Y0149535D01*
X0302056Y0148789D01*
X0300677Y0147410D01*
X0299931Y0145609D01*
X0299931Y0143660D01*
X0299951Y0143613D01*
X0299543Y0143206D01*
X0299731Y0143660D01*
X0299731Y0145609D01*
X0298986Y0147410D01*
X0297607Y0148789D01*
X0295806Y0149535D01*
X0293857Y0149535D01*
X0292056Y0148789D01*
X0290677Y0147410D01*
X0289931Y0145609D01*
X0289931Y0143660D01*
X0289997Y0143502D01*
X0289432Y0142937D01*
X0289731Y0143660D01*
X0289731Y0145609D01*
X0288986Y0147410D01*
X0287607Y0148789D01*
X0285806Y0149535D01*
X0283857Y0149535D01*
X0282056Y0148789D01*
X0280677Y0147410D01*
X0279931Y0145609D01*
X0279931Y0143660D01*
X0280677Y0141859D01*
X0282056Y0140481D01*
X0283857Y0139735D01*
X0285806Y0139735D01*
X0286529Y0140034D01*
X0280574Y0134079D01*
X0253015Y0134079D01*
X0251726Y0132790D01*
X0251726Y0101860D01*
X0251722Y0101855D01*
X0251694Y0101789D01*
X0213748Y0139735D01*
X0218911Y0139735D01*
X0219731Y0140555D01*
X0219731Y0148715D01*
X0218911Y0149535D01*
X0210752Y0149535D01*
X0209931Y0148715D01*
X0209931Y0143551D01*
X0208882Y0144601D01*
X0208882Y0250900D01*
X0207593Y0252189D01*
X0142778Y0252189D01*
X0141490Y0250900D01*
X0139855Y0249266D01*
X0139855Y0255904D01*
X0139246Y0257374D01*
X0138121Y0258500D01*
X0136651Y0259109D01*
X0135059Y0259109D01*
X0133589Y0258500D01*
X0132464Y0257374D01*
X0131855Y0255904D01*
X0131855Y0249113D01*
X0132464Y0247643D01*
X0133589Y0246518D01*
X0135059Y0245909D01*
X0136498Y0245909D01*
X0133616Y0243026D01*
X0133616Y0241058D01*
X0133378Y0240820D01*
X0133223Y0241195D01*
X0132097Y0242320D01*
X0130627Y0242929D01*
X0129036Y0242929D01*
X0127566Y0242320D01*
X0126440Y0241195D01*
X0125831Y0239725D01*
X0125831Y0232933D01*
X0126440Y0231463D01*
X0127566Y0230338D01*
X0129036Y0229729D01*
X0130627Y0229729D01*
X0132097Y0230338D01*
X0133223Y0231463D01*
X0133831Y0232933D01*
X0133831Y0235051D01*
X0135831Y0237051D01*
X0135831Y0232933D01*
X0136440Y0231463D01*
X0137566Y0230338D01*
X0139036Y0229729D01*
X0140627Y0229729D01*
X0142097Y0230338D01*
X0143223Y0231463D01*
X0143831Y0232933D01*
X0143831Y0239725D01*
X0143223Y0241195D01*
X0142097Y0242320D01*
X0140627Y0242929D01*
X0139741Y0242929D01*
X0144601Y0247789D01*
X0156095Y0247789D01*
X0155269Y0246963D01*
X0151332Y0243026D01*
X0151332Y0242637D01*
X0150627Y0242929D01*
X0149036Y0242929D01*
X0147566Y0242320D01*
X0146440Y0241195D01*
X0145831Y0239725D01*
X0145831Y0232933D01*
X0146440Y0231463D01*
X0147566Y0230338D01*
X0149036Y0229729D01*
X0150627Y0229729D01*
X0152097Y0230338D01*
X0153223Y0231463D01*
X0153831Y0232933D01*
X0153831Y0233397D01*
X0154444Y0234009D01*
X0155732Y0235298D01*
X0155732Y0241204D01*
X0158381Y0243852D01*
X0184797Y0243852D01*
X0184797Y0221836D01*
X0183971Y0222661D01*
X0173793Y0232840D01*
X0173831Y0232933D01*
X0173831Y0239725D01*
X0173223Y0241195D01*
X0172097Y0242320D01*
X0170627Y0242929D01*
X0169036Y0242929D01*
X0167566Y0242320D01*
X0166440Y0241195D01*
X0165831Y0239725D01*
X0165831Y0232933D01*
X0166440Y0231463D01*
X0167566Y0230338D01*
X0169036Y0229729D01*
X0170627Y0229729D01*
X0170665Y0229745D01*
X0180860Y0219550D01*
X0180860Y0217582D01*
X0183622Y0214819D01*
X0183556Y0214792D01*
X0183551Y0214787D01*
X0130822Y0214787D01*
X0113493Y0232116D01*
X0113831Y0232933D01*
X0113831Y0235397D01*
X0115831Y0233397D01*
X0115831Y0232933D01*
X0116440Y0231463D01*
X0117566Y0230338D01*
X0119036Y0229729D01*
X0120627Y0229729D01*
X0122097Y0230338D01*
X0123223Y0231463D01*
X0123831Y0232933D01*
X0123831Y0239725D01*
X0123223Y0241195D01*
X0122097Y0242320D01*
X0120627Y0242929D01*
X0119036Y0242929D01*
X0117566Y0242320D01*
X0116440Y0241195D01*
X0116362Y0241006D01*
X0116362Y0243026D01*
X0109855Y0249533D01*
X0109855Y0255904D01*
X0109246Y0257374D01*
X0108121Y0258500D01*
X0106651Y0259109D01*
X0105059Y0259109D01*
X0103589Y0258500D01*
X0102464Y0257374D01*
X0101855Y0255904D01*
X0101855Y0249113D01*
X0102464Y0247643D01*
X0103589Y0246518D01*
X0105059Y0245909D01*
X0106651Y0245909D01*
X0107080Y0246086D01*
X0110237Y0242929D01*
X0109036Y0242929D01*
X0107566Y0242320D01*
X0106440Y0241195D01*
X0105831Y0239725D01*
X0105831Y0232933D01*
X0106440Y0231463D01*
X0107566Y0230338D01*
X0109036Y0229729D01*
X0109657Y0229729D01*
X0112788Y0226598D01*
X0069798Y0226598D01*
X0063723Y0232673D01*
X0063831Y0232933D01*
X0063831Y0239725D01*
X0063223Y0241195D01*
X0062534Y0241883D01*
X0067129Y0241883D01*
X0066440Y0241195D01*
X0065831Y0239725D01*
X0065831Y0232933D01*
X0066440Y0231463D01*
X0067566Y0230338D01*
X0069036Y0229729D01*
X0070627Y0229729D01*
X0072097Y0230338D01*
X0073223Y0231463D01*
X0073831Y0232933D01*
X0073831Y0234106D01*
X0075703Y0235978D01*
X0075831Y0236106D01*
X0075831Y0232933D01*
X0076440Y0231463D01*
X0077566Y0230338D01*
X0079036Y0229729D01*
X0080627Y0229729D01*
X0082097Y0230338D01*
X0083223Y0231463D01*
X0083831Y0232933D01*
X0083831Y0239725D01*
X0083223Y0241195D01*
X0082097Y0242320D01*
X0080669Y0242912D01*
X0084074Y0246317D01*
X0085059Y0245909D01*
X0086651Y0245909D01*
X0088121Y0246518D01*
X0089246Y0247643D01*
X0089855Y0249113D01*
X0089855Y0255904D01*
X0089246Y0257374D01*
X0088121Y0258500D01*
X0086651Y0259109D01*
X0085059Y0259109D01*
X0083589Y0258500D01*
X0082464Y0257374D01*
X0081855Y0255904D01*
X0081855Y0250321D01*
X0079295Y0247760D01*
X0079855Y0249113D01*
X0079855Y0255904D01*
X0079246Y0257374D01*
X0078121Y0258500D01*
X0076651Y0259109D01*
X0075059Y0259109D01*
X0073589Y0258500D01*
X0072464Y0257374D01*
X0071855Y0255904D01*
X0071855Y0249113D01*
X0072464Y0247643D01*
X0072592Y0247515D01*
X0072592Y0246283D01*
X0067556Y0246283D01*
X0068121Y0246518D01*
X0069246Y0247643D01*
X0069855Y0249113D01*
X0069855Y0255904D01*
X0069246Y0257374D01*
X0068121Y0258500D01*
X0066651Y0259109D01*
X0065059Y0259109D01*
X0063589Y0258500D01*
X0062464Y0257374D01*
X0061855Y0255904D01*
X0061855Y0249113D01*
X0062464Y0247643D01*
X0063589Y0246518D01*
X0064155Y0246283D01*
X0058133Y0246283D01*
X0056844Y0244995D01*
X0053133Y0241284D01*
X0052097Y0242320D01*
X0050627Y0242929D01*
X0049036Y0242929D01*
X0047865Y0242444D01*
X0047865Y0243007D01*
X0052482Y0247624D01*
X0053589Y0246518D01*
X0055059Y0245909D01*
X0056651Y0245909D01*
X0058121Y0246518D01*
X0059246Y0247643D01*
X0059855Y0249113D01*
X0059855Y0255904D01*
X0059246Y0257374D01*
X0058121Y0258500D01*
X0056651Y0259109D01*
X0055059Y0259109D01*
X0053589Y0258500D01*
X0052464Y0257374D01*
X0051855Y0255904D01*
X0051855Y0254351D01*
X0043060Y0245556D01*
X0042665Y0244601D01*
X0042665Y0241753D01*
X0042097Y0242320D01*
X0040627Y0242929D01*
X0039036Y0242929D01*
X0037566Y0242320D01*
X0036440Y0241195D01*
X0035831Y0239725D01*
X0035831Y0232933D01*
X0036147Y0232172D01*
X0023380Y0219404D01*
X0023380Y0205616D01*
X0023223Y0205995D01*
X0022097Y0207120D01*
X0020627Y0207729D01*
X0019036Y0207729D01*
X0017566Y0207120D01*
X0016440Y0205995D01*
X0015831Y0204525D01*
X0015831Y0197733D01*
X0016440Y0196263D01*
X0017566Y0195138D01*
X0019036Y0194529D01*
X0020627Y0194529D01*
X0022097Y0195138D01*
X0023223Y0196263D01*
X0023380Y0196642D01*
X0023380Y0155383D01*
X0023223Y0155762D01*
X0022097Y0156887D01*
X0020627Y0157496D01*
X0019036Y0157496D01*
X0017566Y0156887D01*
X0016440Y0155762D01*
X0015831Y0154292D01*
X0015831Y0147500D01*
X0016009Y0147073D01*
X0015506Y0146570D01*
X0015506Y0126884D01*
X0013600Y0124979D01*
X0013600Y0260276D01*
X0363701Y0260276D01*
X0363701Y0013600D01*
X0013600Y0013600D01*
X0013600Y0107282D01*
X0041096Y0079786D01*
X0041096Y0076389D01*
X0040681Y0076389D01*
X0038321Y0075412D01*
X0036515Y0073606D01*
X0035538Y0071246D01*
X0035538Y0058653D01*
X0036515Y0056293D01*
X0038321Y0054488D01*
X0040681Y0053510D01*
X0041096Y0053510D01*
X0041096Y0038809D01*
X0040105Y0038809D01*
X0037772Y0037842D01*
X0035985Y0036056D01*
X0035019Y0033722D01*
X0035019Y0021296D01*
X0035985Y0018962D01*
X0037772Y0017175D01*
X0040105Y0016209D01*
X0042632Y0016209D01*
X0044965Y0017175D01*
X0046752Y0018962D01*
X0047718Y0021296D01*
X0047718Y0033722D01*
X0046752Y0036056D01*
X0045496Y0037311D01*
X0045496Y0054447D01*
X0045594Y0054488D01*
X0047400Y0056293D01*
X0048377Y0058653D01*
X0048377Y0071246D01*
X0047400Y0073606D01*
X0045594Y0075412D01*
X0045496Y0075452D01*
X0045496Y0081292D01*
X0052644Y0074144D01*
X0052106Y0073606D01*
X0051128Y0071246D01*
X0051128Y0058653D01*
X0052106Y0056293D01*
X0052907Y0055492D01*
X0052907Y0037377D01*
X0051585Y0036056D01*
X0050619Y0033722D01*
X0050619Y0021296D01*
X0051585Y0018962D01*
X0053372Y0017175D01*
X0055705Y0016209D01*
X0058232Y0016209D01*
X0060565Y0017175D01*
X0062352Y0018962D01*
X0063318Y0021296D01*
X0063318Y0033722D01*
X0062352Y0036056D01*
X0060565Y0037842D01*
X0058232Y0038809D01*
X0057307Y0038809D01*
X0057307Y0053510D01*
X0058825Y0053510D01*
X0061184Y0054488D01*
X0062990Y0056293D01*
X0063968Y0058653D01*
X0063968Y0071246D01*
X0062990Y0073606D01*
X0061184Y0075412D01*
X0058825Y0076389D01*
X0056622Y0076389D01*
X0056018Y0076992D01*
X0037622Y0095388D01*
X0037622Y0109682D01*
X0039036Y0109096D01*
X0039345Y0109096D01*
X0048970Y0099471D01*
X0048970Y0091597D01*
X0052907Y0087660D01*
X0054196Y0086372D01*
X0077672Y0086372D01*
X0078961Y0087660D01*
X0078961Y0091597D01*
X0079059Y0091696D01*
X0079997Y0091696D01*
X0081467Y0092305D01*
X0082435Y0093272D01*
X0082435Y0083577D01*
X0075003Y0076146D01*
X0074416Y0076389D01*
X0071862Y0076389D01*
X0069502Y0075412D01*
X0067696Y0073606D01*
X0066719Y0071246D01*
X0066719Y0058653D01*
X0067696Y0056293D01*
X0069502Y0054488D01*
X0071862Y0053510D01*
X0072592Y0053510D01*
X0072592Y0038809D01*
X0071305Y0038809D01*
X0068972Y0037842D01*
X0067185Y0036056D01*
X0066219Y0033722D01*
X0066219Y0021296D01*
X0067185Y0018962D01*
X0068972Y0017175D01*
X0071305Y0016209D01*
X0073832Y0016209D01*
X0076165Y0017175D01*
X0077952Y0018962D01*
X0078918Y0021296D01*
X0078918Y0033722D01*
X0077952Y0036056D01*
X0076992Y0037015D01*
X0076992Y0054705D01*
X0078581Y0056293D01*
X0079558Y0058653D01*
X0079558Y0071246D01*
X0078612Y0073532D01*
X0086835Y0081755D01*
X0086835Y0092406D01*
X0086936Y0092305D01*
X0088406Y0091696D01*
X0089997Y0091696D01*
X0091467Y0092305D01*
X0092277Y0093115D01*
X0092277Y0075448D01*
X0090006Y0076389D01*
X0087452Y0076389D01*
X0085093Y0075412D01*
X0083287Y0073606D01*
X0082309Y0071246D01*
X0082309Y0058653D01*
X0083287Y0056293D01*
X0085093Y0054488D01*
X0087452Y0053510D01*
X0088340Y0053510D01*
X0088340Y0038809D01*
X0086905Y0038809D01*
X0084572Y0037842D01*
X0082785Y0036056D01*
X0081819Y0033722D01*
X0081819Y0021296D01*
X0082785Y0018962D01*
X0084572Y0017175D01*
X0086905Y0016209D01*
X0089432Y0016209D01*
X0091765Y0017175D01*
X0093552Y0018962D01*
X0094518Y0021296D01*
X0094518Y0033722D01*
X0093552Y0036056D01*
X0092740Y0036867D01*
X0092740Y0054862D01*
X0094171Y0056293D01*
X0095149Y0058653D01*
X0095149Y0070384D01*
X0096677Y0071912D01*
X0096677Y0074821D01*
X0096941Y0074556D01*
X0097897Y0074161D01*
X0098931Y0074161D01*
X0099786Y0074515D01*
X0098877Y0073606D01*
X0097900Y0071246D01*
X0097900Y0058653D01*
X0098877Y0056293D01*
X0100151Y0055020D01*
X0100151Y0037822D01*
X0098385Y0036056D01*
X0097419Y0033722D01*
X0097419Y0021296D01*
X0098385Y0018962D01*
X0100172Y0017175D01*
X0102505Y0016209D01*
X0105032Y0016209D01*
X0107365Y0017175D01*
X0109152Y0018962D01*
X0110118Y0021296D01*
X0110118Y0033722D01*
X0109152Y0036056D01*
X0107365Y0037842D01*
X0105032Y0038809D01*
X0104551Y0038809D01*
X0104551Y0053510D01*
X0105597Y0053510D01*
X0107956Y0054488D01*
X0109762Y0056293D01*
X0110739Y0058653D01*
X0110739Y0071246D01*
X0109762Y0073606D01*
X0107956Y0075412D01*
X0106520Y0076007D01*
X0106520Y0092721D01*
X0106936Y0092305D01*
X0108406Y0091696D01*
X0109997Y0091696D01*
X0111467Y0092305D01*
X0112593Y0093430D01*
X0113202Y0094900D01*
X0113202Y0101692D01*
X0112593Y0103162D01*
X0112425Y0103329D01*
X0112425Y0110033D01*
X0113223Y0110830D01*
X0113831Y0112300D01*
X0113831Y0119092D01*
X0113223Y0120562D01*
X0112542Y0121242D01*
X0118610Y0127310D01*
X0118616Y0127310D01*
X0119572Y0127706D01*
X0120303Y0128437D01*
X0120699Y0129393D01*
X0120699Y0130427D01*
X0120303Y0131383D01*
X0119572Y0132114D01*
X0118616Y0132510D01*
X0117582Y0132510D01*
X0116626Y0132114D01*
X0115895Y0131383D01*
X0115499Y0130427D01*
X0115499Y0130422D01*
X0109314Y0124236D01*
X0108025Y0122947D01*
X0108025Y0121877D01*
X0107566Y0121687D01*
X0106440Y0120562D01*
X0105831Y0119092D01*
X0105831Y0112300D01*
X0106440Y0110830D01*
X0107566Y0109705D01*
X0108025Y0109515D01*
X0108025Y0104738D01*
X0106936Y0104287D01*
X0106520Y0103871D01*
X0106520Y0107199D01*
X0105231Y0108488D01*
X0104551Y0109168D01*
X0104551Y0147395D01*
X0105875Y0147395D01*
X0106440Y0146030D01*
X0107566Y0144905D01*
X0109036Y0144296D01*
X0110627Y0144296D01*
X0112097Y0144905D01*
X0113223Y0146030D01*
X0113831Y0147500D01*
X0113831Y0154292D01*
X0113223Y0155762D01*
X0112097Y0156887D01*
X0110627Y0157496D01*
X0109036Y0157496D01*
X0107566Y0156887D01*
X0106440Y0155762D01*
X0105831Y0154292D01*
X0105831Y0151795D01*
X0101440Y0151795D01*
X0100151Y0150507D01*
X0100151Y0107345D01*
X0102120Y0105377D01*
X0102120Y0103635D01*
X0101467Y0104287D01*
X0099997Y0104896D01*
X0098406Y0104896D01*
X0096936Y0104287D01*
X0096677Y0104028D01*
X0096677Y0105377D01*
X0098646Y0107345D01*
X0098646Y0132790D01*
X0097357Y0134079D01*
X0083831Y0147604D01*
X0083831Y0154292D01*
X0083223Y0155762D01*
X0082097Y0156887D01*
X0080627Y0157496D01*
X0079036Y0157496D01*
X0077566Y0156887D01*
X0076440Y0155762D01*
X0075831Y0154292D01*
X0075831Y0147500D01*
X0076440Y0146030D01*
X0077566Y0144905D01*
X0079036Y0144296D01*
X0080627Y0144296D01*
X0080832Y0144381D01*
X0094246Y0130967D01*
X0094246Y0109168D01*
X0093566Y0108488D01*
X0092277Y0107199D01*
X0092277Y0103477D01*
X0091467Y0104287D01*
X0089997Y0104896D01*
X0088406Y0104896D01*
X0086936Y0104287D01*
X0086835Y0104186D01*
X0086835Y0110436D01*
X0087566Y0109705D01*
X0089036Y0109096D01*
X0090627Y0109096D01*
X0092097Y0109705D01*
X0093223Y0110830D01*
X0093831Y0112300D01*
X0093831Y0119092D01*
X0093223Y0120562D01*
X0092097Y0121687D01*
X0090627Y0122296D01*
X0089036Y0122296D01*
X0087566Y0121687D01*
X0086835Y0120956D01*
X0086835Y0124916D01*
X0085546Y0126205D01*
X0063831Y0147919D01*
X0063831Y0154292D01*
X0063223Y0155762D01*
X0062097Y0156887D01*
X0060627Y0157496D01*
X0059036Y0157496D01*
X0057566Y0156887D01*
X0056440Y0155762D01*
X0055831Y0154292D01*
X0055831Y0147500D01*
X0056440Y0146030D01*
X0057566Y0144905D01*
X0059036Y0144296D01*
X0060627Y0144296D01*
X0061055Y0144473D01*
X0082435Y0123093D01*
X0082435Y0121350D01*
X0082097Y0121687D01*
X0080627Y0122296D01*
X0079036Y0122296D01*
X0077566Y0121687D01*
X0076440Y0120562D01*
X0075831Y0119092D01*
X0075831Y0112300D01*
X0076440Y0110830D01*
X0077566Y0109705D01*
X0079036Y0109096D01*
X0080627Y0109096D01*
X0082097Y0109705D01*
X0082435Y0110042D01*
X0082435Y0103320D01*
X0081467Y0104287D01*
X0079997Y0104896D01*
X0078406Y0104896D01*
X0076936Y0104287D01*
X0075811Y0103162D01*
X0075202Y0101692D01*
X0075202Y0094900D01*
X0075447Y0094307D01*
X0074561Y0093420D01*
X0074561Y0090772D01*
X0056018Y0090772D01*
X0053370Y0093420D01*
X0053370Y0101294D01*
X0052081Y0102583D01*
X0043528Y0111136D01*
X0043528Y0111567D01*
X0043831Y0112300D01*
X0043831Y0119092D01*
X0043223Y0120562D01*
X0042097Y0121687D01*
X0040627Y0122296D01*
X0039036Y0122296D01*
X0037622Y0121710D01*
X0037622Y0142778D01*
X0039140Y0144296D01*
X0040627Y0144296D01*
X0042097Y0144905D01*
X0043223Y0146030D01*
X0043831Y0147500D01*
X0043831Y0154292D01*
X0043223Y0155762D01*
X0042097Y0156887D01*
X0040627Y0157496D01*
X0039036Y0157496D01*
X0037566Y0156887D01*
X0036440Y0155762D01*
X0035831Y0154292D01*
X0035831Y0147500D01*
X0035916Y0147295D01*
X0034511Y0145890D01*
X0033222Y0144601D01*
X0033222Y0120562D01*
X0032097Y0121687D01*
X0030627Y0122296D01*
X0029036Y0122296D01*
X0027780Y0121776D01*
X0027780Y0144816D01*
X0029036Y0144296D01*
X0030627Y0144296D01*
X0032097Y0144905D01*
X0033223Y0146030D01*
X0033831Y0147500D01*
X0033831Y0154292D01*
X0033223Y0155762D01*
X0032097Y0156887D01*
X0030627Y0157496D01*
X0029036Y0157496D01*
X0027780Y0156976D01*
X0027780Y0195050D01*
X0029036Y0194529D01*
X0030627Y0194529D01*
X0032097Y0195138D01*
X0033223Y0196263D01*
X0033831Y0197733D01*
X0033831Y0204525D01*
X0033223Y0205995D01*
X0032097Y0207120D01*
X0030627Y0207729D01*
X0029036Y0207729D01*
X0027780Y0207209D01*
X0027780Y0217582D01*
X0039927Y0229729D01*
X0040627Y0229729D01*
X0040696Y0229758D01*
X0040696Y0207701D01*
X0040627Y0207729D01*
X0039036Y0207729D01*
X0037566Y0207120D01*
X0036440Y0205995D01*
X0035831Y0204525D01*
X0035831Y0197733D01*
X0036440Y0196263D01*
X0037566Y0195138D01*
X0039036Y0194529D01*
X0040627Y0194529D01*
X0042097Y0195138D01*
X0042665Y0195705D01*
X0042665Y0192385D01*
X0043060Y0191430D01*
X0043792Y0190698D01*
X0050539Y0183951D01*
X0050539Y0175478D01*
X0049719Y0175817D01*
X0048684Y0175817D01*
X0047729Y0175421D01*
X0046997Y0174690D01*
X0046602Y0173734D01*
X0046602Y0172700D01*
X0046997Y0171745D01*
X0047002Y0171740D01*
X0047002Y0156323D01*
X0046440Y0155762D01*
X0045831Y0154292D01*
X0045831Y0147500D01*
X0046440Y0146030D01*
X0047566Y0144905D01*
X0049036Y0144296D01*
X0050627Y0144296D01*
X0052097Y0144905D01*
X0053223Y0146030D01*
X0053831Y0147500D01*
X0053831Y0154292D01*
X0053223Y0155762D01*
X0052097Y0156887D01*
X0051402Y0157175D01*
X0051402Y0163403D01*
X0051666Y0163139D01*
X0052621Y0162743D01*
X0055792Y0162743D01*
X0055792Y0161121D01*
X0056401Y0159651D01*
X0057526Y0158525D01*
X0058996Y0157917D01*
X0060588Y0157917D01*
X0062058Y0158525D01*
X0063183Y0159651D01*
X0063792Y0161121D01*
X0063792Y0167912D01*
X0063183Y0169382D01*
X0062058Y0170508D01*
X0060588Y0171117D01*
X0058996Y0171117D01*
X0057526Y0170508D01*
X0056401Y0169382D01*
X0055805Y0167943D01*
X0055739Y0167943D01*
X0055739Y0173412D01*
X0056164Y0172986D01*
X0063892Y0172986D01*
X0065181Y0174275D01*
X0069118Y0178212D01*
X0069118Y0178602D01*
X0069823Y0178310D01*
X0071415Y0178310D01*
X0072885Y0178919D01*
X0074010Y0180044D01*
X0074619Y0181515D01*
X0074619Y0188306D01*
X0074010Y0189776D01*
X0073084Y0190702D01*
X0078154Y0190702D01*
X0077228Y0189776D01*
X0076619Y0188306D01*
X0076619Y0181515D01*
X0077228Y0180044D01*
X0078353Y0178919D01*
X0079823Y0178310D01*
X0081415Y0178310D01*
X0082885Y0178919D01*
X0084010Y0180044D01*
X0084619Y0181515D01*
X0084619Y0188306D01*
X0084010Y0189776D01*
X0083084Y0190702D01*
X0086372Y0190702D01*
X0086372Y0190023D01*
X0087049Y0189345D01*
X0086619Y0188306D01*
X0086619Y0181515D01*
X0087228Y0180044D01*
X0088353Y0178919D01*
X0089823Y0178310D01*
X0091415Y0178310D01*
X0092885Y0178919D01*
X0094010Y0180044D01*
X0094619Y0181515D01*
X0094619Y0188306D01*
X0094010Y0189776D01*
X0092885Y0190901D01*
X0091415Y0191510D01*
X0091107Y0191510D01*
X0090772Y0191845D01*
X0090772Y0193814D01*
X0090056Y0194529D01*
X0090627Y0194529D01*
X0092097Y0195138D01*
X0093223Y0196263D01*
X0093831Y0197733D01*
X0093831Y0204525D01*
X0093223Y0205995D01*
X0092097Y0207120D01*
X0090627Y0207729D01*
X0089036Y0207729D01*
X0087566Y0207120D01*
X0086440Y0205995D01*
X0085831Y0204525D01*
X0085831Y0197733D01*
X0086440Y0196263D01*
X0087566Y0195138D01*
X0087652Y0195102D01*
X0082011Y0195102D01*
X0082097Y0195138D01*
X0083223Y0196263D01*
X0083831Y0197733D01*
X0083831Y0204525D01*
X0083770Y0204674D01*
X0087514Y0208419D01*
X0098183Y0208419D01*
X0098183Y0190731D01*
X0097228Y0189776D01*
X0096619Y0188306D01*
X0096619Y0181515D01*
X0097228Y0180044D01*
X0098353Y0178919D01*
X0099823Y0178310D01*
X0101415Y0178310D01*
X0102885Y0178919D01*
X0104010Y0180044D01*
X0104619Y0181515D01*
X0104619Y0188306D01*
X0104010Y0189776D01*
X0102885Y0190901D01*
X0102583Y0191026D01*
X0102583Y0209708D01*
X0110736Y0217861D01*
X0110742Y0217861D01*
X0111698Y0218257D01*
X0112429Y0218989D01*
X0112825Y0219944D01*
X0112825Y0220979D01*
X0112429Y0221934D01*
X0112165Y0222198D01*
X0113251Y0222198D01*
X0127710Y0207739D01*
X0128106Y0207344D01*
X0127566Y0207120D01*
X0126440Y0205995D01*
X0125831Y0204525D01*
X0125831Y0197840D01*
X0119836Y0191845D01*
X0119836Y0191510D01*
X0119823Y0191510D01*
X0118353Y0190901D01*
X0117228Y0189776D01*
X0116619Y0188306D01*
X0116619Y0181515D01*
X0117228Y0180044D01*
X0118353Y0178919D01*
X0119823Y0178310D01*
X0121415Y0178310D01*
X0121621Y0178396D01*
X0121805Y0178212D01*
X0121805Y0176243D01*
X0122630Y0175417D01*
X0114394Y0175417D01*
X0114394Y0180034D01*
X0114119Y0180308D01*
X0114619Y0181515D01*
X0114619Y0188306D01*
X0114010Y0189776D01*
X0112885Y0190901D01*
X0112425Y0191092D01*
X0112425Y0195466D01*
X0113223Y0196263D01*
X0113831Y0197733D01*
X0113831Y0204525D01*
X0113223Y0205995D01*
X0112097Y0207120D01*
X0110627Y0207729D01*
X0109036Y0207729D01*
X0107566Y0207120D01*
X0106440Y0205995D01*
X0105831Y0204525D01*
X0105831Y0197733D01*
X0106440Y0196263D01*
X0107566Y0195138D01*
X0108025Y0194948D01*
X0108025Y0190573D01*
X0107228Y0189776D01*
X0106619Y0188306D01*
X0106619Y0181515D01*
X0107228Y0180044D01*
X0108353Y0178919D01*
X0109823Y0178310D01*
X0109895Y0178310D01*
X0109994Y0178212D01*
X0109994Y0172306D01*
X0111282Y0171017D01*
X0118757Y0171017D01*
X0117526Y0170508D01*
X0116401Y0169382D01*
X0115792Y0167912D01*
X0115792Y0161121D01*
X0116401Y0159651D01*
X0117526Y0158525D01*
X0118996Y0157917D01*
X0120588Y0157917D01*
X0122058Y0158525D01*
X0123183Y0159651D01*
X0123792Y0161121D01*
X0123792Y0167912D01*
X0123183Y0169382D01*
X0122058Y0170508D01*
X0120827Y0171017D01*
X0124496Y0171017D01*
X0124500Y0171013D01*
X0125456Y0170617D01*
X0126490Y0170617D01*
X0127446Y0171013D01*
X0128177Y0171745D01*
X0128573Y0172700D01*
X0128573Y0173734D01*
X0128177Y0174690D01*
X0127913Y0174954D01*
X0136410Y0174954D01*
X0135584Y0174129D01*
X0135584Y0174129D01*
X0131991Y0170535D01*
X0130588Y0171117D01*
X0128996Y0171117D01*
X0127526Y0170508D01*
X0126401Y0169382D01*
X0125792Y0167912D01*
X0125792Y0161121D01*
X0126401Y0159651D01*
X0127526Y0158525D01*
X0128996Y0157917D01*
X0130588Y0157917D01*
X0132058Y0158525D01*
X0133183Y0159651D01*
X0133792Y0161121D01*
X0133792Y0166114D01*
X0135935Y0168257D01*
X0135792Y0167912D01*
X0135792Y0161121D01*
X0136401Y0159651D01*
X0137526Y0158525D01*
X0138996Y0157917D01*
X0140588Y0157917D01*
X0142058Y0158525D01*
X0143183Y0159651D01*
X0143792Y0161121D01*
X0143792Y0167912D01*
X0143183Y0169382D01*
X0142058Y0170508D01*
X0140827Y0171017D01*
X0147395Y0171017D01*
X0147395Y0166401D01*
X0157237Y0156559D01*
X0156440Y0155762D01*
X0155831Y0154292D01*
X0155831Y0147500D01*
X0156440Y0146030D01*
X0157566Y0144905D01*
X0159036Y0144296D01*
X0160627Y0144296D01*
X0162097Y0144905D01*
X0163223Y0146030D01*
X0163831Y0147500D01*
X0163831Y0154292D01*
X0163223Y0155762D01*
X0162097Y0156887D01*
X0161638Y0157077D01*
X0161638Y0158381D01*
X0160349Y0159669D01*
X0151795Y0168223D01*
X0151795Y0172586D01*
X0152081Y0172586D01*
X0153037Y0172982D01*
X0153768Y0173713D01*
X0154164Y0174669D01*
X0154164Y0175703D01*
X0153768Y0176659D01*
X0153504Y0176923D01*
X0170192Y0176923D01*
X0171480Y0178212D01*
X0171480Y0194883D01*
X0172097Y0195138D01*
X0172986Y0196027D01*
X0172986Y0155999D01*
X0172097Y0156887D01*
X0170627Y0157496D01*
X0169036Y0157496D01*
X0167566Y0156887D01*
X0166440Y0155762D01*
X0165831Y0154292D01*
X0165831Y0147500D01*
X0165893Y0147351D01*
X0164432Y0145890D01*
X0163143Y0144601D01*
X0163143Y0131850D01*
X0162879Y0132114D01*
X0161923Y0132510D01*
X0160889Y0132510D01*
X0159934Y0132114D01*
X0159202Y0131383D01*
X0158806Y0130427D01*
X0158806Y0130421D01*
X0150665Y0122280D01*
X0150627Y0122296D01*
X0149036Y0122296D01*
X0147858Y0121808D01*
X0147858Y0142778D01*
X0149376Y0144296D01*
X0150627Y0144296D01*
X0152097Y0144905D01*
X0153223Y0146030D01*
X0153831Y0147500D01*
X0153831Y0154292D01*
X0153223Y0155762D01*
X0152097Y0156887D01*
X0150627Y0157496D01*
X0149036Y0157496D01*
X0147566Y0156887D01*
X0146440Y0155762D01*
X0145831Y0154292D01*
X0145831Y0147500D01*
X0145986Y0147128D01*
X0144747Y0145890D01*
X0143458Y0144601D01*
X0143458Y0119993D01*
X0143223Y0120562D01*
X0142097Y0121687D01*
X0140627Y0122296D01*
X0139036Y0122296D01*
X0137566Y0121687D01*
X0136440Y0120562D01*
X0136047Y0119613D01*
X0136047Y0144601D01*
X0134759Y0145890D01*
X0133631Y0147017D01*
X0133831Y0147500D01*
X0133831Y0154292D01*
X0133223Y0155762D01*
X0132097Y0156887D01*
X0130627Y0157496D01*
X0129036Y0157496D01*
X0127566Y0156887D01*
X0126440Y0155762D01*
X0125831Y0154292D01*
X0125831Y0147500D01*
X0126440Y0146030D01*
X0127566Y0144905D01*
X0129036Y0144296D01*
X0130130Y0144296D01*
X0131647Y0142778D01*
X0131647Y0131850D01*
X0131383Y0132114D01*
X0130427Y0132510D01*
X0129393Y0132510D01*
X0128437Y0132114D01*
X0127706Y0131383D01*
X0127310Y0130427D01*
X0127310Y0129393D01*
X0127706Y0128437D01*
X0127710Y0128433D01*
X0127710Y0121747D01*
X0127566Y0121687D01*
X0126440Y0120562D01*
X0125831Y0119092D01*
X0125831Y0113195D01*
X0117868Y0105231D01*
X0117868Y0104673D01*
X0116936Y0104287D01*
X0115811Y0103162D01*
X0115202Y0101692D01*
X0115202Y0094900D01*
X0115811Y0093430D01*
X0116936Y0092305D01*
X0118406Y0091696D01*
X0119997Y0091696D01*
X0121467Y0092305D01*
X0122593Y0093430D01*
X0123202Y0094900D01*
X0123202Y0101692D01*
X0122593Y0103162D01*
X0122307Y0103448D01*
X0128272Y0109413D01*
X0129036Y0109096D01*
X0130627Y0109096D01*
X0131647Y0109519D01*
X0131647Y0104107D01*
X0131467Y0104287D01*
X0129997Y0104896D01*
X0128406Y0104896D01*
X0126936Y0104287D01*
X0125811Y0103162D01*
X0125202Y0101692D01*
X0125202Y0094900D01*
X0125811Y0093430D01*
X0126936Y0092305D01*
X0128406Y0091696D01*
X0129997Y0091696D01*
X0131467Y0092305D01*
X0131647Y0092485D01*
X0131647Y0083577D01*
X0123501Y0075431D01*
X0121187Y0076389D01*
X0118633Y0076389D01*
X0116274Y0075412D01*
X0114468Y0073606D01*
X0113491Y0071246D01*
X0113491Y0058653D01*
X0114468Y0056293D01*
X0115899Y0054862D01*
X0115899Y0037895D01*
X0115772Y0037842D01*
X0113985Y0036056D01*
X0113019Y0033722D01*
X0113019Y0021296D01*
X0113985Y0018962D01*
X0115772Y0017175D01*
X0118105Y0016209D01*
X0120632Y0016209D01*
X0122965Y0017175D01*
X0124752Y0018962D01*
X0125718Y0021296D01*
X0125718Y0033722D01*
X0124752Y0036056D01*
X0122965Y0037842D01*
X0120632Y0038809D01*
X0120299Y0038809D01*
X0120299Y0053510D01*
X0121187Y0053510D01*
X0123547Y0054488D01*
X0125353Y0056293D01*
X0126330Y0058653D01*
X0126330Y0071246D01*
X0126098Y0071806D01*
X0136047Y0081755D01*
X0136047Y0093194D01*
X0136936Y0092305D01*
X0138406Y0091696D01*
X0139997Y0091696D01*
X0141467Y0092305D01*
X0142593Y0093430D01*
X0143202Y0094900D01*
X0143202Y0101692D01*
X0142593Y0103162D01*
X0141467Y0104287D01*
X0139997Y0104896D01*
X0138406Y0104896D01*
X0136936Y0104287D01*
X0136047Y0103399D01*
X0136047Y0111780D01*
X0136440Y0110830D01*
X0137566Y0109705D01*
X0139036Y0109096D01*
X0140627Y0109096D01*
X0142097Y0109705D01*
X0143223Y0110830D01*
X0143458Y0111399D01*
X0143458Y0075849D01*
X0145675Y0073632D01*
X0145649Y0073606D01*
X0144672Y0071246D01*
X0144672Y0058653D01*
X0145649Y0056293D01*
X0147395Y0054547D01*
X0147395Y0038017D01*
X0146972Y0037842D01*
X0145185Y0036056D01*
X0144219Y0033722D01*
X0144219Y0021296D01*
X0145185Y0018962D01*
X0146972Y0017175D01*
X0149305Y0016209D01*
X0151832Y0016209D01*
X0154165Y0017175D01*
X0155952Y0018962D01*
X0156918Y0021296D01*
X0156918Y0033722D01*
X0155952Y0036056D01*
X0154165Y0037842D01*
X0151832Y0038809D01*
X0151795Y0038809D01*
X0151795Y0053510D01*
X0152368Y0053510D01*
X0154728Y0054488D01*
X0156534Y0056293D01*
X0157511Y0058653D01*
X0157511Y0071246D01*
X0156534Y0073606D01*
X0154728Y0075412D01*
X0152368Y0076389D01*
X0149814Y0076389D01*
X0149338Y0076192D01*
X0147858Y0077672D01*
X0147858Y0109584D01*
X0149036Y0109096D01*
X0150627Y0109096D01*
X0152097Y0109705D01*
X0153223Y0110830D01*
X0153831Y0112300D01*
X0153831Y0119092D01*
X0153793Y0119185D01*
X0161918Y0127310D01*
X0161923Y0127310D01*
X0162879Y0127706D01*
X0163143Y0127970D01*
X0163143Y0120641D01*
X0162097Y0121687D01*
X0160627Y0122296D01*
X0159036Y0122296D01*
X0157566Y0121687D01*
X0156440Y0120562D01*
X0155831Y0119092D01*
X0155831Y0112300D01*
X0156440Y0110830D01*
X0157566Y0109705D01*
X0159036Y0109096D01*
X0160627Y0109096D01*
X0162097Y0109705D01*
X0163143Y0110751D01*
X0163143Y0075452D01*
X0163045Y0075412D01*
X0161240Y0073606D01*
X0160262Y0071246D01*
X0160262Y0058653D01*
X0161240Y0056293D01*
X0163045Y0054488D01*
X0165112Y0053632D01*
X0165112Y0038809D01*
X0164905Y0038809D01*
X0162572Y0037842D01*
X0160785Y0036056D01*
X0159819Y0033722D01*
X0159819Y0021296D01*
X0160785Y0018962D01*
X0162572Y0017175D01*
X0164905Y0016209D01*
X0167432Y0016209D01*
X0169765Y0017175D01*
X0171552Y0018962D01*
X0172518Y0021296D01*
X0172518Y0033722D01*
X0171552Y0036056D01*
X0169765Y0037842D01*
X0169512Y0037947D01*
X0169512Y0054153D01*
X0170318Y0054488D01*
X0172124Y0056293D01*
X0173102Y0058653D01*
X0173102Y0071246D01*
X0172124Y0073606D01*
X0170318Y0075412D01*
X0167959Y0076389D01*
X0167543Y0076389D01*
X0167543Y0109727D01*
X0167566Y0109705D01*
X0169036Y0109096D01*
X0170627Y0109096D01*
X0172097Y0109705D01*
X0172986Y0110594D01*
X0172986Y0107345D01*
X0200545Y0079786D01*
X0201834Y0078498D01*
X0237946Y0078498D01*
X0237946Y0073881D01*
X0238741Y0073086D01*
X0237979Y0071246D01*
X0237979Y0058653D01*
X0238956Y0056293D01*
X0239915Y0055335D01*
X0239915Y0037722D01*
X0238248Y0036056D01*
X0237281Y0033722D01*
X0237281Y0021296D01*
X0238248Y0018962D01*
X0240035Y0017175D01*
X0242368Y0016209D01*
X0244895Y0016209D01*
X0247228Y0017175D01*
X0249015Y0018962D01*
X0249981Y0021296D01*
X0249981Y0033722D01*
X0249015Y0036056D01*
X0247228Y0037842D01*
X0244895Y0038809D01*
X0244315Y0038809D01*
X0244315Y0053510D01*
X0245675Y0053510D01*
X0248035Y0054488D01*
X0249841Y0056293D01*
X0250818Y0058653D01*
X0250818Y0071246D01*
X0249841Y0073606D01*
X0248035Y0075412D01*
X0245675Y0076389D01*
X0243121Y0076389D01*
X0242346Y0076068D01*
X0242346Y0079323D01*
X0243852Y0077818D01*
X0245141Y0076529D01*
X0300939Y0076529D01*
X0300939Y0073881D01*
X0301288Y0073532D01*
X0300341Y0071246D01*
X0300341Y0058653D01*
X0301318Y0056293D01*
X0302907Y0054705D01*
X0302907Y0038038D01*
X0302435Y0037842D01*
X0300648Y0036056D01*
X0299681Y0033722D01*
X0299681Y0021296D01*
X0300648Y0018962D01*
X0302435Y0017175D01*
X0304768Y0016209D01*
X0307295Y0016209D01*
X0303834Y0016596D02*
X0292629Y0016596D01*
X0291695Y0016209D02*
X0294028Y0017175D01*
X0295815Y0018962D01*
X0296781Y0021296D01*
X0296781Y0033722D01*
X0295815Y0036056D01*
X0294028Y0037842D01*
X0291695Y0038809D01*
X0291559Y0038809D01*
X0291559Y0053510D01*
X0292447Y0053510D01*
X0294807Y0054488D01*
X0296612Y0056293D01*
X0297590Y0058653D01*
X0297590Y0071246D01*
X0296612Y0073606D01*
X0294807Y0075412D01*
X0292447Y0076389D01*
X0289893Y0076389D01*
X0287534Y0075412D01*
X0285728Y0073606D01*
X0284750Y0071246D01*
X0284750Y0058653D01*
X0285728Y0056293D01*
X0287159Y0054862D01*
X0287159Y0037976D01*
X0286835Y0037842D01*
X0285048Y0036056D01*
X0284081Y0033722D01*
X0284081Y0021296D01*
X0285048Y0018962D01*
X0286835Y0017175D01*
X0289168Y0016209D01*
X0291695Y0016209D01*
X0288234Y0016596D02*
X0277029Y0016596D01*
X0276095Y0016209D02*
X0278428Y0017175D01*
X0280215Y0018962D01*
X0281181Y0021296D01*
X0281181Y0033722D01*
X0280215Y0036056D01*
X0278428Y0037842D01*
X0276095Y0038809D01*
X0273568Y0038809D01*
X0271235Y0037842D01*
X0269448Y0036056D01*
X0268481Y0033722D01*
X0268481Y0021296D01*
X0269448Y0018962D01*
X0271235Y0017175D01*
X0273568Y0016209D01*
X0276095Y0016209D01*
X0272634Y0016596D02*
X0261429Y0016596D01*
X0260495Y0016209D02*
X0262828Y0017175D01*
X0264615Y0018962D01*
X0265581Y0021296D01*
X0265581Y0033722D01*
X0264615Y0036056D01*
X0262828Y0037842D01*
X0260495Y0038809D01*
X0257968Y0038809D01*
X0255635Y0037842D01*
X0253848Y0036056D01*
X0252881Y0033722D01*
X0252881Y0021296D01*
X0253848Y0018962D01*
X0255635Y0017175D01*
X0257968Y0016209D01*
X0260495Y0016209D01*
X0257034Y0016596D02*
X0245829Y0016596D01*
X0248247Y0018194D02*
X0254616Y0018194D01*
X0253504Y0019793D02*
X0249359Y0019793D01*
X0249981Y0021391D02*
X0252881Y0021391D01*
X0252881Y0022990D02*
X0249981Y0022990D01*
X0249981Y0024588D02*
X0252881Y0024588D01*
X0252881Y0026187D02*
X0249981Y0026187D01*
X0249981Y0027785D02*
X0252881Y0027785D01*
X0252881Y0029384D02*
X0249981Y0029384D01*
X0249981Y0030982D02*
X0252881Y0030982D01*
X0252881Y0032581D02*
X0249981Y0032581D01*
X0249792Y0034179D02*
X0253071Y0034179D01*
X0253733Y0035778D02*
X0249130Y0035778D01*
X0247694Y0037376D02*
X0255169Y0037376D01*
X0263294Y0037376D02*
X0270769Y0037376D01*
X0269333Y0035778D02*
X0264730Y0035778D01*
X0265392Y0034179D02*
X0268671Y0034179D01*
X0268481Y0032581D02*
X0265581Y0032581D01*
X0265581Y0030982D02*
X0268481Y0030982D01*
X0268481Y0029384D02*
X0265581Y0029384D01*
X0265581Y0027785D02*
X0268481Y0027785D01*
X0268481Y0026187D02*
X0265581Y0026187D01*
X0265581Y0024588D02*
X0268481Y0024588D01*
X0268481Y0022990D02*
X0265581Y0022990D01*
X0265581Y0021391D02*
X0268481Y0021391D01*
X0269104Y0019793D02*
X0264959Y0019793D01*
X0263847Y0018194D02*
X0270216Y0018194D01*
X0279447Y0018194D02*
X0285816Y0018194D01*
X0284704Y0019793D02*
X0280559Y0019793D01*
X0281181Y0021391D02*
X0284081Y0021391D01*
X0284081Y0022990D02*
X0281181Y0022990D01*
X0281181Y0024588D02*
X0284081Y0024588D01*
X0284081Y0026187D02*
X0281181Y0026187D01*
X0281181Y0027785D02*
X0284081Y0027785D01*
X0284081Y0029384D02*
X0281181Y0029384D01*
X0281181Y0030982D02*
X0284081Y0030982D01*
X0284081Y0032581D02*
X0281181Y0032581D01*
X0280992Y0034179D02*
X0284271Y0034179D01*
X0284933Y0035778D02*
X0280330Y0035778D01*
X0278894Y0037376D02*
X0286369Y0037376D01*
X0287159Y0038975D02*
X0244315Y0038975D01*
X0244315Y0040573D02*
X0287159Y0040573D01*
X0287159Y0042172D02*
X0244315Y0042172D01*
X0244315Y0043770D02*
X0287159Y0043770D01*
X0287159Y0045369D02*
X0244315Y0045369D01*
X0244315Y0046967D02*
X0287159Y0046967D01*
X0287159Y0048566D02*
X0244315Y0048566D01*
X0244315Y0050164D02*
X0287159Y0050164D01*
X0287159Y0051763D02*
X0244315Y0051763D01*
X0244315Y0053361D02*
X0287159Y0053361D01*
X0287061Y0054960D02*
X0279688Y0054960D01*
X0279216Y0054488D02*
X0281022Y0056293D01*
X0281999Y0058653D01*
X0281999Y0071246D01*
X0281022Y0073606D01*
X0279216Y0075412D01*
X0276856Y0076389D01*
X0274303Y0076389D01*
X0271943Y0075412D01*
X0270137Y0073606D01*
X0269160Y0071246D01*
X0269160Y0058653D01*
X0270137Y0056293D01*
X0271943Y0054488D01*
X0274303Y0053510D01*
X0276856Y0053510D01*
X0279216Y0054488D01*
X0281132Y0056558D02*
X0285618Y0056558D01*
X0284956Y0058157D02*
X0281794Y0058157D01*
X0281999Y0059755D02*
X0284750Y0059755D01*
X0284750Y0061354D02*
X0281999Y0061354D01*
X0281999Y0062952D02*
X0284750Y0062952D01*
X0284750Y0064551D02*
X0281999Y0064551D01*
X0281999Y0066149D02*
X0284750Y0066149D01*
X0284750Y0067748D02*
X0281999Y0067748D01*
X0281999Y0069346D02*
X0284750Y0069346D01*
X0284750Y0070945D02*
X0281999Y0070945D01*
X0281462Y0072543D02*
X0285288Y0072543D01*
X0286264Y0074142D02*
X0280486Y0074142D01*
X0278422Y0075740D02*
X0288327Y0075740D01*
X0294013Y0075740D02*
X0300939Y0075740D01*
X0300939Y0074142D02*
X0296076Y0074142D01*
X0297052Y0072543D02*
X0300878Y0072543D01*
X0300341Y0070945D02*
X0297590Y0070945D01*
X0297590Y0069346D02*
X0300341Y0069346D01*
X0300341Y0067748D02*
X0297590Y0067748D01*
X0297590Y0066149D02*
X0300341Y0066149D01*
X0300341Y0064551D02*
X0297590Y0064551D01*
X0297590Y0062952D02*
X0300341Y0062952D01*
X0300341Y0061354D02*
X0297590Y0061354D01*
X0297590Y0059755D02*
X0300341Y0059755D01*
X0300546Y0058157D02*
X0297384Y0058157D01*
X0296722Y0056558D02*
X0301209Y0056558D01*
X0302652Y0054960D02*
X0295279Y0054960D01*
X0291559Y0053361D02*
X0302907Y0053361D01*
X0302907Y0051763D02*
X0291559Y0051763D01*
X0291559Y0050164D02*
X0302907Y0050164D01*
X0302907Y0048566D02*
X0291559Y0048566D01*
X0291559Y0046967D02*
X0302907Y0046967D01*
X0302907Y0045369D02*
X0291559Y0045369D01*
X0291559Y0043770D02*
X0302907Y0043770D01*
X0302907Y0042172D02*
X0291559Y0042172D01*
X0291559Y0040573D02*
X0302907Y0040573D01*
X0302907Y0038975D02*
X0291559Y0038975D01*
X0294494Y0037376D02*
X0301969Y0037376D01*
X0300533Y0035778D02*
X0295930Y0035778D01*
X0296592Y0034179D02*
X0299871Y0034179D01*
X0299681Y0032581D02*
X0296781Y0032581D01*
X0296781Y0030982D02*
X0299681Y0030982D01*
X0299681Y0029384D02*
X0296781Y0029384D01*
X0296781Y0027785D02*
X0299681Y0027785D01*
X0299681Y0026187D02*
X0296781Y0026187D01*
X0296781Y0024588D02*
X0299681Y0024588D01*
X0299681Y0022990D02*
X0296781Y0022990D01*
X0296781Y0021391D02*
X0299681Y0021391D01*
X0300304Y0019793D02*
X0296159Y0019793D01*
X0295047Y0018194D02*
X0301416Y0018194D01*
X0310647Y0018194D02*
X0317016Y0018194D01*
X0315904Y0019793D02*
X0311759Y0019793D01*
X0312381Y0021391D02*
X0315281Y0021391D01*
X0315281Y0022990D02*
X0312381Y0022990D01*
X0312381Y0024588D02*
X0315281Y0024588D01*
X0315281Y0026187D02*
X0312381Y0026187D01*
X0312381Y0027785D02*
X0315281Y0027785D01*
X0315281Y0029384D02*
X0312381Y0029384D01*
X0312381Y0030982D02*
X0315281Y0030982D01*
X0315281Y0032581D02*
X0312381Y0032581D01*
X0312192Y0034179D02*
X0315471Y0034179D01*
X0316133Y0035778D02*
X0311530Y0035778D01*
X0310094Y0037376D02*
X0317569Y0037376D01*
X0320624Y0038975D02*
X0307307Y0038975D01*
X0307307Y0040573D02*
X0320624Y0040573D01*
X0320624Y0042172D02*
X0307307Y0042172D01*
X0307307Y0043770D02*
X0320624Y0043770D01*
X0320624Y0045369D02*
X0307307Y0045369D01*
X0307307Y0046967D02*
X0320624Y0046967D01*
X0320624Y0048566D02*
X0307307Y0048566D01*
X0307307Y0050164D02*
X0320624Y0050164D01*
X0320624Y0051763D02*
X0307307Y0051763D01*
X0307307Y0053361D02*
X0320624Y0053361D01*
X0318242Y0054960D02*
X0310869Y0054960D01*
X0312313Y0056558D02*
X0316799Y0056558D01*
X0316137Y0058157D02*
X0312975Y0058157D01*
X0313180Y0059755D02*
X0315931Y0059755D01*
X0315931Y0061354D02*
X0313180Y0061354D01*
X0313180Y0062952D02*
X0315931Y0062952D01*
X0315931Y0064551D02*
X0313180Y0064551D01*
X0313180Y0066149D02*
X0315931Y0066149D01*
X0315931Y0067748D02*
X0313180Y0067748D01*
X0313180Y0069346D02*
X0315931Y0069346D01*
X0315931Y0070945D02*
X0313180Y0070945D01*
X0312643Y0072543D02*
X0316469Y0072543D01*
X0317445Y0074142D02*
X0311667Y0074142D01*
X0309603Y0075740D02*
X0319509Y0075740D01*
X0325194Y0075740D02*
X0335099Y0075740D01*
X0333036Y0074142D02*
X0327257Y0074142D01*
X0328234Y0072543D02*
X0332059Y0072543D01*
X0331522Y0070945D02*
X0328771Y0070945D01*
X0328771Y0069346D02*
X0331522Y0069346D01*
X0331522Y0067748D02*
X0328771Y0067748D01*
X0328771Y0066149D02*
X0331522Y0066149D01*
X0331522Y0064551D02*
X0328771Y0064551D01*
X0328771Y0062952D02*
X0331522Y0062952D01*
X0331522Y0061354D02*
X0328771Y0061354D01*
X0328771Y0059755D02*
X0331522Y0059755D01*
X0331728Y0058157D02*
X0328565Y0058157D01*
X0327903Y0056558D02*
X0332390Y0056558D01*
X0333833Y0054960D02*
X0326460Y0054960D01*
X0325024Y0053361D02*
X0336372Y0053361D01*
X0336372Y0051763D02*
X0325024Y0051763D01*
X0325024Y0050164D02*
X0336372Y0050164D01*
X0336372Y0048566D02*
X0325024Y0048566D01*
X0325024Y0046967D02*
X0336372Y0046967D01*
X0336372Y0045369D02*
X0325024Y0045369D01*
X0325024Y0043770D02*
X0336372Y0043770D01*
X0336372Y0042172D02*
X0325024Y0042172D01*
X0325024Y0040573D02*
X0336372Y0040573D01*
X0336372Y0038975D02*
X0325024Y0038975D01*
X0325694Y0037376D02*
X0333169Y0037376D01*
X0331733Y0035778D02*
X0327130Y0035778D01*
X0327792Y0034179D02*
X0331071Y0034179D01*
X0330881Y0032581D02*
X0327981Y0032581D01*
X0327981Y0030982D02*
X0330881Y0030982D01*
X0330881Y0029384D02*
X0327981Y0029384D01*
X0327981Y0027785D02*
X0330881Y0027785D01*
X0330881Y0026187D02*
X0327981Y0026187D01*
X0327981Y0024588D02*
X0330881Y0024588D01*
X0330881Y0022990D02*
X0327981Y0022990D01*
X0327981Y0021391D02*
X0330881Y0021391D01*
X0331504Y0019793D02*
X0327359Y0019793D01*
X0326247Y0018194D02*
X0332616Y0018194D01*
X0337231Y0027509D02*
X0338572Y0027548D01*
X0338572Y0064950D01*
X0337942Y0064950D01*
X0344361Y0064551D02*
X0363701Y0064551D01*
X0363701Y0066149D02*
X0344361Y0066149D01*
X0344361Y0067748D02*
X0363701Y0067748D01*
X0363701Y0069346D02*
X0344361Y0069346D01*
X0344361Y0070945D02*
X0363701Y0070945D01*
X0363701Y0072543D02*
X0343824Y0072543D01*
X0342848Y0074142D02*
X0363701Y0074142D01*
X0363701Y0075740D02*
X0340784Y0075740D01*
X0344361Y0062952D02*
X0363701Y0062952D01*
X0363701Y0061354D02*
X0344361Y0061354D01*
X0322824Y0064950D02*
X0322351Y0064950D01*
X0322824Y0064950D02*
X0322824Y0027548D01*
X0321631Y0027509D01*
X0306031Y0027509D02*
X0305107Y0027548D01*
X0305107Y0064950D01*
X0306761Y0064950D01*
X0305107Y0064950D02*
X0305107Y0072824D01*
X0303139Y0074792D01*
X0303139Y0078729D01*
X0246052Y0078729D01*
X0194871Y0129910D01*
X0194871Y0210619D01*
X0186997Y0218493D01*
X0186997Y0246052D01*
X0157469Y0246052D01*
X0153532Y0242115D01*
X0153532Y0236209D01*
X0151564Y0234241D01*
X0149831Y0233729D01*
X0147108Y0230796D02*
X0142555Y0230796D01*
X0143608Y0232395D02*
X0146055Y0232395D01*
X0145831Y0233993D02*
X0143831Y0233993D01*
X0143831Y0235592D02*
X0145831Y0235592D01*
X0145831Y0237190D02*
X0143831Y0237190D01*
X0143831Y0238789D02*
X0145831Y0238789D01*
X0146106Y0240387D02*
X0143557Y0240387D01*
X0142432Y0241986D02*
X0147231Y0241986D01*
X0151890Y0243584D02*
X0140396Y0243584D01*
X0141995Y0245183D02*
X0153489Y0245183D01*
X0155087Y0246781D02*
X0143593Y0246781D01*
X0143690Y0249989D02*
X0206682Y0249989D01*
X0206682Y0143690D01*
X0267706Y0082666D01*
X0270078Y0083733D02*
X0363701Y0083733D01*
X0363701Y0082134D02*
X0270300Y0082134D01*
X0268151Y0085332D02*
X0363701Y0085332D01*
X0363701Y0086930D02*
X0266553Y0086930D01*
X0264954Y0088529D02*
X0291631Y0088529D01*
X0291823Y0088336D02*
X0292779Y0087940D01*
X0293813Y0087940D01*
X0294769Y0088336D01*
X0295500Y0089067D01*
X0295896Y0090023D01*
X0295896Y0090029D01*
X0315181Y0109314D01*
X0315181Y0130967D01*
X0323948Y0139735D01*
X0325806Y0139735D01*
X0327607Y0140481D01*
X0328986Y0141859D01*
X0329731Y0143660D01*
X0329731Y0145609D01*
X0328986Y0147410D01*
X0327607Y0148789D01*
X0325806Y0149535D01*
X0323857Y0149535D01*
X0322056Y0148789D01*
X0320677Y0147410D01*
X0319931Y0145609D01*
X0319931Y0143660D01*
X0320435Y0142444D01*
X0312070Y0134079D01*
X0310781Y0132790D01*
X0310781Y0111136D01*
X0292785Y0093140D01*
X0292779Y0093140D01*
X0291823Y0092744D01*
X0291092Y0092013D01*
X0290696Y0091057D01*
X0290696Y0090023D01*
X0291092Y0089067D01*
X0291823Y0088336D01*
X0290696Y0090127D02*
X0263356Y0090127D01*
X0261757Y0091726D02*
X0290973Y0091726D01*
X0292969Y0093324D02*
X0260159Y0093324D01*
X0258560Y0094923D02*
X0294567Y0094923D01*
X0296166Y0096521D02*
X0256962Y0096521D01*
X0255363Y0098120D02*
X0297764Y0098120D01*
X0299363Y0099718D02*
X0256465Y0099718D01*
X0256353Y0101317D02*
X0300961Y0101317D01*
X0302560Y0102915D02*
X0271906Y0102915D01*
X0272274Y0104514D02*
X0304158Y0104514D01*
X0305757Y0106112D02*
X0271874Y0106112D01*
X0271874Y0107711D02*
X0307355Y0107711D01*
X0306504Y0109216D02*
X0307173Y0109556D01*
X0307780Y0109997D01*
X0308311Y0110528D01*
X0308752Y0111135D01*
X0309093Y0111804D01*
X0309325Y0112518D01*
X0309443Y0113259D01*
X0309443Y0116419D01*
X0304858Y0116419D01*
X0304858Y0108866D01*
X0305049Y0108866D01*
X0305791Y0108984D01*
X0306504Y0109216D01*
X0306688Y0109309D02*
X0308954Y0109309D01*
X0308587Y0110908D02*
X0310552Y0110908D01*
X0310781Y0112506D02*
X0309321Y0112506D01*
X0309443Y0114105D02*
X0310781Y0114105D01*
X0310781Y0115703D02*
X0309443Y0115703D01*
X0309443Y0116787D02*
X0309443Y0119947D01*
X0309325Y0120688D01*
X0309093Y0121402D01*
X0308752Y0122071D01*
X0308311Y0122678D01*
X0307780Y0123209D01*
X0307173Y0123650D01*
X0306504Y0123991D01*
X0305791Y0124223D01*
X0305049Y0124340D01*
X0304858Y0124340D01*
X0304858Y0116787D01*
X0309443Y0116787D01*
X0309443Y0117302D02*
X0310781Y0117302D01*
X0310781Y0118900D02*
X0309443Y0118900D01*
X0309355Y0120499D02*
X0310781Y0120499D01*
X0310781Y0122097D02*
X0308733Y0122097D01*
X0307083Y0123696D02*
X0310781Y0123696D01*
X0310781Y0125294D02*
X0297697Y0125294D01*
X0296133Y0123696D02*
X0302265Y0123696D01*
X0302175Y0123650D02*
X0301568Y0123209D01*
X0301037Y0122678D01*
X0300596Y0122071D01*
X0300255Y0121402D01*
X0300023Y0120688D01*
X0299906Y0119947D01*
X0299906Y0116787D01*
X0304490Y0116787D01*
X0304490Y0116419D01*
X0304858Y0116419D01*
X0304858Y0116787D01*
X0304490Y0116787D01*
X0304490Y0124340D01*
X0304299Y0124340D01*
X0303557Y0124223D01*
X0302844Y0123991D01*
X0302175Y0123650D01*
X0300615Y0122097D02*
X0298326Y0122097D01*
X0299018Y0120499D02*
X0299993Y0120499D01*
X0299906Y0118900D02*
X0299043Y0118900D01*
X0299043Y0117302D02*
X0299906Y0117302D01*
X0299906Y0116419D02*
X0299906Y0113259D01*
X0300023Y0112518D01*
X0300255Y0111804D01*
X0300596Y0111135D01*
X0301037Y0110528D01*
X0301568Y0109997D01*
X0302175Y0109556D01*
X0302844Y0109216D01*
X0303557Y0108984D01*
X0304299Y0108866D01*
X0304490Y0108866D01*
X0304490Y0116419D01*
X0299906Y0116419D01*
X0299906Y0115703D02*
X0299043Y0115703D01*
X0299043Y0114105D02*
X0299906Y0114105D01*
X0300027Y0112506D02*
X0298935Y0112506D01*
X0298125Y0110908D02*
X0300761Y0110908D01*
X0302660Y0109309D02*
X0295647Y0109309D01*
X0293701Y0109309D02*
X0285647Y0109309D01*
X0283701Y0109309D02*
X0271874Y0109309D01*
X0271874Y0110908D02*
X0273298Y0110908D01*
X0272980Y0112506D02*
X0271874Y0112506D01*
X0271874Y0114105D02*
X0273380Y0114105D01*
X0273380Y0115703D02*
X0271874Y0115703D01*
X0271874Y0117302D02*
X0273380Y0117302D01*
X0273380Y0118900D02*
X0271874Y0118900D01*
X0271874Y0120499D02*
X0273380Y0120499D01*
X0273380Y0122097D02*
X0271874Y0122097D01*
X0271874Y0123696D02*
X0273380Y0123696D01*
X0273758Y0125294D02*
X0271874Y0125294D01*
X0269674Y0127942D02*
X0269674Y0104320D01*
X0267074Y0104514D02*
X0256126Y0104514D01*
X0256126Y0106112D02*
X0267474Y0106112D01*
X0267474Y0107711D02*
X0256126Y0107711D01*
X0256126Y0109309D02*
X0267474Y0109309D01*
X0267474Y0110908D02*
X0256126Y0110908D01*
X0256126Y0112506D02*
X0267474Y0112506D01*
X0267474Y0114105D02*
X0256126Y0114105D01*
X0256126Y0115703D02*
X0267474Y0115703D01*
X0267474Y0117302D02*
X0256126Y0117302D01*
X0256126Y0118900D02*
X0267474Y0118900D01*
X0267474Y0120499D02*
X0256126Y0120499D01*
X0256126Y0122097D02*
X0267474Y0122097D01*
X0267474Y0123696D02*
X0256126Y0123696D01*
X0256126Y0125294D02*
X0267474Y0125294D01*
X0267474Y0126893D02*
X0256126Y0126893D01*
X0256126Y0128491D02*
X0267474Y0128491D01*
X0269674Y0127942D02*
X0287391Y0127942D01*
X0303139Y0143690D01*
X0304831Y0144635D01*
X0299931Y0144476D02*
X0299731Y0144476D01*
X0299539Y0146075D02*
X0300124Y0146075D01*
X0300941Y0147673D02*
X0298722Y0147673D01*
X0296440Y0149272D02*
X0303223Y0149272D01*
X0306440Y0149272D02*
X0313223Y0149272D01*
X0310941Y0147673D02*
X0308722Y0147673D01*
X0309539Y0146075D02*
X0310124Y0146075D01*
X0309931Y0144476D02*
X0309731Y0144476D01*
X0312981Y0143690D02*
X0314831Y0144635D01*
X0312981Y0143690D02*
X0293296Y0124005D01*
X0275580Y0124005D01*
X0275580Y0112194D01*
X0278180Y0112506D02*
X0280413Y0112506D01*
X0280306Y0114105D02*
X0277780Y0114105D01*
X0277780Y0115703D02*
X0280306Y0115703D01*
X0280306Y0117302D02*
X0277780Y0117302D01*
X0277780Y0118900D02*
X0280306Y0118900D01*
X0280330Y0120499D02*
X0277780Y0120499D01*
X0289018Y0120499D02*
X0290330Y0120499D01*
X0290306Y0118900D02*
X0289043Y0118900D01*
X0289043Y0117302D02*
X0290306Y0117302D01*
X0290306Y0115703D02*
X0289043Y0115703D01*
X0289043Y0114105D02*
X0290306Y0114105D01*
X0290413Y0112506D02*
X0288935Y0112506D01*
X0288125Y0110908D02*
X0291223Y0110908D01*
X0281223Y0110908D02*
X0277861Y0110908D01*
X0267442Y0102915D02*
X0256126Y0102915D01*
X0253926Y0100383D02*
X0253926Y0131879D01*
X0281485Y0131879D01*
X0293296Y0143690D01*
X0294831Y0144635D01*
X0289931Y0144476D02*
X0289731Y0144476D01*
X0289539Y0146075D02*
X0290124Y0146075D01*
X0290941Y0147673D02*
X0288722Y0147673D01*
X0286440Y0149272D02*
X0293223Y0149272D01*
X0283223Y0149272D02*
X0276440Y0149272D01*
X0275806Y0149535D02*
X0277607Y0148789D01*
X0278986Y0147410D01*
X0279731Y0145609D01*
X0279731Y0143660D01*
X0278986Y0141859D01*
X0277607Y0140481D01*
X0275806Y0139735D01*
X0273857Y0139735D01*
X0272056Y0140481D01*
X0270677Y0141859D01*
X0269931Y0143660D01*
X0269931Y0145609D01*
X0270677Y0147410D01*
X0272056Y0148789D01*
X0273857Y0149535D01*
X0275806Y0149535D01*
X0273223Y0149272D02*
X0266440Y0149272D01*
X0265806Y0149535D02*
X0263857Y0149535D01*
X0262056Y0148789D01*
X0260677Y0147410D01*
X0259931Y0145609D01*
X0259931Y0143660D01*
X0260677Y0141859D01*
X0262056Y0140481D01*
X0263857Y0139735D01*
X0265806Y0139735D01*
X0267607Y0140481D01*
X0268986Y0141859D01*
X0269731Y0143660D01*
X0269731Y0145609D01*
X0268986Y0147410D01*
X0267607Y0148789D01*
X0265806Y0149535D01*
X0263223Y0149272D02*
X0256440Y0149272D01*
X0255806Y0149535D02*
X0253857Y0149535D01*
X0252056Y0148789D01*
X0250677Y0147410D01*
X0250012Y0145804D01*
X0250001Y0145876D01*
X0249743Y0146669D01*
X0249364Y0147412D01*
X0248874Y0148087D01*
X0248284Y0148677D01*
X0247609Y0149168D01*
X0246866Y0149546D01*
X0246073Y0149804D01*
X0245249Y0149935D01*
X0244931Y0149935D01*
X0244931Y0144735D01*
X0244731Y0144735D01*
X0244731Y0149935D01*
X0244414Y0149935D01*
X0243590Y0149804D01*
X0242797Y0149546D01*
X0242054Y0149168D01*
X0241379Y0148677D01*
X0240789Y0148087D01*
X0240299Y0147412D01*
X0239920Y0146669D01*
X0239662Y0145876D01*
X0239651Y0145804D01*
X0238986Y0147410D01*
X0237607Y0148789D01*
X0235806Y0149535D01*
X0233857Y0149535D01*
X0232056Y0148789D01*
X0230677Y0147410D01*
X0229931Y0145609D01*
X0229931Y0143660D01*
X0230677Y0141859D01*
X0232056Y0140481D01*
X0233857Y0139735D01*
X0235806Y0139735D01*
X0237607Y0140481D01*
X0238986Y0141859D01*
X0239651Y0143465D01*
X0239662Y0143394D01*
X0239920Y0142600D01*
X0240299Y0141857D01*
X0240789Y0141182D01*
X0241379Y0140592D01*
X0242054Y0140102D01*
X0242797Y0139723D01*
X0243590Y0139465D01*
X0244414Y0139335D01*
X0244731Y0139335D01*
X0244731Y0144535D01*
X0244931Y0144535D01*
X0244931Y0139335D01*
X0245249Y0139335D01*
X0246073Y0139465D01*
X0246866Y0139723D01*
X0247609Y0140102D01*
X0248284Y0140592D01*
X0248874Y0141182D01*
X0249364Y0141857D01*
X0249743Y0142600D01*
X0250001Y0143394D01*
X0250012Y0143465D01*
X0250677Y0141859D01*
X0252056Y0140481D01*
X0253857Y0139735D01*
X0255806Y0139735D01*
X0257607Y0140481D01*
X0258986Y0141859D01*
X0259731Y0143660D01*
X0259731Y0145609D01*
X0258986Y0147410D01*
X0257607Y0148789D01*
X0255806Y0149535D01*
X0253223Y0149272D02*
X0247404Y0149272D01*
X0249175Y0147673D02*
X0250941Y0147673D01*
X0250124Y0146075D02*
X0249936Y0146075D01*
X0249833Y0142878D02*
X0250255Y0142878D01*
X0251257Y0141279D02*
X0248945Y0141279D01*
X0246737Y0139681D02*
X0286176Y0139681D01*
X0284577Y0138082D02*
X0215401Y0138082D01*
X0216999Y0136484D02*
X0282979Y0136484D01*
X0281380Y0134885D02*
X0218598Y0134885D01*
X0220196Y0133287D02*
X0252223Y0133287D01*
X0251726Y0131688D02*
X0221795Y0131688D01*
X0223393Y0130090D02*
X0251726Y0130090D01*
X0251726Y0128491D02*
X0224992Y0128491D01*
X0226590Y0126893D02*
X0251726Y0126893D01*
X0251726Y0125294D02*
X0228189Y0125294D01*
X0229787Y0123696D02*
X0251726Y0123696D01*
X0251726Y0122097D02*
X0231386Y0122097D01*
X0232984Y0120499D02*
X0251726Y0120499D01*
X0251726Y0118900D02*
X0234583Y0118900D01*
X0236181Y0117302D02*
X0251726Y0117302D01*
X0251726Y0115703D02*
X0237780Y0115703D01*
X0239378Y0114105D02*
X0251726Y0114105D01*
X0251726Y0112506D02*
X0240977Y0112506D01*
X0242575Y0110908D02*
X0251726Y0110908D01*
X0251726Y0109309D02*
X0244174Y0109309D01*
X0245772Y0107711D02*
X0251726Y0107711D01*
X0251726Y0106112D02*
X0247371Y0106112D01*
X0248969Y0104514D02*
X0251726Y0104514D01*
X0251726Y0102915D02*
X0250568Y0102915D01*
X0240146Y0090540D02*
X0198808Y0131879D01*
X0198808Y0200776D01*
X0208882Y0200424D02*
X0212192Y0200424D01*
X0212056Y0200481D02*
X0213857Y0199735D01*
X0215806Y0199735D01*
X0217607Y0200481D01*
X0218986Y0201859D01*
X0219651Y0203465D01*
X0219662Y0203394D01*
X0219920Y0202600D01*
X0220299Y0201857D01*
X0220789Y0201182D01*
X0221379Y0200592D01*
X0222054Y0200102D01*
X0222797Y0199723D01*
X0223590Y0199465D01*
X0224414Y0199335D01*
X0224731Y0199335D01*
X0224731Y0204535D01*
X0224931Y0204535D01*
X0224931Y0199335D01*
X0225249Y0199335D01*
X0226073Y0199465D01*
X0226866Y0199723D01*
X0227609Y0200102D01*
X0228284Y0200592D01*
X0228874Y0201182D01*
X0229364Y0201857D01*
X0229743Y0202600D01*
X0230001Y0203394D01*
X0230012Y0203465D01*
X0230677Y0201859D01*
X0232056Y0200481D01*
X0233857Y0199735D01*
X0235806Y0199735D01*
X0237607Y0200481D01*
X0238986Y0201859D01*
X0239731Y0203660D01*
X0239731Y0205609D01*
X0238986Y0207410D01*
X0237607Y0208789D01*
X0235806Y0209535D01*
X0233857Y0209535D01*
X0232056Y0208789D01*
X0230677Y0207410D01*
X0230012Y0205804D01*
X0230001Y0205876D01*
X0229743Y0206669D01*
X0229364Y0207412D01*
X0228874Y0208087D01*
X0228284Y0208677D01*
X0227609Y0209168D01*
X0226866Y0209546D01*
X0226073Y0209804D01*
X0225249Y0209935D01*
X0224931Y0209935D01*
X0224931Y0204735D01*
X0224731Y0204735D01*
X0224731Y0209935D01*
X0224414Y0209935D01*
X0223590Y0209804D01*
X0222797Y0209546D01*
X0222054Y0209168D01*
X0221379Y0208677D01*
X0220789Y0208087D01*
X0220299Y0207412D01*
X0219920Y0206669D01*
X0219662Y0205876D01*
X0219651Y0205804D01*
X0219124Y0207075D01*
X0219124Y0207573D01*
X0249097Y0237546D01*
X0279400Y0237546D01*
X0279400Y0236781D01*
X0280065Y0235176D01*
X0281294Y0233947D01*
X0282900Y0233282D01*
X0284637Y0233282D01*
X0286243Y0233947D01*
X0287472Y0235176D01*
X0288137Y0236781D01*
X0288137Y0244456D01*
X0287472Y0246062D01*
X0286243Y0247291D01*
X0284637Y0247956D01*
X0282900Y0247956D01*
X0281294Y0247291D01*
X0280065Y0246062D01*
X0279400Y0244456D01*
X0279400Y0242746D01*
X0247503Y0242746D01*
X0246548Y0242351D01*
X0245816Y0241619D01*
X0214320Y0210123D01*
X0214076Y0209535D01*
X0213857Y0209535D01*
X0212056Y0208789D01*
X0210677Y0207410D01*
X0209931Y0205609D01*
X0209931Y0203660D01*
X0210677Y0201859D01*
X0212056Y0200481D01*
X0210610Y0202023D02*
X0208882Y0202023D01*
X0208882Y0203621D02*
X0209947Y0203621D01*
X0209931Y0205220D02*
X0208882Y0205220D01*
X0208882Y0206818D02*
X0210432Y0206818D01*
X0211684Y0208417D02*
X0208882Y0208417D01*
X0208882Y0210015D02*
X0214276Y0210015D01*
X0215811Y0211614D02*
X0208882Y0211614D01*
X0208882Y0213212D02*
X0217409Y0213212D01*
X0219008Y0214811D02*
X0208882Y0214811D01*
X0208882Y0216409D02*
X0220607Y0216409D01*
X0222205Y0218008D02*
X0208882Y0218008D01*
X0208882Y0219606D02*
X0223804Y0219606D01*
X0225402Y0221205D02*
X0208882Y0221205D01*
X0208882Y0222803D02*
X0227001Y0222803D01*
X0228599Y0224402D02*
X0208882Y0224402D01*
X0208882Y0226001D02*
X0230198Y0226001D01*
X0231796Y0227599D02*
X0208882Y0227599D01*
X0208882Y0229198D02*
X0233395Y0229198D01*
X0234993Y0230796D02*
X0208882Y0230796D01*
X0208882Y0232395D02*
X0236592Y0232395D01*
X0238190Y0233993D02*
X0208882Y0233993D01*
X0208882Y0235592D02*
X0239789Y0235592D01*
X0241387Y0237190D02*
X0208882Y0237190D01*
X0208882Y0238789D02*
X0242986Y0238789D01*
X0244584Y0240387D02*
X0208882Y0240387D01*
X0208882Y0241986D02*
X0246183Y0241986D01*
X0248741Y0237190D02*
X0279400Y0237190D01*
X0279893Y0235592D02*
X0247143Y0235592D01*
X0245544Y0233993D02*
X0281248Y0233993D01*
X0286289Y0233993D02*
X0291248Y0233993D01*
X0291294Y0233947D02*
X0292900Y0233282D01*
X0294637Y0233282D01*
X0296243Y0233947D01*
X0297472Y0235176D01*
X0298137Y0236781D01*
X0298137Y0244456D01*
X0297472Y0246062D01*
X0296243Y0247291D01*
X0294637Y0247956D01*
X0292900Y0247956D01*
X0291294Y0247291D01*
X0290065Y0246062D01*
X0289400Y0244456D01*
X0289400Y0236781D01*
X0290065Y0235176D01*
X0291294Y0233947D01*
X0289893Y0235592D02*
X0287644Y0235592D01*
X0288137Y0237190D02*
X0289400Y0237190D01*
X0289400Y0238789D02*
X0288137Y0238789D01*
X0288137Y0240387D02*
X0289400Y0240387D01*
X0289400Y0241986D02*
X0288137Y0241986D01*
X0288137Y0243584D02*
X0289400Y0243584D01*
X0289701Y0245183D02*
X0287836Y0245183D01*
X0286753Y0246781D02*
X0290784Y0246781D01*
X0296753Y0246781D02*
X0300219Y0246781D01*
X0300131Y0246694D02*
X0299690Y0246087D01*
X0299349Y0245418D01*
X0299117Y0244704D01*
X0299000Y0243963D01*
X0299000Y0240803D01*
X0303584Y0240803D01*
X0303584Y0240435D01*
X0299000Y0240435D01*
X0299000Y0237275D01*
X0299117Y0236534D01*
X0299349Y0235820D01*
X0299690Y0235151D01*
X0300131Y0234544D01*
X0300662Y0234013D01*
X0301269Y0233572D01*
X0301938Y0233231D01*
X0302652Y0232999D01*
X0303393Y0232882D01*
X0303584Y0232882D01*
X0303584Y0240435D01*
X0303953Y0240435D01*
X0303953Y0240803D01*
X0308537Y0240803D01*
X0308537Y0243963D01*
X0308420Y0244704D01*
X0308188Y0245418D01*
X0307847Y0246087D01*
X0307406Y0246694D01*
X0306875Y0247225D01*
X0306268Y0247666D01*
X0305599Y0248007D01*
X0304885Y0248238D01*
X0304144Y0248356D01*
X0303953Y0248356D01*
X0303953Y0240803D01*
X0303584Y0240803D01*
X0303584Y0248356D01*
X0303393Y0248356D01*
X0302652Y0248238D01*
X0301938Y0248007D01*
X0301269Y0247666D01*
X0300662Y0247225D01*
X0300131Y0246694D01*
X0299273Y0245183D02*
X0297836Y0245183D01*
X0298137Y0243584D02*
X0299000Y0243584D01*
X0299000Y0241986D02*
X0298137Y0241986D01*
X0298137Y0240387D02*
X0299000Y0240387D01*
X0299000Y0238789D02*
X0298137Y0238789D01*
X0298137Y0237190D02*
X0299013Y0237190D01*
X0299466Y0235592D02*
X0297644Y0235592D01*
X0296289Y0233993D02*
X0300690Y0233993D01*
X0303584Y0233993D02*
X0303953Y0233993D01*
X0303953Y0232882D02*
X0304144Y0232882D01*
X0304885Y0232999D01*
X0305599Y0233231D01*
X0306268Y0233572D01*
X0306875Y0234013D01*
X0307406Y0234544D01*
X0307847Y0235151D01*
X0308188Y0235820D01*
X0308420Y0236534D01*
X0308537Y0237275D01*
X0308537Y0240435D01*
X0303953Y0240435D01*
X0303953Y0232882D01*
X0303953Y0235592D02*
X0303584Y0235592D01*
X0303584Y0237190D02*
X0303953Y0237190D01*
X0303953Y0238789D02*
X0303584Y0238789D01*
X0303584Y0240387D02*
X0303953Y0240387D01*
X0303953Y0241986D02*
X0303584Y0241986D01*
X0303584Y0243584D02*
X0303953Y0243584D01*
X0303953Y0245183D02*
X0303584Y0245183D01*
X0303584Y0246781D02*
X0303953Y0246781D01*
X0307318Y0246781D02*
X0330784Y0246781D01*
X0331294Y0247291D02*
X0330065Y0246062D01*
X0329400Y0244456D01*
X0329400Y0236781D01*
X0330065Y0235176D01*
X0331294Y0233947D01*
X0332900Y0233282D01*
X0334637Y0233282D01*
X0336243Y0233947D01*
X0337472Y0235176D01*
X0338137Y0236781D01*
X0338137Y0244456D01*
X0337472Y0246062D01*
X0336243Y0247291D01*
X0334637Y0247956D01*
X0332900Y0247956D01*
X0331294Y0247291D01*
X0329701Y0245183D02*
X0308264Y0245183D01*
X0308537Y0243584D02*
X0329400Y0243584D01*
X0329400Y0241986D02*
X0308537Y0241986D01*
X0308537Y0240387D02*
X0329400Y0240387D01*
X0329400Y0238789D02*
X0308537Y0238789D01*
X0308524Y0237190D02*
X0329400Y0237190D01*
X0329893Y0235592D02*
X0308071Y0235592D01*
X0306847Y0233993D02*
X0331248Y0233993D01*
X0336289Y0233993D02*
X0341248Y0233993D01*
X0341294Y0233947D02*
X0342900Y0233282D01*
X0344637Y0233282D01*
X0346243Y0233947D01*
X0347472Y0235176D01*
X0348137Y0236781D01*
X0348137Y0244456D01*
X0347472Y0246062D01*
X0346243Y0247291D01*
X0344637Y0247956D01*
X0342900Y0247956D01*
X0341294Y0247291D01*
X0340065Y0246062D01*
X0339400Y0244456D01*
X0339400Y0236781D01*
X0340065Y0235176D01*
X0341294Y0233947D01*
X0339893Y0235592D02*
X0337644Y0235592D01*
X0338137Y0237190D02*
X0339400Y0237190D01*
X0339400Y0238789D02*
X0338137Y0238789D01*
X0338137Y0240387D02*
X0339400Y0240387D01*
X0339400Y0241986D02*
X0338137Y0241986D01*
X0338137Y0243584D02*
X0339400Y0243584D01*
X0339701Y0245183D02*
X0337836Y0245183D01*
X0336753Y0246781D02*
X0340784Y0246781D01*
X0346753Y0246781D02*
X0350219Y0246781D01*
X0350131Y0246694D02*
X0349690Y0246087D01*
X0349349Y0245418D01*
X0349117Y0244704D01*
X0349000Y0243963D01*
X0349000Y0240803D01*
X0353584Y0240803D01*
X0353584Y0240435D01*
X0349000Y0240435D01*
X0349000Y0237275D01*
X0349117Y0236534D01*
X0349349Y0235820D01*
X0349690Y0235151D01*
X0350131Y0234544D01*
X0350662Y0234013D01*
X0351269Y0233572D01*
X0351938Y0233231D01*
X0352652Y0232999D01*
X0353393Y0232882D01*
X0353584Y0232882D01*
X0353584Y0240435D01*
X0353953Y0240435D01*
X0353953Y0240803D01*
X0358537Y0240803D01*
X0358537Y0243963D01*
X0358420Y0244704D01*
X0358188Y0245418D01*
X0357847Y0246087D01*
X0357406Y0246694D01*
X0356875Y0247225D01*
X0356268Y0247666D01*
X0355599Y0248007D01*
X0354885Y0248238D01*
X0354144Y0248356D01*
X0353953Y0248356D01*
X0353953Y0240803D01*
X0353584Y0240803D01*
X0353584Y0248356D01*
X0353393Y0248356D01*
X0352652Y0248238D01*
X0351938Y0248007D01*
X0351269Y0247666D01*
X0350662Y0247225D01*
X0350131Y0246694D01*
X0349273Y0245183D02*
X0347836Y0245183D01*
X0348137Y0243584D02*
X0349000Y0243584D01*
X0349000Y0241986D02*
X0348137Y0241986D01*
X0348137Y0240387D02*
X0349000Y0240387D01*
X0349000Y0238789D02*
X0348137Y0238789D01*
X0348137Y0237190D02*
X0349013Y0237190D01*
X0349466Y0235592D02*
X0347644Y0235592D01*
X0346289Y0233993D02*
X0350690Y0233993D01*
X0353584Y0233993D02*
X0353953Y0233993D01*
X0353953Y0232882D02*
X0354144Y0232882D01*
X0354885Y0232999D01*
X0355599Y0233231D01*
X0356268Y0233572D01*
X0356875Y0234013D01*
X0357406Y0234544D01*
X0357847Y0235151D01*
X0358188Y0235820D01*
X0358420Y0236534D01*
X0358537Y0237275D01*
X0358537Y0240435D01*
X0353953Y0240435D01*
X0353953Y0232882D01*
X0353953Y0235592D02*
X0353584Y0235592D01*
X0353584Y0237190D02*
X0353953Y0237190D01*
X0353953Y0238789D02*
X0353584Y0238789D01*
X0353584Y0240387D02*
X0353953Y0240387D01*
X0353953Y0241986D02*
X0353584Y0241986D01*
X0353584Y0243584D02*
X0353953Y0243584D01*
X0353953Y0245183D02*
X0353584Y0245183D01*
X0353584Y0246781D02*
X0353953Y0246781D01*
X0357318Y0246781D02*
X0363701Y0246781D01*
X0363701Y0245183D02*
X0358264Y0245183D01*
X0358537Y0243584D02*
X0363701Y0243584D01*
X0363701Y0241986D02*
X0358537Y0241986D01*
X0358537Y0240387D02*
X0363701Y0240387D01*
X0363701Y0238789D02*
X0358537Y0238789D01*
X0358524Y0237190D02*
X0363701Y0237190D01*
X0363701Y0235592D02*
X0358071Y0235592D01*
X0356847Y0233993D02*
X0363701Y0233993D01*
X0363701Y0232395D02*
X0243946Y0232395D01*
X0242347Y0230796D02*
X0363701Y0230796D01*
X0363701Y0229198D02*
X0240748Y0229198D01*
X0239150Y0227599D02*
X0363701Y0227599D01*
X0363701Y0226001D02*
X0237551Y0226001D01*
X0235953Y0224402D02*
X0363701Y0224402D01*
X0363701Y0222803D02*
X0234354Y0222803D01*
X0232756Y0221205D02*
X0363701Y0221205D01*
X0363701Y0219606D02*
X0231157Y0219606D01*
X0229559Y0218008D02*
X0363701Y0218008D01*
X0363701Y0216409D02*
X0227960Y0216409D01*
X0226362Y0214811D02*
X0363701Y0214811D01*
X0363701Y0213212D02*
X0224763Y0213212D01*
X0223165Y0211614D02*
X0363701Y0211614D01*
X0363701Y0210015D02*
X0221566Y0210015D01*
X0221118Y0208417D02*
X0219968Y0208417D01*
X0219996Y0206818D02*
X0219231Y0206818D01*
X0219053Y0202023D02*
X0220214Y0202023D01*
X0221610Y0200424D02*
X0217471Y0200424D01*
X0224731Y0200424D02*
X0224931Y0200424D01*
X0224931Y0202023D02*
X0224731Y0202023D01*
X0224731Y0203621D02*
X0224931Y0203621D01*
X0224931Y0205220D02*
X0224731Y0205220D01*
X0224731Y0206818D02*
X0224931Y0206818D01*
X0224931Y0208417D02*
X0224731Y0208417D01*
X0228545Y0208417D02*
X0231684Y0208417D01*
X0230432Y0206818D02*
X0229667Y0206818D01*
X0229449Y0202023D02*
X0230610Y0202023D01*
X0232192Y0200424D02*
X0228053Y0200424D01*
X0237471Y0200424D02*
X0242192Y0200424D01*
X0242056Y0200481D02*
X0243857Y0199735D01*
X0245806Y0199735D01*
X0247607Y0200481D01*
X0248986Y0201859D01*
X0249731Y0203660D01*
X0249731Y0205609D01*
X0248986Y0207410D01*
X0247607Y0208789D01*
X0245806Y0209535D01*
X0243857Y0209535D01*
X0242056Y0208789D01*
X0240677Y0207410D01*
X0239931Y0205609D01*
X0239931Y0203660D01*
X0240677Y0201859D01*
X0242056Y0200481D01*
X0240610Y0202023D02*
X0239053Y0202023D01*
X0239715Y0203621D02*
X0239947Y0203621D01*
X0239931Y0205220D02*
X0239731Y0205220D01*
X0239231Y0206818D02*
X0240432Y0206818D01*
X0241684Y0208417D02*
X0237979Y0208417D01*
X0247979Y0208417D02*
X0251684Y0208417D01*
X0252056Y0208789D02*
X0250677Y0207410D01*
X0249931Y0205609D01*
X0249931Y0203660D01*
X0250677Y0201859D01*
X0252056Y0200481D01*
X0253857Y0199735D01*
X0255806Y0199735D01*
X0257607Y0200481D01*
X0258986Y0201859D01*
X0259731Y0203660D01*
X0259731Y0205609D01*
X0258986Y0207410D01*
X0257607Y0208789D01*
X0255806Y0209535D01*
X0253857Y0209535D01*
X0252056Y0208789D01*
X0250432Y0206818D02*
X0249231Y0206818D01*
X0249731Y0205220D02*
X0249931Y0205220D01*
X0249947Y0203621D02*
X0249715Y0203621D01*
X0249053Y0202023D02*
X0250610Y0202023D01*
X0252192Y0200424D02*
X0247471Y0200424D01*
X0257471Y0200424D02*
X0262192Y0200424D01*
X0262056Y0200481D02*
X0263857Y0199735D01*
X0265806Y0199735D01*
X0267607Y0200481D01*
X0268986Y0201859D01*
X0269731Y0203660D01*
X0269731Y0205609D01*
X0268986Y0207410D01*
X0267607Y0208789D01*
X0265806Y0209535D01*
X0263857Y0209535D01*
X0262056Y0208789D01*
X0260677Y0207410D01*
X0259931Y0205609D01*
X0259931Y0203660D01*
X0260677Y0201859D01*
X0262056Y0200481D01*
X0260610Y0202023D02*
X0259053Y0202023D01*
X0259715Y0203621D02*
X0259947Y0203621D01*
X0259931Y0205220D02*
X0259731Y0205220D01*
X0259231Y0206818D02*
X0260432Y0206818D01*
X0261684Y0208417D02*
X0257979Y0208417D01*
X0267979Y0208417D02*
X0271684Y0208417D01*
X0272056Y0208789D02*
X0270677Y0207410D01*
X0269931Y0205609D01*
X0269931Y0203660D01*
X0270677Y0201859D01*
X0272056Y0200481D01*
X0273857Y0199735D01*
X0275806Y0199735D01*
X0277607Y0200481D01*
X0278986Y0201859D01*
X0279731Y0203660D01*
X0279731Y0205609D01*
X0278986Y0207410D01*
X0277607Y0208789D01*
X0275806Y0209535D01*
X0273857Y0209535D01*
X0272056Y0208789D01*
X0270432Y0206818D02*
X0269231Y0206818D01*
X0269731Y0205220D02*
X0269931Y0205220D01*
X0269947Y0203621D02*
X0269715Y0203621D01*
X0269053Y0202023D02*
X0270610Y0202023D01*
X0272192Y0200424D02*
X0267471Y0200424D01*
X0277471Y0200424D02*
X0282192Y0200424D01*
X0282056Y0200481D02*
X0283857Y0199735D01*
X0285806Y0199735D01*
X0287607Y0200481D01*
X0288986Y0201859D01*
X0289731Y0203660D01*
X0289731Y0205609D01*
X0288986Y0207410D01*
X0287607Y0208789D01*
X0285806Y0209535D01*
X0283857Y0209535D01*
X0282056Y0208789D01*
X0280677Y0207410D01*
X0279931Y0205609D01*
X0279931Y0203660D01*
X0280677Y0201859D01*
X0282056Y0200481D01*
X0280610Y0202023D02*
X0279053Y0202023D01*
X0279715Y0203621D02*
X0279947Y0203621D01*
X0279931Y0205220D02*
X0279731Y0205220D01*
X0279231Y0206818D02*
X0280432Y0206818D01*
X0281684Y0208417D02*
X0277979Y0208417D01*
X0287979Y0208417D02*
X0291684Y0208417D01*
X0292056Y0208789D02*
X0290677Y0207410D01*
X0289931Y0205609D01*
X0289931Y0203660D01*
X0290274Y0202834D01*
X0269163Y0181723D01*
X0269157Y0181723D01*
X0268201Y0181327D01*
X0267470Y0180596D01*
X0267074Y0179640D01*
X0267074Y0178606D01*
X0267470Y0177650D01*
X0268201Y0176919D01*
X0269157Y0176523D01*
X0270191Y0176523D01*
X0271147Y0176919D01*
X0271878Y0177650D01*
X0272274Y0178606D01*
X0272274Y0178612D01*
X0293532Y0199869D01*
X0293857Y0199735D01*
X0295806Y0199735D01*
X0297607Y0200481D01*
X0298986Y0201859D01*
X0299731Y0203660D01*
X0299731Y0205609D01*
X0298986Y0207410D01*
X0297607Y0208789D01*
X0295806Y0209535D01*
X0293857Y0209535D01*
X0292056Y0208789D01*
X0290432Y0206818D02*
X0289231Y0206818D01*
X0289731Y0205220D02*
X0289931Y0205220D01*
X0289947Y0203621D02*
X0289715Y0203621D01*
X0289463Y0202023D02*
X0289053Y0202023D01*
X0287864Y0200424D02*
X0287471Y0200424D01*
X0286266Y0198826D02*
X0208882Y0198826D01*
X0208882Y0197227D02*
X0284667Y0197227D01*
X0283069Y0195629D02*
X0208882Y0195629D01*
X0208882Y0194030D02*
X0281470Y0194030D01*
X0279872Y0192432D02*
X0208882Y0192432D01*
X0208882Y0190833D02*
X0278273Y0190833D01*
X0276675Y0189235D02*
X0208882Y0189235D01*
X0208882Y0187636D02*
X0275076Y0187636D01*
X0273478Y0186038D02*
X0208882Y0186038D01*
X0208882Y0184439D02*
X0271879Y0184439D01*
X0270281Y0182841D02*
X0208882Y0182841D01*
X0208882Y0181242D02*
X0268116Y0181242D01*
X0267076Y0179644D02*
X0208882Y0179644D01*
X0208882Y0178045D02*
X0267306Y0178045D01*
X0269674Y0179123D02*
X0293296Y0202745D01*
X0294831Y0204635D01*
X0299053Y0202023D02*
X0300610Y0202023D01*
X0300677Y0201859D02*
X0302056Y0200481D01*
X0303857Y0199735D01*
X0305806Y0199735D01*
X0307607Y0200481D01*
X0308986Y0201859D01*
X0309731Y0203660D01*
X0309731Y0205609D01*
X0308986Y0207410D01*
X0307607Y0208789D01*
X0305806Y0209535D01*
X0303857Y0209535D01*
X0302056Y0208789D01*
X0300677Y0207410D01*
X0299931Y0205609D01*
X0299931Y0203660D01*
X0300677Y0201859D01*
X0299947Y0203621D02*
X0299715Y0203621D01*
X0299731Y0205220D02*
X0299931Y0205220D01*
X0300432Y0206818D02*
X0299231Y0206818D01*
X0297979Y0208417D02*
X0301684Y0208417D01*
X0307979Y0208417D02*
X0311684Y0208417D01*
X0312056Y0208789D02*
X0310677Y0207410D01*
X0309931Y0205609D01*
X0309931Y0203660D01*
X0310677Y0201859D01*
X0312056Y0200481D01*
X0313857Y0199735D01*
X0315806Y0199735D01*
X0317607Y0200481D01*
X0318986Y0201859D01*
X0319731Y0203660D01*
X0319731Y0205609D01*
X0318986Y0207410D01*
X0317607Y0208789D01*
X0315806Y0209535D01*
X0313857Y0209535D01*
X0312056Y0208789D01*
X0310432Y0206818D02*
X0309231Y0206818D01*
X0309731Y0205220D02*
X0309931Y0205220D01*
X0309947Y0203621D02*
X0309715Y0203621D01*
X0309053Y0202023D02*
X0310610Y0202023D01*
X0312192Y0200424D02*
X0307471Y0200424D01*
X0302192Y0200424D02*
X0297471Y0200424D01*
X0292488Y0198826D02*
X0363701Y0198826D01*
X0363701Y0200424D02*
X0357471Y0200424D01*
X0357607Y0200481D02*
X0358986Y0201859D01*
X0359731Y0203660D01*
X0359731Y0205609D01*
X0358986Y0207410D01*
X0357607Y0208789D01*
X0355806Y0209535D01*
X0353857Y0209535D01*
X0352056Y0208789D01*
X0350677Y0207410D01*
X0349931Y0205609D01*
X0349931Y0203660D01*
X0350677Y0201859D01*
X0352056Y0200481D01*
X0353857Y0199735D01*
X0355806Y0199735D01*
X0357607Y0200481D01*
X0359053Y0202023D02*
X0363701Y0202023D01*
X0363701Y0203621D02*
X0359715Y0203621D01*
X0359731Y0205220D02*
X0363701Y0205220D01*
X0363701Y0206818D02*
X0359231Y0206818D01*
X0357979Y0208417D02*
X0363701Y0208417D01*
X0352192Y0200424D02*
X0347471Y0200424D01*
X0347607Y0200481D02*
X0348986Y0201859D01*
X0349731Y0203660D01*
X0349731Y0205609D01*
X0348986Y0207410D01*
X0347607Y0208789D01*
X0345806Y0209535D01*
X0343857Y0209535D01*
X0342056Y0208789D01*
X0340677Y0207410D01*
X0339931Y0205609D01*
X0339931Y0203660D01*
X0340677Y0201859D01*
X0342056Y0200481D01*
X0343857Y0199735D01*
X0345806Y0199735D01*
X0347607Y0200481D01*
X0349053Y0202023D02*
X0350610Y0202023D01*
X0349947Y0203621D02*
X0349715Y0203621D01*
X0349731Y0205220D02*
X0349931Y0205220D01*
X0350432Y0206818D02*
X0349231Y0206818D01*
X0347979Y0208417D02*
X0351684Y0208417D01*
X0341684Y0208417D02*
X0337979Y0208417D01*
X0337607Y0208789D02*
X0335806Y0209535D01*
X0333857Y0209535D01*
X0332056Y0208789D01*
X0330677Y0207410D01*
X0329931Y0205609D01*
X0329931Y0203660D01*
X0330677Y0201859D01*
X0332056Y0200481D01*
X0333857Y0199735D01*
X0335806Y0199735D01*
X0337607Y0200481D01*
X0338986Y0201859D01*
X0339731Y0203660D01*
X0339731Y0205609D01*
X0338986Y0207410D01*
X0337607Y0208789D01*
X0339231Y0206818D02*
X0340432Y0206818D01*
X0339931Y0205220D02*
X0339731Y0205220D01*
X0339715Y0203621D02*
X0339947Y0203621D01*
X0340610Y0202023D02*
X0339053Y0202023D01*
X0337471Y0200424D02*
X0342192Y0200424D01*
X0332192Y0200424D02*
X0327471Y0200424D01*
X0327607Y0200481D02*
X0328986Y0201859D01*
X0329731Y0203660D01*
X0329731Y0205609D01*
X0328986Y0207410D01*
X0327607Y0208789D01*
X0325806Y0209535D01*
X0323857Y0209535D01*
X0322056Y0208789D01*
X0320677Y0207410D01*
X0319931Y0205609D01*
X0319931Y0203660D01*
X0320677Y0201859D01*
X0322056Y0200481D01*
X0323857Y0199735D01*
X0325806Y0199735D01*
X0327607Y0200481D01*
X0329053Y0202023D02*
X0330610Y0202023D01*
X0329947Y0203621D02*
X0329715Y0203621D01*
X0329731Y0205220D02*
X0329931Y0205220D01*
X0330432Y0206818D02*
X0329231Y0206818D01*
X0327979Y0208417D02*
X0331684Y0208417D01*
X0321684Y0208417D02*
X0317979Y0208417D01*
X0319231Y0206818D02*
X0320432Y0206818D01*
X0319931Y0205220D02*
X0319731Y0205220D01*
X0319715Y0203621D02*
X0319947Y0203621D01*
X0320610Y0202023D02*
X0319053Y0202023D01*
X0317471Y0200424D02*
X0322192Y0200424D01*
X0290890Y0197227D02*
X0363701Y0197227D01*
X0363701Y0195629D02*
X0289291Y0195629D01*
X0287693Y0194030D02*
X0363701Y0194030D01*
X0363701Y0192432D02*
X0286094Y0192432D01*
X0284496Y0190833D02*
X0363701Y0190833D01*
X0363701Y0189235D02*
X0282897Y0189235D01*
X0281299Y0187636D02*
X0363701Y0187636D01*
X0363701Y0186038D02*
X0279700Y0186038D01*
X0278102Y0184439D02*
X0363701Y0184439D01*
X0363701Y0182841D02*
X0276503Y0182841D01*
X0274905Y0181242D02*
X0363701Y0181242D01*
X0363701Y0179644D02*
X0273306Y0179644D01*
X0272042Y0178045D02*
X0363701Y0178045D01*
X0363701Y0176447D02*
X0208882Y0176447D01*
X0208882Y0174848D02*
X0363701Y0174848D01*
X0363701Y0173250D02*
X0208882Y0173250D01*
X0208882Y0171651D02*
X0363701Y0171651D01*
X0363701Y0170053D02*
X0208882Y0170053D01*
X0208882Y0168454D02*
X0363701Y0168454D01*
X0363701Y0166856D02*
X0208882Y0166856D01*
X0208882Y0165257D02*
X0363701Y0165257D01*
X0363701Y0163659D02*
X0208882Y0163659D01*
X0208882Y0162060D02*
X0363701Y0162060D01*
X0363701Y0160462D02*
X0208882Y0160462D01*
X0208882Y0158863D02*
X0363701Y0158863D01*
X0363701Y0157265D02*
X0208882Y0157265D01*
X0208882Y0155666D02*
X0363701Y0155666D01*
X0363701Y0154068D02*
X0208882Y0154068D01*
X0208882Y0152469D02*
X0363701Y0152469D01*
X0363701Y0150870D02*
X0208882Y0150870D01*
X0208882Y0149272D02*
X0210489Y0149272D01*
X0209931Y0147673D02*
X0208882Y0147673D01*
X0208882Y0146075D02*
X0209931Y0146075D01*
X0209931Y0144476D02*
X0209006Y0144476D01*
X0213802Y0139681D02*
X0242926Y0139681D01*
X0244731Y0139681D02*
X0244931Y0139681D01*
X0244931Y0141279D02*
X0244731Y0141279D01*
X0244731Y0142878D02*
X0244931Y0142878D01*
X0244931Y0144476D02*
X0244731Y0144476D01*
X0244731Y0146075D02*
X0244931Y0146075D01*
X0244931Y0147673D02*
X0244731Y0147673D01*
X0244731Y0149272D02*
X0244931Y0149272D01*
X0242259Y0149272D02*
X0236440Y0149272D01*
X0238722Y0147673D02*
X0240488Y0147673D01*
X0239727Y0146075D02*
X0239539Y0146075D01*
X0239408Y0142878D02*
X0239830Y0142878D01*
X0240718Y0141279D02*
X0238406Y0141279D01*
X0231257Y0141279D02*
X0228406Y0141279D01*
X0228986Y0141859D02*
X0229731Y0143660D01*
X0229731Y0145609D01*
X0228986Y0147410D01*
X0227607Y0148789D01*
X0225806Y0149535D01*
X0223857Y0149535D01*
X0222056Y0148789D01*
X0220677Y0147410D01*
X0219931Y0145609D01*
X0219931Y0143660D01*
X0220677Y0141859D01*
X0222056Y0140481D01*
X0223857Y0139735D01*
X0225806Y0139735D01*
X0227607Y0140481D01*
X0228986Y0141859D01*
X0229408Y0142878D02*
X0230255Y0142878D01*
X0229931Y0144476D02*
X0229731Y0144476D01*
X0229539Y0146075D02*
X0230124Y0146075D01*
X0230941Y0147673D02*
X0228722Y0147673D01*
X0226440Y0149272D02*
X0233223Y0149272D01*
X0223223Y0149272D02*
X0219174Y0149272D01*
X0219731Y0147673D02*
X0220941Y0147673D01*
X0220124Y0146075D02*
X0219731Y0146075D01*
X0219731Y0144476D02*
X0219931Y0144476D01*
X0219731Y0142878D02*
X0220255Y0142878D01*
X0219731Y0141279D02*
X0221257Y0141279D01*
X0202745Y0131879D02*
X0246052Y0088572D01*
X0246052Y0082666D01*
X0240146Y0080698D02*
X0240146Y0074792D01*
X0242115Y0072824D01*
X0244398Y0064950D01*
X0244083Y0064950D01*
X0244083Y0070855D01*
X0242115Y0072824D01*
X0242115Y0027548D01*
X0243631Y0027509D01*
X0237281Y0027785D02*
X0234381Y0027785D01*
X0234381Y0026187D02*
X0237281Y0026187D01*
X0237281Y0024588D02*
X0234381Y0024588D01*
X0234381Y0022990D02*
X0237281Y0022990D01*
X0237281Y0021391D02*
X0234381Y0021391D01*
X0234381Y0021296D02*
X0234381Y0033722D01*
X0233415Y0036056D01*
X0231628Y0037842D01*
X0229295Y0038809D01*
X0226768Y0038809D01*
X0224435Y0037842D01*
X0222648Y0036056D01*
X0221681Y0033722D01*
X0221681Y0021296D01*
X0222648Y0018962D01*
X0224435Y0017175D01*
X0226768Y0016209D01*
X0229295Y0016209D01*
X0231628Y0017175D01*
X0233415Y0018962D01*
X0234381Y0021296D01*
X0233759Y0019793D02*
X0237904Y0019793D01*
X0239016Y0018194D02*
X0232647Y0018194D01*
X0230229Y0016596D02*
X0241434Y0016596D01*
X0237281Y0029384D02*
X0234381Y0029384D01*
X0234381Y0030982D02*
X0237281Y0030982D01*
X0237281Y0032581D02*
X0234381Y0032581D01*
X0234192Y0034179D02*
X0237471Y0034179D01*
X0238133Y0035778D02*
X0233530Y0035778D01*
X0232094Y0037376D02*
X0239569Y0037376D01*
X0239915Y0038975D02*
X0216756Y0038975D01*
X0216756Y0040573D02*
X0239915Y0040573D01*
X0239915Y0042172D02*
X0216756Y0042172D01*
X0216756Y0043770D02*
X0239915Y0043770D01*
X0239915Y0045369D02*
X0216756Y0045369D01*
X0216756Y0046967D02*
X0239915Y0046967D01*
X0239915Y0048566D02*
X0216756Y0048566D01*
X0216756Y0050164D02*
X0239915Y0050164D01*
X0239915Y0051763D02*
X0216756Y0051763D01*
X0216756Y0053361D02*
X0239915Y0053361D01*
X0239915Y0054960D02*
X0232917Y0054960D01*
X0232444Y0054488D02*
X0234250Y0056293D01*
X0235228Y0058653D01*
X0235228Y0071246D01*
X0234250Y0073606D01*
X0232444Y0075412D01*
X0230085Y0076389D01*
X0227531Y0076389D01*
X0225171Y0075412D01*
X0223366Y0073606D01*
X0222388Y0071246D01*
X0222388Y0058653D01*
X0223366Y0056293D01*
X0225171Y0054488D01*
X0227531Y0053510D01*
X0230085Y0053510D01*
X0232444Y0054488D01*
X0234360Y0056558D02*
X0238846Y0056558D01*
X0238184Y0058157D02*
X0235022Y0058157D01*
X0235228Y0059755D02*
X0237979Y0059755D01*
X0237979Y0061354D02*
X0235228Y0061354D01*
X0235228Y0062952D02*
X0237979Y0062952D01*
X0237979Y0064551D02*
X0235228Y0064551D01*
X0235228Y0066149D02*
X0237979Y0066149D01*
X0237979Y0067748D02*
X0235228Y0067748D01*
X0235228Y0069346D02*
X0237979Y0069346D01*
X0237979Y0070945D02*
X0235228Y0070945D01*
X0234690Y0072543D02*
X0238516Y0072543D01*
X0237946Y0074142D02*
X0233714Y0074142D01*
X0231650Y0075740D02*
X0237946Y0075740D01*
X0237946Y0077339D02*
X0167543Y0077339D01*
X0167543Y0078937D02*
X0201394Y0078937D01*
X0202745Y0080698D02*
X0240146Y0080698D01*
X0242346Y0078937D02*
X0242732Y0078937D01*
X0242346Y0077339D02*
X0244331Y0077339D01*
X0247241Y0075740D02*
X0257146Y0075740D01*
X0256353Y0075412D02*
X0254547Y0073606D01*
X0253569Y0071246D01*
X0253569Y0058653D01*
X0254547Y0056293D01*
X0256353Y0054488D01*
X0258712Y0053510D01*
X0261266Y0053510D01*
X0263625Y0054488D01*
X0265431Y0056293D01*
X0266409Y0058653D01*
X0266409Y0071246D01*
X0265431Y0073606D01*
X0263625Y0075412D01*
X0261266Y0076389D01*
X0258712Y0076389D01*
X0256353Y0075412D01*
X0255083Y0074142D02*
X0249305Y0074142D01*
X0250281Y0072543D02*
X0254107Y0072543D01*
X0253569Y0070945D02*
X0250818Y0070945D01*
X0250818Y0069346D02*
X0253569Y0069346D01*
X0253569Y0067748D02*
X0250818Y0067748D01*
X0250818Y0066149D02*
X0253569Y0066149D01*
X0253569Y0064551D02*
X0250818Y0064551D01*
X0250818Y0062952D02*
X0253569Y0062952D01*
X0253569Y0061354D02*
X0250818Y0061354D01*
X0250818Y0059755D02*
X0253569Y0059755D01*
X0253775Y0058157D02*
X0250613Y0058157D01*
X0249950Y0056558D02*
X0254437Y0056558D01*
X0255880Y0054960D02*
X0248507Y0054960D01*
X0264098Y0054960D02*
X0271471Y0054960D01*
X0270027Y0056558D02*
X0265541Y0056558D01*
X0266203Y0058157D02*
X0269365Y0058157D01*
X0269160Y0059755D02*
X0266409Y0059755D01*
X0266409Y0061354D02*
X0269160Y0061354D01*
X0269160Y0062952D02*
X0266409Y0062952D01*
X0266409Y0064551D02*
X0269160Y0064551D01*
X0269160Y0066149D02*
X0266409Y0066149D01*
X0266409Y0067748D02*
X0269160Y0067748D01*
X0269160Y0069346D02*
X0266409Y0069346D01*
X0266409Y0070945D02*
X0269160Y0070945D01*
X0269697Y0072543D02*
X0265871Y0072543D01*
X0264895Y0074142D02*
X0270673Y0074142D01*
X0272737Y0075740D02*
X0262832Y0075740D01*
X0289359Y0064950D02*
X0291170Y0064950D01*
X0289359Y0064950D02*
X0289359Y0027548D01*
X0290431Y0027509D01*
X0225834Y0016596D02*
X0214629Y0016596D01*
X0213695Y0016209D02*
X0211168Y0016209D01*
X0208835Y0017175D01*
X0207048Y0018962D01*
X0206081Y0021296D01*
X0206081Y0033722D01*
X0207048Y0036056D01*
X0208835Y0037842D01*
X0211168Y0038809D01*
X0212356Y0038809D01*
X0212356Y0053510D01*
X0211940Y0053510D01*
X0209581Y0054488D01*
X0207775Y0056293D01*
X0206798Y0058653D01*
X0206798Y0071246D01*
X0207775Y0073606D01*
X0209581Y0075412D01*
X0211940Y0076389D01*
X0214494Y0076389D01*
X0216854Y0075412D01*
X0218660Y0073606D01*
X0219637Y0071246D01*
X0219637Y0058653D01*
X0218660Y0056293D01*
X0216854Y0054488D01*
X0216756Y0054447D01*
X0216756Y0037114D01*
X0217815Y0036056D01*
X0218781Y0033722D01*
X0218781Y0021296D01*
X0217815Y0018962D01*
X0216028Y0017175D01*
X0213695Y0016209D01*
X0210234Y0016596D02*
X0168366Y0016596D01*
X0170784Y0018194D02*
X0207816Y0018194D01*
X0206704Y0019793D02*
X0171896Y0019793D01*
X0172518Y0021391D02*
X0206081Y0021391D01*
X0206081Y0022990D02*
X0172518Y0022990D01*
X0172518Y0024588D02*
X0206081Y0024588D01*
X0206081Y0026187D02*
X0172518Y0026187D01*
X0172518Y0027785D02*
X0206081Y0027785D01*
X0206081Y0029384D02*
X0172518Y0029384D01*
X0172518Y0030982D02*
X0206081Y0030982D01*
X0206081Y0032581D02*
X0172518Y0032581D01*
X0172329Y0034179D02*
X0206271Y0034179D01*
X0206933Y0035778D02*
X0171667Y0035778D01*
X0170231Y0037376D02*
X0208369Y0037376D01*
X0212356Y0038975D02*
X0169512Y0038975D01*
X0169512Y0040573D02*
X0212356Y0040573D01*
X0212356Y0042172D02*
X0169512Y0042172D01*
X0169512Y0043770D02*
X0212356Y0043770D01*
X0212356Y0045369D02*
X0169512Y0045369D01*
X0169512Y0046967D02*
X0212356Y0046967D01*
X0212356Y0048566D02*
X0169512Y0048566D01*
X0169512Y0050164D02*
X0212356Y0050164D01*
X0212356Y0051763D02*
X0169512Y0051763D01*
X0169512Y0053361D02*
X0212356Y0053361D01*
X0209109Y0054960D02*
X0170791Y0054960D01*
X0172234Y0056558D02*
X0207665Y0056558D01*
X0207003Y0058157D02*
X0172896Y0058157D01*
X0173102Y0059755D02*
X0206798Y0059755D01*
X0206798Y0061354D02*
X0173102Y0061354D01*
X0173102Y0062952D02*
X0206798Y0062952D01*
X0206798Y0064551D02*
X0173102Y0064551D01*
X0173102Y0066149D02*
X0206798Y0066149D01*
X0206798Y0067748D02*
X0173102Y0067748D01*
X0173102Y0069346D02*
X0206798Y0069346D01*
X0206798Y0070945D02*
X0173102Y0070945D01*
X0172564Y0072543D02*
X0207335Y0072543D01*
X0208311Y0074142D02*
X0171588Y0074142D01*
X0169524Y0075740D02*
X0210375Y0075740D01*
X0216060Y0075740D02*
X0225965Y0075740D01*
X0223902Y0074142D02*
X0218123Y0074142D01*
X0219100Y0072543D02*
X0222926Y0072543D01*
X0222388Y0070945D02*
X0219637Y0070945D01*
X0219637Y0069346D02*
X0222388Y0069346D01*
X0222388Y0067748D02*
X0219637Y0067748D01*
X0219637Y0066149D02*
X0222388Y0066149D01*
X0222388Y0064551D02*
X0219637Y0064551D01*
X0219637Y0062952D02*
X0222388Y0062952D01*
X0222388Y0061354D02*
X0219637Y0061354D01*
X0219637Y0059755D02*
X0222388Y0059755D01*
X0222594Y0058157D02*
X0219431Y0058157D01*
X0218769Y0056558D02*
X0223256Y0056558D01*
X0224699Y0054960D02*
X0217326Y0054960D01*
X0214556Y0064950D02*
X0213217Y0064950D01*
X0214556Y0064950D02*
X0214556Y0029517D01*
X0212587Y0027548D01*
X0212431Y0027509D01*
X0218781Y0027785D02*
X0221681Y0027785D01*
X0221681Y0026187D02*
X0218781Y0026187D01*
X0218781Y0024588D02*
X0221681Y0024588D01*
X0221681Y0022990D02*
X0218781Y0022990D01*
X0218781Y0021391D02*
X0221681Y0021391D01*
X0222304Y0019793D02*
X0218159Y0019793D01*
X0217047Y0018194D02*
X0223416Y0018194D01*
X0221681Y0029384D02*
X0218781Y0029384D01*
X0218781Y0030982D02*
X0221681Y0030982D01*
X0221681Y0032581D02*
X0218781Y0032581D01*
X0218592Y0034179D02*
X0221871Y0034179D01*
X0222533Y0035778D02*
X0217930Y0035778D01*
X0216756Y0037376D02*
X0223969Y0037376D01*
X0167312Y0027548D02*
X0166169Y0027509D01*
X0167312Y0027548D02*
X0167312Y0064950D01*
X0166682Y0064950D01*
X0165343Y0064950D01*
X0165343Y0143690D01*
X0169280Y0147627D01*
X0169831Y0148296D01*
X0165831Y0147673D02*
X0163831Y0147673D01*
X0163831Y0149272D02*
X0165831Y0149272D01*
X0165831Y0150870D02*
X0163831Y0150870D01*
X0163831Y0152469D02*
X0165831Y0152469D01*
X0165831Y0154068D02*
X0163831Y0154068D01*
X0163262Y0155666D02*
X0166401Y0155666D01*
X0168477Y0157265D02*
X0161638Y0157265D01*
X0161155Y0158863D02*
X0172986Y0158863D01*
X0172986Y0157265D02*
X0171186Y0157265D01*
X0172986Y0160462D02*
X0159557Y0160462D01*
X0157958Y0162060D02*
X0172986Y0162060D01*
X0172986Y0163659D02*
X0156360Y0163659D01*
X0154761Y0165257D02*
X0172986Y0165257D01*
X0172986Y0166856D02*
X0153163Y0166856D01*
X0151795Y0168454D02*
X0172986Y0168454D01*
X0172986Y0170053D02*
X0151795Y0170053D01*
X0151795Y0171651D02*
X0172986Y0171651D01*
X0172986Y0173250D02*
X0153305Y0173250D01*
X0154164Y0174848D02*
X0172986Y0174848D01*
X0172986Y0176447D02*
X0153856Y0176447D01*
X0151564Y0175186D02*
X0149595Y0177154D01*
X0124005Y0177154D01*
X0124005Y0179123D01*
X0122036Y0181091D01*
X0122036Y0183060D01*
X0120619Y0184910D01*
X0122036Y0185028D01*
X0122036Y0190934D01*
X0129910Y0198808D01*
X0129910Y0202745D01*
X0129831Y0203729D01*
X0126119Y0205220D02*
X0123544Y0205220D01*
X0123831Y0204525D02*
X0123223Y0205995D01*
X0122097Y0207120D01*
X0120627Y0207729D01*
X0119036Y0207729D01*
X0117566Y0207120D01*
X0116440Y0205995D01*
X0115831Y0204525D01*
X0115831Y0197733D01*
X0116440Y0196263D01*
X0117566Y0195138D01*
X0119036Y0194529D01*
X0120627Y0194529D01*
X0122097Y0195138D01*
X0123223Y0196263D01*
X0123831Y0197733D01*
X0123831Y0204525D01*
X0123831Y0203621D02*
X0125831Y0203621D01*
X0125831Y0202023D02*
X0123831Y0202023D01*
X0123831Y0200424D02*
X0125831Y0200424D01*
X0125831Y0198826D02*
X0123831Y0198826D01*
X0123622Y0197227D02*
X0125218Y0197227D01*
X0123620Y0195629D02*
X0122588Y0195629D01*
X0122021Y0194030D02*
X0112425Y0194030D01*
X0112425Y0192432D02*
X0120423Y0192432D01*
X0118285Y0190833D02*
X0112953Y0190833D01*
X0114234Y0189235D02*
X0117004Y0189235D01*
X0116619Y0187636D02*
X0114619Y0187636D01*
X0114619Y0186038D02*
X0116619Y0186038D01*
X0116619Y0184439D02*
X0114619Y0184439D01*
X0114619Y0182841D02*
X0116619Y0182841D01*
X0116732Y0181242D02*
X0114506Y0181242D01*
X0114394Y0179644D02*
X0117629Y0179644D01*
X0114394Y0178045D02*
X0121805Y0178045D01*
X0121805Y0176447D02*
X0114394Y0176447D01*
X0112194Y0179123D02*
X0112194Y0173217D01*
X0125973Y0173217D01*
X0128573Y0173250D02*
X0134705Y0173250D01*
X0136304Y0174848D02*
X0128019Y0174848D01*
X0128084Y0171651D02*
X0133107Y0171651D01*
X0137784Y0173217D02*
X0149595Y0173217D01*
X0149595Y0167312D01*
X0159438Y0157469D01*
X0159438Y0149595D01*
X0159831Y0148296D01*
X0155831Y0147673D02*
X0153831Y0147673D01*
X0153831Y0149272D02*
X0155831Y0149272D01*
X0155831Y0150870D02*
X0153831Y0150870D01*
X0153831Y0152469D02*
X0155831Y0152469D01*
X0155831Y0154068D02*
X0153831Y0154068D01*
X0153262Y0155666D02*
X0156401Y0155666D01*
X0156531Y0157265D02*
X0151186Y0157265D01*
X0148477Y0157265D02*
X0141186Y0157265D01*
X0140627Y0157496D02*
X0139036Y0157496D01*
X0137566Y0156887D01*
X0136440Y0155762D01*
X0135831Y0154292D01*
X0135831Y0147500D01*
X0136440Y0146030D01*
X0137566Y0144905D01*
X0139036Y0144296D01*
X0140627Y0144296D01*
X0142097Y0144905D01*
X0143223Y0146030D01*
X0143831Y0147500D01*
X0143831Y0154292D01*
X0143223Y0155762D01*
X0142097Y0156887D01*
X0140627Y0157496D01*
X0138477Y0157265D02*
X0131186Y0157265D01*
X0132395Y0158863D02*
X0137189Y0158863D01*
X0136065Y0160462D02*
X0133519Y0160462D01*
X0133792Y0162060D02*
X0135792Y0162060D01*
X0135792Y0163659D02*
X0133792Y0163659D01*
X0133792Y0165257D02*
X0135792Y0165257D01*
X0135792Y0166856D02*
X0134534Y0166856D01*
X0129910Y0165343D02*
X0129792Y0164517D01*
X0129910Y0165343D02*
X0137784Y0173217D01*
X0142513Y0170053D02*
X0147395Y0170053D01*
X0147395Y0168454D02*
X0143568Y0168454D01*
X0143792Y0166856D02*
X0147395Y0166856D01*
X0148539Y0165257D02*
X0143792Y0165257D01*
X0143792Y0163659D02*
X0150137Y0163659D01*
X0151736Y0162060D02*
X0143792Y0162060D01*
X0143519Y0160462D02*
X0153334Y0160462D01*
X0154933Y0158863D02*
X0142395Y0158863D01*
X0143262Y0155666D02*
X0146401Y0155666D01*
X0145831Y0154068D02*
X0143831Y0154068D01*
X0143831Y0152469D02*
X0145831Y0152469D01*
X0145831Y0150870D02*
X0143831Y0150870D01*
X0143831Y0149272D02*
X0145831Y0149272D01*
X0145831Y0147673D02*
X0143831Y0147673D01*
X0143241Y0146075D02*
X0144932Y0146075D01*
X0143458Y0144476D02*
X0141063Y0144476D01*
X0138600Y0144476D02*
X0136047Y0144476D01*
X0136047Y0142878D02*
X0143458Y0142878D01*
X0143458Y0141279D02*
X0136047Y0141279D01*
X0136047Y0139681D02*
X0143458Y0139681D01*
X0143458Y0138082D02*
X0136047Y0138082D01*
X0136047Y0136484D02*
X0143458Y0136484D01*
X0143458Y0134885D02*
X0136047Y0134885D01*
X0136047Y0133287D02*
X0143458Y0133287D01*
X0143458Y0131688D02*
X0136047Y0131688D01*
X0136047Y0130090D02*
X0143458Y0130090D01*
X0143458Y0128491D02*
X0136047Y0128491D01*
X0136047Y0126893D02*
X0143458Y0126893D01*
X0143458Y0125294D02*
X0136047Y0125294D01*
X0136047Y0123696D02*
X0143458Y0123696D01*
X0143458Y0122097D02*
X0141107Y0122097D01*
X0138556Y0122097D02*
X0136047Y0122097D01*
X0136047Y0120499D02*
X0136414Y0120499D01*
X0143249Y0120499D02*
X0143458Y0120499D01*
X0147858Y0122097D02*
X0148556Y0122097D01*
X0147858Y0123696D02*
X0152081Y0123696D01*
X0153679Y0125294D02*
X0147858Y0125294D01*
X0147858Y0126893D02*
X0155278Y0126893D01*
X0156876Y0128491D02*
X0147858Y0128491D01*
X0147858Y0130090D02*
X0158475Y0130090D01*
X0159507Y0131688D02*
X0147858Y0131688D01*
X0147858Y0133287D02*
X0163143Y0133287D01*
X0163143Y0134885D02*
X0147858Y0134885D01*
X0147858Y0136484D02*
X0163143Y0136484D01*
X0163143Y0138082D02*
X0147858Y0138082D01*
X0147858Y0139681D02*
X0163143Y0139681D01*
X0163143Y0141279D02*
X0147858Y0141279D01*
X0147958Y0142878D02*
X0163143Y0142878D01*
X0163143Y0144476D02*
X0161063Y0144476D01*
X0158600Y0144476D02*
X0151063Y0144476D01*
X0153241Y0146075D02*
X0156422Y0146075D01*
X0163241Y0146075D02*
X0164617Y0146075D01*
X0175186Y0135816D02*
X0183060Y0127942D01*
X0175186Y0120068D01*
X0175186Y0108257D01*
X0202745Y0080698D01*
X0199795Y0080536D02*
X0167543Y0080536D01*
X0167543Y0082134D02*
X0198197Y0082134D01*
X0196598Y0083733D02*
X0167543Y0083733D01*
X0167543Y0085332D02*
X0195000Y0085332D01*
X0193401Y0086930D02*
X0167543Y0086930D01*
X0167543Y0088529D02*
X0191803Y0088529D01*
X0190204Y0090127D02*
X0167543Y0090127D01*
X0167543Y0091726D02*
X0188606Y0091726D01*
X0187007Y0093324D02*
X0167543Y0093324D01*
X0167543Y0094923D02*
X0185409Y0094923D01*
X0183810Y0096521D02*
X0167543Y0096521D01*
X0167543Y0098120D02*
X0182212Y0098120D01*
X0180613Y0099718D02*
X0167543Y0099718D01*
X0167543Y0101317D02*
X0179015Y0101317D01*
X0177416Y0102915D02*
X0167543Y0102915D01*
X0167543Y0104514D02*
X0175818Y0104514D01*
X0174219Y0106112D02*
X0167543Y0106112D01*
X0167543Y0107711D02*
X0172986Y0107711D01*
X0172986Y0109309D02*
X0171142Y0109309D01*
X0168521Y0109309D02*
X0167543Y0109309D01*
X0163143Y0109309D02*
X0161142Y0109309D01*
X0163143Y0107711D02*
X0147858Y0107711D01*
X0147858Y0109309D02*
X0148521Y0109309D01*
X0151142Y0109309D02*
X0158521Y0109309D01*
X0156408Y0110908D02*
X0153255Y0110908D01*
X0153831Y0112506D02*
X0155831Y0112506D01*
X0155831Y0114105D02*
X0153831Y0114105D01*
X0153831Y0115703D02*
X0155831Y0115703D01*
X0155831Y0117302D02*
X0153831Y0117302D01*
X0153831Y0118900D02*
X0155831Y0118900D01*
X0156414Y0120499D02*
X0155106Y0120499D01*
X0156705Y0122097D02*
X0158556Y0122097D01*
X0158303Y0123696D02*
X0163143Y0123696D01*
X0163143Y0125294D02*
X0159902Y0125294D01*
X0161500Y0126893D02*
X0163143Y0126893D01*
X0161406Y0129910D02*
X0151564Y0120068D01*
X0149831Y0118296D01*
X0143458Y0110908D02*
X0143255Y0110908D01*
X0143458Y0109309D02*
X0141142Y0109309D01*
X0138521Y0109309D02*
X0136047Y0109309D01*
X0136047Y0107711D02*
X0143458Y0107711D01*
X0143458Y0106112D02*
X0136047Y0106112D01*
X0136047Y0104514D02*
X0137483Y0104514D01*
X0140920Y0104514D02*
X0143458Y0104514D01*
X0143458Y0102915D02*
X0142695Y0102915D01*
X0143202Y0101317D02*
X0143458Y0101317D01*
X0143458Y0099718D02*
X0143202Y0099718D01*
X0143202Y0098120D02*
X0143458Y0098120D01*
X0143458Y0096521D02*
X0143202Y0096521D01*
X0143202Y0094923D02*
X0143458Y0094923D01*
X0143458Y0093324D02*
X0142486Y0093324D01*
X0143458Y0091726D02*
X0140068Y0091726D01*
X0138335Y0091726D02*
X0136047Y0091726D01*
X0136047Y0090127D02*
X0143458Y0090127D01*
X0143458Y0088529D02*
X0136047Y0088529D01*
X0136047Y0086930D02*
X0143458Y0086930D01*
X0143458Y0085332D02*
X0136047Y0085332D01*
X0136047Y0083733D02*
X0143458Y0083733D01*
X0143458Y0082134D02*
X0136047Y0082134D01*
X0134828Y0080536D02*
X0143458Y0080536D01*
X0143458Y0078937D02*
X0133230Y0078937D01*
X0131631Y0077339D02*
X0143458Y0077339D01*
X0143567Y0075740D02*
X0138343Y0075740D01*
X0139137Y0075412D02*
X0136778Y0076389D01*
X0134224Y0076389D01*
X0131864Y0075412D01*
X0130058Y0073606D01*
X0129081Y0071246D01*
X0129081Y0058653D01*
X0130058Y0056293D01*
X0131647Y0054705D01*
X0131647Y0037956D01*
X0131372Y0037842D01*
X0129585Y0036056D01*
X0128619Y0033722D01*
X0128619Y0021296D01*
X0129585Y0018962D01*
X0131372Y0017175D01*
X0133705Y0016209D01*
X0136232Y0016209D01*
X0138565Y0017175D01*
X0140352Y0018962D01*
X0141318Y0021296D01*
X0141318Y0033722D01*
X0140352Y0036056D01*
X0138565Y0037842D01*
X0136232Y0038809D01*
X0136047Y0038809D01*
X0136047Y0053510D01*
X0136778Y0053510D01*
X0139137Y0054488D01*
X0140943Y0056293D01*
X0141920Y0058653D01*
X0141920Y0071246D01*
X0140943Y0073606D01*
X0139137Y0075412D01*
X0140407Y0074142D02*
X0145166Y0074142D01*
X0145209Y0072543D02*
X0141383Y0072543D01*
X0141920Y0070945D02*
X0144672Y0070945D01*
X0144672Y0069346D02*
X0141920Y0069346D01*
X0141920Y0067748D02*
X0144672Y0067748D01*
X0144672Y0066149D02*
X0141920Y0066149D01*
X0141920Y0064551D02*
X0144672Y0064551D01*
X0144672Y0062952D02*
X0141920Y0062952D01*
X0141920Y0061354D02*
X0144672Y0061354D01*
X0144672Y0059755D02*
X0141920Y0059755D01*
X0141715Y0058157D02*
X0144877Y0058157D01*
X0145539Y0056558D02*
X0141053Y0056558D01*
X0139609Y0054960D02*
X0146983Y0054960D01*
X0147395Y0053361D02*
X0136047Y0053361D01*
X0136047Y0051763D02*
X0147395Y0051763D01*
X0147395Y0050164D02*
X0136047Y0050164D01*
X0136047Y0048566D02*
X0147395Y0048566D01*
X0147395Y0046967D02*
X0136047Y0046967D01*
X0136047Y0045369D02*
X0147395Y0045369D01*
X0147395Y0043770D02*
X0136047Y0043770D01*
X0136047Y0042172D02*
X0147395Y0042172D01*
X0147395Y0040573D02*
X0136047Y0040573D01*
X0136047Y0038975D02*
X0147395Y0038975D01*
X0146506Y0037376D02*
X0139031Y0037376D01*
X0140467Y0035778D02*
X0145070Y0035778D01*
X0144408Y0034179D02*
X0141129Y0034179D01*
X0141318Y0032581D02*
X0144219Y0032581D01*
X0144219Y0030982D02*
X0141318Y0030982D01*
X0141318Y0029384D02*
X0144219Y0029384D01*
X0144219Y0027785D02*
X0141318Y0027785D01*
X0141318Y0026187D02*
X0144219Y0026187D01*
X0144219Y0024588D02*
X0141318Y0024588D01*
X0141318Y0022990D02*
X0144219Y0022990D01*
X0144219Y0021391D02*
X0141318Y0021391D01*
X0140696Y0019793D02*
X0144841Y0019793D01*
X0145953Y0018194D02*
X0139584Y0018194D01*
X0137166Y0016596D02*
X0148371Y0016596D01*
X0152766Y0016596D02*
X0163971Y0016596D01*
X0161553Y0018194D02*
X0155184Y0018194D01*
X0156296Y0019793D02*
X0160441Y0019793D01*
X0159819Y0021391D02*
X0156918Y0021391D01*
X0156918Y0022990D02*
X0159819Y0022990D01*
X0159819Y0024588D02*
X0156918Y0024588D01*
X0156918Y0026187D02*
X0159819Y0026187D01*
X0159819Y0027785D02*
X0156918Y0027785D01*
X0156918Y0029384D02*
X0159819Y0029384D01*
X0159819Y0030982D02*
X0156918Y0030982D01*
X0156918Y0032581D02*
X0159819Y0032581D01*
X0160008Y0034179D02*
X0156729Y0034179D01*
X0156067Y0035778D02*
X0160670Y0035778D01*
X0162106Y0037376D02*
X0154631Y0037376D01*
X0151795Y0038975D02*
X0165112Y0038975D01*
X0165112Y0040573D02*
X0151795Y0040573D01*
X0151795Y0042172D02*
X0165112Y0042172D01*
X0165112Y0043770D02*
X0151795Y0043770D01*
X0151795Y0045369D02*
X0165112Y0045369D01*
X0165112Y0046967D02*
X0151795Y0046967D01*
X0151795Y0048566D02*
X0165112Y0048566D01*
X0165112Y0050164D02*
X0151795Y0050164D01*
X0151795Y0051763D02*
X0165112Y0051763D01*
X0165112Y0053361D02*
X0151795Y0053361D01*
X0155200Y0054960D02*
X0162573Y0054960D01*
X0161130Y0056558D02*
X0156643Y0056558D01*
X0157305Y0058157D02*
X0160468Y0058157D01*
X0160262Y0059755D02*
X0157511Y0059755D01*
X0157511Y0061354D02*
X0160262Y0061354D01*
X0160262Y0062952D02*
X0157511Y0062952D01*
X0157511Y0064551D02*
X0160262Y0064551D01*
X0160262Y0066149D02*
X0157511Y0066149D01*
X0157511Y0067748D02*
X0160262Y0067748D01*
X0160262Y0069346D02*
X0157511Y0069346D01*
X0157511Y0070945D02*
X0160262Y0070945D01*
X0160800Y0072543D02*
X0156974Y0072543D01*
X0155997Y0074142D02*
X0161776Y0074142D01*
X0163143Y0075740D02*
X0153934Y0075740D01*
X0149595Y0072824D02*
X0149595Y0064950D01*
X0151091Y0064950D01*
X0149595Y0064950D02*
X0149595Y0027548D01*
X0150569Y0027509D01*
X0134969Y0027509D02*
X0133847Y0027548D01*
X0133847Y0064950D01*
X0135501Y0064950D01*
X0129081Y0064551D02*
X0126330Y0064551D01*
X0126330Y0066149D02*
X0129081Y0066149D01*
X0129081Y0067748D02*
X0126330Y0067748D01*
X0126330Y0069346D02*
X0129081Y0069346D01*
X0129081Y0070945D02*
X0126330Y0070945D01*
X0126836Y0072543D02*
X0129618Y0072543D01*
X0130595Y0074142D02*
X0128434Y0074142D01*
X0130033Y0075740D02*
X0132658Y0075740D01*
X0128606Y0080536D02*
X0106520Y0080536D01*
X0106520Y0082134D02*
X0130204Y0082134D01*
X0131647Y0083733D02*
X0106520Y0083733D01*
X0106520Y0085332D02*
X0131647Y0085332D01*
X0131647Y0086930D02*
X0106520Y0086930D01*
X0106520Y0088529D02*
X0131647Y0088529D01*
X0131647Y0090127D02*
X0106520Y0090127D01*
X0106520Y0091726D02*
X0108335Y0091726D01*
X0110068Y0091726D02*
X0118335Y0091726D01*
X0120068Y0091726D02*
X0128335Y0091726D01*
X0130068Y0091726D02*
X0131647Y0091726D01*
X0125917Y0093324D02*
X0122486Y0093324D01*
X0123202Y0094923D02*
X0125202Y0094923D01*
X0125202Y0096521D02*
X0123202Y0096521D01*
X0123202Y0098120D02*
X0125202Y0098120D01*
X0125202Y0099718D02*
X0123202Y0099718D01*
X0123202Y0101317D02*
X0125202Y0101317D01*
X0125708Y0102915D02*
X0122695Y0102915D01*
X0123373Y0104514D02*
X0127483Y0104514D01*
X0124971Y0106112D02*
X0131647Y0106112D01*
X0131647Y0104514D02*
X0130920Y0104514D01*
X0131647Y0107711D02*
X0126570Y0107711D01*
X0128168Y0109309D02*
X0128521Y0109309D01*
X0131142Y0109309D02*
X0131647Y0109309D01*
X0136047Y0110908D02*
X0136408Y0110908D01*
X0129910Y0114162D02*
X0129910Y0118099D01*
X0129831Y0118296D01*
X0129910Y0120068D01*
X0129910Y0129910D01*
X0128011Y0131688D02*
X0119998Y0131688D01*
X0120699Y0130090D02*
X0127310Y0130090D01*
X0127684Y0128491D02*
X0120326Y0128491D01*
X0118099Y0129910D02*
X0110225Y0122036D01*
X0110225Y0120068D01*
X0109831Y0118296D01*
X0110225Y0118099D01*
X0110225Y0098414D01*
X0109202Y0098296D01*
X0113202Y0098120D02*
X0115202Y0098120D01*
X0115202Y0099718D02*
X0113202Y0099718D01*
X0113202Y0101317D02*
X0115202Y0101317D01*
X0115708Y0102915D02*
X0112695Y0102915D01*
X0112425Y0104514D02*
X0117483Y0104514D01*
X0118749Y0106112D02*
X0112425Y0106112D01*
X0112425Y0107711D02*
X0120347Y0107711D01*
X0120627Y0109096D02*
X0122097Y0109705D01*
X0123223Y0110830D01*
X0123831Y0112300D01*
X0123831Y0119092D01*
X0123223Y0120562D01*
X0122097Y0121687D01*
X0120627Y0122296D01*
X0119036Y0122296D01*
X0117566Y0121687D01*
X0116440Y0120562D01*
X0115831Y0119092D01*
X0115831Y0112300D01*
X0116440Y0110830D01*
X0117566Y0109705D01*
X0119036Y0109096D01*
X0120627Y0109096D01*
X0121142Y0109309D02*
X0121946Y0109309D01*
X0123255Y0110908D02*
X0123544Y0110908D01*
X0123831Y0112506D02*
X0125143Y0112506D01*
X0125831Y0114105D02*
X0123831Y0114105D01*
X0123831Y0115703D02*
X0125831Y0115703D01*
X0125831Y0117302D02*
X0123831Y0117302D01*
X0123831Y0118900D02*
X0125831Y0118900D01*
X0126414Y0120499D02*
X0123249Y0120499D01*
X0121107Y0122097D02*
X0127710Y0122097D01*
X0127710Y0123696D02*
X0114996Y0123696D01*
X0116595Y0125294D02*
X0127710Y0125294D01*
X0127710Y0126893D02*
X0118193Y0126893D01*
X0115168Y0130090D02*
X0104551Y0130090D01*
X0104551Y0131688D02*
X0116200Y0131688D01*
X0113569Y0128491D02*
X0104551Y0128491D01*
X0104551Y0126893D02*
X0111971Y0126893D01*
X0110372Y0125294D02*
X0104551Y0125294D01*
X0104551Y0123696D02*
X0108773Y0123696D01*
X0108025Y0122097D02*
X0104551Y0122097D01*
X0104551Y0120499D02*
X0106414Y0120499D01*
X0105831Y0118900D02*
X0104551Y0118900D01*
X0104551Y0117302D02*
X0105831Y0117302D01*
X0105831Y0115703D02*
X0104551Y0115703D01*
X0104551Y0114105D02*
X0105831Y0114105D01*
X0105831Y0112506D02*
X0104551Y0112506D01*
X0104551Y0110908D02*
X0106408Y0110908D01*
X0108025Y0109309D02*
X0104551Y0109309D01*
X0105231Y0108488D02*
X0105231Y0108488D01*
X0106008Y0107711D02*
X0108025Y0107711D01*
X0108025Y0106112D02*
X0106520Y0106112D01*
X0106520Y0104514D02*
X0107483Y0104514D01*
X0104320Y0106288D02*
X0102351Y0108257D01*
X0102351Y0149595D01*
X0108257Y0149595D01*
X0109831Y0148296D01*
X0113831Y0147673D02*
X0115831Y0147673D01*
X0115831Y0147500D02*
X0116440Y0146030D01*
X0117566Y0144905D01*
X0119036Y0144296D01*
X0120627Y0144296D01*
X0122097Y0144905D01*
X0123223Y0146030D01*
X0123831Y0147500D01*
X0123831Y0154292D01*
X0123223Y0155762D01*
X0122097Y0156887D01*
X0120627Y0157496D01*
X0119036Y0157496D01*
X0117566Y0156887D01*
X0116440Y0155762D01*
X0115831Y0154292D01*
X0115831Y0147500D01*
X0116422Y0146075D02*
X0113241Y0146075D01*
X0111063Y0144476D02*
X0118600Y0144476D01*
X0121063Y0144476D02*
X0128600Y0144476D01*
X0126422Y0146075D02*
X0123241Y0146075D01*
X0123831Y0147673D02*
X0125831Y0147673D01*
X0125831Y0149272D02*
X0123831Y0149272D01*
X0123831Y0150870D02*
X0125831Y0150870D01*
X0125831Y0152469D02*
X0123831Y0152469D01*
X0123831Y0154068D02*
X0125831Y0154068D01*
X0126401Y0155666D02*
X0123262Y0155666D01*
X0121186Y0157265D02*
X0128477Y0157265D01*
X0127189Y0158863D02*
X0122395Y0158863D01*
X0123519Y0160462D02*
X0126065Y0160462D01*
X0125792Y0162060D02*
X0123792Y0162060D01*
X0123792Y0163659D02*
X0125792Y0163659D01*
X0125792Y0165257D02*
X0123792Y0165257D01*
X0123792Y0166856D02*
X0125792Y0166856D01*
X0126017Y0168454D02*
X0123568Y0168454D01*
X0122513Y0170053D02*
X0127071Y0170053D01*
X0117071Y0170053D02*
X0112513Y0170053D01*
X0112058Y0170508D02*
X0110588Y0171117D01*
X0108996Y0171117D01*
X0107526Y0170508D01*
X0106401Y0169382D01*
X0105792Y0167912D01*
X0105792Y0161121D01*
X0106401Y0159651D01*
X0107526Y0158525D01*
X0108996Y0157917D01*
X0110588Y0157917D01*
X0112058Y0158525D01*
X0113183Y0159651D01*
X0113792Y0161121D01*
X0113792Y0167912D01*
X0113183Y0169382D01*
X0112058Y0170508D01*
X0110649Y0171651D02*
X0055739Y0171651D01*
X0055739Y0170053D02*
X0057071Y0170053D01*
X0056017Y0168454D02*
X0055739Y0168454D01*
X0055739Y0173250D02*
X0055900Y0173250D01*
X0057076Y0175186D02*
X0057076Y0179123D01*
X0059451Y0178063D02*
X0059589Y0178019D01*
X0060273Y0177910D01*
X0060619Y0177910D01*
X0060965Y0177910D01*
X0061649Y0178019D01*
X0062308Y0178233D01*
X0062925Y0178547D01*
X0063485Y0178954D01*
X0063975Y0179444D01*
X0064382Y0180004D01*
X0064697Y0180621D01*
X0064718Y0180688D01*
X0064718Y0180034D01*
X0062070Y0177386D01*
X0059276Y0177386D01*
X0059276Y0177646D01*
X0059280Y0177650D01*
X0059451Y0178063D01*
X0059443Y0178045D02*
X0059507Y0178045D01*
X0060619Y0178045D02*
X0060619Y0178045D01*
X0060619Y0177910D02*
X0060619Y0184910D01*
X0060619Y0184910D01*
X0060619Y0184910D01*
X0065019Y0184910D01*
X0065019Y0182303D01*
X0066007Y0183291D01*
X0066619Y0183903D01*
X0066619Y0188306D01*
X0067228Y0189776D01*
X0068154Y0190702D01*
X0067975Y0190702D01*
X0066687Y0191991D01*
X0062818Y0195859D01*
X0062097Y0195138D01*
X0060627Y0194529D01*
X0059036Y0194529D01*
X0057566Y0195138D01*
X0056440Y0196263D01*
X0055831Y0197733D01*
X0055831Y0204525D01*
X0056440Y0205995D01*
X0057566Y0207120D01*
X0059036Y0207729D01*
X0060627Y0207729D01*
X0062097Y0207120D01*
X0063223Y0205995D01*
X0063831Y0204525D01*
X0063831Y0203037D01*
X0065831Y0201037D01*
X0065831Y0204525D01*
X0066440Y0205995D01*
X0067566Y0207120D01*
X0069036Y0207729D01*
X0070627Y0207729D01*
X0072097Y0207120D01*
X0073223Y0205995D01*
X0073831Y0204525D01*
X0073831Y0197733D01*
X0073223Y0196263D01*
X0072097Y0195138D01*
X0072011Y0195102D01*
X0077652Y0195102D01*
X0077566Y0195138D01*
X0076440Y0196263D01*
X0075831Y0197733D01*
X0075831Y0204525D01*
X0076440Y0205995D01*
X0077566Y0207120D01*
X0079036Y0207729D01*
X0080602Y0207729D01*
X0084403Y0211530D01*
X0085692Y0212819D01*
X0099471Y0212819D01*
X0107625Y0220973D01*
X0107625Y0220979D01*
X0108021Y0221934D01*
X0108285Y0222198D01*
X0067975Y0222198D01*
X0066687Y0223487D01*
X0060445Y0229729D01*
X0059036Y0229729D01*
X0057566Y0230338D01*
X0056440Y0231463D01*
X0055831Y0232933D01*
X0055831Y0235791D01*
X0053831Y0233791D01*
X0053831Y0232933D01*
X0053223Y0231463D01*
X0052097Y0230338D01*
X0050627Y0229729D01*
X0049036Y0229729D01*
X0047566Y0230338D01*
X0047286Y0230617D01*
X0046737Y0230068D01*
X0045896Y0229227D01*
X0045896Y0207759D01*
X0047050Y0206605D01*
X0047566Y0207120D01*
X0049036Y0207729D01*
X0050627Y0207729D01*
X0052097Y0207120D01*
X0053223Y0205995D01*
X0053831Y0204525D01*
X0053831Y0197733D01*
X0053223Y0196263D01*
X0052097Y0195138D01*
X0050627Y0194529D01*
X0049036Y0194529D01*
X0047865Y0195014D01*
X0047865Y0193979D01*
X0055343Y0186501D01*
X0055739Y0185546D01*
X0055739Y0184511D01*
X0055739Y0181383D01*
X0056276Y0181606D01*
X0056219Y0181964D01*
X0056219Y0184910D01*
X0060619Y0184910D01*
X0060619Y0177910D01*
X0061731Y0178045D02*
X0062729Y0178045D01*
X0064120Y0179644D02*
X0064328Y0179644D01*
X0066918Y0179123D02*
X0062981Y0175186D01*
X0057076Y0175186D01*
X0060619Y0179644D02*
X0060619Y0179644D01*
X0060619Y0181242D02*
X0060619Y0181242D01*
X0060619Y0182841D02*
X0060619Y0182841D01*
X0060619Y0184439D02*
X0060619Y0184439D01*
X0060619Y0184910D02*
X0060619Y0184910D01*
X0065019Y0184910D01*
X0065019Y0187857D01*
X0064911Y0188541D01*
X0064697Y0189199D01*
X0064382Y0189816D01*
X0063975Y0190377D01*
X0063485Y0190866D01*
X0062925Y0191273D01*
X0062308Y0191588D01*
X0061649Y0191802D01*
X0060965Y0191910D01*
X0060619Y0191910D01*
X0060619Y0184910D01*
X0056219Y0184910D01*
X0056219Y0187857D01*
X0056327Y0188541D01*
X0056541Y0189199D01*
X0056856Y0189816D01*
X0057263Y0190377D01*
X0057752Y0190866D01*
X0058313Y0191273D01*
X0058930Y0191588D01*
X0059589Y0191802D01*
X0060273Y0191910D01*
X0060619Y0191910D01*
X0060619Y0184910D01*
X0060619Y0184910D01*
X0060619Y0186038D02*
X0060619Y0186038D01*
X0060619Y0187636D02*
X0060619Y0187636D01*
X0060619Y0189235D02*
X0060619Y0189235D01*
X0060619Y0190833D02*
X0060619Y0190833D01*
X0063518Y0190833D02*
X0067844Y0190833D01*
X0067004Y0189235D02*
X0064678Y0189235D01*
X0065019Y0187636D02*
X0066619Y0187636D01*
X0066619Y0186038D02*
X0065019Y0186038D01*
X0065019Y0184439D02*
X0066619Y0184439D01*
X0065556Y0182841D02*
X0065019Y0182841D01*
X0066918Y0181091D02*
X0066918Y0179123D01*
X0066918Y0181091D02*
X0068887Y0183060D01*
X0070619Y0184910D01*
X0074619Y0184439D02*
X0076619Y0184439D01*
X0076619Y0182841D02*
X0074619Y0182841D01*
X0074506Y0181242D02*
X0076732Y0181242D01*
X0077629Y0179644D02*
X0073609Y0179644D01*
X0068952Y0178045D02*
X0109994Y0178045D01*
X0109994Y0176447D02*
X0067353Y0176447D01*
X0065755Y0174848D02*
X0109994Y0174848D01*
X0109994Y0173250D02*
X0064156Y0173250D01*
X0062513Y0170053D02*
X0067071Y0170053D01*
X0067526Y0170508D02*
X0066401Y0169382D01*
X0065792Y0167912D01*
X0065792Y0161121D01*
X0066401Y0159651D01*
X0067526Y0158525D01*
X0068996Y0157917D01*
X0070588Y0157917D01*
X0072058Y0158525D01*
X0073183Y0159651D01*
X0073792Y0161121D01*
X0073792Y0167912D01*
X0073183Y0169382D01*
X0072058Y0170508D01*
X0070588Y0171117D01*
X0068996Y0171117D01*
X0067526Y0170508D01*
X0066017Y0168454D02*
X0063568Y0168454D01*
X0063792Y0166856D02*
X0065792Y0166856D01*
X0065792Y0165257D02*
X0063792Y0165257D01*
X0063792Y0163659D02*
X0065792Y0163659D01*
X0065792Y0162060D02*
X0063792Y0162060D01*
X0063519Y0160462D02*
X0066065Y0160462D01*
X0067189Y0158863D02*
X0062395Y0158863D01*
X0061186Y0157265D02*
X0068477Y0157265D01*
X0069036Y0157496D02*
X0067566Y0156887D01*
X0066440Y0155762D01*
X0065831Y0154292D01*
X0065831Y0147500D01*
X0066440Y0146030D01*
X0067566Y0144905D01*
X0069036Y0144296D01*
X0070627Y0144296D01*
X0072097Y0144905D01*
X0073223Y0146030D01*
X0073831Y0147500D01*
X0073831Y0154292D01*
X0073223Y0155762D01*
X0072097Y0156887D01*
X0070627Y0157496D01*
X0069036Y0157496D01*
X0071186Y0157265D02*
X0078477Y0157265D01*
X0078996Y0157917D02*
X0080588Y0157917D01*
X0082058Y0158525D01*
X0083183Y0159651D01*
X0083792Y0161121D01*
X0083792Y0167912D01*
X0083183Y0169382D01*
X0082058Y0170508D01*
X0080588Y0171117D01*
X0078996Y0171117D01*
X0077526Y0170508D01*
X0076401Y0169382D01*
X0075792Y0167912D01*
X0075792Y0161121D01*
X0076401Y0159651D01*
X0077526Y0158525D01*
X0078996Y0157917D01*
X0077189Y0158863D02*
X0072395Y0158863D01*
X0073519Y0160462D02*
X0076065Y0160462D01*
X0075792Y0162060D02*
X0073792Y0162060D01*
X0073792Y0163659D02*
X0075792Y0163659D01*
X0075792Y0165257D02*
X0073792Y0165257D01*
X0073792Y0166856D02*
X0075792Y0166856D01*
X0076017Y0168454D02*
X0073568Y0168454D01*
X0072513Y0170053D02*
X0077071Y0170053D01*
X0082513Y0170053D02*
X0087071Y0170053D01*
X0087526Y0170508D02*
X0086401Y0169382D01*
X0085792Y0167912D01*
X0085792Y0161121D01*
X0086401Y0159651D01*
X0087526Y0158525D01*
X0088996Y0157917D01*
X0090588Y0157917D01*
X0092058Y0158525D01*
X0093183Y0159651D01*
X0093792Y0161121D01*
X0093792Y0167912D01*
X0093183Y0169382D01*
X0092058Y0170508D01*
X0090588Y0171117D01*
X0088996Y0171117D01*
X0087526Y0170508D01*
X0086017Y0168454D02*
X0083568Y0168454D01*
X0083792Y0166856D02*
X0085792Y0166856D01*
X0085792Y0165257D02*
X0083792Y0165257D01*
X0083792Y0163659D02*
X0085792Y0163659D01*
X0085792Y0162060D02*
X0083792Y0162060D01*
X0083519Y0160462D02*
X0086065Y0160462D01*
X0087189Y0158863D02*
X0082395Y0158863D01*
X0081186Y0157265D02*
X0088477Y0157265D01*
X0089036Y0157496D02*
X0087566Y0156887D01*
X0086440Y0155762D01*
X0085831Y0154292D01*
X0085831Y0147500D01*
X0086440Y0146030D01*
X0087566Y0144905D01*
X0089036Y0144296D01*
X0090627Y0144296D01*
X0092097Y0144905D01*
X0093223Y0146030D01*
X0093831Y0147500D01*
X0093831Y0149775D01*
X0099325Y0155269D01*
X0100614Y0156558D01*
X0100614Y0157927D01*
X0102058Y0158525D01*
X0103183Y0159651D01*
X0103792Y0161121D01*
X0103792Y0167912D01*
X0103183Y0169382D01*
X0102058Y0170508D01*
X0100588Y0171117D01*
X0098996Y0171117D01*
X0097526Y0170508D01*
X0096401Y0169382D01*
X0095792Y0167912D01*
X0095792Y0161121D01*
X0096214Y0160102D01*
X0096214Y0158381D01*
X0093332Y0155498D01*
X0093223Y0155762D01*
X0092097Y0156887D01*
X0090627Y0157496D01*
X0089036Y0157496D01*
X0091186Y0157265D02*
X0095098Y0157265D01*
X0096214Y0158863D02*
X0092395Y0158863D01*
X0093519Y0160462D02*
X0096065Y0160462D01*
X0095792Y0162060D02*
X0093792Y0162060D01*
X0093792Y0163659D02*
X0095792Y0163659D01*
X0095792Y0165257D02*
X0093792Y0165257D01*
X0093792Y0166856D02*
X0095792Y0166856D01*
X0096017Y0168454D02*
X0093568Y0168454D01*
X0092513Y0170053D02*
X0097071Y0170053D01*
X0102513Y0170053D02*
X0107071Y0170053D01*
X0106017Y0168454D02*
X0103568Y0168454D01*
X0103792Y0166856D02*
X0105792Y0166856D01*
X0105792Y0165257D02*
X0103792Y0165257D01*
X0103792Y0163659D02*
X0105792Y0163659D01*
X0105792Y0162060D02*
X0103792Y0162060D01*
X0103519Y0160462D02*
X0106065Y0160462D01*
X0107189Y0158863D02*
X0102395Y0158863D01*
X0100614Y0157265D02*
X0108477Y0157265D01*
X0106401Y0155666D02*
X0099722Y0155666D01*
X0098414Y0157469D02*
X0098414Y0163375D01*
X0099792Y0164517D01*
X0098414Y0157469D02*
X0090540Y0149595D01*
X0089831Y0148296D01*
X0085831Y0147673D02*
X0083831Y0147673D01*
X0083831Y0149272D02*
X0085831Y0149272D01*
X0085831Y0150870D02*
X0083831Y0150870D01*
X0083831Y0152469D02*
X0085831Y0152469D01*
X0085831Y0154068D02*
X0083831Y0154068D01*
X0083262Y0155666D02*
X0086401Y0155666D01*
X0093262Y0155666D02*
X0093500Y0155666D01*
X0096525Y0152469D02*
X0105831Y0152469D01*
X0105831Y0154068D02*
X0098124Y0154068D01*
X0100515Y0150870D02*
X0094927Y0150870D01*
X0093831Y0149272D02*
X0100151Y0149272D01*
X0100151Y0147673D02*
X0093831Y0147673D01*
X0093241Y0146075D02*
X0100151Y0146075D01*
X0100151Y0144476D02*
X0091063Y0144476D01*
X0088600Y0144476D02*
X0086959Y0144476D01*
X0086422Y0146075D02*
X0085361Y0146075D01*
X0082335Y0142878D02*
X0068873Y0142878D01*
X0068600Y0144476D02*
X0067274Y0144476D01*
X0066422Y0146075D02*
X0065676Y0146075D01*
X0065831Y0147673D02*
X0064077Y0147673D01*
X0063831Y0149272D02*
X0065831Y0149272D01*
X0065831Y0150870D02*
X0063831Y0150870D01*
X0063831Y0152469D02*
X0065831Y0152469D01*
X0065831Y0154068D02*
X0063831Y0154068D01*
X0063262Y0155666D02*
X0066401Y0155666D01*
X0073262Y0155666D02*
X0076401Y0155666D01*
X0075831Y0154068D02*
X0073831Y0154068D01*
X0073831Y0152469D02*
X0075831Y0152469D01*
X0075831Y0150870D02*
X0073831Y0150870D01*
X0073831Y0149272D02*
X0075831Y0149272D01*
X0075831Y0147673D02*
X0073831Y0147673D01*
X0073241Y0146075D02*
X0076422Y0146075D01*
X0078600Y0144476D02*
X0071063Y0144476D01*
X0070471Y0141279D02*
X0083934Y0141279D01*
X0085532Y0139681D02*
X0072070Y0139681D01*
X0073668Y0138082D02*
X0087131Y0138082D01*
X0088729Y0136484D02*
X0075267Y0136484D01*
X0076865Y0134885D02*
X0090328Y0134885D01*
X0091926Y0133287D02*
X0078464Y0133287D01*
X0080062Y0131688D02*
X0093525Y0131688D01*
X0094246Y0130090D02*
X0081661Y0130090D01*
X0083259Y0128491D02*
X0094246Y0128491D01*
X0094246Y0126893D02*
X0084858Y0126893D01*
X0086456Y0125294D02*
X0094246Y0125294D01*
X0094246Y0123696D02*
X0086835Y0123696D01*
X0086835Y0122097D02*
X0088556Y0122097D01*
X0091107Y0122097D02*
X0094246Y0122097D01*
X0094246Y0120499D02*
X0093249Y0120499D01*
X0093831Y0118900D02*
X0094246Y0118900D01*
X0094246Y0117302D02*
X0093831Y0117302D01*
X0093831Y0115703D02*
X0094246Y0115703D01*
X0094246Y0114105D02*
X0093831Y0114105D01*
X0093831Y0112506D02*
X0094246Y0112506D01*
X0094246Y0110908D02*
X0093255Y0110908D01*
X0094246Y0109309D02*
X0091142Y0109309D01*
X0092788Y0107711D02*
X0086835Y0107711D01*
X0086835Y0109309D02*
X0088521Y0109309D01*
X0086835Y0106112D02*
X0092277Y0106112D01*
X0092277Y0104514D02*
X0090920Y0104514D01*
X0087483Y0104514D02*
X0086835Y0104514D01*
X0082435Y0104514D02*
X0080920Y0104514D01*
X0082435Y0106112D02*
X0048552Y0106112D01*
X0050150Y0104514D02*
X0056695Y0104514D01*
X0056895Y0104659D02*
X0056335Y0104252D01*
X0055845Y0103762D01*
X0055438Y0103202D01*
X0055124Y0102585D01*
X0054910Y0101926D01*
X0054802Y0101242D01*
X0054802Y0098296D01*
X0054802Y0095350D01*
X0054910Y0094666D01*
X0055124Y0094007D01*
X0055438Y0093390D01*
X0055845Y0092830D01*
X0056335Y0092340D01*
X0056895Y0091933D01*
X0057513Y0091618D01*
X0058171Y0091404D01*
X0058855Y0091296D01*
X0059202Y0091296D01*
X0059548Y0091296D01*
X0060232Y0091404D01*
X0060891Y0091618D01*
X0061508Y0091933D01*
X0062068Y0092340D01*
X0062558Y0092830D01*
X0062965Y0093390D01*
X0063279Y0094007D01*
X0063493Y0094666D01*
X0063602Y0095350D01*
X0063602Y0098296D01*
X0059202Y0098296D01*
X0059202Y0098296D01*
X0063602Y0098296D01*
X0063602Y0101242D01*
X0063493Y0101926D01*
X0063279Y0102585D01*
X0062965Y0103202D01*
X0062558Y0103762D01*
X0062068Y0104252D01*
X0061508Y0104659D01*
X0060891Y0104974D01*
X0060232Y0105188D01*
X0059548Y0105296D01*
X0059202Y0105296D01*
X0059202Y0098296D01*
X0059202Y0091296D01*
X0059202Y0098296D01*
X0059202Y0098296D01*
X0059202Y0098296D01*
X0059202Y0105296D01*
X0058855Y0105296D01*
X0058171Y0105188D01*
X0057513Y0104974D01*
X0056895Y0104659D01*
X0059202Y0104514D02*
X0059202Y0104514D01*
X0059202Y0102915D02*
X0059202Y0102915D01*
X0059202Y0101317D02*
X0059202Y0101317D01*
X0059202Y0099718D02*
X0059202Y0099718D01*
X0059201Y0098296D02*
X0054802Y0098296D01*
X0059201Y0098296D01*
X0059201Y0098296D01*
X0059202Y0098120D02*
X0059202Y0098120D01*
X0059202Y0096521D02*
X0059202Y0096521D01*
X0059202Y0094923D02*
X0059202Y0094923D01*
X0059202Y0093324D02*
X0059202Y0093324D01*
X0059202Y0091726D02*
X0059202Y0091726D01*
X0061101Y0091726D02*
X0068335Y0091726D01*
X0068406Y0091696D02*
X0069997Y0091696D01*
X0071467Y0092305D01*
X0072593Y0093430D01*
X0073202Y0094900D01*
X0073202Y0101692D01*
X0072593Y0103162D01*
X0071467Y0104287D01*
X0069997Y0104896D01*
X0068406Y0104896D01*
X0066936Y0104287D01*
X0065811Y0103162D01*
X0065202Y0101692D01*
X0065202Y0094900D01*
X0065811Y0093430D01*
X0066936Y0092305D01*
X0068406Y0091696D01*
X0070068Y0091726D02*
X0074561Y0091726D01*
X0074561Y0093324D02*
X0072486Y0093324D01*
X0073202Y0094923D02*
X0075202Y0094923D01*
X0075202Y0096521D02*
X0073202Y0096521D01*
X0073202Y0098120D02*
X0075202Y0098120D01*
X0075202Y0099718D02*
X0073202Y0099718D01*
X0073202Y0101317D02*
X0075202Y0101317D01*
X0075708Y0102915D02*
X0072695Y0102915D01*
X0070920Y0104514D02*
X0077483Y0104514D01*
X0078521Y0109309D02*
X0071142Y0109309D01*
X0070627Y0109096D02*
X0072097Y0109705D01*
X0073223Y0110830D01*
X0073831Y0112300D01*
X0073831Y0119092D01*
X0073223Y0120562D01*
X0072097Y0121687D01*
X0070627Y0122296D01*
X0069036Y0122296D01*
X0067566Y0121687D01*
X0066440Y0120562D01*
X0065831Y0119092D01*
X0065831Y0112300D01*
X0066440Y0110830D01*
X0067566Y0109705D01*
X0069036Y0109096D01*
X0070627Y0109096D01*
X0068521Y0109309D02*
X0061142Y0109309D01*
X0060627Y0109096D02*
X0062097Y0109705D01*
X0063223Y0110830D01*
X0063831Y0112300D01*
X0063831Y0119092D01*
X0063223Y0120562D01*
X0062097Y0121687D01*
X0060627Y0122296D01*
X0059036Y0122296D01*
X0057566Y0121687D01*
X0056440Y0120562D01*
X0055831Y0119092D01*
X0055831Y0112300D01*
X0056440Y0110830D01*
X0057566Y0109705D01*
X0059036Y0109096D01*
X0060627Y0109096D01*
X0058521Y0109309D02*
X0051142Y0109309D01*
X0050627Y0109096D02*
X0052097Y0109705D01*
X0053223Y0110830D01*
X0053831Y0112300D01*
X0053831Y0119092D01*
X0053223Y0120562D01*
X0052097Y0121687D01*
X0050627Y0122296D01*
X0049036Y0122296D01*
X0047566Y0121687D01*
X0046440Y0120562D01*
X0045831Y0119092D01*
X0045831Y0112300D01*
X0046440Y0110830D01*
X0047566Y0109705D01*
X0049036Y0109096D01*
X0050627Y0109096D01*
X0048521Y0109309D02*
X0045355Y0109309D01*
X0046408Y0110908D02*
X0043756Y0110908D01*
X0043831Y0112506D02*
X0045831Y0112506D01*
X0045831Y0114105D02*
X0043831Y0114105D01*
X0043831Y0115703D02*
X0045831Y0115703D01*
X0045831Y0117302D02*
X0043831Y0117302D01*
X0043831Y0118900D02*
X0045831Y0118900D01*
X0046414Y0120499D02*
X0043249Y0120499D01*
X0041107Y0122097D02*
X0048556Y0122097D01*
X0051107Y0122097D02*
X0058556Y0122097D01*
X0061107Y0122097D02*
X0068556Y0122097D01*
X0071107Y0122097D02*
X0078556Y0122097D01*
X0081107Y0122097D02*
X0082435Y0122097D01*
X0081832Y0123696D02*
X0037622Y0123696D01*
X0037622Y0125294D02*
X0080234Y0125294D01*
X0078635Y0126893D02*
X0037622Y0126893D01*
X0037622Y0128491D02*
X0077037Y0128491D01*
X0075438Y0130090D02*
X0037622Y0130090D01*
X0037622Y0131688D02*
X0073840Y0131688D01*
X0072241Y0133287D02*
X0037622Y0133287D01*
X0037622Y0134885D02*
X0070643Y0134885D01*
X0069044Y0136484D02*
X0037622Y0136484D01*
X0037622Y0138082D02*
X0067446Y0138082D01*
X0065847Y0139681D02*
X0037622Y0139681D01*
X0037622Y0141279D02*
X0064249Y0141279D01*
X0062650Y0142878D02*
X0037721Y0142878D01*
X0035422Y0143690D02*
X0035422Y0094477D01*
X0055107Y0074792D01*
X0055107Y0027548D01*
X0056969Y0027509D01*
X0063318Y0027785D02*
X0066219Y0027785D01*
X0066219Y0026187D02*
X0063318Y0026187D01*
X0063318Y0024588D02*
X0066219Y0024588D01*
X0066219Y0022990D02*
X0063318Y0022990D01*
X0063318Y0021391D02*
X0066219Y0021391D01*
X0066841Y0019793D02*
X0062696Y0019793D01*
X0061584Y0018194D02*
X0067953Y0018194D01*
X0070371Y0016596D02*
X0059166Y0016596D01*
X0054771Y0016596D02*
X0043566Y0016596D01*
X0045984Y0018194D02*
X0052353Y0018194D01*
X0051241Y0019793D02*
X0047096Y0019793D01*
X0047718Y0021391D02*
X0050619Y0021391D01*
X0050619Y0022990D02*
X0047718Y0022990D01*
X0047718Y0024588D02*
X0050619Y0024588D01*
X0050619Y0026187D02*
X0047718Y0026187D01*
X0047718Y0027785D02*
X0050619Y0027785D01*
X0050619Y0029384D02*
X0047718Y0029384D01*
X0047718Y0030982D02*
X0050619Y0030982D01*
X0050619Y0032581D02*
X0047718Y0032581D01*
X0047529Y0034179D02*
X0050808Y0034179D01*
X0051470Y0035778D02*
X0046867Y0035778D01*
X0045496Y0037376D02*
X0052906Y0037376D01*
X0052907Y0038975D02*
X0045496Y0038975D01*
X0045496Y0040573D02*
X0052907Y0040573D01*
X0052907Y0042172D02*
X0045496Y0042172D01*
X0045496Y0043770D02*
X0052907Y0043770D01*
X0052907Y0045369D02*
X0045496Y0045369D01*
X0045496Y0046967D02*
X0052907Y0046967D01*
X0052907Y0048566D02*
X0045496Y0048566D01*
X0045496Y0050164D02*
X0052907Y0050164D01*
X0052907Y0051763D02*
X0045496Y0051763D01*
X0045496Y0053361D02*
X0052907Y0053361D01*
X0052907Y0054960D02*
X0046066Y0054960D01*
X0047510Y0056558D02*
X0051996Y0056558D01*
X0051334Y0058157D02*
X0048172Y0058157D01*
X0048377Y0059755D02*
X0051128Y0059755D01*
X0051128Y0061354D02*
X0048377Y0061354D01*
X0048377Y0062952D02*
X0051128Y0062952D01*
X0051128Y0064551D02*
X0048377Y0064551D01*
X0048377Y0066149D02*
X0051128Y0066149D01*
X0051128Y0067748D02*
X0048377Y0067748D01*
X0048377Y0069346D02*
X0051128Y0069346D01*
X0051128Y0070945D02*
X0048377Y0070945D01*
X0047840Y0072543D02*
X0051666Y0072543D01*
X0052642Y0074142D02*
X0046864Y0074142D01*
X0045496Y0075740D02*
X0051047Y0075740D01*
X0049449Y0077339D02*
X0045496Y0077339D01*
X0045496Y0078937D02*
X0047850Y0078937D01*
X0046252Y0080536D02*
X0045496Y0080536D01*
X0043296Y0080698D02*
X0043296Y0064950D01*
X0041957Y0064950D01*
X0043296Y0064950D02*
X0043296Y0027548D01*
X0041369Y0027509D01*
X0035019Y0027785D02*
X0013600Y0027785D01*
X0013600Y0026187D02*
X0035019Y0026187D01*
X0035019Y0024588D02*
X0013600Y0024588D01*
X0013600Y0022990D02*
X0035019Y0022990D01*
X0035019Y0021391D02*
X0013600Y0021391D01*
X0013600Y0019793D02*
X0035641Y0019793D01*
X0036753Y0018194D02*
X0013600Y0018194D01*
X0013600Y0016596D02*
X0039171Y0016596D01*
X0035019Y0029384D02*
X0013600Y0029384D01*
X0013600Y0030982D02*
X0035019Y0030982D01*
X0035019Y0032581D02*
X0013600Y0032581D01*
X0013600Y0034179D02*
X0035208Y0034179D01*
X0035870Y0035778D02*
X0013600Y0035778D01*
X0013600Y0037376D02*
X0037306Y0037376D01*
X0041096Y0038975D02*
X0013600Y0038975D01*
X0013600Y0040573D02*
X0041096Y0040573D01*
X0041096Y0042172D02*
X0013600Y0042172D01*
X0013600Y0043770D02*
X0041096Y0043770D01*
X0041096Y0045369D02*
X0013600Y0045369D01*
X0013600Y0046967D02*
X0041096Y0046967D01*
X0041096Y0048566D02*
X0013600Y0048566D01*
X0013600Y0050164D02*
X0041096Y0050164D01*
X0041096Y0051763D02*
X0013600Y0051763D01*
X0013600Y0053361D02*
X0041096Y0053361D01*
X0037849Y0054960D02*
X0013600Y0054960D01*
X0013600Y0056558D02*
X0036405Y0056558D01*
X0035743Y0058157D02*
X0013600Y0058157D01*
X0013600Y0059755D02*
X0035538Y0059755D01*
X0035538Y0061354D02*
X0013600Y0061354D01*
X0013600Y0062952D02*
X0035538Y0062952D01*
X0035538Y0064551D02*
X0013600Y0064551D01*
X0013600Y0066149D02*
X0035538Y0066149D01*
X0035538Y0067748D02*
X0013600Y0067748D01*
X0013600Y0069346D02*
X0035538Y0069346D01*
X0035538Y0070945D02*
X0013600Y0070945D01*
X0013600Y0072543D02*
X0036075Y0072543D01*
X0037051Y0074142D02*
X0013600Y0074142D01*
X0013600Y0075740D02*
X0039115Y0075740D01*
X0041096Y0077339D02*
X0013600Y0077339D01*
X0013600Y0078937D02*
X0041096Y0078937D01*
X0040346Y0080536D02*
X0013600Y0080536D01*
X0013600Y0082134D02*
X0038748Y0082134D01*
X0037149Y0083733D02*
X0013600Y0083733D01*
X0013600Y0085332D02*
X0035551Y0085332D01*
X0033952Y0086930D02*
X0013600Y0086930D01*
X0013600Y0088529D02*
X0032354Y0088529D01*
X0030755Y0090127D02*
X0013600Y0090127D01*
X0013600Y0091726D02*
X0029157Y0091726D01*
X0027558Y0093324D02*
X0013600Y0093324D01*
X0013600Y0094923D02*
X0025960Y0094923D01*
X0024361Y0096521D02*
X0013600Y0096521D01*
X0013600Y0098120D02*
X0022763Y0098120D01*
X0021164Y0099718D02*
X0013600Y0099718D01*
X0013600Y0101317D02*
X0019566Y0101317D01*
X0017967Y0102915D02*
X0013600Y0102915D01*
X0013600Y0104514D02*
X0016369Y0104514D01*
X0014770Y0106112D02*
X0013600Y0106112D01*
X0013769Y0110225D02*
X0043296Y0080698D01*
X0047679Y0085332D02*
X0082435Y0085332D01*
X0082435Y0086930D02*
X0078230Y0086930D01*
X0078961Y0088529D02*
X0082435Y0088529D01*
X0082435Y0090127D02*
X0078961Y0090127D01*
X0080068Y0091726D02*
X0082435Y0091726D01*
X0086835Y0091726D02*
X0088335Y0091726D01*
X0090068Y0091726D02*
X0092277Y0091726D01*
X0092277Y0090127D02*
X0086835Y0090127D01*
X0086835Y0088529D02*
X0092277Y0088529D01*
X0092277Y0086930D02*
X0086835Y0086930D01*
X0086835Y0085332D02*
X0092277Y0085332D01*
X0092277Y0083733D02*
X0086835Y0083733D01*
X0086835Y0082134D02*
X0092277Y0082134D01*
X0092277Y0080536D02*
X0085616Y0080536D01*
X0084017Y0078937D02*
X0092277Y0078937D01*
X0092277Y0077339D02*
X0082419Y0077339D01*
X0080820Y0075740D02*
X0085887Y0075740D01*
X0083823Y0074142D02*
X0079222Y0074142D01*
X0079021Y0072543D02*
X0082847Y0072543D01*
X0082309Y0070945D02*
X0079558Y0070945D01*
X0079558Y0069346D02*
X0082309Y0069346D01*
X0082309Y0067748D02*
X0079558Y0067748D01*
X0079558Y0066149D02*
X0082309Y0066149D01*
X0082309Y0064551D02*
X0079558Y0064551D01*
X0079558Y0062952D02*
X0082309Y0062952D01*
X0082309Y0061354D02*
X0079558Y0061354D01*
X0079558Y0059755D02*
X0082309Y0059755D01*
X0082515Y0058157D02*
X0079353Y0058157D01*
X0078691Y0056558D02*
X0083177Y0056558D01*
X0084620Y0054960D02*
X0077247Y0054960D01*
X0076992Y0053361D02*
X0088340Y0053361D01*
X0088340Y0051763D02*
X0076992Y0051763D01*
X0076992Y0050164D02*
X0088340Y0050164D01*
X0088340Y0048566D02*
X0076992Y0048566D01*
X0076992Y0046967D02*
X0088340Y0046967D01*
X0088340Y0045369D02*
X0076992Y0045369D01*
X0076992Y0043770D02*
X0088340Y0043770D01*
X0088340Y0042172D02*
X0076992Y0042172D01*
X0076992Y0040573D02*
X0088340Y0040573D01*
X0088340Y0038975D02*
X0076992Y0038975D01*
X0076992Y0037376D02*
X0084106Y0037376D01*
X0082670Y0035778D02*
X0078067Y0035778D01*
X0078729Y0034179D02*
X0082008Y0034179D01*
X0081819Y0032581D02*
X0078918Y0032581D01*
X0078918Y0030982D02*
X0081819Y0030982D01*
X0081819Y0029384D02*
X0078918Y0029384D01*
X0078918Y0027785D02*
X0081819Y0027785D01*
X0081819Y0026187D02*
X0078918Y0026187D01*
X0078918Y0024588D02*
X0081819Y0024588D01*
X0081819Y0022990D02*
X0078918Y0022990D01*
X0078918Y0021391D02*
X0081819Y0021391D01*
X0082441Y0019793D02*
X0078296Y0019793D01*
X0077184Y0018194D02*
X0083553Y0018194D01*
X0085971Y0016596D02*
X0074766Y0016596D01*
X0072824Y0027548D02*
X0072569Y0027509D01*
X0072824Y0027548D02*
X0074792Y0029517D01*
X0074792Y0064950D01*
X0073139Y0064950D01*
X0074792Y0064950D02*
X0074792Y0072824D01*
X0084635Y0082666D01*
X0084635Y0124005D01*
X0061013Y0147627D01*
X0059831Y0148296D01*
X0055831Y0147673D02*
X0053831Y0147673D01*
X0053831Y0149272D02*
X0055831Y0149272D01*
X0055831Y0150870D02*
X0053831Y0150870D01*
X0053831Y0152469D02*
X0055831Y0152469D01*
X0055831Y0154068D02*
X0053831Y0154068D01*
X0053262Y0155666D02*
X0056401Y0155666D01*
X0058477Y0157265D02*
X0051402Y0157265D01*
X0051402Y0158863D02*
X0057189Y0158863D01*
X0056065Y0160462D02*
X0051402Y0160462D01*
X0051402Y0162060D02*
X0055792Y0162060D01*
X0047002Y0162060D02*
X0027780Y0162060D01*
X0027780Y0160462D02*
X0047002Y0160462D01*
X0047002Y0158863D02*
X0027780Y0158863D01*
X0027780Y0157265D02*
X0028477Y0157265D01*
X0031186Y0157265D02*
X0038477Y0157265D01*
X0036401Y0155666D02*
X0033262Y0155666D01*
X0033831Y0154068D02*
X0035831Y0154068D01*
X0035831Y0152469D02*
X0033831Y0152469D01*
X0033831Y0150870D02*
X0035831Y0150870D01*
X0035831Y0149272D02*
X0033831Y0149272D01*
X0033831Y0147673D02*
X0035831Y0147673D01*
X0034696Y0146075D02*
X0033241Y0146075D01*
X0033222Y0144476D02*
X0031063Y0144476D01*
X0028600Y0144476D02*
X0027780Y0144476D01*
X0027780Y0142878D02*
X0033222Y0142878D01*
X0033222Y0141279D02*
X0027780Y0141279D01*
X0027780Y0139681D02*
X0033222Y0139681D01*
X0033222Y0138082D02*
X0027780Y0138082D01*
X0027780Y0136484D02*
X0033222Y0136484D01*
X0033222Y0134885D02*
X0027780Y0134885D01*
X0027780Y0133287D02*
X0033222Y0133287D01*
X0033222Y0131688D02*
X0027780Y0131688D01*
X0027780Y0130090D02*
X0033222Y0130090D01*
X0033222Y0128491D02*
X0027780Y0128491D01*
X0027780Y0126893D02*
X0033222Y0126893D01*
X0033222Y0125294D02*
X0027780Y0125294D01*
X0027780Y0123696D02*
X0033222Y0123696D01*
X0033222Y0122097D02*
X0031107Y0122097D01*
X0028556Y0122097D02*
X0027780Y0122097D01*
X0037622Y0122097D02*
X0038556Y0122097D01*
X0039831Y0118296D02*
X0041328Y0118099D01*
X0041328Y0110225D01*
X0051170Y0100383D01*
X0051170Y0092509D01*
X0055107Y0088572D01*
X0076761Y0088572D01*
X0076761Y0092509D01*
X0078729Y0094477D01*
X0078729Y0096446D01*
X0079202Y0098296D01*
X0067483Y0104514D02*
X0061708Y0104514D01*
X0063111Y0102915D02*
X0065708Y0102915D01*
X0065202Y0101317D02*
X0063590Y0101317D01*
X0063602Y0099718D02*
X0065202Y0099718D01*
X0065202Y0098120D02*
X0063602Y0098120D01*
X0063602Y0096521D02*
X0065202Y0096521D01*
X0065202Y0094923D02*
X0063534Y0094923D01*
X0062917Y0093324D02*
X0065917Y0093324D01*
X0057302Y0091726D02*
X0055064Y0091726D01*
X0055486Y0093324D02*
X0053466Y0093324D01*
X0053370Y0094923D02*
X0054869Y0094923D01*
X0054802Y0096521D02*
X0053370Y0096521D01*
X0053370Y0098120D02*
X0054802Y0098120D01*
X0054802Y0099718D02*
X0053370Y0099718D01*
X0053347Y0101317D02*
X0054813Y0101317D01*
X0055292Y0102915D02*
X0051749Y0102915D01*
X0048723Y0099718D02*
X0037622Y0099718D01*
X0037622Y0098120D02*
X0048970Y0098120D01*
X0048970Y0096521D02*
X0037622Y0096521D01*
X0038088Y0094923D02*
X0048970Y0094923D01*
X0048970Y0093324D02*
X0039686Y0093324D01*
X0041285Y0091726D02*
X0048970Y0091726D01*
X0050440Y0090127D02*
X0042883Y0090127D01*
X0044482Y0088529D02*
X0052039Y0088529D01*
X0053637Y0086930D02*
X0046080Y0086930D01*
X0049277Y0083733D02*
X0082435Y0083733D01*
X0080992Y0082134D02*
X0050876Y0082134D01*
X0052474Y0080536D02*
X0079393Y0080536D01*
X0077795Y0078937D02*
X0054073Y0078937D01*
X0055672Y0077339D02*
X0076196Y0077339D01*
X0070296Y0075740D02*
X0060391Y0075740D01*
X0062454Y0074142D02*
X0068232Y0074142D01*
X0067256Y0072543D02*
X0063430Y0072543D01*
X0063968Y0070945D02*
X0066719Y0070945D01*
X0066719Y0069346D02*
X0063968Y0069346D01*
X0063968Y0067748D02*
X0066719Y0067748D01*
X0066719Y0066149D02*
X0063968Y0066149D01*
X0063968Y0064551D02*
X0066719Y0064551D01*
X0066719Y0062952D02*
X0063968Y0062952D01*
X0063968Y0061354D02*
X0066719Y0061354D01*
X0066719Y0059755D02*
X0063968Y0059755D01*
X0063762Y0058157D02*
X0066924Y0058157D01*
X0067587Y0056558D02*
X0063100Y0056558D01*
X0061657Y0054960D02*
X0069030Y0054960D01*
X0072592Y0053361D02*
X0057307Y0053361D01*
X0057307Y0051763D02*
X0072592Y0051763D01*
X0072592Y0050164D02*
X0057307Y0050164D01*
X0057307Y0048566D02*
X0072592Y0048566D01*
X0072592Y0046967D02*
X0057307Y0046967D01*
X0057307Y0045369D02*
X0072592Y0045369D01*
X0072592Y0043770D02*
X0057307Y0043770D01*
X0057307Y0042172D02*
X0072592Y0042172D01*
X0072592Y0040573D02*
X0057307Y0040573D01*
X0057307Y0038975D02*
X0072592Y0038975D01*
X0068506Y0037376D02*
X0061031Y0037376D01*
X0062467Y0035778D02*
X0067070Y0035778D01*
X0066408Y0034179D02*
X0063129Y0034179D01*
X0063318Y0032581D02*
X0066219Y0032581D01*
X0066219Y0030982D02*
X0063318Y0030982D01*
X0063318Y0029384D02*
X0066219Y0029384D01*
X0088169Y0027509D02*
X0088572Y0027548D01*
X0090540Y0029517D01*
X0090540Y0064950D01*
X0088729Y0064950D01*
X0090540Y0064950D02*
X0090540Y0068887D01*
X0094477Y0072824D01*
X0094477Y0106288D01*
X0096446Y0108257D01*
X0096446Y0131879D01*
X0080698Y0147627D01*
X0079831Y0148296D01*
X0088558Y0142878D02*
X0100151Y0142878D01*
X0100151Y0141279D02*
X0090156Y0141279D01*
X0091755Y0139681D02*
X0100151Y0139681D01*
X0100151Y0138082D02*
X0093353Y0138082D01*
X0094952Y0136484D02*
X0100151Y0136484D01*
X0100151Y0134885D02*
X0096550Y0134885D01*
X0098149Y0133287D02*
X0100151Y0133287D01*
X0100151Y0131688D02*
X0098646Y0131688D01*
X0098646Y0130090D02*
X0100151Y0130090D01*
X0100151Y0128491D02*
X0098646Y0128491D01*
X0098646Y0126893D02*
X0100151Y0126893D01*
X0100151Y0125294D02*
X0098646Y0125294D01*
X0098646Y0123696D02*
X0100151Y0123696D01*
X0100151Y0122097D02*
X0098646Y0122097D01*
X0098646Y0120499D02*
X0100151Y0120499D01*
X0100151Y0118900D02*
X0098646Y0118900D01*
X0098646Y0117302D02*
X0100151Y0117302D01*
X0100151Y0115703D02*
X0098646Y0115703D01*
X0098646Y0114105D02*
X0100151Y0114105D01*
X0100151Y0112506D02*
X0098646Y0112506D01*
X0098646Y0110908D02*
X0100151Y0110908D01*
X0100151Y0109309D02*
X0098646Y0109309D01*
X0098646Y0107711D02*
X0100151Y0107711D01*
X0101384Y0106112D02*
X0097412Y0106112D01*
X0097483Y0104514D02*
X0096677Y0104514D01*
X0100920Y0104514D02*
X0102120Y0104514D01*
X0104320Y0106288D02*
X0104320Y0064950D01*
X0102351Y0062981D01*
X0102351Y0027548D01*
X0103769Y0027509D01*
X0110118Y0027785D02*
X0113019Y0027785D01*
X0113019Y0026187D02*
X0110118Y0026187D01*
X0110118Y0024588D02*
X0113019Y0024588D01*
X0113019Y0022990D02*
X0110118Y0022990D01*
X0110118Y0021391D02*
X0113019Y0021391D01*
X0113641Y0019793D02*
X0109496Y0019793D01*
X0108384Y0018194D02*
X0114753Y0018194D01*
X0117171Y0016596D02*
X0105966Y0016596D01*
X0101571Y0016596D02*
X0090366Y0016596D01*
X0092784Y0018194D02*
X0099153Y0018194D01*
X0098041Y0019793D02*
X0093896Y0019793D01*
X0094518Y0021391D02*
X0097419Y0021391D01*
X0097419Y0022990D02*
X0094518Y0022990D01*
X0094518Y0024588D02*
X0097419Y0024588D01*
X0097419Y0026187D02*
X0094518Y0026187D01*
X0094518Y0027785D02*
X0097419Y0027785D01*
X0097419Y0029384D02*
X0094518Y0029384D01*
X0094518Y0030982D02*
X0097419Y0030982D01*
X0097419Y0032581D02*
X0094518Y0032581D01*
X0094329Y0034179D02*
X0097608Y0034179D01*
X0098270Y0035778D02*
X0093667Y0035778D01*
X0092740Y0037376D02*
X0099706Y0037376D01*
X0100151Y0038975D02*
X0092740Y0038975D01*
X0092740Y0040573D02*
X0100151Y0040573D01*
X0100151Y0042172D02*
X0092740Y0042172D01*
X0092740Y0043770D02*
X0100151Y0043770D01*
X0100151Y0045369D02*
X0092740Y0045369D01*
X0092740Y0046967D02*
X0100151Y0046967D01*
X0100151Y0048566D02*
X0092740Y0048566D01*
X0092740Y0050164D02*
X0100151Y0050164D01*
X0100151Y0051763D02*
X0092740Y0051763D01*
X0092740Y0053361D02*
X0100151Y0053361D01*
X0100151Y0054960D02*
X0092838Y0054960D01*
X0094281Y0056558D02*
X0098768Y0056558D01*
X0098105Y0058157D02*
X0094943Y0058157D01*
X0095149Y0059755D02*
X0097900Y0059755D01*
X0097900Y0061354D02*
X0095149Y0061354D01*
X0095149Y0062952D02*
X0097900Y0062952D01*
X0097900Y0064551D02*
X0095149Y0064551D01*
X0095149Y0066149D02*
X0097900Y0066149D01*
X0097900Y0067748D02*
X0095149Y0067748D01*
X0095149Y0069346D02*
X0097900Y0069346D01*
X0097900Y0070945D02*
X0095710Y0070945D01*
X0096677Y0072543D02*
X0098437Y0072543D01*
X0099414Y0074142D02*
X0096677Y0074142D01*
X0098414Y0076761D02*
X0098414Y0096446D01*
X0099202Y0098296D01*
X0113202Y0096521D02*
X0115202Y0096521D01*
X0115202Y0094923D02*
X0113202Y0094923D01*
X0112486Y0093324D02*
X0115917Y0093324D01*
X0119202Y0098296D02*
X0120068Y0098414D01*
X0120068Y0104320D01*
X0129910Y0114162D01*
X0118521Y0109309D02*
X0112425Y0109309D01*
X0113255Y0110908D02*
X0116408Y0110908D01*
X0115831Y0112506D02*
X0113831Y0112506D01*
X0113831Y0114105D02*
X0115831Y0114105D01*
X0115831Y0115703D02*
X0113831Y0115703D01*
X0113831Y0117302D02*
X0115831Y0117302D01*
X0115831Y0118900D02*
X0113831Y0118900D01*
X0113249Y0120499D02*
X0116414Y0120499D01*
X0118556Y0122097D02*
X0113398Y0122097D01*
X0104551Y0133287D02*
X0131647Y0133287D01*
X0131647Y0134885D02*
X0104551Y0134885D01*
X0104551Y0136484D02*
X0131647Y0136484D01*
X0131647Y0138082D02*
X0104551Y0138082D01*
X0104551Y0139681D02*
X0131647Y0139681D01*
X0131647Y0141279D02*
X0104551Y0141279D01*
X0104551Y0142878D02*
X0131548Y0142878D01*
X0133847Y0143690D02*
X0129910Y0147627D01*
X0129831Y0148296D01*
X0133831Y0147673D02*
X0135831Y0147673D01*
X0135831Y0149272D02*
X0133831Y0149272D01*
X0133831Y0150870D02*
X0135831Y0150870D01*
X0135831Y0152469D02*
X0133831Y0152469D01*
X0133831Y0154068D02*
X0135831Y0154068D01*
X0136401Y0155666D02*
X0133262Y0155666D01*
X0134573Y0146075D02*
X0136422Y0146075D01*
X0133847Y0143690D02*
X0133847Y0082666D01*
X0120068Y0068887D01*
X0120068Y0064950D01*
X0119910Y0064950D01*
X0118099Y0064950D01*
X0118099Y0027548D01*
X0119369Y0027509D01*
X0125718Y0027785D02*
X0128619Y0027785D01*
X0128619Y0026187D02*
X0125718Y0026187D01*
X0125718Y0024588D02*
X0128619Y0024588D01*
X0128619Y0022990D02*
X0125718Y0022990D01*
X0125718Y0021391D02*
X0128619Y0021391D01*
X0129241Y0019793D02*
X0125096Y0019793D01*
X0123984Y0018194D02*
X0130353Y0018194D01*
X0132771Y0016596D02*
X0121566Y0016596D01*
X0125718Y0029384D02*
X0128619Y0029384D01*
X0128619Y0030982D02*
X0125718Y0030982D01*
X0125718Y0032581D02*
X0128619Y0032581D01*
X0128808Y0034179D02*
X0125529Y0034179D01*
X0124867Y0035778D02*
X0129470Y0035778D01*
X0130906Y0037376D02*
X0123431Y0037376D01*
X0120299Y0038975D02*
X0131647Y0038975D01*
X0131647Y0040573D02*
X0120299Y0040573D01*
X0120299Y0042172D02*
X0131647Y0042172D01*
X0131647Y0043770D02*
X0120299Y0043770D01*
X0120299Y0045369D02*
X0131647Y0045369D01*
X0131647Y0046967D02*
X0120299Y0046967D01*
X0120299Y0048566D02*
X0131647Y0048566D01*
X0131647Y0050164D02*
X0120299Y0050164D01*
X0120299Y0051763D02*
X0131647Y0051763D01*
X0131647Y0053361D02*
X0120299Y0053361D01*
X0124019Y0054960D02*
X0131392Y0054960D01*
X0129949Y0056558D02*
X0125462Y0056558D01*
X0126124Y0058157D02*
X0129287Y0058157D01*
X0129081Y0059755D02*
X0126330Y0059755D01*
X0126330Y0061354D02*
X0129081Y0061354D01*
X0129081Y0062952D02*
X0126330Y0062952D01*
X0115802Y0054960D02*
X0108428Y0054960D01*
X0109872Y0056558D02*
X0114358Y0056558D01*
X0113696Y0058157D02*
X0110534Y0058157D01*
X0110739Y0059755D02*
X0113491Y0059755D01*
X0113491Y0061354D02*
X0110739Y0061354D01*
X0110739Y0062952D02*
X0113491Y0062952D01*
X0113491Y0064551D02*
X0110739Y0064551D01*
X0110739Y0066149D02*
X0113491Y0066149D01*
X0113491Y0067748D02*
X0110739Y0067748D01*
X0110739Y0069346D02*
X0113491Y0069346D01*
X0113491Y0070945D02*
X0110739Y0070945D01*
X0110202Y0072543D02*
X0114028Y0072543D01*
X0115004Y0074142D02*
X0109226Y0074142D01*
X0107162Y0075740D02*
X0117068Y0075740D01*
X0122753Y0075740D02*
X0123810Y0075740D01*
X0125409Y0077339D02*
X0106520Y0077339D01*
X0106520Y0078937D02*
X0127007Y0078937D01*
X0145658Y0076761D02*
X0149595Y0072824D01*
X0148191Y0077339D02*
X0163143Y0077339D01*
X0163143Y0078937D02*
X0147858Y0078937D01*
X0147858Y0080536D02*
X0163143Y0080536D01*
X0163143Y0082134D02*
X0147858Y0082134D01*
X0147858Y0083733D02*
X0163143Y0083733D01*
X0163143Y0085332D02*
X0147858Y0085332D01*
X0147858Y0086930D02*
X0163143Y0086930D01*
X0163143Y0088529D02*
X0147858Y0088529D01*
X0147858Y0090127D02*
X0163143Y0090127D01*
X0163143Y0091726D02*
X0147858Y0091726D01*
X0147858Y0093324D02*
X0163143Y0093324D01*
X0163143Y0094923D02*
X0147858Y0094923D01*
X0147858Y0096521D02*
X0163143Y0096521D01*
X0163143Y0098120D02*
X0147858Y0098120D01*
X0147858Y0099718D02*
X0163143Y0099718D01*
X0163143Y0101317D02*
X0147858Y0101317D01*
X0147858Y0102915D02*
X0163143Y0102915D01*
X0163143Y0104514D02*
X0147858Y0104514D01*
X0147858Y0106112D02*
X0163143Y0106112D01*
X0169831Y0118296D02*
X0171249Y0120068D01*
X0179123Y0127942D01*
X0175186Y0135816D02*
X0175186Y0208650D01*
X0129910Y0208650D01*
X0114162Y0224398D01*
X0068887Y0224398D01*
X0061013Y0232272D01*
X0059831Y0233729D01*
X0057108Y0230796D02*
X0052555Y0230796D01*
X0053608Y0232395D02*
X0056055Y0232395D01*
X0055831Y0233993D02*
X0054033Y0233993D01*
X0055632Y0235592D02*
X0055831Y0235592D01*
X0055107Y0238178D02*
X0051170Y0234241D01*
X0049831Y0233729D01*
X0045896Y0229198D02*
X0060976Y0229198D01*
X0062575Y0227599D02*
X0045896Y0227599D01*
X0045896Y0226001D02*
X0064173Y0226001D01*
X0065772Y0224402D02*
X0045896Y0224402D01*
X0045896Y0222803D02*
X0067370Y0222803D01*
X0068797Y0227599D02*
X0111787Y0227599D01*
X0110189Y0229198D02*
X0067199Y0229198D01*
X0067108Y0230796D02*
X0065600Y0230796D01*
X0066055Y0232395D02*
X0064002Y0232395D01*
X0063831Y0233993D02*
X0065831Y0233993D01*
X0065831Y0235592D02*
X0063831Y0235592D01*
X0063831Y0237190D02*
X0065831Y0237190D01*
X0065831Y0238789D02*
X0063831Y0238789D01*
X0063557Y0240387D02*
X0066106Y0240387D01*
X0069831Y0233729D02*
X0070855Y0234241D01*
X0074792Y0238178D01*
X0074792Y0240146D01*
X0084635Y0249989D01*
X0084635Y0251957D01*
X0085855Y0252509D01*
X0081855Y0253175D02*
X0079855Y0253175D01*
X0079855Y0251577D02*
X0081855Y0251577D01*
X0081513Y0249978D02*
X0079855Y0249978D01*
X0079914Y0248380D02*
X0079551Y0248380D01*
X0082940Y0245183D02*
X0094246Y0245183D01*
X0094246Y0246246D02*
X0094246Y0241058D01*
X0093562Y0240374D01*
X0093223Y0241195D01*
X0092097Y0242320D01*
X0090627Y0242929D01*
X0089036Y0242929D01*
X0087566Y0242320D01*
X0086440Y0241195D01*
X0085831Y0239725D01*
X0085831Y0232933D01*
X0086440Y0231463D01*
X0087566Y0230338D01*
X0089036Y0229729D01*
X0090627Y0229729D01*
X0092097Y0230338D01*
X0093223Y0231463D01*
X0093831Y0232933D01*
X0093831Y0234421D01*
X0097357Y0237946D01*
X0098646Y0239235D01*
X0098646Y0247042D01*
X0099246Y0247643D01*
X0099855Y0249113D01*
X0099855Y0255904D01*
X0099246Y0257374D01*
X0098121Y0258500D01*
X0096651Y0259109D01*
X0095059Y0259109D01*
X0093589Y0258500D01*
X0092464Y0257374D01*
X0091855Y0255904D01*
X0091855Y0249113D01*
X0092464Y0247643D01*
X0093589Y0246518D01*
X0094246Y0246246D01*
X0093326Y0246781D02*
X0088384Y0246781D01*
X0089551Y0248380D02*
X0092159Y0248380D01*
X0091855Y0249978D02*
X0089855Y0249978D01*
X0089855Y0251577D02*
X0091855Y0251577D01*
X0091855Y0253175D02*
X0089855Y0253175D01*
X0089855Y0254774D02*
X0091855Y0254774D01*
X0092049Y0256372D02*
X0089661Y0256372D01*
X0088650Y0257971D02*
X0093060Y0257971D01*
X0098650Y0257971D02*
X0103060Y0257971D01*
X0102049Y0256372D02*
X0099661Y0256372D01*
X0099855Y0254774D02*
X0101855Y0254774D01*
X0101855Y0253175D02*
X0099855Y0253175D01*
X0099855Y0251577D02*
X0101855Y0251577D01*
X0101855Y0249978D02*
X0099855Y0249978D01*
X0099551Y0248380D02*
X0102159Y0248380D01*
X0103326Y0246781D02*
X0098646Y0246781D01*
X0098646Y0245183D02*
X0107983Y0245183D01*
X0109582Y0243584D02*
X0098646Y0243584D01*
X0098646Y0241986D02*
X0107231Y0241986D01*
X0106106Y0240387D02*
X0098646Y0240387D01*
X0098199Y0238789D02*
X0105831Y0238789D01*
X0105831Y0237190D02*
X0096601Y0237190D01*
X0095002Y0235592D02*
X0105831Y0235592D01*
X0105831Y0233993D02*
X0093831Y0233993D01*
X0093608Y0232395D02*
X0106055Y0232395D01*
X0107108Y0230796D02*
X0092555Y0230796D01*
X0090540Y0234241D02*
X0089831Y0233729D01*
X0090540Y0234241D02*
X0096446Y0240146D01*
X0096446Y0251957D01*
X0095855Y0252509D01*
X0105855Y0252509D02*
X0106288Y0251957D01*
X0106288Y0249989D01*
X0114162Y0242115D01*
X0114162Y0238178D01*
X0118099Y0234241D01*
X0119831Y0233729D01*
X0117108Y0230796D02*
X0114813Y0230796D01*
X0113608Y0232395D02*
X0116055Y0232395D01*
X0115236Y0233993D02*
X0113831Y0233993D01*
X0110225Y0232272D02*
X0109831Y0233729D01*
X0110225Y0232272D02*
X0129910Y0212587D01*
X0185028Y0212587D01*
X0183602Y0214811D02*
X0130798Y0214811D01*
X0129199Y0216409D02*
X0182032Y0216409D01*
X0180860Y0218008D02*
X0127601Y0218008D01*
X0126002Y0219606D02*
X0180804Y0219606D01*
X0179205Y0221205D02*
X0124404Y0221205D01*
X0122805Y0222803D02*
X0177606Y0222803D01*
X0176008Y0224402D02*
X0121207Y0224402D01*
X0119608Y0226001D02*
X0174409Y0226001D01*
X0172811Y0227599D02*
X0118010Y0227599D01*
X0116411Y0229198D02*
X0171212Y0229198D01*
X0171249Y0232272D02*
X0169831Y0233729D01*
X0171249Y0232272D02*
X0183060Y0220461D01*
X0183060Y0218493D01*
X0190934Y0210619D01*
X0190934Y0129910D01*
X0212587Y0108257D01*
X0202745Y0131879D02*
X0202745Y0212587D01*
X0190934Y0224398D01*
X0184797Y0224402D02*
X0182231Y0224402D01*
X0183829Y0222803D02*
X0184797Y0222803D01*
X0184797Y0226001D02*
X0180632Y0226001D01*
X0179033Y0227599D02*
X0184797Y0227599D01*
X0184797Y0229198D02*
X0177435Y0229198D01*
X0177566Y0230338D02*
X0179036Y0229729D01*
X0180627Y0229729D01*
X0182097Y0230338D01*
X0183223Y0231463D01*
X0183831Y0232933D01*
X0183831Y0239725D01*
X0183223Y0241195D01*
X0182097Y0242320D01*
X0180627Y0242929D01*
X0179036Y0242929D01*
X0177566Y0242320D01*
X0176440Y0241195D01*
X0175831Y0239725D01*
X0175831Y0232933D01*
X0176440Y0231463D01*
X0177566Y0230338D01*
X0177108Y0230796D02*
X0175836Y0230796D01*
X0176055Y0232395D02*
X0174238Y0232395D01*
X0173831Y0233993D02*
X0175831Y0233993D01*
X0175831Y0235592D02*
X0173831Y0235592D01*
X0173831Y0237190D02*
X0175831Y0237190D01*
X0175831Y0238789D02*
X0173831Y0238789D01*
X0173557Y0240387D02*
X0176106Y0240387D01*
X0177231Y0241986D02*
X0172432Y0241986D01*
X0167231Y0241986D02*
X0162432Y0241986D01*
X0162097Y0242320D02*
X0160627Y0242929D01*
X0159036Y0242929D01*
X0157566Y0242320D01*
X0156440Y0241195D01*
X0155831Y0239725D01*
X0155831Y0232933D01*
X0156440Y0231463D01*
X0157566Y0230338D01*
X0159036Y0229729D01*
X0160627Y0229729D01*
X0162097Y0230338D01*
X0163223Y0231463D01*
X0163831Y0232933D01*
X0163831Y0239725D01*
X0163223Y0241195D01*
X0162097Y0242320D01*
X0163557Y0240387D02*
X0166106Y0240387D01*
X0165831Y0238789D02*
X0163831Y0238789D01*
X0163831Y0237190D02*
X0165831Y0237190D01*
X0165831Y0235592D02*
X0163831Y0235592D01*
X0163831Y0233993D02*
X0165831Y0233993D01*
X0166055Y0232395D02*
X0163608Y0232395D01*
X0162555Y0230796D02*
X0167108Y0230796D01*
X0157108Y0230796D02*
X0152555Y0230796D01*
X0153608Y0232395D02*
X0156055Y0232395D01*
X0155831Y0233993D02*
X0154427Y0233993D01*
X0155732Y0235592D02*
X0155831Y0235592D01*
X0155831Y0237190D02*
X0155732Y0237190D01*
X0155732Y0238789D02*
X0155831Y0238789D01*
X0155732Y0240387D02*
X0156106Y0240387D01*
X0156514Y0241986D02*
X0157231Y0241986D01*
X0158113Y0243584D02*
X0184797Y0243584D01*
X0184797Y0241986D02*
X0182432Y0241986D01*
X0183557Y0240387D02*
X0184797Y0240387D01*
X0184797Y0238789D02*
X0183831Y0238789D01*
X0183831Y0237190D02*
X0184797Y0237190D01*
X0184797Y0235592D02*
X0183831Y0235592D01*
X0183831Y0233993D02*
X0184797Y0233993D01*
X0184797Y0232395D02*
X0183608Y0232395D01*
X0182555Y0230796D02*
X0184797Y0230796D01*
X0208882Y0243584D02*
X0279400Y0243584D01*
X0279701Y0245183D02*
X0208882Y0245183D01*
X0208882Y0246781D02*
X0280784Y0246781D01*
X0208882Y0248380D02*
X0363701Y0248380D01*
X0363701Y0249978D02*
X0208882Y0249978D01*
X0208205Y0251577D02*
X0363701Y0251577D01*
X0363701Y0253175D02*
X0139855Y0253175D01*
X0139855Y0251577D02*
X0142166Y0251577D01*
X0143690Y0249989D02*
X0135816Y0242115D01*
X0135816Y0240146D01*
X0129910Y0234241D01*
X0129831Y0233729D01*
X0127108Y0230796D02*
X0122555Y0230796D01*
X0123608Y0232395D02*
X0126055Y0232395D01*
X0125831Y0233993D02*
X0123831Y0233993D01*
X0123831Y0235592D02*
X0125831Y0235592D01*
X0125831Y0237190D02*
X0123831Y0237190D01*
X0123831Y0238789D02*
X0125831Y0238789D01*
X0126106Y0240387D02*
X0123557Y0240387D01*
X0122432Y0241986D02*
X0127231Y0241986D01*
X0126651Y0245909D02*
X0128121Y0246518D01*
X0129246Y0247643D01*
X0129855Y0249113D01*
X0129855Y0255904D01*
X0129246Y0257374D01*
X0128121Y0258500D01*
X0126651Y0259109D01*
X0125059Y0259109D01*
X0123589Y0258500D01*
X0122464Y0257374D01*
X0121855Y0255904D01*
X0121855Y0249113D01*
X0122464Y0247643D01*
X0123589Y0246518D01*
X0125059Y0245909D01*
X0126651Y0245909D01*
X0128384Y0246781D02*
X0133326Y0246781D01*
X0132159Y0248380D02*
X0129551Y0248380D01*
X0129855Y0249978D02*
X0131855Y0249978D01*
X0131855Y0251577D02*
X0129855Y0251577D01*
X0129855Y0253175D02*
X0131855Y0253175D01*
X0131855Y0254774D02*
X0129855Y0254774D01*
X0129661Y0256372D02*
X0132049Y0256372D01*
X0133060Y0257971D02*
X0128650Y0257971D01*
X0123060Y0257971D02*
X0118650Y0257971D01*
X0118121Y0258500D02*
X0116651Y0259109D01*
X0115059Y0259109D01*
X0113589Y0258500D01*
X0112464Y0257374D01*
X0111855Y0255904D01*
X0111855Y0249113D01*
X0112464Y0247643D01*
X0113589Y0246518D01*
X0115059Y0245909D01*
X0116651Y0245909D01*
X0118121Y0246518D01*
X0119246Y0247643D01*
X0119855Y0249113D01*
X0119855Y0255904D01*
X0119246Y0257374D01*
X0118121Y0258500D01*
X0119661Y0256372D02*
X0122049Y0256372D01*
X0121855Y0254774D02*
X0119855Y0254774D01*
X0119855Y0253175D02*
X0121855Y0253175D01*
X0121855Y0251577D02*
X0119855Y0251577D01*
X0119855Y0249978D02*
X0121855Y0249978D01*
X0122159Y0248380D02*
X0119551Y0248380D01*
X0118384Y0246781D02*
X0123326Y0246781D01*
X0117231Y0241986D02*
X0116362Y0241986D01*
X0115804Y0243584D02*
X0134174Y0243584D01*
X0133616Y0241986D02*
X0132432Y0241986D01*
X0135772Y0245183D02*
X0114206Y0245183D01*
X0113326Y0246781D02*
X0112607Y0246781D01*
X0112159Y0248380D02*
X0111009Y0248380D01*
X0111855Y0249978D02*
X0109855Y0249978D01*
X0109855Y0251577D02*
X0111855Y0251577D01*
X0111855Y0253175D02*
X0109855Y0253175D01*
X0109855Y0254774D02*
X0111855Y0254774D01*
X0112049Y0256372D02*
X0109661Y0256372D01*
X0108650Y0257971D02*
X0113060Y0257971D01*
X0094246Y0243584D02*
X0081341Y0243584D01*
X0082432Y0241986D02*
X0087231Y0241986D01*
X0086106Y0240387D02*
X0083557Y0240387D01*
X0083831Y0238789D02*
X0085831Y0238789D01*
X0085831Y0237190D02*
X0083831Y0237190D01*
X0083831Y0235592D02*
X0085831Y0235592D01*
X0085831Y0233993D02*
X0083831Y0233993D01*
X0083608Y0232395D02*
X0086055Y0232395D01*
X0087108Y0230796D02*
X0082555Y0230796D01*
X0077108Y0230796D02*
X0072555Y0230796D01*
X0073608Y0232395D02*
X0076055Y0232395D01*
X0075831Y0233993D02*
X0073831Y0233993D01*
X0075317Y0235592D02*
X0075831Y0235592D01*
X0074792Y0244083D02*
X0074792Y0251957D01*
X0075855Y0252509D01*
X0079855Y0254774D02*
X0081855Y0254774D01*
X0082049Y0256372D02*
X0079661Y0256372D01*
X0078650Y0257971D02*
X0083060Y0257971D01*
X0073060Y0257971D02*
X0068650Y0257971D01*
X0069661Y0256372D02*
X0072049Y0256372D01*
X0071855Y0254774D02*
X0069855Y0254774D01*
X0069855Y0253175D02*
X0071855Y0253175D01*
X0071855Y0251577D02*
X0069855Y0251577D01*
X0069855Y0249978D02*
X0071855Y0249978D01*
X0072159Y0248380D02*
X0069551Y0248380D01*
X0068384Y0246781D02*
X0072592Y0246781D01*
X0074792Y0244083D02*
X0059044Y0244083D01*
X0055107Y0240146D01*
X0055107Y0238178D01*
X0053835Y0241986D02*
X0052432Y0241986D01*
X0055434Y0243584D02*
X0048442Y0243584D01*
X0050041Y0245183D02*
X0057032Y0245183D01*
X0058384Y0246781D02*
X0063326Y0246781D01*
X0062159Y0248380D02*
X0059551Y0248380D01*
X0059855Y0249978D02*
X0061855Y0249978D01*
X0061855Y0251577D02*
X0059855Y0251577D01*
X0059855Y0253175D02*
X0061855Y0253175D01*
X0061855Y0254774D02*
X0059855Y0254774D01*
X0059661Y0256372D02*
X0062049Y0256372D01*
X0063060Y0257971D02*
X0058650Y0257971D01*
X0053060Y0257971D02*
X0013600Y0257971D01*
X0013600Y0259569D02*
X0363701Y0259569D01*
X0363701Y0257971D02*
X0138650Y0257971D01*
X0139661Y0256372D02*
X0363701Y0256372D01*
X0363701Y0254774D02*
X0139855Y0254774D01*
X0139855Y0249978D02*
X0140568Y0249978D01*
X0135831Y0235592D02*
X0134372Y0235592D01*
X0133831Y0233993D02*
X0135831Y0233993D01*
X0136055Y0232395D02*
X0133608Y0232395D01*
X0132555Y0230796D02*
X0137108Y0230796D01*
X0119040Y0216409D02*
X0109284Y0216409D01*
X0107686Y0214811D02*
X0120638Y0214811D01*
X0122237Y0213212D02*
X0106087Y0213212D01*
X0104489Y0211614D02*
X0123835Y0211614D01*
X0125434Y0210015D02*
X0102890Y0210015D01*
X0102583Y0208417D02*
X0127032Y0208417D01*
X0127264Y0206818D02*
X0122399Y0206818D01*
X0117264Y0206818D02*
X0112399Y0206818D01*
X0113544Y0205220D02*
X0116119Y0205220D01*
X0115831Y0203621D02*
X0113831Y0203621D01*
X0113831Y0202023D02*
X0115831Y0202023D01*
X0115831Y0200424D02*
X0113831Y0200424D01*
X0113831Y0198826D02*
X0115831Y0198826D01*
X0116041Y0197227D02*
X0113622Y0197227D01*
X0112588Y0195629D02*
X0117075Y0195629D01*
X0108025Y0194030D02*
X0102583Y0194030D01*
X0102583Y0192432D02*
X0108025Y0192432D01*
X0108025Y0190833D02*
X0102953Y0190833D01*
X0104234Y0189235D02*
X0107004Y0189235D01*
X0106619Y0187636D02*
X0104619Y0187636D01*
X0104619Y0186038D02*
X0106619Y0186038D01*
X0106619Y0184439D02*
X0104619Y0184439D01*
X0104619Y0182841D02*
X0106619Y0182841D01*
X0106732Y0181242D02*
X0104506Y0181242D01*
X0103609Y0179644D02*
X0107629Y0179644D01*
X0110225Y0181091D02*
X0110225Y0183060D01*
X0110619Y0184910D01*
X0110225Y0185028D01*
X0110225Y0202745D01*
X0109831Y0203729D01*
X0106119Y0205220D02*
X0102583Y0205220D01*
X0102583Y0206818D02*
X0107264Y0206818D01*
X0105831Y0203621D02*
X0102583Y0203621D01*
X0102583Y0202023D02*
X0105831Y0202023D01*
X0105831Y0200424D02*
X0102583Y0200424D01*
X0102583Y0198826D02*
X0105831Y0198826D01*
X0106041Y0197227D02*
X0102583Y0197227D01*
X0102583Y0195629D02*
X0107075Y0195629D01*
X0098183Y0195629D02*
X0092588Y0195629D01*
X0093622Y0197227D02*
X0098183Y0197227D01*
X0098183Y0198826D02*
X0093831Y0198826D01*
X0093831Y0200424D02*
X0098183Y0200424D01*
X0098183Y0202023D02*
X0093831Y0202023D01*
X0093831Y0203621D02*
X0098183Y0203621D01*
X0098183Y0205220D02*
X0093544Y0205220D01*
X0092399Y0206818D02*
X0098183Y0206818D01*
X0098183Y0208417D02*
X0087512Y0208417D01*
X0087264Y0206818D02*
X0085914Y0206818D01*
X0086119Y0205220D02*
X0084315Y0205220D01*
X0083831Y0203621D02*
X0085831Y0203621D01*
X0085831Y0202023D02*
X0083831Y0202023D01*
X0083831Y0200424D02*
X0085831Y0200424D01*
X0085831Y0198826D02*
X0083831Y0198826D01*
X0083622Y0197227D02*
X0086041Y0197227D01*
X0087075Y0195629D02*
X0082588Y0195629D01*
X0077075Y0195629D02*
X0072588Y0195629D01*
X0073622Y0197227D02*
X0076041Y0197227D01*
X0075831Y0198826D02*
X0073831Y0198826D01*
X0073831Y0200424D02*
X0075831Y0200424D01*
X0075831Y0202023D02*
X0073831Y0202023D01*
X0073831Y0203621D02*
X0075831Y0203621D01*
X0076119Y0205220D02*
X0073544Y0205220D01*
X0072399Y0206818D02*
X0077264Y0206818D01*
X0079831Y0203729D02*
X0080698Y0204713D01*
X0086603Y0210619D01*
X0100383Y0210619D01*
X0110225Y0220461D01*
X0111096Y0218008D02*
X0117441Y0218008D01*
X0115843Y0219606D02*
X0112685Y0219606D01*
X0112731Y0221205D02*
X0114244Y0221205D01*
X0107719Y0221205D02*
X0045896Y0221205D01*
X0045896Y0219606D02*
X0106259Y0219606D01*
X0104660Y0218008D02*
X0045896Y0218008D01*
X0045896Y0216409D02*
X0103062Y0216409D01*
X0101463Y0214811D02*
X0045896Y0214811D01*
X0045896Y0213212D02*
X0099865Y0213212D01*
X0100383Y0210619D02*
X0100383Y0185028D01*
X0100619Y0184910D01*
X0096619Y0184439D02*
X0094619Y0184439D01*
X0094619Y0182841D02*
X0096619Y0182841D01*
X0096732Y0181242D02*
X0094506Y0181242D01*
X0093609Y0179644D02*
X0097629Y0179644D01*
X0096619Y0186038D02*
X0094619Y0186038D01*
X0094619Y0187636D02*
X0096619Y0187636D01*
X0097004Y0189235D02*
X0094234Y0189235D01*
X0092953Y0190833D02*
X0098183Y0190833D01*
X0098183Y0192432D02*
X0090772Y0192432D01*
X0090555Y0194030D02*
X0098183Y0194030D01*
X0090540Y0188965D02*
X0090540Y0185028D01*
X0090619Y0184910D01*
X0086619Y0184439D02*
X0084619Y0184439D01*
X0084619Y0182841D02*
X0086619Y0182841D01*
X0086732Y0181242D02*
X0084506Y0181242D01*
X0083609Y0179644D02*
X0087629Y0179644D01*
X0086619Y0186038D02*
X0084619Y0186038D01*
X0084619Y0187636D02*
X0086619Y0187636D01*
X0087004Y0189235D02*
X0084234Y0189235D01*
X0088572Y0190934D02*
X0088572Y0192902D01*
X0068887Y0192902D01*
X0064950Y0196839D01*
X0064950Y0198808D01*
X0061013Y0202745D01*
X0059831Y0203729D01*
X0056119Y0205220D02*
X0053544Y0205220D01*
X0053831Y0203621D02*
X0055831Y0203621D01*
X0055831Y0202023D02*
X0053831Y0202023D01*
X0053831Y0200424D02*
X0055831Y0200424D01*
X0055831Y0198826D02*
X0053831Y0198826D01*
X0053622Y0197227D02*
X0056041Y0197227D01*
X0057075Y0195629D02*
X0052588Y0195629D01*
X0049412Y0192432D02*
X0066246Y0192432D01*
X0064647Y0194030D02*
X0047865Y0194030D01*
X0051011Y0190833D02*
X0057719Y0190833D01*
X0056559Y0189235D02*
X0052609Y0189235D01*
X0054208Y0187636D02*
X0056219Y0187636D01*
X0056219Y0186038D02*
X0055535Y0186038D01*
X0055739Y0184439D02*
X0056219Y0184439D01*
X0056219Y0182841D02*
X0055739Y0182841D01*
X0050539Y0182841D02*
X0027780Y0182841D01*
X0027780Y0184439D02*
X0050051Y0184439D01*
X0048452Y0186038D02*
X0027780Y0186038D01*
X0027780Y0187636D02*
X0046854Y0187636D01*
X0045255Y0189235D02*
X0027780Y0189235D01*
X0027780Y0190833D02*
X0043657Y0190833D01*
X0042665Y0192432D02*
X0027780Y0192432D01*
X0027780Y0194030D02*
X0042665Y0194030D01*
X0042665Y0195629D02*
X0042588Y0195629D01*
X0037075Y0195629D02*
X0032588Y0195629D01*
X0033622Y0197227D02*
X0036041Y0197227D01*
X0035831Y0198826D02*
X0033831Y0198826D01*
X0033831Y0200424D02*
X0035831Y0200424D01*
X0035831Y0202023D02*
X0033831Y0202023D01*
X0033831Y0203621D02*
X0035831Y0203621D01*
X0036119Y0205220D02*
X0033544Y0205220D01*
X0032399Y0206818D02*
X0037264Y0206818D01*
X0040696Y0208417D02*
X0027780Y0208417D01*
X0027780Y0210015D02*
X0040696Y0210015D01*
X0040696Y0211614D02*
X0027780Y0211614D01*
X0027780Y0213212D02*
X0040696Y0213212D01*
X0040696Y0214811D02*
X0027780Y0214811D01*
X0027780Y0216409D02*
X0040696Y0216409D01*
X0040696Y0218008D02*
X0028206Y0218008D01*
X0029804Y0219606D02*
X0040696Y0219606D01*
X0040696Y0221205D02*
X0031403Y0221205D01*
X0033001Y0222803D02*
X0040696Y0222803D01*
X0040696Y0224402D02*
X0034600Y0224402D01*
X0036198Y0226001D02*
X0040696Y0226001D01*
X0040696Y0227599D02*
X0037797Y0227599D01*
X0039395Y0229198D02*
X0040696Y0229198D01*
X0039359Y0232272D02*
X0039831Y0233729D01*
X0039359Y0232272D02*
X0025580Y0218493D01*
X0025580Y0102351D01*
X0037622Y0102915D02*
X0045526Y0102915D01*
X0043928Y0104514D02*
X0037622Y0104514D01*
X0037622Y0106112D02*
X0042329Y0106112D01*
X0040731Y0107711D02*
X0037622Y0107711D01*
X0037622Y0109309D02*
X0038521Y0109309D01*
X0037622Y0101317D02*
X0047125Y0101317D01*
X0046953Y0107711D02*
X0082435Y0107711D01*
X0082435Y0109309D02*
X0081142Y0109309D01*
X0076408Y0110908D02*
X0073255Y0110908D01*
X0073831Y0112506D02*
X0075831Y0112506D01*
X0075831Y0114105D02*
X0073831Y0114105D01*
X0073831Y0115703D02*
X0075831Y0115703D01*
X0075831Y0117302D02*
X0073831Y0117302D01*
X0073831Y0118900D02*
X0075831Y0118900D01*
X0076414Y0120499D02*
X0073249Y0120499D01*
X0066414Y0120499D02*
X0063249Y0120499D01*
X0063831Y0118900D02*
X0065831Y0118900D01*
X0065831Y0117302D02*
X0063831Y0117302D01*
X0063831Y0115703D02*
X0065831Y0115703D01*
X0065831Y0114105D02*
X0063831Y0114105D01*
X0063831Y0112506D02*
X0065831Y0112506D01*
X0066408Y0110908D02*
X0063255Y0110908D01*
X0056408Y0110908D02*
X0053255Y0110908D01*
X0053831Y0112506D02*
X0055831Y0112506D01*
X0055831Y0114105D02*
X0053831Y0114105D01*
X0053831Y0115703D02*
X0055831Y0115703D01*
X0055831Y0117302D02*
X0053831Y0117302D01*
X0053831Y0118900D02*
X0055831Y0118900D01*
X0056414Y0120499D02*
X0053249Y0120499D01*
X0051063Y0144476D02*
X0058600Y0144476D01*
X0056422Y0146075D02*
X0053241Y0146075D01*
X0049831Y0148296D02*
X0049202Y0149595D01*
X0049202Y0173217D01*
X0046602Y0173250D02*
X0027780Y0173250D01*
X0027780Y0174848D02*
X0047155Y0174848D01*
X0047002Y0171651D02*
X0027780Y0171651D01*
X0027780Y0170053D02*
X0047002Y0170053D01*
X0047002Y0168454D02*
X0027780Y0168454D01*
X0027780Y0166856D02*
X0047002Y0166856D01*
X0047002Y0165257D02*
X0027780Y0165257D01*
X0027780Y0163659D02*
X0047002Y0163659D01*
X0047002Y0157265D02*
X0041186Y0157265D01*
X0043262Y0155666D02*
X0046401Y0155666D01*
X0045831Y0154068D02*
X0043831Y0154068D01*
X0043831Y0152469D02*
X0045831Y0152469D01*
X0045831Y0150870D02*
X0043831Y0150870D01*
X0043831Y0149272D02*
X0045831Y0149272D01*
X0045831Y0147673D02*
X0043831Y0147673D01*
X0043241Y0146075D02*
X0046422Y0146075D01*
X0048600Y0144476D02*
X0041063Y0144476D01*
X0039359Y0147627D02*
X0039831Y0148296D01*
X0039359Y0147627D02*
X0035422Y0143690D01*
X0019674Y0147627D02*
X0019831Y0148296D01*
X0019674Y0147627D02*
X0017706Y0145658D01*
X0017706Y0125973D01*
X0013769Y0122036D01*
X0013769Y0110225D01*
X0013600Y0125294D02*
X0013915Y0125294D01*
X0013600Y0126893D02*
X0015506Y0126893D01*
X0015506Y0128491D02*
X0013600Y0128491D01*
X0013600Y0130090D02*
X0015506Y0130090D01*
X0015506Y0131688D02*
X0013600Y0131688D01*
X0013600Y0133287D02*
X0015506Y0133287D01*
X0015506Y0134885D02*
X0013600Y0134885D01*
X0013600Y0136484D02*
X0015506Y0136484D01*
X0015506Y0138082D02*
X0013600Y0138082D01*
X0013600Y0139681D02*
X0015506Y0139681D01*
X0015506Y0141279D02*
X0013600Y0141279D01*
X0013600Y0142878D02*
X0015506Y0142878D01*
X0015506Y0144476D02*
X0013600Y0144476D01*
X0013600Y0146075D02*
X0015506Y0146075D01*
X0015831Y0147673D02*
X0013600Y0147673D01*
X0013600Y0149272D02*
X0015831Y0149272D01*
X0015831Y0150870D02*
X0013600Y0150870D01*
X0013600Y0152469D02*
X0015831Y0152469D01*
X0015831Y0154068D02*
X0013600Y0154068D01*
X0013600Y0155666D02*
X0016401Y0155666D01*
X0018477Y0157265D02*
X0013600Y0157265D01*
X0013600Y0158863D02*
X0023380Y0158863D01*
X0023380Y0157265D02*
X0021186Y0157265D01*
X0023262Y0155666D02*
X0023380Y0155666D01*
X0023380Y0160462D02*
X0013600Y0160462D01*
X0013600Y0162060D02*
X0023380Y0162060D01*
X0023380Y0163659D02*
X0013600Y0163659D01*
X0013600Y0165257D02*
X0023380Y0165257D01*
X0023380Y0166856D02*
X0013600Y0166856D01*
X0013600Y0168454D02*
X0023380Y0168454D01*
X0023380Y0170053D02*
X0013600Y0170053D01*
X0013600Y0171651D02*
X0023380Y0171651D01*
X0023380Y0173250D02*
X0013600Y0173250D01*
X0013600Y0174848D02*
X0023380Y0174848D01*
X0023380Y0176447D02*
X0013600Y0176447D01*
X0013600Y0178045D02*
X0023380Y0178045D01*
X0023380Y0179644D02*
X0013600Y0179644D01*
X0013600Y0181242D02*
X0023380Y0181242D01*
X0023380Y0182841D02*
X0013600Y0182841D01*
X0013600Y0184439D02*
X0023380Y0184439D01*
X0023380Y0186038D02*
X0013600Y0186038D01*
X0013600Y0187636D02*
X0023380Y0187636D01*
X0023380Y0189235D02*
X0013600Y0189235D01*
X0013600Y0190833D02*
X0023380Y0190833D01*
X0023380Y0192432D02*
X0013600Y0192432D01*
X0013600Y0194030D02*
X0023380Y0194030D01*
X0023380Y0195629D02*
X0022588Y0195629D01*
X0017075Y0195629D02*
X0013600Y0195629D01*
X0013600Y0197227D02*
X0016041Y0197227D01*
X0015831Y0198826D02*
X0013600Y0198826D01*
X0013600Y0200424D02*
X0015831Y0200424D01*
X0015831Y0202023D02*
X0013600Y0202023D01*
X0013600Y0203621D02*
X0015831Y0203621D01*
X0016119Y0205220D02*
X0013600Y0205220D01*
X0013600Y0206818D02*
X0017264Y0206818D01*
X0013600Y0208417D02*
X0023380Y0208417D01*
X0023380Y0210015D02*
X0013600Y0210015D01*
X0013600Y0211614D02*
X0023380Y0211614D01*
X0023380Y0213212D02*
X0013600Y0213212D01*
X0013600Y0214811D02*
X0023380Y0214811D01*
X0023380Y0216409D02*
X0013600Y0216409D01*
X0013600Y0218008D02*
X0023380Y0218008D01*
X0023582Y0219606D02*
X0013600Y0219606D01*
X0013600Y0221205D02*
X0025180Y0221205D01*
X0026779Y0222803D02*
X0013600Y0222803D01*
X0013600Y0224402D02*
X0028377Y0224402D01*
X0029976Y0226001D02*
X0013600Y0226001D01*
X0013600Y0227599D02*
X0031574Y0227599D01*
X0033173Y0229198D02*
X0013600Y0229198D01*
X0013600Y0230796D02*
X0017108Y0230796D01*
X0017566Y0230338D02*
X0019036Y0229729D01*
X0020627Y0229729D01*
X0022097Y0230338D01*
X0023223Y0231463D01*
X0023831Y0232933D01*
X0023831Y0239725D01*
X0023223Y0241195D01*
X0022097Y0242320D01*
X0020627Y0242929D01*
X0019036Y0242929D01*
X0017566Y0242320D01*
X0016440Y0241195D01*
X0015831Y0239725D01*
X0015831Y0232933D01*
X0016440Y0231463D01*
X0017566Y0230338D01*
X0016055Y0232395D02*
X0013600Y0232395D01*
X0013600Y0233993D02*
X0015831Y0233993D01*
X0015831Y0235592D02*
X0013600Y0235592D01*
X0013600Y0237190D02*
X0015831Y0237190D01*
X0015831Y0238789D02*
X0013600Y0238789D01*
X0013600Y0240387D02*
X0016106Y0240387D01*
X0017231Y0241986D02*
X0013600Y0241986D01*
X0013600Y0243584D02*
X0042665Y0243584D01*
X0042665Y0241986D02*
X0042432Y0241986D01*
X0042906Y0245183D02*
X0013600Y0245183D01*
X0013600Y0246781D02*
X0044285Y0246781D01*
X0045884Y0248380D02*
X0013600Y0248380D01*
X0013600Y0249978D02*
X0047482Y0249978D01*
X0049081Y0251577D02*
X0013600Y0251577D01*
X0013600Y0253175D02*
X0050679Y0253175D01*
X0051855Y0254774D02*
X0013600Y0254774D01*
X0013600Y0256372D02*
X0052049Y0256372D01*
X0051639Y0246781D02*
X0053326Y0246781D01*
X0037231Y0241986D02*
X0032432Y0241986D01*
X0032097Y0242320D02*
X0030627Y0242929D01*
X0029036Y0242929D01*
X0027566Y0242320D01*
X0026440Y0241195D01*
X0025831Y0239725D01*
X0025831Y0232933D01*
X0026440Y0231463D01*
X0027566Y0230338D01*
X0029036Y0229729D01*
X0030627Y0229729D01*
X0032097Y0230338D01*
X0033223Y0231463D01*
X0033831Y0232933D01*
X0033831Y0239725D01*
X0033223Y0241195D01*
X0032097Y0242320D01*
X0033557Y0240387D02*
X0036106Y0240387D01*
X0035831Y0238789D02*
X0033831Y0238789D01*
X0033831Y0237190D02*
X0035831Y0237190D01*
X0035831Y0235592D02*
X0033831Y0235592D01*
X0033831Y0233993D02*
X0035831Y0233993D01*
X0036055Y0232395D02*
X0033608Y0232395D01*
X0032555Y0230796D02*
X0034771Y0230796D01*
X0027108Y0230796D02*
X0022555Y0230796D01*
X0023608Y0232395D02*
X0026055Y0232395D01*
X0025831Y0233993D02*
X0023831Y0233993D01*
X0023831Y0235592D02*
X0025831Y0235592D01*
X0025831Y0237190D02*
X0023831Y0237190D01*
X0023831Y0238789D02*
X0025831Y0238789D01*
X0026106Y0240387D02*
X0023557Y0240387D01*
X0022432Y0241986D02*
X0027231Y0241986D01*
X0045896Y0211614D02*
X0084487Y0211614D01*
X0082888Y0210015D02*
X0045896Y0210015D01*
X0045896Y0208417D02*
X0081290Y0208417D01*
X0067264Y0206818D02*
X0062399Y0206818D01*
X0063544Y0205220D02*
X0066119Y0205220D01*
X0065831Y0203621D02*
X0063831Y0203621D01*
X0064846Y0202023D02*
X0065831Y0202023D01*
X0063049Y0195629D02*
X0062588Y0195629D01*
X0074234Y0189235D02*
X0077004Y0189235D01*
X0076619Y0187636D02*
X0074619Y0187636D01*
X0074619Y0186038D02*
X0076619Y0186038D01*
X0088572Y0190934D02*
X0090540Y0188965D01*
X0110225Y0181091D02*
X0112194Y0179123D01*
X0113568Y0168454D02*
X0116017Y0168454D01*
X0115792Y0166856D02*
X0113792Y0166856D01*
X0113792Y0165257D02*
X0115792Y0165257D01*
X0115792Y0163659D02*
X0113792Y0163659D01*
X0113792Y0162060D02*
X0115792Y0162060D01*
X0116065Y0160462D02*
X0113519Y0160462D01*
X0112395Y0158863D02*
X0117189Y0158863D01*
X0118477Y0157265D02*
X0111186Y0157265D01*
X0113262Y0155666D02*
X0116401Y0155666D01*
X0115831Y0154068D02*
X0113831Y0154068D01*
X0113831Y0152469D02*
X0115831Y0152469D01*
X0115831Y0150870D02*
X0113831Y0150870D01*
X0113831Y0149272D02*
X0115831Y0149272D01*
X0108600Y0144476D02*
X0104551Y0144476D01*
X0104551Y0146075D02*
X0106422Y0146075D01*
X0145658Y0143690D02*
X0145658Y0076761D01*
X0115899Y0053361D02*
X0104551Y0053361D01*
X0104551Y0051763D02*
X0115899Y0051763D01*
X0115899Y0050164D02*
X0104551Y0050164D01*
X0104551Y0048566D02*
X0115899Y0048566D01*
X0115899Y0046967D02*
X0104551Y0046967D01*
X0104551Y0045369D02*
X0115899Y0045369D01*
X0115899Y0043770D02*
X0104551Y0043770D01*
X0104551Y0042172D02*
X0115899Y0042172D01*
X0115899Y0040573D02*
X0104551Y0040573D01*
X0104551Y0038975D02*
X0115899Y0038975D01*
X0115306Y0037376D02*
X0107831Y0037376D01*
X0109267Y0035778D02*
X0113870Y0035778D01*
X0113208Y0034179D02*
X0109929Y0034179D01*
X0110118Y0032581D02*
X0113019Y0032581D01*
X0113019Y0030982D02*
X0110118Y0030982D01*
X0110118Y0029384D02*
X0113019Y0029384D01*
X0057548Y0064950D02*
X0057076Y0064950D01*
X0057076Y0072824D01*
X0055107Y0074792D01*
X0091572Y0075740D02*
X0092277Y0075740D01*
X0161107Y0122097D02*
X0163143Y0122097D01*
X0145658Y0143690D02*
X0149595Y0147627D01*
X0149831Y0148296D01*
X0151564Y0179123D02*
X0169280Y0179123D01*
X0169280Y0202745D01*
X0169831Y0203729D01*
X0172588Y0195629D02*
X0172986Y0195629D01*
X0172986Y0194030D02*
X0171480Y0194030D01*
X0171480Y0192432D02*
X0172986Y0192432D01*
X0172986Y0190833D02*
X0171480Y0190833D01*
X0171480Y0189235D02*
X0172986Y0189235D01*
X0172986Y0187636D02*
X0171480Y0187636D01*
X0171480Y0186038D02*
X0172986Y0186038D01*
X0172986Y0184439D02*
X0171480Y0184439D01*
X0171480Y0182841D02*
X0172986Y0182841D01*
X0172986Y0181242D02*
X0171480Y0181242D01*
X0171480Y0179644D02*
X0172986Y0179644D01*
X0172986Y0178045D02*
X0171314Y0178045D01*
X0157469Y0183060D02*
X0147627Y0192902D01*
X0147627Y0194871D01*
X0149595Y0196839D01*
X0149595Y0202745D01*
X0149831Y0203729D01*
X0147627Y0192902D02*
X0139753Y0192902D01*
X0131879Y0185028D01*
X0130619Y0184910D01*
X0140619Y0184910D02*
X0141721Y0183060D01*
X0147627Y0183060D01*
X0151564Y0179123D01*
X0093575Y0240387D02*
X0093557Y0240387D01*
X0094246Y0241986D02*
X0092432Y0241986D01*
X0057264Y0206818D02*
X0052399Y0206818D01*
X0047264Y0206818D02*
X0046837Y0206818D01*
X0023380Y0206818D02*
X0022399Y0206818D01*
X0027780Y0181242D02*
X0050539Y0181242D01*
X0050539Y0179644D02*
X0027780Y0179644D01*
X0027780Y0178045D02*
X0050539Y0178045D01*
X0050539Y0176447D02*
X0027780Y0176447D01*
X0013600Y0014997D02*
X0363701Y0014997D01*
X0363701Y0077339D02*
X0305339Y0077339D01*
X0305339Y0078937D02*
X0363701Y0078937D01*
X0363701Y0080536D02*
X0304443Y0080536D01*
X0294961Y0088529D02*
X0363701Y0088529D01*
X0363701Y0090127D02*
X0295994Y0090127D01*
X0297593Y0091726D02*
X0363701Y0091726D01*
X0363701Y0093324D02*
X0299191Y0093324D01*
X0300790Y0094923D02*
X0363701Y0094923D01*
X0363701Y0096521D02*
X0302388Y0096521D01*
X0303987Y0098120D02*
X0363701Y0098120D01*
X0363701Y0099718D02*
X0305585Y0099718D01*
X0307184Y0101317D02*
X0363701Y0101317D01*
X0363701Y0102915D02*
X0308782Y0102915D01*
X0310381Y0104514D02*
X0363701Y0104514D01*
X0363701Y0106112D02*
X0311979Y0106112D01*
X0313578Y0107711D02*
X0363701Y0107711D01*
X0363701Y0109309D02*
X0356688Y0109309D01*
X0356504Y0109216D02*
X0357173Y0109556D01*
X0357780Y0109997D01*
X0358311Y0110528D01*
X0358752Y0111135D01*
X0359093Y0111804D01*
X0359325Y0112518D01*
X0359443Y0113259D01*
X0359443Y0116419D01*
X0354858Y0116419D01*
X0354858Y0108866D01*
X0355049Y0108866D01*
X0355791Y0108984D01*
X0356504Y0109216D01*
X0354858Y0109309D02*
X0354490Y0109309D01*
X0354490Y0108866D02*
X0354490Y0116419D01*
X0354858Y0116419D01*
X0354858Y0116787D01*
X0359443Y0116787D01*
X0359443Y0119947D01*
X0359325Y0120688D01*
X0359093Y0121402D01*
X0358752Y0122071D01*
X0358311Y0122678D01*
X0357780Y0123209D01*
X0357173Y0123650D01*
X0356504Y0123991D01*
X0355791Y0124223D01*
X0355049Y0124340D01*
X0354858Y0124340D01*
X0354858Y0116787D01*
X0354490Y0116787D01*
X0354490Y0116419D01*
X0349906Y0116419D01*
X0349906Y0113259D01*
X0350023Y0112518D01*
X0350255Y0111804D01*
X0350596Y0111135D01*
X0351037Y0110528D01*
X0351568Y0109997D01*
X0352175Y0109556D01*
X0352844Y0109216D01*
X0353557Y0108984D01*
X0354299Y0108866D01*
X0354490Y0108866D01*
X0352660Y0109309D02*
X0345647Y0109309D01*
X0345543Y0109266D02*
X0347149Y0109931D01*
X0348377Y0111160D01*
X0349043Y0112766D01*
X0349043Y0120441D01*
X0348377Y0122046D01*
X0347149Y0123275D01*
X0346677Y0123470D01*
X0346677Y0140095D01*
X0347607Y0140481D01*
X0348986Y0141859D01*
X0349731Y0143660D01*
X0349731Y0145609D01*
X0348986Y0147410D01*
X0347607Y0148789D01*
X0345806Y0149535D01*
X0343857Y0149535D01*
X0342056Y0148789D01*
X0340677Y0147410D01*
X0339931Y0145609D01*
X0339931Y0143660D01*
X0340677Y0141859D01*
X0342056Y0140481D01*
X0342277Y0140389D01*
X0342277Y0123307D01*
X0342199Y0123275D01*
X0340971Y0122046D01*
X0340306Y0120441D01*
X0340306Y0112766D01*
X0340971Y0111160D01*
X0342199Y0109931D01*
X0343805Y0109266D01*
X0345543Y0109266D01*
X0343701Y0109309D02*
X0335647Y0109309D01*
X0335543Y0109266D02*
X0337149Y0109931D01*
X0338377Y0111160D01*
X0339043Y0112766D01*
X0339043Y0120441D01*
X0338377Y0122046D01*
X0337149Y0123275D01*
X0335543Y0123940D01*
X0333805Y0123940D01*
X0332199Y0123275D01*
X0330971Y0122046D01*
X0330306Y0120441D01*
X0330306Y0112766D01*
X0330971Y0111160D01*
X0332199Y0109931D01*
X0333805Y0109266D01*
X0335543Y0109266D01*
X0333701Y0109309D02*
X0315176Y0109309D01*
X0315181Y0110908D02*
X0331223Y0110908D01*
X0330413Y0112506D02*
X0315181Y0112506D01*
X0315181Y0114105D02*
X0330306Y0114105D01*
X0330306Y0115703D02*
X0315181Y0115703D01*
X0315181Y0117302D02*
X0330306Y0117302D01*
X0330306Y0118900D02*
X0315181Y0118900D01*
X0315181Y0120499D02*
X0330330Y0120499D01*
X0331022Y0122097D02*
X0315181Y0122097D01*
X0315181Y0123696D02*
X0333215Y0123696D01*
X0336133Y0123696D02*
X0342277Y0123696D01*
X0342277Y0125294D02*
X0315181Y0125294D01*
X0315181Y0126893D02*
X0342277Y0126893D01*
X0342277Y0128491D02*
X0315181Y0128491D01*
X0315181Y0130090D02*
X0342277Y0130090D01*
X0342277Y0131688D02*
X0315902Y0131688D01*
X0317500Y0133287D02*
X0342277Y0133287D01*
X0342277Y0134885D02*
X0319099Y0134885D01*
X0320698Y0136484D02*
X0342277Y0136484D01*
X0342277Y0138082D02*
X0322296Y0138082D01*
X0323895Y0139681D02*
X0342277Y0139681D01*
X0341257Y0141279D02*
X0338406Y0141279D01*
X0338986Y0141859D02*
X0339731Y0143660D01*
X0339731Y0145609D01*
X0338986Y0147410D01*
X0337607Y0148789D01*
X0335806Y0149535D01*
X0333857Y0149535D01*
X0332056Y0148789D01*
X0330677Y0147410D01*
X0329931Y0145609D01*
X0329931Y0143660D01*
X0330677Y0141859D01*
X0332056Y0140481D01*
X0333857Y0139735D01*
X0335806Y0139735D01*
X0337607Y0140481D01*
X0338986Y0141859D01*
X0339408Y0142878D02*
X0340255Y0142878D01*
X0339931Y0144476D02*
X0339731Y0144476D01*
X0339539Y0146075D02*
X0340124Y0146075D01*
X0340941Y0147673D02*
X0338722Y0147673D01*
X0336440Y0149272D02*
X0343223Y0149272D01*
X0346440Y0149272D02*
X0353223Y0149272D01*
X0353857Y0149535D02*
X0352056Y0148789D01*
X0350677Y0147410D01*
X0349931Y0145609D01*
X0349931Y0143660D01*
X0350677Y0141859D01*
X0352056Y0140481D01*
X0353857Y0139735D01*
X0355806Y0139735D01*
X0357607Y0140481D01*
X0358986Y0141859D01*
X0359731Y0143660D01*
X0359731Y0145609D01*
X0358986Y0147410D01*
X0357607Y0148789D01*
X0355806Y0149535D01*
X0353857Y0149535D01*
X0356440Y0149272D02*
X0363701Y0149272D01*
X0363701Y0147673D02*
X0358722Y0147673D01*
X0359539Y0146075D02*
X0363701Y0146075D01*
X0363701Y0144476D02*
X0359731Y0144476D01*
X0359408Y0142878D02*
X0363701Y0142878D01*
X0363701Y0141279D02*
X0358406Y0141279D01*
X0363701Y0139681D02*
X0346677Y0139681D01*
X0346677Y0138082D02*
X0363701Y0138082D01*
X0363701Y0136484D02*
X0346677Y0136484D01*
X0346677Y0134885D02*
X0363701Y0134885D01*
X0363701Y0133287D02*
X0346677Y0133287D01*
X0346677Y0131688D02*
X0363701Y0131688D01*
X0363701Y0130090D02*
X0346677Y0130090D01*
X0346677Y0128491D02*
X0363701Y0128491D01*
X0363701Y0126893D02*
X0346677Y0126893D01*
X0346677Y0125294D02*
X0363701Y0125294D01*
X0363701Y0123696D02*
X0357083Y0123696D01*
X0354858Y0123696D02*
X0354490Y0123696D01*
X0354490Y0124340D02*
X0354299Y0124340D01*
X0353557Y0124223D01*
X0352844Y0123991D01*
X0352175Y0123650D01*
X0351568Y0123209D01*
X0351037Y0122678D01*
X0350596Y0122071D01*
X0350255Y0121402D01*
X0350023Y0120688D01*
X0349906Y0119947D01*
X0349906Y0116787D01*
X0354490Y0116787D01*
X0354490Y0124340D01*
X0354490Y0122097D02*
X0354858Y0122097D01*
X0354858Y0120499D02*
X0354490Y0120499D01*
X0354490Y0118900D02*
X0354858Y0118900D01*
X0354858Y0117302D02*
X0354490Y0117302D01*
X0354490Y0115703D02*
X0354858Y0115703D01*
X0354858Y0114105D02*
X0354490Y0114105D01*
X0354490Y0112506D02*
X0354858Y0112506D01*
X0354858Y0110908D02*
X0354490Y0110908D01*
X0350761Y0110908D02*
X0348125Y0110908D01*
X0348935Y0112506D02*
X0350027Y0112506D01*
X0349906Y0114105D02*
X0349043Y0114105D01*
X0349043Y0115703D02*
X0349906Y0115703D01*
X0349906Y0117302D02*
X0349043Y0117302D01*
X0349043Y0118900D02*
X0349906Y0118900D01*
X0349993Y0120499D02*
X0349018Y0120499D01*
X0348326Y0122097D02*
X0350615Y0122097D01*
X0352265Y0123696D02*
X0346677Y0123696D01*
X0341022Y0122097D02*
X0338326Y0122097D01*
X0339018Y0120499D02*
X0340330Y0120499D01*
X0340306Y0118900D02*
X0339043Y0118900D01*
X0339043Y0117302D02*
X0340306Y0117302D01*
X0340306Y0115703D02*
X0339043Y0115703D01*
X0339043Y0114105D02*
X0340306Y0114105D01*
X0340413Y0112506D02*
X0338935Y0112506D01*
X0338125Y0110908D02*
X0341223Y0110908D01*
X0344674Y0116603D02*
X0344477Y0118099D01*
X0344477Y0143690D01*
X0344831Y0144635D01*
X0349408Y0142878D02*
X0350255Y0142878D01*
X0349931Y0144476D02*
X0349731Y0144476D01*
X0349539Y0146075D02*
X0350124Y0146075D01*
X0350941Y0147673D02*
X0348722Y0147673D01*
X0348406Y0141279D02*
X0351257Y0141279D01*
X0333223Y0149272D02*
X0326440Y0149272D01*
X0328722Y0147673D02*
X0330941Y0147673D01*
X0330124Y0146075D02*
X0329539Y0146075D01*
X0329731Y0144476D02*
X0329931Y0144476D01*
X0330255Y0142878D02*
X0329408Y0142878D01*
X0328406Y0141279D02*
X0331257Y0141279D01*
X0324792Y0143690D02*
X0324831Y0144635D01*
X0324792Y0143690D02*
X0312981Y0131879D01*
X0312981Y0110225D01*
X0293296Y0090540D01*
X0304490Y0109309D02*
X0304858Y0109309D01*
X0304858Y0110908D02*
X0304490Y0110908D01*
X0304490Y0112506D02*
X0304858Y0112506D01*
X0304858Y0114105D02*
X0304490Y0114105D01*
X0304490Y0115703D02*
X0304858Y0115703D01*
X0304858Y0117302D02*
X0304490Y0117302D01*
X0304490Y0118900D02*
X0304858Y0118900D01*
X0304858Y0120499D02*
X0304490Y0120499D01*
X0304490Y0122097D02*
X0304858Y0122097D01*
X0304858Y0123696D02*
X0304490Y0123696D01*
X0300894Y0128491D02*
X0310781Y0128491D01*
X0310781Y0126893D02*
X0299295Y0126893D01*
X0302492Y0130090D02*
X0310781Y0130090D01*
X0310781Y0131688D02*
X0304091Y0131688D01*
X0305689Y0133287D02*
X0311278Y0133287D01*
X0312876Y0134885D02*
X0307288Y0134885D01*
X0308886Y0136484D02*
X0314475Y0136484D01*
X0316073Y0138082D02*
X0310485Y0138082D01*
X0312084Y0139681D02*
X0317672Y0139681D01*
X0318406Y0141279D02*
X0319271Y0141279D01*
X0319408Y0142878D02*
X0320255Y0142878D01*
X0319931Y0144476D02*
X0319731Y0144476D01*
X0319539Y0146075D02*
X0320124Y0146075D01*
X0320941Y0147673D02*
X0318722Y0147673D01*
X0316440Y0149272D02*
X0323223Y0149272D01*
X0358733Y0122097D02*
X0363701Y0122097D01*
X0363701Y0120499D02*
X0359355Y0120499D01*
X0359443Y0118900D02*
X0363701Y0118900D01*
X0363701Y0117302D02*
X0359443Y0117302D01*
X0359443Y0115703D02*
X0363701Y0115703D01*
X0363701Y0114105D02*
X0359443Y0114105D01*
X0359321Y0112506D02*
X0363701Y0112506D01*
X0363701Y0110908D02*
X0358587Y0110908D01*
X0281257Y0141279D02*
X0278406Y0141279D01*
X0279408Y0142878D02*
X0280255Y0142878D01*
X0279931Y0144476D02*
X0279731Y0144476D01*
X0279539Y0146075D02*
X0280124Y0146075D01*
X0280941Y0147673D02*
X0278722Y0147673D01*
X0270941Y0147673D02*
X0268722Y0147673D01*
X0269539Y0146075D02*
X0270124Y0146075D01*
X0269931Y0144476D02*
X0269731Y0144476D01*
X0269408Y0142878D02*
X0270255Y0142878D01*
X0271257Y0141279D02*
X0268406Y0141279D01*
X0261257Y0141279D02*
X0258406Y0141279D01*
X0259408Y0142878D02*
X0260255Y0142878D01*
X0259931Y0144476D02*
X0259731Y0144476D01*
X0259539Y0146075D02*
X0260124Y0146075D01*
X0260941Y0147673D02*
X0258722Y0147673D01*
D18*
X0269674Y0179123D03*
X0198808Y0200776D03*
X0185028Y0212587D03*
X0190934Y0224398D03*
X0157469Y0183060D03*
X0151564Y0175186D03*
X0125973Y0173217D03*
X0129910Y0129910D03*
X0118099Y0129910D03*
X0161406Y0129910D03*
X0179123Y0127942D03*
X0212587Y0108257D03*
X0240146Y0090540D03*
X0246052Y0082666D03*
X0253926Y0100383D03*
X0269674Y0104320D03*
X0275580Y0112194D03*
X0293296Y0090540D03*
X0267706Y0082666D03*
X0098414Y0076761D03*
X0025580Y0102351D03*
X0049202Y0173217D03*
X0057076Y0179123D03*
X0110225Y0220461D03*
X0043296Y0228335D03*
D19*
X0043296Y0206682D01*
X0045265Y0204713D01*
X0045265Y0192902D01*
X0053139Y0185028D01*
X0053139Y0165343D01*
X0059044Y0165343D01*
X0059792Y0164517D01*
X0043296Y0228335D02*
X0043296Y0230304D01*
X0045265Y0232272D01*
X0045265Y0244083D01*
X0055107Y0253926D01*
X0055855Y0252509D01*
X0179831Y0203729D02*
X0181091Y0202745D01*
X0186997Y0196839D01*
X0186997Y0120068D01*
X0183060Y0116131D01*
X0181091Y0116131D01*
X0181091Y0118099D01*
X0179831Y0118296D01*
X0214831Y0204635D02*
X0216524Y0204713D01*
X0216524Y0208650D01*
X0248020Y0240146D01*
X0283454Y0240146D01*
X0283769Y0240619D01*
M02*
