G75*
%MOIN*%
%OFA0B0*%
%FSLAX25Y25*%
%IPPOS*%
%LPD*%
%AMOC8*
5,1,8,0,0,1.08239X$1,22.5*
%
%ADD10C,0.00000*%
%ADD11C,0.06337*%
%ADD12C,0.05600*%
%ADD13R,0.07400X0.07400*%
%ADD14C,0.07400*%
%ADD15C,0.10300*%
%ADD16C,0.10439*%
D10*
X0011800Y0011800D02*
X0011800Y0262076D01*
X0365501Y0262076D01*
X0365501Y0011800D01*
X0011800Y0011800D01*
D11*
X0284674Y0113635D02*
X0284674Y0119572D01*
X0294674Y0119572D02*
X0294674Y0113635D01*
X0304674Y0113635D02*
X0304674Y0119572D01*
X0334674Y0119572D02*
X0334674Y0113635D01*
X0344674Y0113635D02*
X0344674Y0119572D01*
X0354674Y0119572D02*
X0354674Y0113635D01*
X0353769Y0237650D02*
X0353769Y0243587D01*
X0343769Y0243587D02*
X0343769Y0237650D01*
X0333769Y0237650D02*
X0333769Y0243587D01*
X0303769Y0243587D02*
X0303769Y0237650D01*
X0293769Y0237650D02*
X0293769Y0243587D01*
X0283769Y0243587D02*
X0283769Y0237650D01*
D12*
X0179831Y0238929D02*
X0179831Y0233729D01*
X0169831Y0233729D02*
X0169831Y0238929D01*
X0159831Y0238929D02*
X0159831Y0233729D01*
X0149831Y0233729D02*
X0149831Y0238929D01*
X0139831Y0238929D02*
X0139831Y0233729D01*
X0129831Y0233729D02*
X0129831Y0238929D01*
X0119831Y0238929D02*
X0119831Y0233729D01*
X0109831Y0233729D02*
X0109831Y0238929D01*
X0105855Y0249909D02*
X0105855Y0255109D01*
X0095855Y0255109D02*
X0095855Y0249909D01*
X0085855Y0249909D02*
X0085855Y0255109D01*
X0075855Y0255109D02*
X0075855Y0249909D01*
X0065855Y0249909D02*
X0065855Y0255109D01*
X0055855Y0255109D02*
X0055855Y0249909D01*
X0059831Y0238929D02*
X0059831Y0233729D01*
X0049831Y0233729D02*
X0049831Y0238929D01*
X0039831Y0238929D02*
X0039831Y0233729D01*
X0029831Y0233729D02*
X0029831Y0238929D01*
X0019831Y0238929D02*
X0019831Y0233729D01*
X0019831Y0203729D02*
X0019831Y0198529D01*
X0029831Y0198529D02*
X0029831Y0203729D01*
X0039831Y0203729D02*
X0039831Y0198529D01*
X0049831Y0198529D02*
X0049831Y0203729D01*
X0059831Y0203729D02*
X0059831Y0198529D01*
X0069831Y0198529D02*
X0069831Y0203729D01*
X0079831Y0203729D02*
X0079831Y0198529D01*
X0089831Y0198529D02*
X0089831Y0203729D01*
X0090619Y0187510D02*
X0090619Y0182310D01*
X0080619Y0182310D02*
X0080619Y0187510D01*
X0070619Y0187510D02*
X0070619Y0182310D01*
X0060619Y0182310D02*
X0060619Y0187510D01*
X0059792Y0167117D02*
X0059792Y0161917D01*
X0059831Y0153496D02*
X0059831Y0148296D01*
X0049831Y0148296D02*
X0049831Y0153496D01*
X0039831Y0153496D02*
X0039831Y0148296D01*
X0029831Y0148296D02*
X0029831Y0153496D01*
X0019831Y0153496D02*
X0019831Y0148296D01*
X0019831Y0118296D02*
X0019831Y0113096D01*
X0029831Y0113096D02*
X0029831Y0118296D01*
X0039831Y0118296D02*
X0039831Y0113096D01*
X0049831Y0113096D02*
X0049831Y0118296D01*
X0059831Y0118296D02*
X0059831Y0113096D01*
X0069831Y0113096D02*
X0069831Y0118296D01*
X0079831Y0118296D02*
X0079831Y0113096D01*
X0089831Y0113096D02*
X0089831Y0118296D01*
X0109831Y0118296D02*
X0109831Y0113096D01*
X0119831Y0113096D02*
X0119831Y0118296D01*
X0129831Y0118296D02*
X0129831Y0113096D01*
X0139831Y0113096D02*
X0139831Y0118296D01*
X0149831Y0118296D02*
X0149831Y0113096D01*
X0159831Y0113096D02*
X0159831Y0118296D01*
X0169831Y0118296D02*
X0169831Y0113096D01*
X0179831Y0113096D02*
X0179831Y0118296D01*
X0179831Y0148296D02*
X0179831Y0153496D01*
X0169831Y0153496D02*
X0169831Y0148296D01*
X0159831Y0148296D02*
X0159831Y0153496D01*
X0149831Y0153496D02*
X0149831Y0148296D01*
X0139831Y0148296D02*
X0139831Y0153496D01*
X0129831Y0153496D02*
X0129831Y0148296D01*
X0119831Y0148296D02*
X0119831Y0153496D01*
X0109831Y0153496D02*
X0109831Y0148296D01*
X0109792Y0161917D02*
X0109792Y0167117D01*
X0099792Y0167117D02*
X0099792Y0161917D01*
X0089792Y0161917D02*
X0089792Y0167117D01*
X0079792Y0167117D02*
X0079792Y0161917D01*
X0079831Y0153496D02*
X0079831Y0148296D01*
X0089831Y0148296D02*
X0089831Y0153496D01*
X0069831Y0153496D02*
X0069831Y0148296D01*
X0069792Y0161917D02*
X0069792Y0167117D01*
X0100619Y0182310D02*
X0100619Y0187510D01*
X0110619Y0187510D02*
X0110619Y0182310D01*
X0120619Y0182310D02*
X0120619Y0187510D01*
X0130619Y0187510D02*
X0130619Y0182310D01*
X0140619Y0182310D02*
X0140619Y0187510D01*
X0139831Y0198529D02*
X0139831Y0203729D01*
X0129831Y0203729D02*
X0129831Y0198529D01*
X0119831Y0198529D02*
X0119831Y0203729D01*
X0109831Y0203729D02*
X0109831Y0198529D01*
X0149831Y0198529D02*
X0149831Y0203729D01*
X0159831Y0203729D02*
X0159831Y0198529D01*
X0169831Y0198529D02*
X0169831Y0203729D01*
X0179831Y0203729D02*
X0179831Y0198529D01*
X0139792Y0167117D02*
X0139792Y0161917D01*
X0129792Y0161917D02*
X0129792Y0167117D01*
X0119792Y0167117D02*
X0119792Y0161917D01*
X0119202Y0100896D02*
X0119202Y0095696D01*
X0129202Y0095696D02*
X0129202Y0100896D01*
X0139202Y0100896D02*
X0139202Y0095696D01*
X0109202Y0095696D02*
X0109202Y0100896D01*
X0099202Y0100896D02*
X0099202Y0095696D01*
X0089202Y0095696D02*
X0089202Y0100896D01*
X0079202Y0100896D02*
X0079202Y0095696D01*
X0069202Y0095696D02*
X0069202Y0100896D01*
X0059202Y0100896D02*
X0059202Y0095696D01*
X0069831Y0233729D02*
X0069831Y0238929D01*
X0079831Y0238929D02*
X0079831Y0233729D01*
X0089831Y0233729D02*
X0089831Y0238929D01*
X0115855Y0249909D02*
X0115855Y0255109D01*
X0125855Y0255109D02*
X0125855Y0249909D01*
X0135855Y0249909D02*
X0135855Y0255109D01*
D13*
X0214831Y0144635D03*
D14*
X0224831Y0144635D03*
X0234831Y0144635D03*
X0244831Y0144635D03*
X0254831Y0144635D03*
X0264831Y0144635D03*
X0274831Y0144635D03*
X0284831Y0144635D03*
X0294831Y0144635D03*
X0304831Y0144635D03*
X0314831Y0144635D03*
X0324831Y0144635D03*
X0334831Y0144635D03*
X0344831Y0144635D03*
X0354831Y0144635D03*
X0354831Y0204635D03*
X0344831Y0204635D03*
X0334831Y0204635D03*
X0324831Y0204635D03*
X0314831Y0204635D03*
X0304831Y0204635D03*
X0294831Y0204635D03*
X0284831Y0204635D03*
X0274831Y0204635D03*
X0264831Y0204635D03*
X0254831Y0204635D03*
X0244831Y0204635D03*
X0234831Y0204635D03*
X0224831Y0204635D03*
X0214831Y0204635D03*
D15*
X0212431Y0032459D02*
X0212431Y0022559D01*
X0228031Y0022559D02*
X0228031Y0032459D01*
X0243631Y0032459D02*
X0243631Y0022559D01*
X0259231Y0022559D02*
X0259231Y0032459D01*
X0274831Y0032459D02*
X0274831Y0022559D01*
X0290431Y0022559D02*
X0290431Y0032459D01*
X0306031Y0032459D02*
X0306031Y0022559D01*
X0321631Y0022559D02*
X0321631Y0032459D01*
X0337231Y0032459D02*
X0337231Y0022559D01*
X0166169Y0022559D02*
X0166169Y0032459D01*
X0150569Y0032459D02*
X0150569Y0022559D01*
X0134969Y0022559D02*
X0134969Y0032459D01*
X0119369Y0032459D02*
X0119369Y0022559D01*
X0103769Y0022559D02*
X0103769Y0032459D01*
X0088169Y0032459D02*
X0088169Y0022559D01*
X0072569Y0022559D02*
X0072569Y0032459D01*
X0056969Y0032459D02*
X0056969Y0022559D01*
X0041369Y0022559D02*
X0041369Y0032459D01*
D16*
X0041957Y0059930D02*
X0041957Y0069969D01*
X0057548Y0069969D02*
X0057548Y0059930D01*
X0073139Y0059930D02*
X0073139Y0069969D01*
X0088729Y0069969D02*
X0088729Y0059930D01*
X0104320Y0059930D02*
X0104320Y0069969D01*
X0119910Y0069969D02*
X0119910Y0059930D01*
X0135501Y0059930D02*
X0135501Y0069969D01*
X0151091Y0069969D02*
X0151091Y0059930D01*
X0166682Y0059930D02*
X0166682Y0069969D01*
X0213217Y0069969D02*
X0213217Y0059930D01*
X0228808Y0059930D02*
X0228808Y0069969D01*
X0244398Y0069969D02*
X0244398Y0059930D01*
X0259989Y0059930D02*
X0259989Y0069969D01*
X0275580Y0069969D02*
X0275580Y0059930D01*
X0291170Y0059930D02*
X0291170Y0069969D01*
X0306761Y0069969D02*
X0306761Y0059930D01*
X0322351Y0059930D02*
X0322351Y0069969D01*
X0337942Y0069969D02*
X0337942Y0059930D01*
M02*
