%
M48
M72
T01C0.01200
T02C0.03200
T03C0.03600
T04C0.03937
T05C0.06600
T06C0.06693
%
T01
X98414Y76761
X118099Y129910
X129910Y129910
X161406Y129910
X179123Y127942
X212587Y108257
X240146Y90540
X246052Y82666
X253926Y100383
X269674Y104320
X275580Y112194
X293296Y90540
X267706Y82666
X151564Y175186
X157469Y183060
X125973Y173217
X185028Y212587
X198808Y200776
X190934Y224398
X110225Y220461
X57076Y179123
X49202Y173217
X43296Y228335
X25580Y102351
X269674Y179123
T02
X19831Y233729
X29831Y233729
X39831Y233729
X49831Y233729
X59831Y233729
X69831Y233729
X79831Y233729
X89831Y233729
X109831Y233729
X119831Y233729
X129831Y233729
X139831Y233729
X149831Y233729
X159831Y233729
X169831Y233729
X179831Y233729
X179831Y203729
X169831Y203729
X159831Y203729
X149831Y203729
X139831Y203729
X129831Y203729
X119831Y203729
X109831Y203729
X89831Y203729
X79831Y203729
X69831Y203729
X59831Y203729
X49831Y203729
X39831Y203729
X29831Y203729
X19831Y203729
X60619Y184910
X70619Y184910
X80619Y184910
X90619Y184910
X100619Y184910
X110619Y184910
X120619Y184910
X130619Y184910
X140619Y184910
X139792Y164517
X129792Y164517
X119792Y164517
X109792Y164517
X99792Y164517
X89792Y164517
X79792Y164517
X69792Y164517
X59792Y164517
X59831Y148296
X49831Y148296
X39831Y148296
X29831Y148296
X19831Y148296
X19831Y118296
X29831Y118296
X39831Y118296
X49831Y118296
X59831Y118296
X69831Y118296
X79831Y118296
X89831Y118296
X109831Y118296
X119831Y118296
X129831Y118296
X139831Y118296
X149831Y118296
X159831Y118296
X169831Y118296
X179831Y118296
X179831Y148296
X169831Y148296
X159831Y148296
X149831Y148296
X139831Y148296
X129831Y148296
X119831Y148296
X109831Y148296
X89831Y148296
X79831Y148296
X69831Y148296
X69202Y98296
X79202Y98296
X89202Y98296
X99202Y98296
X109202Y98296
X119202Y98296
X129202Y98296
X139202Y98296
X59202Y98296
X55855Y252509
X65855Y252509
X75855Y252509
X85855Y252509
X95855Y252509
X105855Y252509
X115855Y252509
X125855Y252509
X135855Y252509
T03
X214831Y204635
X224831Y204635
X234831Y204635
X244831Y204635
X254831Y204635
X264831Y204635
X274831Y204635
X284831Y204635
X294831Y204635
X304831Y204635
X314831Y204635
X324831Y204635
X334831Y204635
X344831Y204635
X354831Y204635
X354831Y144635
X344831Y144635
X334831Y144635
X324831Y144635
X314831Y144635
X304831Y144635
X294831Y144635
X284831Y144635
X274831Y144635
X264831Y144635
X254831Y144635
X244831Y144635
X234831Y144635
X224831Y144635
X214831Y144635
T04
X283769Y240619
X293769Y240619
X303769Y240619
X333769Y240619
X343769Y240619
X353769Y240619
X354674Y116603
X344674Y116603
X334674Y116603
X304674Y116603
X294674Y116603
X284674Y116603
T05
X41369Y27509
X56969Y27509
X72569Y27509
X88169Y27509
X103769Y27509
X119369Y27509
X134969Y27509
X150569Y27509
X166169Y27509
X212431Y27509
X228031Y27509
X243631Y27509
X259231Y27509
X274831Y27509
X290431Y27509
X306031Y27509
X321631Y27509
X337231Y27509
T06
X41957Y64950
X57548Y64950
X73139Y64950
X88729Y64950
X104320Y64950
X119910Y64950
X135501Y64950
X151091Y64950
X166682Y64950
X213217Y64950
X228808Y64950
X244398Y64950
X259989Y64950
X275580Y64950
X291170Y64950
X306761Y64950
X322351Y64950
X337942Y64950
M30
