%
M48
M72
T01C0.01200
T02C0.03200
T03C0.03600
T04C0.03937
T05C0.06600
T06C0.06693
%
T01
X64300Y124300
X84300Y124300
X109300Y154300
X109300Y159300
X76800Y179300
X154300Y191800
X169300Y181800
X166800Y231800
X251800Y231800
X264300Y149300
X254300Y106800
X341800Y181800
T02
X31800Y226800
X41800Y226800
X51800Y226800
X61800Y226800
X71800Y226800
X81800Y226800
X91800Y226800
X101800Y226800
X111800Y226800
X101800Y196800
X91800Y196800
X81800Y196800
X71800Y196800
X61800Y196800
X51800Y196800
X41800Y196800
X31800Y196800
X31800Y166800
X41800Y166800
X51800Y166800
X61800Y166800
X71800Y166800
X81800Y166800
X91800Y166800
X101800Y166800
X101800Y141800
X91800Y141800
X81800Y141800
X71800Y141800
X61800Y141800
X51800Y141800
X41800Y141800
X31800Y141800
X31800Y111800
X41800Y111800
X51800Y111800
X61800Y111800
X71800Y111800
X81800Y111800
X91800Y111800
X101800Y111800
X101800Y81800
X91800Y81800
X81800Y81800
X71800Y81800
X61800Y81800
X51800Y81800
X41800Y81800
X31800Y81800
X111800Y81800
X266800Y81800
X276800Y81800
X286800Y81800
X296800Y81800
X306800Y81800
X316800Y81800
X326800Y81800
X336800Y81800
X346800Y81800
X346800Y111800
X336800Y111800
X326800Y111800
X316800Y111800
X306800Y111800
X296800Y111800
X286800Y111800
X276800Y111800
X276800Y141800
X286800Y141800
X296800Y141800
X306800Y141800
X316800Y141800
X326800Y141800
X336800Y141800
X346800Y141800
X346800Y166800
X336800Y166800
X326800Y166800
X316800Y166800
X306800Y166800
X296800Y166800
X286800Y166800
X276800Y166800
X276800Y196800
X286800Y196800
X296800Y196800
X306800Y196800
X316800Y196800
X326800Y196800
X336800Y196800
X346800Y196800
X346800Y226800
X336800Y226800
X326800Y226800
X316800Y226800
X306800Y226800
X296800Y226800
X286800Y226800
X276800Y226800
X266800Y226800
T03
X161800Y196800
X161800Y186800
X161800Y176800
X161800Y166800
X161800Y156800
X161800Y146800
X161800Y136800
X161800Y126800
X161800Y116800
X161800Y106800
X161800Y96800
X161800Y86800
X161800Y76800
X161800Y66800
X161800Y56800
X221800Y56800
X221800Y66800
X221800Y76800
X221800Y86800
X221800Y96800
X221800Y106800
X221800Y116800
X221800Y126800
X221800Y136800
X221800Y146800
X221800Y156800
X221800Y166800
X221800Y176800
X221800Y186800
X221800Y196800
T04
X36800Y46800
X46800Y46800
X56800Y46800
X81800Y46800
X91800Y46800
X101800Y46800
X271800Y41800
X281800Y41800
X291800Y41800
X321800Y41800
X331800Y41800
X341800Y41800
T05
X53400Y261800
X69000Y261800
X84600Y261800
X100200Y261800
X163200Y261800
X178800Y261800
X194400Y261800
X210000Y261800
X225600Y261800
X241200Y261800
X256800Y261800
X272400Y261800
X288000Y261800
X303600Y261800
X319200Y261800
X334800Y261800
X350400Y261800
T06
X163257Y306800
X178847Y306800
X194438Y306800
X210028Y306800
X225619Y306800
X241209Y306800
X256800Y306800
X272391Y306800
X287981Y306800
X303572Y306800
X319162Y306800
X334753Y306800
X350343Y306800
M30
