G75*
%MOIN*%
%OFA0B0*%
%FSLAX25Y25*%
%IPPOS*%
%LPD*%
%AMOC8*
5,1,8,0,0,1.08239X$1,22.5*
%
%ADD10C,0.00000*%
%ADD11C,0.05937*%
%ADD12C,0.05200*%
%ADD13R,0.07000X0.07000*%
%ADD14C,0.07000*%
%ADD15C,0.10039*%
%ADD16C,0.09900*%
%ADD17C,0.01600*%
%ADD18C,0.02400*%
%ADD19C,0.02400*%
D10*
X0011800Y0011800D02*
X0011800Y0327076D01*
X0365501Y0327076D01*
X0365501Y0011800D01*
X0011800Y0011800D01*
D11*
X0036800Y0043831D02*
X0036800Y0049769D01*
X0046800Y0049769D02*
X0046800Y0043831D01*
X0056800Y0043831D02*
X0056800Y0049769D01*
X0081800Y0049769D02*
X0081800Y0043831D01*
X0091800Y0043831D02*
X0091800Y0049769D01*
X0101800Y0049769D02*
X0101800Y0043831D01*
X0271800Y0044769D02*
X0271800Y0038831D01*
X0281800Y0038831D02*
X0281800Y0044769D01*
X0291800Y0044769D02*
X0291800Y0038831D01*
X0321800Y0038831D02*
X0321800Y0044769D01*
X0331800Y0044769D02*
X0331800Y0038831D01*
X0341800Y0038831D02*
X0341800Y0044769D01*
D12*
X0336800Y0079200D02*
X0336800Y0084400D01*
X0326800Y0084400D02*
X0326800Y0079200D01*
X0316800Y0079200D02*
X0316800Y0084400D01*
X0306800Y0084400D02*
X0306800Y0079200D01*
X0296800Y0079200D02*
X0296800Y0084400D01*
X0286800Y0084400D02*
X0286800Y0079200D01*
X0276800Y0079200D02*
X0276800Y0084400D01*
X0266800Y0084400D02*
X0266800Y0079200D01*
X0276800Y0106600D02*
X0276800Y0111800D01*
X0286800Y0111800D02*
X0286800Y0106600D01*
X0296800Y0106600D02*
X0296800Y0111800D01*
X0306800Y0111800D02*
X0306800Y0106600D01*
X0316800Y0106600D02*
X0316800Y0111800D01*
X0326800Y0111800D02*
X0326800Y0106600D01*
X0336800Y0106600D02*
X0336800Y0111800D01*
X0346800Y0111800D02*
X0346800Y0106600D01*
X0346800Y0084400D02*
X0346800Y0079200D01*
X0346800Y0141800D02*
X0346800Y0147000D01*
X0336800Y0147000D02*
X0336800Y0141800D01*
X0326800Y0141800D02*
X0326800Y0147000D01*
X0316800Y0147000D02*
X0316800Y0141800D01*
X0306800Y0141800D02*
X0306800Y0147000D01*
X0296800Y0147000D02*
X0296800Y0141800D01*
X0286800Y0141800D02*
X0286800Y0147000D01*
X0276800Y0147000D02*
X0276800Y0141800D01*
X0276800Y0161600D02*
X0276800Y0166800D01*
X0286800Y0166800D02*
X0286800Y0161600D01*
X0296800Y0161600D02*
X0296800Y0166800D01*
X0306800Y0166800D02*
X0306800Y0161600D01*
X0316800Y0161600D02*
X0316800Y0166800D01*
X0326800Y0166800D02*
X0326800Y0161600D01*
X0336800Y0161600D02*
X0336800Y0166800D01*
X0346800Y0166800D02*
X0346800Y0161600D01*
X0346800Y0196800D02*
X0346800Y0202000D01*
X0336800Y0202000D02*
X0336800Y0196800D01*
X0326800Y0196800D02*
X0326800Y0202000D01*
X0316800Y0202000D02*
X0316800Y0196800D01*
X0306800Y0196800D02*
X0306800Y0202000D01*
X0296800Y0202000D02*
X0296800Y0196800D01*
X0286800Y0196800D02*
X0286800Y0202000D01*
X0276800Y0202000D02*
X0276800Y0196800D01*
X0276800Y0224200D02*
X0276800Y0229400D01*
X0286800Y0229400D02*
X0286800Y0224200D01*
X0296800Y0224200D02*
X0296800Y0229400D01*
X0306800Y0229400D02*
X0306800Y0224200D01*
X0316800Y0224200D02*
X0316800Y0229400D01*
X0326800Y0229400D02*
X0326800Y0224200D01*
X0336800Y0224200D02*
X0336800Y0229400D01*
X0346800Y0229400D02*
X0346800Y0224200D01*
X0266800Y0224200D02*
X0266800Y0229400D01*
X0111800Y0229400D02*
X0111800Y0224200D01*
X0101800Y0224200D02*
X0101800Y0229400D01*
X0091800Y0229400D02*
X0091800Y0224200D01*
X0081800Y0224200D02*
X0081800Y0229400D01*
X0071800Y0229400D02*
X0071800Y0224200D01*
X0061800Y0224200D02*
X0061800Y0229400D01*
X0051800Y0229400D02*
X0051800Y0224200D01*
X0041800Y0224200D02*
X0041800Y0229400D01*
X0031800Y0229400D02*
X0031800Y0224200D01*
X0031800Y0202000D02*
X0031800Y0196800D01*
X0041800Y0196800D02*
X0041800Y0202000D01*
X0051800Y0202000D02*
X0051800Y0196800D01*
X0061800Y0196800D02*
X0061800Y0202000D01*
X0071800Y0202000D02*
X0071800Y0196800D01*
X0081800Y0196800D02*
X0081800Y0202000D01*
X0091800Y0202000D02*
X0091800Y0196800D01*
X0101800Y0196800D02*
X0101800Y0202000D01*
X0101800Y0166800D02*
X0101800Y0161600D01*
X0091800Y0161600D02*
X0091800Y0166800D01*
X0081800Y0166800D02*
X0081800Y0161600D01*
X0071800Y0161600D02*
X0071800Y0166800D01*
X0061800Y0166800D02*
X0061800Y0161600D01*
X0051800Y0161600D02*
X0051800Y0166800D01*
X0041800Y0166800D02*
X0041800Y0161600D01*
X0031800Y0161600D02*
X0031800Y0166800D01*
X0031800Y0147000D02*
X0031800Y0141800D01*
X0041800Y0141800D02*
X0041800Y0147000D01*
X0051800Y0147000D02*
X0051800Y0141800D01*
X0061800Y0141800D02*
X0061800Y0147000D01*
X0071800Y0147000D02*
X0071800Y0141800D01*
X0081800Y0141800D02*
X0081800Y0147000D01*
X0091800Y0147000D02*
X0091800Y0141800D01*
X0101800Y0141800D02*
X0101800Y0147000D01*
X0101800Y0111800D02*
X0101800Y0106600D01*
X0091800Y0106600D02*
X0091800Y0111800D01*
X0081800Y0111800D02*
X0081800Y0106600D01*
X0071800Y0106600D02*
X0071800Y0111800D01*
X0061800Y0111800D02*
X0061800Y0106600D01*
X0051800Y0106600D02*
X0051800Y0111800D01*
X0041800Y0111800D02*
X0041800Y0106600D01*
X0031800Y0106600D02*
X0031800Y0111800D01*
X0031800Y0084400D02*
X0031800Y0079200D01*
X0041800Y0079200D02*
X0041800Y0084400D01*
X0051800Y0084400D02*
X0051800Y0079200D01*
X0061800Y0079200D02*
X0061800Y0084400D01*
X0071800Y0084400D02*
X0071800Y0079200D01*
X0081800Y0079200D02*
X0081800Y0084400D01*
X0091800Y0084400D02*
X0091800Y0079200D01*
X0101800Y0079200D02*
X0101800Y0084400D01*
X0111800Y0084400D02*
X0111800Y0079200D01*
D13*
X0161800Y0196800D03*
D14*
X0161800Y0186800D03*
X0161800Y0176800D03*
X0161800Y0166800D03*
X0161800Y0156800D03*
X0161800Y0146800D03*
X0161800Y0136800D03*
X0161800Y0126800D03*
X0161800Y0116800D03*
X0161800Y0106800D03*
X0161800Y0096800D03*
X0161800Y0086800D03*
X0161800Y0076800D03*
X0161800Y0066800D03*
X0161800Y0056800D03*
X0221800Y0056800D03*
X0221800Y0066800D03*
X0221800Y0076800D03*
X0221800Y0086800D03*
X0221800Y0096800D03*
X0221800Y0106800D03*
X0221800Y0116800D03*
X0221800Y0126800D03*
X0221800Y0136800D03*
X0221800Y0146800D03*
X0221800Y0156800D03*
X0221800Y0166800D03*
X0221800Y0176800D03*
X0221800Y0186800D03*
X0221800Y0196800D03*
D15*
X0225619Y0301780D02*
X0225619Y0311820D01*
X0241209Y0311820D02*
X0241209Y0301780D01*
X0256800Y0301780D02*
X0256800Y0311820D01*
X0272391Y0311820D02*
X0272391Y0301780D01*
X0287981Y0301780D02*
X0287981Y0311820D01*
X0303572Y0311820D02*
X0303572Y0301780D01*
X0319162Y0301780D02*
X0319162Y0311820D01*
X0334753Y0311820D02*
X0334753Y0301780D01*
X0350343Y0301780D02*
X0350343Y0311820D01*
X0210028Y0311820D02*
X0210028Y0301780D01*
X0194438Y0301780D02*
X0194438Y0311820D01*
X0178847Y0311820D02*
X0178847Y0301780D01*
X0163257Y0301780D02*
X0163257Y0311820D01*
D16*
X0163200Y0266750D02*
X0163200Y0256850D01*
X0178800Y0256850D02*
X0178800Y0266750D01*
X0194400Y0266750D02*
X0194400Y0256850D01*
X0210000Y0256850D02*
X0210000Y0266750D01*
X0225600Y0266750D02*
X0225600Y0256850D01*
X0241200Y0256850D02*
X0241200Y0266750D01*
X0256800Y0266750D02*
X0256800Y0256850D01*
X0272400Y0256850D02*
X0272400Y0266750D01*
X0288000Y0266750D02*
X0288000Y0256850D01*
X0303600Y0256850D02*
X0303600Y0266750D01*
X0319200Y0266750D02*
X0319200Y0256850D01*
X0334800Y0256850D02*
X0334800Y0266750D01*
X0350400Y0266750D02*
X0350400Y0256850D01*
X0100200Y0256850D02*
X0100200Y0266750D01*
X0084600Y0266750D02*
X0084600Y0256850D01*
X0069000Y0256850D02*
X0069000Y0266750D01*
X0053400Y0266750D02*
X0053400Y0256850D01*
D17*
X0059413Y0254774D02*
X0062987Y0254774D01*
X0062650Y0255587D02*
X0063617Y0253253D01*
X0065403Y0251467D01*
X0067737Y0250500D01*
X0070263Y0250500D01*
X0072597Y0251467D01*
X0074383Y0253253D01*
X0075350Y0255587D01*
X0075350Y0268013D01*
X0074383Y0270347D01*
X0072597Y0272133D01*
X0070263Y0273100D01*
X0067737Y0273100D01*
X0065403Y0272133D01*
X0063617Y0270347D01*
X0062650Y0268013D01*
X0062650Y0255587D01*
X0062650Y0256372D02*
X0059750Y0256372D01*
X0059750Y0255587D02*
X0059750Y0268013D01*
X0058783Y0270347D01*
X0056997Y0272133D01*
X0054663Y0273100D01*
X0052137Y0273100D01*
X0049803Y0272133D01*
X0048017Y0270347D01*
X0047050Y0268013D01*
X0047050Y0255587D01*
X0048017Y0253253D01*
X0049803Y0251467D01*
X0052137Y0250500D01*
X0054663Y0250500D01*
X0056997Y0251467D01*
X0058783Y0253253D01*
X0059750Y0255587D01*
X0059750Y0257971D02*
X0062650Y0257971D01*
X0062650Y0259569D02*
X0059750Y0259569D01*
X0059750Y0261168D02*
X0062650Y0261168D01*
X0062650Y0262766D02*
X0059750Y0262766D01*
X0059750Y0264365D02*
X0062650Y0264365D01*
X0062650Y0265963D02*
X0059750Y0265963D01*
X0059750Y0267562D02*
X0062650Y0267562D01*
X0063125Y0269160D02*
X0059275Y0269160D01*
X0058371Y0270759D02*
X0064029Y0270759D01*
X0065944Y0272357D02*
X0056456Y0272357D01*
X0050344Y0272357D02*
X0013600Y0272357D01*
X0013600Y0270759D02*
X0048429Y0270759D01*
X0047525Y0269160D02*
X0013600Y0269160D01*
X0013600Y0267562D02*
X0047050Y0267562D01*
X0047050Y0265963D02*
X0013600Y0265963D01*
X0013600Y0264365D02*
X0047050Y0264365D01*
X0047050Y0262766D02*
X0013600Y0262766D01*
X0013600Y0261168D02*
X0047050Y0261168D01*
X0047050Y0259569D02*
X0013600Y0259569D01*
X0013600Y0257971D02*
X0047050Y0257971D01*
X0047050Y0256372D02*
X0013600Y0256372D01*
X0013600Y0254774D02*
X0047387Y0254774D01*
X0048095Y0253175D02*
X0013600Y0253175D01*
X0013600Y0251577D02*
X0049693Y0251577D01*
X0057107Y0251577D02*
X0065293Y0251577D01*
X0063695Y0253175D02*
X0058705Y0253175D01*
X0072707Y0251577D02*
X0080893Y0251577D01*
X0081003Y0251467D02*
X0083337Y0250500D01*
X0085863Y0250500D01*
X0088197Y0251467D01*
X0089983Y0253253D01*
X0090950Y0255587D01*
X0090950Y0268013D01*
X0089983Y0270347D01*
X0088197Y0272133D01*
X0085863Y0273100D01*
X0083337Y0273100D01*
X0081003Y0272133D01*
X0079217Y0270347D01*
X0078250Y0268013D01*
X0078250Y0255587D01*
X0079217Y0253253D01*
X0081003Y0251467D01*
X0079295Y0253175D02*
X0074305Y0253175D01*
X0075013Y0254774D02*
X0078587Y0254774D01*
X0078250Y0256372D02*
X0075350Y0256372D01*
X0075350Y0257971D02*
X0078250Y0257971D01*
X0078250Y0259569D02*
X0075350Y0259569D01*
X0075350Y0261168D02*
X0078250Y0261168D01*
X0078250Y0262766D02*
X0075350Y0262766D01*
X0075350Y0264365D02*
X0078250Y0264365D01*
X0078250Y0265963D02*
X0075350Y0265963D01*
X0075350Y0267562D02*
X0078250Y0267562D01*
X0078725Y0269160D02*
X0074875Y0269160D01*
X0073971Y0270759D02*
X0079629Y0270759D01*
X0081544Y0272357D02*
X0072056Y0272357D01*
X0087656Y0272357D02*
X0097144Y0272357D01*
X0096603Y0272133D02*
X0094817Y0270347D01*
X0093850Y0268013D01*
X0093850Y0255587D01*
X0094817Y0253253D01*
X0096603Y0251467D01*
X0098937Y0250500D01*
X0101463Y0250500D01*
X0103797Y0251467D01*
X0105583Y0253253D01*
X0106550Y0255587D01*
X0106550Y0268013D01*
X0105583Y0270347D01*
X0103797Y0272133D01*
X0101463Y0273100D01*
X0098937Y0273100D01*
X0096603Y0272133D01*
X0095229Y0270759D02*
X0089571Y0270759D01*
X0090475Y0269160D02*
X0094325Y0269160D01*
X0093850Y0267562D02*
X0090950Y0267562D01*
X0090950Y0265963D02*
X0093850Y0265963D01*
X0093850Y0264365D02*
X0090950Y0264365D01*
X0090950Y0262766D02*
X0093850Y0262766D01*
X0093850Y0261168D02*
X0090950Y0261168D01*
X0090950Y0259569D02*
X0093850Y0259569D01*
X0093850Y0257971D02*
X0090950Y0257971D01*
X0090950Y0256372D02*
X0093850Y0256372D01*
X0094187Y0254774D02*
X0090613Y0254774D01*
X0089905Y0253175D02*
X0094895Y0253175D01*
X0096493Y0251577D02*
X0088307Y0251577D01*
X0103907Y0251577D02*
X0145965Y0251577D01*
X0144367Y0249978D02*
X0013600Y0249978D01*
X0013600Y0248380D02*
X0017768Y0248380D01*
X0018389Y0249000D02*
X0017100Y0247711D01*
X0017100Y0153389D01*
X0018389Y0152100D01*
X0027800Y0142689D01*
X0027800Y0141004D01*
X0028409Y0139534D01*
X0029534Y0138409D01*
X0031004Y0137800D01*
X0032596Y0137800D01*
X0034066Y0138409D01*
X0034600Y0138943D01*
X0034600Y0124000D01*
X0030889Y0124000D01*
X0023389Y0116500D01*
X0022100Y0115211D01*
X0022100Y0090889D01*
X0023389Y0089600D01*
X0073389Y0089600D01*
X0077800Y0085189D01*
X0077800Y0078404D01*
X0078409Y0076934D01*
X0079534Y0075809D01*
X0081004Y0075200D01*
X0081523Y0075200D01*
X0066800Y0060477D01*
X0065773Y0061504D01*
X0064817Y0061900D01*
X0036283Y0061900D01*
X0035327Y0061504D01*
X0034596Y0060773D01*
X0034200Y0059817D01*
X0034200Y0053347D01*
X0033097Y0052243D01*
X0032431Y0050637D01*
X0032431Y0042963D01*
X0033097Y0041357D01*
X0034325Y0040128D01*
X0035931Y0039463D01*
X0037669Y0039463D01*
X0039275Y0040128D01*
X0040503Y0041357D01*
X0041168Y0042963D01*
X0041168Y0050637D01*
X0040503Y0052243D01*
X0039400Y0053347D01*
X0039400Y0056700D01*
X0063223Y0056700D01*
X0065327Y0054596D01*
X0074596Y0045327D01*
X0075327Y0044596D01*
X0076283Y0044200D01*
X0077431Y0044200D01*
X0077431Y0042963D01*
X0078097Y0041357D01*
X0079325Y0040128D01*
X0080931Y0039463D01*
X0082669Y0039463D01*
X0084275Y0040128D01*
X0085503Y0041357D01*
X0086168Y0042963D01*
X0086168Y0050637D01*
X0085503Y0052243D01*
X0084275Y0053472D01*
X0082669Y0054137D01*
X0080931Y0054137D01*
X0079325Y0053472D01*
X0078097Y0052243D01*
X0077431Y0050637D01*
X0077431Y0049845D01*
X0070477Y0056800D01*
X0084300Y0070623D01*
X0097096Y0057827D01*
X0097827Y0057096D01*
X0098783Y0056700D01*
X0145723Y0056700D01*
X0172096Y0030327D01*
X0172827Y0029596D01*
X0173783Y0029200D01*
X0279200Y0029200D01*
X0279200Y0028783D01*
X0279596Y0027827D01*
X0280327Y0027096D01*
X0281283Y0026700D01*
X0322317Y0026700D01*
X0323273Y0027096D01*
X0330725Y0034548D01*
X0330931Y0034463D01*
X0332669Y0034463D01*
X0334275Y0035128D01*
X0335503Y0036357D01*
X0336168Y0037963D01*
X0336168Y0045637D01*
X0335503Y0047243D01*
X0334275Y0048472D01*
X0332669Y0049137D01*
X0330931Y0049137D01*
X0329325Y0048472D01*
X0328097Y0047243D01*
X0327431Y0045637D01*
X0327431Y0038608D01*
X0325732Y0036909D01*
X0326168Y0037963D01*
X0326168Y0045637D01*
X0325503Y0047243D01*
X0324275Y0048472D01*
X0322669Y0049137D01*
X0320931Y0049137D01*
X0319325Y0048472D01*
X0318097Y0047243D01*
X0317431Y0045637D01*
X0317431Y0044845D01*
X0305773Y0056504D01*
X0304817Y0056900D01*
X0271283Y0056900D01*
X0270327Y0056504D01*
X0269596Y0055773D01*
X0269200Y0054817D01*
X0269200Y0048346D01*
X0268097Y0047243D01*
X0267431Y0045637D01*
X0267431Y0037963D01*
X0268097Y0036357D01*
X0269325Y0035128D01*
X0270931Y0034463D01*
X0272669Y0034463D01*
X0274275Y0035128D01*
X0275503Y0036357D01*
X0276168Y0037963D01*
X0276168Y0045637D01*
X0275503Y0047243D01*
X0274400Y0048346D01*
X0274400Y0051700D01*
X0303223Y0051700D01*
X0314596Y0040327D01*
X0315327Y0039596D01*
X0316283Y0039200D01*
X0317431Y0039200D01*
X0317431Y0037963D01*
X0318097Y0036357D01*
X0319325Y0035128D01*
X0320931Y0034463D01*
X0322669Y0034463D01*
X0323722Y0034899D01*
X0320723Y0031900D01*
X0284400Y0031900D01*
X0284400Y0035253D01*
X0285503Y0036357D01*
X0286168Y0037963D01*
X0286168Y0045637D01*
X0285503Y0047243D01*
X0284275Y0048472D01*
X0282669Y0049137D01*
X0280931Y0049137D01*
X0279325Y0048472D01*
X0278097Y0047243D01*
X0277431Y0045637D01*
X0277431Y0037963D01*
X0278097Y0036357D01*
X0279200Y0035253D01*
X0279200Y0034400D01*
X0175377Y0034400D01*
X0148273Y0061504D01*
X0147317Y0061900D01*
X0100377Y0061900D01*
X0087977Y0074300D01*
X0088273Y0074596D01*
X0089004Y0075327D01*
X0089300Y0076043D01*
X0089534Y0075809D01*
X0091004Y0075200D01*
X0092596Y0075200D01*
X0094066Y0075809D01*
X0095191Y0076934D01*
X0095800Y0078404D01*
X0095800Y0085196D01*
X0095191Y0086666D01*
X0094066Y0087791D01*
X0094000Y0087818D01*
X0094000Y0094600D01*
X0099600Y0094600D01*
X0099600Y0087818D01*
X0099534Y0087791D01*
X0098409Y0086666D01*
X0097800Y0085196D01*
X0097800Y0078404D01*
X0098409Y0076934D01*
X0099534Y0075809D01*
X0101004Y0075200D01*
X0102596Y0075200D01*
X0104066Y0075809D01*
X0105191Y0076934D01*
X0105800Y0078404D01*
X0105800Y0085196D01*
X0105191Y0086666D01*
X0104066Y0087791D01*
X0104000Y0087818D01*
X0104000Y0092100D01*
X0157711Y0092100D01*
X0158641Y0093030D01*
X0159024Y0092646D01*
X0160825Y0091900D01*
X0162775Y0091900D01*
X0164576Y0092646D01*
X0165954Y0094024D01*
X0166700Y0095825D01*
X0166700Y0097775D01*
X0165954Y0099576D01*
X0164576Y0100954D01*
X0162775Y0101700D01*
X0160825Y0101700D01*
X0159094Y0100983D01*
X0160211Y0102100D01*
X0160250Y0102138D01*
X0160825Y0101900D01*
X0162775Y0101900D01*
X0164576Y0102646D01*
X0165954Y0104024D01*
X0166700Y0105825D01*
X0166700Y0107775D01*
X0165954Y0109576D01*
X0164576Y0110954D01*
X0162775Y0111700D01*
X0160825Y0111700D01*
X0159024Y0110954D01*
X0157646Y0109576D01*
X0156900Y0107775D01*
X0156900Y0105825D01*
X0157100Y0105342D01*
X0157100Y0105211D01*
X0150889Y0099000D01*
X0137111Y0099000D01*
X0157617Y0119506D01*
X0156900Y0117775D01*
X0156900Y0115825D01*
X0157646Y0114024D01*
X0159024Y0112646D01*
X0160825Y0111900D01*
X0162775Y0111900D01*
X0164576Y0112646D01*
X0165954Y0114024D01*
X0166700Y0115825D01*
X0166700Y0117775D01*
X0165954Y0119576D01*
X0164576Y0120954D01*
X0162775Y0121700D01*
X0160825Y0121700D01*
X0159094Y0120983D01*
X0160250Y0122138D01*
X0160825Y0121900D01*
X0162775Y0121900D01*
X0164576Y0122646D01*
X0165954Y0124024D01*
X0166700Y0125825D01*
X0166700Y0127775D01*
X0165954Y0129576D01*
X0164576Y0130954D01*
X0162775Y0131700D01*
X0160825Y0131700D01*
X0159094Y0130983D01*
X0160250Y0132138D01*
X0160825Y0131900D01*
X0162775Y0131900D01*
X0164576Y0132646D01*
X0165954Y0134024D01*
X0166700Y0135825D01*
X0166700Y0137775D01*
X0165954Y0139576D01*
X0164576Y0140954D01*
X0162775Y0141700D01*
X0160825Y0141700D01*
X0159094Y0140983D01*
X0160250Y0142138D01*
X0160825Y0141900D01*
X0162775Y0141900D01*
X0164576Y0142646D01*
X0165954Y0144024D01*
X0166700Y0145825D01*
X0166700Y0147775D01*
X0165954Y0149576D01*
X0164576Y0150954D01*
X0162775Y0151700D01*
X0160825Y0151700D01*
X0159094Y0150983D01*
X0160250Y0152138D01*
X0160825Y0151900D01*
X0162775Y0151900D01*
X0164576Y0152646D01*
X0165954Y0154024D01*
X0166700Y0155825D01*
X0166700Y0157775D01*
X0165954Y0159576D01*
X0164576Y0160954D01*
X0162970Y0161619D01*
X0163041Y0161630D01*
X0163834Y0161888D01*
X0164578Y0162267D01*
X0165253Y0162757D01*
X0165843Y0163347D01*
X0166333Y0164022D01*
X0166712Y0164766D01*
X0166969Y0165559D01*
X0167100Y0166383D01*
X0167100Y0166700D01*
X0161900Y0166700D01*
X0161900Y0166900D01*
X0167100Y0166900D01*
X0167100Y0167217D01*
X0166969Y0168041D01*
X0166712Y0168834D01*
X0166333Y0169578D01*
X0165843Y0170253D01*
X0165253Y0170843D01*
X0164578Y0171333D01*
X0163834Y0171712D01*
X0163041Y0171969D01*
X0162970Y0171981D01*
X0164576Y0172646D01*
X0165954Y0174024D01*
X0166700Y0175825D01*
X0166700Y0177775D01*
X0165954Y0179576D01*
X0165930Y0179600D01*
X0167823Y0179600D01*
X0167827Y0179596D01*
X0168783Y0179200D01*
X0169817Y0179200D01*
X0170773Y0179596D01*
X0171504Y0180327D01*
X0171900Y0181283D01*
X0171900Y0182317D01*
X0171504Y0183273D01*
X0170773Y0184004D01*
X0169817Y0184400D01*
X0168783Y0184400D01*
X0167827Y0184004D01*
X0167823Y0184000D01*
X0165930Y0184000D01*
X0165954Y0184024D01*
X0166700Y0185825D01*
X0166700Y0187775D01*
X0165954Y0189576D01*
X0164576Y0190954D01*
X0162775Y0191700D01*
X0160825Y0191700D01*
X0159024Y0190954D01*
X0157646Y0189576D01*
X0156900Y0187775D01*
X0156900Y0185825D01*
X0157646Y0184024D01*
X0157670Y0184000D01*
X0155889Y0184000D01*
X0154600Y0182711D01*
X0110889Y0139000D01*
X0104657Y0139000D01*
X0105191Y0139534D01*
X0105800Y0141004D01*
X0105800Y0147796D01*
X0105191Y0149266D01*
X0104857Y0149600D01*
X0105889Y0149600D01*
X0107100Y0148389D01*
X0108389Y0147100D01*
X0112711Y0147100D01*
X0154811Y0189200D01*
X0154817Y0189200D01*
X0155773Y0189596D01*
X0156504Y0190327D01*
X0156900Y0191283D01*
X0156900Y0192317D01*
X0156504Y0193273D01*
X0155773Y0194004D01*
X0154817Y0194400D01*
X0153783Y0194400D01*
X0152827Y0194004D01*
X0152096Y0193273D01*
X0151700Y0192317D01*
X0151700Y0192311D01*
X0110889Y0151500D01*
X0110211Y0151500D01*
X0109954Y0151757D01*
X0110773Y0152096D01*
X0111504Y0152827D01*
X0111900Y0153783D01*
X0111900Y0154817D01*
X0111504Y0155773D01*
X0110773Y0156504D01*
X0110059Y0156800D01*
X0110773Y0157096D01*
X0111504Y0157827D01*
X0111900Y0158783D01*
X0111900Y0159817D01*
X0111504Y0160773D01*
X0110773Y0161504D01*
X0109817Y0161900D01*
X0108783Y0161900D01*
X0107827Y0161504D01*
X0107096Y0160773D01*
X0106700Y0159817D01*
X0106700Y0159811D01*
X0105889Y0159000D01*
X0104857Y0159000D01*
X0105191Y0159334D01*
X0105800Y0160804D01*
X0105800Y0167596D01*
X0105191Y0169066D01*
X0104066Y0170191D01*
X0102596Y0170800D01*
X0101477Y0170800D01*
X0096504Y0175773D01*
X0095773Y0176504D01*
X0094817Y0176900D01*
X0077800Y0176900D01*
X0078273Y0177096D01*
X0079004Y0177827D01*
X0079400Y0178783D01*
X0079400Y0178789D01*
X0087711Y0187100D01*
X0125211Y0187100D01*
X0167311Y0229200D01*
X0167317Y0229200D01*
X0168273Y0229596D01*
X0169004Y0230327D01*
X0169400Y0231283D01*
X0169400Y0232317D01*
X0169004Y0233273D01*
X0168273Y0234004D01*
X0167800Y0234200D01*
X0180723Y0234200D01*
X0212096Y0202827D01*
X0212827Y0202096D01*
X0216973Y0197950D01*
X0216900Y0197775D01*
X0216900Y0195825D01*
X0217646Y0194024D01*
X0219024Y0192646D01*
X0220630Y0191981D01*
X0220559Y0191969D01*
X0219766Y0191712D01*
X0219022Y0191333D01*
X0218347Y0190843D01*
X0217757Y0190253D01*
X0217267Y0189578D01*
X0216888Y0188834D01*
X0216630Y0188041D01*
X0216500Y0187217D01*
X0216500Y0186900D01*
X0221700Y0186900D01*
X0221700Y0186700D01*
X0216500Y0186700D01*
X0216500Y0186383D01*
X0216630Y0185559D01*
X0216888Y0184766D01*
X0217267Y0184022D01*
X0217757Y0183347D01*
X0218347Y0182757D01*
X0219022Y0182267D01*
X0219766Y0181888D01*
X0220559Y0181630D01*
X0220630Y0181619D01*
X0219024Y0180954D01*
X0217646Y0179576D01*
X0216900Y0177775D01*
X0216900Y0175825D01*
X0217646Y0174024D01*
X0219024Y0172646D01*
X0220825Y0171900D01*
X0222775Y0171900D01*
X0224576Y0172646D01*
X0225954Y0174024D01*
X0226700Y0175825D01*
X0226700Y0177775D01*
X0225954Y0179576D01*
X0224576Y0180954D01*
X0222970Y0181619D01*
X0223041Y0181630D01*
X0223834Y0181888D01*
X0224578Y0182267D01*
X0225253Y0182757D01*
X0225843Y0183347D01*
X0226333Y0184022D01*
X0226712Y0184766D01*
X0226969Y0185559D01*
X0227100Y0186383D01*
X0227100Y0186700D01*
X0221900Y0186700D01*
X0221900Y0186900D01*
X0227100Y0186900D01*
X0227100Y0187217D01*
X0226969Y0188041D01*
X0226712Y0188834D01*
X0226333Y0189578D01*
X0225843Y0190253D01*
X0225253Y0190843D01*
X0224578Y0191333D01*
X0223834Y0191712D01*
X0223041Y0191969D01*
X0222970Y0191981D01*
X0224576Y0192646D01*
X0225954Y0194024D01*
X0226700Y0195825D01*
X0226700Y0197775D01*
X0225954Y0199576D01*
X0224576Y0200954D01*
X0222775Y0201700D01*
X0220825Y0201700D01*
X0220650Y0201627D01*
X0220577Y0201700D01*
X0244817Y0201700D01*
X0245773Y0202096D01*
X0246504Y0202827D01*
X0264510Y0220833D01*
X0264534Y0220809D01*
X0266004Y0220200D01*
X0267596Y0220200D01*
X0269066Y0220809D01*
X0270191Y0221934D01*
X0270800Y0223404D01*
X0270800Y0230196D01*
X0270191Y0231666D01*
X0269066Y0232791D01*
X0267596Y0233400D01*
X0266004Y0233400D01*
X0264534Y0232791D01*
X0263409Y0231666D01*
X0262800Y0230196D01*
X0262800Y0226477D01*
X0243223Y0206900D01*
X0215377Y0206900D01*
X0183273Y0239004D01*
X0182317Y0239400D01*
X0031283Y0239400D01*
X0030327Y0239004D01*
X0029596Y0238273D01*
X0029200Y0237317D01*
X0029200Y0232457D01*
X0028409Y0231666D01*
X0027800Y0230196D01*
X0027800Y0223404D01*
X0028409Y0221934D01*
X0029534Y0220809D01*
X0031004Y0220200D01*
X0032596Y0220200D01*
X0034066Y0220809D01*
X0035191Y0221934D01*
X0035800Y0223404D01*
X0035800Y0230196D01*
X0035191Y0231666D01*
X0034400Y0232457D01*
X0034400Y0234200D01*
X0165800Y0234200D01*
X0165327Y0234004D01*
X0164596Y0233273D01*
X0164200Y0232317D01*
X0164200Y0232311D01*
X0123389Y0191500D01*
X0085889Y0191500D01*
X0084600Y0190211D01*
X0076289Y0181900D01*
X0076283Y0181900D01*
X0075327Y0181504D01*
X0074596Y0180773D01*
X0074200Y0179817D01*
X0074200Y0178783D01*
X0074596Y0177827D01*
X0075327Y0177096D01*
X0075800Y0176900D01*
X0048783Y0176900D01*
X0047827Y0176504D01*
X0047096Y0175773D01*
X0042123Y0170800D01*
X0041004Y0170800D01*
X0039534Y0170191D01*
X0038409Y0169066D01*
X0037800Y0167596D01*
X0037800Y0160804D01*
X0038409Y0159334D01*
X0039534Y0158209D01*
X0041004Y0157600D01*
X0042596Y0157600D01*
X0044066Y0158209D01*
X0045191Y0159334D01*
X0045800Y0160804D01*
X0045800Y0167123D01*
X0050377Y0171700D01*
X0053223Y0171700D01*
X0057800Y0167123D01*
X0057800Y0160804D01*
X0058409Y0159334D01*
X0059534Y0158209D01*
X0061004Y0157600D01*
X0062596Y0157600D01*
X0064066Y0158209D01*
X0065191Y0159334D01*
X0065800Y0160804D01*
X0065800Y0167596D01*
X0065191Y0169066D01*
X0064066Y0170191D01*
X0062596Y0170800D01*
X0061477Y0170800D01*
X0060577Y0171700D01*
X0073223Y0171700D01*
X0077800Y0167123D01*
X0077800Y0160804D01*
X0078409Y0159334D01*
X0079534Y0158209D01*
X0081004Y0157600D01*
X0082596Y0157600D01*
X0084066Y0158209D01*
X0085191Y0159334D01*
X0085800Y0160804D01*
X0085800Y0167596D01*
X0085191Y0169066D01*
X0084066Y0170191D01*
X0082596Y0170800D01*
X0081477Y0170800D01*
X0080577Y0171700D01*
X0093223Y0171700D01*
X0097800Y0167123D01*
X0097800Y0160804D01*
X0098409Y0159334D01*
X0098743Y0159000D01*
X0097711Y0159000D01*
X0095800Y0160911D01*
X0095800Y0167596D01*
X0095191Y0169066D01*
X0094066Y0170191D01*
X0092596Y0170800D01*
X0091004Y0170800D01*
X0089534Y0170191D01*
X0088409Y0169066D01*
X0087800Y0167596D01*
X0087800Y0160804D01*
X0088409Y0159334D01*
X0089534Y0158209D01*
X0089953Y0158035D01*
X0090889Y0157100D01*
X0093389Y0157100D01*
X0093989Y0156500D01*
X0080211Y0156500D01*
X0075800Y0160911D01*
X0075800Y0167596D01*
X0075191Y0169066D01*
X0074066Y0170191D01*
X0072596Y0170800D01*
X0071004Y0170800D01*
X0069534Y0170191D01*
X0068409Y0169066D01*
X0067800Y0167596D01*
X0067800Y0160804D01*
X0068409Y0159334D01*
X0069534Y0158209D01*
X0069953Y0158035D01*
X0070889Y0157100D01*
X0073389Y0157100D01*
X0073989Y0156500D01*
X0050889Y0156500D01*
X0049600Y0155211D01*
X0049600Y0150418D01*
X0049534Y0150391D01*
X0048409Y0149266D01*
X0047800Y0147796D01*
X0047800Y0141004D01*
X0048409Y0139534D01*
X0049534Y0138409D01*
X0051004Y0137800D01*
X0052596Y0137800D01*
X0054066Y0138409D01*
X0055191Y0139534D01*
X0055800Y0141004D01*
X0055800Y0147796D01*
X0055191Y0149266D01*
X0054066Y0150391D01*
X0054000Y0150418D01*
X0054000Y0152100D01*
X0073389Y0152100D01*
X0074600Y0150889D01*
X0075889Y0149600D01*
X0078743Y0149600D01*
X0078409Y0149266D01*
X0077800Y0147796D01*
X0077800Y0141004D01*
X0078409Y0139534D01*
X0079534Y0138409D01*
X0081004Y0137800D01*
X0082596Y0137800D01*
X0084066Y0138409D01*
X0085191Y0139534D01*
X0085800Y0141004D01*
X0085800Y0147796D01*
X0085191Y0149266D01*
X0084857Y0149600D01*
X0088743Y0149600D01*
X0088409Y0149266D01*
X0087800Y0147796D01*
X0087800Y0141004D01*
X0088409Y0139534D01*
X0089534Y0138409D01*
X0091004Y0137800D01*
X0092596Y0137800D01*
X0092661Y0137827D01*
X0094600Y0135889D01*
X0095889Y0134600D01*
X0112711Y0134600D01*
X0157617Y0179506D01*
X0156900Y0177775D01*
X0156900Y0175825D01*
X0157646Y0174024D01*
X0159024Y0172646D01*
X0160630Y0171981D01*
X0160559Y0171969D01*
X0159766Y0171712D01*
X0159022Y0171333D01*
X0158347Y0170843D01*
X0157757Y0170253D01*
X0157267Y0169578D01*
X0156888Y0168834D01*
X0156630Y0168041D01*
X0156500Y0167217D01*
X0156500Y0166900D01*
X0161700Y0166900D01*
X0161700Y0166700D01*
X0156500Y0166700D01*
X0156500Y0166383D01*
X0156630Y0165559D01*
X0156888Y0164766D01*
X0157267Y0164022D01*
X0157757Y0163347D01*
X0158347Y0162757D01*
X0159022Y0162267D01*
X0159766Y0161888D01*
X0160559Y0161630D01*
X0160630Y0161619D01*
X0159024Y0160954D01*
X0157646Y0159576D01*
X0156900Y0157775D01*
X0156900Y0155825D01*
X0157138Y0155250D01*
X0135889Y0134000D01*
X0050889Y0134000D01*
X0039000Y0122111D01*
X0039000Y0138943D01*
X0039534Y0138409D01*
X0041004Y0137800D01*
X0042596Y0137800D01*
X0044066Y0138409D01*
X0045191Y0139534D01*
X0045800Y0141004D01*
X0045800Y0147796D01*
X0045191Y0149266D01*
X0044066Y0150391D01*
X0042596Y0151000D01*
X0041004Y0151000D01*
X0039534Y0150391D01*
X0039000Y0149857D01*
X0039000Y0150211D01*
X0037711Y0151500D01*
X0035211Y0154000D01*
X0034000Y0154000D01*
X0034000Y0158182D01*
X0034066Y0158209D01*
X0035191Y0159334D01*
X0035800Y0160804D01*
X0035800Y0167596D01*
X0035191Y0169066D01*
X0034066Y0170191D01*
X0032596Y0170800D01*
X0031004Y0170800D01*
X0029534Y0170191D01*
X0028409Y0169066D01*
X0027800Y0167596D01*
X0027800Y0160804D01*
X0028409Y0159334D01*
X0029534Y0158209D01*
X0029600Y0158182D01*
X0029600Y0150889D01*
X0029933Y0150556D01*
X0029534Y0150391D01*
X0028409Y0149266D01*
X0028127Y0148584D01*
X0021500Y0155211D01*
X0021500Y0244600D01*
X0145211Y0244600D01*
X0156850Y0256239D01*
X0156850Y0255587D01*
X0157817Y0253253D01*
X0159603Y0251467D01*
X0161937Y0250500D01*
X0164463Y0250500D01*
X0166797Y0251467D01*
X0168583Y0253253D01*
X0169550Y0255587D01*
X0169550Y0268013D01*
X0168583Y0270347D01*
X0166797Y0272133D01*
X0164463Y0273100D01*
X0161937Y0273100D01*
X0159603Y0272133D01*
X0157817Y0270347D01*
X0156850Y0268013D01*
X0156850Y0262461D01*
X0143389Y0249000D01*
X0018389Y0249000D01*
X0019300Y0246800D02*
X0144300Y0246800D01*
X0159300Y0261800D01*
X0163200Y0261800D01*
X0169550Y0261168D02*
X0172450Y0261168D01*
X0172450Y0262766D02*
X0169550Y0262766D01*
X0169550Y0264365D02*
X0172450Y0264365D01*
X0172450Y0265963D02*
X0169550Y0265963D01*
X0169550Y0267562D02*
X0172450Y0267562D01*
X0172450Y0268013D02*
X0172450Y0255587D01*
X0173417Y0253253D01*
X0175203Y0251467D01*
X0177537Y0250500D01*
X0180063Y0250500D01*
X0182397Y0251467D01*
X0184183Y0253253D01*
X0185150Y0255587D01*
X0185150Y0268013D01*
X0184183Y0270347D01*
X0182397Y0272133D01*
X0180063Y0273100D01*
X0179000Y0273100D01*
X0179000Y0295361D01*
X0180124Y0295361D01*
X0182484Y0296338D01*
X0184290Y0298144D01*
X0185267Y0300503D01*
X0185267Y0313097D01*
X0184290Y0315456D01*
X0182484Y0317262D01*
X0180124Y0318239D01*
X0177570Y0318239D01*
X0175211Y0317262D01*
X0173405Y0315456D01*
X0172428Y0313097D01*
X0172428Y0300503D01*
X0173405Y0298144D01*
X0174600Y0296949D01*
X0174600Y0271530D01*
X0173417Y0270347D01*
X0172450Y0268013D01*
X0172925Y0269160D02*
X0169075Y0269160D01*
X0168171Y0270759D02*
X0173829Y0270759D01*
X0174600Y0272357D02*
X0166256Y0272357D01*
X0160144Y0272357D02*
X0103256Y0272357D01*
X0105171Y0270759D02*
X0158229Y0270759D01*
X0157325Y0269160D02*
X0106075Y0269160D01*
X0106550Y0267562D02*
X0156850Y0267562D01*
X0156850Y0265963D02*
X0106550Y0265963D01*
X0106550Y0264365D02*
X0156850Y0264365D01*
X0156850Y0262766D02*
X0106550Y0262766D01*
X0106550Y0261168D02*
X0155556Y0261168D01*
X0153958Y0259569D02*
X0106550Y0259569D01*
X0106550Y0257971D02*
X0152359Y0257971D01*
X0150761Y0256372D02*
X0106550Y0256372D01*
X0106213Y0254774D02*
X0149162Y0254774D01*
X0147564Y0253175D02*
X0105505Y0253175D01*
X0102596Y0233400D02*
X0101004Y0233400D01*
X0099534Y0232791D01*
X0098409Y0231666D01*
X0097800Y0230196D01*
X0097800Y0223404D01*
X0098409Y0221934D01*
X0099534Y0220809D01*
X0101004Y0220200D01*
X0102596Y0220200D01*
X0104066Y0220809D01*
X0105191Y0221934D01*
X0105800Y0223404D01*
X0105800Y0230196D01*
X0105191Y0231666D01*
X0104066Y0232791D01*
X0102596Y0233400D01*
X0104462Y0232395D02*
X0109138Y0232395D01*
X0109534Y0232791D02*
X0108409Y0231666D01*
X0107800Y0230196D01*
X0107800Y0223404D01*
X0108409Y0221934D01*
X0109534Y0220809D01*
X0111004Y0220200D01*
X0112596Y0220200D01*
X0114066Y0220809D01*
X0115191Y0221934D01*
X0115800Y0223404D01*
X0115800Y0230196D01*
X0115191Y0231666D01*
X0114066Y0232791D01*
X0112596Y0233400D01*
X0111004Y0233400D01*
X0109534Y0232791D01*
X0108049Y0230796D02*
X0105551Y0230796D01*
X0105800Y0229198D02*
X0107800Y0229198D01*
X0107800Y0227599D02*
X0105800Y0227599D01*
X0105800Y0226001D02*
X0107800Y0226001D01*
X0107800Y0224402D02*
X0105800Y0224402D01*
X0105551Y0222803D02*
X0108049Y0222803D01*
X0109138Y0221205D02*
X0104462Y0221205D01*
X0102711Y0219000D02*
X0080211Y0219000D01*
X0075800Y0223411D01*
X0075800Y0230196D01*
X0075191Y0231666D01*
X0074066Y0232791D01*
X0072596Y0233400D01*
X0071004Y0233400D01*
X0069534Y0232791D01*
X0068409Y0231666D01*
X0067800Y0230196D01*
X0067800Y0223404D01*
X0068409Y0221934D01*
X0069534Y0220809D01*
X0071004Y0220200D01*
X0072596Y0220200D01*
X0072732Y0220257D01*
X0076489Y0216500D01*
X0072711Y0216500D01*
X0065800Y0223411D01*
X0065800Y0230196D01*
X0065191Y0231666D01*
X0064066Y0232791D01*
X0062596Y0233400D01*
X0061004Y0233400D01*
X0059534Y0232791D01*
X0058409Y0231666D01*
X0057800Y0230196D01*
X0057800Y0223404D01*
X0058409Y0221934D01*
X0059534Y0220809D01*
X0061004Y0220200D01*
X0062596Y0220200D01*
X0062732Y0220257D01*
X0070889Y0212100D01*
X0079600Y0212100D01*
X0079600Y0205418D01*
X0079534Y0205391D01*
X0078409Y0204266D01*
X0077800Y0202796D01*
X0077800Y0196004D01*
X0078409Y0194534D01*
X0079534Y0193409D01*
X0081004Y0192800D01*
X0082596Y0192800D01*
X0084066Y0193409D01*
X0085191Y0194534D01*
X0085800Y0196004D01*
X0085800Y0202796D01*
X0085191Y0204266D01*
X0084066Y0205391D01*
X0084000Y0205418D01*
X0084000Y0214600D01*
X0099600Y0214600D01*
X0099600Y0205418D01*
X0099534Y0205391D01*
X0098409Y0204266D01*
X0097800Y0202796D01*
X0097800Y0196004D01*
X0098409Y0194534D01*
X0099534Y0193409D01*
X0101004Y0192800D01*
X0102596Y0192800D01*
X0104066Y0193409D01*
X0105191Y0194534D01*
X0105800Y0196004D01*
X0105800Y0202796D01*
X0105191Y0204266D01*
X0104066Y0205391D01*
X0104000Y0205418D01*
X0104000Y0217711D01*
X0102711Y0219000D01*
X0103703Y0218008D02*
X0149897Y0218008D01*
X0151495Y0219606D02*
X0079605Y0219606D01*
X0079534Y0220809D02*
X0078409Y0221934D01*
X0077800Y0223404D01*
X0077800Y0230196D01*
X0078409Y0231666D01*
X0079534Y0232791D01*
X0081004Y0233400D01*
X0082596Y0233400D01*
X0084066Y0232791D01*
X0085191Y0231666D01*
X0085800Y0230196D01*
X0085800Y0223404D01*
X0085191Y0221934D01*
X0084066Y0220809D01*
X0082596Y0220200D01*
X0081004Y0220200D01*
X0079534Y0220809D01*
X0079138Y0221205D02*
X0078006Y0221205D01*
X0078049Y0222803D02*
X0076408Y0222803D01*
X0075800Y0224402D02*
X0077800Y0224402D01*
X0077800Y0226001D02*
X0075800Y0226001D01*
X0075800Y0227599D02*
X0077800Y0227599D01*
X0077800Y0229198D02*
X0075800Y0229198D01*
X0075551Y0230796D02*
X0078049Y0230796D01*
X0079138Y0232395D02*
X0074462Y0232395D01*
X0069138Y0232395D02*
X0064462Y0232395D01*
X0065551Y0230796D02*
X0068049Y0230796D01*
X0067800Y0229198D02*
X0065800Y0229198D01*
X0065800Y0227599D02*
X0067800Y0227599D01*
X0067800Y0226001D02*
X0065800Y0226001D01*
X0065800Y0224402D02*
X0067800Y0224402D01*
X0068049Y0222803D02*
X0066408Y0222803D01*
X0068006Y0221205D02*
X0069138Y0221205D01*
X0069605Y0219606D02*
X0073382Y0219606D01*
X0074981Y0218008D02*
X0071203Y0218008D01*
X0071800Y0214300D02*
X0061800Y0224300D01*
X0061800Y0226800D01*
X0057800Y0227599D02*
X0055800Y0227599D01*
X0055800Y0226001D02*
X0057800Y0226001D01*
X0057800Y0224402D02*
X0055800Y0224402D01*
X0055800Y0223404D02*
X0055800Y0230196D01*
X0055191Y0231666D01*
X0054066Y0232791D01*
X0052596Y0233400D01*
X0051004Y0233400D01*
X0049534Y0232791D01*
X0048409Y0231666D01*
X0047800Y0230196D01*
X0047800Y0223404D01*
X0048409Y0221934D01*
X0049534Y0220809D01*
X0051004Y0220200D01*
X0052596Y0220200D01*
X0054066Y0220809D01*
X0055191Y0221934D01*
X0055800Y0223404D01*
X0055551Y0222803D02*
X0058049Y0222803D01*
X0059138Y0221205D02*
X0054462Y0221205D01*
X0049138Y0221205D02*
X0044462Y0221205D01*
X0044066Y0220809D02*
X0045191Y0221934D01*
X0045800Y0223404D01*
X0045800Y0230196D01*
X0045191Y0231666D01*
X0044066Y0232791D01*
X0042596Y0233400D01*
X0041004Y0233400D01*
X0039534Y0232791D01*
X0038409Y0231666D01*
X0037800Y0230196D01*
X0037800Y0223404D01*
X0038409Y0221934D01*
X0039534Y0220809D01*
X0039600Y0220782D01*
X0039600Y0205418D01*
X0039534Y0205391D01*
X0038409Y0204266D01*
X0037800Y0202796D01*
X0037800Y0196004D01*
X0038409Y0194534D01*
X0039534Y0193409D01*
X0041004Y0192800D01*
X0042596Y0192800D01*
X0044066Y0193409D01*
X0045191Y0194534D01*
X0045800Y0196004D01*
X0045800Y0202796D01*
X0045191Y0204266D01*
X0044066Y0205391D01*
X0044000Y0205418D01*
X0044000Y0220782D01*
X0044066Y0220809D01*
X0044000Y0219606D02*
X0063382Y0219606D01*
X0064981Y0218008D02*
X0044000Y0218008D01*
X0044000Y0216409D02*
X0066579Y0216409D01*
X0068178Y0214811D02*
X0044000Y0214811D01*
X0044000Y0213212D02*
X0069776Y0213212D01*
X0071800Y0214300D02*
X0081800Y0214300D01*
X0081800Y0196800D01*
X0084687Y0194030D02*
X0088913Y0194030D01*
X0088409Y0194534D02*
X0089534Y0193409D01*
X0091004Y0192800D01*
X0092596Y0192800D01*
X0094066Y0193409D01*
X0095191Y0194534D01*
X0095800Y0196004D01*
X0095800Y0202796D01*
X0095191Y0204266D01*
X0094066Y0205391D01*
X0092596Y0206000D01*
X0091004Y0206000D01*
X0089534Y0205391D01*
X0088409Y0204266D01*
X0087800Y0202796D01*
X0087800Y0196004D01*
X0088409Y0194534D01*
X0087956Y0195629D02*
X0085644Y0195629D01*
X0085800Y0197227D02*
X0087800Y0197227D01*
X0087800Y0198826D02*
X0085800Y0198826D01*
X0085800Y0200424D02*
X0087800Y0200424D01*
X0087800Y0202023D02*
X0085800Y0202023D01*
X0085458Y0203621D02*
X0088142Y0203621D01*
X0089363Y0205220D02*
X0084237Y0205220D01*
X0084000Y0206818D02*
X0099600Y0206818D01*
X0099600Y0208417D02*
X0084000Y0208417D01*
X0084000Y0210015D02*
X0099600Y0210015D01*
X0099600Y0211614D02*
X0084000Y0211614D01*
X0084000Y0213212D02*
X0099600Y0213212D01*
X0104000Y0213212D02*
X0145101Y0213212D01*
X0143503Y0211614D02*
X0104000Y0211614D01*
X0104000Y0210015D02*
X0141904Y0210015D01*
X0140306Y0208417D02*
X0104000Y0208417D01*
X0104000Y0206818D02*
X0138707Y0206818D01*
X0137109Y0205220D02*
X0104237Y0205220D01*
X0105458Y0203621D02*
X0135510Y0203621D01*
X0133912Y0202023D02*
X0105800Y0202023D01*
X0105800Y0200424D02*
X0132313Y0200424D01*
X0130715Y0198826D02*
X0105800Y0198826D01*
X0105800Y0197227D02*
X0129116Y0197227D01*
X0127518Y0195629D02*
X0105644Y0195629D01*
X0104687Y0194030D02*
X0125919Y0194030D01*
X0124321Y0192432D02*
X0021500Y0192432D01*
X0021500Y0194030D02*
X0028913Y0194030D01*
X0028409Y0194534D02*
X0029534Y0193409D01*
X0031004Y0192800D01*
X0032596Y0192800D01*
X0034066Y0193409D01*
X0035191Y0194534D01*
X0035800Y0196004D01*
X0035800Y0202796D01*
X0035191Y0204266D01*
X0034066Y0205391D01*
X0032596Y0206000D01*
X0031004Y0206000D01*
X0029534Y0205391D01*
X0028409Y0204266D01*
X0027800Y0202796D01*
X0027800Y0196004D01*
X0028409Y0194534D01*
X0027956Y0195629D02*
X0021500Y0195629D01*
X0021500Y0197227D02*
X0027800Y0197227D01*
X0027800Y0198826D02*
X0021500Y0198826D01*
X0021500Y0200424D02*
X0027800Y0200424D01*
X0027800Y0202023D02*
X0021500Y0202023D01*
X0021500Y0203621D02*
X0028142Y0203621D01*
X0029363Y0205220D02*
X0021500Y0205220D01*
X0021500Y0206818D02*
X0039600Y0206818D01*
X0039600Y0208417D02*
X0021500Y0208417D01*
X0021500Y0210015D02*
X0039600Y0210015D01*
X0039600Y0211614D02*
X0021500Y0211614D01*
X0021500Y0213212D02*
X0039600Y0213212D01*
X0039600Y0214811D02*
X0021500Y0214811D01*
X0021500Y0216409D02*
X0039600Y0216409D01*
X0039600Y0218008D02*
X0021500Y0218008D01*
X0021500Y0219606D02*
X0039600Y0219606D01*
X0039138Y0221205D02*
X0034462Y0221205D01*
X0035551Y0222803D02*
X0038049Y0222803D01*
X0037800Y0224402D02*
X0035800Y0224402D01*
X0035800Y0226001D02*
X0037800Y0226001D01*
X0037800Y0227599D02*
X0035800Y0227599D01*
X0035800Y0229198D02*
X0037800Y0229198D01*
X0038049Y0230796D02*
X0035551Y0230796D01*
X0034462Y0232395D02*
X0039138Y0232395D01*
X0034400Y0233993D02*
X0165316Y0233993D01*
X0164232Y0232395D02*
X0114462Y0232395D01*
X0115551Y0230796D02*
X0162685Y0230796D01*
X0161086Y0229198D02*
X0115800Y0229198D01*
X0115800Y0227599D02*
X0159488Y0227599D01*
X0157889Y0226001D02*
X0115800Y0226001D01*
X0115800Y0224402D02*
X0156291Y0224402D01*
X0154692Y0222803D02*
X0115551Y0222803D01*
X0114462Y0221205D02*
X0153094Y0221205D01*
X0156119Y0218008D02*
X0196915Y0218008D01*
X0195317Y0219606D02*
X0157718Y0219606D01*
X0159316Y0221205D02*
X0193718Y0221205D01*
X0192120Y0222803D02*
X0160915Y0222803D01*
X0162513Y0224402D02*
X0190521Y0224402D01*
X0188923Y0226001D02*
X0164112Y0226001D01*
X0165710Y0227599D02*
X0187324Y0227599D01*
X0185726Y0229198D02*
X0167309Y0229198D01*
X0169198Y0230796D02*
X0184127Y0230796D01*
X0182528Y0232395D02*
X0169368Y0232395D01*
X0168284Y0233993D02*
X0180930Y0233993D01*
X0185087Y0237190D02*
X0254079Y0237190D01*
X0254600Y0237711D02*
X0251289Y0234400D01*
X0251283Y0234400D01*
X0250327Y0234004D01*
X0249596Y0233273D01*
X0249200Y0232317D01*
X0249200Y0231283D01*
X0249596Y0230327D01*
X0250327Y0229596D01*
X0251283Y0229200D01*
X0252317Y0229200D01*
X0253273Y0229596D01*
X0254004Y0230327D01*
X0254400Y0231283D01*
X0254400Y0231289D01*
X0257711Y0234600D01*
X0308389Y0234600D01*
X0312800Y0230189D01*
X0312800Y0223404D01*
X0313409Y0221934D01*
X0314534Y0220809D01*
X0316004Y0220200D01*
X0317596Y0220200D01*
X0319066Y0220809D01*
X0320191Y0221934D01*
X0320800Y0223404D01*
X0320800Y0230196D01*
X0320191Y0231666D01*
X0319066Y0232791D01*
X0317596Y0233400D01*
X0316004Y0233400D01*
X0315868Y0233343D01*
X0310211Y0239000D01*
X0255889Y0239000D01*
X0254600Y0237711D01*
X0255677Y0238789D02*
X0183488Y0238789D01*
X0186685Y0235592D02*
X0252480Y0235592D01*
X0250316Y0233993D02*
X0188284Y0233993D01*
X0189882Y0232395D02*
X0249232Y0232395D01*
X0249402Y0230796D02*
X0191481Y0230796D01*
X0193079Y0229198D02*
X0262800Y0229198D01*
X0262800Y0227599D02*
X0194678Y0227599D01*
X0196276Y0226001D02*
X0262324Y0226001D01*
X0260725Y0224402D02*
X0197875Y0224402D01*
X0199473Y0222803D02*
X0259127Y0222803D01*
X0257528Y0221205D02*
X0201072Y0221205D01*
X0202670Y0219606D02*
X0255930Y0219606D01*
X0254331Y0218008D02*
X0204269Y0218008D01*
X0205867Y0216409D02*
X0252733Y0216409D01*
X0251134Y0214811D02*
X0207466Y0214811D01*
X0209065Y0213212D02*
X0249535Y0213212D01*
X0247937Y0211614D02*
X0210663Y0211614D01*
X0212262Y0210015D02*
X0246338Y0210015D01*
X0244740Y0208417D02*
X0213860Y0208417D01*
X0209703Y0205220D02*
X0143331Y0205220D01*
X0141733Y0203621D02*
X0211302Y0203621D01*
X0212900Y0202023D02*
X0140134Y0202023D01*
X0138536Y0200424D02*
X0156900Y0200424D01*
X0156900Y0200880D02*
X0156900Y0192720D01*
X0157720Y0191900D01*
X0165880Y0191900D01*
X0166700Y0192720D01*
X0166700Y0200880D01*
X0165880Y0201700D01*
X0157720Y0201700D01*
X0156900Y0200880D01*
X0156900Y0198826D02*
X0136937Y0198826D01*
X0135339Y0197227D02*
X0156900Y0197227D01*
X0156900Y0195629D02*
X0133740Y0195629D01*
X0132142Y0194030D02*
X0152890Y0194030D01*
X0151747Y0192432D02*
X0130543Y0192432D01*
X0128945Y0190833D02*
X0150222Y0190833D01*
X0148623Y0189235D02*
X0127346Y0189235D01*
X0125748Y0187636D02*
X0147025Y0187636D01*
X0145426Y0186038D02*
X0086649Y0186038D01*
X0085050Y0184439D02*
X0143828Y0184439D01*
X0142229Y0182841D02*
X0083452Y0182841D01*
X0081853Y0181242D02*
X0140631Y0181242D01*
X0139032Y0179644D02*
X0080255Y0179644D01*
X0079094Y0178045D02*
X0137434Y0178045D01*
X0135835Y0176447D02*
X0095830Y0176447D01*
X0097429Y0174848D02*
X0134237Y0174848D01*
X0132638Y0173250D02*
X0099027Y0173250D01*
X0100626Y0171651D02*
X0131040Y0171651D01*
X0129441Y0170053D02*
X0104204Y0170053D01*
X0105444Y0168454D02*
X0127843Y0168454D01*
X0126244Y0166856D02*
X0105800Y0166856D01*
X0105800Y0165257D02*
X0124646Y0165257D01*
X0123047Y0163659D02*
X0105800Y0163659D01*
X0105800Y0162060D02*
X0121449Y0162060D01*
X0119850Y0160462D02*
X0111633Y0160462D01*
X0111900Y0158863D02*
X0118252Y0158863D01*
X0116653Y0157265D02*
X0110941Y0157265D01*
X0111548Y0155666D02*
X0115055Y0155666D01*
X0113456Y0154068D02*
X0111900Y0154068D01*
X0111858Y0152469D02*
X0111146Y0152469D01*
X0109300Y0154300D02*
X0079300Y0154300D01*
X0074300Y0159300D01*
X0071800Y0159300D01*
X0071800Y0166800D01*
X0067800Y0166856D02*
X0065800Y0166856D01*
X0065800Y0165257D02*
X0067800Y0165257D01*
X0067800Y0163659D02*
X0065800Y0163659D01*
X0065800Y0162060D02*
X0067800Y0162060D01*
X0067942Y0160462D02*
X0065658Y0160462D01*
X0064720Y0158863D02*
X0068880Y0158863D01*
X0070724Y0157265D02*
X0034000Y0157265D01*
X0034000Y0155666D02*
X0050055Y0155666D01*
X0049600Y0154068D02*
X0034000Y0154068D01*
X0034300Y0151800D02*
X0031800Y0151800D01*
X0031800Y0166800D01*
X0035800Y0166856D02*
X0037800Y0166856D01*
X0037800Y0165257D02*
X0035800Y0165257D01*
X0035800Y0163659D02*
X0037800Y0163659D01*
X0037800Y0162060D02*
X0035800Y0162060D01*
X0035658Y0160462D02*
X0037942Y0160462D01*
X0038880Y0158863D02*
X0034720Y0158863D01*
X0036742Y0152469D02*
X0049600Y0152469D01*
X0049600Y0150870D02*
X0042908Y0150870D01*
X0040692Y0150870D02*
X0038341Y0150870D01*
X0036800Y0149300D02*
X0036800Y0121800D01*
X0031800Y0121800D01*
X0024300Y0114300D01*
X0024300Y0091800D01*
X0074300Y0091800D01*
X0081800Y0084300D01*
X0081800Y0081800D01*
X0077800Y0082134D02*
X0075800Y0082134D01*
X0075800Y0080536D02*
X0077800Y0080536D01*
X0077800Y0078937D02*
X0075800Y0078937D01*
X0075800Y0078404D02*
X0075800Y0085196D01*
X0075191Y0086666D01*
X0074066Y0087791D01*
X0072596Y0088400D01*
X0071004Y0088400D01*
X0069534Y0087791D01*
X0068409Y0086666D01*
X0067800Y0085196D01*
X0067800Y0078404D01*
X0068409Y0076934D01*
X0069534Y0075809D01*
X0071004Y0075200D01*
X0072596Y0075200D01*
X0074066Y0075809D01*
X0075191Y0076934D01*
X0075800Y0078404D01*
X0075359Y0077339D02*
X0078241Y0077339D01*
X0079700Y0075740D02*
X0073900Y0075740D01*
X0069700Y0075740D02*
X0063900Y0075740D01*
X0064066Y0075809D02*
X0065191Y0076934D01*
X0065800Y0078404D01*
X0065800Y0085196D01*
X0065191Y0086666D01*
X0064066Y0087791D01*
X0062596Y0088400D01*
X0061004Y0088400D01*
X0059534Y0087791D01*
X0058409Y0086666D01*
X0057800Y0085196D01*
X0057800Y0078404D01*
X0058409Y0076934D01*
X0059534Y0075809D01*
X0061004Y0075200D01*
X0062596Y0075200D01*
X0064066Y0075809D01*
X0065359Y0077339D02*
X0068241Y0077339D01*
X0067800Y0078937D02*
X0065800Y0078937D01*
X0065800Y0080536D02*
X0067800Y0080536D01*
X0067800Y0082134D02*
X0065800Y0082134D01*
X0065800Y0083733D02*
X0067800Y0083733D01*
X0067856Y0085332D02*
X0065744Y0085332D01*
X0064927Y0086930D02*
X0068673Y0086930D01*
X0074460Y0088529D02*
X0033332Y0088529D01*
X0033489Y0088478D02*
X0032830Y0088692D01*
X0032146Y0088800D01*
X0031800Y0088800D01*
X0031800Y0081800D01*
X0036200Y0081800D01*
X0036200Y0084746D01*
X0036092Y0085430D01*
X0035878Y0086089D01*
X0035563Y0086706D01*
X0035156Y0087266D01*
X0034666Y0087756D01*
X0034106Y0088163D01*
X0033489Y0088478D01*
X0031800Y0088529D02*
X0031800Y0088529D01*
X0031800Y0088800D02*
X0031454Y0088800D01*
X0030770Y0088692D01*
X0030111Y0088478D01*
X0029494Y0088163D01*
X0028934Y0087756D01*
X0028444Y0087266D01*
X0028037Y0086706D01*
X0027722Y0086089D01*
X0027508Y0085430D01*
X0027400Y0084746D01*
X0027400Y0081800D01*
X0031800Y0081800D01*
X0031800Y0081800D01*
X0031800Y0081800D01*
X0036200Y0081800D01*
X0036200Y0078854D01*
X0036092Y0078170D01*
X0035878Y0077511D01*
X0035563Y0076894D01*
X0035156Y0076334D01*
X0034666Y0075844D01*
X0034106Y0075437D01*
X0033489Y0075122D01*
X0032830Y0074908D01*
X0032146Y0074800D01*
X0031800Y0074800D01*
X0031800Y0081800D01*
X0031800Y0081800D01*
X0031800Y0081800D01*
X0031800Y0088800D01*
X0030268Y0088529D02*
X0013600Y0088529D01*
X0013600Y0090127D02*
X0022862Y0090127D01*
X0022100Y0091726D02*
X0013600Y0091726D01*
X0013600Y0093324D02*
X0022100Y0093324D01*
X0022100Y0094923D02*
X0013600Y0094923D01*
X0013600Y0096521D02*
X0022100Y0096521D01*
X0022100Y0098120D02*
X0013600Y0098120D01*
X0013600Y0099718D02*
X0022100Y0099718D01*
X0022100Y0101317D02*
X0013600Y0101317D01*
X0013600Y0102915D02*
X0022100Y0102915D01*
X0022100Y0104514D02*
X0013600Y0104514D01*
X0013600Y0106112D02*
X0022100Y0106112D01*
X0022100Y0107711D02*
X0013600Y0107711D01*
X0013600Y0109309D02*
X0022100Y0109309D01*
X0022100Y0110908D02*
X0013600Y0110908D01*
X0013600Y0112506D02*
X0022100Y0112506D01*
X0022100Y0114105D02*
X0013600Y0114105D01*
X0013600Y0115703D02*
X0022592Y0115703D01*
X0024190Y0117302D02*
X0013600Y0117302D01*
X0013600Y0118900D02*
X0025789Y0118900D01*
X0027387Y0120499D02*
X0013600Y0120499D01*
X0013600Y0122097D02*
X0028986Y0122097D01*
X0030585Y0123696D02*
X0013600Y0123696D01*
X0013600Y0125294D02*
X0034600Y0125294D01*
X0034600Y0126893D02*
X0013600Y0126893D01*
X0013600Y0128491D02*
X0034600Y0128491D01*
X0034600Y0130090D02*
X0013600Y0130090D01*
X0013600Y0131688D02*
X0034600Y0131688D01*
X0034600Y0133287D02*
X0013600Y0133287D01*
X0013600Y0134885D02*
X0034600Y0134885D01*
X0034600Y0136484D02*
X0013600Y0136484D01*
X0013600Y0138082D02*
X0030323Y0138082D01*
X0028348Y0139681D02*
X0013600Y0139681D01*
X0013600Y0141279D02*
X0027800Y0141279D01*
X0027611Y0142878D02*
X0013600Y0142878D01*
X0013600Y0144476D02*
X0026012Y0144476D01*
X0024414Y0146075D02*
X0013600Y0146075D01*
X0013600Y0147673D02*
X0022815Y0147673D01*
X0021217Y0149272D02*
X0013600Y0149272D01*
X0013600Y0150870D02*
X0019618Y0150870D01*
X0018020Y0152469D02*
X0013600Y0152469D01*
X0013600Y0154068D02*
X0017100Y0154068D01*
X0017100Y0155666D02*
X0013600Y0155666D01*
X0013600Y0157265D02*
X0017100Y0157265D01*
X0017100Y0158863D02*
X0013600Y0158863D01*
X0013600Y0160462D02*
X0017100Y0160462D01*
X0017100Y0162060D02*
X0013600Y0162060D01*
X0013600Y0163659D02*
X0017100Y0163659D01*
X0017100Y0165257D02*
X0013600Y0165257D01*
X0013600Y0166856D02*
X0017100Y0166856D01*
X0017100Y0168454D02*
X0013600Y0168454D01*
X0013600Y0170053D02*
X0017100Y0170053D01*
X0017100Y0171651D02*
X0013600Y0171651D01*
X0013600Y0173250D02*
X0017100Y0173250D01*
X0017100Y0174848D02*
X0013600Y0174848D01*
X0013600Y0176447D02*
X0017100Y0176447D01*
X0017100Y0178045D02*
X0013600Y0178045D01*
X0013600Y0179644D02*
X0017100Y0179644D01*
X0017100Y0181242D02*
X0013600Y0181242D01*
X0013600Y0182841D02*
X0017100Y0182841D01*
X0017100Y0184439D02*
X0013600Y0184439D01*
X0013600Y0186038D02*
X0017100Y0186038D01*
X0017100Y0187636D02*
X0013600Y0187636D01*
X0013600Y0189235D02*
X0017100Y0189235D01*
X0017100Y0190833D02*
X0013600Y0190833D01*
X0013600Y0192432D02*
X0017100Y0192432D01*
X0017100Y0194030D02*
X0013600Y0194030D01*
X0013600Y0195629D02*
X0017100Y0195629D01*
X0017100Y0197227D02*
X0013600Y0197227D01*
X0013600Y0198826D02*
X0017100Y0198826D01*
X0017100Y0200424D02*
X0013600Y0200424D01*
X0013600Y0202023D02*
X0017100Y0202023D01*
X0017100Y0203621D02*
X0013600Y0203621D01*
X0013600Y0205220D02*
X0017100Y0205220D01*
X0017100Y0206818D02*
X0013600Y0206818D01*
X0013600Y0208417D02*
X0017100Y0208417D01*
X0017100Y0210015D02*
X0013600Y0210015D01*
X0013600Y0211614D02*
X0017100Y0211614D01*
X0017100Y0213212D02*
X0013600Y0213212D01*
X0013600Y0214811D02*
X0017100Y0214811D01*
X0017100Y0216409D02*
X0013600Y0216409D01*
X0013600Y0218008D02*
X0017100Y0218008D01*
X0017100Y0219606D02*
X0013600Y0219606D01*
X0013600Y0221205D02*
X0017100Y0221205D01*
X0017100Y0222803D02*
X0013600Y0222803D01*
X0013600Y0224402D02*
X0017100Y0224402D01*
X0017100Y0226001D02*
X0013600Y0226001D01*
X0013600Y0227599D02*
X0017100Y0227599D01*
X0017100Y0229198D02*
X0013600Y0229198D01*
X0013600Y0230796D02*
X0017100Y0230796D01*
X0017100Y0232395D02*
X0013600Y0232395D01*
X0013600Y0233993D02*
X0017100Y0233993D01*
X0017100Y0235592D02*
X0013600Y0235592D01*
X0013600Y0237190D02*
X0017100Y0237190D01*
X0017100Y0238789D02*
X0013600Y0238789D01*
X0013600Y0240387D02*
X0017100Y0240387D01*
X0017100Y0241986D02*
X0013600Y0241986D01*
X0013600Y0243584D02*
X0017100Y0243584D01*
X0017100Y0245183D02*
X0013600Y0245183D01*
X0013600Y0246781D02*
X0017100Y0246781D01*
X0019300Y0246800D02*
X0019300Y0154300D01*
X0031800Y0141800D01*
X0033277Y0138082D02*
X0034600Y0138082D01*
X0039000Y0138082D02*
X0040323Y0138082D01*
X0039000Y0136484D02*
X0094005Y0136484D01*
X0095603Y0134885D02*
X0039000Y0134885D01*
X0039000Y0133287D02*
X0050176Y0133287D01*
X0051800Y0131800D02*
X0031800Y0111800D01*
X0039000Y0123696D02*
X0040585Y0123696D01*
X0039000Y0125294D02*
X0042183Y0125294D01*
X0043782Y0126893D02*
X0039000Y0126893D01*
X0039000Y0128491D02*
X0045380Y0128491D01*
X0046979Y0130090D02*
X0039000Y0130090D01*
X0039000Y0131688D02*
X0048577Y0131688D01*
X0051800Y0131800D02*
X0136800Y0131800D01*
X0161800Y0156800D01*
X0157351Y0158863D02*
X0136974Y0158863D01*
X0135376Y0157265D02*
X0156900Y0157265D01*
X0156966Y0155666D02*
X0133777Y0155666D01*
X0132179Y0154068D02*
X0155956Y0154068D01*
X0154358Y0152469D02*
X0130580Y0152469D01*
X0128982Y0150870D02*
X0152759Y0150870D01*
X0151161Y0149272D02*
X0127383Y0149272D01*
X0125785Y0147673D02*
X0149562Y0147673D01*
X0147964Y0146075D02*
X0124186Y0146075D01*
X0122588Y0144476D02*
X0146365Y0144476D01*
X0144767Y0142878D02*
X0120989Y0142878D01*
X0119391Y0141279D02*
X0143168Y0141279D01*
X0141570Y0139681D02*
X0117792Y0139681D01*
X0116194Y0138082D02*
X0139971Y0138082D01*
X0138373Y0136484D02*
X0114595Y0136484D01*
X0112997Y0134885D02*
X0136774Y0134885D01*
X0144300Y0129300D02*
X0069300Y0129300D01*
X0064300Y0124300D01*
X0062596Y0137800D02*
X0064066Y0138409D01*
X0065191Y0139534D01*
X0065800Y0141004D01*
X0065800Y0147796D01*
X0065191Y0149266D01*
X0064066Y0150391D01*
X0062596Y0151000D01*
X0061004Y0151000D01*
X0059534Y0150391D01*
X0058409Y0149266D01*
X0057800Y0147796D01*
X0057800Y0141004D01*
X0058409Y0139534D01*
X0059534Y0138409D01*
X0061004Y0137800D01*
X0062596Y0137800D01*
X0063277Y0138082D02*
X0070323Y0138082D01*
X0071004Y0137800D02*
X0072596Y0137800D01*
X0074066Y0138409D01*
X0075191Y0139534D01*
X0075800Y0141004D01*
X0075800Y0147796D01*
X0075191Y0149266D01*
X0074066Y0150391D01*
X0072596Y0151000D01*
X0071004Y0151000D01*
X0069534Y0150391D01*
X0068409Y0149266D01*
X0067800Y0147796D01*
X0067800Y0141004D01*
X0068409Y0139534D01*
X0069534Y0138409D01*
X0071004Y0137800D01*
X0073277Y0138082D02*
X0080323Y0138082D01*
X0078348Y0139681D02*
X0075252Y0139681D01*
X0075800Y0141279D02*
X0077800Y0141279D01*
X0077800Y0142878D02*
X0075800Y0142878D01*
X0075800Y0144476D02*
X0077800Y0144476D01*
X0077800Y0146075D02*
X0075800Y0146075D01*
X0075800Y0147673D02*
X0077800Y0147673D01*
X0078415Y0149272D02*
X0075185Y0149272D01*
X0074618Y0150870D02*
X0072908Y0150870D01*
X0070692Y0150870D02*
X0062908Y0150870D01*
X0060692Y0150870D02*
X0054000Y0150870D01*
X0055185Y0149272D02*
X0058415Y0149272D01*
X0057800Y0147673D02*
X0055800Y0147673D01*
X0055800Y0146075D02*
X0057800Y0146075D01*
X0057800Y0144476D02*
X0055800Y0144476D01*
X0055800Y0142878D02*
X0057800Y0142878D01*
X0057800Y0141279D02*
X0055800Y0141279D01*
X0055252Y0139681D02*
X0058348Y0139681D01*
X0060323Y0138082D02*
X0053277Y0138082D01*
X0050323Y0138082D02*
X0043277Y0138082D01*
X0045252Y0139681D02*
X0048348Y0139681D01*
X0047800Y0141279D02*
X0045800Y0141279D01*
X0045800Y0142878D02*
X0047800Y0142878D01*
X0047800Y0144476D02*
X0045800Y0144476D01*
X0045800Y0146075D02*
X0047800Y0146075D01*
X0047800Y0147673D02*
X0045800Y0147673D01*
X0045185Y0149272D02*
X0048415Y0149272D01*
X0051800Y0154300D02*
X0074300Y0154300D01*
X0076800Y0151800D01*
X0106800Y0151800D01*
X0109300Y0149300D01*
X0111800Y0149300D01*
X0154300Y0191800D01*
X0156714Y0190833D02*
X0158904Y0190833D01*
X0157505Y0189235D02*
X0154901Y0189235D01*
X0153248Y0187636D02*
X0156900Y0187636D01*
X0156900Y0186038D02*
X0151649Y0186038D01*
X0150050Y0184439D02*
X0157474Y0184439D01*
X0156800Y0181800D02*
X0169300Y0181800D01*
X0171683Y0182841D02*
X0218264Y0182841D01*
X0217055Y0184439D02*
X0166126Y0184439D01*
X0166700Y0186038D02*
X0216555Y0186038D01*
X0216566Y0187636D02*
X0166700Y0187636D01*
X0166095Y0189235D02*
X0217092Y0189235D01*
X0218338Y0190833D02*
X0164696Y0190833D01*
X0166412Y0192432D02*
X0219541Y0192432D01*
X0217644Y0194030D02*
X0166700Y0194030D01*
X0166700Y0195629D02*
X0216981Y0195629D01*
X0216900Y0197227D02*
X0166700Y0197227D01*
X0166700Y0198826D02*
X0216097Y0198826D01*
X0214499Y0200424D02*
X0166700Y0200424D01*
X0156900Y0194030D02*
X0155710Y0194030D01*
X0156853Y0192432D02*
X0157188Y0192432D01*
X0154729Y0182841D02*
X0148452Y0182841D01*
X0146853Y0181242D02*
X0153131Y0181242D01*
X0151532Y0179644D02*
X0145255Y0179644D01*
X0143656Y0178045D02*
X0149934Y0178045D01*
X0148335Y0176447D02*
X0142058Y0176447D01*
X0140459Y0174848D02*
X0146737Y0174848D01*
X0145138Y0173250D02*
X0138861Y0173250D01*
X0137262Y0171651D02*
X0143540Y0171651D01*
X0141941Y0170053D02*
X0135664Y0170053D01*
X0134065Y0168454D02*
X0140343Y0168454D01*
X0138744Y0166856D02*
X0132467Y0166856D01*
X0130868Y0165257D02*
X0137146Y0165257D01*
X0135547Y0163659D02*
X0129270Y0163659D01*
X0127671Y0162060D02*
X0133949Y0162060D01*
X0132350Y0160462D02*
X0126073Y0160462D01*
X0124474Y0158863D02*
X0130752Y0158863D01*
X0129153Y0157265D02*
X0122876Y0157265D01*
X0121277Y0155666D02*
X0127555Y0155666D01*
X0125956Y0154068D02*
X0119679Y0154068D01*
X0118080Y0152469D02*
X0124358Y0152469D01*
X0122759Y0150870D02*
X0116482Y0150870D01*
X0114883Y0149272D02*
X0121161Y0149272D01*
X0119562Y0147673D02*
X0113285Y0147673D01*
X0116365Y0144476D02*
X0105800Y0144476D01*
X0105800Y0142878D02*
X0114767Y0142878D01*
X0113168Y0141279D02*
X0105800Y0141279D01*
X0105252Y0139681D02*
X0111570Y0139681D01*
X0111800Y0136800D02*
X0156800Y0181800D01*
X0157012Y0178045D02*
X0156156Y0178045D01*
X0156900Y0176447D02*
X0154558Y0176447D01*
X0152959Y0174848D02*
X0157305Y0174848D01*
X0158421Y0173250D02*
X0151361Y0173250D01*
X0149762Y0171651D02*
X0159647Y0171651D01*
X0157612Y0170053D02*
X0148164Y0170053D01*
X0146565Y0168454D02*
X0156765Y0168454D01*
X0156729Y0165257D02*
X0143368Y0165257D01*
X0141770Y0163659D02*
X0157531Y0163659D01*
X0159428Y0162060D02*
X0140171Y0162060D01*
X0138573Y0160462D02*
X0158532Y0160462D01*
X0164172Y0162060D02*
X0220439Y0162060D01*
X0220825Y0161900D02*
X0222775Y0161900D01*
X0224576Y0162646D01*
X0225954Y0164024D01*
X0226700Y0165825D01*
X0226700Y0167775D01*
X0225954Y0169576D01*
X0224576Y0170954D01*
X0222775Y0171700D01*
X0220825Y0171700D01*
X0219024Y0170954D01*
X0217646Y0169576D01*
X0216900Y0167775D01*
X0216900Y0165825D01*
X0217646Y0164024D01*
X0219024Y0162646D01*
X0220825Y0161900D01*
X0220825Y0161700D02*
X0219024Y0160954D01*
X0217646Y0159576D01*
X0216900Y0157775D01*
X0216900Y0155825D01*
X0217646Y0154024D01*
X0219024Y0152646D01*
X0220825Y0151900D01*
X0222775Y0151900D01*
X0224576Y0152646D01*
X0225954Y0154024D01*
X0226700Y0155825D01*
X0226700Y0157775D01*
X0225954Y0159576D01*
X0224576Y0160954D01*
X0222775Y0161700D01*
X0220825Y0161700D01*
X0223161Y0162060D02*
X0243949Y0162060D01*
X0245547Y0163659D02*
X0225588Y0163659D01*
X0226465Y0165257D02*
X0247146Y0165257D01*
X0248744Y0166856D02*
X0226700Y0166856D01*
X0226419Y0168454D02*
X0250343Y0168454D01*
X0250889Y0169000D02*
X0249600Y0167711D01*
X0225983Y0144094D01*
X0226700Y0145825D01*
X0226700Y0147775D01*
X0225954Y0149576D01*
X0224576Y0150954D01*
X0222775Y0151700D01*
X0220825Y0151700D01*
X0219024Y0150954D01*
X0217646Y0149576D01*
X0216900Y0147775D01*
X0216900Y0145825D01*
X0217646Y0144024D01*
X0219024Y0142646D01*
X0220825Y0141900D01*
X0222775Y0141900D01*
X0224506Y0142617D01*
X0223350Y0141462D01*
X0222775Y0141700D01*
X0220825Y0141700D01*
X0219024Y0140954D01*
X0217646Y0139576D01*
X0216900Y0137775D01*
X0216900Y0135825D01*
X0217646Y0134024D01*
X0219024Y0132646D01*
X0220825Y0131900D01*
X0222775Y0131900D01*
X0224576Y0132646D01*
X0225954Y0134024D01*
X0226700Y0135825D01*
X0226700Y0137775D01*
X0226462Y0138350D01*
X0252711Y0164600D01*
X0272800Y0164600D01*
X0272800Y0160804D01*
X0273409Y0159334D01*
X0274534Y0158209D01*
X0276004Y0157600D01*
X0277596Y0157600D01*
X0279066Y0158209D01*
X0280191Y0159334D01*
X0280800Y0160804D01*
X0280800Y0167596D01*
X0280191Y0169066D01*
X0279066Y0170191D01*
X0277596Y0170800D01*
X0276004Y0170800D01*
X0274534Y0170191D01*
X0273409Y0169066D01*
X0273382Y0169000D01*
X0250889Y0169000D01*
X0251800Y0166800D02*
X0276800Y0166800D01*
X0280800Y0166856D02*
X0282800Y0166856D01*
X0282800Y0167596D02*
X0282800Y0160804D01*
X0283409Y0159334D01*
X0284534Y0158209D01*
X0286004Y0157600D01*
X0287596Y0157600D01*
X0289066Y0158209D01*
X0290191Y0159334D01*
X0290800Y0160804D01*
X0290800Y0167123D01*
X0295377Y0171700D01*
X0298223Y0171700D01*
X0302800Y0167123D01*
X0302800Y0160804D01*
X0303409Y0159334D01*
X0304534Y0158209D01*
X0306004Y0157600D01*
X0307596Y0157600D01*
X0309066Y0158209D01*
X0310191Y0159334D01*
X0310800Y0160804D01*
X0310800Y0167596D01*
X0310191Y0169066D01*
X0309066Y0170191D01*
X0307596Y0170800D01*
X0306477Y0170800D01*
X0305577Y0171700D01*
X0318223Y0171700D01*
X0322800Y0167123D01*
X0322800Y0160804D01*
X0323409Y0159334D01*
X0324534Y0158209D01*
X0326004Y0157600D01*
X0327596Y0157600D01*
X0329066Y0158209D01*
X0330191Y0159334D01*
X0330800Y0160804D01*
X0330800Y0167596D01*
X0330191Y0169066D01*
X0329066Y0170191D01*
X0327596Y0170800D01*
X0326477Y0170800D01*
X0325577Y0171700D01*
X0338223Y0171700D01*
X0342800Y0167123D01*
X0342800Y0160804D01*
X0343409Y0159334D01*
X0344534Y0158209D01*
X0346004Y0157600D01*
X0347596Y0157600D01*
X0349066Y0158209D01*
X0350191Y0159334D01*
X0350800Y0160804D01*
X0350800Y0167596D01*
X0350191Y0169066D01*
X0349066Y0170191D01*
X0347596Y0170800D01*
X0346477Y0170800D01*
X0341504Y0175773D01*
X0340773Y0176504D01*
X0339817Y0176900D01*
X0293783Y0176900D01*
X0292827Y0176504D01*
X0292096Y0175773D01*
X0287123Y0170800D01*
X0286004Y0170800D01*
X0284534Y0170191D01*
X0283409Y0169066D01*
X0282800Y0167596D01*
X0283156Y0168454D02*
X0280444Y0168454D01*
X0279204Y0170053D02*
X0284396Y0170053D01*
X0287974Y0171651D02*
X0222893Y0171651D01*
X0220707Y0171651D02*
X0163953Y0171651D01*
X0165179Y0173250D02*
X0218421Y0173250D01*
X0217305Y0174848D02*
X0166295Y0174848D01*
X0166700Y0176447D02*
X0216900Y0176447D01*
X0217012Y0178045D02*
X0166588Y0178045D01*
X0170821Y0179644D02*
X0217714Y0179644D01*
X0219720Y0181242D02*
X0171883Y0181242D01*
X0165988Y0170053D02*
X0218123Y0170053D01*
X0217181Y0168454D02*
X0166835Y0168454D01*
X0166871Y0165257D02*
X0217135Y0165257D01*
X0216900Y0166856D02*
X0161900Y0166856D01*
X0161700Y0166856D02*
X0144967Y0166856D01*
X0165068Y0160462D02*
X0218532Y0160462D01*
X0217351Y0158863D02*
X0166249Y0158863D01*
X0166700Y0157265D02*
X0216900Y0157265D01*
X0216966Y0155666D02*
X0166634Y0155666D01*
X0165972Y0154068D02*
X0217628Y0154068D01*
X0219452Y0152469D02*
X0164148Y0152469D01*
X0164659Y0150870D02*
X0218941Y0150870D01*
X0217520Y0149272D02*
X0166080Y0149272D01*
X0166700Y0147673D02*
X0216900Y0147673D01*
X0216900Y0146075D02*
X0166700Y0146075D01*
X0166141Y0144476D02*
X0217459Y0144476D01*
X0218792Y0142878D02*
X0164808Y0142878D01*
X0163790Y0141279D02*
X0219810Y0141279D01*
X0217751Y0139681D02*
X0165849Y0139681D01*
X0166573Y0138082D02*
X0217027Y0138082D01*
X0216900Y0136484D02*
X0166700Y0136484D01*
X0166311Y0134885D02*
X0217289Y0134885D01*
X0218383Y0133287D02*
X0165216Y0133287D01*
X0162803Y0131688D02*
X0220797Y0131688D01*
X0220825Y0131700D02*
X0219024Y0130954D01*
X0217646Y0129576D01*
X0216900Y0127775D01*
X0216900Y0125825D01*
X0217646Y0124024D01*
X0219024Y0122646D01*
X0220825Y0121900D01*
X0222775Y0121900D01*
X0223350Y0122138D01*
X0223389Y0122100D01*
X0224506Y0120983D01*
X0222775Y0121700D01*
X0220825Y0121700D01*
X0219024Y0120954D01*
X0217646Y0119576D01*
X0216900Y0117775D01*
X0216900Y0115825D01*
X0217646Y0114024D01*
X0219024Y0112646D01*
X0220825Y0111900D01*
X0222775Y0111900D01*
X0223350Y0112138D01*
X0224506Y0110983D01*
X0222775Y0111700D01*
X0220825Y0111700D01*
X0219024Y0110954D01*
X0217646Y0109576D01*
X0216900Y0107775D01*
X0216900Y0105825D01*
X0217646Y0104024D01*
X0219024Y0102646D01*
X0220825Y0101900D01*
X0222775Y0101900D01*
X0224576Y0102646D01*
X0225954Y0104024D01*
X0226700Y0105825D01*
X0226700Y0107775D01*
X0225983Y0109506D01*
X0238989Y0096500D01*
X0227711Y0096500D01*
X0226700Y0097511D01*
X0226700Y0097775D01*
X0225954Y0099576D01*
X0224576Y0100954D01*
X0222775Y0101700D01*
X0220825Y0101700D01*
X0219024Y0100954D01*
X0217646Y0099576D01*
X0216900Y0097775D01*
X0216900Y0095825D01*
X0217646Y0094024D01*
X0219024Y0092646D01*
X0220825Y0091900D01*
X0222775Y0091900D01*
X0224506Y0092617D01*
X0223350Y0091462D01*
X0222775Y0091700D01*
X0220825Y0091700D01*
X0219024Y0090954D01*
X0217646Y0089576D01*
X0216900Y0087775D01*
X0216900Y0085825D01*
X0217646Y0084024D01*
X0219024Y0082646D01*
X0220825Y0081900D01*
X0222775Y0081900D01*
X0224576Y0082646D01*
X0225954Y0084024D01*
X0226700Y0085825D01*
X0226700Y0087775D01*
X0226462Y0088350D01*
X0227711Y0089600D01*
X0288389Y0089600D01*
X0292800Y0085189D01*
X0292800Y0078404D01*
X0293409Y0076934D01*
X0294534Y0075809D01*
X0296004Y0075200D01*
X0297596Y0075200D01*
X0299066Y0075809D01*
X0300191Y0076934D01*
X0300800Y0078404D01*
X0300800Y0085196D01*
X0300191Y0086666D01*
X0299066Y0087791D01*
X0297596Y0088400D01*
X0296004Y0088400D01*
X0295868Y0088343D01*
X0292111Y0092100D01*
X0295889Y0092100D01*
X0302800Y0085189D01*
X0302800Y0078404D01*
X0303409Y0076934D01*
X0304534Y0075809D01*
X0306004Y0075200D01*
X0307596Y0075200D01*
X0309066Y0075809D01*
X0309600Y0076343D01*
X0309600Y0070889D01*
X0310889Y0069600D01*
X0330211Y0069600D01*
X0335868Y0075257D01*
X0336004Y0075200D01*
X0337596Y0075200D01*
X0339066Y0075809D01*
X0340191Y0076934D01*
X0340800Y0078404D01*
X0340800Y0085196D01*
X0340191Y0086666D01*
X0339066Y0087791D01*
X0337596Y0088400D01*
X0336004Y0088400D01*
X0334534Y0087791D01*
X0333409Y0086666D01*
X0332800Y0085196D01*
X0332800Y0078411D01*
X0328389Y0074000D01*
X0314000Y0074000D01*
X0314000Y0076343D01*
X0314534Y0075809D01*
X0316004Y0075200D01*
X0317596Y0075200D01*
X0319066Y0075809D01*
X0320191Y0076934D01*
X0320800Y0078404D01*
X0320800Y0085196D01*
X0320191Y0086666D01*
X0319066Y0087791D01*
X0317596Y0088400D01*
X0316004Y0088400D01*
X0314534Y0087791D01*
X0314000Y0087257D01*
X0314000Y0087711D01*
X0312711Y0089000D01*
X0304611Y0097100D01*
X0324600Y0097100D01*
X0324600Y0087818D01*
X0324534Y0087791D01*
X0323409Y0086666D01*
X0322800Y0085196D01*
X0322800Y0078404D01*
X0323409Y0076934D01*
X0324534Y0075809D01*
X0326004Y0075200D01*
X0327596Y0075200D01*
X0329066Y0075809D01*
X0330191Y0076934D01*
X0330800Y0078404D01*
X0330800Y0085196D01*
X0330191Y0086666D01*
X0329066Y0087791D01*
X0329000Y0087818D01*
X0329000Y0100211D01*
X0327711Y0101500D01*
X0250211Y0101500D01*
X0232411Y0119300D01*
X0261757Y0148646D01*
X0262096Y0147827D01*
X0262827Y0147096D01*
X0263783Y0146700D01*
X0264817Y0146700D01*
X0265773Y0147096D01*
X0265777Y0147100D01*
X0268389Y0147100D01*
X0272800Y0142689D01*
X0272800Y0141004D01*
X0273409Y0139534D01*
X0274534Y0138409D01*
X0276004Y0137800D01*
X0277596Y0137800D01*
X0279066Y0138409D01*
X0280191Y0139534D01*
X0280800Y0141004D01*
X0280800Y0147796D01*
X0280191Y0149266D01*
X0279066Y0150391D01*
X0277596Y0151000D01*
X0276004Y0151000D01*
X0274534Y0150391D01*
X0273409Y0149266D01*
X0273127Y0148584D01*
X0271500Y0150211D01*
X0270211Y0151500D01*
X0265777Y0151500D01*
X0265773Y0151504D01*
X0264954Y0151843D01*
X0265211Y0152100D01*
X0297711Y0152100D01*
X0299000Y0153389D01*
X0299000Y0158182D01*
X0299066Y0158209D01*
X0300191Y0159334D01*
X0300800Y0160804D01*
X0300800Y0167596D01*
X0300191Y0169066D01*
X0299066Y0170191D01*
X0297596Y0170800D01*
X0296004Y0170800D01*
X0294534Y0170191D01*
X0293409Y0169066D01*
X0292800Y0167596D01*
X0292800Y0160804D01*
X0293409Y0159334D01*
X0294534Y0158209D01*
X0294600Y0158182D01*
X0294600Y0156500D01*
X0263389Y0156500D01*
X0229300Y0122411D01*
X0226500Y0125211D01*
X0226500Y0125342D01*
X0226700Y0125825D01*
X0226700Y0127775D01*
X0225954Y0129576D01*
X0224576Y0130954D01*
X0222775Y0131700D01*
X0220825Y0131700D01*
X0222803Y0131688D02*
X0238577Y0131688D01*
X0236979Y0130090D02*
X0225440Y0130090D01*
X0226403Y0128491D02*
X0235380Y0128491D01*
X0233782Y0126893D02*
X0226700Y0126893D01*
X0226500Y0125294D02*
X0232183Y0125294D01*
X0230585Y0123696D02*
X0228015Y0123696D01*
X0224300Y0124300D02*
X0224300Y0126800D01*
X0221800Y0126800D01*
X0224300Y0124300D02*
X0229300Y0119300D01*
X0264300Y0154300D01*
X0296800Y0154300D01*
X0296800Y0166800D01*
X0300800Y0166856D02*
X0302800Y0166856D01*
X0302800Y0165257D02*
X0300800Y0165257D01*
X0300800Y0163659D02*
X0302800Y0163659D01*
X0302800Y0162060D02*
X0300800Y0162060D01*
X0300658Y0160462D02*
X0302942Y0160462D01*
X0303880Y0158863D02*
X0299720Y0158863D01*
X0299000Y0157265D02*
X0338224Y0157265D01*
X0337803Y0157686D02*
X0342100Y0153389D01*
X0342100Y0153389D01*
X0343389Y0152100D01*
X0352100Y0152100D01*
X0352100Y0126500D01*
X0270889Y0126500D01*
X0269600Y0125211D01*
X0253789Y0109400D01*
X0253783Y0109400D01*
X0252827Y0109004D01*
X0252096Y0108273D01*
X0251700Y0107317D01*
X0251700Y0106283D01*
X0252096Y0105327D01*
X0252827Y0104596D01*
X0253783Y0104200D01*
X0254817Y0104200D01*
X0255773Y0104596D01*
X0256504Y0105327D01*
X0256900Y0106283D01*
X0256900Y0106289D01*
X0272711Y0122100D01*
X0352100Y0122100D01*
X0352100Y0105211D01*
X0348389Y0101500D01*
X0345889Y0101500D01*
X0344600Y0100211D01*
X0344600Y0087818D01*
X0344534Y0087791D01*
X0343409Y0086666D01*
X0342800Y0085196D01*
X0342800Y0078404D01*
X0343409Y0076934D01*
X0344534Y0075809D01*
X0346004Y0075200D01*
X0347596Y0075200D01*
X0349066Y0075809D01*
X0350191Y0076934D01*
X0350800Y0078404D01*
X0350800Y0085196D01*
X0350191Y0086666D01*
X0349066Y0087791D01*
X0349000Y0087818D01*
X0349000Y0097100D01*
X0350211Y0097100D01*
X0355211Y0102100D01*
X0356500Y0103389D01*
X0356500Y0155211D01*
X0355211Y0156500D01*
X0345211Y0156500D01*
X0340800Y0160911D01*
X0340800Y0167596D01*
X0340191Y0169066D01*
X0339066Y0170191D01*
X0337596Y0170800D01*
X0336004Y0170800D01*
X0334534Y0170191D01*
X0333409Y0169066D01*
X0332800Y0167596D01*
X0332800Y0160804D01*
X0333409Y0159334D01*
X0334534Y0158209D01*
X0336004Y0157600D01*
X0337596Y0157600D01*
X0337803Y0157686D01*
X0339823Y0155666D02*
X0299000Y0155666D01*
X0299000Y0154068D02*
X0341421Y0154068D01*
X0343020Y0152469D02*
X0298080Y0152469D01*
X0297596Y0151000D02*
X0296004Y0151000D01*
X0294534Y0150391D01*
X0293409Y0149266D01*
X0292800Y0147796D01*
X0292800Y0141004D01*
X0293409Y0139534D01*
X0294534Y0138409D01*
X0296004Y0137800D01*
X0297596Y0137800D01*
X0299066Y0138409D01*
X0300191Y0139534D01*
X0300800Y0141004D01*
X0300800Y0147796D01*
X0300191Y0149266D01*
X0299066Y0150391D01*
X0297596Y0151000D01*
X0297908Y0150870D02*
X0305692Y0150870D01*
X0306004Y0151000D02*
X0304534Y0150391D01*
X0303409Y0149266D01*
X0302800Y0147796D01*
X0302800Y0141004D01*
X0303409Y0139534D01*
X0304534Y0138409D01*
X0306004Y0137800D01*
X0307596Y0137800D01*
X0309066Y0138409D01*
X0310191Y0139534D01*
X0310800Y0141004D01*
X0310800Y0147796D01*
X0310191Y0149266D01*
X0309066Y0150391D01*
X0307596Y0151000D01*
X0306004Y0151000D01*
X0307908Y0150870D02*
X0315692Y0150870D01*
X0316004Y0151000D02*
X0314534Y0150391D01*
X0313409Y0149266D01*
X0312800Y0147796D01*
X0312800Y0141004D01*
X0313409Y0139534D01*
X0314534Y0138409D01*
X0316004Y0137800D01*
X0317596Y0137800D01*
X0319066Y0138409D01*
X0320191Y0139534D01*
X0320800Y0141004D01*
X0320800Y0147796D01*
X0320191Y0149266D01*
X0319066Y0150391D01*
X0317596Y0151000D01*
X0316004Y0151000D01*
X0317908Y0150870D02*
X0325692Y0150870D01*
X0326004Y0151000D02*
X0324534Y0150391D01*
X0323409Y0149266D01*
X0322800Y0147796D01*
X0322800Y0141004D01*
X0323409Y0139534D01*
X0324534Y0138409D01*
X0326004Y0137800D01*
X0327596Y0137800D01*
X0329066Y0138409D01*
X0330191Y0139534D01*
X0330800Y0141004D01*
X0330800Y0147796D01*
X0330191Y0149266D01*
X0329066Y0150391D01*
X0327596Y0151000D01*
X0326004Y0151000D01*
X0327908Y0150870D02*
X0335692Y0150870D01*
X0336004Y0151000D02*
X0334534Y0150391D01*
X0333409Y0149266D01*
X0332800Y0147796D01*
X0332800Y0141004D01*
X0333409Y0139534D01*
X0334534Y0138409D01*
X0336004Y0137800D01*
X0337596Y0137800D01*
X0339066Y0138409D01*
X0340191Y0139534D01*
X0340800Y0141004D01*
X0340800Y0147796D01*
X0340191Y0149266D01*
X0339066Y0150391D01*
X0337596Y0151000D01*
X0336004Y0151000D01*
X0337908Y0150870D02*
X0345692Y0150870D01*
X0346004Y0151000D02*
X0344534Y0150391D01*
X0343409Y0149266D01*
X0342800Y0147796D01*
X0342800Y0141004D01*
X0343409Y0139534D01*
X0344534Y0138409D01*
X0346004Y0137800D01*
X0347596Y0137800D01*
X0349066Y0138409D01*
X0350191Y0139534D01*
X0350800Y0141004D01*
X0350800Y0147796D01*
X0350191Y0149266D01*
X0349066Y0150391D01*
X0347596Y0151000D01*
X0346004Y0151000D01*
X0347908Y0150870D02*
X0352100Y0150870D01*
X0352100Y0149272D02*
X0350185Y0149272D01*
X0350800Y0147673D02*
X0352100Y0147673D01*
X0352100Y0146075D02*
X0350800Y0146075D01*
X0350800Y0144476D02*
X0352100Y0144476D01*
X0352100Y0142878D02*
X0350800Y0142878D01*
X0350800Y0141279D02*
X0352100Y0141279D01*
X0352100Y0139681D02*
X0350252Y0139681D01*
X0352100Y0138082D02*
X0348277Y0138082D01*
X0345323Y0138082D02*
X0338277Y0138082D01*
X0340252Y0139681D02*
X0343348Y0139681D01*
X0342800Y0141279D02*
X0340800Y0141279D01*
X0340800Y0142878D02*
X0342800Y0142878D01*
X0342800Y0144476D02*
X0340800Y0144476D01*
X0340800Y0146075D02*
X0342800Y0146075D01*
X0342800Y0147673D02*
X0340800Y0147673D01*
X0340185Y0149272D02*
X0343415Y0149272D01*
X0344300Y0154300D02*
X0336800Y0161800D01*
X0336800Y0166800D01*
X0332800Y0166856D02*
X0330800Y0166856D01*
X0330800Y0165257D02*
X0332800Y0165257D01*
X0332800Y0163659D02*
X0330800Y0163659D01*
X0330800Y0162060D02*
X0332800Y0162060D01*
X0332942Y0160462D02*
X0330658Y0160462D01*
X0329720Y0158863D02*
X0333880Y0158863D01*
X0341250Y0160462D02*
X0342942Y0160462D01*
X0342848Y0158863D02*
X0343880Y0158863D01*
X0344447Y0157265D02*
X0363701Y0157265D01*
X0363701Y0158863D02*
X0349720Y0158863D01*
X0350658Y0160462D02*
X0363701Y0160462D01*
X0363701Y0162060D02*
X0350800Y0162060D01*
X0350800Y0163659D02*
X0363701Y0163659D01*
X0363701Y0165257D02*
X0350800Y0165257D01*
X0350800Y0166856D02*
X0363701Y0166856D01*
X0363701Y0168454D02*
X0350444Y0168454D01*
X0349204Y0170053D02*
X0363701Y0170053D01*
X0363701Y0171651D02*
X0345626Y0171651D01*
X0344027Y0173250D02*
X0363701Y0173250D01*
X0363701Y0174848D02*
X0342429Y0174848D01*
X0340830Y0176447D02*
X0363701Y0176447D01*
X0363701Y0178045D02*
X0226588Y0178045D01*
X0226700Y0176447D02*
X0292770Y0176447D01*
X0291171Y0174848D02*
X0226295Y0174848D01*
X0225179Y0173250D02*
X0289573Y0173250D01*
X0293730Y0170053D02*
X0294396Y0170053D01*
X0295328Y0171651D02*
X0298272Y0171651D01*
X0299204Y0170053D02*
X0299870Y0170053D01*
X0300444Y0168454D02*
X0301469Y0168454D01*
X0305626Y0171651D02*
X0318272Y0171651D01*
X0317596Y0170800D02*
X0319066Y0170191D01*
X0320191Y0169066D01*
X0320800Y0167596D01*
X0320800Y0160804D01*
X0320191Y0159334D01*
X0319066Y0158209D01*
X0317596Y0157600D01*
X0316004Y0157600D01*
X0314534Y0158209D01*
X0313409Y0159334D01*
X0312800Y0160804D01*
X0312800Y0167596D01*
X0313409Y0169066D01*
X0314534Y0170191D01*
X0316004Y0170800D01*
X0317596Y0170800D01*
X0319204Y0170053D02*
X0319870Y0170053D01*
X0320444Y0168454D02*
X0321469Y0168454D01*
X0320800Y0166856D02*
X0322800Y0166856D01*
X0322800Y0165257D02*
X0320800Y0165257D01*
X0320800Y0163659D02*
X0322800Y0163659D01*
X0322800Y0162060D02*
X0320800Y0162060D01*
X0320658Y0160462D02*
X0322942Y0160462D01*
X0323880Y0158863D02*
X0319720Y0158863D01*
X0313880Y0158863D02*
X0309720Y0158863D01*
X0310658Y0160462D02*
X0312942Y0160462D01*
X0312800Y0162060D02*
X0310800Y0162060D01*
X0310800Y0163659D02*
X0312800Y0163659D01*
X0312800Y0165257D02*
X0310800Y0165257D01*
X0310800Y0166856D02*
X0312800Y0166856D01*
X0313156Y0168454D02*
X0310444Y0168454D01*
X0309204Y0170053D02*
X0314396Y0170053D01*
X0325626Y0171651D02*
X0338272Y0171651D01*
X0339204Y0170053D02*
X0339870Y0170053D01*
X0340444Y0168454D02*
X0341469Y0168454D01*
X0340800Y0166856D02*
X0342800Y0166856D01*
X0342800Y0165257D02*
X0340800Y0165257D01*
X0340800Y0163659D02*
X0342800Y0163659D01*
X0342800Y0162060D02*
X0340800Y0162060D01*
X0344300Y0154300D02*
X0354300Y0154300D01*
X0354300Y0124300D01*
X0271800Y0124300D01*
X0254300Y0106800D01*
X0251863Y0107711D02*
X0244001Y0107711D01*
X0245599Y0106112D02*
X0251771Y0106112D01*
X0253026Y0104514D02*
X0247198Y0104514D01*
X0248796Y0102915D02*
X0275244Y0102915D01*
X0274534Y0103209D02*
X0276004Y0102600D01*
X0277596Y0102600D01*
X0279066Y0103209D01*
X0280191Y0104334D01*
X0280800Y0105804D01*
X0280800Y0112596D01*
X0280191Y0114066D01*
X0279066Y0115191D01*
X0277596Y0115800D01*
X0276004Y0115800D01*
X0274534Y0115191D01*
X0273409Y0114066D01*
X0272800Y0112596D01*
X0272800Y0105804D01*
X0273409Y0104334D01*
X0274534Y0103209D01*
X0273335Y0104514D02*
X0255574Y0104514D01*
X0256829Y0106112D02*
X0272800Y0106112D01*
X0272800Y0107711D02*
X0258322Y0107711D01*
X0259920Y0109309D02*
X0272800Y0109309D01*
X0272800Y0110908D02*
X0261519Y0110908D01*
X0263117Y0112506D02*
X0272800Y0112506D01*
X0273448Y0114105D02*
X0264716Y0114105D01*
X0266314Y0115703D02*
X0275771Y0115703D01*
X0277829Y0115703D02*
X0285771Y0115703D01*
X0286004Y0115800D02*
X0284534Y0115191D01*
X0283409Y0114066D01*
X0282800Y0112596D01*
X0282800Y0105804D01*
X0283409Y0104334D01*
X0284534Y0103209D01*
X0286004Y0102600D01*
X0287596Y0102600D01*
X0289066Y0103209D01*
X0290191Y0104334D01*
X0290800Y0105804D01*
X0290800Y0112123D01*
X0295377Y0116700D01*
X0298223Y0116700D01*
X0302800Y0112123D01*
X0302800Y0105804D01*
X0303409Y0104334D01*
X0304534Y0103209D01*
X0306004Y0102600D01*
X0307596Y0102600D01*
X0309066Y0103209D01*
X0310191Y0104334D01*
X0310800Y0105804D01*
X0310800Y0112596D01*
X0310191Y0114066D01*
X0309066Y0115191D01*
X0307596Y0115800D01*
X0306477Y0115800D01*
X0305577Y0116700D01*
X0318223Y0116700D01*
X0322800Y0112123D01*
X0322800Y0105804D01*
X0323409Y0104334D01*
X0324534Y0103209D01*
X0326004Y0102600D01*
X0327596Y0102600D01*
X0329066Y0103209D01*
X0330191Y0104334D01*
X0330800Y0105804D01*
X0330800Y0112596D01*
X0330191Y0114066D01*
X0329066Y0115191D01*
X0327596Y0115800D01*
X0326477Y0115800D01*
X0325577Y0116700D01*
X0338223Y0116700D01*
X0342800Y0112123D01*
X0342800Y0105804D01*
X0343409Y0104334D01*
X0344534Y0103209D01*
X0346004Y0102600D01*
X0347596Y0102600D01*
X0349066Y0103209D01*
X0350191Y0104334D01*
X0350800Y0105804D01*
X0350800Y0112596D01*
X0350191Y0114066D01*
X0349066Y0115191D01*
X0347596Y0115800D01*
X0346477Y0115800D01*
X0341504Y0120773D01*
X0340773Y0121504D01*
X0339817Y0121900D01*
X0293783Y0121900D01*
X0292827Y0121504D01*
X0292096Y0120773D01*
X0287123Y0115800D01*
X0286004Y0115800D01*
X0288625Y0117302D02*
X0267913Y0117302D01*
X0269512Y0118900D02*
X0290223Y0118900D01*
X0291822Y0120499D02*
X0271110Y0120499D01*
X0272709Y0122097D02*
X0352100Y0122097D01*
X0352100Y0120499D02*
X0341778Y0120499D01*
X0343377Y0118900D02*
X0352100Y0118900D01*
X0352100Y0117302D02*
X0344975Y0117302D01*
X0347829Y0115703D02*
X0352100Y0115703D01*
X0352100Y0114105D02*
X0350152Y0114105D01*
X0350800Y0112506D02*
X0352100Y0112506D01*
X0352100Y0110908D02*
X0350800Y0110908D01*
X0350800Y0109309D02*
X0352100Y0109309D01*
X0352100Y0107711D02*
X0350800Y0107711D01*
X0350800Y0106112D02*
X0352100Y0106112D01*
X0351402Y0104514D02*
X0350265Y0104514D01*
X0349804Y0102915D02*
X0348356Y0102915D01*
X0345705Y0101317D02*
X0327895Y0101317D01*
X0328356Y0102915D02*
X0335244Y0102915D01*
X0334534Y0103209D02*
X0336004Y0102600D01*
X0337596Y0102600D01*
X0339066Y0103209D01*
X0340191Y0104334D01*
X0340800Y0105804D01*
X0340800Y0112596D01*
X0340191Y0114066D01*
X0339066Y0115191D01*
X0337596Y0115800D01*
X0336004Y0115800D01*
X0334534Y0115191D01*
X0333409Y0114066D01*
X0332800Y0112596D01*
X0332800Y0105804D01*
X0333409Y0104334D01*
X0334534Y0103209D01*
X0333335Y0104514D02*
X0330265Y0104514D01*
X0330800Y0106112D02*
X0332800Y0106112D01*
X0332800Y0107711D02*
X0330800Y0107711D01*
X0330800Y0109309D02*
X0332800Y0109309D01*
X0332800Y0110908D02*
X0330800Y0110908D01*
X0330800Y0112506D02*
X0332800Y0112506D01*
X0333448Y0114105D02*
X0330152Y0114105D01*
X0327829Y0115703D02*
X0335771Y0115703D01*
X0337829Y0115703D02*
X0339220Y0115703D01*
X0340152Y0114105D02*
X0340818Y0114105D01*
X0340800Y0112506D02*
X0342417Y0112506D01*
X0342800Y0110908D02*
X0340800Y0110908D01*
X0340800Y0109309D02*
X0342800Y0109309D01*
X0342800Y0107711D02*
X0340800Y0107711D01*
X0340800Y0106112D02*
X0342800Y0106112D01*
X0343335Y0104514D02*
X0340265Y0104514D01*
X0338356Y0102915D02*
X0345244Y0102915D01*
X0344600Y0099718D02*
X0329000Y0099718D01*
X0329000Y0098120D02*
X0344600Y0098120D01*
X0344600Y0096521D02*
X0329000Y0096521D01*
X0329000Y0094923D02*
X0344600Y0094923D01*
X0344600Y0093324D02*
X0329000Y0093324D01*
X0329000Y0091726D02*
X0344600Y0091726D01*
X0344600Y0090127D02*
X0329000Y0090127D01*
X0329000Y0088529D02*
X0344600Y0088529D01*
X0343673Y0086930D02*
X0339927Y0086930D01*
X0340744Y0085332D02*
X0342856Y0085332D01*
X0342800Y0083733D02*
X0340800Y0083733D01*
X0340800Y0082134D02*
X0342800Y0082134D01*
X0342800Y0080536D02*
X0340800Y0080536D01*
X0340800Y0078937D02*
X0342800Y0078937D01*
X0343241Y0077339D02*
X0340359Y0077339D01*
X0338900Y0075740D02*
X0344700Y0075740D01*
X0348900Y0075740D02*
X0363701Y0075740D01*
X0363701Y0074142D02*
X0334753Y0074142D01*
X0333155Y0072543D02*
X0363701Y0072543D01*
X0363701Y0070945D02*
X0331556Y0070945D01*
X0329300Y0071800D02*
X0336800Y0079300D01*
X0336800Y0081800D01*
X0332800Y0082134D02*
X0330800Y0082134D01*
X0330800Y0080536D02*
X0332800Y0080536D01*
X0332800Y0078937D02*
X0330800Y0078937D01*
X0330359Y0077339D02*
X0331728Y0077339D01*
X0330129Y0075740D02*
X0328900Y0075740D01*
X0328531Y0074142D02*
X0314000Y0074142D01*
X0314000Y0075740D02*
X0314700Y0075740D01*
X0318900Y0075740D02*
X0324700Y0075740D01*
X0323241Y0077339D02*
X0320359Y0077339D01*
X0320800Y0078937D02*
X0322800Y0078937D01*
X0322800Y0080536D02*
X0320800Y0080536D01*
X0320800Y0082134D02*
X0322800Y0082134D01*
X0322800Y0083733D02*
X0320800Y0083733D01*
X0320744Y0085332D02*
X0322856Y0085332D01*
X0323673Y0086930D02*
X0319927Y0086930D01*
X0324600Y0088529D02*
X0313183Y0088529D01*
X0311800Y0086800D02*
X0311800Y0071800D01*
X0329300Y0071800D01*
X0326800Y0081800D02*
X0326800Y0099300D01*
X0249300Y0099300D01*
X0229300Y0119300D01*
X0232811Y0118900D02*
X0263289Y0118900D01*
X0261690Y0117302D02*
X0234410Y0117302D01*
X0236008Y0115703D02*
X0260092Y0115703D01*
X0258493Y0114105D02*
X0237607Y0114105D01*
X0239205Y0112506D02*
X0256895Y0112506D01*
X0255296Y0110908D02*
X0240804Y0110908D01*
X0242402Y0109309D02*
X0253564Y0109309D01*
X0264888Y0120499D02*
X0233610Y0120499D01*
X0235209Y0122097D02*
X0266486Y0122097D01*
X0268085Y0123696D02*
X0236807Y0123696D01*
X0238406Y0125294D02*
X0269683Y0125294D01*
X0275323Y0138082D02*
X0251194Y0138082D01*
X0249595Y0136484D02*
X0352100Y0136484D01*
X0352100Y0134885D02*
X0247997Y0134885D01*
X0246398Y0133287D02*
X0352100Y0133287D01*
X0352100Y0131688D02*
X0244800Y0131688D01*
X0243201Y0130090D02*
X0352100Y0130090D01*
X0352100Y0128491D02*
X0241603Y0128491D01*
X0240004Y0126893D02*
X0352100Y0126893D01*
X0354300Y0124300D02*
X0354300Y0104300D01*
X0349300Y0099300D01*
X0346800Y0099300D01*
X0346800Y0081800D01*
X0350800Y0082134D02*
X0363701Y0082134D01*
X0363701Y0080536D02*
X0350800Y0080536D01*
X0350800Y0078937D02*
X0363701Y0078937D01*
X0363701Y0077339D02*
X0350359Y0077339D01*
X0350800Y0083733D02*
X0363701Y0083733D01*
X0363701Y0085332D02*
X0350744Y0085332D01*
X0349927Y0086930D02*
X0363701Y0086930D01*
X0363701Y0088529D02*
X0349000Y0088529D01*
X0349000Y0090127D02*
X0363701Y0090127D01*
X0363701Y0091726D02*
X0349000Y0091726D01*
X0349000Y0093324D02*
X0363701Y0093324D01*
X0363701Y0094923D02*
X0349000Y0094923D01*
X0349000Y0096521D02*
X0363701Y0096521D01*
X0363701Y0098120D02*
X0351231Y0098120D01*
X0352829Y0099718D02*
X0363701Y0099718D01*
X0363701Y0101317D02*
X0354428Y0101317D01*
X0356026Y0102915D02*
X0363701Y0102915D01*
X0363701Y0104514D02*
X0356500Y0104514D01*
X0356500Y0106112D02*
X0363701Y0106112D01*
X0363701Y0107711D02*
X0356500Y0107711D01*
X0356500Y0109309D02*
X0363701Y0109309D01*
X0363701Y0110908D02*
X0356500Y0110908D01*
X0356500Y0112506D02*
X0363701Y0112506D01*
X0363701Y0114105D02*
X0356500Y0114105D01*
X0356500Y0115703D02*
X0363701Y0115703D01*
X0363701Y0117302D02*
X0356500Y0117302D01*
X0356500Y0118900D02*
X0363701Y0118900D01*
X0363701Y0120499D02*
X0356500Y0120499D01*
X0356500Y0122097D02*
X0363701Y0122097D01*
X0363701Y0123696D02*
X0356500Y0123696D01*
X0356500Y0125294D02*
X0363701Y0125294D01*
X0363701Y0126893D02*
X0356500Y0126893D01*
X0356500Y0128491D02*
X0363701Y0128491D01*
X0363701Y0130090D02*
X0356500Y0130090D01*
X0356500Y0131688D02*
X0363701Y0131688D01*
X0363701Y0133287D02*
X0356500Y0133287D01*
X0356500Y0134885D02*
X0363701Y0134885D01*
X0363701Y0136484D02*
X0356500Y0136484D01*
X0356500Y0138082D02*
X0363701Y0138082D01*
X0363701Y0139681D02*
X0356500Y0139681D01*
X0356500Y0141279D02*
X0363701Y0141279D01*
X0363701Y0142878D02*
X0356500Y0142878D01*
X0356500Y0144476D02*
X0363701Y0144476D01*
X0363701Y0146075D02*
X0356500Y0146075D01*
X0356500Y0147673D02*
X0363701Y0147673D01*
X0363701Y0149272D02*
X0356500Y0149272D01*
X0356500Y0150870D02*
X0363701Y0150870D01*
X0363701Y0152469D02*
X0356500Y0152469D01*
X0356500Y0154068D02*
X0363701Y0154068D01*
X0363701Y0155666D02*
X0356045Y0155666D01*
X0333415Y0149272D02*
X0330185Y0149272D01*
X0330800Y0147673D02*
X0332800Y0147673D01*
X0332800Y0146075D02*
X0330800Y0146075D01*
X0330800Y0144476D02*
X0332800Y0144476D01*
X0332800Y0142878D02*
X0330800Y0142878D01*
X0330800Y0141279D02*
X0332800Y0141279D01*
X0333348Y0139681D02*
X0330252Y0139681D01*
X0328277Y0138082D02*
X0335323Y0138082D01*
X0325323Y0138082D02*
X0318277Y0138082D01*
X0320252Y0139681D02*
X0323348Y0139681D01*
X0322800Y0141279D02*
X0320800Y0141279D01*
X0320800Y0142878D02*
X0322800Y0142878D01*
X0322800Y0144476D02*
X0320800Y0144476D01*
X0320800Y0146075D02*
X0322800Y0146075D01*
X0322800Y0147673D02*
X0320800Y0147673D01*
X0320185Y0149272D02*
X0323415Y0149272D01*
X0313415Y0149272D02*
X0310185Y0149272D01*
X0310800Y0147673D02*
X0312800Y0147673D01*
X0312800Y0146075D02*
X0310800Y0146075D01*
X0310800Y0144476D02*
X0312800Y0144476D01*
X0312800Y0142878D02*
X0310800Y0142878D01*
X0310800Y0141279D02*
X0312800Y0141279D01*
X0313348Y0139681D02*
X0310252Y0139681D01*
X0308277Y0138082D02*
X0315323Y0138082D01*
X0305323Y0138082D02*
X0298277Y0138082D01*
X0300252Y0139681D02*
X0303348Y0139681D01*
X0302800Y0141279D02*
X0300800Y0141279D01*
X0300800Y0142878D02*
X0302800Y0142878D01*
X0302800Y0144476D02*
X0300800Y0144476D01*
X0300800Y0146075D02*
X0302800Y0146075D01*
X0302800Y0147673D02*
X0300800Y0147673D01*
X0300185Y0149272D02*
X0303415Y0149272D01*
X0295692Y0150870D02*
X0287908Y0150870D01*
X0287596Y0151000D02*
X0289066Y0150391D01*
X0290191Y0149266D01*
X0290800Y0147796D01*
X0290800Y0141004D01*
X0290191Y0139534D01*
X0289066Y0138409D01*
X0287596Y0137800D01*
X0286004Y0137800D01*
X0284534Y0138409D01*
X0283409Y0139534D01*
X0282800Y0141004D01*
X0282800Y0147796D01*
X0283409Y0149266D01*
X0284534Y0150391D01*
X0286004Y0151000D01*
X0287596Y0151000D01*
X0285692Y0150870D02*
X0277908Y0150870D01*
X0275692Y0150870D02*
X0270841Y0150870D01*
X0269300Y0149300D02*
X0264300Y0149300D01*
X0262250Y0147673D02*
X0260785Y0147673D01*
X0259186Y0146075D02*
X0269414Y0146075D01*
X0271012Y0144476D02*
X0257588Y0144476D01*
X0255989Y0142878D02*
X0272611Y0142878D01*
X0272800Y0141279D02*
X0254391Y0141279D01*
X0252792Y0139681D02*
X0273348Y0139681D01*
X0276800Y0141800D02*
X0269300Y0149300D01*
X0272439Y0149272D02*
X0273415Y0149272D01*
X0280185Y0149272D02*
X0283415Y0149272D01*
X0282800Y0147673D02*
X0280800Y0147673D01*
X0280800Y0146075D02*
X0282800Y0146075D01*
X0282800Y0144476D02*
X0280800Y0144476D01*
X0280800Y0142878D02*
X0282800Y0142878D01*
X0282800Y0141279D02*
X0280800Y0141279D01*
X0280252Y0139681D02*
X0283348Y0139681D01*
X0285323Y0138082D02*
X0278277Y0138082D01*
X0288277Y0138082D02*
X0295323Y0138082D01*
X0293348Y0139681D02*
X0290252Y0139681D01*
X0290800Y0141279D02*
X0292800Y0141279D01*
X0292800Y0142878D02*
X0290800Y0142878D01*
X0290800Y0144476D02*
X0292800Y0144476D01*
X0292800Y0146075D02*
X0290800Y0146075D01*
X0290800Y0147673D02*
X0292800Y0147673D01*
X0293415Y0149272D02*
X0290185Y0149272D01*
X0294600Y0157265D02*
X0245376Y0157265D01*
X0246974Y0158863D02*
X0273880Y0158863D01*
X0272942Y0160462D02*
X0248573Y0160462D01*
X0250171Y0162060D02*
X0272800Y0162060D01*
X0272800Y0163659D02*
X0251770Y0163659D01*
X0251800Y0166800D02*
X0221800Y0136800D01*
X0226311Y0134885D02*
X0241774Y0134885D01*
X0240176Y0133287D02*
X0225216Y0133287D01*
X0226700Y0136484D02*
X0243373Y0136484D01*
X0244971Y0138082D02*
X0226573Y0138082D01*
X0227792Y0139681D02*
X0246570Y0139681D01*
X0248168Y0141279D02*
X0229391Y0141279D01*
X0230989Y0142878D02*
X0249767Y0142878D01*
X0251365Y0144476D02*
X0232588Y0144476D01*
X0234186Y0146075D02*
X0252964Y0146075D01*
X0254562Y0147673D02*
X0235785Y0147673D01*
X0237383Y0149272D02*
X0256161Y0149272D01*
X0257759Y0150870D02*
X0238982Y0150870D01*
X0240580Y0152469D02*
X0259358Y0152469D01*
X0260956Y0154068D02*
X0242179Y0154068D01*
X0243777Y0155666D02*
X0262555Y0155666D01*
X0279720Y0158863D02*
X0283880Y0158863D01*
X0282942Y0160462D02*
X0280658Y0160462D01*
X0280800Y0162060D02*
X0282800Y0162060D01*
X0282800Y0163659D02*
X0280800Y0163659D01*
X0280800Y0165257D02*
X0282800Y0165257D01*
X0290800Y0165257D02*
X0292800Y0165257D01*
X0292800Y0163659D02*
X0290800Y0163659D01*
X0290800Y0162060D02*
X0292800Y0162060D01*
X0292942Y0160462D02*
X0290658Y0160462D01*
X0289720Y0158863D02*
X0293880Y0158863D01*
X0292800Y0166856D02*
X0290800Y0166856D01*
X0292131Y0168454D02*
X0293156Y0168454D01*
X0274396Y0170053D02*
X0225477Y0170053D01*
X0218012Y0163659D02*
X0166069Y0163659D01*
X0161800Y0146800D02*
X0144300Y0129300D01*
X0149300Y0124300D02*
X0084300Y0124300D01*
X0091800Y0111800D02*
X0091800Y0106800D01*
X0099300Y0099300D01*
X0134300Y0099300D01*
X0161800Y0126800D01*
X0166403Y0128491D02*
X0217197Y0128491D01*
X0216900Y0126893D02*
X0166700Y0126893D01*
X0166480Y0125294D02*
X0217120Y0125294D01*
X0217975Y0123696D02*
X0165625Y0123696D01*
X0163251Y0122097D02*
X0220349Y0122097D01*
X0218569Y0120499D02*
X0165031Y0120499D01*
X0166234Y0118900D02*
X0217366Y0118900D01*
X0216900Y0117302D02*
X0166700Y0117302D01*
X0166649Y0115703D02*
X0216951Y0115703D01*
X0217613Y0114105D02*
X0165987Y0114105D01*
X0164238Y0112506D02*
X0219362Y0112506D01*
X0218978Y0110908D02*
X0164622Y0110908D01*
X0166064Y0109309D02*
X0217536Y0109309D01*
X0216900Y0107711D02*
X0166700Y0107711D01*
X0166700Y0106112D02*
X0216900Y0106112D01*
X0217443Y0104514D02*
X0166157Y0104514D01*
X0164845Y0102915D02*
X0218755Y0102915D01*
X0219900Y0101317D02*
X0163700Y0101317D01*
X0165812Y0099718D02*
X0217788Y0099718D01*
X0217043Y0098120D02*
X0166557Y0098120D01*
X0166700Y0096521D02*
X0216900Y0096521D01*
X0217274Y0094923D02*
X0166326Y0094923D01*
X0165254Y0093324D02*
X0218346Y0093324D01*
X0218197Y0090127D02*
X0165403Y0090127D01*
X0165954Y0089576D02*
X0164576Y0090954D01*
X0162775Y0091700D01*
X0160825Y0091700D01*
X0159024Y0090954D01*
X0157646Y0089576D01*
X0156900Y0087775D01*
X0156900Y0087511D01*
X0155889Y0086500D01*
X0115260Y0086500D01*
X0115191Y0086666D01*
X0114066Y0087791D01*
X0112596Y0088400D01*
X0111004Y0088400D01*
X0109534Y0087791D01*
X0108409Y0086666D01*
X0107800Y0085196D01*
X0107800Y0078404D01*
X0108409Y0076934D01*
X0109534Y0075809D01*
X0111004Y0075200D01*
X0112596Y0075200D01*
X0114066Y0075809D01*
X0115191Y0076934D01*
X0115800Y0078404D01*
X0115800Y0082100D01*
X0157711Y0082100D01*
X0158641Y0083030D01*
X0159024Y0082646D01*
X0160825Y0081900D01*
X0162775Y0081900D01*
X0164576Y0082646D01*
X0165954Y0084024D01*
X0166700Y0085825D01*
X0166700Y0087775D01*
X0165954Y0089576D01*
X0166388Y0088529D02*
X0217212Y0088529D01*
X0216900Y0086930D02*
X0166700Y0086930D01*
X0166495Y0085332D02*
X0217105Y0085332D01*
X0217937Y0083733D02*
X0165663Y0083733D01*
X0163341Y0082134D02*
X0220259Y0082134D01*
X0220825Y0081700D02*
X0219024Y0080954D01*
X0217646Y0079576D01*
X0216900Y0077775D01*
X0216900Y0075825D01*
X0217646Y0074024D01*
X0217670Y0074000D01*
X0175889Y0074000D01*
X0174600Y0072711D01*
X0165983Y0064094D01*
X0166700Y0065825D01*
X0166700Y0067775D01*
X0165954Y0069576D01*
X0164576Y0070954D01*
X0162775Y0071700D01*
X0160825Y0071700D01*
X0159024Y0070954D01*
X0157646Y0069576D01*
X0156900Y0067775D01*
X0156900Y0065825D01*
X0157646Y0064024D01*
X0159024Y0062646D01*
X0160825Y0061900D01*
X0162775Y0061900D01*
X0164506Y0062617D01*
X0163350Y0061462D01*
X0162775Y0061700D01*
X0160825Y0061700D01*
X0159024Y0060954D01*
X0157646Y0059576D01*
X0156900Y0057775D01*
X0156900Y0055825D01*
X0157646Y0054024D01*
X0159024Y0052646D01*
X0160825Y0051900D01*
X0162775Y0051900D01*
X0164576Y0052646D01*
X0165954Y0054024D01*
X0166700Y0055825D01*
X0166700Y0057775D01*
X0166462Y0058350D01*
X0177711Y0069600D01*
X0217670Y0069600D01*
X0217646Y0069576D01*
X0216900Y0067775D01*
X0216900Y0065825D01*
X0217646Y0064024D01*
X0219024Y0062646D01*
X0220825Y0061900D01*
X0222775Y0061900D01*
X0224506Y0062617D01*
X0223350Y0061462D01*
X0222775Y0061700D01*
X0220825Y0061700D01*
X0219024Y0060954D01*
X0217646Y0059576D01*
X0216900Y0057775D01*
X0216900Y0055825D01*
X0217646Y0054024D01*
X0219024Y0052646D01*
X0220825Y0051900D01*
X0222775Y0051900D01*
X0224576Y0052646D01*
X0225954Y0054024D01*
X0226700Y0055825D01*
X0226700Y0057775D01*
X0226462Y0058350D01*
X0237711Y0069600D01*
X0280211Y0069600D01*
X0285868Y0075257D01*
X0286004Y0075200D01*
X0287596Y0075200D01*
X0289066Y0075809D01*
X0290191Y0076934D01*
X0290800Y0078404D01*
X0290800Y0085196D01*
X0290191Y0086666D01*
X0289066Y0087791D01*
X0287596Y0088400D01*
X0286004Y0088400D01*
X0284534Y0087791D01*
X0283409Y0086666D01*
X0282800Y0085196D01*
X0282800Y0078411D01*
X0278389Y0074000D01*
X0274611Y0074000D01*
X0275868Y0075257D01*
X0276004Y0075200D01*
X0277596Y0075200D01*
X0279066Y0075809D01*
X0280191Y0076934D01*
X0280800Y0078404D01*
X0280800Y0085196D01*
X0280191Y0086666D01*
X0279066Y0087791D01*
X0277596Y0088400D01*
X0276004Y0088400D01*
X0274534Y0087791D01*
X0273409Y0086666D01*
X0272800Y0085196D01*
X0272800Y0078411D01*
X0270889Y0076500D01*
X0270277Y0076500D01*
X0270563Y0076894D01*
X0270878Y0077511D01*
X0271092Y0078170D01*
X0271200Y0078854D01*
X0271200Y0081800D01*
X0271200Y0084746D01*
X0271092Y0085430D01*
X0270878Y0086089D01*
X0270563Y0086706D01*
X0270156Y0087266D01*
X0269666Y0087756D01*
X0269106Y0088163D01*
X0268489Y0088478D01*
X0267830Y0088692D01*
X0267146Y0088800D01*
X0266800Y0088800D01*
X0266800Y0081800D01*
X0266800Y0081800D01*
X0271200Y0081800D01*
X0266800Y0081800D01*
X0266800Y0081800D01*
X0266800Y0081800D01*
X0262400Y0081800D01*
X0262400Y0084746D01*
X0262508Y0085430D01*
X0262722Y0086089D01*
X0263037Y0086706D01*
X0263444Y0087266D01*
X0263934Y0087756D01*
X0264494Y0088163D01*
X0265111Y0088478D01*
X0265770Y0088692D01*
X0266454Y0088800D01*
X0266800Y0088800D01*
X0266800Y0081800D01*
X0262400Y0081800D01*
X0262400Y0078854D01*
X0262508Y0078170D01*
X0262722Y0077511D01*
X0263037Y0076894D01*
X0263323Y0076500D01*
X0233389Y0076500D01*
X0232100Y0075211D01*
X0230889Y0074000D01*
X0225930Y0074000D01*
X0225954Y0074024D01*
X0226700Y0075825D01*
X0226700Y0077775D01*
X0225954Y0079576D01*
X0224576Y0080954D01*
X0222775Y0081700D01*
X0220825Y0081700D01*
X0218606Y0080536D02*
X0164994Y0080536D01*
X0164576Y0080954D02*
X0162775Y0081700D01*
X0160825Y0081700D01*
X0159024Y0080954D01*
X0157646Y0079576D01*
X0156900Y0077775D01*
X0156900Y0075825D01*
X0157646Y0074024D01*
X0159024Y0072646D01*
X0160825Y0071900D01*
X0162775Y0071900D01*
X0164576Y0072646D01*
X0165954Y0074024D01*
X0166700Y0075825D01*
X0166700Y0077775D01*
X0165954Y0079576D01*
X0164576Y0080954D01*
X0166218Y0078937D02*
X0217382Y0078937D01*
X0216900Y0077339D02*
X0166700Y0077339D01*
X0166665Y0075740D02*
X0216935Y0075740D01*
X0217597Y0074142D02*
X0166003Y0074142D01*
X0164328Y0072543D02*
X0174432Y0072543D01*
X0172834Y0070945D02*
X0164585Y0070945D01*
X0166049Y0069346D02*
X0171235Y0069346D01*
X0169637Y0067748D02*
X0166700Y0067748D01*
X0166700Y0066149D02*
X0168038Y0066149D01*
X0166440Y0064551D02*
X0166172Y0064551D01*
X0169465Y0061354D02*
X0219990Y0061354D01*
X0218718Y0062952D02*
X0171064Y0062952D01*
X0172662Y0064551D02*
X0217428Y0064551D01*
X0216900Y0066149D02*
X0174261Y0066149D01*
X0175859Y0067748D02*
X0216900Y0067748D01*
X0217551Y0069346D02*
X0177458Y0069346D01*
X0176800Y0071800D02*
X0231800Y0071800D01*
X0234300Y0074300D01*
X0271800Y0074300D01*
X0276800Y0079300D01*
X0276800Y0081800D01*
X0280800Y0082134D02*
X0282800Y0082134D01*
X0282800Y0080536D02*
X0280800Y0080536D01*
X0280800Y0078937D02*
X0282800Y0078937D01*
X0281728Y0077339D02*
X0280359Y0077339D01*
X0280129Y0075740D02*
X0278900Y0075740D01*
X0278531Y0074142D02*
X0274753Y0074142D01*
X0271728Y0077339D02*
X0270790Y0077339D01*
X0271200Y0078937D02*
X0272800Y0078937D01*
X0272800Y0080536D02*
X0271200Y0080536D01*
X0271200Y0082134D02*
X0272800Y0082134D01*
X0272800Y0083733D02*
X0271200Y0083733D01*
X0271107Y0085332D02*
X0272856Y0085332D01*
X0273673Y0086930D02*
X0270401Y0086930D01*
X0268332Y0088529D02*
X0289460Y0088529D01*
X0289927Y0086930D02*
X0291059Y0086930D01*
X0290744Y0085332D02*
X0292657Y0085332D01*
X0292800Y0083733D02*
X0290800Y0083733D01*
X0290800Y0082134D02*
X0292800Y0082134D01*
X0292800Y0080536D02*
X0290800Y0080536D01*
X0290800Y0078937D02*
X0292800Y0078937D01*
X0293241Y0077339D02*
X0290359Y0077339D01*
X0288900Y0075740D02*
X0294700Y0075740D01*
X0298900Y0075740D02*
X0304700Y0075740D01*
X0303241Y0077339D02*
X0300359Y0077339D01*
X0300800Y0078937D02*
X0302800Y0078937D01*
X0302800Y0080536D02*
X0300800Y0080536D01*
X0300800Y0082134D02*
X0302800Y0082134D01*
X0302800Y0083733D02*
X0300800Y0083733D01*
X0300744Y0085332D02*
X0302657Y0085332D01*
X0304300Y0086800D02*
X0296800Y0094300D01*
X0226800Y0094300D01*
X0224300Y0096800D01*
X0221800Y0096800D01*
X0223700Y0101317D02*
X0234172Y0101317D01*
X0232574Y0102915D02*
X0224845Y0102915D01*
X0226157Y0104514D02*
X0230975Y0104514D01*
X0229377Y0106112D02*
X0226700Y0106112D01*
X0226700Y0107711D02*
X0227778Y0107711D01*
X0226180Y0109309D02*
X0226064Y0109309D01*
X0221800Y0116800D02*
X0241800Y0096800D01*
X0301800Y0096800D01*
X0311800Y0086800D01*
X0311584Y0090127D02*
X0324600Y0090127D01*
X0324600Y0091726D02*
X0309986Y0091726D01*
X0308387Y0093324D02*
X0324600Y0093324D01*
X0324600Y0094923D02*
X0306789Y0094923D01*
X0305190Y0096521D02*
X0324600Y0096521D01*
X0325244Y0102915D02*
X0318356Y0102915D01*
X0319066Y0103209D02*
X0320191Y0104334D01*
X0320800Y0105804D01*
X0320800Y0112596D01*
X0320191Y0114066D01*
X0319066Y0115191D01*
X0317596Y0115800D01*
X0316004Y0115800D01*
X0314534Y0115191D01*
X0313409Y0114066D01*
X0312800Y0112596D01*
X0312800Y0105804D01*
X0313409Y0104334D01*
X0314534Y0103209D01*
X0316004Y0102600D01*
X0317596Y0102600D01*
X0319066Y0103209D01*
X0320265Y0104514D02*
X0323335Y0104514D01*
X0322800Y0106112D02*
X0320800Y0106112D01*
X0320800Y0107711D02*
X0322800Y0107711D01*
X0322800Y0109309D02*
X0320800Y0109309D01*
X0320800Y0110908D02*
X0322800Y0110908D01*
X0322417Y0112506D02*
X0320800Y0112506D01*
X0320818Y0114105D02*
X0320152Y0114105D01*
X0319220Y0115703D02*
X0317829Y0115703D01*
X0315771Y0115703D02*
X0307829Y0115703D01*
X0310152Y0114105D02*
X0313448Y0114105D01*
X0312800Y0112506D02*
X0310800Y0112506D01*
X0310800Y0110908D02*
X0312800Y0110908D01*
X0312800Y0109309D02*
X0310800Y0109309D01*
X0310800Y0107711D02*
X0312800Y0107711D01*
X0312800Y0106112D02*
X0310800Y0106112D01*
X0310265Y0104514D02*
X0313335Y0104514D01*
X0315244Y0102915D02*
X0308356Y0102915D01*
X0305244Y0102915D02*
X0298356Y0102915D01*
X0299066Y0103209D02*
X0300191Y0104334D01*
X0300800Y0105804D01*
X0300800Y0112596D01*
X0300191Y0114066D01*
X0299066Y0115191D01*
X0297596Y0115800D01*
X0296004Y0115800D01*
X0294534Y0115191D01*
X0293409Y0114066D01*
X0292800Y0112596D01*
X0292800Y0105804D01*
X0293409Y0104334D01*
X0294534Y0103209D01*
X0296004Y0102600D01*
X0297596Y0102600D01*
X0299066Y0103209D01*
X0300265Y0104514D02*
X0303335Y0104514D01*
X0302800Y0106112D02*
X0300800Y0106112D01*
X0300800Y0107711D02*
X0302800Y0107711D01*
X0302800Y0109309D02*
X0300800Y0109309D01*
X0300800Y0110908D02*
X0302800Y0110908D01*
X0302417Y0112506D02*
X0300800Y0112506D01*
X0300818Y0114105D02*
X0300152Y0114105D01*
X0299220Y0115703D02*
X0297829Y0115703D01*
X0295771Y0115703D02*
X0294380Y0115703D01*
X0293448Y0114105D02*
X0292782Y0114105D01*
X0292800Y0112506D02*
X0291183Y0112506D01*
X0290800Y0110908D02*
X0292800Y0110908D01*
X0292800Y0109309D02*
X0290800Y0109309D01*
X0290800Y0107711D02*
X0292800Y0107711D01*
X0292800Y0106112D02*
X0290800Y0106112D01*
X0290265Y0104514D02*
X0293335Y0104514D01*
X0295244Y0102915D02*
X0288356Y0102915D01*
X0285244Y0102915D02*
X0278356Y0102915D01*
X0280265Y0104514D02*
X0283335Y0104514D01*
X0282800Y0106112D02*
X0280800Y0106112D01*
X0280800Y0107711D02*
X0282800Y0107711D01*
X0282800Y0109309D02*
X0280800Y0109309D01*
X0280800Y0110908D02*
X0282800Y0110908D01*
X0282800Y0112506D02*
X0280800Y0112506D01*
X0280152Y0114105D02*
X0283448Y0114105D01*
X0289300Y0091800D02*
X0296800Y0084300D01*
X0296800Y0081800D01*
X0299927Y0086930D02*
X0301059Y0086930D01*
X0299460Y0088529D02*
X0295683Y0088529D01*
X0294084Y0090127D02*
X0297862Y0090127D01*
X0296263Y0091726D02*
X0292486Y0091726D01*
X0289300Y0091800D02*
X0226800Y0091800D01*
X0221800Y0086800D01*
X0226700Y0086930D02*
X0263199Y0086930D01*
X0262493Y0085332D02*
X0226495Y0085332D01*
X0225663Y0083733D02*
X0262400Y0083733D01*
X0262400Y0082134D02*
X0223341Y0082134D01*
X0224994Y0080536D02*
X0262400Y0080536D01*
X0262400Y0078937D02*
X0226218Y0078937D01*
X0226700Y0077339D02*
X0262810Y0077339D01*
X0266800Y0082134D02*
X0266800Y0082134D01*
X0266800Y0083733D02*
X0266800Y0083733D01*
X0266800Y0085332D02*
X0266800Y0085332D01*
X0266800Y0086930D02*
X0266800Y0086930D01*
X0266800Y0088529D02*
X0266800Y0088529D01*
X0265268Y0088529D02*
X0226640Y0088529D01*
X0223614Y0091726D02*
X0104000Y0091726D01*
X0104000Y0090127D02*
X0158197Y0090127D01*
X0157212Y0088529D02*
X0104000Y0088529D01*
X0104927Y0086930D02*
X0108673Y0086930D01*
X0107856Y0085332D02*
X0105744Y0085332D01*
X0105800Y0083733D02*
X0107800Y0083733D01*
X0107800Y0082134D02*
X0105800Y0082134D01*
X0105800Y0080536D02*
X0107800Y0080536D01*
X0107800Y0078937D02*
X0105800Y0078937D01*
X0105359Y0077339D02*
X0108241Y0077339D01*
X0109700Y0075740D02*
X0103900Y0075740D01*
X0099700Y0075740D02*
X0093900Y0075740D01*
X0095359Y0077339D02*
X0098241Y0077339D01*
X0097800Y0078937D02*
X0095800Y0078937D01*
X0095800Y0080536D02*
X0097800Y0080536D01*
X0097800Y0082134D02*
X0095800Y0082134D01*
X0095800Y0083733D02*
X0097800Y0083733D01*
X0097856Y0085332D02*
X0095744Y0085332D01*
X0094927Y0086930D02*
X0098673Y0086930D01*
X0099600Y0088529D02*
X0094000Y0088529D01*
X0094000Y0090127D02*
X0099600Y0090127D01*
X0099600Y0091726D02*
X0094000Y0091726D01*
X0094000Y0093324D02*
X0099600Y0093324D01*
X0101800Y0094300D02*
X0156800Y0094300D01*
X0159300Y0096800D01*
X0161800Y0096800D01*
X0159900Y0101317D02*
X0159428Y0101317D01*
X0159300Y0104300D02*
X0159300Y0106800D01*
X0161800Y0106800D01*
X0159300Y0104300D02*
X0151800Y0096800D01*
X0091800Y0096800D01*
X0091800Y0081800D01*
X0089700Y0075740D02*
X0089175Y0075740D01*
X0088273Y0074596D02*
X0088273Y0074596D01*
X0088135Y0074142D02*
X0157597Y0074142D01*
X0156935Y0075740D02*
X0113900Y0075740D01*
X0115359Y0077339D02*
X0156900Y0077339D01*
X0157382Y0078937D02*
X0115800Y0078937D01*
X0115800Y0080536D02*
X0158606Y0080536D01*
X0157746Y0082134D02*
X0160259Y0082134D01*
X0156800Y0084300D02*
X0159300Y0086800D01*
X0161800Y0086800D01*
X0156319Y0086930D02*
X0114927Y0086930D01*
X0114300Y0084300D02*
X0111800Y0081800D01*
X0114300Y0084300D02*
X0156800Y0084300D01*
X0159272Y0072543D02*
X0089734Y0072543D01*
X0091332Y0070945D02*
X0159015Y0070945D01*
X0157551Y0069346D02*
X0092931Y0069346D01*
X0094529Y0067748D02*
X0156900Y0067748D01*
X0156900Y0066149D02*
X0096128Y0066149D01*
X0097726Y0064551D02*
X0157428Y0064551D01*
X0158718Y0062952D02*
X0099325Y0062952D01*
X0095168Y0059755D02*
X0073432Y0059755D01*
X0071834Y0058157D02*
X0096766Y0058157D01*
X0093569Y0061354D02*
X0075031Y0061354D01*
X0076629Y0062952D02*
X0091971Y0062952D01*
X0090372Y0064551D02*
X0078228Y0064551D01*
X0079826Y0066149D02*
X0088774Y0066149D01*
X0087175Y0067748D02*
X0081425Y0067748D01*
X0083023Y0069346D02*
X0085577Y0069346D01*
X0080465Y0074142D02*
X0013600Y0074142D01*
X0013600Y0075740D02*
X0029076Y0075740D01*
X0028934Y0075844D02*
X0029494Y0075437D01*
X0030111Y0075122D01*
X0030770Y0074908D01*
X0031454Y0074800D01*
X0031800Y0074800D01*
X0031800Y0081800D01*
X0027400Y0081800D01*
X0027400Y0078854D01*
X0027508Y0078170D01*
X0027722Y0077511D01*
X0028037Y0076894D01*
X0028444Y0076334D01*
X0028934Y0075844D01*
X0027810Y0077339D02*
X0013600Y0077339D01*
X0013600Y0078937D02*
X0027400Y0078937D01*
X0027400Y0080536D02*
X0013600Y0080536D01*
X0013600Y0082134D02*
X0027400Y0082134D01*
X0027400Y0083733D02*
X0013600Y0083733D01*
X0013600Y0085332D02*
X0027493Y0085332D01*
X0028199Y0086930D02*
X0013600Y0086930D01*
X0013600Y0072543D02*
X0078866Y0072543D01*
X0077268Y0070945D02*
X0013600Y0070945D01*
X0013600Y0069346D02*
X0075669Y0069346D01*
X0074071Y0067748D02*
X0013600Y0067748D01*
X0013600Y0066149D02*
X0072472Y0066149D01*
X0070874Y0064551D02*
X0013600Y0064551D01*
X0013600Y0062952D02*
X0069275Y0062952D01*
X0067677Y0061354D02*
X0065923Y0061354D01*
X0063365Y0056558D02*
X0039400Y0056558D01*
X0039400Y0054960D02*
X0064963Y0054960D01*
X0066562Y0053361D02*
X0059951Y0053361D01*
X0059906Y0053406D02*
X0059299Y0053847D01*
X0058630Y0054188D01*
X0057917Y0054420D01*
X0057175Y0054537D01*
X0056984Y0054537D01*
X0056984Y0046984D01*
X0061568Y0046984D01*
X0061568Y0050144D01*
X0061451Y0050885D01*
X0061219Y0051599D01*
X0060878Y0052268D01*
X0060437Y0052875D01*
X0059906Y0053406D01*
X0061136Y0051763D02*
X0068160Y0051763D01*
X0069759Y0050164D02*
X0061565Y0050164D01*
X0061568Y0048566D02*
X0071357Y0048566D01*
X0072956Y0046967D02*
X0056984Y0046967D01*
X0056984Y0046984D02*
X0056984Y0046616D01*
X0056984Y0039063D01*
X0057175Y0039063D01*
X0057917Y0039180D01*
X0058630Y0039412D01*
X0059299Y0039753D01*
X0059906Y0040194D01*
X0060437Y0040725D01*
X0060878Y0041332D01*
X0061219Y0042001D01*
X0061451Y0042715D01*
X0061568Y0043456D01*
X0061568Y0046616D01*
X0056984Y0046616D01*
X0056616Y0046616D01*
X0056616Y0039063D01*
X0056425Y0039063D01*
X0055683Y0039180D01*
X0054970Y0039412D01*
X0054301Y0039753D01*
X0053694Y0040194D01*
X0053163Y0040725D01*
X0052722Y0041332D01*
X0052381Y0042001D01*
X0052149Y0042715D01*
X0052031Y0043456D01*
X0052031Y0046616D01*
X0056616Y0046616D01*
X0056616Y0046984D01*
X0052031Y0046984D01*
X0052031Y0050144D01*
X0052149Y0050885D01*
X0052381Y0051599D01*
X0052722Y0052268D01*
X0053163Y0052875D01*
X0053694Y0053406D01*
X0054301Y0053847D01*
X0054970Y0054188D01*
X0055683Y0054420D01*
X0056425Y0054537D01*
X0056616Y0054537D01*
X0056616Y0046984D01*
X0056984Y0046984D01*
X0056616Y0046967D02*
X0051168Y0046967D01*
X0051168Y0045369D02*
X0052031Y0045369D01*
X0052031Y0043770D02*
X0051168Y0043770D01*
X0051168Y0042963D02*
X0051168Y0050637D01*
X0050503Y0052243D01*
X0049275Y0053472D01*
X0047669Y0054137D01*
X0045931Y0054137D01*
X0044325Y0053472D01*
X0043097Y0052243D01*
X0042431Y0050637D01*
X0042431Y0042963D01*
X0043097Y0041357D01*
X0044325Y0040128D01*
X0045931Y0039463D01*
X0047669Y0039463D01*
X0049275Y0040128D01*
X0050503Y0041357D01*
X0051168Y0042963D01*
X0050841Y0042172D02*
X0052325Y0042172D01*
X0053315Y0040573D02*
X0049720Y0040573D01*
X0056616Y0040573D02*
X0056984Y0040573D01*
X0056984Y0042172D02*
X0056616Y0042172D01*
X0056616Y0043770D02*
X0056984Y0043770D01*
X0056984Y0045369D02*
X0056616Y0045369D01*
X0056616Y0048566D02*
X0056984Y0048566D01*
X0056984Y0050164D02*
X0056616Y0050164D01*
X0056616Y0051763D02*
X0056984Y0051763D01*
X0056984Y0053361D02*
X0056616Y0053361D01*
X0053649Y0053361D02*
X0049385Y0053361D01*
X0050702Y0051763D02*
X0052464Y0051763D01*
X0052035Y0050164D02*
X0051168Y0050164D01*
X0051168Y0048566D02*
X0052031Y0048566D01*
X0044215Y0053361D02*
X0039400Y0053361D01*
X0040702Y0051763D02*
X0042898Y0051763D01*
X0042431Y0050164D02*
X0041168Y0050164D01*
X0041168Y0048566D02*
X0042431Y0048566D01*
X0042431Y0046967D02*
X0041168Y0046967D01*
X0041168Y0045369D02*
X0042431Y0045369D01*
X0042431Y0043770D02*
X0041168Y0043770D01*
X0040841Y0042172D02*
X0042759Y0042172D01*
X0043880Y0040573D02*
X0039720Y0040573D01*
X0033880Y0040573D02*
X0013600Y0040573D01*
X0013600Y0038975D02*
X0163448Y0038975D01*
X0161850Y0040573D02*
X0105285Y0040573D01*
X0105437Y0040725D02*
X0104906Y0040194D01*
X0104299Y0039753D01*
X0103630Y0039412D01*
X0102917Y0039180D01*
X0102175Y0039063D01*
X0101984Y0039063D01*
X0101984Y0046616D01*
X0101616Y0046616D01*
X0101616Y0039063D01*
X0101425Y0039063D01*
X0100683Y0039180D01*
X0099970Y0039412D01*
X0099301Y0039753D01*
X0098694Y0040194D01*
X0098163Y0040725D01*
X0097722Y0041332D01*
X0097381Y0042001D01*
X0097149Y0042715D01*
X0097031Y0043456D01*
X0097031Y0046616D01*
X0101616Y0046616D01*
X0101616Y0046984D01*
X0097031Y0046984D01*
X0097031Y0050144D01*
X0097149Y0050885D01*
X0097381Y0051599D01*
X0097722Y0052268D01*
X0098163Y0052875D01*
X0098694Y0053406D01*
X0099301Y0053847D01*
X0099970Y0054188D01*
X0100683Y0054420D01*
X0101425Y0054537D01*
X0101616Y0054537D01*
X0101616Y0046984D01*
X0101984Y0046984D01*
X0106568Y0046984D01*
X0106568Y0050144D01*
X0106451Y0050885D01*
X0106219Y0051599D01*
X0105878Y0052268D01*
X0105437Y0052875D01*
X0104906Y0053406D01*
X0104299Y0053847D01*
X0103630Y0054188D01*
X0102917Y0054420D01*
X0102175Y0054537D01*
X0101984Y0054537D01*
X0101984Y0046984D01*
X0101984Y0046616D01*
X0106568Y0046616D01*
X0106568Y0043456D01*
X0106451Y0042715D01*
X0106219Y0042001D01*
X0105878Y0041332D01*
X0105437Y0040725D01*
X0106275Y0042172D02*
X0160251Y0042172D01*
X0158653Y0043770D02*
X0106568Y0043770D01*
X0106568Y0045369D02*
X0157054Y0045369D01*
X0155456Y0046967D02*
X0101984Y0046967D01*
X0101616Y0046967D02*
X0096168Y0046967D01*
X0096168Y0045369D02*
X0097031Y0045369D01*
X0097031Y0043770D02*
X0096168Y0043770D01*
X0096168Y0042963D02*
X0096168Y0050637D01*
X0095503Y0052243D01*
X0094275Y0053472D01*
X0092669Y0054137D01*
X0090931Y0054137D01*
X0089325Y0053472D01*
X0088097Y0052243D01*
X0087431Y0050637D01*
X0087431Y0042963D01*
X0088097Y0041357D01*
X0089325Y0040128D01*
X0090931Y0039463D01*
X0092669Y0039463D01*
X0094275Y0040128D01*
X0095503Y0041357D01*
X0096168Y0042963D01*
X0095841Y0042172D02*
X0097325Y0042172D01*
X0098315Y0040573D02*
X0094720Y0040573D01*
X0101616Y0040573D02*
X0101984Y0040573D01*
X0101984Y0042172D02*
X0101616Y0042172D01*
X0101616Y0043770D02*
X0101984Y0043770D01*
X0101984Y0045369D02*
X0101616Y0045369D01*
X0101616Y0048566D02*
X0101984Y0048566D01*
X0101984Y0050164D02*
X0101616Y0050164D01*
X0101616Y0051763D02*
X0101984Y0051763D01*
X0101984Y0053361D02*
X0101616Y0053361D01*
X0098649Y0053361D02*
X0094385Y0053361D01*
X0095702Y0051763D02*
X0097464Y0051763D01*
X0097035Y0050164D02*
X0096168Y0050164D01*
X0096168Y0048566D02*
X0097031Y0048566D01*
X0089215Y0053361D02*
X0084385Y0053361D01*
X0085702Y0051763D02*
X0087898Y0051763D01*
X0087431Y0050164D02*
X0086168Y0050164D01*
X0086168Y0048566D02*
X0087431Y0048566D01*
X0087431Y0046967D02*
X0086168Y0046967D01*
X0086168Y0045369D02*
X0087431Y0045369D01*
X0087431Y0043770D02*
X0086168Y0043770D01*
X0085841Y0042172D02*
X0087759Y0042172D01*
X0088880Y0040573D02*
X0084720Y0040573D01*
X0078880Y0040573D02*
X0060285Y0040573D01*
X0061275Y0042172D02*
X0077759Y0042172D01*
X0077431Y0043770D02*
X0061568Y0043770D01*
X0061568Y0045369D02*
X0074554Y0045369D01*
X0077113Y0050164D02*
X0077431Y0050164D01*
X0077898Y0051763D02*
X0075514Y0051763D01*
X0073916Y0053361D02*
X0079215Y0053361D01*
X0072317Y0054960D02*
X0147463Y0054960D01*
X0145865Y0056558D02*
X0070719Y0056558D01*
X0059700Y0075740D02*
X0053900Y0075740D01*
X0054066Y0075809D02*
X0055191Y0076934D01*
X0055800Y0078404D01*
X0055800Y0085196D01*
X0055191Y0086666D01*
X0054066Y0087791D01*
X0052596Y0088400D01*
X0051004Y0088400D01*
X0049534Y0087791D01*
X0048409Y0086666D01*
X0047800Y0085196D01*
X0047800Y0078404D01*
X0048409Y0076934D01*
X0049534Y0075809D01*
X0051004Y0075200D01*
X0052596Y0075200D01*
X0054066Y0075809D01*
X0055359Y0077339D02*
X0058241Y0077339D01*
X0057800Y0078937D02*
X0055800Y0078937D01*
X0055800Y0080536D02*
X0057800Y0080536D01*
X0057800Y0082134D02*
X0055800Y0082134D01*
X0055800Y0083733D02*
X0057800Y0083733D01*
X0057856Y0085332D02*
X0055744Y0085332D01*
X0054927Y0086930D02*
X0058673Y0086930D01*
X0048673Y0086930D02*
X0044927Y0086930D01*
X0045191Y0086666D02*
X0044066Y0087791D01*
X0042596Y0088400D01*
X0041004Y0088400D01*
X0039534Y0087791D01*
X0038409Y0086666D01*
X0037800Y0085196D01*
X0037800Y0078404D01*
X0038409Y0076934D01*
X0039534Y0075809D01*
X0041004Y0075200D01*
X0042596Y0075200D01*
X0044066Y0075809D01*
X0045191Y0076934D01*
X0045800Y0078404D01*
X0045800Y0085196D01*
X0045191Y0086666D01*
X0045744Y0085332D02*
X0047856Y0085332D01*
X0047800Y0083733D02*
X0045800Y0083733D01*
X0045800Y0082134D02*
X0047800Y0082134D01*
X0047800Y0080536D02*
X0045800Y0080536D01*
X0045800Y0078937D02*
X0047800Y0078937D01*
X0048241Y0077339D02*
X0045359Y0077339D01*
X0043900Y0075740D02*
X0049700Y0075740D01*
X0039700Y0075740D02*
X0034524Y0075740D01*
X0035790Y0077339D02*
X0038241Y0077339D01*
X0037800Y0078937D02*
X0036200Y0078937D01*
X0036200Y0080536D02*
X0037800Y0080536D01*
X0037800Y0082134D02*
X0036200Y0082134D01*
X0036200Y0083733D02*
X0037800Y0083733D01*
X0037856Y0085332D02*
X0036107Y0085332D01*
X0035401Y0086930D02*
X0038673Y0086930D01*
X0031800Y0086930D02*
X0031800Y0086930D01*
X0031800Y0085332D02*
X0031800Y0085332D01*
X0031800Y0083733D02*
X0031800Y0083733D01*
X0031800Y0082134D02*
X0031800Y0082134D01*
X0031800Y0080536D02*
X0031800Y0080536D01*
X0031800Y0078937D02*
X0031800Y0078937D01*
X0031800Y0077339D02*
X0031800Y0077339D01*
X0031800Y0075740D02*
X0031800Y0075740D01*
X0035177Y0061354D02*
X0013600Y0061354D01*
X0013600Y0059755D02*
X0034200Y0059755D01*
X0034200Y0058157D02*
X0013600Y0058157D01*
X0013600Y0056558D02*
X0034200Y0056558D01*
X0034200Y0054960D02*
X0013600Y0054960D01*
X0013600Y0053361D02*
X0034200Y0053361D01*
X0032898Y0051763D02*
X0013600Y0051763D01*
X0013600Y0050164D02*
X0032431Y0050164D01*
X0032431Y0048566D02*
X0013600Y0048566D01*
X0013600Y0046967D02*
X0032431Y0046967D01*
X0032431Y0045369D02*
X0013600Y0045369D01*
X0013600Y0043770D02*
X0032431Y0043770D01*
X0032759Y0042172D02*
X0013600Y0042172D01*
X0013600Y0037376D02*
X0165047Y0037376D01*
X0166645Y0035778D02*
X0013600Y0035778D01*
X0013600Y0034179D02*
X0168244Y0034179D01*
X0169842Y0032581D02*
X0013600Y0032581D01*
X0013600Y0030982D02*
X0171441Y0030982D01*
X0173340Y0029384D02*
X0013600Y0029384D01*
X0013600Y0027785D02*
X0279638Y0027785D01*
X0284400Y0032581D02*
X0321404Y0032581D01*
X0323002Y0034179D02*
X0292909Y0034179D01*
X0292917Y0034180D02*
X0293630Y0034412D01*
X0294299Y0034753D01*
X0294906Y0035194D01*
X0295437Y0035725D01*
X0295878Y0036332D01*
X0296219Y0037001D01*
X0296451Y0037715D01*
X0296568Y0038456D01*
X0296568Y0041616D01*
X0291984Y0041616D01*
X0291984Y0034063D01*
X0292175Y0034063D01*
X0292917Y0034180D01*
X0291984Y0034179D02*
X0291616Y0034179D01*
X0291616Y0034063D02*
X0291616Y0041616D01*
X0291984Y0041616D01*
X0291984Y0041984D01*
X0296568Y0041984D01*
X0296568Y0045144D01*
X0296451Y0045885D01*
X0296219Y0046599D01*
X0295878Y0047268D01*
X0295437Y0047875D01*
X0294906Y0048406D01*
X0294299Y0048847D01*
X0293630Y0049188D01*
X0292917Y0049420D01*
X0292175Y0049537D01*
X0291984Y0049537D01*
X0291984Y0041984D01*
X0291616Y0041984D01*
X0291616Y0041616D01*
X0287031Y0041616D01*
X0287031Y0038456D01*
X0287149Y0037715D01*
X0287381Y0037001D01*
X0287722Y0036332D01*
X0288163Y0035725D01*
X0288694Y0035194D01*
X0289301Y0034753D01*
X0289970Y0034412D01*
X0290683Y0034180D01*
X0291425Y0034063D01*
X0291616Y0034063D01*
X0290691Y0034179D02*
X0284400Y0034179D01*
X0284924Y0035778D02*
X0288125Y0035778D01*
X0287259Y0037376D02*
X0285926Y0037376D01*
X0286168Y0038975D02*
X0287031Y0038975D01*
X0287031Y0040573D02*
X0286168Y0040573D01*
X0286168Y0042172D02*
X0287031Y0042172D01*
X0287031Y0041984D02*
X0291616Y0041984D01*
X0291616Y0049537D01*
X0291425Y0049537D01*
X0290683Y0049420D01*
X0289970Y0049188D01*
X0289301Y0048847D01*
X0288694Y0048406D01*
X0288163Y0047875D01*
X0287722Y0047268D01*
X0287381Y0046599D01*
X0287149Y0045885D01*
X0287031Y0045144D01*
X0287031Y0041984D01*
X0287031Y0043770D02*
X0286168Y0043770D01*
X0286168Y0045369D02*
X0287067Y0045369D01*
X0287569Y0046967D02*
X0285618Y0046967D01*
X0284048Y0048566D02*
X0288914Y0048566D01*
X0291616Y0048566D02*
X0291984Y0048566D01*
X0291984Y0046967D02*
X0291616Y0046967D01*
X0291616Y0045369D02*
X0291984Y0045369D01*
X0291984Y0043770D02*
X0291616Y0043770D01*
X0291616Y0042172D02*
X0291984Y0042172D01*
X0291984Y0040573D02*
X0291616Y0040573D01*
X0291616Y0038975D02*
X0291984Y0038975D01*
X0291984Y0037376D02*
X0291616Y0037376D01*
X0291616Y0035778D02*
X0291984Y0035778D01*
X0295475Y0035778D02*
X0318676Y0035778D01*
X0317674Y0037376D02*
X0296341Y0037376D01*
X0296568Y0038975D02*
X0317431Y0038975D01*
X0314350Y0040573D02*
X0296568Y0040573D01*
X0296568Y0042172D02*
X0312751Y0042172D01*
X0311153Y0043770D02*
X0296568Y0043770D01*
X0296533Y0045369D02*
X0309554Y0045369D01*
X0307956Y0046967D02*
X0296031Y0046967D01*
X0294686Y0048566D02*
X0306357Y0048566D01*
X0304759Y0050164D02*
X0274400Y0050164D01*
X0274400Y0048566D02*
X0279552Y0048566D01*
X0277982Y0046967D02*
X0275618Y0046967D01*
X0276168Y0045369D02*
X0277431Y0045369D01*
X0277431Y0043770D02*
X0276168Y0043770D01*
X0276168Y0042172D02*
X0277431Y0042172D01*
X0277431Y0040573D02*
X0276168Y0040573D01*
X0276168Y0038975D02*
X0277431Y0038975D01*
X0277674Y0037376D02*
X0275926Y0037376D01*
X0274924Y0035778D02*
X0278676Y0035778D01*
X0268676Y0035778D02*
X0173999Y0035778D01*
X0172401Y0037376D02*
X0267674Y0037376D01*
X0267431Y0038975D02*
X0170802Y0038975D01*
X0169204Y0040573D02*
X0267431Y0040573D01*
X0267431Y0042172D02*
X0167605Y0042172D01*
X0166007Y0043770D02*
X0267431Y0043770D01*
X0267431Y0045369D02*
X0164408Y0045369D01*
X0162810Y0046967D02*
X0267982Y0046967D01*
X0269200Y0048566D02*
X0161211Y0048566D01*
X0159613Y0050164D02*
X0269200Y0050164D01*
X0269200Y0051763D02*
X0158014Y0051763D01*
X0158309Y0053361D02*
X0156416Y0053361D01*
X0157259Y0054960D02*
X0154817Y0054960D01*
X0153219Y0056558D02*
X0156900Y0056558D01*
X0157058Y0058157D02*
X0151620Y0058157D01*
X0150022Y0059755D02*
X0157826Y0059755D01*
X0159990Y0061354D02*
X0148423Y0061354D01*
X0149062Y0053361D02*
X0104951Y0053361D01*
X0106136Y0051763D02*
X0150660Y0051763D01*
X0152259Y0050164D02*
X0106565Y0050164D01*
X0106568Y0048566D02*
X0153857Y0048566D01*
X0161800Y0056800D02*
X0176800Y0071800D01*
X0167867Y0059755D02*
X0217826Y0059755D01*
X0217058Y0058157D02*
X0166542Y0058157D01*
X0166700Y0056558D02*
X0216900Y0056558D01*
X0217259Y0054960D02*
X0166341Y0054960D01*
X0165291Y0053361D02*
X0218309Y0053361D01*
X0221800Y0056800D02*
X0236800Y0071800D01*
X0279300Y0071800D01*
X0286800Y0079300D01*
X0286800Y0081800D01*
X0282800Y0083733D02*
X0280800Y0083733D01*
X0280744Y0085332D02*
X0282856Y0085332D01*
X0283673Y0086930D02*
X0279927Y0086930D01*
X0284753Y0074142D02*
X0309600Y0074142D01*
X0309600Y0075740D02*
X0308900Y0075740D01*
X0309600Y0072543D02*
X0283155Y0072543D01*
X0281556Y0070945D02*
X0309600Y0070945D01*
X0306800Y0081800D02*
X0306800Y0086800D01*
X0304300Y0086800D01*
X0329927Y0086930D02*
X0333673Y0086930D01*
X0332856Y0085332D02*
X0330744Y0085332D01*
X0330800Y0083733D02*
X0332800Y0083733D01*
X0305642Y0056558D02*
X0363701Y0056558D01*
X0363701Y0054960D02*
X0307317Y0054960D01*
X0308916Y0053361D02*
X0363701Y0053361D01*
X0363701Y0051763D02*
X0310514Y0051763D01*
X0312113Y0050164D02*
X0363701Y0050164D01*
X0363701Y0048566D02*
X0344686Y0048566D01*
X0344906Y0048406D02*
X0344299Y0048847D01*
X0343630Y0049188D01*
X0342917Y0049420D01*
X0342175Y0049537D01*
X0341984Y0049537D01*
X0341984Y0041984D01*
X0346568Y0041984D01*
X0346568Y0045144D01*
X0346451Y0045885D01*
X0346219Y0046599D01*
X0345878Y0047268D01*
X0345437Y0047875D01*
X0344906Y0048406D01*
X0346031Y0046967D02*
X0363701Y0046967D01*
X0363701Y0045369D02*
X0346533Y0045369D01*
X0346568Y0043770D02*
X0363701Y0043770D01*
X0363701Y0042172D02*
X0346568Y0042172D01*
X0346568Y0041616D02*
X0341984Y0041616D01*
X0341984Y0034063D01*
X0342175Y0034063D01*
X0342917Y0034180D01*
X0343630Y0034412D01*
X0344299Y0034753D01*
X0344906Y0035194D01*
X0345437Y0035725D01*
X0345878Y0036332D01*
X0346219Y0037001D01*
X0346451Y0037715D01*
X0346568Y0038456D01*
X0346568Y0041616D01*
X0346568Y0040573D02*
X0363701Y0040573D01*
X0363701Y0038975D02*
X0346568Y0038975D01*
X0346341Y0037376D02*
X0363701Y0037376D01*
X0363701Y0035778D02*
X0345475Y0035778D01*
X0342909Y0034179D02*
X0363701Y0034179D01*
X0363701Y0032581D02*
X0328758Y0032581D01*
X0330356Y0034179D02*
X0340691Y0034179D01*
X0340683Y0034180D02*
X0341425Y0034063D01*
X0341616Y0034063D01*
X0341616Y0041616D01*
X0341984Y0041616D01*
X0341984Y0041984D01*
X0341616Y0041984D01*
X0341616Y0041616D01*
X0337031Y0041616D01*
X0337031Y0038456D01*
X0337149Y0037715D01*
X0337381Y0037001D01*
X0337722Y0036332D01*
X0338163Y0035725D01*
X0338694Y0035194D01*
X0339301Y0034753D01*
X0339970Y0034412D01*
X0340683Y0034180D01*
X0341616Y0034179D02*
X0341984Y0034179D01*
X0341984Y0035778D02*
X0341616Y0035778D01*
X0341616Y0037376D02*
X0341984Y0037376D01*
X0341984Y0038975D02*
X0341616Y0038975D01*
X0341616Y0040573D02*
X0341984Y0040573D01*
X0341616Y0041984D02*
X0337031Y0041984D01*
X0337031Y0045144D01*
X0337149Y0045885D01*
X0337381Y0046599D01*
X0337722Y0047268D01*
X0338163Y0047875D01*
X0338694Y0048406D01*
X0339301Y0048847D01*
X0339970Y0049188D01*
X0340683Y0049420D01*
X0341425Y0049537D01*
X0341616Y0049537D01*
X0341616Y0041984D01*
X0341616Y0042172D02*
X0341984Y0042172D01*
X0341984Y0043770D02*
X0341616Y0043770D01*
X0341616Y0045369D02*
X0341984Y0045369D01*
X0341984Y0046967D02*
X0341616Y0046967D01*
X0341616Y0048566D02*
X0341984Y0048566D01*
X0338914Y0048566D02*
X0334048Y0048566D01*
X0335618Y0046967D02*
X0337569Y0046967D01*
X0337067Y0045369D02*
X0336168Y0045369D01*
X0336168Y0043770D02*
X0337031Y0043770D01*
X0337031Y0042172D02*
X0336168Y0042172D01*
X0336168Y0040573D02*
X0337031Y0040573D01*
X0337031Y0038975D02*
X0336168Y0038975D01*
X0335926Y0037376D02*
X0337259Y0037376D01*
X0338125Y0035778D02*
X0334924Y0035778D01*
X0327431Y0038975D02*
X0326168Y0038975D01*
X0326168Y0040573D02*
X0327431Y0040573D01*
X0327431Y0042172D02*
X0326168Y0042172D01*
X0326168Y0043770D02*
X0327431Y0043770D01*
X0327431Y0045369D02*
X0326168Y0045369D01*
X0325618Y0046967D02*
X0327982Y0046967D01*
X0329552Y0048566D02*
X0324048Y0048566D01*
X0319552Y0048566D02*
X0313711Y0048566D01*
X0315310Y0046967D02*
X0317982Y0046967D01*
X0317431Y0045369D02*
X0316908Y0045369D01*
X0325926Y0037376D02*
X0326199Y0037376D01*
X0327159Y0030982D02*
X0363701Y0030982D01*
X0363701Y0029384D02*
X0325561Y0029384D01*
X0323962Y0027785D02*
X0363701Y0027785D01*
X0363701Y0026187D02*
X0013600Y0026187D01*
X0013600Y0024588D02*
X0363701Y0024588D01*
X0363701Y0022990D02*
X0013600Y0022990D01*
X0013600Y0021391D02*
X0363701Y0021391D01*
X0363701Y0019793D02*
X0013600Y0019793D01*
X0013600Y0018194D02*
X0363701Y0018194D01*
X0363701Y0016596D02*
X0013600Y0016596D01*
X0013600Y0014997D02*
X0363701Y0014997D01*
X0363701Y0013600D02*
X0013600Y0013600D01*
X0013600Y0325276D01*
X0363701Y0325276D01*
X0363701Y0013600D01*
X0363701Y0058157D02*
X0226542Y0058157D01*
X0226700Y0056558D02*
X0270458Y0056558D01*
X0269259Y0054960D02*
X0226341Y0054960D01*
X0225291Y0053361D02*
X0269200Y0053361D01*
X0237458Y0069346D02*
X0363701Y0069346D01*
X0363701Y0067748D02*
X0235859Y0067748D01*
X0234261Y0066149D02*
X0363701Y0066149D01*
X0363701Y0064551D02*
X0232662Y0064551D01*
X0231064Y0062952D02*
X0363701Y0062952D01*
X0363701Y0061354D02*
X0229465Y0061354D01*
X0227867Y0059755D02*
X0363701Y0059755D01*
X0333156Y0168454D02*
X0330444Y0168454D01*
X0329204Y0170053D02*
X0334396Y0170053D01*
X0340327Y0179596D02*
X0341283Y0179200D01*
X0342317Y0179200D01*
X0343273Y0179596D01*
X0344004Y0180327D01*
X0344400Y0181283D01*
X0344400Y0181289D01*
X0355211Y0192100D01*
X0356500Y0193389D01*
X0356500Y0247711D01*
X0355211Y0249000D01*
X0300211Y0249000D01*
X0294137Y0255074D01*
X0294350Y0255587D01*
X0294350Y0268013D01*
X0293383Y0270347D01*
X0291597Y0272133D01*
X0291500Y0272173D01*
X0291500Y0296289D01*
X0291618Y0296338D01*
X0293423Y0298144D01*
X0294401Y0300503D01*
X0294401Y0313097D01*
X0293423Y0315456D01*
X0291618Y0317262D01*
X0289258Y0318239D01*
X0286704Y0318239D01*
X0284345Y0317262D01*
X0282539Y0315456D01*
X0281561Y0313097D01*
X0281561Y0300503D01*
X0282539Y0298144D01*
X0284345Y0296338D01*
X0286704Y0295361D01*
X0287100Y0295361D01*
X0287100Y0273100D01*
X0286737Y0273100D01*
X0284403Y0272133D01*
X0282617Y0270347D01*
X0281650Y0268013D01*
X0281650Y0255587D01*
X0282617Y0253253D01*
X0284403Y0251467D01*
X0286737Y0250500D01*
X0289263Y0250500D01*
X0291544Y0251445D01*
X0298389Y0244600D01*
X0352100Y0244600D01*
X0352100Y0195211D01*
X0341289Y0184400D01*
X0341283Y0184400D01*
X0340327Y0184004D01*
X0339596Y0183273D01*
X0339200Y0182317D01*
X0339200Y0181283D01*
X0339596Y0180327D01*
X0340327Y0179596D01*
X0340279Y0179644D02*
X0225886Y0179644D01*
X0223880Y0181242D02*
X0339217Y0181242D01*
X0339417Y0182841D02*
X0225336Y0182841D01*
X0226545Y0184439D02*
X0341328Y0184439D01*
X0342926Y0186038D02*
X0227045Y0186038D01*
X0227034Y0187636D02*
X0344525Y0187636D01*
X0346123Y0189235D02*
X0226508Y0189235D01*
X0225262Y0190833D02*
X0347722Y0190833D01*
X0347596Y0192800D02*
X0349066Y0193409D01*
X0350191Y0194534D01*
X0350800Y0196004D01*
X0350800Y0202796D01*
X0350191Y0204266D01*
X0349066Y0205391D01*
X0347596Y0206000D01*
X0346004Y0206000D01*
X0345797Y0205914D01*
X0340211Y0211500D01*
X0322711Y0211500D01*
X0310800Y0223411D01*
X0310800Y0230196D01*
X0310191Y0231666D01*
X0309066Y0232791D01*
X0307596Y0233400D01*
X0306004Y0233400D01*
X0304534Y0232791D01*
X0303409Y0231666D01*
X0302800Y0230196D01*
X0302800Y0223404D01*
X0303409Y0221934D01*
X0304534Y0220809D01*
X0304783Y0220706D01*
X0305889Y0219600D01*
X0308389Y0219600D01*
X0308989Y0219000D01*
X0305211Y0219000D01*
X0300800Y0223411D01*
X0300800Y0230196D01*
X0300191Y0231666D01*
X0299066Y0232791D01*
X0297596Y0233400D01*
X0296004Y0233400D01*
X0294534Y0232791D01*
X0293409Y0231666D01*
X0292800Y0230196D01*
X0292800Y0223404D01*
X0293409Y0221934D01*
X0294534Y0220809D01*
X0296004Y0220200D01*
X0297596Y0220200D01*
X0297732Y0220257D01*
X0303389Y0214600D01*
X0308389Y0214600D01*
X0316989Y0206000D01*
X0316004Y0206000D01*
X0314534Y0205391D01*
X0313409Y0204266D01*
X0312800Y0202796D01*
X0312800Y0196004D01*
X0313409Y0194534D01*
X0314534Y0193409D01*
X0316004Y0192800D01*
X0317596Y0192800D01*
X0319066Y0193409D01*
X0320191Y0194534D01*
X0320800Y0196004D01*
X0320800Y0202796D01*
X0320191Y0204266D01*
X0319857Y0204600D01*
X0320889Y0204600D01*
X0322800Y0202689D01*
X0322800Y0196004D01*
X0323409Y0194534D01*
X0324534Y0193409D01*
X0326004Y0192800D01*
X0327596Y0192800D01*
X0329066Y0193409D01*
X0330191Y0194534D01*
X0330800Y0196004D01*
X0330800Y0202796D01*
X0330191Y0204266D01*
X0329066Y0205391D01*
X0328647Y0205565D01*
X0327711Y0206500D01*
X0325211Y0206500D01*
X0324611Y0207100D01*
X0338389Y0207100D01*
X0342800Y0202689D01*
X0342800Y0196004D01*
X0343409Y0194534D01*
X0344534Y0193409D01*
X0346004Y0192800D01*
X0347596Y0192800D01*
X0349321Y0192432D02*
X0224058Y0192432D01*
X0225956Y0194030D02*
X0273913Y0194030D01*
X0273409Y0194534D02*
X0274534Y0193409D01*
X0276004Y0192800D01*
X0277596Y0192800D01*
X0279066Y0193409D01*
X0280191Y0194534D01*
X0280800Y0196004D01*
X0280800Y0202796D01*
X0280191Y0204266D01*
X0279066Y0205391D01*
X0277596Y0206000D01*
X0276004Y0206000D01*
X0274534Y0205391D01*
X0273409Y0204266D01*
X0272800Y0202796D01*
X0272800Y0196004D01*
X0273409Y0194534D01*
X0272956Y0195629D02*
X0226619Y0195629D01*
X0226700Y0197227D02*
X0272800Y0197227D01*
X0272800Y0198826D02*
X0226265Y0198826D01*
X0225105Y0200424D02*
X0272800Y0200424D01*
X0272800Y0202023D02*
X0245597Y0202023D01*
X0247298Y0203621D02*
X0273142Y0203621D01*
X0274363Y0205220D02*
X0248897Y0205220D01*
X0250495Y0206818D02*
X0316170Y0206818D01*
X0314572Y0208417D02*
X0252094Y0208417D01*
X0253692Y0210015D02*
X0312973Y0210015D01*
X0311375Y0211614D02*
X0255291Y0211614D01*
X0256889Y0213212D02*
X0309776Y0213212D01*
X0303178Y0214811D02*
X0258488Y0214811D01*
X0260086Y0216409D02*
X0301579Y0216409D01*
X0299981Y0218008D02*
X0261685Y0218008D01*
X0263283Y0219606D02*
X0298382Y0219606D01*
X0301408Y0222803D02*
X0303049Y0222803D01*
X0303006Y0221205D02*
X0304138Y0221205D01*
X0304605Y0219606D02*
X0305882Y0219606D01*
X0306800Y0221800D02*
X0309300Y0221800D01*
X0321800Y0209300D01*
X0339300Y0209300D01*
X0346800Y0201800D01*
X0346800Y0196800D01*
X0349687Y0194030D02*
X0350919Y0194030D01*
X0350644Y0195629D02*
X0352100Y0195629D01*
X0352100Y0197227D02*
X0350800Y0197227D01*
X0350800Y0198826D02*
X0352100Y0198826D01*
X0352100Y0200424D02*
X0350800Y0200424D01*
X0350800Y0202023D02*
X0352100Y0202023D01*
X0352100Y0203621D02*
X0350458Y0203621D01*
X0349237Y0205220D02*
X0352100Y0205220D01*
X0352100Y0206818D02*
X0344893Y0206818D01*
X0343294Y0208417D02*
X0352100Y0208417D01*
X0352100Y0210015D02*
X0341696Y0210015D01*
X0338670Y0206818D02*
X0324893Y0206818D01*
X0324300Y0204300D02*
X0321800Y0206800D01*
X0319300Y0206800D01*
X0309300Y0216800D01*
X0304300Y0216800D01*
X0296800Y0224300D01*
X0296800Y0226800D01*
X0300800Y0227599D02*
X0302800Y0227599D01*
X0302800Y0226001D02*
X0300800Y0226001D01*
X0300800Y0224402D02*
X0302800Y0224402D01*
X0302800Y0229198D02*
X0300800Y0229198D01*
X0300551Y0230796D02*
X0303049Y0230796D01*
X0304138Y0232395D02*
X0299462Y0232395D01*
X0294138Y0232395D02*
X0289462Y0232395D01*
X0289066Y0232791D02*
X0287596Y0233400D01*
X0286004Y0233400D01*
X0284534Y0232791D01*
X0283409Y0231666D01*
X0282800Y0230196D01*
X0282800Y0223404D01*
X0283409Y0221934D01*
X0284534Y0220809D01*
X0286004Y0220200D01*
X0287596Y0220200D01*
X0289066Y0220809D01*
X0290191Y0221934D01*
X0290800Y0223404D01*
X0290800Y0230196D01*
X0290191Y0231666D01*
X0289066Y0232791D01*
X0290551Y0230796D02*
X0293049Y0230796D01*
X0292800Y0229198D02*
X0290800Y0229198D01*
X0290800Y0227599D02*
X0292800Y0227599D01*
X0292800Y0226001D02*
X0290800Y0226001D01*
X0290800Y0224402D02*
X0292800Y0224402D01*
X0293049Y0222803D02*
X0290551Y0222803D01*
X0289462Y0221205D02*
X0294138Y0221205D01*
X0284138Y0221205D02*
X0279462Y0221205D01*
X0279066Y0220809D02*
X0280191Y0221934D01*
X0280800Y0223404D01*
X0280800Y0230196D01*
X0280191Y0231666D01*
X0279066Y0232791D01*
X0277596Y0233400D01*
X0276004Y0233400D01*
X0274534Y0232791D01*
X0273409Y0231666D01*
X0272800Y0230196D01*
X0272800Y0223404D01*
X0273409Y0221934D01*
X0274534Y0220809D01*
X0276004Y0220200D01*
X0277596Y0220200D01*
X0279066Y0220809D01*
X0280551Y0222803D02*
X0283049Y0222803D01*
X0282800Y0224402D02*
X0280800Y0224402D01*
X0280800Y0226001D02*
X0282800Y0226001D01*
X0282800Y0227599D02*
X0280800Y0227599D01*
X0280800Y0229198D02*
X0282800Y0229198D01*
X0283049Y0230796D02*
X0280551Y0230796D01*
X0279462Y0232395D02*
X0284138Y0232395D01*
X0274138Y0232395D02*
X0269462Y0232395D01*
X0270551Y0230796D02*
X0273049Y0230796D01*
X0272800Y0229198D02*
X0270800Y0229198D01*
X0270800Y0227599D02*
X0272800Y0227599D01*
X0272800Y0226001D02*
X0270800Y0226001D01*
X0270800Y0224402D02*
X0272800Y0224402D01*
X0273049Y0222803D02*
X0270551Y0222803D01*
X0269462Y0221205D02*
X0274138Y0221205D01*
X0263049Y0230796D02*
X0254198Y0230796D01*
X0255506Y0232395D02*
X0264138Y0232395D01*
X0257104Y0233993D02*
X0308996Y0233993D01*
X0309462Y0232395D02*
X0310594Y0232395D01*
X0310551Y0230796D02*
X0312193Y0230796D01*
X0312800Y0229198D02*
X0310800Y0229198D01*
X0310800Y0227599D02*
X0312800Y0227599D01*
X0312800Y0226001D02*
X0310800Y0226001D01*
X0310800Y0224402D02*
X0312800Y0224402D01*
X0313049Y0222803D02*
X0311408Y0222803D01*
X0313006Y0221205D02*
X0314138Y0221205D01*
X0314605Y0219606D02*
X0352100Y0219606D01*
X0352100Y0218008D02*
X0316203Y0218008D01*
X0317802Y0216409D02*
X0352100Y0216409D01*
X0352100Y0214811D02*
X0319400Y0214811D01*
X0320999Y0213212D02*
X0352100Y0213212D01*
X0352100Y0211614D02*
X0322597Y0211614D01*
X0324300Y0204300D02*
X0326800Y0204300D01*
X0326800Y0196800D01*
X0329687Y0194030D02*
X0333913Y0194030D01*
X0333409Y0194534D02*
X0334534Y0193409D01*
X0336004Y0192800D01*
X0337596Y0192800D01*
X0339066Y0193409D01*
X0340191Y0194534D01*
X0340800Y0196004D01*
X0340800Y0202796D01*
X0340191Y0204266D01*
X0339066Y0205391D01*
X0337596Y0206000D01*
X0336004Y0206000D01*
X0334534Y0205391D01*
X0333409Y0204266D01*
X0332800Y0202796D01*
X0332800Y0196004D01*
X0333409Y0194534D01*
X0332956Y0195629D02*
X0330644Y0195629D01*
X0330800Y0197227D02*
X0332800Y0197227D01*
X0332800Y0198826D02*
X0330800Y0198826D01*
X0330800Y0200424D02*
X0332800Y0200424D01*
X0332800Y0202023D02*
X0330800Y0202023D01*
X0330458Y0203621D02*
X0333142Y0203621D01*
X0334363Y0205220D02*
X0329237Y0205220D01*
X0322800Y0202023D02*
X0320800Y0202023D01*
X0320800Y0200424D02*
X0322800Y0200424D01*
X0322800Y0198826D02*
X0320800Y0198826D01*
X0320800Y0197227D02*
X0322800Y0197227D01*
X0322956Y0195629D02*
X0320644Y0195629D01*
X0319687Y0194030D02*
X0323913Y0194030D01*
X0321867Y0203621D02*
X0320458Y0203621D01*
X0314363Y0205220D02*
X0309237Y0205220D01*
X0309066Y0205391D02*
X0307596Y0206000D01*
X0306004Y0206000D01*
X0304534Y0205391D01*
X0303409Y0204266D01*
X0302800Y0202796D01*
X0302800Y0196004D01*
X0303409Y0194534D01*
X0304534Y0193409D01*
X0306004Y0192800D01*
X0307596Y0192800D01*
X0309066Y0193409D01*
X0310191Y0194534D01*
X0310800Y0196004D01*
X0310800Y0202796D01*
X0310191Y0204266D01*
X0309066Y0205391D01*
X0310458Y0203621D02*
X0313142Y0203621D01*
X0312800Y0202023D02*
X0310800Y0202023D01*
X0310800Y0200424D02*
X0312800Y0200424D01*
X0312800Y0198826D02*
X0310800Y0198826D01*
X0310800Y0197227D02*
X0312800Y0197227D01*
X0312956Y0195629D02*
X0310644Y0195629D01*
X0309687Y0194030D02*
X0313913Y0194030D01*
X0303913Y0194030D02*
X0299687Y0194030D01*
X0300191Y0194534D02*
X0300800Y0196004D01*
X0300800Y0202796D01*
X0300191Y0204266D01*
X0299066Y0205391D01*
X0297596Y0206000D01*
X0296004Y0206000D01*
X0294534Y0205391D01*
X0293409Y0204266D01*
X0292800Y0202796D01*
X0292800Y0196004D01*
X0293409Y0194534D01*
X0294534Y0193409D01*
X0296004Y0192800D01*
X0297596Y0192800D01*
X0299066Y0193409D01*
X0300191Y0194534D01*
X0300644Y0195629D02*
X0302956Y0195629D01*
X0302800Y0197227D02*
X0300800Y0197227D01*
X0300800Y0198826D02*
X0302800Y0198826D01*
X0302800Y0200424D02*
X0300800Y0200424D01*
X0300800Y0202023D02*
X0302800Y0202023D01*
X0303142Y0203621D02*
X0300458Y0203621D01*
X0299237Y0205220D02*
X0304363Y0205220D01*
X0294363Y0205220D02*
X0289237Y0205220D01*
X0289066Y0205391D02*
X0287596Y0206000D01*
X0286004Y0206000D01*
X0284534Y0205391D01*
X0283409Y0204266D01*
X0282800Y0202796D01*
X0282800Y0196004D01*
X0283409Y0194534D01*
X0284534Y0193409D01*
X0286004Y0192800D01*
X0287596Y0192800D01*
X0289066Y0193409D01*
X0290191Y0194534D01*
X0290800Y0196004D01*
X0290800Y0202796D01*
X0290191Y0204266D01*
X0289066Y0205391D01*
X0290458Y0203621D02*
X0293142Y0203621D01*
X0292800Y0202023D02*
X0290800Y0202023D01*
X0290800Y0200424D02*
X0292800Y0200424D01*
X0292800Y0198826D02*
X0290800Y0198826D01*
X0290800Y0197227D02*
X0292800Y0197227D01*
X0292956Y0195629D02*
X0290644Y0195629D01*
X0289687Y0194030D02*
X0293913Y0194030D01*
X0283913Y0194030D02*
X0279687Y0194030D01*
X0280644Y0195629D02*
X0282956Y0195629D01*
X0282800Y0197227D02*
X0280800Y0197227D01*
X0280800Y0198826D02*
X0282800Y0198826D01*
X0282800Y0200424D02*
X0280800Y0200424D01*
X0280800Y0202023D02*
X0282800Y0202023D01*
X0283142Y0203621D02*
X0280458Y0203621D01*
X0279237Y0205220D02*
X0284363Y0205220D01*
X0306800Y0221800D02*
X0306800Y0226800D01*
X0316800Y0226800D02*
X0316800Y0229300D01*
X0309300Y0236800D01*
X0256800Y0236800D01*
X0251800Y0231800D01*
X0255537Y0250500D02*
X0258063Y0250500D01*
X0260397Y0251467D01*
X0262183Y0253253D01*
X0263150Y0255587D01*
X0263150Y0268013D01*
X0262183Y0270347D01*
X0260397Y0272133D01*
X0258063Y0273100D01*
X0255537Y0273100D01*
X0253203Y0272133D01*
X0251417Y0270347D01*
X0250450Y0268013D01*
X0250450Y0255587D01*
X0251417Y0253253D01*
X0253203Y0251467D01*
X0255537Y0250500D01*
X0253093Y0251577D02*
X0244907Y0251577D01*
X0244797Y0251467D02*
X0246583Y0253253D01*
X0247550Y0255587D01*
X0247550Y0268013D01*
X0246583Y0270347D01*
X0244797Y0272133D01*
X0242463Y0273100D01*
X0241500Y0273100D01*
X0241500Y0295361D01*
X0242486Y0295361D01*
X0244846Y0296338D01*
X0246652Y0298144D01*
X0247629Y0300503D01*
X0247629Y0313097D01*
X0246652Y0315456D01*
X0244846Y0317262D01*
X0242486Y0318239D01*
X0239932Y0318239D01*
X0237573Y0317262D01*
X0235767Y0315456D01*
X0234790Y0313097D01*
X0234790Y0300503D01*
X0235767Y0298144D01*
X0237100Y0296811D01*
X0237100Y0271630D01*
X0235817Y0270347D01*
X0234850Y0268013D01*
X0234850Y0255587D01*
X0235817Y0253253D01*
X0237603Y0251467D01*
X0239937Y0250500D01*
X0242463Y0250500D01*
X0244797Y0251467D01*
X0246505Y0253175D02*
X0251495Y0253175D01*
X0250787Y0254774D02*
X0247213Y0254774D01*
X0247550Y0256372D02*
X0250450Y0256372D01*
X0250450Y0257971D02*
X0247550Y0257971D01*
X0247550Y0259569D02*
X0250450Y0259569D01*
X0250450Y0261168D02*
X0247550Y0261168D01*
X0247550Y0262766D02*
X0250450Y0262766D01*
X0250450Y0264365D02*
X0247550Y0264365D01*
X0247550Y0265963D02*
X0250450Y0265963D01*
X0250450Y0267562D02*
X0247550Y0267562D01*
X0247075Y0269160D02*
X0250925Y0269160D01*
X0251829Y0270759D02*
X0246171Y0270759D01*
X0244256Y0272357D02*
X0253744Y0272357D01*
X0259856Y0272357D02*
X0269344Y0272357D01*
X0268803Y0272133D02*
X0271137Y0273100D01*
X0272100Y0273100D01*
X0272100Y0295361D01*
X0271114Y0295361D01*
X0268754Y0296338D01*
X0266948Y0298144D01*
X0265971Y0300503D01*
X0265971Y0313097D01*
X0266948Y0315456D01*
X0268754Y0317262D01*
X0271114Y0318239D01*
X0273668Y0318239D01*
X0276027Y0317262D01*
X0277833Y0315456D01*
X0278810Y0313097D01*
X0278810Y0300503D01*
X0277833Y0298144D01*
X0276500Y0296811D01*
X0276500Y0271630D01*
X0277783Y0270347D01*
X0278750Y0268013D01*
X0278750Y0255587D01*
X0277783Y0253253D01*
X0275997Y0251467D01*
X0273663Y0250500D01*
X0271137Y0250500D01*
X0268803Y0251467D01*
X0267017Y0253253D01*
X0266050Y0255587D01*
X0266050Y0268013D01*
X0267017Y0270347D01*
X0268803Y0272133D01*
X0267429Y0270759D02*
X0261771Y0270759D01*
X0262675Y0269160D02*
X0266525Y0269160D01*
X0266050Y0267562D02*
X0263150Y0267562D01*
X0263150Y0265963D02*
X0266050Y0265963D01*
X0266050Y0264365D02*
X0263150Y0264365D01*
X0263150Y0262766D02*
X0266050Y0262766D01*
X0266050Y0261168D02*
X0263150Y0261168D01*
X0263150Y0259569D02*
X0266050Y0259569D01*
X0266050Y0257971D02*
X0263150Y0257971D01*
X0263150Y0256372D02*
X0266050Y0256372D01*
X0266387Y0254774D02*
X0262813Y0254774D01*
X0262105Y0253175D02*
X0267095Y0253175D01*
X0268693Y0251577D02*
X0260507Y0251577D01*
X0272400Y0261800D02*
X0274300Y0261800D01*
X0274300Y0306800D01*
X0272391Y0306800D01*
X0265971Y0307525D02*
X0263220Y0307525D01*
X0263220Y0309123D02*
X0265971Y0309123D01*
X0265971Y0310722D02*
X0263220Y0310722D01*
X0263220Y0312320D02*
X0265971Y0312320D01*
X0266311Y0313919D02*
X0262879Y0313919D01*
X0263220Y0313097D02*
X0262242Y0315456D01*
X0260436Y0317262D01*
X0258077Y0318239D01*
X0255523Y0318239D01*
X0253164Y0317262D01*
X0251358Y0315456D01*
X0250380Y0313097D01*
X0250380Y0300503D01*
X0251358Y0298144D01*
X0253164Y0296338D01*
X0255523Y0295361D01*
X0258077Y0295361D01*
X0260436Y0296338D01*
X0262242Y0298144D01*
X0263220Y0300503D01*
X0263220Y0313097D01*
X0262181Y0315517D02*
X0267009Y0315517D01*
X0268608Y0317116D02*
X0260583Y0317116D01*
X0253017Y0317116D02*
X0244992Y0317116D01*
X0246591Y0315517D02*
X0251419Y0315517D01*
X0250721Y0313919D02*
X0247289Y0313919D01*
X0247629Y0312320D02*
X0250380Y0312320D01*
X0250380Y0310722D02*
X0247629Y0310722D01*
X0247629Y0309123D02*
X0250380Y0309123D01*
X0250380Y0307525D02*
X0247629Y0307525D01*
X0247629Y0305926D02*
X0250380Y0305926D01*
X0250380Y0304328D02*
X0247629Y0304328D01*
X0247629Y0302729D02*
X0250380Y0302729D01*
X0250380Y0301131D02*
X0247629Y0301131D01*
X0247227Y0299532D02*
X0250783Y0299532D01*
X0251568Y0297934D02*
X0246441Y0297934D01*
X0244839Y0296335D02*
X0253171Y0296335D01*
X0260429Y0296335D02*
X0268761Y0296335D01*
X0267159Y0297934D02*
X0262032Y0297934D01*
X0262817Y0299532D02*
X0266373Y0299532D01*
X0265971Y0301131D02*
X0263220Y0301131D01*
X0263220Y0302729D02*
X0265971Y0302729D01*
X0265971Y0304328D02*
X0263220Y0304328D01*
X0263220Y0305926D02*
X0265971Y0305926D01*
X0272100Y0294737D02*
X0241500Y0294737D01*
X0241500Y0293138D02*
X0272100Y0293138D01*
X0272100Y0291539D02*
X0241500Y0291539D01*
X0241500Y0289941D02*
X0272100Y0289941D01*
X0272100Y0288342D02*
X0241500Y0288342D01*
X0241500Y0286744D02*
X0272100Y0286744D01*
X0272100Y0285145D02*
X0241500Y0285145D01*
X0241500Y0283547D02*
X0272100Y0283547D01*
X0272100Y0281948D02*
X0241500Y0281948D01*
X0241500Y0280350D02*
X0272100Y0280350D01*
X0272100Y0278751D02*
X0241500Y0278751D01*
X0241500Y0277153D02*
X0272100Y0277153D01*
X0272100Y0275554D02*
X0241500Y0275554D01*
X0241500Y0273956D02*
X0272100Y0273956D01*
X0276500Y0273956D02*
X0287100Y0273956D01*
X0287100Y0275554D02*
X0276500Y0275554D01*
X0276500Y0277153D02*
X0287100Y0277153D01*
X0287100Y0278751D02*
X0276500Y0278751D01*
X0276500Y0280350D02*
X0287100Y0280350D01*
X0287100Y0281948D02*
X0276500Y0281948D01*
X0276500Y0283547D02*
X0287100Y0283547D01*
X0287100Y0285145D02*
X0276500Y0285145D01*
X0276500Y0286744D02*
X0287100Y0286744D01*
X0287100Y0288342D02*
X0276500Y0288342D01*
X0276500Y0289941D02*
X0287100Y0289941D01*
X0287100Y0291539D02*
X0276500Y0291539D01*
X0276500Y0293138D02*
X0287100Y0293138D01*
X0287100Y0294737D02*
X0276500Y0294737D01*
X0276500Y0296335D02*
X0284352Y0296335D01*
X0282749Y0297934D02*
X0277623Y0297934D01*
X0278408Y0299532D02*
X0281964Y0299532D01*
X0281561Y0301131D02*
X0278810Y0301131D01*
X0278810Y0302729D02*
X0281561Y0302729D01*
X0281561Y0304328D02*
X0278810Y0304328D01*
X0278810Y0305926D02*
X0281561Y0305926D01*
X0281561Y0307525D02*
X0278810Y0307525D01*
X0278810Y0309123D02*
X0281561Y0309123D01*
X0281561Y0310722D02*
X0278810Y0310722D01*
X0278810Y0312320D02*
X0281561Y0312320D01*
X0281902Y0313919D02*
X0278470Y0313919D01*
X0277772Y0315517D02*
X0282600Y0315517D01*
X0284198Y0317116D02*
X0276173Y0317116D01*
X0287981Y0306800D02*
X0289300Y0306800D01*
X0289300Y0261800D01*
X0288000Y0261800D01*
X0289300Y0261800D02*
X0289300Y0256800D01*
X0299300Y0246800D01*
X0354300Y0246800D01*
X0354300Y0194300D01*
X0341800Y0181800D01*
X0343321Y0179644D02*
X0363701Y0179644D01*
X0363701Y0181242D02*
X0344383Y0181242D01*
X0345952Y0182841D02*
X0363701Y0182841D01*
X0363701Y0184439D02*
X0347550Y0184439D01*
X0349149Y0186038D02*
X0363701Y0186038D01*
X0363701Y0187636D02*
X0350748Y0187636D01*
X0352346Y0189235D02*
X0363701Y0189235D01*
X0363701Y0190833D02*
X0353945Y0190833D01*
X0355543Y0192432D02*
X0363701Y0192432D01*
X0363701Y0194030D02*
X0356500Y0194030D01*
X0356500Y0195629D02*
X0363701Y0195629D01*
X0363701Y0197227D02*
X0356500Y0197227D01*
X0356500Y0198826D02*
X0363701Y0198826D01*
X0363701Y0200424D02*
X0356500Y0200424D01*
X0356500Y0202023D02*
X0363701Y0202023D01*
X0363701Y0203621D02*
X0356500Y0203621D01*
X0356500Y0205220D02*
X0363701Y0205220D01*
X0363701Y0206818D02*
X0356500Y0206818D01*
X0356500Y0208417D02*
X0363701Y0208417D01*
X0363701Y0210015D02*
X0356500Y0210015D01*
X0356500Y0211614D02*
X0363701Y0211614D01*
X0363701Y0213212D02*
X0356500Y0213212D01*
X0356500Y0214811D02*
X0363701Y0214811D01*
X0363701Y0216409D02*
X0356500Y0216409D01*
X0356500Y0218008D02*
X0363701Y0218008D01*
X0363701Y0219606D02*
X0356500Y0219606D01*
X0356500Y0221205D02*
X0363701Y0221205D01*
X0363701Y0222803D02*
X0356500Y0222803D01*
X0356500Y0224402D02*
X0363701Y0224402D01*
X0363701Y0226001D02*
X0356500Y0226001D01*
X0356500Y0227599D02*
X0363701Y0227599D01*
X0363701Y0229198D02*
X0356500Y0229198D01*
X0356500Y0230796D02*
X0363701Y0230796D01*
X0363701Y0232395D02*
X0356500Y0232395D01*
X0356500Y0233993D02*
X0363701Y0233993D01*
X0363701Y0235592D02*
X0356500Y0235592D01*
X0356500Y0237190D02*
X0363701Y0237190D01*
X0363701Y0238789D02*
X0356500Y0238789D01*
X0356500Y0240387D02*
X0363701Y0240387D01*
X0363701Y0241986D02*
X0356500Y0241986D01*
X0356500Y0243584D02*
X0363701Y0243584D01*
X0363701Y0245183D02*
X0356500Y0245183D01*
X0356500Y0246781D02*
X0363701Y0246781D01*
X0363701Y0248380D02*
X0355832Y0248380D01*
X0353997Y0251467D02*
X0355783Y0253253D01*
X0356750Y0255587D01*
X0356750Y0268013D01*
X0355783Y0270347D01*
X0353997Y0272133D01*
X0351663Y0273100D01*
X0351500Y0273100D01*
X0351500Y0295361D01*
X0351620Y0295361D01*
X0353980Y0296338D01*
X0355786Y0298144D01*
X0356763Y0300503D01*
X0356763Y0313097D01*
X0355786Y0315456D01*
X0353980Y0317262D01*
X0351620Y0318239D01*
X0349066Y0318239D01*
X0346707Y0317262D01*
X0344901Y0315456D01*
X0343924Y0313097D01*
X0343924Y0300503D01*
X0344901Y0298144D01*
X0346707Y0296338D01*
X0347100Y0296175D01*
X0347100Y0272256D01*
X0346803Y0272133D01*
X0345017Y0270347D01*
X0344050Y0268013D01*
X0344050Y0255587D01*
X0345017Y0253253D01*
X0346803Y0251467D01*
X0349137Y0250500D01*
X0351663Y0250500D01*
X0353997Y0251467D01*
X0354107Y0251577D02*
X0363701Y0251577D01*
X0363701Y0253175D02*
X0355705Y0253175D01*
X0356413Y0254774D02*
X0363701Y0254774D01*
X0363701Y0256372D02*
X0356750Y0256372D01*
X0356750Y0257971D02*
X0363701Y0257971D01*
X0363701Y0259569D02*
X0356750Y0259569D01*
X0356750Y0261168D02*
X0363701Y0261168D01*
X0363701Y0262766D02*
X0356750Y0262766D01*
X0356750Y0264365D02*
X0363701Y0264365D01*
X0363701Y0265963D02*
X0356750Y0265963D01*
X0356750Y0267562D02*
X0363701Y0267562D01*
X0363701Y0269160D02*
X0356275Y0269160D01*
X0355371Y0270759D02*
X0363701Y0270759D01*
X0363701Y0272357D02*
X0353456Y0272357D01*
X0351500Y0273956D02*
X0363701Y0273956D01*
X0363701Y0275554D02*
X0351500Y0275554D01*
X0351500Y0277153D02*
X0363701Y0277153D01*
X0363701Y0278751D02*
X0351500Y0278751D01*
X0351500Y0280350D02*
X0363701Y0280350D01*
X0363701Y0281948D02*
X0351500Y0281948D01*
X0351500Y0283547D02*
X0363701Y0283547D01*
X0363701Y0285145D02*
X0351500Y0285145D01*
X0351500Y0286744D02*
X0363701Y0286744D01*
X0363701Y0288342D02*
X0351500Y0288342D01*
X0351500Y0289941D02*
X0363701Y0289941D01*
X0363701Y0291539D02*
X0351500Y0291539D01*
X0351500Y0293138D02*
X0363701Y0293138D01*
X0363701Y0294737D02*
X0351500Y0294737D01*
X0353973Y0296335D02*
X0363701Y0296335D01*
X0363701Y0297934D02*
X0355575Y0297934D01*
X0356361Y0299532D02*
X0363701Y0299532D01*
X0363701Y0301131D02*
X0356763Y0301131D01*
X0356763Y0302729D02*
X0363701Y0302729D01*
X0363701Y0304328D02*
X0356763Y0304328D01*
X0356763Y0305926D02*
X0363701Y0305926D01*
X0363701Y0307525D02*
X0356763Y0307525D01*
X0356763Y0309123D02*
X0363701Y0309123D01*
X0363701Y0310722D02*
X0356763Y0310722D01*
X0356763Y0312320D02*
X0363701Y0312320D01*
X0363701Y0313919D02*
X0356423Y0313919D01*
X0355725Y0315517D02*
X0363701Y0315517D01*
X0363701Y0317116D02*
X0354126Y0317116D01*
X0346560Y0317116D02*
X0338536Y0317116D01*
X0338389Y0317262D02*
X0336030Y0318239D01*
X0333476Y0318239D01*
X0331116Y0317262D01*
X0329310Y0315456D01*
X0328333Y0313097D01*
X0328333Y0300503D01*
X0329310Y0298144D01*
X0331116Y0296338D01*
X0333476Y0295361D01*
X0334600Y0295361D01*
X0334600Y0273100D01*
X0333537Y0273100D01*
X0331203Y0272133D01*
X0329417Y0270347D01*
X0328450Y0268013D01*
X0328450Y0255587D01*
X0329417Y0253253D01*
X0331203Y0251467D01*
X0333537Y0250500D01*
X0336063Y0250500D01*
X0338397Y0251467D01*
X0340183Y0253253D01*
X0341150Y0255587D01*
X0341150Y0268013D01*
X0340183Y0270347D01*
X0339000Y0271530D01*
X0339000Y0296949D01*
X0340195Y0298144D01*
X0341172Y0300503D01*
X0341172Y0313097D01*
X0340195Y0315456D01*
X0338389Y0317262D01*
X0340134Y0315517D02*
X0344962Y0315517D01*
X0344264Y0313919D02*
X0340832Y0313919D01*
X0341172Y0312320D02*
X0343924Y0312320D01*
X0343924Y0310722D02*
X0341172Y0310722D01*
X0341172Y0309123D02*
X0343924Y0309123D01*
X0343924Y0307525D02*
X0341172Y0307525D01*
X0341172Y0305926D02*
X0343924Y0305926D01*
X0343924Y0304328D02*
X0341172Y0304328D01*
X0341172Y0302729D02*
X0343924Y0302729D01*
X0343924Y0301131D02*
X0341172Y0301131D01*
X0340770Y0299532D02*
X0344326Y0299532D01*
X0345111Y0297934D02*
X0339985Y0297934D01*
X0339000Y0296335D02*
X0346714Y0296335D01*
X0347100Y0294737D02*
X0339000Y0294737D01*
X0339000Y0293138D02*
X0347100Y0293138D01*
X0347100Y0291539D02*
X0339000Y0291539D01*
X0339000Y0289941D02*
X0347100Y0289941D01*
X0347100Y0288342D02*
X0339000Y0288342D01*
X0339000Y0286744D02*
X0347100Y0286744D01*
X0347100Y0285145D02*
X0339000Y0285145D01*
X0339000Y0283547D02*
X0347100Y0283547D01*
X0347100Y0281948D02*
X0339000Y0281948D01*
X0339000Y0280350D02*
X0347100Y0280350D01*
X0347100Y0278751D02*
X0339000Y0278751D01*
X0339000Y0277153D02*
X0347100Y0277153D01*
X0347100Y0275554D02*
X0339000Y0275554D01*
X0339000Y0273956D02*
X0347100Y0273956D01*
X0347100Y0272357D02*
X0339000Y0272357D01*
X0339771Y0270759D02*
X0345429Y0270759D01*
X0344525Y0269160D02*
X0340675Y0269160D01*
X0341150Y0267562D02*
X0344050Y0267562D01*
X0344050Y0265963D02*
X0341150Y0265963D01*
X0341150Y0264365D02*
X0344050Y0264365D01*
X0344050Y0262766D02*
X0341150Y0262766D01*
X0341150Y0261168D02*
X0344050Y0261168D01*
X0344050Y0259569D02*
X0341150Y0259569D01*
X0341150Y0257971D02*
X0344050Y0257971D01*
X0344050Y0256372D02*
X0341150Y0256372D01*
X0340813Y0254774D02*
X0344387Y0254774D01*
X0345095Y0253175D02*
X0340105Y0253175D01*
X0338507Y0251577D02*
X0346693Y0251577D01*
X0352100Y0243584D02*
X0021500Y0243584D01*
X0021500Y0241986D02*
X0352100Y0241986D01*
X0352100Y0240387D02*
X0021500Y0240387D01*
X0021500Y0238789D02*
X0030112Y0238789D01*
X0029200Y0237190D02*
X0021500Y0237190D01*
X0021500Y0235592D02*
X0029200Y0235592D01*
X0029200Y0233993D02*
X0021500Y0233993D01*
X0021500Y0232395D02*
X0029138Y0232395D01*
X0028049Y0230796D02*
X0021500Y0230796D01*
X0021500Y0229198D02*
X0027800Y0229198D01*
X0027800Y0227599D02*
X0021500Y0227599D01*
X0021500Y0226001D02*
X0027800Y0226001D01*
X0027800Y0224402D02*
X0021500Y0224402D01*
X0021500Y0222803D02*
X0028049Y0222803D01*
X0029138Y0221205D02*
X0021500Y0221205D01*
X0034237Y0205220D02*
X0039363Y0205220D01*
X0038142Y0203621D02*
X0035458Y0203621D01*
X0035800Y0202023D02*
X0037800Y0202023D01*
X0037800Y0200424D02*
X0035800Y0200424D01*
X0035800Y0198826D02*
X0037800Y0198826D01*
X0037800Y0197227D02*
X0035800Y0197227D01*
X0035644Y0195629D02*
X0037956Y0195629D01*
X0038913Y0194030D02*
X0034687Y0194030D01*
X0041800Y0196800D02*
X0041800Y0226800D01*
X0045800Y0227599D02*
X0047800Y0227599D01*
X0047800Y0226001D02*
X0045800Y0226001D01*
X0045800Y0224402D02*
X0047800Y0224402D01*
X0048049Y0222803D02*
X0045551Y0222803D01*
X0045800Y0229198D02*
X0047800Y0229198D01*
X0048049Y0230796D02*
X0045551Y0230796D01*
X0044462Y0232395D02*
X0049138Y0232395D01*
X0054462Y0232395D02*
X0059138Y0232395D01*
X0058049Y0230796D02*
X0055551Y0230796D01*
X0055800Y0229198D02*
X0057800Y0229198D01*
X0071800Y0226800D02*
X0071800Y0224300D01*
X0079300Y0216800D01*
X0101800Y0216800D01*
X0101800Y0196800D01*
X0098913Y0194030D02*
X0094687Y0194030D01*
X0095644Y0195629D02*
X0097956Y0195629D01*
X0097800Y0197227D02*
X0095800Y0197227D01*
X0095800Y0198826D02*
X0097800Y0198826D01*
X0097800Y0200424D02*
X0095800Y0200424D01*
X0095800Y0202023D02*
X0097800Y0202023D01*
X0098142Y0203621D02*
X0095458Y0203621D01*
X0094237Y0205220D02*
X0099363Y0205220D01*
X0104000Y0214811D02*
X0146700Y0214811D01*
X0148298Y0216409D02*
X0104000Y0216409D01*
X0099138Y0221205D02*
X0094462Y0221205D01*
X0094066Y0220809D02*
X0095191Y0221934D01*
X0095800Y0223404D01*
X0095800Y0230196D01*
X0095191Y0231666D01*
X0094066Y0232791D01*
X0092596Y0233400D01*
X0091004Y0233400D01*
X0089534Y0232791D01*
X0088409Y0231666D01*
X0087800Y0230196D01*
X0087800Y0223404D01*
X0088409Y0221934D01*
X0089534Y0220809D01*
X0091004Y0220200D01*
X0092596Y0220200D01*
X0094066Y0220809D01*
X0095551Y0222803D02*
X0098049Y0222803D01*
X0097800Y0224402D02*
X0095800Y0224402D01*
X0095800Y0226001D02*
X0097800Y0226001D01*
X0097800Y0227599D02*
X0095800Y0227599D01*
X0095800Y0229198D02*
X0097800Y0229198D01*
X0098049Y0230796D02*
X0095551Y0230796D01*
X0094462Y0232395D02*
X0099138Y0232395D01*
X0089138Y0232395D02*
X0084462Y0232395D01*
X0085551Y0230796D02*
X0088049Y0230796D01*
X0087800Y0229198D02*
X0085800Y0229198D01*
X0085800Y0227599D02*
X0087800Y0227599D01*
X0087800Y0226001D02*
X0085800Y0226001D01*
X0085800Y0224402D02*
X0087800Y0224402D01*
X0088049Y0222803D02*
X0085551Y0222803D01*
X0084462Y0221205D02*
X0089138Y0221205D01*
X0079600Y0211614D02*
X0044000Y0211614D01*
X0044000Y0210015D02*
X0079600Y0210015D01*
X0079600Y0208417D02*
X0044000Y0208417D01*
X0044000Y0206818D02*
X0079600Y0206818D01*
X0079363Y0205220D02*
X0074237Y0205220D01*
X0074066Y0205391D02*
X0072596Y0206000D01*
X0071004Y0206000D01*
X0069534Y0205391D01*
X0068409Y0204266D01*
X0067800Y0202796D01*
X0067800Y0196004D01*
X0068409Y0194534D01*
X0069534Y0193409D01*
X0071004Y0192800D01*
X0072596Y0192800D01*
X0074066Y0193409D01*
X0075191Y0194534D01*
X0075800Y0196004D01*
X0075800Y0202796D01*
X0075191Y0204266D01*
X0074066Y0205391D01*
X0075458Y0203621D02*
X0078142Y0203621D01*
X0077800Y0202023D02*
X0075800Y0202023D01*
X0075800Y0200424D02*
X0077800Y0200424D01*
X0077800Y0198826D02*
X0075800Y0198826D01*
X0075800Y0197227D02*
X0077800Y0197227D01*
X0077956Y0195629D02*
X0075644Y0195629D01*
X0074687Y0194030D02*
X0078913Y0194030D01*
X0083623Y0189235D02*
X0021500Y0189235D01*
X0021500Y0190833D02*
X0085222Y0190833D01*
X0086800Y0189300D02*
X0124300Y0189300D01*
X0166800Y0231800D01*
X0154521Y0216409D02*
X0198514Y0216409D01*
X0200112Y0214811D02*
X0152922Y0214811D01*
X0151324Y0213212D02*
X0201711Y0213212D01*
X0203309Y0211614D02*
X0149725Y0211614D01*
X0148127Y0210015D02*
X0204908Y0210015D01*
X0206506Y0208417D02*
X0146528Y0208417D01*
X0144930Y0206818D02*
X0208105Y0206818D01*
X0208737Y0250500D02*
X0211263Y0250500D01*
X0213597Y0251467D01*
X0215383Y0253253D01*
X0216350Y0255587D01*
X0216350Y0268013D01*
X0215383Y0270347D01*
X0213597Y0272133D01*
X0211500Y0273002D01*
X0211500Y0295441D01*
X0213665Y0296338D01*
X0215471Y0298144D01*
X0216448Y0300503D01*
X0216448Y0313097D01*
X0215471Y0315456D01*
X0213665Y0317262D01*
X0211305Y0318239D01*
X0208751Y0318239D01*
X0206392Y0317262D01*
X0204586Y0315456D01*
X0203609Y0313097D01*
X0203609Y0300503D01*
X0204586Y0298144D01*
X0206392Y0296338D01*
X0207100Y0296045D01*
X0207100Y0272422D01*
X0206403Y0272133D01*
X0204617Y0270347D01*
X0203650Y0268013D01*
X0203650Y0255587D01*
X0204617Y0253253D01*
X0206403Y0251467D01*
X0208737Y0250500D01*
X0206293Y0251577D02*
X0198107Y0251577D01*
X0197997Y0251467D02*
X0199783Y0253253D01*
X0200750Y0255587D01*
X0200750Y0268013D01*
X0199783Y0270347D01*
X0199000Y0271130D01*
X0199000Y0297264D01*
X0199880Y0298144D01*
X0200857Y0300503D01*
X0200857Y0313097D01*
X0199880Y0315456D01*
X0198074Y0317262D01*
X0195715Y0318239D01*
X0193161Y0318239D01*
X0190801Y0317262D01*
X0188995Y0315456D01*
X0188018Y0313097D01*
X0188018Y0300503D01*
X0188995Y0298144D01*
X0190801Y0296338D01*
X0193161Y0295361D01*
X0194600Y0295361D01*
X0194600Y0273100D01*
X0193137Y0273100D01*
X0190803Y0272133D01*
X0189017Y0270347D01*
X0188050Y0268013D01*
X0188050Y0255587D01*
X0189017Y0253253D01*
X0190803Y0251467D01*
X0193137Y0250500D01*
X0195663Y0250500D01*
X0197997Y0251467D01*
X0199705Y0253175D02*
X0204695Y0253175D01*
X0203987Y0254774D02*
X0200413Y0254774D01*
X0200750Y0256372D02*
X0203650Y0256372D01*
X0203650Y0257971D02*
X0200750Y0257971D01*
X0200750Y0259569D02*
X0203650Y0259569D01*
X0203650Y0261168D02*
X0200750Y0261168D01*
X0200750Y0262766D02*
X0203650Y0262766D01*
X0203650Y0264365D02*
X0200750Y0264365D01*
X0200750Y0265963D02*
X0203650Y0265963D01*
X0203650Y0267562D02*
X0200750Y0267562D01*
X0200275Y0269160D02*
X0204125Y0269160D01*
X0205029Y0270759D02*
X0199371Y0270759D01*
X0199000Y0272357D02*
X0206944Y0272357D01*
X0207100Y0273956D02*
X0199000Y0273956D01*
X0199000Y0275554D02*
X0207100Y0275554D01*
X0207100Y0277153D02*
X0199000Y0277153D01*
X0199000Y0278751D02*
X0207100Y0278751D01*
X0207100Y0280350D02*
X0199000Y0280350D01*
X0199000Y0281948D02*
X0207100Y0281948D01*
X0207100Y0283547D02*
X0199000Y0283547D01*
X0199000Y0285145D02*
X0207100Y0285145D01*
X0207100Y0286744D02*
X0199000Y0286744D01*
X0199000Y0288342D02*
X0207100Y0288342D01*
X0207100Y0289941D02*
X0199000Y0289941D01*
X0199000Y0291539D02*
X0207100Y0291539D01*
X0207100Y0293138D02*
X0199000Y0293138D01*
X0199000Y0294737D02*
X0207100Y0294737D01*
X0206399Y0296335D02*
X0199000Y0296335D01*
X0199670Y0297934D02*
X0204796Y0297934D01*
X0204011Y0299532D02*
X0200455Y0299532D01*
X0200857Y0301131D02*
X0203609Y0301131D01*
X0203609Y0302729D02*
X0200857Y0302729D01*
X0200857Y0304328D02*
X0203609Y0304328D01*
X0203609Y0305926D02*
X0200857Y0305926D01*
X0200857Y0307525D02*
X0203609Y0307525D01*
X0203609Y0309123D02*
X0200857Y0309123D01*
X0200857Y0310722D02*
X0203609Y0310722D01*
X0203609Y0312320D02*
X0200857Y0312320D01*
X0200517Y0313919D02*
X0203949Y0313919D01*
X0204647Y0315517D02*
X0199819Y0315517D01*
X0198221Y0317116D02*
X0206246Y0317116D01*
X0213811Y0317116D02*
X0221836Y0317116D01*
X0221982Y0317262D02*
X0220177Y0315456D01*
X0219199Y0313097D01*
X0219199Y0300503D01*
X0220177Y0298144D01*
X0221982Y0296338D01*
X0224342Y0295361D01*
X0226896Y0295361D01*
X0229255Y0296338D01*
X0231061Y0298144D01*
X0232039Y0300503D01*
X0232039Y0313097D01*
X0231061Y0315456D01*
X0229255Y0317262D01*
X0226896Y0318239D01*
X0224342Y0318239D01*
X0221982Y0317262D01*
X0220238Y0315517D02*
X0215410Y0315517D01*
X0216108Y0313919D02*
X0219540Y0313919D01*
X0219199Y0312320D02*
X0216448Y0312320D01*
X0216448Y0310722D02*
X0219199Y0310722D01*
X0219199Y0309123D02*
X0216448Y0309123D01*
X0216448Y0307525D02*
X0219199Y0307525D01*
X0219199Y0305926D02*
X0216448Y0305926D01*
X0216448Y0304328D02*
X0219199Y0304328D01*
X0219199Y0302729D02*
X0216448Y0302729D01*
X0216448Y0301131D02*
X0219199Y0301131D01*
X0219602Y0299532D02*
X0216046Y0299532D01*
X0215260Y0297934D02*
X0220387Y0297934D01*
X0221990Y0296335D02*
X0213658Y0296335D01*
X0211500Y0294737D02*
X0237100Y0294737D01*
X0237100Y0296335D02*
X0229248Y0296335D01*
X0230851Y0297934D02*
X0235977Y0297934D01*
X0235192Y0299532D02*
X0231636Y0299532D01*
X0232039Y0301131D02*
X0234790Y0301131D01*
X0234790Y0302729D02*
X0232039Y0302729D01*
X0232039Y0304328D02*
X0234790Y0304328D01*
X0234790Y0305926D02*
X0232039Y0305926D01*
X0232039Y0307525D02*
X0234790Y0307525D01*
X0234790Y0309123D02*
X0232039Y0309123D01*
X0232039Y0310722D02*
X0234790Y0310722D01*
X0234790Y0312320D02*
X0232039Y0312320D01*
X0231698Y0313919D02*
X0235130Y0313919D01*
X0235828Y0315517D02*
X0231000Y0315517D01*
X0229402Y0317116D02*
X0237427Y0317116D01*
X0239300Y0306800D02*
X0241209Y0306800D01*
X0239300Y0306800D02*
X0239300Y0261800D01*
X0241200Y0261800D01*
X0234850Y0261168D02*
X0231950Y0261168D01*
X0231950Y0262766D02*
X0234850Y0262766D01*
X0234850Y0264365D02*
X0231950Y0264365D01*
X0231950Y0265963D02*
X0234850Y0265963D01*
X0234850Y0267562D02*
X0231950Y0267562D01*
X0231950Y0268013D02*
X0230983Y0270347D01*
X0229197Y0272133D01*
X0226863Y0273100D01*
X0224337Y0273100D01*
X0222003Y0272133D01*
X0220217Y0270347D01*
X0219250Y0268013D01*
X0219250Y0255587D01*
X0220217Y0253253D01*
X0222003Y0251467D01*
X0224337Y0250500D01*
X0226863Y0250500D01*
X0229197Y0251467D01*
X0230983Y0253253D01*
X0231950Y0255587D01*
X0231950Y0268013D01*
X0231475Y0269160D02*
X0235325Y0269160D01*
X0236229Y0270759D02*
X0230571Y0270759D01*
X0228656Y0272357D02*
X0237100Y0272357D01*
X0237100Y0273956D02*
X0211500Y0273956D01*
X0211500Y0275554D02*
X0237100Y0275554D01*
X0237100Y0277153D02*
X0211500Y0277153D01*
X0211500Y0278751D02*
X0237100Y0278751D01*
X0237100Y0280350D02*
X0211500Y0280350D01*
X0211500Y0281948D02*
X0237100Y0281948D01*
X0237100Y0283547D02*
X0211500Y0283547D01*
X0211500Y0285145D02*
X0237100Y0285145D01*
X0237100Y0286744D02*
X0211500Y0286744D01*
X0211500Y0288342D02*
X0237100Y0288342D01*
X0237100Y0289941D02*
X0211500Y0289941D01*
X0211500Y0291539D02*
X0237100Y0291539D01*
X0237100Y0293138D02*
X0211500Y0293138D01*
X0210028Y0306800D02*
X0209300Y0306800D01*
X0209300Y0261800D01*
X0210000Y0261800D01*
X0216350Y0261168D02*
X0219250Y0261168D01*
X0219250Y0262766D02*
X0216350Y0262766D01*
X0216350Y0264365D02*
X0219250Y0264365D01*
X0219250Y0265963D02*
X0216350Y0265963D01*
X0216350Y0267562D02*
X0219250Y0267562D01*
X0219725Y0269160D02*
X0215875Y0269160D01*
X0214971Y0270759D02*
X0220629Y0270759D01*
X0222544Y0272357D02*
X0213056Y0272357D01*
X0216350Y0259569D02*
X0219250Y0259569D01*
X0219250Y0257971D02*
X0216350Y0257971D01*
X0216350Y0256372D02*
X0219250Y0256372D01*
X0219587Y0254774D02*
X0216013Y0254774D01*
X0215305Y0253175D02*
X0220295Y0253175D01*
X0221893Y0251577D02*
X0213707Y0251577D01*
X0229307Y0251577D02*
X0237493Y0251577D01*
X0235895Y0253175D02*
X0230905Y0253175D01*
X0231613Y0254774D02*
X0235187Y0254774D01*
X0234850Y0256372D02*
X0231950Y0256372D01*
X0231950Y0257971D02*
X0234850Y0257971D01*
X0234850Y0259569D02*
X0231950Y0259569D01*
X0196800Y0261800D02*
X0194400Y0261800D01*
X0196800Y0261800D02*
X0196800Y0306800D01*
X0194438Y0306800D01*
X0188018Y0307525D02*
X0185267Y0307525D01*
X0185267Y0309123D02*
X0188018Y0309123D01*
X0188018Y0310722D02*
X0185267Y0310722D01*
X0185267Y0312320D02*
X0188018Y0312320D01*
X0188359Y0313919D02*
X0184926Y0313919D01*
X0184229Y0315517D02*
X0189056Y0315517D01*
X0190655Y0317116D02*
X0182630Y0317116D01*
X0175064Y0317116D02*
X0167040Y0317116D01*
X0166893Y0317262D02*
X0164534Y0318239D01*
X0161980Y0318239D01*
X0159620Y0317262D01*
X0157814Y0315456D01*
X0156837Y0313097D01*
X0156837Y0300503D01*
X0157814Y0298144D01*
X0159620Y0296338D01*
X0161980Y0295361D01*
X0164534Y0295361D01*
X0166893Y0296338D01*
X0168699Y0298144D01*
X0169676Y0300503D01*
X0169676Y0313097D01*
X0168699Y0315456D01*
X0166893Y0317262D01*
X0168638Y0315517D02*
X0173466Y0315517D01*
X0172768Y0313919D02*
X0169336Y0313919D01*
X0169676Y0312320D02*
X0172428Y0312320D01*
X0172428Y0310722D02*
X0169676Y0310722D01*
X0169676Y0309123D02*
X0172428Y0309123D01*
X0172428Y0307525D02*
X0169676Y0307525D01*
X0169676Y0305926D02*
X0172428Y0305926D01*
X0172428Y0304328D02*
X0169676Y0304328D01*
X0169676Y0302729D02*
X0172428Y0302729D01*
X0172428Y0301131D02*
X0169676Y0301131D01*
X0169274Y0299532D02*
X0172830Y0299532D01*
X0173615Y0297934D02*
X0168489Y0297934D01*
X0166886Y0296335D02*
X0174600Y0296335D01*
X0174600Y0294737D02*
X0013600Y0294737D01*
X0013600Y0296335D02*
X0159627Y0296335D01*
X0158025Y0297934D02*
X0013600Y0297934D01*
X0013600Y0299532D02*
X0157239Y0299532D01*
X0156837Y0301131D02*
X0013600Y0301131D01*
X0013600Y0302729D02*
X0156837Y0302729D01*
X0156837Y0304328D02*
X0013600Y0304328D01*
X0013600Y0305926D02*
X0156837Y0305926D01*
X0156837Y0307525D02*
X0013600Y0307525D01*
X0013600Y0309123D02*
X0156837Y0309123D01*
X0156837Y0310722D02*
X0013600Y0310722D01*
X0013600Y0312320D02*
X0156837Y0312320D01*
X0157177Y0313919D02*
X0013600Y0313919D01*
X0013600Y0315517D02*
X0157875Y0315517D01*
X0159474Y0317116D02*
X0013600Y0317116D01*
X0013600Y0318714D02*
X0363701Y0318714D01*
X0363701Y0320313D02*
X0013600Y0320313D01*
X0013600Y0321911D02*
X0363701Y0321911D01*
X0363701Y0323510D02*
X0013600Y0323510D01*
X0013600Y0325108D02*
X0363701Y0325108D01*
X0350343Y0306800D02*
X0349300Y0306800D01*
X0349300Y0261800D01*
X0350400Y0261800D01*
X0336800Y0261800D02*
X0334800Y0261800D01*
X0336800Y0261800D02*
X0336800Y0306800D01*
X0334753Y0306800D01*
X0328333Y0307525D02*
X0325582Y0307525D01*
X0325582Y0309123D02*
X0328333Y0309123D01*
X0328333Y0310722D02*
X0325582Y0310722D01*
X0325582Y0312320D02*
X0328333Y0312320D01*
X0328674Y0313919D02*
X0325241Y0313919D01*
X0325582Y0313097D02*
X0324605Y0315456D01*
X0322799Y0317262D01*
X0320439Y0318239D01*
X0317885Y0318239D01*
X0315526Y0317262D01*
X0313720Y0315456D01*
X0312743Y0313097D01*
X0312743Y0300503D01*
X0313720Y0298144D01*
X0314600Y0297264D01*
X0314600Y0271130D01*
X0313817Y0270347D01*
X0312850Y0268013D01*
X0312850Y0255587D01*
X0313817Y0253253D01*
X0315603Y0251467D01*
X0317937Y0250500D01*
X0320463Y0250500D01*
X0322797Y0251467D01*
X0324583Y0253253D01*
X0325550Y0255587D01*
X0325550Y0268013D01*
X0324583Y0270347D01*
X0322797Y0272133D01*
X0320463Y0273100D01*
X0319000Y0273100D01*
X0319000Y0295361D01*
X0320439Y0295361D01*
X0322799Y0296338D01*
X0324605Y0298144D01*
X0325582Y0300503D01*
X0325582Y0313097D01*
X0324544Y0315517D02*
X0329371Y0315517D01*
X0330970Y0317116D02*
X0322945Y0317116D01*
X0315379Y0317116D02*
X0307354Y0317116D01*
X0307208Y0317262D02*
X0304849Y0318239D01*
X0302295Y0318239D01*
X0299935Y0317262D01*
X0298129Y0315456D01*
X0297152Y0313097D01*
X0297152Y0300503D01*
X0298129Y0298144D01*
X0299935Y0296338D01*
X0302100Y0295441D01*
X0302100Y0273002D01*
X0300003Y0272133D01*
X0298217Y0270347D01*
X0297250Y0268013D01*
X0297250Y0255587D01*
X0298217Y0253253D01*
X0300003Y0251467D01*
X0302337Y0250500D01*
X0304863Y0250500D01*
X0307197Y0251467D01*
X0308983Y0253253D01*
X0309950Y0255587D01*
X0309950Y0268013D01*
X0308983Y0270347D01*
X0307197Y0272133D01*
X0306500Y0272422D01*
X0306500Y0296045D01*
X0307208Y0296338D01*
X0309014Y0298144D01*
X0309991Y0300503D01*
X0309991Y0313097D01*
X0309014Y0315456D01*
X0307208Y0317262D01*
X0308953Y0315517D02*
X0313781Y0315517D01*
X0313083Y0313919D02*
X0309651Y0313919D01*
X0309991Y0312320D02*
X0312743Y0312320D01*
X0312743Y0310722D02*
X0309991Y0310722D01*
X0309991Y0309123D02*
X0312743Y0309123D01*
X0312743Y0307525D02*
X0309991Y0307525D01*
X0309991Y0305926D02*
X0312743Y0305926D01*
X0312743Y0304328D02*
X0309991Y0304328D01*
X0309991Y0302729D02*
X0312743Y0302729D01*
X0312743Y0301131D02*
X0309991Y0301131D01*
X0309589Y0299532D02*
X0313145Y0299532D01*
X0313930Y0297934D02*
X0308804Y0297934D01*
X0307201Y0296335D02*
X0314600Y0296335D01*
X0314600Y0294737D02*
X0306500Y0294737D01*
X0306500Y0293138D02*
X0314600Y0293138D01*
X0314600Y0291539D02*
X0306500Y0291539D01*
X0306500Y0289941D02*
X0314600Y0289941D01*
X0314600Y0288342D02*
X0306500Y0288342D01*
X0306500Y0286744D02*
X0314600Y0286744D01*
X0314600Y0285145D02*
X0306500Y0285145D01*
X0306500Y0283547D02*
X0314600Y0283547D01*
X0314600Y0281948D02*
X0306500Y0281948D01*
X0306500Y0280350D02*
X0314600Y0280350D01*
X0314600Y0278751D02*
X0306500Y0278751D01*
X0306500Y0277153D02*
X0314600Y0277153D01*
X0314600Y0275554D02*
X0306500Y0275554D01*
X0306500Y0273956D02*
X0314600Y0273956D01*
X0314600Y0272357D02*
X0306656Y0272357D01*
X0308571Y0270759D02*
X0314229Y0270759D01*
X0313325Y0269160D02*
X0309475Y0269160D01*
X0309950Y0267562D02*
X0312850Y0267562D01*
X0312850Y0265963D02*
X0309950Y0265963D01*
X0309950Y0264365D02*
X0312850Y0264365D01*
X0312850Y0262766D02*
X0309950Y0262766D01*
X0309950Y0261168D02*
X0312850Y0261168D01*
X0312850Y0259569D02*
X0309950Y0259569D01*
X0309950Y0257971D02*
X0312850Y0257971D01*
X0312850Y0256372D02*
X0309950Y0256372D01*
X0309613Y0254774D02*
X0313187Y0254774D01*
X0313895Y0253175D02*
X0308905Y0253175D01*
X0307307Y0251577D02*
X0315493Y0251577D01*
X0322907Y0251577D02*
X0331093Y0251577D01*
X0329495Y0253175D02*
X0324505Y0253175D01*
X0325213Y0254774D02*
X0328787Y0254774D01*
X0328450Y0256372D02*
X0325550Y0256372D01*
X0325550Y0257971D02*
X0328450Y0257971D01*
X0328450Y0259569D02*
X0325550Y0259569D01*
X0325550Y0261168D02*
X0328450Y0261168D01*
X0328450Y0262766D02*
X0325550Y0262766D01*
X0325550Y0264365D02*
X0328450Y0264365D01*
X0328450Y0265963D02*
X0325550Y0265963D01*
X0325550Y0267562D02*
X0328450Y0267562D01*
X0328925Y0269160D02*
X0325075Y0269160D01*
X0324171Y0270759D02*
X0329829Y0270759D01*
X0331744Y0272357D02*
X0322256Y0272357D01*
X0319000Y0273956D02*
X0334600Y0273956D01*
X0334600Y0275554D02*
X0319000Y0275554D01*
X0319000Y0277153D02*
X0334600Y0277153D01*
X0334600Y0278751D02*
X0319000Y0278751D01*
X0319000Y0280350D02*
X0334600Y0280350D01*
X0334600Y0281948D02*
X0319000Y0281948D01*
X0319000Y0283547D02*
X0334600Y0283547D01*
X0334600Y0285145D02*
X0319000Y0285145D01*
X0319000Y0286744D02*
X0334600Y0286744D01*
X0334600Y0288342D02*
X0319000Y0288342D01*
X0319000Y0289941D02*
X0334600Y0289941D01*
X0334600Y0291539D02*
X0319000Y0291539D01*
X0319000Y0293138D02*
X0334600Y0293138D01*
X0334600Y0294737D02*
X0319000Y0294737D01*
X0322792Y0296335D02*
X0331123Y0296335D01*
X0329521Y0297934D02*
X0324394Y0297934D01*
X0325180Y0299532D02*
X0328735Y0299532D01*
X0328333Y0301131D02*
X0325582Y0301131D01*
X0325582Y0302729D02*
X0328333Y0302729D01*
X0328333Y0304328D02*
X0325582Y0304328D01*
X0325582Y0305926D02*
X0328333Y0305926D01*
X0319162Y0306800D02*
X0316800Y0306800D01*
X0316800Y0261800D01*
X0319200Y0261800D01*
X0304300Y0261800D02*
X0303600Y0261800D01*
X0304300Y0261800D02*
X0304300Y0306800D01*
X0303572Y0306800D01*
X0297152Y0307525D02*
X0294401Y0307525D01*
X0294401Y0309123D02*
X0297152Y0309123D01*
X0297152Y0310722D02*
X0294401Y0310722D01*
X0294401Y0312320D02*
X0297152Y0312320D01*
X0297492Y0313919D02*
X0294060Y0313919D01*
X0293362Y0315517D02*
X0298190Y0315517D01*
X0299789Y0317116D02*
X0291764Y0317116D01*
X0294401Y0305926D02*
X0297152Y0305926D01*
X0297152Y0304328D02*
X0294401Y0304328D01*
X0294401Y0302729D02*
X0297152Y0302729D01*
X0297152Y0301131D02*
X0294401Y0301131D01*
X0293998Y0299532D02*
X0297554Y0299532D01*
X0298340Y0297934D02*
X0293213Y0297934D01*
X0291610Y0296335D02*
X0299942Y0296335D01*
X0302100Y0294737D02*
X0291500Y0294737D01*
X0291500Y0293138D02*
X0302100Y0293138D01*
X0302100Y0291539D02*
X0291500Y0291539D01*
X0291500Y0289941D02*
X0302100Y0289941D01*
X0302100Y0288342D02*
X0291500Y0288342D01*
X0291500Y0286744D02*
X0302100Y0286744D01*
X0302100Y0285145D02*
X0291500Y0285145D01*
X0291500Y0283547D02*
X0302100Y0283547D01*
X0302100Y0281948D02*
X0291500Y0281948D01*
X0291500Y0280350D02*
X0302100Y0280350D01*
X0302100Y0278751D02*
X0291500Y0278751D01*
X0291500Y0277153D02*
X0302100Y0277153D01*
X0302100Y0275554D02*
X0291500Y0275554D01*
X0291500Y0273956D02*
X0302100Y0273956D01*
X0300544Y0272357D02*
X0291500Y0272357D01*
X0292971Y0270759D02*
X0298629Y0270759D01*
X0297725Y0269160D02*
X0293875Y0269160D01*
X0294350Y0267562D02*
X0297250Y0267562D01*
X0297250Y0265963D02*
X0294350Y0265963D01*
X0294350Y0264365D02*
X0297250Y0264365D01*
X0297250Y0262766D02*
X0294350Y0262766D01*
X0294350Y0261168D02*
X0297250Y0261168D01*
X0297250Y0259569D02*
X0294350Y0259569D01*
X0294350Y0257971D02*
X0297250Y0257971D01*
X0297250Y0256372D02*
X0294350Y0256372D01*
X0294438Y0254774D02*
X0297587Y0254774D01*
X0298295Y0253175D02*
X0296036Y0253175D01*
X0297635Y0251577D02*
X0299893Y0251577D01*
X0299233Y0249978D02*
X0363701Y0249978D01*
X0352100Y0238789D02*
X0310423Y0238789D01*
X0312021Y0237190D02*
X0352100Y0237190D01*
X0352100Y0235592D02*
X0313620Y0235592D01*
X0315218Y0233993D02*
X0352100Y0233993D01*
X0352100Y0232395D02*
X0349462Y0232395D01*
X0349066Y0232791D02*
X0347596Y0233400D01*
X0346004Y0233400D01*
X0344534Y0232791D01*
X0343409Y0231666D01*
X0342800Y0230196D01*
X0342800Y0223404D01*
X0343409Y0221934D01*
X0344534Y0220809D01*
X0346004Y0220200D01*
X0347596Y0220200D01*
X0349066Y0220809D01*
X0350191Y0221934D01*
X0350800Y0223404D01*
X0350800Y0230196D01*
X0350191Y0231666D01*
X0349066Y0232791D01*
X0350551Y0230796D02*
X0352100Y0230796D01*
X0352100Y0229198D02*
X0350800Y0229198D01*
X0350800Y0227599D02*
X0352100Y0227599D01*
X0352100Y0226001D02*
X0350800Y0226001D01*
X0350800Y0224402D02*
X0352100Y0224402D01*
X0352100Y0222803D02*
X0350551Y0222803D01*
X0349462Y0221205D02*
X0352100Y0221205D01*
X0344138Y0221205D02*
X0339462Y0221205D01*
X0339066Y0220809D02*
X0340191Y0221934D01*
X0340800Y0223404D01*
X0340800Y0230196D01*
X0340191Y0231666D01*
X0339066Y0232791D01*
X0337596Y0233400D01*
X0336004Y0233400D01*
X0334534Y0232791D01*
X0333409Y0231666D01*
X0332800Y0230196D01*
X0332800Y0223404D01*
X0333409Y0221934D01*
X0334534Y0220809D01*
X0336004Y0220200D01*
X0337596Y0220200D01*
X0339066Y0220809D01*
X0340551Y0222803D02*
X0343049Y0222803D01*
X0342800Y0224402D02*
X0340800Y0224402D01*
X0340800Y0226001D02*
X0342800Y0226001D01*
X0342800Y0227599D02*
X0340800Y0227599D01*
X0340800Y0229198D02*
X0342800Y0229198D01*
X0343049Y0230796D02*
X0340551Y0230796D01*
X0339462Y0232395D02*
X0344138Y0232395D01*
X0334138Y0232395D02*
X0329462Y0232395D01*
X0329066Y0232791D02*
X0330191Y0231666D01*
X0330800Y0230196D01*
X0330800Y0223404D01*
X0330191Y0221934D01*
X0329066Y0220809D01*
X0327596Y0220200D01*
X0326004Y0220200D01*
X0324534Y0220809D01*
X0323409Y0221934D01*
X0322800Y0223404D01*
X0322800Y0230196D01*
X0323409Y0231666D01*
X0324534Y0232791D01*
X0326004Y0233400D01*
X0327596Y0233400D01*
X0329066Y0232791D01*
X0330551Y0230796D02*
X0333049Y0230796D01*
X0332800Y0229198D02*
X0330800Y0229198D01*
X0330800Y0227599D02*
X0332800Y0227599D01*
X0332800Y0226001D02*
X0330800Y0226001D01*
X0330800Y0224402D02*
X0332800Y0224402D01*
X0333049Y0222803D02*
X0330551Y0222803D01*
X0329462Y0221205D02*
X0334138Y0221205D01*
X0324138Y0221205D02*
X0319462Y0221205D01*
X0320551Y0222803D02*
X0323049Y0222803D01*
X0322800Y0224402D02*
X0320800Y0224402D01*
X0320800Y0226001D02*
X0322800Y0226001D01*
X0322800Y0227599D02*
X0320800Y0227599D01*
X0320800Y0229198D02*
X0322800Y0229198D01*
X0323049Y0230796D02*
X0320551Y0230796D01*
X0319462Y0232395D02*
X0324138Y0232395D01*
X0297806Y0245183D02*
X0145794Y0245183D01*
X0147392Y0246781D02*
X0296208Y0246781D01*
X0294609Y0248380D02*
X0148991Y0248380D01*
X0150589Y0249978D02*
X0293011Y0249978D01*
X0284293Y0251577D02*
X0276107Y0251577D01*
X0277705Y0253175D02*
X0282695Y0253175D01*
X0281987Y0254774D02*
X0278413Y0254774D01*
X0278750Y0256372D02*
X0281650Y0256372D01*
X0281650Y0257971D02*
X0278750Y0257971D01*
X0278750Y0259569D02*
X0281650Y0259569D01*
X0281650Y0261168D02*
X0278750Y0261168D01*
X0278750Y0262766D02*
X0281650Y0262766D01*
X0281650Y0264365D02*
X0278750Y0264365D01*
X0278750Y0265963D02*
X0281650Y0265963D01*
X0281650Y0267562D02*
X0278750Y0267562D01*
X0278275Y0269160D02*
X0282125Y0269160D01*
X0283029Y0270759D02*
X0277371Y0270759D01*
X0276500Y0272357D02*
X0284944Y0272357D01*
X0339237Y0205220D02*
X0340269Y0205220D01*
X0340458Y0203621D02*
X0341867Y0203621D01*
X0342800Y0202023D02*
X0340800Y0202023D01*
X0340800Y0200424D02*
X0342800Y0200424D01*
X0342800Y0198826D02*
X0340800Y0198826D01*
X0340800Y0197227D02*
X0342800Y0197227D01*
X0342956Y0195629D02*
X0340644Y0195629D01*
X0339687Y0194030D02*
X0343913Y0194030D01*
X0242350Y0160462D02*
X0225068Y0160462D01*
X0226249Y0158863D02*
X0240752Y0158863D01*
X0239153Y0157265D02*
X0226700Y0157265D01*
X0226634Y0155666D02*
X0237555Y0155666D01*
X0235956Y0154068D02*
X0225972Y0154068D01*
X0224148Y0152469D02*
X0234358Y0152469D01*
X0232759Y0150870D02*
X0224659Y0150870D01*
X0226080Y0149272D02*
X0231161Y0149272D01*
X0229562Y0147673D02*
X0226700Y0147673D01*
X0226700Y0146075D02*
X0227964Y0146075D01*
X0226365Y0144476D02*
X0226141Y0144476D01*
X0218160Y0130090D02*
X0165440Y0130090D01*
X0160797Y0131688D02*
X0159800Y0131688D01*
X0161800Y0136800D02*
X0149300Y0124300D01*
X0155413Y0117302D02*
X0156900Y0117302D01*
X0156951Y0115703D02*
X0153814Y0115703D01*
X0152216Y0114105D02*
X0157613Y0114105D01*
X0159362Y0112506D02*
X0150617Y0112506D01*
X0149019Y0110908D02*
X0158978Y0110908D01*
X0157536Y0109309D02*
X0147420Y0109309D01*
X0145822Y0107711D02*
X0156900Y0107711D01*
X0156900Y0106112D02*
X0144223Y0106112D01*
X0142625Y0104514D02*
X0156402Y0104514D01*
X0154804Y0102915D02*
X0141026Y0102915D01*
X0139428Y0101317D02*
X0153205Y0101317D01*
X0151607Y0099718D02*
X0137829Y0099718D01*
X0157012Y0118900D02*
X0157366Y0118900D01*
X0160209Y0122097D02*
X0160349Y0122097D01*
X0159810Y0141279D02*
X0159391Y0141279D01*
X0117964Y0146075D02*
X0105800Y0146075D01*
X0105800Y0147673D02*
X0107815Y0147673D01*
X0106217Y0149272D02*
X0105185Y0149272D01*
X0106800Y0156800D02*
X0096800Y0156800D01*
X0094300Y0159300D01*
X0091800Y0159300D01*
X0091800Y0166800D01*
X0095800Y0166856D02*
X0097800Y0166856D01*
X0097800Y0165257D02*
X0095800Y0165257D01*
X0095800Y0163659D02*
X0097800Y0163659D01*
X0097800Y0162060D02*
X0095800Y0162060D01*
X0096250Y0160462D02*
X0097942Y0160462D01*
X0105658Y0160462D02*
X0106967Y0160462D01*
X0109300Y0159300D02*
X0106800Y0156800D01*
X0096469Y0168454D02*
X0095444Y0168454D01*
X0094870Y0170053D02*
X0094204Y0170053D01*
X0093272Y0171651D02*
X0080626Y0171651D01*
X0084204Y0170053D02*
X0089396Y0170053D01*
X0088156Y0168454D02*
X0085444Y0168454D01*
X0085800Y0166856D02*
X0087800Y0166856D01*
X0087800Y0165257D02*
X0085800Y0165257D01*
X0085800Y0163659D02*
X0087800Y0163659D01*
X0087800Y0162060D02*
X0085800Y0162060D01*
X0085658Y0160462D02*
X0087942Y0160462D01*
X0088880Y0158863D02*
X0084720Y0158863D01*
X0079447Y0157265D02*
X0090724Y0157265D01*
X0088415Y0149272D02*
X0085185Y0149272D01*
X0085800Y0147673D02*
X0087800Y0147673D01*
X0087800Y0146075D02*
X0085800Y0146075D01*
X0085800Y0144476D02*
X0087800Y0144476D01*
X0087800Y0142878D02*
X0085800Y0142878D01*
X0085800Y0141279D02*
X0087800Y0141279D01*
X0088348Y0139681D02*
X0085252Y0139681D01*
X0083277Y0138082D02*
X0090323Y0138082D01*
X0091800Y0141800D02*
X0096800Y0136800D01*
X0111800Y0136800D01*
X0078880Y0158863D02*
X0077848Y0158863D01*
X0077942Y0160462D02*
X0076250Y0160462D01*
X0075800Y0162060D02*
X0077800Y0162060D01*
X0077800Y0163659D02*
X0075800Y0163659D01*
X0075800Y0165257D02*
X0077800Y0165257D01*
X0077800Y0166856D02*
X0075800Y0166856D01*
X0075444Y0168454D02*
X0076469Y0168454D01*
X0074870Y0170053D02*
X0074204Y0170053D01*
X0073272Y0171651D02*
X0060626Y0171651D01*
X0064204Y0170053D02*
X0069396Y0170053D01*
X0068156Y0168454D02*
X0065444Y0168454D01*
X0057800Y0166856D02*
X0055800Y0166856D01*
X0055800Y0167596D02*
X0055191Y0169066D01*
X0054066Y0170191D01*
X0052596Y0170800D01*
X0051004Y0170800D01*
X0049534Y0170191D01*
X0048409Y0169066D01*
X0047800Y0167596D01*
X0047800Y0160804D01*
X0048409Y0159334D01*
X0049534Y0158209D01*
X0051004Y0157600D01*
X0052596Y0157600D01*
X0054066Y0158209D01*
X0055191Y0159334D01*
X0055800Y0160804D01*
X0055800Y0167596D01*
X0055444Y0168454D02*
X0056469Y0168454D01*
X0054870Y0170053D02*
X0054204Y0170053D01*
X0053272Y0171651D02*
X0050328Y0171651D01*
X0049396Y0170053D02*
X0048730Y0170053D01*
X0048156Y0168454D02*
X0047131Y0168454D01*
X0047800Y0166856D02*
X0045800Y0166856D01*
X0045800Y0165257D02*
X0047800Y0165257D01*
X0047800Y0163659D02*
X0045800Y0163659D01*
X0045800Y0162060D02*
X0047800Y0162060D01*
X0047942Y0160462D02*
X0045658Y0160462D01*
X0044720Y0158863D02*
X0048880Y0158863D01*
X0051800Y0154300D02*
X0051800Y0141800D01*
X0065252Y0139681D02*
X0068348Y0139681D01*
X0067800Y0141279D02*
X0065800Y0141279D01*
X0065800Y0142878D02*
X0067800Y0142878D01*
X0067800Y0144476D02*
X0065800Y0144476D01*
X0065800Y0146075D02*
X0067800Y0146075D01*
X0067800Y0147673D02*
X0065800Y0147673D01*
X0065185Y0149272D02*
X0068415Y0149272D01*
X0058880Y0158863D02*
X0054720Y0158863D01*
X0055658Y0160462D02*
X0057942Y0160462D01*
X0057800Y0162060D02*
X0055800Y0162060D01*
X0055800Y0163659D02*
X0057800Y0163659D01*
X0057800Y0165257D02*
X0055800Y0165257D01*
X0046171Y0174848D02*
X0021500Y0174848D01*
X0021500Y0173250D02*
X0044573Y0173250D01*
X0042974Y0171651D02*
X0021500Y0171651D01*
X0021500Y0170053D02*
X0029396Y0170053D01*
X0028156Y0168454D02*
X0021500Y0168454D01*
X0021500Y0166856D02*
X0027800Y0166856D01*
X0027800Y0165257D02*
X0021500Y0165257D01*
X0021500Y0163659D02*
X0027800Y0163659D01*
X0027800Y0162060D02*
X0021500Y0162060D01*
X0021500Y0160462D02*
X0027942Y0160462D01*
X0028880Y0158863D02*
X0021500Y0158863D01*
X0021500Y0157265D02*
X0029600Y0157265D01*
X0029600Y0155666D02*
X0021500Y0155666D01*
X0022644Y0154068D02*
X0029600Y0154068D01*
X0029600Y0152469D02*
X0024242Y0152469D01*
X0025841Y0150870D02*
X0029618Y0150870D01*
X0028415Y0149272D02*
X0027439Y0149272D01*
X0034300Y0151800D02*
X0036800Y0149300D01*
X0035444Y0168454D02*
X0038156Y0168454D01*
X0039396Y0170053D02*
X0034204Y0170053D01*
X0021500Y0176447D02*
X0047770Y0176447D01*
X0051004Y0192800D02*
X0052596Y0192800D01*
X0054066Y0193409D01*
X0055191Y0194534D01*
X0055800Y0196004D01*
X0055800Y0202796D01*
X0055191Y0204266D01*
X0054066Y0205391D01*
X0052596Y0206000D01*
X0051004Y0206000D01*
X0049534Y0205391D01*
X0048409Y0204266D01*
X0047800Y0202796D01*
X0047800Y0196004D01*
X0048409Y0194534D01*
X0049534Y0193409D01*
X0051004Y0192800D01*
X0048913Y0194030D02*
X0044687Y0194030D01*
X0045644Y0195629D02*
X0047956Y0195629D01*
X0047800Y0197227D02*
X0045800Y0197227D01*
X0045800Y0198826D02*
X0047800Y0198826D01*
X0047800Y0200424D02*
X0045800Y0200424D01*
X0045800Y0202023D02*
X0047800Y0202023D01*
X0048142Y0203621D02*
X0045458Y0203621D01*
X0044237Y0205220D02*
X0049363Y0205220D01*
X0054237Y0205220D02*
X0059363Y0205220D01*
X0059534Y0205391D02*
X0058409Y0204266D01*
X0057800Y0202796D01*
X0057800Y0196004D01*
X0058409Y0194534D01*
X0059534Y0193409D01*
X0061004Y0192800D01*
X0062596Y0192800D01*
X0064066Y0193409D01*
X0065191Y0194534D01*
X0065800Y0196004D01*
X0065800Y0202796D01*
X0065191Y0204266D01*
X0064066Y0205391D01*
X0062596Y0206000D01*
X0061004Y0206000D01*
X0059534Y0205391D01*
X0058142Y0203621D02*
X0055458Y0203621D01*
X0055800Y0202023D02*
X0057800Y0202023D01*
X0057800Y0200424D02*
X0055800Y0200424D01*
X0055800Y0198826D02*
X0057800Y0198826D01*
X0057800Y0197227D02*
X0055800Y0197227D01*
X0055644Y0195629D02*
X0057956Y0195629D01*
X0058913Y0194030D02*
X0054687Y0194030D01*
X0064687Y0194030D02*
X0068913Y0194030D01*
X0067956Y0195629D02*
X0065644Y0195629D01*
X0065800Y0197227D02*
X0067800Y0197227D01*
X0067800Y0198826D02*
X0065800Y0198826D01*
X0065800Y0200424D02*
X0067800Y0200424D01*
X0067800Y0202023D02*
X0065800Y0202023D01*
X0065458Y0203621D02*
X0068142Y0203621D01*
X0069363Y0205220D02*
X0064237Y0205220D01*
X0082025Y0187636D02*
X0021500Y0187636D01*
X0021500Y0186038D02*
X0080426Y0186038D01*
X0078828Y0184439D02*
X0021500Y0184439D01*
X0021500Y0182841D02*
X0077229Y0182841D01*
X0075065Y0181242D02*
X0021500Y0181242D01*
X0021500Y0179644D02*
X0074200Y0179644D01*
X0074506Y0178045D02*
X0021500Y0178045D01*
X0076800Y0179300D02*
X0086800Y0189300D01*
X0152188Y0251577D02*
X0159493Y0251577D01*
X0157895Y0253175D02*
X0153786Y0253175D01*
X0155385Y0254774D02*
X0157187Y0254774D01*
X0166907Y0251577D02*
X0175093Y0251577D01*
X0173495Y0253175D02*
X0168505Y0253175D01*
X0169213Y0254774D02*
X0172787Y0254774D01*
X0172450Y0256372D02*
X0169550Y0256372D01*
X0169550Y0257971D02*
X0172450Y0257971D01*
X0172450Y0259569D02*
X0169550Y0259569D01*
X0176800Y0261800D02*
X0178800Y0261800D01*
X0176800Y0261800D02*
X0176800Y0306800D01*
X0178847Y0306800D01*
X0185267Y0305926D02*
X0188018Y0305926D01*
X0188018Y0304328D02*
X0185267Y0304328D01*
X0185267Y0302729D02*
X0188018Y0302729D01*
X0188018Y0301131D02*
X0185267Y0301131D01*
X0184865Y0299532D02*
X0188420Y0299532D01*
X0189206Y0297934D02*
X0184079Y0297934D01*
X0182477Y0296335D02*
X0190808Y0296335D01*
X0194600Y0294737D02*
X0179000Y0294737D01*
X0179000Y0293138D02*
X0194600Y0293138D01*
X0194600Y0291539D02*
X0179000Y0291539D01*
X0179000Y0289941D02*
X0194600Y0289941D01*
X0194600Y0288342D02*
X0179000Y0288342D01*
X0179000Y0286744D02*
X0194600Y0286744D01*
X0194600Y0285145D02*
X0179000Y0285145D01*
X0179000Y0283547D02*
X0194600Y0283547D01*
X0194600Y0281948D02*
X0179000Y0281948D01*
X0179000Y0280350D02*
X0194600Y0280350D01*
X0194600Y0278751D02*
X0179000Y0278751D01*
X0179000Y0277153D02*
X0194600Y0277153D01*
X0194600Y0275554D02*
X0179000Y0275554D01*
X0179000Y0273956D02*
X0194600Y0273956D01*
X0191344Y0272357D02*
X0181856Y0272357D01*
X0183771Y0270759D02*
X0189429Y0270759D01*
X0188525Y0269160D02*
X0184675Y0269160D01*
X0185150Y0267562D02*
X0188050Y0267562D01*
X0188050Y0265963D02*
X0185150Y0265963D01*
X0185150Y0264365D02*
X0188050Y0264365D01*
X0188050Y0262766D02*
X0185150Y0262766D01*
X0185150Y0261168D02*
X0188050Y0261168D01*
X0188050Y0259569D02*
X0185150Y0259569D01*
X0185150Y0257971D02*
X0188050Y0257971D01*
X0188050Y0256372D02*
X0185150Y0256372D01*
X0184813Y0254774D02*
X0188387Y0254774D01*
X0189095Y0253175D02*
X0184105Y0253175D01*
X0182507Y0251577D02*
X0190693Y0251577D01*
X0174600Y0273956D02*
X0013600Y0273956D01*
X0013600Y0275554D02*
X0174600Y0275554D01*
X0174600Y0277153D02*
X0013600Y0277153D01*
X0013600Y0278751D02*
X0174600Y0278751D01*
X0174600Y0280350D02*
X0013600Y0280350D01*
X0013600Y0281948D02*
X0174600Y0281948D01*
X0174600Y0283547D02*
X0013600Y0283547D01*
X0013600Y0285145D02*
X0174600Y0285145D01*
X0174600Y0286744D02*
X0013600Y0286744D01*
X0013600Y0288342D02*
X0174600Y0288342D01*
X0174600Y0289941D02*
X0013600Y0289941D01*
X0013600Y0291539D02*
X0174600Y0291539D01*
X0174600Y0293138D02*
X0013600Y0293138D01*
X0223251Y0122097D02*
X0223391Y0122097D01*
X0225812Y0099718D02*
X0235771Y0099718D01*
X0237369Y0098120D02*
X0226557Y0098120D01*
X0227690Y0096521D02*
X0238968Y0096521D01*
X0232629Y0075740D02*
X0226665Y0075740D01*
X0226003Y0074142D02*
X0231031Y0074142D01*
X0101800Y0081800D02*
X0101800Y0094300D01*
X0077657Y0085332D02*
X0075744Y0085332D01*
X0075800Y0083733D02*
X0077800Y0083733D01*
X0076059Y0086930D02*
X0074927Y0086930D01*
D18*
X0084300Y0124300D03*
X0064300Y0124300D03*
X0109300Y0154300D03*
X0109300Y0159300D03*
X0076800Y0179300D03*
X0154300Y0191800D03*
X0169300Y0181800D03*
X0166800Y0231800D03*
X0251800Y0231800D03*
X0264300Y0149300D03*
X0254300Y0106800D03*
X0341800Y0181800D03*
D19*
X0339300Y0174300D02*
X0319300Y0174300D01*
X0299300Y0174300D01*
X0306800Y0166800D01*
X0299300Y0174300D02*
X0294300Y0174300D01*
X0286800Y0166800D01*
X0319300Y0174300D02*
X0326800Y0166800D01*
X0339300Y0174300D02*
X0346800Y0166800D01*
X0339300Y0119300D02*
X0319300Y0119300D01*
X0299300Y0119300D01*
X0306800Y0111800D01*
X0299300Y0119300D02*
X0294300Y0119300D01*
X0286800Y0111800D01*
X0319300Y0119300D02*
X0326800Y0111800D01*
X0339300Y0119300D02*
X0346800Y0111800D01*
X0304300Y0054300D02*
X0316800Y0041800D01*
X0321800Y0041800D01*
X0331800Y0041800D02*
X0331800Y0039300D01*
X0321800Y0029300D01*
X0281800Y0029300D01*
X0281800Y0031800D01*
X0174300Y0031800D01*
X0146800Y0059300D01*
X0099300Y0059300D01*
X0084300Y0074300D01*
X0066800Y0056800D01*
X0064300Y0059300D01*
X0036800Y0059300D01*
X0036800Y0046800D01*
X0066800Y0056800D02*
X0076800Y0046800D01*
X0081800Y0046800D01*
X0084300Y0074300D02*
X0086800Y0076800D01*
X0086800Y0104300D01*
X0081800Y0109300D01*
X0081800Y0111800D01*
X0074300Y0119300D01*
X0094300Y0119300D01*
X0101800Y0111800D01*
X0074300Y0119300D02*
X0054300Y0119300D01*
X0061800Y0111800D01*
X0054300Y0119300D02*
X0049300Y0119300D01*
X0041800Y0111800D01*
X0041800Y0166800D02*
X0049300Y0174300D01*
X0054300Y0174300D01*
X0074300Y0174300D01*
X0094300Y0174300D01*
X0101800Y0166800D01*
X0081800Y0166800D02*
X0074300Y0174300D01*
X0061800Y0166800D02*
X0054300Y0174300D01*
X0031800Y0226800D02*
X0031800Y0236800D01*
X0181800Y0236800D01*
X0214300Y0204300D01*
X0244300Y0204300D01*
X0266800Y0226800D01*
X0221800Y0196800D02*
X0214300Y0204300D01*
X0271800Y0054300D02*
X0304300Y0054300D01*
X0281800Y0041800D02*
X0281800Y0031800D01*
X0271800Y0041800D02*
X0271800Y0054300D01*
M02*
