%
M48
M72
T01C0.06600
%
T01
X14597Y31133
X30197Y31133
X45797Y31133
X61397Y31133
X76997Y31133
X92597Y31133
X108197Y31133
X123797Y31133
X139397Y31133
X159479Y31527
X175079Y31527
X190679Y31527
X206279Y31527
X221879Y31527
X237479Y31527
X253079Y31527
X268679Y31527
X284279Y31527
X284279Y73062
X268679Y73062
X253079Y73062
X237479Y73062
X221879Y73062
X206279Y73062
X190679Y73062
X175079Y73062
X159479Y73062
X139397Y72472
X123797Y72472
X108197Y72472
X92597Y72472
X76997Y72472
X61397Y72472
X45797Y72472
X30197Y72472
X14597Y72472
X14400Y117354
X30000Y117354
X45600Y117354
X61200Y117354
X76800Y117354
X92400Y117354
X108000Y117354
X123600Y117354
X139200Y117354
X159479Y117157
X175079Y117157
X190679Y117157
X206279Y117157
X221879Y117157
X237479Y117157
X253079Y117157
X268679Y117157
X284279Y117157
X284279Y158692
X268679Y158692
X253079Y158692
X237479Y158692
X221879Y158692
X206279Y158692
X190679Y158692
X175079Y158692
X159479Y158692
X139200Y158889
X123600Y158889
X108000Y158889
X92400Y158889
X76800Y158889
X61200Y158889
X45600Y158889
X30000Y158889
X14400Y158889
X14400Y202590
X30000Y202590
X45600Y202590
X61200Y202590
X76800Y202590
X92400Y202590
X108000Y202590
X123600Y202590
X139200Y202590
X159872Y202590
X175472Y202590
X191072Y202590
X206672Y202590
X222272Y202590
X237872Y202590
X253472Y202590
X269072Y202590
X284672Y202590
X284672Y244125
X269072Y244125
X253472Y244125
X237872Y244125
X222272Y244125
X206672Y244125
X191072Y244125
X175472Y244125
X159872Y244125
X139200Y244125
X123600Y244125
X108000Y244125
X92400Y244125
X76800Y244125
X61200Y244125
X45600Y244125
X30000Y244125
X14400Y244125
X14400Y287826
X30000Y287826
X45600Y287826
X61200Y287826
X76800Y287826
X92400Y287826
X108000Y287826
X123600Y287826
X139200Y287826
X159676Y287039
X175276Y287039
X190876Y287039
X206476Y287039
X222076Y287039
X237676Y287039
X253276Y287039
X268876Y287039
X284476Y287039
X284476Y328574
X268876Y328574
X253276Y328574
X237676Y328574
X222076Y328574
X206476Y328574
X190876Y328574
X175276Y328574
X159676Y328574
X139200Y329362
X123600Y329362
X108000Y329362
X92400Y329362
X76800Y329362
X61200Y329362
X45600Y329362
X30000Y329362
X14400Y329362
M30
